<svg xmlns="http://www.w3.org/2000/svg" width="42" height="42" viewBox="0 0 42 42" fill="none">
  <path d="M0 21C0 9.40202 9.40202 0 21 0C32.598 0 42 9.40202 42 21C42 32.598 32.598 42 21 42C9.40202 42 0 32.598 0 21Z" fill="white"/>
  <path d="M28.3248 14.1251C26.9448 13.5201 25.4648 13.0751 23.9198 12.8201C23.8908 12.8161 23.8628 12.8281 23.8488 12.8531C23.6568 13.1761 23.4458 13.5971 23.2978 13.9281C21.6358 13.6901 19.9798 13.6901 18.3508 13.9281C18.2028 13.5901 17.9848 13.1761 17.7928 12.8531C17.7798 12.8291 17.7518 12.8171 17.7228 12.8201C16.1768 13.0751 14.6968 13.5201 13.3158 14.1251C13.3048 14.1301 13.2938 14.1381 13.2868 14.1491C10.4808 18.1491 9.71179 22.0501 10.0898 25.9051C10.0908 25.9241 10.1018 25.9421 10.1178 25.9531C11.9688 27.2501 13.7628 28.0381 15.5228 28.5601C15.5508 28.5681 15.5808 28.5601 15.5988 28.5361C16.0148 27.9941 16.3858 27.4221 16.7048 26.8201C16.7228 26.7851 16.7048 26.7431 16.6668 26.7301C16.0778 26.5151 15.5168 26.2551 14.9798 25.9601C14.9358 25.9381 14.9328 25.8801 14.9718 25.8511C15.0848 25.7711 15.1988 25.6861 15.3068 25.6011C15.3268 25.5851 15.3538 25.5801 15.3768 25.5901C18.9198 27.1361 22.7548 27.1361 26.2558 25.5921C26.2788 25.5821 26.3058 25.5851 26.3258 25.6001C26.4368 25.6851 26.5498 25.7701 26.6638 25.8501C26.7028 25.8801 26.6998 25.9381 26.6568 25.9611C26.1168 26.2621 25.5568 26.5161 24.9668 26.7281C24.9298 26.7421 24.9128 26.7851 24.9318 26.8201C25.2558 27.4211 25.6268 27.9931 26.0358 28.5361C26.0528 28.5591 26.0838 28.5681 26.1118 28.5601C27.8798 28.0381 29.6738 27.2501 31.5258 25.9531C31.5418 25.9421 31.5518 25.9241 31.5538 25.9061C32.0048 21.4501 30.7978 17.5801 28.3538 14.1491C28.3458 14.1381 28.3358 14.1301 28.3238 14.1251H28.3248ZM17.2338 23.5581C16.1668 23.5581 15.2878 22.6241 15.2878 21.4761C15.2878 20.3301 16.1498 19.3951 17.2338 19.3951C18.3258 19.3951 19.1958 20.3371 19.1788 21.4761C19.1798 22.6241 18.3168 23.5581 17.2338 23.5581ZM24.4268 23.5581C23.3598 23.5581 22.4798 22.6241 22.4798 21.4761C22.4808 20.3301 23.3428 19.3951 24.4268 19.3951C25.5188 19.3951 26.3888 20.3371 26.3718 21.4761C26.3718 22.6241 25.5198 23.5581 24.4268 23.5581Z" fill="#000508"/>
</svg>