<svg xmlns="http://www.w3.org/2000/svg" width="32" height="32" viewBox="0 0 32 32" fill="none">
  <path d="M23.4727 10.6393C23.4727 10.8082 23.4407 10.9753 23.3749 11.1308C23.31 11.2873 23.2149 11.4286 23.0967 11.5486C22.9767 11.6677 22.8353 11.7619 22.6789 11.8268C22.5224 11.8926 22.3553 11.9246 22.1864 11.9246C22.0184 11.9255 21.8504 11.8926 21.6949 11.8277C21.5384 11.7637 21.3962 11.6686 21.2771 11.5486C21.158 11.4286 21.0638 11.2873 20.9989 11.1308C20.934 10.9753 20.9011 10.8091 20.9011 10.6402C20.9002 10.2979 21.0362 9.97083 21.2762 9.72994C21.5189 9.48816 21.846 9.35305 22.1873 9.35305C22.5278 9.35305 22.8549 9.48816 23.0967 9.72994C23.3367 9.97083 23.4727 10.2979 23.4727 10.6393ZM27.5562 16.4446V16.4615L27.4824 21.1228C27.4647 22.8019 26.7873 24.4091 25.5989 25.5984C24.4104 26.7877 22.8042 27.4642 21.1233 27.4837L16.4451 27.5557H16.4282L11.7669 27.4819C10.0878 27.4642 8.48065 26.7868 7.29132 25.5984C6.10198 24.4099 5.42554 22.8037 5.40598 21.1228L5.33398 16.4446V16.4277L5.40776 11.7664C5.42554 10.0873 6.10198 8.48016 7.29132 7.29083C8.47976 6.1015 10.086 5.42505 11.7678 5.4055L16.4451 5.3335H16.462L21.1233 5.40727C22.8024 5.42505 24.4095 6.1015 25.5989 7.29083C26.7882 8.47927 27.4647 10.0855 27.4842 11.7673L27.5562 16.4446ZM25.4869 16.4446L25.414 11.7984C25.4015 10.6562 24.942 9.56461 24.134 8.75572C23.3251 7.94772 22.2335 7.48816 21.0913 7.47572L16.4451 7.40194L11.7989 7.47572C10.6567 7.48816 9.5651 7.94772 8.75621 8.75572C7.94821 9.56461 7.48865 10.6562 7.47621 11.7984L7.40243 16.4446L7.47621 21.0908C7.48865 22.2331 7.94821 23.3246 8.75621 24.1335C9.5651 24.9415 10.6567 25.4011 11.7989 25.4135L16.4451 25.4873L21.0913 25.4135C22.2335 25.4011 23.3251 24.9415 24.134 24.1335C24.942 23.3246 25.4015 22.2331 25.414 21.0908L25.4869 16.4446ZM22.1509 16.4446C22.1509 17.9575 21.5491 19.4091 20.4798 20.4793C19.4095 21.5486 17.958 22.1504 16.4451 22.1504C14.9322 22.1504 13.4807 21.5486 12.4104 20.4793C11.3402 19.4091 10.7393 17.9575 10.7393 16.4446C10.7393 14.9317 11.3411 13.4802 12.4104 12.4099C13.4807 11.3397 14.9322 10.7388 16.4451 10.7388C17.958 10.7388 19.4095 11.3406 20.4798 12.4099C21.5491 13.4802 22.1509 14.9317 22.1509 16.4446ZM20.0807 16.4446C20.0807 15.4802 19.6984 14.5557 19.0158 13.8731C18.334 13.1913 17.4095 12.8091 16.4451 12.8091C15.4807 12.8091 14.5562 13.1913 13.8735 13.8731C13.1918 14.5566 12.8095 15.4802 12.8095 16.4446C12.8095 17.4091 13.1918 18.3335 13.8735 19.0153C14.5571 19.6979 15.4807 20.0811 16.4451 20.0811C17.4095 20.0802 18.334 19.6979 19.0158 19.0153C19.6984 18.3335 20.0807 17.4091 20.0807 16.4446Z" fill="#000508"/>
</svg>