<svg xmlns="http://www.w3.org/2000/svg" width="32" height="32" viewBox="0 0 32 32" fill="none">
  <path fill-rule="evenodd" clip-rule="evenodd" d="M23.556 6C24.907 6 26 7.095 26 8.444V23.556C26 24.907 24.905 26 23.556 26H8.444C7.094 26 6 24.905 6 23.556V8.444C6 7.094 7.095 6 8.444 6H23.556ZM12.268 22.534V13.717H9.337V22.534H12.268ZM22.836 22.534V17.478C22.836 14.77 21.39 13.51 19.462 13.51C17.907 13.51 17.21 14.365 16.82 14.966V13.717H13.89C13.929 14.545 13.89 22.534 13.89 22.534H16.82V17.61C16.82 17.347 16.84 17.083 16.917 16.895C17.128 16.368 17.611 15.823 18.421 15.823C19.48 15.823 19.905 16.632 19.905 17.817V22.534H22.835H22.836ZM10.822 9.466C9.82 9.466 9.164 10.125 9.164 10.989C9.164 11.835 9.8 12.513 10.784 12.513H10.801C11.824 12.513 12.461 11.835 12.461 10.989C12.44 10.126 11.826 9.468 10.822 9.466Z" fill="#000508"/>
</svg>