<svg width="34" height="34" viewBox="0 0 34 34" fill="none" xmlns="http://www.w3.org/2000/svg">
<g clip-path="url(#clip0_8629_6954)">
<path d="M24.3248 10.4268C22.9448 9.82185 21.4648 9.37685 19.9198 9.12185C19.8908 9.11785 19.8628 9.12985 19.8488 9.15485C19.6568 9.47785 19.4458 9.89885 19.2978 10.2298C17.6358 9.99185 15.9798 9.99185 14.3508 10.2298C14.2028 9.89185 13.9848 9.47785 13.7928 9.15485C13.7798 9.13085 13.7518 9.11885 13.7228 9.12185C12.1768 9.37685 10.6968 9.82185 9.31579 10.4268C9.30479 10.4318 9.29379 10.4399 9.28679 10.4509C6.48079 14.4509 5.71179 18.3519 6.08979 22.2069C6.09079 22.2259 6.10179 22.2439 6.11779 22.2549C7.96879 23.5519 9.76279 24.3399 11.5228 24.8619C11.5508 24.8699 11.5808 24.8619 11.5988 24.8379C12.0148 24.2959 12.3858 23.7239 12.7048 23.1219C12.7228 23.0869 12.7048 23.0449 12.6668 23.0319C12.0778 22.8169 11.5168 22.5569 10.9798 22.2619C10.9358 22.2399 10.9328 22.1818 10.9718 22.1528C11.0848 22.0728 11.1988 21.9878 11.3068 21.9028C11.3268 21.8868 11.3538 21.8818 11.3768 21.8918C14.9198 23.4378 18.7548 23.4378 22.2558 21.8939C22.2788 21.8839 22.3058 21.8868 22.3258 21.9018C22.4368 21.9868 22.5498 22.0718 22.6638 22.1518C22.7028 22.1818 22.6998 22.2399 22.6568 22.2628C22.1168 22.5638 21.5568 22.8179 20.9668 23.0299C20.9298 23.0438 20.9128 23.0869 20.9318 23.1219C21.2558 23.7229 21.6268 24.2949 22.0358 24.8379C22.0528 24.8609 22.0838 24.8699 22.1118 24.8619C23.8798 24.3399 25.6738 23.5519 27.5258 22.2549C27.5418 22.2439 27.5518 22.2258 27.5538 22.2078C28.0048 17.7519 26.7978 13.8819 24.3538 10.4509C24.3458 10.4399 24.3358 10.4318 24.3238 10.4268H24.3248ZM13.2338 19.8598C12.1668 19.8598 11.2878 18.9258 11.2878 17.7778C11.2878 16.6318 12.1498 15.6968 13.2338 15.6968C14.3258 15.6968 15.1958 16.6388 15.1788 17.7778C15.1798 18.9258 14.3168 19.8598 13.2338 19.8598ZM20.4268 19.8598C19.3598 19.8598 18.4798 18.9258 18.4798 17.7778C18.4808 16.6318 19.3428 15.6968 20.4268 15.6968C21.5188 15.6968 22.3888 16.6388 22.3718 17.7778C22.3718 18.9258 21.5198 19.8598 20.4268 19.8598Z" fill="#FFFEF9"/>
</g>
<defs>
<clipPath id="clip0_8629_6954">
<rect width="32" height="32" fill="white" transform="translate(1 1)"/>
</clipPath>
</defs>
</svg>
