<svg width="34" height="34" viewBox="0 0 34 34" fill="none" xmlns="http://www.w3.org/2000/svg">
<g clip-path="url(#clip0_8629_6958)">
<path d="M25.7076 10.7346C25.5457 10.6508 25.388 10.5591 25.2351 10.4596C24.7908 10.1658 24.3834 9.81964 24.0217 9.42856C23.1166 8.39306 22.7786 7.34256 22.6541 6.60706H22.6591C22.5551 5.99656 22.5981 5.60156 22.6046 5.60156H18.4826V21.5406C18.4826 21.7546 18.4827 21.9661 18.4737 22.1751C18.4737 22.2011 18.4711 22.2251 18.4696 22.2531C18.4696 22.2646 18.4697 22.2766 18.4672 22.2886V22.2976C18.4237 22.8695 18.2404 23.4219 17.9333 23.9063C17.6262 24.3907 17.2048 24.7922 16.7062 25.0756C16.1864 25.3712 15.5986 25.5263 15.0006 25.5256C13.0802 25.5256 11.5236 23.9596 11.5236 22.0256C11.5236 20.0916 13.0802 18.5256 15.0006 18.5256C15.3642 18.5252 15.7255 18.5824 16.0712 18.6951L16.0761 14.4981C15.0268 14.3625 13.9608 14.4459 12.9453 14.743C11.9299 15.0401 10.987 15.5443 10.1761 16.2241C9.46568 16.8414 8.86839 17.5779 8.41115 18.4006C8.23715 18.7006 7.58065 19.9061 7.50115 21.8626C7.45115 22.9731 7.78465 24.1236 7.94365 24.5991V24.6091C8.04365 24.8891 8.43115 25.8446 9.06265 26.6501C9.57187 27.2962 10.1735 27.8638 10.8481 28.3346V28.3246L10.8581 28.3346C12.8536 29.6906 15.0662 29.6016 15.0662 29.6016C15.4492 29.5861 16.7322 29.6016 18.1892 28.9111C19.8052 28.1456 20.7252 27.0051 20.7252 27.0051C21.3129 26.3236 21.7802 25.547 22.1071 24.7086C22.4801 23.7281 22.6046 22.5521 22.6046 22.0821V13.6261C22.6546 13.6561 23.3207 14.0966 23.3207 14.0966C23.3207 14.0966 24.2801 14.7116 25.7771 15.1121C26.8511 15.3971 28.2981 15.4571 28.2981 15.4571V11.3651C27.7911 11.4201 26.7617 11.2601 25.7076 10.7346Z" fill="#FFFEF9"/>
</g>
<defs>
<clipPath id="clip0_8629_6958">
<rect width="32" height="32" fill="white" transform="translate(1.29883 1)"/>
</clipPath>
</defs>
</svg>
