<svg width="33" height="34" viewBox="0 0 33 34" fill="none" xmlns="http://www.w3.org/2000/svg">
<g clip-path="url(#clip0_8629_6950)">
<path d="M26.6992 10.7951C25.9632 11.1221 25.1722 11.3421 24.3422 11.4411C25.1902 10.9341 25.8412 10.1301 26.1472 9.17109C25.3542 9.64109 24.4762 9.98309 23.5412 10.1681C22.7932 9.37009 21.7262 8.87109 20.5462 8.87109C17.8962 8.87109 15.9492 11.3431 16.5482 13.9091C13.1392 13.7381 10.1162 12.1051 8.09122 9.62209C7.01622 11.4661 7.53422 13.8791 9.36122 15.1001C8.68922 15.0791 8.05622 14.8951 7.50322 14.5881C7.45922 16.4881 8.82122 18.2681 10.7942 18.6621C10.2162 18.8191 9.58422 18.8561 8.94122 18.7321C9.46222 20.3621 10.9772 21.5481 12.7742 21.5821C11.0492 22.9331 8.87622 23.5381 6.69922 23.2811C8.51522 24.4451 10.6722 25.1241 12.9892 25.1241C20.6072 25.1251 24.9112 18.6911 24.6522 12.9201C25.4522 12.3401 26.1492 11.6181 26.6992 10.7951Z" fill="#FFFEF9"/>
</g>
<defs>
<clipPath id="clip0_8629_6950">
<rect width="32" height="32" fill="white" transform="translate(0.699219 1)"/>
</clipPath>
</defs>
</svg>
