<svg width="34" height="34" viewBox="0 0 34 34" fill="none" xmlns="http://www.w3.org/2000/svg">
<g clip-path="url(#clip0_8629_6966)">
<path fill-rule="evenodd" clip-rule="evenodd" d="M24.556 7C25.907 7 27 8.095 27 9.444V24.556C27 25.907 25.905 27 24.556 27H9.444C8.094 27 7 25.905 7 24.556V9.444C7 8.094 8.095 7 9.444 7H24.556ZM13.268 23.534V14.717H10.337V23.534H13.268ZM23.836 23.534V18.478C23.836 15.77 22.39 14.51 20.462 14.51C18.907 14.51 18.21 15.365 17.82 15.966V14.717H14.89C14.929 15.545 14.89 23.534 14.89 23.534H17.82V18.61C17.82 18.347 17.84 18.083 17.917 17.895C18.128 17.368 18.611 16.823 19.421 16.823C20.48 16.823 20.905 17.632 20.905 18.817V23.534H23.835H23.836ZM11.822 10.466C10.82 10.466 10.164 11.125 10.164 11.989C10.164 12.835 10.8 13.513 11.784 13.513H11.801C12.824 13.513 13.461 12.835 13.461 11.989C13.44 11.126 12.826 10.468 11.822 10.466Z" fill="#FFFEF9"/>
</g>
<defs>
<clipPath id="clip0_8629_6966">
<rect width="32" height="32" fill="white" transform="translate(1 1)"/>
</clipPath>
</defs>
</svg>
