<svg width="33" height="34" viewBox="0 0 33 34" fill="none" xmlns="http://www.w3.org/2000/svg">
<g clip-path="url(#clip0_8629_6962)">
<path d="M24.1719 11.6378C24.1719 11.8067 24.1399 11.9738 24.0741 12.1294C24.0092 12.2858 23.9141 12.4271 23.7959 12.5471C23.6759 12.6663 23.5345 12.7605 23.3781 12.8254C23.2216 12.8911 23.0545 12.9231 22.8856 12.9231C22.7176 12.924 22.5496 12.8911 22.3941 12.8263C22.2376 12.7623 22.0954 12.6671 21.9763 12.5471C21.8572 12.4271 21.763 12.2858 21.6981 12.1294C21.6332 11.9738 21.6003 11.8076 21.6003 11.6387C21.5994 11.2965 21.7354 10.9694 21.9754 10.7285C22.2181 10.4867 22.5452 10.3516 22.8865 10.3516C23.227 10.3516 23.5541 10.4867 23.7959 10.7285C24.0359 10.9694 24.1719 11.2965 24.1719 11.6378ZM28.2554 17.4431V17.46L28.1816 22.1214C28.1639 23.8005 27.4865 25.4076 26.2981 26.5969C25.1096 27.7863 23.5034 28.4627 21.8225 28.4823L17.1443 28.5543H17.1274L12.4661 28.4805C10.787 28.4627 9.17987 27.7854 7.99054 26.5969C6.8012 25.4085 6.12476 23.8023 6.1052 22.1214L6.0332 17.4431V17.4263L6.10698 12.7649C6.12476 11.0858 6.8012 9.4787 7.99054 8.28936C9.17898 7.10003 10.7852 6.42359 12.467 6.40403L17.1443 6.33203H17.1612L21.8225 6.40581C23.5016 6.42359 25.1088 7.10003 26.2981 8.28936C27.4874 9.47781 28.1639 11.084 28.1834 12.7658L28.2554 17.4431ZM26.1861 17.4431L26.1132 12.7969C26.1008 11.6547 25.6412 10.5631 24.8332 9.75425C24.0243 8.94625 22.9328 8.4867 21.7905 8.47425L17.1443 8.40048L12.4981 8.47425C11.3559 8.4867 10.2643 8.94625 9.45543 9.75425C8.64743 10.5631 8.18787 11.6547 8.17543 12.7969L8.10165 17.4431L8.17543 22.0894C8.18787 23.2316 8.64743 24.3231 9.45543 25.132C10.2643 25.94 11.3559 26.3996 12.4981 26.412L17.1443 26.4858L21.7905 26.412C22.9328 26.3996 24.0243 25.94 24.8332 25.132C25.6412 24.3231 26.1008 23.2316 26.1132 22.0894L26.1861 17.4431ZM22.8501 17.4431C22.8501 18.956 22.2483 20.4076 21.179 21.4778C20.1088 22.5471 18.6572 23.1489 17.1443 23.1489C15.6314 23.1489 14.1799 22.5471 13.1096 21.4778C12.0394 20.4076 11.4385 18.956 11.4385 17.4431C11.4385 15.9303 12.0403 14.4787 13.1096 13.4085C14.1799 12.3383 15.6314 11.7374 17.1443 11.7374C18.6572 11.7374 20.1088 12.3391 21.179 13.4085C22.2483 14.4787 22.8501 15.9303 22.8501 17.4431ZM20.7799 17.4431C20.7799 16.4787 20.3976 15.5543 19.715 14.8716C19.0332 14.1898 18.1088 13.8076 17.1443 13.8076C16.1799 13.8076 15.2554 14.1898 14.5728 14.8716C13.891 15.5551 13.5088 16.4787 13.5088 17.4431C13.5088 18.4076 13.891 19.332 14.5728 20.0138C15.2563 20.6965 16.1799 21.0796 17.1443 21.0796C18.1088 21.0787 19.0332 20.6965 19.715 20.0138C20.3976 19.332 20.7799 18.4076 20.7799 17.4431Z" fill="#FFFEF9"/>
</g>
<defs>
<clipPath id="clip0_8629_6962">
<rect width="32" height="32" fill="white" transform="translate(0.699219 1)"/>
</clipPath>
</defs>
</svg>
