<svg xmlns="http://www.w3.org/2000/svg" width="42" height="42" viewBox="0 0 42 42" fill="none">
  <path d="M0 21C0 9.40202 9.40202 0 21 0C32.598 0 42 9.40202 42 21C42 32.598 32.598 42 21 42C9.40202 42 0 32.598 0 21Z" fill="white"/>
  <path d="M28.5094 14.705C28.3536 14.6283 28.202 14.5441 28.0551 14.4529C27.6279 14.1837 27.2361 13.8664 26.8884 13.5079C26.0183 12.5587 25.6933 11.5958 25.5736 10.9217H25.5784C25.4784 10.3621 25.5198 10 25.526 10H21.563V24.61C21.563 24.8062 21.563 25 21.5543 25.1916C21.5543 25.2154 21.5519 25.2374 21.5505 25.2631C21.5505 25.2737 21.5505 25.2847 21.5481 25.2957V25.3039C21.5063 25.8281 21.33 26.3345 21.0348 26.7785C20.7396 27.2225 20.3344 27.5906 19.8549 27.8503C19.3553 28.1213 18.7901 28.2635 18.2152 28.2628C16.3688 28.2628 14.8723 26.8273 14.8723 25.0546C14.8723 23.2818 16.3688 21.8464 18.2152 21.8464C18.5647 21.8461 18.9121 21.8985 19.2444 22.0018L19.2492 18.1547C18.2404 18.0305 17.2155 18.1069 16.2391 18.3792C15.2628 18.6515 14.3563 19.1138 13.5767 19.7368C12.8936 20.3026 12.3194 20.9778 11.8798 21.7318C11.7125 22.0068 11.0813 23.1118 11.0049 24.9052C10.9568 25.9231 11.2774 26.9777 11.4303 27.4135V27.4227C11.5264 27.6793 11.899 28.5552 12.5062 29.2935C12.9957 29.8858 13.5742 30.406 14.2228 30.8375V30.8284L14.2324 30.8375C16.151 32.0805 18.2782 31.9989 18.2782 31.9989C18.6464 31.9847 19.8799 31.9989 21.2808 31.366C22.8345 30.6643 23.719 29.6189 23.719 29.6189C24.2841 28.9943 24.7334 28.2824 25.0477 27.5139C25.4063 26.6151 25.526 25.5372 25.526 25.1064V17.3554C25.5741 17.3829 26.2144 17.7867 26.2144 17.7867C26.2144 17.7867 27.1369 18.3504 28.5762 18.7175C29.6088 18.9788 31 19.0338 31 19.0338V15.2829C30.5125 15.3334 29.5227 15.1867 28.5094 14.705Z" fill="#000508"/>
</svg>