<svg xmlns="http://www.w3.org/2000/svg" width="42" height="42" viewBox="0 0 42 42" fill="none">
  <path d="M0 21C0 9.40202 9.40202 0 21 0C32.598 0 42 9.40202 42 21C42 32.598 32.598 42 21 42C9.40202 42 0 32.598 0 21Z" fill="white"/>
  <path d="M28.461 13H13.539C12.9427 13 12.3522 13.1164 11.8013 13.3427C11.2504 13.5689 10.7499 13.9005 10.3284 14.3186C9.90686 14.7366 9.57258 15.2328 9.34465 15.7789C9.11672 16.325 8.99961 16.9103 9 17.5012V25.4988C8.99961 26.0897 9.11672 26.675 9.34465 27.2211C9.57258 27.7672 9.90686 28.2634 10.3284 28.6814C10.7499 29.0995 11.2504 29.4311 11.8013 29.6573C12.3522 29.8836 12.9427 30 13.539 30H28.461C29.0573 30 29.6478 29.8836 30.1987 29.6573C30.7496 29.4311 31.2501 29.0995 31.6716 28.6814C32.0931 28.2634 32.4274 27.7672 32.6553 27.2211C32.8833 26.675 33.0004 26.0897 33 25.4988V17.5012C33.0004 16.9103 32.8833 16.325 32.6553 15.7789C32.4274 15.2328 32.0931 14.7366 31.6716 14.3186C31.2501 13.9005 30.7496 13.5689 30.1987 13.3427C29.6478 13.1164 29.0573 13 28.461 13ZM17.838 25.145V17.855L24.162 21.5L17.838 25.145Z" fill="#000508"/>
</svg>