<svg width="16" height="16" viewBox="0 0 16 16" fill="none" xmlns="http://www.w3.org/2000/svg">
<path d="M8 0.880859C11.9427 0.880859 15.1504 4.08886 15.1504 8.03125C15.1504 11.974 11.9427 15.1816 8 15.1816C4.0573 15.1816 0.849609 11.9739 0.849609 8.03125C0.849615 4.08887 4.05729 0.880864 8 0.880859ZM8 1.79004C4.55866 1.79004 1.75879 4.58991 1.75879 8.03125C1.75879 11.4726 4.55867 14.2725 8 14.2725C11.4414 14.2725 14.2412 11.4726 14.2412 8.03125C14.2412 4.58991 11.4414 1.79004 8 1.79004ZM10.2578 5.19141C10.441 5.06175 10.6975 5.04249 10.8672 5.21191C10.9637 5.30757 10.9992 5.43707 10.9883 5.55957C10.9775 5.68066 10.9221 5.8015 10.8271 5.89648L5.81738 10.9053C5.63532 11.0873 5.32878 11.14 5.13477 10.9463C4.94106 10.7526 4.99316 10.4456 5.1748 10.2637L10.1846 5.25391L10.2578 5.19141Z" fill="#18181B" stroke="#18181B" stroke-width="0.3"/>
</svg>
