<svg xmlns="http://www.w3.org/2000/svg" xmlns:xlink="http://www.w3.org/1999/xlink" fill="none" version="1.1" width="24" height="24" viewBox="0 0 24 24"><defs><clipPath id="master_svg0_55_153"><rect x="0" y="0" width="24" height="24" rx="0"/></clipPath></defs><g clip-path="url(#master_svg0_55_153)"><g><path d="M12,1.25Q10.93887,1.25,9.90635,1.453905Q9.83388,1.468216,9.76559,1.496391Q9.69731,1.524565,9.63583,1.56552Q9.57436,1.606474,9.52205,1.658635Q9.469750000000001,1.710796,9.428619999999999,1.772159Q9.3875,1.833522,9.35914,1.9017291Q9.33078,1.9699358,9.31627,2.0423651Q9.30175,2.114794,9.30165,2.188663Q9.301549999999999,2.262531,9.31586,2.335Q9.34477,2.481358,9.42748,2.605514Q9.51019,2.72967,9.63412,2.812723Q9.75805,2.895776,9.90432,2.925081Q10.0506,2.954387,10.19696,2.925484Q11.08556,2.75,12,2.75Q12.9144,2.75,13.803,2.925484Q13.9494,2.954387,14.0957,2.9250819999999997Q14.242,2.895776,14.3659,2.812723Q14.4898,2.72967,14.5725,2.605514Q14.6552,2.481358,14.6841,2.335Q14.6984,2.262531,14.6983,2.188663Q14.6982,2.114794,14.6837,2.0423651Q14.6692,1.9699358,14.6409,1.9017292Q14.6125,1.833522,14.5714,1.77216Q14.5302,1.710797,14.4779,1.658636Q14.4256,1.606475,14.3642,1.56552Q14.3027,1.524565,14.2344,1.496391Q14.1661,1.468216,14.0936,1.453905Q13.0611,1.25,12,1.25ZM6.02432,3.06265Q4.25071,4.25071,3.06265,6.02433Q2.979621,6.14827,2.950347,6.29456Q2.921073,6.44084,2.950009,6.58719Q2.9789440000000003,6.73354,3.06168,6.85768Q3.14442,6.98182,3.26837,7.06484Q3.32974,7.10595,3.39795,7.1343Q3.46617,7.16265,3.5385999999999997,7.17714Q3.61103,7.19164,3.6849,7.19172Q3.75877,7.19181,3.8312299999999997,7.17748Q3.9036999999999997,7.16316,3.9719800000000003,7.13497Q4.04026,7.10678,4.10172,7.06581Q4.16319,7.02484,4.2154799999999994,6.97267Q4.26778,6.9205,4.30889,6.85912Q5.3319,5.3319,6.85912,4.30889Q6.98307,4.22586,7.06581,4.10172Q7.14854,3.97759,7.17748,3.8312299999999997Q7.20641,3.6848799999999997,7.17714,3.5385999999999997Q7.14787,3.39232,7.06484,3.26837Q7.02373,3.207,6.97144,3.15482Q6.91914,3.1026499999999997,6.85768,3.06168Q6.79621,3.02072,6.72793,2.992526Q6.65965,2.964337,6.58719,2.950009Q6.51472,2.935682,6.44085,2.9357670000000002Q6.36699,2.935853,6.29455,2.950348Q6.22212,2.964842,6.15391,2.9931900000000002Q6.0857,3.02154,6.02432,3.06265ZM20.9373,6.02433Q19.7493,4.250719999999999,17.9757,3.06265Q17.9143,3.02154,17.8461,2.993192Q17.777900000000002,2.9648440000000003,17.705399999999997,2.9503500000000003Q17.633,2.935855,17.5591,2.935769Q17.485300000000002,2.935684,17.4128,2.950011Q17.3403,2.964339,17.272100000000002,2.992528Q17.2038,3.02072,17.1423,3.06169Q17.0808,3.1026499999999997,17.0286,3.15483Q16.976300000000002,3.207,16.9351,3.26837Q16.8521,3.39232,16.8228,3.5385999999999997Q16.793599999999998,3.68489,16.822499999999998,3.83124Q16.851399999999998,3.97759,16.9342,4.10173Q17.0169,4.22586,17.140900000000002,4.30889Q18.6681,5.331910000000001,19.6911,6.85913Q19.7741,6.98307,19.8983,7.06581Q20.0224,7.14855,20.1688,7.17748Q20.3151,7.20642,20.4614,7.17715Q20.6077,7.14787,20.7316,7.06485Q20.793,7.02374,20.8452,6.97144Q20.8973,6.91915,20.9383,6.85768Q20.9793,6.79622,21.0075,6.72794Q21.0357,6.65966,21.05,6.58719Q21.0643,6.51473,21.0642,6.44086Q21.0641,6.36699,21.0496,6.29456Q21.0352,6.22213,21.0068,6.15391Q20.9785,6.0857,20.9373,6.02433ZM1.25,12Q1.25,13.0611,1.453906,14.0937Q1.468217,14.1661,1.4963920000000002,14.2344Q1.524566,14.3027,1.565521,14.3642Q1.606475,14.4256,1.658636,14.4779Q1.710798,14.5302,1.772161,14.5714Q1.833523,14.6125,1.9017302,14.6409Q1.9699369,14.6692,2.0423662,14.6837Q2.114795,14.6982,2.188664,14.6983Q2.262532,14.6984,2.335001,14.6841Q2.481359,14.6552,2.605515,14.5725Q2.7296709999999997,14.4898,2.8127240000000002,14.3659Q2.895777,14.242,2.9250819999999997,14.0957Q2.954388,13.9494,2.925485,13.803Q2.75,12.9144,2.75,12Q2.75,11.08556,2.925484,10.19696Q2.939795,10.12449,2.939693,10.05062Q2.939591,9.97675,2.925081,9.90432Q2.91057,9.83189,2.882208,9.76368Q2.853846,9.69548,2.812722,9.63412Q2.771598,9.57275,2.719293,9.52059Q2.666989,9.46843,2.605513,9.42748Q2.544037,9.38652,2.475752,9.35835Q2.407468,9.330169999999999,2.334999,9.31586Q2.188641,9.28696,2.0423638,9.31626Q1.896086,9.34557,1.7721580000000001,9.428619999999999Q1.6482299999999999,9.51168,1.565519,9.63583Q1.482807,9.75999,1.453904,9.90635Q1.25,10.93887,1.25,12ZM22.75,12Q22.75,10.93887,22.5461,9.90635Q22.5318,9.83388,22.5036,9.76559Q22.4754,9.69731,22.4345,9.63583Q22.3935,9.57436,22.3414,9.52205Q22.2892,9.469750000000001,22.2278,9.428619999999999Q22.1665,9.3875,22.0983,9.35914Q22.0301,9.33078,21.9576,9.31627Q21.8852,9.30175,21.8113,9.30165Q21.7375,9.301549999999999,21.665,9.31586Q21.5186,9.34477,21.3945,9.42748Q21.2703,9.51019,21.1873,9.63412Q21.1042,9.75805,21.0749,9.90432Q21.0456,10.0506,21.0745,10.19696Q21.25,11.08557,21.25,12Q21.25,12.0739,21.2644,12.1463Q21.2788,12.2188,21.3071,12.287Q21.3354,12.3553,21.3764,12.4167Q21.4174,12.4781,21.4697,12.5303Q21.5219,12.5826,21.5833,12.6236Q21.6447,12.6646,21.713,12.6929Q21.7812,12.7212,21.8537,12.7356Q21.9261,12.75,22,12.75Q22.0739,12.75,22.1463,12.7356Q22.2188,12.7212,22.287,12.6929Q22.3553,12.6646,22.4167,12.6236Q22.4781,12.5826,22.5303,12.5303Q22.5826,12.4781,22.6236,12.4167Q22.6646,12.3553,22.6929,12.287Q22.7212,12.2188,22.7356,12.1463Q22.75,12.0739,22.75,12ZM3.06265,17.9757Q4.25071,19.7493,6.02433,20.9373Q6.14827,21.0204,6.29456,21.0497Q6.44084,21.0789,6.58719,21.05Q6.73354,21.0211,6.85768,20.9383Q6.98182,20.8556,7.06485,20.7316Q7.10596,20.6703,7.1343,20.602Q7.16265,20.5338,7.17715,20.4614Q7.19164,20.389,7.19173,20.3151Q7.19181,20.2412,7.17748,20.1688Q7.16316,20.0963,7.13497,20.028Q7.10678,19.9597,7.06581,19.8983Q7.02484,19.8368,6.97267,19.7845Q6.9205,19.7322,6.85913,19.6911Q5.3319,18.6681,4.30889,17.140900000000002Q4.22586,17.0169,4.10173,16.9342Q3.97759,16.851399999999998,3.83124,16.822499999999998Q3.68489,16.793599999999998,3.5385999999999997,16.8229Q3.39232,16.8521,3.26837,16.935200000000002Q3.207,16.976300000000002,3.15483,17.0286Q3.1026499999999997,17.0808,3.06169,17.1423Q3.02072,17.2038,2.992529,17.272100000000002Q2.96434,17.3403,2.950012,17.4128Q2.935685,17.485300000000002,2.935771,17.5591Q2.9358560000000002,17.633,2.950351,17.705399999999997Q2.964846,17.777900000000002,2.9931929999999998,17.8461Q3.02154,17.9143,3.06265,17.9757ZM9.90635,22.5461Q10.93886,22.75,12,22.75Q12.0739,22.75,12.1463,22.7356Q12.2188,22.7212,12.287,22.6929Q12.3553,22.6646,12.4167,22.6236Q12.4781,22.5826,12.5303,22.5303Q12.5826,22.4781,12.6236,22.4167Q12.6646,22.3553,12.6929,22.287Q12.7212,22.2188,12.7356,22.1463Q12.75,22.0739,12.75,22Q12.75,21.9261,12.7356,21.8537Q12.7212,21.7812,12.6929,21.713Q12.6646,21.6447,12.6236,21.5833Q12.5826,21.5219,12.5303,21.4697Q12.4781,21.4174,12.4167,21.3764Q12.3553,21.3354,12.287,21.3071Q12.2188,21.2788,12.1463,21.2644Q12.0739,21.25,12,21.25Q11.08556,21.25,10.19696,21.0745Q10.0506,21.0456,9.90432,21.0749Q9.75805,21.1042,9.63412,21.1873Q9.51019,21.2703,9.42748,21.3945Q9.34477,21.5186,9.31586,21.665Q9.301549999999999,21.7375,9.30165,21.8113Q9.30176,21.8852,9.31627,21.9576Q9.33078,22.0301,9.35914,22.0983Q9.3875,22.1665,9.42863,22.2278Q9.469750000000001,22.2892,9.52205,22.3414Q9.57436,22.3935,9.63583,22.4345Q9.69731,22.4754,9.76559,22.5036Q9.83388,22.5318,9.90635,22.5461Z" fill-rule="evenodd" fill="#18181B" fill-opacity="1" style="mix-blend-mode:passthrough"/></g><g><path d="M22.60447,17.36102Q22.55517,17.23632,22.46054,17.1413Q22.36591,17.04629,22.2414,16.99649L13.241404,13.39649Q13.181963,13.372714,13.119026,13.360991Q13.0560896,13.349268,12.99207494,13.350048Q12.9280603,13.350829,12.865428,13.364083Q12.802796,13.377337,12.743952,13.402556Q12.685109,13.427774,12.632317,13.463988Q12.579524,13.500202,12.534811,13.546019Q12.490098,13.591836,12.455182,13.645496Q12.420266,13.699156,12.39649,13.758596Q12.35,13.874821,12.35,14.00000000772691Q12.35,14.125179,12.39649,14.241404L15.99649,23.2414Q16.04451,23.361449999999998,16.13481,23.45398Q16.22511,23.546509999999998,16.34395,23.59744Q16.46279,23.64838,16.59207,23.64995Q16.72136,23.65153,16.8414,23.60351Q16.96591,23.553710000000002,17.06054,23.4587Q17.15517,23.363680000000002,17.20447,23.238979999999998L18.63092,19.63092L22.238979999999998,18.20447Q22.29851,18.18094,22.35231,18.14624Q22.406109999999998,18.111539999999998,22.452109999999998,18.06701Q22.4981,18.02248,22.53453,17.96983Q22.57096,17.91719,22.59641,17.85844Q22.621859999999998,17.7997,22.63537,17.73712Q22.64888,17.67455,22.64991,17.61053Q22.65095,17.54652,22.63948,17.48354Q22.62801,17.420560000000002,22.60447,17.36102ZM20.24099,17.59647L14.16679,15.16679L16.59647,21.24099L17.52553,18.89102Q17.57508,18.76568,17.67038,18.67038Q17.76568,18.57508,17.89102,18.52553L20.24099,17.59647Z" fill-rule="evenodd" fill="#18181B" fill-opacity="1" style="mix-blend-mode:passthrough"/></g></g></svg>