<svg width="24" height="24" viewBox="0 0 24 24" fill="none" xmlns="http://www.w3.org/2000/svg">
<path d="M9 5L12 2L9 5ZM12 2L15 5L12 2ZM12 2V12V2ZM12 12V22V12ZM12 12H22H12ZM12 12H2H12ZM9 19L12 22L9 19ZM12 22L15 19L12 22ZM19 9L22 12L19 9ZM22 12L19 15L22 12ZM5 9L2 12L5 9ZM2 12L5 15L2 12Z" fill="#18181B"/>
<path d="M9 5L12 2M12 2L15 5M12 2V12M12 12V22M12 12H22M12 12H2M12 22L9 19M12 22L15 19M22 12L19 9M22 12L19 15M2 12L5 9M2 12L5 15" stroke="#18181B" stroke-width="1.6" stroke-linecap="round" stroke-linejoin="round"/>
</svg>
