<svg xmlns="http://www.w3.org/2000/svg" xmlns:xlink="http://www.w3.org/1999/xlink" fill="none" version="1.1" width="24" height="24" viewBox="0 0 24 24"><defs><clipPath id="master_svg0_55_158"><rect x="0" y="0" width="24" height="24" rx="0"/></clipPath><clipPath id="master_svg1_55_163"><rect x="0" y="1" width="24" height="23" rx="0"/></clipPath></defs><g clip-path="url(#master_svg0_55_158)"><g clip-path="url(#master_svg1_55_163)"><g><path d="M3.75,7.24952L3.75,3.11307Q3.75,3.0392,3.735589,2.96675Q3.721178,2.894301,3.69291,2.826055Q3.664641,2.757809,3.623602,2.69639Q3.582563,2.63497,3.53033,2.582738Q3.478097,2.530505,3.416678,2.489465Q3.355258,2.448426,3.287013,2.420158Q3.218767,2.39189,3.146318,2.377479Q3.0738685,2.363068,3,2.363068Q2.9261315,2.363068,2.853682,2.377479Q2.781233,2.39189,2.712987,2.420158Q2.644742,2.448426,2.583322,2.489465Q2.521903,2.530505,2.46967,2.582738Q2.417437,2.63497,2.376398,2.69639Q2.335359,2.757809,2.30709,2.826055Q2.278822,2.894301,2.264411,2.96675Q2.25,3.0392,2.25,3.11307L2.25,7.24952Q2.25,7.32339,2.264411,7.39584Q2.278822,7.46829,2.30709,7.53653Q2.335359,7.60478,2.376398,7.6662Q2.417437,7.72762,2.46967,7.77985Q2.521903,7.83208,2.583322,7.87312Q2.644742,7.91416,2.712987,7.94243Q2.781233,7.9707,2.853682,7.98511Q2.9261315,7.99952,3,7.99952Q3.0738685,7.99952,3.146318,7.98511Q3.218767,7.9707,3.287013,7.94243Q3.355258,7.91416,3.416678,7.87312Q3.478097,7.83208,3.53033,7.77985Q3.582563,7.72762,3.623602,7.6662Q3.664641,7.60478,3.69291,7.53653Q3.721178,7.46829,3.735589,7.39584Q3.75,7.32339,3.75,7.24952ZM20.25,4.9307300000000005L20.25,6.14358Q20.25,6.21745,20.2644,6.2899Q20.2788,6.36235,20.3071,6.43059Q20.3354,6.49884,20.3764,6.56026Q20.4174,6.62168,20.4697,6.67391Q20.5219,6.72614,20.5833,6.76718Q20.6447,6.80822,20.713,6.83649Q20.7812,6.86476,20.8537,6.87917Q20.9261,6.89358,21,6.89358Q21.0739,6.89358,21.1463,6.87917Q21.2188,6.86476,21.287,6.83649Q21.3553,6.80822,21.4167,6.76718Q21.4781,6.72614,21.5303,6.67391Q21.5826,6.62168,21.6236,6.56026Q21.6646,6.49884,21.6929,6.43059Q21.7212,6.36235,21.7356,6.2899Q21.75,6.21745,21.75,6.14358L21.75,3.69642Q21.75,3.62256,21.7356,3.55011Q21.7212,3.47766,21.6929,3.4094100000000003Q21.6646,3.34117,21.6236,3.27975Q21.5826,3.21833,21.5303,3.16609Q21.4781,3.11386,21.4167,3.07282Q21.3553,3.03178,21.287,3.00351Q21.2188,2.975247,21.1463,2.960836Q21.0739,2.946425,21,2.946425Q20.8169,2.946425,20.6545,3.0307500000000003L19.1551,3.809Q19.0227,3.8777299999999997,18.9267,3.9918899999999997Q18.8307,4.106059999999999,18.785600000000002,4.24829Q18.7406,4.39051,18.7534,4.53914Q18.766199999999998,4.68778,18.835,4.82019Q18.869,4.88575,18.9152,4.94341Q18.9613,5.00108,19.0179,5.04863Q19.0744,5.09618,19.1391,5.13178Q19.2038,5.16739,19.2743,5.189690000000001Q19.3447,5.2119800000000005,19.4181,5.22011Q19.4915,5.2282399999999996,19.5651,5.22189Q19.6387,5.21554,19.7097,5.19496Q19.7806,5.17437,19.8462,5.14034L20.25,4.9307300000000005ZM5.0020500000000006,4.38645L8.345369999999999,6.82211Q8.40508,6.8656,8.47212,6.89662Q8.539159999999999,6.92763,8.61097,6.94496Q8.68277,6.9623,8.75658,6.9653Q8.830390000000001,6.96829,8.90336,6.95683Q8.97634,6.94537,9.045670000000001,6.91989Q9.11501,6.89441,9.17804,6.8559Q9.24107,6.81738,9.29538,6.76731Q9.349689999999999,6.71724,9.39319,6.65754Q9.436679999999999,6.59783,9.467690000000001,6.53079Q9.4987,6.46374,9.51604,6.39194Q9.533380000000001,6.32013,9.53637,6.24633Q9.53937,6.17252,9.52791,6.09954Q9.516449999999999,6.02657,9.49097,5.95723Q9.465489999999999,5.8879,9.42698,5.824870000000001Q9.38846,5.76183,9.33839,5.707520000000001Q9.288319999999999,5.65322,9.22861,5.609719999999999L5.8853,3.17406Q5.82559,3.13057,5.75855,3.09955Q5.6915,3.06854,5.6197,3.0511999999999997Q5.547890000000001,3.0338700000000003,5.47409,3.03087Q5.40028,3.0278799999999997,5.3273,3.03934Q5.2543299999999995,3.0507999999999997,5.18499,3.0762799999999997Q5.11566,3.10175,5.05262,3.14027Q4.98959,3.1787799999999997,4.93528,3.22886Q4.88098,3.27893,4.83748,3.33863Q4.7939799999999995,3.39834,4.76297,3.4653799999999997Q4.73196,3.53242,4.71462,3.6042300000000003Q4.69729,3.67603,4.6942900000000005,3.74984Q4.6913,3.8236499999999998,4.70276,3.89662Q4.71422,3.9696,4.7397,4.038930000000001Q4.7651699999999995,4.10827,4.80369,4.1713000000000005Q4.8422,4.2343399999999995,4.8922799999999995,4.28864Q4.94235,4.34295,5.0020500000000006,4.38645ZM12.50346,8.95159L16.174799999999998,7.04596Q16.2404,7.01193,16.298000000000002,6.96576Q16.3557,6.9196,16.4033,6.86307Q16.4508,6.80654,16.4864,6.74182Q16.522,6.6771,16.5443,6.60667Q16.5666,6.53625,16.5747,6.46283Q16.582900000000002,6.38941,16.5765,6.31582Q16.5702,6.24222,16.549599999999998,6.17128Q16.529,6.10034,16.494999999999997,6.03477Q16.460900000000002,5.96921,16.4148,5.91155Q16.3686,5.85388,16.3121,5.80633Q16.255499999999998,5.75878,16.1908,5.72318Q16.1261,5.68757,16.0557,5.66527Q15.9853,5.64298,15.9118,5.63485Q15.8384,5.626720000000001,15.7648,5.63307Q15.6912,5.639419999999999,15.6203,5.66001Q15.5493,5.6805900000000005,15.4838,5.71462L11.81242,7.62025Q11.74686,7.65428,11.68919,7.70044Q11.63153,7.74661,11.58398,7.80314Q11.53643,7.85967,11.50083,7.92439Q11.46522,7.98911,11.44292,8.05954Q11.42063,8.12996,11.4125,8.20338Q11.40437,8.2768,11.41072,8.35039Q11.41707,8.42399,11.43765,8.49493Q11.45824,8.56587,11.49227,8.63144Q11.5263,8.697,11.57247,8.754660000000001Q11.61863,8.81233,11.67516,8.85987Q11.73169,8.90742,11.79641,8.94303Q11.86113,8.97864,11.93156,9.00094Q12.00198,9.02323,12.0754,9.03136Q12.14882,9.03949,12.22242,9.03314Q12.29601,9.02679,12.36695,9.0062Q12.4379,8.98562,12.50346,8.95159ZM20.25,10.28003L20.25,12.3483Q20.25,12.4221,20.2644,12.4946Q20.2788,12.567,20.3071,12.6353Q20.3354,12.7035,20.3764,12.7649Q20.4174,12.8264,20.4697,12.8786Q20.5219,12.9308,20.5833,12.9719Q20.6447,13.0129,20.713,13.0412Q20.7812,13.0694,20.8537,13.0838Q20.9261,13.0983,21,13.0983Q21.0739,13.0983,21.1463,13.0838Q21.2188,13.0694,21.287,13.0412Q21.3553,13.0129,21.4167,12.9719Q21.4781,12.9308,21.5303,12.8786Q21.5826,12.8264,21.6236,12.7649Q21.6646,12.7035,21.6929,12.6353Q21.7212,12.567,21.7356,12.4946Q21.75,12.4221,21.75,12.3483L21.75,10.28003Q21.75,10.20616,21.7356,10.13371Q21.7212,10.06126,21.6929,9.99302Q21.6646,9.924769999999999,21.6236,9.86335Q21.5826,9.801929999999999,21.5303,9.7497Q21.4781,9.69747,21.4167,9.65643Q21.3553,9.61539,21.287,9.587119999999999Q21.2188,9.55885,21.1463,9.54444Q21.0739,9.53003,21,9.53003Q20.9261,9.53003,20.8537,9.54444Q20.7812,9.55885,20.713,9.587119999999999Q20.6447,9.61539,20.5833,9.65643Q20.5219,9.69747,20.4697,9.7497Q20.4174,9.801929999999999,20.3764,9.86335Q20.3354,9.924769999999999,20.3071,9.99302Q20.2788,10.06126,20.2644,10.13371Q20.25,10.20616,20.25,10.28003ZM3.75,15.5224L3.75,11.38597Q3.75,11.3121,3.735589,11.23965Q3.721178,11.1672,3.69291,11.09896Q3.664641,11.03071,3.623602,10.96929Q3.582563,10.90787,3.53033,10.85564Q3.478097,10.80341,3.416678,10.76237Q3.355258,10.72133,3.287013,10.69306Q3.218767,10.66479,3.146318,10.65038Q3.0738685,10.63597,3,10.63597Q2.9261315,10.63597,2.853682,10.65038Q2.781233,10.66479,2.712987,10.69306Q2.644742,10.72133,2.583322,10.76237Q2.521903,10.80341,2.46967,10.85564Q2.417437,10.90787,2.376398,10.96929Q2.335359,11.03071,2.30709,11.09896Q2.278822,11.1672,2.264411,11.23965Q2.25,11.3121,2.25,11.38597L2.25,15.5224Q2.25,15.5963,2.264411,15.6687Q2.278822,15.7412,2.30709,15.8094Q2.335359,15.8777,2.376398,15.9391Q2.417437,16.000500000000002,2.46967,16.052799999999998Q2.521903,16.105,2.583322,16.146Q2.644742,16.1871,2.712987,16.2153Q2.781233,16.2436,2.853682,16.258Q2.9261315,16.272399999999998,3,16.272399999999998Q3.0738685,16.272399999999998,3.146318,16.258Q3.218767,16.2436,3.287013,16.2153Q3.355258,16.1871,3.416678,16.146Q3.478097,16.105,3.53033,16.052799999999998Q3.582563,16.000500000000002,3.623602,15.9391Q3.664641,15.8777,3.69291,15.8094Q3.721178,15.7412,3.735589,15.6687Q3.75,15.5963,3.75,15.5224ZM3.75,20.25L3.75,19.6589Q3.75,19.585,3.735589,19.5126Q3.721178,19.4401,3.69291,19.3719Q3.664641,19.3036,3.623602,19.2422Q3.582563,19.1808,3.53033,19.1285Q3.478097,19.0763,3.416678,19.0353Q3.355258,18.9942,3.287013,18.966Q3.218767,18.9377,3.146318,18.9233Q3.0738685,18.9089,3,18.9089Q2.9261315,18.9089,2.853682,18.9233Q2.781233,18.9377,2.712987,18.966Q2.644742,18.9942,2.583322,19.0353Q2.521903,19.0763,2.46967,19.1285Q2.417437,19.1808,2.376398,19.2422Q2.335359,19.3036,2.30709,19.3719Q2.278822,19.4401,2.264411,19.5126Q2.25,19.585,2.25,19.6589L2.25,21Q2.25,21.0739,2.264411,21.1463Q2.278822,21.2188,2.30709,21.287Q2.335359,21.3553,2.376398,21.4167Q2.417437,21.4781,2.46967,21.5303Q2.521903,21.5826,2.583322,21.6236Q2.644742,21.6646,2.712987,21.6929Q2.781233,21.7212,2.853682,21.7356Q2.9261315,21.75,3,21.75L5.79532,21.75Q5.86919,21.75,5.94164,21.7356Q6.0140899999999995,21.7212,6.08233,21.6929Q6.15058,21.6646,6.212,21.6236Q6.27342,21.5826,6.3256499999999996,21.5303Q6.37789,21.4781,6.41892,21.4167Q6.459960000000001,21.3553,6.48823,21.287Q6.516500000000001,21.2188,6.53091,21.1463Q6.54532,21.0739,6.54532,21Q6.54532,20.9261,6.53091,20.8537Q6.516500000000001,20.7812,6.48823,20.713Q6.459960000000001,20.6447,6.41892,20.5833Q6.37789,20.5219,6.3256499999999996,20.4697Q6.27342,20.4174,6.212,20.3764Q6.15058,20.3354,6.08233,20.3071Q6.0140899999999995,20.2788,5.94164,20.2644Q5.86919,20.25,5.79532,20.25L3.75,20.25ZM12,20.25L9.93177,20.25Q9.8579,20.25,9.78546,20.2644Q9.71301,20.2788,9.64476,20.3071Q9.57652,20.3354,9.5151,20.3764Q9.45368,20.4174,9.401440000000001,20.4697Q9.34921,20.5219,9.30817,20.5833Q9.26713,20.6447,9.238859999999999,20.713Q9.21059,20.7812,9.19618,20.8537Q9.18177,20.9261,9.18177,21Q9.18177,21.0739,9.19618,21.1463Q9.21059,21.2188,9.238859999999999,21.287Q9.26713,21.3553,9.30817,21.4167Q9.34921,21.4781,9.401440000000001,21.5303Q9.45368,21.5826,9.5151,21.6236Q9.57652,21.6646,9.64476,21.6929Q9.71301,21.7212,9.78546,21.7356Q9.8579,21.75,9.93177,21.75L12,21.75Q12.07387,21.75,12.14632,21.7356Q12.21877,21.7212,12.28701,21.6929Q12.35526,21.6646,12.41668,21.6236Q12.4781,21.5826,12.53033,21.5303Q12.58256,21.4781,12.6236,21.4167Q12.66464,21.3553,12.69291,21.287Q12.72118,21.2188,12.73559,21.1463Q12.75,21.0739,12.75,21Q12.75,20.9261,12.73559,20.8537Q12.72118,20.7812,12.69291,20.713Q12.66464,20.6447,12.6236,20.5833Q12.58256,20.5219,12.53033,20.4697Q12.4781,20.4174,12.41668,20.3764Q12.35526,20.3354,12.28701,20.3071Q12.21877,20.2788,12.14632,20.2644Q12.07387,20.25,12,20.25Z" fill-rule="evenodd" fill="#18181B" fill-opacity="1" style="mix-blend-mode:passthrough"/></g><g><path d="M23.59511,15.738579999999999Q23.54628,15.62742,23.460610000000003,15.54138Q23.374940000000002,15.45534,23.26399,15.40602L14.26399,11.406023Q14.205488,11.380022,14.143038,11.365934Q14.0805882,11.351846,14.0165896,11.350211999999999Q13.9525911,11.348578,13.889503,11.359461Q13.826416,11.370344,13.766664,11.393325Q13.706911,11.416307,13.652791,11.450504Q13.59867,11.484701,13.552261,11.5288Q13.505852,11.572898,13.468938,11.625203Q13.432023000000001,11.677508,13.406023,11.73601Q13.354993,11.850826,13.350429,11.9763878Q13.345865,12.10195,13.388423,12.220168L16.98842,22.2202Q17.03222,22.3418,17.11923,22.4374Q17.20625,22.533099999999997,17.32323,22.5881Q17.44022,22.6432,17.56937,22.6493Q17.69852,22.6554,17.82017,22.6116Q17.95747,22.5621,18.06047,22.4588Q18.16347,22.3554,18.21239,22.2179L19.64833,18.18226L23.26142,16.59511Q23.32003,16.56937,23.372500000000002,16.53268Q23.42496,16.49599,23.46926,16.44977Q23.51356,16.40355,23.54799,16.34958Q23.58242,16.29561,23.60566,16.23596Q23.6289,16.1763,23.640050000000002,16.11326Q23.65121,16.05022,23.64985,15.98622Q23.6485,15.92221,23.63468,15.8597Q23.62086,15.79719,23.59511,15.738579999999999ZM21.39174,15.99652L15.12727,13.21232L17.596420000000002,20.07107L18.51761,17.4821Q18.562640000000002,17.35557,18.65412,17.25724Q18.74561,17.15891,18.86858,17.10489L21.39174,15.99652Z" fill-rule="evenodd" fill="#18181B" fill-opacity="1" style="mix-blend-mode:passthrough"/></g></g></g></svg>