<svg xmlns="http://www.w3.org/2000/svg" xmlns:xlink="http://www.w3.org/1999/xlink" fill="none" version="1.1" width="25" height="25" viewBox="0 0 25 25"><defs><clipPath id="master_svg0_55_261"><rect x="0" y="0" width="25" height="25" rx="0"/></clipPath></defs><g clip-path="url(#master_svg0_55_261)"><g><g><path d="M19.16723639717102,10.976732399139404C19.16723639717102,10.698882399139404,19.09703639717102,10.425402399139404,18.96293639717102,10.180922399139405C18.82883639717102,9.936442399139404,18.63503639717102,9.728622399139404,18.39903639717102,9.576182399139405L13.292506397171021,6.277504399139405C13.01506639717102,6.098299199139404,12.69041639717102,6.002822399139404,12.35854639717102,6.002822399139404C12.02667639717102,6.002822399139404,11.70209639717102,6.098299199139404,11.42466639717102,6.277504399139405L6.318093397171021,9.576182399139405C6.082048397171021,9.728452399139405,5.8882293971710205,9.936162399139404,5.754114397171021,10.180562399139404C5.619992197171021,10.424962399139403,5.5497897446710205,10.698382399139405,5.5498363971710205,10.976182399139404L5.5498363971710205,16.652122399139405C5.5497897446710205,16.929522399139405,5.61975889717102,17.202622399139404,5.75345439717102,17.446922399139403C5.887150397171021,17.691122399139402,6.080394397171021,17.898922399139405,6.315833397171021,18.051422399139405L11.42233639717102,21.360122399139406C11.700236397171022,21.540122399139406,12.02558639717102,21.636122399139403,12.35830639717102,21.636122399139403C12.690956397171021,21.636122399139403,13.016306397171022,21.540122399139406,13.29421639717102,21.360122399139406L18.40073639717102,18.051422399139405C18.636136397171022,17.898922399139405,18.829436397171023,17.691122399139402,18.96313639717102,17.446922399139403C19.09683639717102,17.202622399139404,19.16673639717102,16.929522399139405,19.16673639717102,16.652122399139405L19.16723639717102,10.976732399139404ZM18.03253639717102,16.692722399139406C18.03253639717102,16.786022399139405,18.00873639717102,16.877722399139405,17.963436397171023,16.959522399139402C17.91813639717102,17.041422399139407,17.85273639717102,17.110722399139405,17.77323639717102,17.161322399139404L12.666656397171021,20.414722399139404C12.57479639717102,20.473222399139402,12.46771639717102,20.504422399139404,12.35823639717102,20.504422399139404C12.24882639717102,20.504422399139404,12.14174639717102,20.473222399139402,12.04988639717102,20.414722399139404L6.943356397171021,17.161322399139404C6.8639563971710205,17.1106223991394,6.798696397171021,17.041222399139404,6.75350639717102,16.959422399139406C6.7083163971710205,16.877522399139405,6.68464639717102,16.7859223991394,6.684636397171021,16.692822399139402L6.6852063971710205,10.933712399139404C6.6852063971710205,10.840532399139406,6.708936397171021,10.748802399139404,6.754226397171021,10.666952399139404C6.799526397171021,10.585102399139405,6.86494639717102,10.515742399139405,6.9444963971710205,10.465182399139405L12.05105639717102,7.2117823991394046C12.142916397171021,7.153252399139404,12.249986397171021,7.122102399139404,12.359396397171022,7.122102399139404C12.46888639717102,7.122102399139404,12.57595639717102,7.153252399139404,12.66781639717102,7.2117823991394046L17.77433639717102,10.465182399139405C17.85393639717102,10.515732399139404,17.91923639717102,10.585102399139405,17.96463639717102,10.666942399139405C18.00993639717102,10.748782399139404,18.033636397171023,10.840532399139406,18.033636397171023,10.933712399139404L18.033636397171023,14.588632399139405C18.01773639717102,14.983092399139405,18.01753639717102,15.378012399139404,18.03303639717102,15.772472399139405L18.03253639717102,16.692722399139406L18.03253639717102,16.692722399139406Z" fill="#18181B" fill-opacity="1" style="mix-blend-mode:passthrough"/></g><g><path d="M12.7557,12.82544L12.7557,3.504241C12.7559,3.437985,12.7427,3.372354,12.717,3.311114C12.6913,3.249875,12.6536,3.194234,12.606,3.147384C12.5584,3.100533,12.5019,3.0633965,12.43959,3.0381047C12.3774,3.0128128,12.31069,2.999863957,12.24337,3.00000112191C12.17605,2.999861214,12.10943,3.0128081,12.04716,3.0380987C11.98496,3.0633893,11.92843,3.100526,11.88083,3.147377C11.83323,3.194227,11.7955,3.249869,11.76979,3.31111C11.74409,3.37235,11.73089,3.437983,11.73105,3.504241L11.73105,12.8353L2.712319,19.2423C2.4837594,19.4055,2.4310188,19.7218,2.5967911,19.9468C2.762543,20.1717,3.0814820000000003,20.2236,3.312557,20.0604L12.25091,13.7079L21.6966,20.0679C21.7845,20.1272,21.885,20.1569,21.9854,20.1569C22.069,20.1569,22.1514,20.1368,22.2253,20.0985C22.2993,20.0602,22.3626,20.0047,22.4098,19.9368C22.5707,19.707,22.5103,19.393,22.2768,19.2349L12.7557,12.82544Z" fill="#18181B" fill-opacity="1" style="mix-blend-mode:passthrough"/></g><g><path d="M12.755697892981768,3.3048319816589355L11.730937892981768,3.3048319816589355L10.342107892981769,4.671741981658935C10.141157892981767,4.869461981658936,10.141157892981767,5.188331981658935,10.342107892981769,5.386081981658935C10.543067892981767,5.5838319816589355,10.867017892981767,5.5838319816589355,11.067887892981767,5.386081981658935L12.243257892981768,4.229287981658936L13.418597892981767,5.386081981658935C13.619597892981767,5.5838319816589355,13.943597892981767,5.5838319816589355,14.144497892981768,5.386081981658935C14.345397892981767,5.188331981658935,14.345397892981767,4.869481981658936,14.144497892981768,4.671741981658935L12.755697892981768,3.3048319816589355ZM2.5363978929817677,19.356731981658935L2.885499892981768,19.846131981658935L3.1266148929817676,20.182331981658937L5.060467892981768,20.513631981658936C5.339247892981767,20.560531981658936,5.605477892981767,20.377631981658936,5.653177892981768,20.103231981658936C5.7008878929817675,19.828831981658936,5.515047892981768,19.566931981658936,5.2362878929817676,19.519931981658935L3.5987878929817674,19.238131981658935L3.8851078929817677,17.626531981658935C3.9328078929817676,17.352131981658935,3.7469678929817674,17.090131981658935,3.4681838929817674,17.043231981658934C3.1894008929817677,16.996231981658937,2.9231978929817677,17.179031981658937,2.8754748929817677,17.453531981658934L2.5363978929817677,19.356731981658935ZM21.864797892981766,20.202131981658937L22.201297892981767,19.702831981658935L22.43239789298177,19.361731981658934L22.043097892981766,17.468331981658935C21.987897892981767,17.193931981658935,21.716597892981767,17.018431981658935,21.437897892981766,17.072831981658936C21.159097892981766,17.127231981658937,20.98079789298177,17.394131981658937,21.03609789298177,17.668531981658937L21.36499789298177,19.272731981658936L19.734997892981767,19.596531981658934C19.456297892981766,19.650931981658935,19.277897892981766,19.917931981658935,19.33319789298177,20.192231981658935C19.388497892981768,20.466631981658935,19.659697892981768,20.642131981658935,19.93849789298177,20.587731981658937L21.864797892981766,20.202131981658937Z" fill="#18181B" fill-opacity="1" style="mix-blend-mode:passthrough"/></g></g></g></svg>