<svg width="32" height="42" viewBox="0 0 32 42" fill="none" xmlns="http://www.w3.org/2000/svg">
<path d="M15.9985 8.30078L23.6981 12.7006V21.5002L15.9985 25.9L8.29883 21.5002V12.7006L15.9985 8.30078Z" stroke="#1287DC" stroke-width="1.8" stroke-linejoin="round"/>
<path d="M16 5V8.29985" stroke="#1287DC" stroke-width="1.8" stroke-linecap="round" stroke-linejoin="round"/>
<path d="M8.29883 12.7031L15.9985 17.1029L23.6981 12.7031" stroke="#1287DC" stroke-width="1.8" stroke-linecap="round" stroke-linejoin="round"/>
<path d="M23.6992 21.4961L26.9991 23.146" stroke="#1287DC" stroke-width="1.8" stroke-linecap="round" stroke-linejoin="round"/>
<path d="M5 23.146L8.29985 21.4961" stroke="#1287DC" stroke-width="1.8" stroke-linecap="round" stroke-linejoin="round"/>
<path d="M16 17.0977V25.8972" stroke="#1287DC" stroke-width="1.8" stroke-linecap="round" stroke-linejoin="round"/>
<path d="M19.8483 10.5L23.6981 12.6999V17.0997M12.1486 10.5L8.29883 12.6999V17.0997M12.1486 23.6994L15.9985 25.8993L19.8483 23.6994" stroke="#1287DC" stroke-width="1.8" stroke-linejoin="round"/>
<path d="M12.8418 38.2334V39H9.07715V38.2334H12.8418ZM9.26758 31.8906V39H8.3252V31.8906H9.26758ZM12.3438 34.9473V35.7139H9.07715V34.9473H12.3438ZM12.793 31.8906V32.6621H9.07715V31.8906H12.793ZM17.1045 37.9746V31.5H18.0127V39H17.1826L17.1045 37.9746ZM13.5498 36.417V36.3145C13.5498 35.9108 13.5986 35.5446 13.6963 35.2158C13.7972 34.8838 13.9388 34.599 14.1211 34.3613C14.3066 34.1237 14.5264 33.9414 14.7803 33.8145C15.0374 33.6842 15.3239 33.6191 15.6396 33.6191C15.9717 33.6191 16.2614 33.6777 16.5088 33.7949C16.7594 33.9089 16.971 34.0765 17.1436 34.2979C17.3193 34.516 17.4577 34.7796 17.5586 35.0889C17.6595 35.3981 17.7295 35.748 17.7686 36.1387V36.5879C17.7327 36.9753 17.6628 37.3236 17.5586 37.6328C17.4577 37.9421 17.3193 38.2057 17.1436 38.4238C16.971 38.6419 16.7594 38.8096 16.5088 38.9268C16.2581 39.0407 15.9652 39.0977 15.6299 39.0977C15.3206 39.0977 15.0374 39.0309 14.7803 38.8975C14.5264 38.764 14.3066 38.5768 14.1211 38.3359C13.9388 38.0951 13.7972 37.8118 13.6963 37.4863C13.5986 37.1576 13.5498 36.8011 13.5498 36.417ZM14.458 36.3145V36.417C14.458 36.6807 14.484 36.9281 14.5361 37.1592C14.5915 37.3903 14.6761 37.5938 14.79 37.7695C14.904 37.9453 15.0488 38.0837 15.2246 38.1846C15.4004 38.2822 15.6104 38.3311 15.8545 38.3311C16.154 38.3311 16.3997 38.2676 16.5918 38.1406C16.7871 38.0137 16.9434 37.846 17.0605 37.6377C17.1777 37.4294 17.2689 37.2031 17.334 36.959V35.7822C17.2949 35.6032 17.238 35.4307 17.1631 35.2646C17.0915 35.0954 16.9971 34.9456 16.8799 34.8154C16.766 34.682 16.6243 34.5762 16.4551 34.498C16.2891 34.4199 16.0921 34.3809 15.8643 34.3809C15.6169 34.3809 15.4036 34.4329 15.2246 34.5371C15.0488 34.638 14.904 34.778 14.79 34.957C14.6761 35.1328 14.5915 35.3379 14.5361 35.5723C14.484 35.8034 14.458 36.0508 14.458 36.3145ZM20.4004 33.7168V39H19.4922V33.7168H20.4004ZM19.4238 32.3154C19.4238 32.1689 19.4678 32.0452 19.5557 31.9443C19.6468 31.8434 19.7803 31.793 19.9561 31.793C20.1286 31.793 20.2604 31.8434 20.3516 31.9443C20.446 32.0452 20.4932 32.1689 20.4932 32.3154C20.4932 32.4554 20.446 32.5758 20.3516 32.6768C20.2604 32.7744 20.1286 32.8232 19.9561 32.8232C19.7803 32.8232 19.6468 32.7744 19.5557 32.6768C19.4678 32.5758 19.4238 32.4554 19.4238 32.3154ZM24.0625 33.7168V34.4102H21.2061V33.7168H24.0625ZM22.1729 32.4326H23.0762V37.6914C23.0762 37.8704 23.1038 38.0055 23.1592 38.0967C23.2145 38.1878 23.2861 38.248 23.374 38.2773C23.4619 38.3066 23.5563 38.3213 23.6572 38.3213C23.7321 38.3213 23.8102 38.3148 23.8916 38.3018C23.9762 38.2855 24.0397 38.2725 24.082 38.2627L24.0869 39C24.0153 39.0228 23.9209 39.0439 23.8037 39.0635C23.6898 39.0863 23.5514 39.0977 23.3887 39.0977C23.1673 39.0977 22.9639 39.0537 22.7783 38.9658C22.5928 38.8779 22.4447 38.7314 22.334 38.5264C22.2266 38.318 22.1729 38.0381 22.1729 37.6865V32.4326Z" fill="#1287DC"/>
</svg>
