<svg width="16" height="16" viewBox="0 0 16 16" fill="none" xmlns="http://www.w3.org/2000/svg">
<path d="M8 0.880859C11.9427 0.880859 15.1504 4.08886 15.1504 8.03125C15.1504 11.974 11.9427 15.1816 8 15.1816C4.0573 15.1816 0.849609 11.9739 0.849609 8.03125C0.849615 4.08887 4.05729 0.880864 8 0.880859ZM8 1.79004C4.55866 1.79004 1.75879 4.58991 1.75879 8.03125C1.75879 11.4726 4.55867 14.2725 8 14.2725C11.4414 14.2725 14.2412 11.4726 14.2412 8.03125C14.2412 4.58991 11.4414 1.79004 8 1.79004ZM10.9873 7.62793L11.0791 7.63672C11.2864 7.67884 11.4416 7.86227 11.4414 8.08203L11.4326 8.17383C11.4144 8.26302 11.3703 8.34289 11.3086 8.4043C11.2271 8.48537 11.1135 8.53711 10.9873 8.53711H5.02734C4.77619 8.53711 4.57227 8.33319 4.57227 8.08203C4.57234 7.8314 4.77576 7.62815 5.02637 7.62793H10.9873Z" fill="#18181B" stroke="#18181B" stroke-width="0.3"/>
</svg>
