<svg xmlns="http://www.w3.org/2000/svg" xmlns:xlink="http://www.w3.org/1999/xlink" fill="none" version="1.1" width="24" height="24" viewBox="0 0 24 24"><defs><clipPath id="master_svg0_32_1441"><rect x="0" y="0" width="24" height="24" rx="0"/></clipPath></defs><g clip-path="url(#master_svg0_32_1441)"><g><path d="M15.60009765625,22C15.30009765625,22,15.10009765625,21.9,14.90009765625,21.7L6.90009765625,13.9C6.40009765625,13.4,6.10009765625,12.7,6.10009765625,12C6.10009765625,11.3,6.40009765625,10.6,6.90009765625,10.1L14.90009765625,2.3C15.30009765625,1.9,15.90009765625,1.9,16.30009765625,2.3C16.70009765625,2.7,16.70009765625,3.3,16.30009765625,3.7L8.30009765625,11.5C8.20009765625,11.6,8.10009765625,11.8,8.10009765625,12C8.10009765625,12.2,8.20009765625,12.3,8.30009765625,12.5L16.30009765625,20.3C16.70009765625,20.7,16.70009765625,21.3,16.30009765625,21.7C16.20009765625,21.9,15.90009765625,22,15.60009765625,22Z" fill="#000000" fill-opacity="1" style="mix-blend-mode:passthrough"/></g></g></svg>