<svg width="16" height="16" viewBox="0 0 16 16" fill="none" xmlns="http://www.w3.org/2000/svg">
<path d="M8 0.849609C11.9489 0.849609 15.1504 4.05116 15.1504 8C15.1504 11.7862 12.2069 14.8821 8.4834 15.1309V15.1504H7.5166V15.1309C3.79326 14.8823 0.849609 11.7864 0.849609 8C0.849609 4.05116 4.05116 0.849609 8 0.849609ZM7.5166 1.83691C4.32771 2.0835 1.81641 4.74776 1.81641 8C1.81641 11.2522 4.32775 13.9155 7.5166 14.1621V1.83691ZM8.4834 13.3906V14.1621C11.4802 13.9303 13.8772 11.5646 14.1553 8.58105L8.4834 13.3906ZM8.4834 10.5596V12.1221L14.1445 7.32324C14.0982 6.89621 14.0061 6.47618 13.8721 6.06836L8.4834 10.5596ZM8.4834 7.73145V9.30078L13.4795 5.13672C13.3096 4.81231 13.1112 4.50415 12.8867 4.21484L8.4834 7.73145ZM8.4834 5.06445V6.49512L12.2354 3.49805C11.9551 3.23421 11.6515 2.99661 11.3271 2.78906L8.4834 5.06445ZM8.4834 3.82715L10.3936 2.29785C9.78584 2.04254 9.141 1.88746 8.4834 1.83691V3.82715Z" fill="#18181B" stroke="#18181B" stroke-width="0.3"/>
</svg>
