<svg xmlns="http://www.w3.org/2000/svg" xmlns:xlink="http://www.w3.org/1999/xlink" fill="none" version="1.1" width="24.030573933385313" height="24.030573933385313" viewBox="0 0 24.030573933385313 24.030573933385313"><defs><clipPath id="master_svg0_114_01540"><rect x="0.03059396054595709" y="24.030573933385313" width="24" height="24" rx="0"/></clipPath></defs><g transform="matrix(-0.0012747483560815454,-0.9999991655349731,0.9999991655349731,-0.0012747483560815454,-23.99992092056492,24.09180080301896)" clip-path="url(#master_svg0_114_01540)"><g><path d="M15.630691616795957,46.03057393338531C15.330691616795956,46.03057393338531,15.130691616795957,45.93057393338531,14.930691616795958,45.730573933385315L6.930691616795957,37.93057393338531C6.430691616795957,37.43057393338531,6.130691616795957,36.730573933385315,6.130691616795957,36.03057393338531C6.130691616795957,35.33057393338531,6.430691616795957,34.630573933385314,6.930691616795957,34.130573933385314L14.930691616795958,26.330573933385313C15.330691616795956,25.93057393338531,15.930691616795958,25.93057393338531,16.330691616795956,26.330573933385313C16.73069161679596,26.730573933385312,16.73069161679596,27.330573933385313,16.330691616795956,27.730573933385312L8.330691616795956,35.53057393338531C8.230691616795957,35.630573933385314,8.130691616795957,35.83057393338531,8.130691616795957,36.03057393338531C8.130691616795957,36.230573933385315,8.230691616795957,36.33057393338531,8.330691616795956,36.53057393338531L16.330691616795956,44.33057393338531C16.73069161679596,44.730573933385315,16.73069161679596,45.33057393338531,16.330691616795956,45.730573933385315C16.23069161679596,45.93057393338531,15.930691616795958,46.03057393338531,15.630691616795957,46.03057393338531Z" fill="#A8A8A8" fill-opacity="1" style="mix-blend-mode:passthrough"/></g></g></svg>