<svg xmlns="http://www.w3.org/2000/svg" xmlns:xlink="http://www.w3.org/1999/xlink" fill="none" version="1.1" width="25" height="25" viewBox="0 0 25 25"><defs><clipPath id="master_svg0_55_264"><rect x="0" y="0" width="25" height="25" rx="0"/></clipPath></defs><g clip-path="url(#master_svg0_55_264)"><g><path d="M15.3994,15.9781L15.411,15.9781L15.404,16.017899999999997L15.411,15.9789C15.4809,15.9923,15.5475,16.0193,15.6068,16.058500000000002C15.6662,16.0978,15.7177,16.1483,15.7574,16.2075C15.7971,16.2666,15.8246,16.3333,15.8385,16.4032C15.8455,16.438299999999998,15.8488,16.4738,15.8487,16.5093L15.8385,16.6147L15.7785,16.9298L15.7785,16.9298C15.461,18.5387,15.0113,19.8153,14.461,20.6911C13.9109,21.5663,13.2549,22.0483,12.5241,22.0483C12.18034,22.0483,11.76179,21.9377,11.32527,21.5709C10.88947,21.2048,10.4369,20.5848,10.02104,19.5678C9.96673,19.4349,9.96779,19.2853,10.02338,19.1528C10.07901,19.0206,10.184660000000001,18.9154,10.31749,18.8611C10.45032,18.8068,10.59929,18.8079,10.73164,18.8635C10.86391,18.919,10.96903,19.0247,11.02335,19.1576L11.11153,19.3674L11.11073,19.3674C11.33126,19.8759,11.57456,20.2782,11.81898,20.553C12.0646,20.8289,12.30662,20.9703,12.5241,20.9703C12.6879,20.9703,12.8756,20.8879,13.0757,20.7082C13.2753,20.5288,13.4837,20.2551,13.6895,19.8814C14.1011,19.1338,14.4975,17.9902,14.7815,16.4103C14.8077,16.270400000000002,14.8883,16.1463,15.0054,16.0655C15.1205,15.9862,15.2616,15.9553,15.3994,15.9781ZM18.9469,9.17939C19.0203,9.17194,19.0947,9.179269999999999,19.1653,9.20045L19.1661,9.20045L19.4251,9.28468L19.7956,9.415759999999999C20.6327,9.72815,21.2858,10.08671,21.7402,10.48201C22.26,10.93434,22.5229,11.43779,22.4984,11.97583C22.4978,12.5854,22.1673,13.1212,21.6045,13.5803C21.0414,14.0395,20.2424,14.4253,19.2948,14.7355C17.398899999999998,15.3562,14.8983,15.6786,12.47427,15.6786L11.14348,15.6786L11.0366,17.2488L11.03197,17.318199999999997L10.97422,17.2792L7.50935,14.943L7.45162,14.9033L7.51481,14.8736L11.31904,13.0866L11.38063,13.0577L11.37599,13.1256L11.26912,14.6497L12.5241,14.6497C15.3064,14.6497,17.5485,14.261,19.0936,13.7348C19.8663,13.4716,20.4631,13.1745,20.8658,12.8759C21.2707,12.5758,21.4703,12.2812,21.4703,12.0242C21.4703,11.79835,21.3077,11.50425,20.8923,11.19266C20.4781,10.88202,19.8189,10.55909,18.8432,10.27529L18.8432,10.27529C18.7719,10.25413,18.7068,10.21882,18.6497,10.17233C18.5927,10.12585,18.545,10.06874,18.5101,10.00388C18.4752,9.9391,18.4528,9.86801,18.4453,9.79485C18.4379,9.72152,18.4453,9.647,18.4664,9.57639C18.4876,9.50586,18.5228,9.44004,18.5694,9.383009999999999C18.6159,9.325980000000001,18.6731,9.27821,18.7378,9.24339C18.8026,9.208490000000001,18.8738,9.186869999999999,18.9469,9.17939ZM11.68639,8.34008C11.82729,8.34261,11.96228,8.398430000000001,12.06396,8.496089999999999C12.1654,8.593720000000001,12.22658,8.725999999999999,12.23473,8.8666L12.23473,8.872060000000001L12.2285,8.96177L12.2285,8.96566L12.18872,8.958639999999999L12.2285,8.96566C12.20749,9.09017,12.14439,9.20357,12.0491,9.28628C11.95373,9.36903,11.83216,9.41488,11.70588,9.41728L11.70668,9.41808L11.38143,9.42822C9.0657,9.52,7.10925,9.900839999999999,5.73322,10.39622C5.04513,10.644,4.50406,10.91981,4.13572,11.2012C3.7656099999999997,11.48396,3.5780000000000003,11.76568,3.5780000000000003,12.0242C3.5780000000000003,12.2549,3.7453000000000003,12.5568,4.17472,12.8799C4.59695,13.1974,5.26656,13.5294,6.25506,13.8299L6.26443,13.7948L6.30108,13.8019C6.43938,13.8283,6.56211,13.9077,6.64352,14.0226C6.72485,14.1374,6.75869,14.2789,6.7379,14.4181C6.71703,14.5572,6.64335,14.6831,6.53197,14.7691C6.421609999999999,14.8541,6.2828,14.893,6.144299999999999,14.879L6.144299999999999,14.879L5.98829,14.8798L5.98283,14.8783C4.85213,14.533,3.98268,14.1164,3.3954750000000002,13.6388C2.807857,13.1609,2.5,12.6187,2.5,12.0242C2.5,11.42749,2.803889,10.90647,3.322149,10.4602C3.84007,10.01434,4.5748,9.640450000000001,5.44461,9.33692C7.18446,8.729890000000001,9.475100000000001,8.400079999999999,11.68407,8.34008L11.68639,8.34008ZM12.5241,2C13.0367,2,13.4957,2.2330550000000002,13.9001,2.637287C14.304,3.04103,14.6554,3.61699,14.9547,4.30889C15.5495,5.68374,15.942,7.5248,16.1333,9.40561L17.6934,9.298739999999999L17.7621,9.29403L17.7316,9.35569L15.8947,13.11L15.8643,13.1724L15.826,13.1146L13.4898,9.65051L13.4508,9.592839999999999L13.5194,9.58813L15.0257,9.48046C14.8398,7.49553,14.4564,5.8944,13.9961,4.78861C13.7643,4.231730000000001,13.514,3.80197,13.2613,3.51248C13.0078,3.22218,12.7569,3.0780000000000003,12.5241,3.0780000000000003C12.30254,3.0780000000000003,12.06308,3.22688,11.81587,3.5210600000000003C11.56977,3.8139700000000003,11.32224,4.24446,11.08341,4.79172L11.08341,4.79172C11.05458,4.8561499999999995,11.01432,4.91547,10.96328,4.9648900000000005C10.91224,5.01436,10.85161,5.0535,10.78548,5.079549999999999C10.71942,5.10555,10.64897,5.118320000000001,10.57796,5.117C10.50687,5.1156500000000005,10.436340000000001,5.10031,10.37125,5.071759999999999L10.34864,5.06161L10.34784,5.06161L10.326039999999999,5.05148L10.32444,5.0506899999999995C10.1968,4.98703,10.0993,4.87546,10.05381,4.74024C10.008320000000001,4.6048100000000005,10.01837,4.45636,10.08188,4.32838L10.18018,4.108420000000001L10.18018,4.108420000000001C10.57932,3.2451499999999998,11.0041,2.717984,11.41026,2.406392C11.81706,2.0943683,12.20414,2,12.5241,2Z" fill="#18181B" fill-opacity="1" style="mix-blend-mode:passthrough"/><path d="M12.5241,1.95Q11.92313,1.95,11.37983,2.366718Q10.68333,2.901042,10.134540000000001,4.08802L10.03664,4.30708Q9.92882,4.52515,10.00642,4.75619Q10.08395,4.98662,10.302430000000001,5.09559L10.304960000000001,5.09682L10.33679,5.111610000000001L10.33794,5.111610000000001L10.35116,5.11755Q10.45876,5.16474,10.57704,5.16699Q10.69432,5.169169999999999,10.80381,5.12607Q10.91334,5.08292,10.99806,5.0008099999999995Q11.08022,4.921250000000001,11.12924,4.81172Q11.48852,3.98842,11.85414,3.55322Q12.21148,3.128,12.5241,3.128Q12.8592,3.128,13.2236,3.54536Q13.6074,3.98496,13.9499,4.8078199999999995Q14.7018,6.61391,14.9711,9.43423L13.516,9.53825L13.3608,9.54891L13.4484,9.67847L15.7843,13.1422L15.8709,13.2729L15.9396,13.132L17.7765,9.37782L17.845399999999998,9.238199999999999L17.689999999999998,9.24886L16.1782,9.35243Q15.86,6.27558,15.0006,4.28904Q14.5264,3.19265,13.9355,2.601924Q13.2833,1.95,12.5241,1.95ZM10.22583,4.12882Q10.76375,2.965381,11.44069,2.446063Q11.95706,2.05,12.5241,2.05Q13.2419,2.05,13.8648,2.67265Q14.4421,3.24987,14.9088,4.32874Q15.7688,6.3166,16.0836,9.41068L16.0885,9.4588L17.678800000000003,9.34986L15.8576,13.072L13.5408,9.63673L15.0803,9.52669L15.0755,9.47579Q14.8066,6.60573,14.0422,4.76939Q13.6935,3.93147,13.299,3.47959Q12.9047,3.028,12.5241,3.028Q12.1649,3.028,11.77759,3.48889Q11.40267,3.93515,11.03759,4.77172Q10.99681,4.86281,10.9285,4.92897Q10.8581,4.997199999999999,10.76715,5.03303Q10.67624,5.06881,10.57889,5.06701Q10.480640000000001,5.0651399999999995,10.39133,5.02597L10.35935,5.01161L10.3589,5.01161L10.34711,5.00614L10.34645,5.0058Q10.16555,4.91558,10.1012,4.7242999999999995Q10.03662,4.53204,10.12667,4.35061L10.12712,4.34971L10.22583,4.12882ZM11.68639,8.29008L11.68339,8.29008L11.68272,8.290099999999999Q9.971309999999999,8.33657,8.38073,8.583960000000001Q6.70315,8.84486,5.42814,9.28971Q4.0442,9.772639999999999,3.289524,10.42232Q2.45,11.1452,2.4499999,12.0242Q2.45,12.9342,3.363926,13.6776Q4.25631,14.4034,5.96879,14.9262L5.98125,14.9299L6.14196,14.9291Q6.37674,14.9518,6.56252,14.8086Q6.75179,14.6626,6.78735,14.4255Q6.82269,14.189,6.68432,13.9937Q6.54546,13.7977,6.3105,13.7528L6.2281200000000005,13.737L6.22013,13.7669Q4.893660000000001,13.358,4.2047799999999995,12.8399Q3.628,12.406,3.628,12.0242Q3.628,11.65201,4.16608,11.24094Q4.728759999999999,10.81107,5.75016,10.44327Q8.06569,9.609670000000001,11.38299,9.478200000000001L11.82381,9.46445L11.81528,9.455919999999999Q11.9634,9.42684,12.08187,9.32404Q12.24223,9.18487,12.2778,8.973980000000001L12.2785,8.969850000000001L12.2785,8.9635L12.28473,8.87379L12.28473,8.86515L12.28465,8.863710000000001Q12.27086,8.62583,12.09859,8.46002Q11.92612,8.29438,11.68639,8.29008ZM12.1785,8.96138L12.1785,8.96003L12.18473,8.87033L12.18473,8.868089999999999Q12.17279,8.67023,12.02932,8.53215Q11.88513,8.39366,11.68639,8.390080000000001L11.68474,8.390080000000001Q9.980070000000001,8.43643,8.3961,8.68277Q6.72751,8.94229,5.46109,9.384129999999999Q4.09507,9.86081,3.354775,10.49809Q2.55,11.19106,2.5499999,12.0242Q2.55,12.8867,3.427023,13.6Q4.30384,14.3131,5.99539,14.8298L6.1466899999999995,14.829L6.1493199999999995,14.8293Q6.34615,14.8492,6.50143,14.7295Q6.65886,14.608,6.68845,14.4107Q6.71784,14.214,6.60272,14.0515Q6.48982,13.8921,6.3007100000000005,13.8528L6.29003,13.8928L6.24052,13.8777Q4.86046,13.4582,4.14466,12.9198Q3.528,12.4559,3.528,12.0242Q3.528,11.60256,4.10537,11.16147Q4.68034,10.72222,5.71629,10.34918Q8.046289999999999,9.510349999999999,11.37987,9.37824L11.58954,9.3717L11.58735,9.36952L11.70493,9.36729Q11.88335,9.363900000000001,12.01632,9.24852Q12.14805,9.13419,12.1785,8.96138ZM18.9419,9.12965Q18.8205,9.142050000000001,18.7142,9.199349999999999L18.7141,9.19937Q18.6083,9.256260000000001,18.5306,9.35139Q18.4533,9.44609,18.4185,9.56203Q18.3834,9.679310000000001,18.3956,9.799949999999999Q18.407899999999998,9.91953,18.4661,10.02758Q18.5232,10.1337,18.6181,10.21109Q18.7137,10.28899,18.8292,10.32331Q20.1697,10.7132,20.8623,11.23266Q21.4203,11.65117,21.4203,12.0242Q21.4203,12.4026,20.836,12.8358Q20.2057,13.3031,19.0775,13.6874Q16.3988,14.5997,12.5241,14.5997L11.32275,14.5997L11.42588,13.129L11.4363,12.9763L11.29778,13.0413L7.49358,14.8283L7.3515,14.895L7.4814,14.9845L10.94625,17.320700000000002L11.07607,17.4083L11.08649,17.252200000000002L11.19019,15.7286L12.47428,15.7286Q14.3271,15.7286,16.0893,15.4894Q17.9063,15.2427,19.3104,14.783Q20.8114,14.2916,21.6361,13.619Q22.5469,12.8761,22.5484,11.97705Q22.5855,11.1513,21.773,10.44429Q21.0805,9.841899999999999,19.8123,9.36862L19.4412,9.23733L19.1741,9.15045L19.1725,9.15045Q19.0588,9.11777,18.9419,9.12965ZM18.6081,9.414629999999999Q18.6732,9.334900000000001,18.7615,9.28743L18.7615,9.287410000000001Q18.8505,9.23951,18.952,9.229140000000001Q19.0528,9.21889,19.151,9.248339999999999L19.158,9.25045L19.1582,9.25045L19.4084,9.33184L19.4096,9.33223L19.7789,9.462900000000001Q21.0286,9.92923,21.7074,10.51973Q22.484,11.19549,22.4485,11.97356L22.4484,11.97467L22.4484,11.97578Q22.4475,12.8281,21.5729,13.5415Q20.7626,14.2024,19.2792,14.688Q17.8839,15.1449,16.0759,15.3903Q14.3203,15.6286,12.47428,15.6286L11.09677,15.6286L10.9879,17.228099999999998L7.55192,14.9114L11.32492,13.1391L11.21549,14.6997L12.5241,14.6997Q16.415300000000002,14.6997,19.1097,13.7821Q20.2527,13.3928,20.8956,12.9161Q21.5203,12.453,21.5203,12.0242Q21.5203,11.60116,20.9223,11.15266Q20.2151,10.62225,18.8572,10.22728Q18.7614,10.19883,18.6813,10.13358Q18.6018,10.06878,18.5541,9.98018Q18.5053,9.889569999999999,18.4951,9.78974Q18.4849,9.68899,18.5143,9.59074Q18.5434,9.49391,18.6081,9.414629999999999ZM15.3702,15.9237Q15.1567,15.9006,14.9771,16.0243Q14.7772,16.162100000000002,14.7323,16.401400000000002Q14.3366,18.6024,13.6457,19.8573Q13.3499,20.3945,13.0422,20.671Q12.7647,20.9203,12.5241,20.9203Q12.21287,20.9203,11.85634,20.5197Q11.49452,20.113,11.17678,19.3936L11.06963,19.1386Q10.97705,18.9122,10.75098,18.8173Q10.52465,18.7224,10.29859,18.8148Q10.07245,18.9072,9.97728,19.1335Q9.88215,19.3601,9.97476,19.5867Q10.54471,20.9805,11.29311,21.6092Q11.87522,22.0983,12.5241,22.0983Q13.6356,22.0983,14.5033,20.7177Q15.3469,19.3753,15.8276,16.9391L15.8881,16.6217L15.8987,16.5118L15.8987,16.5094Q15.8988,16.450200000000002,15.8876,16.3935Q15.8645,16.2774,15.7989,16.1796Q15.7337,16.0826,15.6344,16.0168Q15.5569,15.9656,15.4684,15.941L15.4706,15.9281L15.4116,15.9281L15.3708,15.9203L15.3702,15.9237ZM15.4021,16.028100000000002L15.3953,16.028100000000002L15.3912,16.0275Q15.1958,15.9951,15.0338,16.1067Q14.8679,16.221,14.8308,16.4191Q14.4322,18.6362,13.7333,19.9055Q13.4293,20.4576,13.1091,20.7454Q12.803,21.0203,12.5241,21.0203Q12.16799,21.0203,11.78162,20.5862Q11.39762,20.1545,11.06486,19.3873L11.03454,19.3174L11.03628,19.3174L10.97707,19.1765Q10.90016,18.9884,10.7123,18.9096Q10.52416,18.8306,10.33639,18.9074Q10.148579999999999,18.9841,10.06948,19.1722Q9.99039,19.3606,10.067319999999999,19.5489Q10.62793,20.9198,11.35744,21.5326Q11.91166,21.9983,12.5241,21.9983Q13.5804,21.9984,14.4187,20.6645Q15.2523,19.3377,15.7293,16.9204L15.789,16.607599999999998L15.7987,16.5069Q15.7986,16.4588,15.7895,16.413Q15.7703,16.316499999999998,15.7159,16.235300000000002Q15.6618,16.154899999999998,15.5792,16.1002Q15.498,16.0465,15.4021,16.028100000000002Z" fill-rule="evenodd" fill="#18181B" fill-opacity="1" style="mix-blend-mode:passthrough"/></g></g></svg>