<svg width="16" height="16" viewBox="0 0 16 16" fill="none" xmlns="http://www.w3.org/2000/svg">
<path d="M8 0.974609C11.9468 0.974609 15.1504 4.17815 15.1504 8.125C15.1504 12.0718 11.9468 15.2754 8 15.2754C4.05316 15.2754 0.84961 12.0718 0.849609 8.125C0.849609 4.17816 4.05316 0.974615 8 0.974609ZM8 1.94727C4.58844 1.94727 1.82227 4.71345 1.82227 8.125C1.82227 11.5365 4.58844 14.3027 8 14.3027C11.4116 14.3027 14.1777 11.5365 14.1777 8.125C14.1777 4.71344 11.4116 1.94727 8 1.94727ZM11.0176 5.61133C11.2092 5.40663 11.5253 5.40583 11.7188 5.59375H11.7197L11.7217 5.59668L11.7246 5.59863H11.7236C11.9279 5.79152 11.927 6.10816 11.7363 6.30078L7.53711 10.6357L7.53516 10.6377C7.34276 10.83 7.02727 10.8296 6.83496 10.6533L4.29297 8.32422L4.29199 8.32324C4.08745 8.13413 4.06992 7.82707 4.26172 7.61914C4.45078 7.41431 4.75778 7.39605 4.96582 7.58789L7.15527 9.59473L11.0176 5.61133Z" fill="#18181B" stroke="#18181B" stroke-width="0.3"/>
</svg>
