<svg xmlns="http://www.w3.org/2000/svg" xmlns:xlink="http://www.w3.org/1999/xlink" fill="none" version="1.1" width="24" height="24" viewBox="0 0 24 24"><defs><clipPath id="master_svg0_55_149"><rect x="0" y="0" width="24" height="24" rx="0"/></clipPath></defs><g clip-path="url(#master_svg0_55_149)"><g><path d="M8.51237,1.25L4.32721,1.25Q4.25334,1.25,4.180899999999999,1.264411Q4.1084499999999995,1.278822,4.0402000000000005,1.30709Q3.97195,1.335359,3.91054,1.376398Q3.84912,1.417437,3.79688,1.46967Q3.74465,1.521903,3.7036100000000003,1.583322Q3.66257,1.644742,3.6343,1.712987Q3.60604,1.781233,3.59162,1.853682Q3.57721,1.9261314999999999,3.57721,2Q3.57721,2.0738685,3.59162,2.146318Q3.60604,2.218767,3.6343,2.287013Q3.66257,2.355258,3.7036100000000003,2.416678Q3.74465,2.478097,3.79688,2.53033Q3.84912,2.582563,3.91054,2.623602Q3.97195,2.664641,4.0402000000000005,2.69291Q4.1084499999999995,2.721178,4.180899999999999,2.735589Q4.25334,2.75,4.32721,2.75L8.51237,2.75Q8.58624,2.75,8.65869,2.735589Q8.73114,2.721178,8.79938,2.69291Q8.86763,2.664641,8.92905,2.623602Q8.99047,2.582563,9.0427,2.53033Q9.09493,2.478097,9.13597,2.416678Q9.17701,2.355258,9.20528,2.287013Q9.233550000000001,2.218767,9.247959999999999,2.146318Q9.26237,2.0738685,9.26237,2Q9.26237,1.9261314999999999,9.247959999999999,1.853682Q9.233550000000001,1.781233,9.20528,1.712987Q9.17701,1.644742,9.13597,1.583322Q9.09493,1.521903,9.0427,1.46967Q8.99047,1.417437,8.92905,1.376398Q8.86763,1.335359,8.79938,1.30709Q8.73114,1.278822,8.65869,1.264411Q8.58624,1.25,8.51237,1.25ZM16.8827,1.25L12.6975,1.25Q12.6237,1.25,12.5512,1.264411Q12.4788,1.278822,12.4105,1.30709Q12.3423,1.335359,12.2809,1.376398Q12.2194,1.417437,12.1672,1.46967Q12.115,1.521903,12.0739,1.583322Q12.0329,1.644742,12.0046,1.712987Q11.97635,1.781233,11.96194,1.853682Q11.94753,1.9261314999999999,11.94753,2Q11.94753,2.0738685,11.96194,2.146318Q11.97635,2.218767,12.0046,2.287013Q12.0329,2.355258,12.0739,2.416678Q12.115,2.478097,12.1672,2.53033Q12.2194,2.582563,12.2809,2.623602Q12.3423,2.664641,12.4105,2.69291Q12.4788,2.721178,12.5512,2.735589Q12.6237,2.75,12.6975,2.75L16.8827,2.75Q16.9566,2.75,17.029,2.735589Q17.1015,2.721178,17.1697,2.69291Q17.2379,2.664641,17.2994,2.623602Q17.360799999999998,2.582563,17.413,2.53033Q17.4652,2.478097,17.5063,2.416678Q17.5473,2.355258,17.5756,2.287013Q17.6039,2.218767,17.618299999999998,2.146318Q17.6327,2.0738685,17.6327,2Q17.6327,1.9261314999999999,17.618299999999998,1.853682Q17.6039,1.781233,17.5756,1.712987Q17.5473,1.644742,17.5063,1.583322Q17.4652,1.521903,17.413,1.46967Q17.360799999999998,1.417437,17.2994,1.376398Q17.2379,1.335359,17.1697,1.30709Q17.1015,1.278822,17.029,1.264411Q16.9566,1.25,16.8827,1.25ZM22.75,3Q22.75,1.371317,21.1266,1.2545410000000001Q20.9778,1.243838,20.8362,1.290892Q20.6947,1.337947,20.5819,1.4355959999999999Q20.4691,1.533245,20.4023,1.666622Q20.3354,1.799998,20.3247,1.9487981Q20.3194,2.0224763,20.3286,2.0957727Q20.3378,2.169069,20.3611,2.239167Q20.3844,2.309265,20.4209,2.373471Q20.4574,2.437676,20.5058,2.493522Q20.5541,2.549368,20.6124,2.594708Q20.6708,2.640048,20.7368,2.67314Q20.8028,2.706232,20.8741,2.725804Q20.9453,2.7453760000000003,21.019,2.750676Q21.25,2.767294,21.25,3L21.25,5.72226Q21.25,5.79613,21.2644,5.86858Q21.2788,5.94103,21.3071,6.00928Q21.3354,6.07752,21.3764,6.13894Q21.4174,6.20036,21.4697,6.25259Q21.5219,6.30483,21.5833,6.34587Q21.6447,6.3869,21.713,6.41517Q21.7812,6.44344,21.8537,6.45785Q21.9261,6.47226,22,6.47226Q22.0739,6.47226,22.1463,6.45785Q22.2188,6.44344,22.287,6.41517Q22.3553,6.3869,22.4167,6.34587Q22.4781,6.30483,22.5303,6.25259Q22.5826,6.20036,22.6236,6.13894Q22.6646,6.07752,22.6929,6.00928Q22.7212,5.94103,22.7356,5.86858Q22.75,5.79613,22.75,5.72226L22.75,3ZM1.25,4.32721L1.25,8.51237Q1.25,8.58624,1.264411,8.65869Q1.278822,8.73113,1.30709,8.79938Q1.335359,8.86763,1.376398,8.92905Q1.417437,8.99047,1.46967,9.0427Q1.521903,9.09493,1.583322,9.13597Q1.644742,9.17701,1.712987,9.20528Q1.781233,9.233550000000001,1.853682,9.247959999999999Q1.9261314999999999,9.26237,2,9.26237Q2.0738685,9.26237,2.146318,9.247959999999999Q2.218767,9.233550000000001,2.287013,9.20528Q2.355258,9.17701,2.416678,9.13597Q2.478097,9.09493,2.53033,9.0427Q2.582563,8.99047,2.623602,8.92905Q2.664641,8.86763,2.69291,8.79938Q2.721178,8.73113,2.735589,8.65869Q2.75,8.58624,2.75,8.51237L2.75,4.32721Q2.75,4.25334,2.735589,4.180899999999999Q2.721178,4.1084499999999995,2.69291,4.0402000000000005Q2.664641,3.97195,2.623602,3.91054Q2.582563,3.84912,2.53033,3.79688Q2.478097,3.74465,2.416678,3.7036100000000003Q2.355258,3.66257,2.287013,3.6343Q2.218767,3.60604,2.146318,3.59162Q2.0738685,3.57721,2,3.57721Q1.9261314999999999,3.57721,1.853682,3.59162Q1.781233,3.60604,1.712987,3.6343Q1.644742,3.66257,1.583322,3.7036100000000003Q1.521903,3.74465,1.46967,3.79688Q1.417437,3.84912,1.376398,3.91054Q1.335359,3.97195,1.30709,4.0402000000000005Q1.278822,4.1084499999999995,1.264411,4.180899999999999Q1.25,4.25334,1.25,4.32721ZM22.75,12L22.75,9.90742Q22.75,9.833549999999999,22.7356,9.761099999999999Q22.7212,9.688649999999999,22.6929,9.62041Q22.6646,9.55216,22.6236,9.490739999999999Q22.5826,9.42932,22.5303,9.377089999999999Q22.4781,9.324860000000001,22.4167,9.28382Q22.3553,9.24278,22.287,9.21451Q22.2188,9.18624,22.1463,9.17183Q22.0739,9.15742,22,9.15742Q21.9261,9.15742,21.8537,9.17183Q21.7812,9.18624,21.713,9.21451Q21.6447,9.24278,21.5833,9.28382Q21.5219,9.324860000000001,21.4697,9.377089999999999Q21.4174,9.42932,21.3764,9.490739999999999Q21.3354,9.55216,21.3071,9.62041Q21.2788,9.688649999999999,21.2644,9.761099999999999Q21.25,9.833549999999999,21.25,9.90742L21.25,12Q21.25,12.0739,21.2644,12.1463Q21.2788,12.2188,21.3071,12.287Q21.3354,12.3553,21.3764,12.4167Q21.4174,12.4781,21.4697,12.5303Q21.5219,12.5826,21.5833,12.6236Q21.6447,12.6646,21.713,12.6929Q21.7812,12.7212,21.8537,12.7356Q21.9261,12.75,22,12.75Q22.0739,12.75,22.1463,12.7356Q22.2188,12.7212,22.287,12.6929Q22.3553,12.6646,22.4167,12.6236Q22.4781,12.5826,22.5303,12.5303Q22.5826,12.4781,22.6236,12.4167Q22.6646,12.3553,22.6929,12.287Q22.7212,12.2188,22.7356,12.1463Q22.75,12.0739,22.75,12ZM1.25,12.6975L1.25,16.8827Q1.25,16.9566,1.264411,17.029Q1.278822,17.101399999999998,1.30709,17.1697Q1.335359,17.2379,1.376398,17.2994Q1.417437,17.360799999999998,1.46967,17.413Q1.521903,17.4652,1.583322,17.5063Q1.644742,17.5473,1.712987,17.5756Q1.781233,17.6039,1.853682,17.618299999999998Q1.9261314999999999,17.6327,2,17.6327Q2.0738685,17.6327,2.146318,17.618299999999998Q2.218767,17.6039,2.287013,17.5756Q2.355258,17.5473,2.416678,17.5063Q2.478097,17.4652,2.53033,17.413Q2.582563,17.360799999999998,2.623602,17.2994Q2.664641,17.2379,2.69291,17.1697Q2.721178,17.101399999999998,2.735589,17.029Q2.75,16.9566,2.75,16.8827L2.75,12.6975Q2.75,12.6237,2.735589,12.5512Q2.721178,12.4788,2.69291,12.4105Q2.664641,12.3423,2.623602,12.2808Q2.582563,12.2194,2.53033,12.1672Q2.478097,12.115,2.416678,12.0739Q2.355258,12.0329,2.287013,12.0046Q2.218767,11.97635,2.146318,11.96194Q2.0738685,11.94753,2,11.94753Q1.9261314999999999,11.94753,1.853682,11.96194Q1.781233,11.97635,1.712987,12.0046Q1.644742,12.0329,1.583322,12.0739Q1.521903,12.115,1.46967,12.1672Q1.417437,12.2194,1.376398,12.2808Q1.335359,12.3423,1.30709,12.4105Q1.278822,12.4788,1.264411,12.5512Q1.25,12.6237,1.25,12.6975ZM3,22.75L5.72226,22.75Q5.79613,22.75,5.86858,22.7356Q5.94103,22.7212,6.00928,22.6929Q6.07752,22.6646,6.13894,22.6236Q6.20036,22.5826,6.25259,22.5303Q6.30483,22.4781,6.34587,22.4167Q6.38691,22.3553,6.41517,22.287Q6.44344,22.2188,6.45785,22.1463Q6.47226,22.0739,6.47226,22Q6.47226,21.9261,6.45785,21.8537Q6.44344,21.7812,6.41517,21.713Q6.38691,21.6447,6.34587,21.5833Q6.30483,21.5219,6.25259,21.4697Q6.20036,21.4174,6.13894,21.3764Q6.07752,21.3354,6.00928,21.3071Q5.94103,21.2788,5.86858,21.2644Q5.79613,21.25,5.72226,21.25L3,21.25Q2.767293,21.25,2.750676,21.019Q2.739973,20.8702,2.673141,20.7368Q2.606309,20.6034,2.493523,20.5058Q2.380738,20.4081,2.239169,20.3611Q2.0975999,20.314,1.9488003,20.3247Q1.875122,20.33,1.803894,20.3496Q1.732665,20.3692,1.666623,20.4023Q1.600582,20.4353,1.542265,20.4807Q1.483948,20.526,1.435597,20.5819Q1.387246,20.6377,1.350719,20.7019Q1.314192,20.7661,1.290893,20.8362Q1.2675939999999999,20.9063,1.258418,20.9796Q1.249241,21.0529,1.2545410000000001,21.1266Q1.371312,22.75,3,22.75ZM9.90742,22.75L12,22.75Q12.0739,22.75,12.1463,22.7356Q12.2188,22.7212,12.287,22.6929Q12.3553,22.6646,12.4167,22.6236Q12.4781,22.5826,12.5303,22.5303Q12.5826,22.4781,12.6236,22.4167Q12.6646,22.3553,12.6929,22.287Q12.7212,22.2188,12.7356,22.1463Q12.75,22.0739,12.75,22Q12.75,21.9261,12.7356,21.8537Q12.7212,21.7812,12.6929,21.713Q12.6646,21.6447,12.6236,21.5833Q12.5826,21.5219,12.5303,21.4697Q12.4781,21.4174,12.4167,21.3764Q12.3553,21.3354,12.287,21.3071Q12.2188,21.2788,12.1463,21.2644Q12.0739,21.25,12,21.25L9.90742,21.25Q9.833549999999999,21.25,9.761099999999999,21.2644Q9.688649999999999,21.2788,9.62041,21.3071Q9.55216,21.3354,9.490739999999999,21.3764Q9.42932,21.4174,9.377089999999999,21.4697Q9.324860000000001,21.5219,9.28382,21.5833Q9.24278,21.6447,9.21451,21.713Q9.18624,21.7812,9.17183,21.8537Q9.15742,21.9261,9.15742,22Q9.15742,22.0739,9.17183,22.1463Q9.18624,22.2188,9.21451,22.287Q9.24278,22.3553,9.28382,22.4167Q9.324860000000001,22.4781,9.377089999999999,22.5303Q9.42932,22.5826,9.490739999999999,22.6236Q9.55216,22.6646,9.62041,22.6929Q9.688649999999999,22.7212,9.761099999999999,22.7356Q9.833549999999999,22.75,9.90742,22.75Z" fill-rule="evenodd" fill="#18181B" fill-opacity="1" style="mix-blend-mode:passthrough"/></g><g><path d="M23.6045,16.76102Q23.5552,16.63632,23.4605,16.5413Q23.3659,16.44629,23.2414,16.39649L13.241404,12.39649Q13.181963,12.372714,13.119026,12.360991Q13.0560896,12.349268,12.99207495,12.350048Q12.9280603,12.350829,12.865428,12.364083Q12.802796,12.377337,12.743952,12.402556Q12.685109,12.427774,12.632317,12.463988Q12.579524,12.500202,12.534811,12.546019Q12.490098,12.591836,12.455182,12.645496Q12.420266,12.699156,12.39649,12.758596Q12.35,12.874821,12.35,13.00000000386345Q12.35,13.125179,12.39649,13.241404L16.39649,23.2414Q16.42027,23.300800000000002,16.45518,23.3545Q16.490099999999998,23.4082,16.53481,23.454Q16.57952,23.4998,16.63232,23.536Q16.68511,23.572200000000002,16.743949999999998,23.5974Q16.8028,23.622700000000002,16.86543,23.6359Q16.92806,23.6492,16.99207,23.65Q17.05609,23.6507,17.119030000000002,23.639Q17.18196,23.627299999999998,17.2414,23.6035Q17.36591,23.5537,17.46054,23.4587Q17.55517,23.3637,17.60447,23.239L19.20092,19.20092L23.239,17.60447Q23.3592,17.55694,23.4521,17.467010000000002Q23.545,17.37708,23.5964,17.25844Q23.6478,17.13981,23.649900000000002,17.01053Q23.652,16.88126,23.6045,16.76102ZM21.24099,16.99647L14.16679,14.16679L16.99647,21.24099L18.09553,18.46102Q18.14508,18.33568,18.240380000000002,18.240380000000002Q18.33568,18.14508,18.46102,18.09553L21.24099,16.99647Z" fill-rule="evenodd" fill="#18181B" fill-opacity="1" style="mix-blend-mode:passthrough"/></g></g></svg>