<svg width="32" height="42" viewBox="0 0 32 42" fill="none" xmlns="http://www.w3.org/2000/svg">
<path d="M20.7479 7L21.2597 6.4518C21.1208 6.32212 20.9379 6.25 20.7479 6.25V7ZM24.5 10.5032H25.25C25.25 10.2953 25.1638 10.0968 25.0118 9.95496L24.5 10.5032ZM15.754 7L16.504 7.00084L16.5049 6.25H15.754V7ZM15.75 10.5897L15 10.5889V10.5897H15.75ZM10.8889 7V6.25H10.1389V7H10.8889ZM10.8889 15.9722C10.4747 15.9722 10.1389 16.308 10.1389 16.7222C10.1389 17.1364 10.4747 17.4722 10.8889 17.4722V15.9722ZM20.6111 17.4722C21.0253 17.4722 21.3611 17.1364 21.3611 16.7222C21.3611 16.308 21.0253 15.9722 20.6111 15.9722V17.4722ZM10.8889 19.8611C10.4747 19.8611 10.1389 20.1969 10.1389 20.6111C10.1389 21.0253 10.4747 21.3611 10.8889 21.3611V19.8611ZM15.754 21.3611C16.1682 21.3611 16.504 21.0253 16.504 20.6111C16.504 20.1969 16.1682 19.8611 15.754 19.8611V21.3611ZM7 8.45833H7.75C7.75 8.06713 8.06713 7.75 8.45833 7.75V7V6.25C7.23871 6.25 6.25 7.23871 6.25 8.45833H7ZM8.45833 7V7.75H20.7479V7V6.25H8.45833V7ZM20.7479 7L20.2361 7.5482L23.9882 11.0514L24.5 10.5032L25.0118 9.95496L21.2597 6.4518L20.7479 7ZM24.5 10.5032H23.75V23.0417H24.5H25.25V10.5032H24.5ZM24.5 23.0417H23.75C23.75 23.4329 23.4329 23.75 23.0417 23.75V24.5V25.25C24.2613 25.25 25.25 24.2613 25.25 23.0417H24.5ZM23.0417 24.5V23.75H8.45833V24.5V25.25H23.0417V24.5ZM8.45833 24.5V23.75C8.06713 23.75 7.75 23.4329 7.75 23.0417H7H6.25C6.25 24.2613 7.23871 25.25 8.45833 25.25V24.5ZM7 23.0417H7.75V8.45833H7H6.25V23.0417H7ZM15.754 7L15.004 6.99916L15 10.5889L15.75 10.5897L16.5 10.5906L16.504 7.00084L15.754 7ZM15.75 10.5897H15C15 10.3148 15.1784 10.1848 15.2145 10.1625C15.2628 10.1328 15.2822 10.1389 15.2639 10.1389V10.8889V11.6389C15.5141 11.6389 15.7765 11.578 16.0007 11.44C16.2128 11.3095 16.5 11.0299 16.5 10.5897H15.75ZM15.2639 10.8889V10.1389H11.375V10.8889V11.6389H15.2639V10.8889ZM11.375 10.8889V10.1389C11.3567 10.1389 11.376 10.1328 11.4243 10.1625C11.4605 10.1848 11.6389 10.3148 11.6389 10.5897H10.8889H10.1389C10.1389 11.0299 10.4261 11.3095 10.6382 11.44C10.8624 11.578 11.1248 11.6389 11.375 11.6389V10.8889ZM10.8889 10.5897H11.6389V7H10.8889H10.1389V10.5897H10.8889ZM10.8889 7V7.75H15.754V7V6.25H10.8889V7ZM10.8889 16.7222V17.4722H20.6111V16.7222V15.9722H10.8889V16.7222ZM10.8889 20.6111V21.3611H15.754V20.6111V19.8611H10.8889V20.6111Z" fill="white"/>
<path d="M9.61426 37.2031C9.61426 37.0371 9.58822 36.8906 9.53613 36.7637C9.4873 36.6335 9.39941 36.5163 9.27246 36.4121C9.14876 36.3079 8.97624 36.2087 8.75488 36.1143C8.53678 36.0199 8.26009 35.9238 7.9248 35.8262C7.57324 35.722 7.25586 35.6064 6.97266 35.4795C6.68945 35.3493 6.44694 35.2012 6.24512 35.0352C6.04329 34.8691 5.88867 34.6787 5.78125 34.4639C5.67383 34.249 5.62012 34.0033 5.62012 33.7266C5.62012 33.4499 5.67708 33.1943 5.79102 32.96C5.90495 32.7256 6.06771 32.5221 6.2793 32.3496C6.49414 32.1738 6.74967 32.0371 7.0459 31.9395C7.34212 31.8418 7.67253 31.793 8.03711 31.793C8.57096 31.793 9.02344 31.8955 9.39453 32.1006C9.76888 32.3024 10.0537 32.5677 10.249 32.8965C10.4443 33.222 10.542 33.5703 10.542 33.9414H9.60449C9.60449 33.6745 9.54753 33.4385 9.43359 33.2334C9.31966 33.0251 9.14714 32.8623 8.91602 32.7451C8.6849 32.6247 8.39193 32.5645 8.03711 32.5645C7.70182 32.5645 7.42513 32.6149 7.20703 32.7158C6.98893 32.8167 6.82617 32.9535 6.71875 33.126C6.61458 33.2985 6.5625 33.4954 6.5625 33.7168C6.5625 33.8665 6.59342 34.0033 6.65527 34.127C6.72038 34.2474 6.81966 34.3597 6.95312 34.4639C7.08984 34.568 7.26237 34.6641 7.4707 34.752C7.68229 34.8398 7.93457 34.9245 8.22754 35.0059C8.63118 35.1198 8.97949 35.2467 9.27246 35.3867C9.56543 35.5267 9.80632 35.6846 9.99512 35.8604C10.1872 36.0329 10.3288 36.2298 10.4199 36.4512C10.5143 36.6693 10.5615 36.9167 10.5615 37.1934C10.5615 37.4831 10.5029 37.7451 10.3857 37.9795C10.2686 38.2139 10.1009 38.4141 9.88281 38.5801C9.66471 38.7461 9.40267 38.8747 9.09668 38.9658C8.79395 39.0537 8.4554 39.0977 8.08105 39.0977C7.75228 39.0977 7.42839 39.0521 7.10938 38.9609C6.79362 38.8698 6.50553 38.7331 6.24512 38.5508C5.98796 38.3685 5.78125 38.1439 5.625 37.877C5.47201 37.6068 5.39551 37.2943 5.39551 36.9395H6.33301C6.33301 37.1836 6.38021 37.3936 6.47461 37.5693C6.56901 37.7419 6.69759 37.8851 6.86035 37.999C7.02637 38.113 7.21354 38.1976 7.42188 38.2529C7.63346 38.305 7.85319 38.3311 8.08105 38.3311C8.40983 38.3311 8.68815 38.2855 8.91602 38.1943C9.14388 38.1032 9.31641 37.973 9.43359 37.8037C9.55404 37.6344 9.61426 37.4342 9.61426 37.2031ZM14.7412 38.0967V35.377C14.7412 35.1686 14.6989 34.988 14.6143 34.835C14.5329 34.6787 14.4092 34.5583 14.2432 34.4736C14.0771 34.389 13.8721 34.3467 13.6279 34.3467C13.4001 34.3467 13.1999 34.3857 13.0273 34.4639C12.8581 34.542 12.7246 34.6445 12.627 34.7715C12.5326 34.8984 12.4854 35.0352 12.4854 35.1816H11.582C11.582 34.9928 11.6309 34.8057 11.7285 34.6201C11.8262 34.4346 11.9661 34.2669 12.1484 34.1172C12.334 33.9642 12.5553 33.8438 12.8125 33.7559C13.0729 33.6647 13.3626 33.6191 13.6816 33.6191C14.0658 33.6191 14.4043 33.6842 14.6973 33.8145C14.9935 33.9447 15.2246 34.1416 15.3906 34.4053C15.5599 34.6657 15.6445 34.9928 15.6445 35.3867V37.8477C15.6445 38.0234 15.6592 38.2106 15.6885 38.4092C15.721 38.6077 15.7682 38.7786 15.8301 38.9219V39H14.8877C14.8421 38.8958 14.8063 38.7575 14.7803 38.585C14.7542 38.4092 14.7412 38.2464 14.7412 38.0967ZM14.8975 35.7969L14.9072 36.4316H13.9941C13.737 36.4316 13.5075 36.4528 13.3057 36.4951C13.1038 36.5342 12.9346 36.5944 12.7979 36.6758C12.6611 36.7572 12.557 36.8597 12.4854 36.9834C12.4137 37.1038 12.3779 37.2454 12.3779 37.4082C12.3779 37.5742 12.4154 37.7256 12.4902 37.8623C12.5651 37.999 12.6774 38.1081 12.8271 38.1895C12.9801 38.2676 13.1673 38.3066 13.3887 38.3066C13.6654 38.3066 13.9095 38.248 14.1211 38.1309C14.3327 38.0137 14.5003 37.8704 14.624 37.7012C14.751 37.5319 14.8193 37.3675 14.8291 37.208L15.2148 37.6426C15.1921 37.7793 15.1302 37.9307 15.0293 38.0967C14.9284 38.2627 14.7933 38.4222 14.624 38.5752C14.458 38.7249 14.2594 38.8503 14.0283 38.9512C13.8005 39.0488 13.5433 39.0977 13.2568 39.0977C12.8988 39.0977 12.5846 39.0277 12.3145 38.8877C12.0475 38.7477 11.8392 38.5605 11.6895 38.3262C11.543 38.0885 11.4697 37.8232 11.4697 37.5303C11.4697 37.2471 11.5251 36.998 11.6357 36.7832C11.7464 36.5651 11.9059 36.3844 12.1143 36.2412C12.3226 36.0947 12.5732 35.984 12.8662 35.9092C13.1592 35.8343 13.4863 35.7969 13.8477 35.7969H14.8975ZM18.5938 38.1846L20.0391 33.7168H20.9619L19.0625 39H18.457L18.5938 38.1846ZM17.3877 33.7168L18.877 38.209L18.9795 39H18.374L16.46 33.7168H17.3877ZM23.9551 39.0977C23.5872 39.0977 23.2536 39.0358 22.9541 38.9121C22.6579 38.7852 22.4023 38.6077 22.1875 38.3799C21.9759 38.152 21.8132 37.8818 21.6992 37.5693C21.5853 37.2568 21.5283 36.915 21.5283 36.5439V36.3389C21.5283 35.9092 21.5918 35.5267 21.7188 35.1914C21.8457 34.8529 22.0182 34.5664 22.2363 34.332C22.4544 34.0977 22.7018 33.9202 22.9785 33.7998C23.2552 33.6794 23.5417 33.6191 23.8379 33.6191C24.2155 33.6191 24.541 33.6842 24.8145 33.8145C25.0911 33.9447 25.3174 34.127 25.4932 34.3613C25.6689 34.5924 25.7992 34.8659 25.8838 35.1816C25.9684 35.4941 26.0107 35.8359 26.0107 36.207V36.6123H22.0654V35.875H25.1074V35.8066C25.0944 35.5723 25.0456 35.3444 24.9609 35.123C24.8796 34.9017 24.7493 34.7194 24.5703 34.5762C24.3913 34.4329 24.1471 34.3613 23.8379 34.3613C23.6328 34.3613 23.444 34.4053 23.2715 34.4932C23.099 34.5778 22.9508 34.7048 22.8271 34.874C22.7035 35.0433 22.6074 35.25 22.5391 35.4941C22.4707 35.7383 22.4365 36.0199 22.4365 36.3389V36.5439C22.4365 36.7946 22.4707 37.0306 22.5391 37.252C22.6107 37.4701 22.7132 37.6621 22.8467 37.8281C22.9834 37.9941 23.1478 38.1243 23.3398 38.2188C23.5352 38.3132 23.7565 38.3604 24.0039 38.3604C24.3229 38.3604 24.5931 38.2952 24.8145 38.165C25.0358 38.0348 25.2295 37.8607 25.3955 37.6426L25.9424 38.0771C25.8285 38.2497 25.6836 38.4141 25.5078 38.5703C25.332 38.7266 25.1156 38.8535 24.8584 38.9512C24.6045 39.0488 24.3034 39.0977 23.9551 39.0977Z" fill="white"/>
</svg>
