<svg xmlns="http://www.w3.org/2000/svg" xmlns:xlink="http://www.w3.org/1999/xlink" fill="none" version="1.1" width="24" height="24" viewBox="0 0 24 24"><defs><clipPath id="master_svg0_55_148"><rect x="0" y="0" width="24" height="24" rx="0"/></clipPath></defs><g clip-path="url(#master_svg0_55_148)"><g><path d="M3.86827,3.86827Q0.501038,7.2355,0.5,11.9971L0.49999899999999997,12L0.5,12.0029Q0.501037,16.764499999999998,3.86827,20.1317Q7.23655,23.5,12,23.5Q16.7634,23.5,20.1317,20.1317Q23.4985,16.7649,23.5,12.0042L23.5,12Q23.5,7.23655,20.1317,3.86827Q16.7634,0.5,12,0.49999899999999997Q7.23655,0.5,3.86827,3.86827ZM9.70937,1.731494Q6.807,2.34376,4.57538,4.57538Q2.34376,6.807,1.731494,9.70937Q2.5868,9.00422,4.03613,8.424489999999999Q5.60205,7.79812,7.46797,7.46797Q7.79812,5.60205,8.424489999999999,4.03613Q9.00422,2.5868,9.70937,1.731494ZM8.51441,7.30911Q8.82058,5.73847,9.35296,4.40752Q10.51597,1.499999,12,1.499999Q13.484,1.499999,14.647,4.40752Q15.1794,5.73847,15.4856,7.30911Q13.8487,7.1,12,7.1Q10.15131,7.1,8.51441,7.30911ZM7.30911,8.51441Q5.73847,8.82058,4.40752,9.35296Q1.502036,10.51516,1.5,11.9979L1.499999,11.999L1.499999,12L1.499999,12.001L1.5,12.0021Q1.502036,13.4849,4.40752,14.647Q5.73847,15.1794,7.30911,15.4856Q7.1,13.8487,7.1,12Q7.1,10.15131,7.30911,8.51441ZM8.341280000000001,15.6587Q8.1,13.9572,8.1,12Q8.1,10.04281,8.341280000000001,8.341280000000001Q10.04281,8.1,12,8.1Q13.9572,8.1,15.6587,8.341280000000001Q15.9,10.0428,15.9,12Q15.9,13.9572,15.6587,15.6587Q13.9572,15.9,12,15.9Q10.04281,15.9,8.341280000000001,15.6587ZM7.46798,16.532Q5.60205,16.201900000000002,4.03613,15.5755Q2.58681,14.9958,1.731503,14.2906Q2.34377,17.193,4.57538,19.4246Q6.807,21.6562,9.70937,22.2685Q9.00422,21.4132,8.424489999999999,19.9639Q7.79812,18.3979,7.46798,16.532ZM14.2906,22.2685Q17.193,21.6562,19.4246,19.4246Q21.6562,17.193,22.2685,14.2906Q21.4132,14.9958,19.9639,15.5755Q18.3979,16.201900000000002,16.532,16.532Q16.201900000000002,18.3979,15.5755,19.9639Q14.9958,21.4132,14.2906,22.2685ZM15.4856,16.6909Q15.1794,18.2615,14.647,19.5925Q13.484,22.5,12,22.5Q10.51597,22.5,9.35296,19.5925Q8.82059,18.2615,8.514420000000001,16.6909Q10.15132,16.9,12,16.9Q13.8487,16.9,15.4856,16.6909ZM16.6909,15.4856Q18.2615,15.1794,19.5925,14.647Q22.5,13.484,22.5,12Q22.5,10.51597,19.5925,9.35296Q18.2615,8.82059,16.6909,8.51441Q16.9,10.15131,16.9,12Q16.9,13.8487,16.6909,15.4856ZM16.532,7.46797Q16.201900000000002,5.60204,15.5755,4.03613Q14.9958,2.5868,14.2906,1.731503Q17.193,2.34377,19.4246,4.57538Q21.6562,6.807,22.2685,9.70937Q21.4132,9.00422,19.9639,8.424489999999999Q18.3979,7.79812,16.532,7.46797Z" fill-rule="evenodd" fill="#18181B" fill-opacity="1" style="mix-blend-mode:passthrough"/></g></g></svg>