<svg xmlns="http://www.w3.org/2000/svg" xmlns:xlink="http://www.w3.org/1999/xlink" fill="none" version="1.1" width="25" height="25" viewBox="0 0 25 25"><defs><clipPath id="master_svg0_55_265"><rect x="0" y="0" width="25" height="25" rx="0"/></clipPath></defs><g clip-path="url(#master_svg0_55_265)"><g><path d="M11.84067,12.57403L11.84067,13.23357L12.50019,13.23357L15.9848,13.23357C16.3491,13.23357,16.6443,12.93836,16.6443,12.57403C16.6443,12.20982,16.3491,11.914539999999999,15.9848,11.914539999999999L14.0819,11.914539999999999L19.6807,6.2625L19.6807,8.177050000000001C19.6807,8.5413,19.976,8.83658,20.3402,8.83658C20.7044,8.83658,20.9997,8.5413,20.9997,8.177050000000001L20.9997,4.659534L20.9997,4L20.3402,4L16.855800000000002,4C16.491500000000002,4,16.196199999999997,4.295283,16.196199999999997,4.659534C16.196199999999997,5.02378,16.491500000000002,5.31907,16.855800000000002,5.31907L18.7586,5.31907L13.15972,10.971129999999999L13.15972,9.05655C13.15972,8.692309999999999,12.86442,8.397020000000001,12.50019,8.397020000000001C12.13595,8.397020000000001,11.84067,8.692309999999999,11.84067,9.05655L11.84067,12.57403ZM4,5.53891L4,19.6092C4,20.4532,4.679516,21.148,5.53069,21.148L19.4693,21.148C20.3205,21.148,21,20.4532,21,19.609099999999998L21,13.01372C21,12.64948,20.7047,12.35422,20.3405,12.35422C19.976100000000002,12.35422,19.6809,12.64948,19.6809,13.01372L19.6809,19.609099999999998C19.6809,19.7364,19.5803,19.8289,19.4693,19.8289L5.53069,19.8289C5.41962,19.8289,5.31907,19.7364,5.31907,19.6092L5.31907,5.53891C5.31907,5.41164,5.41964,5.31907,5.53069,5.31907L12.06436,5.31907C12.42869,5.31907,12.7239,5.02378,12.7239,4.659534C12.7239,4.295283,12.42869,4,12.06436,4L5.53069,4C4.679489,4,4,4.69485,4,5.53891Z" fill="#18181B" fill-opacity="1" style="mix-blend-mode:passthrough"/></g></g></svg>