<svg width="24" height="24" viewBox="0 0 24 24" fill="none" xmlns="http://www.w3.org/2000/svg">
<g clip-path="url(#clip0_11040_29843)">
<path fill-rule="evenodd" clip-rule="evenodd" d="M12 24C12.1964 24 12.3927 23.9952 12.5888 23.9855C12.785 23.9759 12.9807 23.9615 13.1762 23.9422C13.3716 23.923 13.5665 23.8989 13.7608 23.8701C13.955 23.8413 14.1485 23.8077 14.3411 23.7694C14.5337 23.7311 14.7252 23.6881 14.9158 23.6404C15.1063 23.5926 15.2955 23.5403 15.4834 23.4833C15.6713 23.4263 15.8578 23.3647 16.0427 23.2985C16.2276 23.2324 16.4108 23.1617 16.5922 23.0866C16.7737 23.0114 16.9531 22.9318 17.1307 22.8479C17.3082 22.7639 17.4835 22.6756 17.6567 22.583C17.8299 22.4905 18.0008 22.3937 18.1693 22.2928C18.3377 22.1918 18.5036 22.0868 18.6668 21.9776C18.8301 21.8685 18.9906 21.7555 19.1484 21.6385C19.3061 21.5215 19.4609 21.4007 19.6127 21.2761C19.7645 21.1515 19.9132 21.0233 20.0587 20.8914C20.2042 20.7595 20.3464 20.6241 20.4853 20.4853C20.6241 20.3464 20.7595 20.2042 20.8914 20.0587C21.0233 19.9132 21.1515 19.7645 21.2761 19.6127C21.4007 19.4609 21.5215 19.3061 21.6385 19.1484C21.7555 18.9906 21.8685 18.8301 21.9776 18.6668C22.0868 18.5036 22.1918 18.3377 22.2928 18.1693C22.3937 18.0008 22.4905 17.8299 22.583 17.6567C22.6756 17.4835 22.7639 17.3082 22.8479 17.1307C22.9318 16.9531 23.0114 16.7737 23.0866 16.5922C23.1617 16.4108 23.2324 16.2276 23.2985 16.0427C23.3647 15.8578 23.4263 15.6713 23.4833 15.4834C23.5403 15.2955 23.5926 15.1063 23.6404 14.9158C23.6881 14.7252 23.7311 14.5337 23.7694 14.3411C23.8077 14.1485 23.8413 13.955 23.8701 13.7608C23.8989 13.5665 23.923 13.3716 23.9422 13.1762C23.9615 12.9807 23.9759 12.785 23.9855 12.5888C23.9952 12.3927 24 12.1964 24 12C24 11.8036 23.9952 11.6073 23.9855 11.4112C23.9759 11.215 23.9615 11.0193 23.9422 10.8238C23.923 10.6283 23.8989 10.4335 23.8701 10.2392C23.8413 10.045 23.8077 9.85152 23.7694 9.65892C23.7311 9.46632 23.6881 9.27476 23.6404 9.08424C23.5926 8.89372 23.5403 8.7045 23.4833 8.51658C23.4263 8.32866 23.3647 8.14224 23.2985 7.95732C23.2324 7.7724 23.1617 7.58922 23.0866 7.40778C23.0114 7.22634 22.9318 7.04686 22.8479 6.86934C22.7639 6.69182 22.6756 6.51646 22.583 6.34326C22.4905 6.17006 22.3937 5.99923 22.2928 5.83076C22.1918 5.66232 22.0868 5.49645 21.9776 5.33315C21.8685 5.16986 21.7555 5.00935 21.6385 4.85161C21.5215 4.69387 21.4007 4.53909 21.2761 4.38728C21.1515 4.23547 21.0233 4.08681 20.8914 3.94129C20.7595 3.79578 20.6241 3.65358 20.4853 3.51472C20.3464 3.37585 20.2042 3.24047 20.0587 3.10859C19.9132 2.9767 19.7645 2.84846 19.6127 2.72387C19.4609 2.59929 19.3061 2.4785 19.1484 2.36151C18.9906 2.24452 18.8301 2.13147 18.6668 2.02237C18.5036 1.91326 18.3377 1.80822 18.1693 1.70726C18.0008 1.60629 17.8299 1.50952 17.6567 1.41694C17.4835 1.32437 17.3082 1.23609 17.1307 1.15213C16.9531 1.06816 16.7737 0.988602 16.5922 0.913446C16.4108 0.83829 16.2276 0.767632 16.0427 0.701472C15.8578 0.635308 15.6713 0.573723 15.4834 0.516716C15.2955 0.459707 15.1063 0.407343 14.9158 0.359625C14.7252 0.311906 14.5337 0.26889 14.3411 0.230576C14.1485 0.192263 13.955 0.158698 13.7608 0.129882C13.5665 0.101066 13.3716 0.0770327 13.1762 0.0577833C12.9807 0.0385338 12.785 0.0240909 12.5888 0.0144545C12.3927 0.00481818 12.1964 0 12 0C11.8036 0 11.6073 0.00481818 11.4112 0.0144545C11.215 0.0240909 11.0193 0.0385338 10.8238 0.0577833C10.6283 0.0770327 10.4335 0.101066 10.2392 0.129882C10.045 0.158698 9.85152 0.192263 9.65892 0.230576C9.46632 0.26889 9.27476 0.311906 9.08424 0.359625C8.89372 0.407343 8.7045 0.459707 8.51658 0.516716C8.32866 0.573723 8.14224 0.635308 7.95732 0.701472C7.7724 0.767632 7.58922 0.83829 7.40778 0.913446C7.22634 0.988602 7.04686 1.06816 6.86934 1.15213C6.69182 1.23609 6.51646 1.32437 6.34326 1.41694C6.17006 1.50952 5.99923 1.60629 5.83076 1.70726C5.66232 1.80822 5.49645 1.91326 5.33315 2.02237C5.16986 2.13147 5.00935 2.24452 4.85161 2.36151C4.69387 2.4785 4.53909 2.59929 4.38728 2.72387C4.23547 2.84846 4.08681 2.9767 3.94129 3.10859C3.79578 3.24047 3.65358 3.37585 3.51472 3.51472C3.37585 3.65358 3.24047 3.79578 3.10859 3.94129C2.9767 4.08681 2.84846 4.23547 2.72387 4.38728C2.59929 4.53909 2.4785 4.69387 2.36151 4.85161C2.24452 5.00935 2.13147 5.16986 2.02237 5.33315C1.91326 5.49645 1.80822 5.66232 1.70726 5.83076C1.60629 5.99923 1.50952 6.17006 1.41694 6.34326C1.32437 6.51646 1.23609 6.69182 1.15213 6.86934C1.06816 7.04686 0.988602 7.22634 0.913446 7.40778C0.83829 7.58922 0.767632 7.7724 0.701472 7.95732C0.635308 8.14224 0.573723 8.32866 0.516716 8.51658C0.459707 8.7045 0.407343 8.89372 0.359625 9.08424C0.311906 9.27476 0.26889 9.46632 0.230576 9.65892C0.192263 9.85152 0.158698 10.045 0.129882 10.2392C0.101066 10.4335 0.0770327 10.6283 0.0577833 10.8238C0.0385338 11.0193 0.0240909 11.215 0.0144545 11.4112C0.00481818 11.6073 0 11.8036 0 12C0 12.1964 0.00481818 12.3927 0.0144545 12.5888C0.0240909 12.785 0.0385338 12.9807 0.0577833 13.1762C0.0770327 13.3716 0.101066 13.5665 0.129882 13.7608C0.158698 13.955 0.192263 14.1485 0.230576 14.3411C0.26889 14.5337 0.311906 14.7252 0.359625 14.9158C0.407343 15.1063 0.459707 15.2955 0.516716 15.4834C0.573723 15.6713 0.635308 15.8578 0.701472 16.0427C0.767632 16.2276 0.83829 16.4108 0.913446 16.5922C0.988602 16.7737 1.06816 16.9531 1.15213 17.1307C1.23609 17.3082 1.32437 17.4835 1.41694 17.6567C1.50952 17.8299 1.60629 18.0008 1.70726 18.1693C1.80822 18.3377 1.91326 18.5036 2.02237 18.6668C2.13147 18.8301 2.24452 18.9906 2.36151 19.1484C2.4785 19.3061 2.59929 19.4609 2.72387 19.6127C2.84846 19.7645 2.9767 19.9132 3.10859 20.0587C3.24047 20.2042 3.37585 20.3464 3.51472 20.4853C3.65358 20.6241 3.79578 20.7595 3.94129 20.8914C4.08681 21.0233 4.23547 21.1515 4.38728 21.2761C4.53909 21.4007 4.69387 21.5215 4.85161 21.6385C5.00935 21.7555 5.16986 21.8685 5.33315 21.9776C5.49645 22.0868 5.66232 22.1918 5.83076 22.2928C5.99923 22.3937 6.17006 22.4905 6.34326 22.583C6.51646 22.6756 6.69182 22.7639 6.86934 22.8479C7.04686 22.9318 7.22634 23.0114 7.40778 23.0866C7.58922 23.1617 7.7724 23.2324 7.95732 23.2985C8.14224 23.3647 8.32866 23.4263 8.51658 23.4833C8.7045 23.5403 8.89372 23.5926 9.08424 23.6404C9.27476 23.6881 9.46632 23.7311 9.65892 23.7694C9.85152 23.8077 10.045 23.8413 10.2392 23.8701C10.4335 23.8989 10.6283 23.923 10.8238 23.9422C11.0193 23.9615 11.215 23.9759 11.4112 23.9855C11.6073 23.9952 11.8036 24 12 24ZM12 22.2C12.1669 22.2 12.3338 22.1959 12.5005 22.1877C12.6672 22.1795 12.8337 22.1672 12.9998 22.1509C13.1659 22.1345 13.3315 22.1141 13.4966 22.0896C13.6618 22.0651 13.8262 22.0366 13.9899 22.004C14.1536 21.9714 14.3165 21.9349 14.4784 21.8943C14.6403 21.8537 14.8012 21.8092 14.9609 21.7608C15.1206 21.7123 15.2791 21.66 15.4363 21.6037C15.5935 21.5475 15.7492 21.4875 15.9034 21.4235C16.0576 21.3597 16.2102 21.292 16.361 21.2207C16.512 21.1493 16.661 21.0743 16.8082 20.9956C16.9555 20.9169 17.1007 20.8346 17.2438 20.7488C17.387 20.663 17.528 20.5737 17.6668 20.481C17.8056 20.3882 17.9421 20.2921 18.0761 20.1927C18.2102 20.0933 18.3418 19.9906 18.4708 19.8847C18.5999 19.7788 18.7262 19.6698 18.8499 19.5577C18.9736 19.4456 19.0944 19.3305 19.2125 19.2125C19.3305 19.0944 19.4456 18.9736 19.5577 18.8499C19.6698 18.7262 19.7788 18.5999 19.8847 18.4708C19.9906 18.3418 20.0933 18.2102 20.1927 18.0761C20.2921 17.9421 20.3882 17.8056 20.481 17.6668C20.5737 17.528 20.663 17.387 20.7488 17.2438C20.8346 17.1007 20.9169 16.9555 20.9956 16.8082C21.0743 16.661 21.1493 16.512 21.2207 16.361C21.292 16.2102 21.3597 16.0576 21.4235 15.9034C21.4875 15.7492 21.5475 15.5935 21.6037 15.4363C21.66 15.2791 21.7123 15.1206 21.7608 14.9609C21.8092 14.8012 21.8537 14.6403 21.8943 14.4784C21.9349 14.3165 21.9714 14.1536 22.004 13.9899C22.0366 13.8262 22.0651 13.6618 22.0896 13.4966C22.1141 13.3315 22.1345 13.1659 22.1509 12.9998C22.1672 12.8337 22.1795 12.6672 22.1877 12.5005C22.1959 12.3338 22.2 12.1669 22.2 12C22.2 11.8331 22.1959 11.6663 22.1877 11.4995C22.1795 11.3328 22.1672 11.1663 22.1509 11.0002C22.1345 10.8341 22.1141 10.6685 22.0896 10.5034C22.0651 10.3382 22.0366 10.1738 22.004 10.0101C21.9714 9.84638 21.9349 9.68354 21.8943 9.52158C21.8537 9.35966 21.8092 9.19884 21.7608 9.03912C21.7123 8.87936 21.66 8.7209 21.6037 8.56374C21.5475 8.40654 21.4875 8.25084 21.4235 8.09664C21.3597 7.9424 21.292 7.78984 21.2207 7.63896C21.1493 7.48804 21.0743 7.33898 20.9956 7.19178C20.9169 7.04454 20.8346 6.89934 20.7488 6.75618C20.663 6.61298 20.5737 6.47198 20.481 6.33318C20.3882 6.19438 20.2921 6.05794 20.1927 5.92387C20.0933 5.78979 19.9906 5.65823 19.8847 5.52919C19.7788 5.40015 19.6698 5.27379 19.5577 5.1501C19.4456 5.02641 19.3305 4.90555 19.2125 4.78751C19.0944 4.66947 18.9736 4.5544 18.8499 4.4423C18.7262 4.33019 18.5999 4.22119 18.4708 4.11529C18.3418 4.00939 18.2102 3.90672 18.0761 3.80728C17.9421 3.70784 17.8056 3.61175 17.6668 3.51901C17.528 3.42627 17.387 3.33699 17.2438 3.25117C17.1007 3.16535 16.9555 3.08309 16.8082 3.0044C16.661 2.92571 16.512 2.85068 16.361 2.77931C16.2102 2.70794 16.0576 2.64031 15.9034 2.57643C15.7492 2.51255 15.5935 2.45249 15.4363 2.39625C15.2791 2.34001 15.1206 2.28767 14.9609 2.23921C14.8012 2.19075 14.6403 2.14624 14.4784 2.10568C14.3165 2.06512 14.1536 2.02856 13.9899 1.99599C13.8262 1.96342 13.6618 1.93489 13.4966 1.9104C13.3315 1.8859 13.1659 1.86548 12.9998 1.84912C12.8337 1.83275 12.6672 1.82048 12.5005 1.81229C12.3338 1.8041 12.1669 1.8 12 1.8C11.8331 1.8 11.6663 1.8041 11.4995 1.81229C11.3328 1.82048 11.1663 1.83275 11.0002 1.84912C10.8341 1.86548 10.6685 1.88591 10.5034 1.9104C10.3382 1.93489 10.1738 1.96342 10.0101 1.99599C9.84638 2.02856 9.68354 2.06512 9.52158 2.10568C9.35966 2.14624 9.19884 2.19075 9.03912 2.23921C8.87936 2.28767 8.7209 2.34001 8.56374 2.39625C8.40654 2.45249 8.25084 2.51255 8.09664 2.57643C7.9424 2.64031 7.78984 2.70794 7.63896 2.77931C7.48804 2.85068 7.33898 2.92571 7.19178 3.0044C7.04454 3.08309 6.89934 3.16535 6.75618 3.25117C6.61298 3.33699 6.47198 3.42627 6.33318 3.51901C6.19438 3.61175 6.05794 3.70784 5.92387 3.80728C5.78979 3.90672 5.65823 4.00939 5.52919 4.11529C5.40015 4.22119 5.27379 4.33019 5.1501 4.4423C5.02641 4.5544 4.90555 4.66947 4.78751 4.78751C4.66947 4.90555 4.5544 5.02641 4.4423 5.1501C4.33019 5.27379 4.22119 5.40015 4.11529 5.52919C4.00939 5.65823 3.90672 5.78979 3.80728 5.92387C3.70784 6.05794 3.61175 6.19438 3.51901 6.33318C3.42627 6.47198 3.33699 6.61298 3.25117 6.75618C3.16535 6.89934 3.08309 7.04454 3.0044 7.19178C2.92571 7.33898 2.85068 7.48804 2.77931 7.63896C2.70794 7.78984 2.64031 7.9424 2.57643 8.09664C2.51255 8.25084 2.45249 8.40654 2.39625 8.56374C2.34001 8.7209 2.28767 8.87936 2.23921 9.03912C2.19075 9.19884 2.14624 9.35966 2.10568 9.52158C2.06512 9.68354 2.02856 9.84638 1.99599 10.0101C1.96342 10.1738 1.93489 10.3382 1.9104 10.5034C1.8859 10.6685 1.86548 10.8341 1.84912 11.0002C1.83275 11.1663 1.82048 11.3328 1.81229 11.4995C1.8041 11.6663 1.8 11.8331 1.8 12C1.8 12.1669 1.8041 12.3338 1.81229 12.5005C1.82048 12.6672 1.83275 12.8337 1.84912 12.9998C1.86548 13.1659 1.8859 13.3315 1.9104 13.4966C1.93489 13.6618 1.96342 13.8262 1.99599 13.9899C2.02856 14.1536 2.06512 14.3165 2.10568 14.4784C2.14624 14.6403 2.19075 14.8012 2.23921 14.9609C2.28767 15.1206 2.34001 15.2791 2.39625 15.4363C2.45249 15.5935 2.51255 15.7492 2.57643 15.9034C2.64031 16.0576 2.70794 16.2102 2.77931 16.361C2.85068 16.512 2.92571 16.661 3.0044 16.8082C3.08309 16.9555 3.16535 17.1007 3.25117 17.2438C3.33699 17.387 3.42627 17.528 3.51901 17.6668C3.61175 17.8056 3.70784 17.9421 3.80728 18.0761C3.90672 18.2102 4.00939 18.3418 4.11529 18.4708C4.22119 18.5999 4.33019 18.7262 4.4423 18.8499C4.5544 18.9736 4.66947 19.0944 4.78751 19.2125C4.90555 19.3305 5.02641 19.4456 5.1501 19.5577C5.27379 19.6698 5.40015 19.7788 5.52919 19.8847C5.65823 19.9906 5.78979 20.0933 5.92387 20.1927C6.05794 20.2921 6.19438 20.3882 6.33318 20.481C6.47198 20.5737 6.61298 20.663 6.75618 20.7488C6.89934 20.8346 7.04454 20.9169 7.19178 20.9956C7.33898 21.0743 7.48804 21.1493 7.63896 21.2207C7.78984 21.292 7.9424 21.3597 8.09664 21.4235C8.25084 21.4875 8.40654 21.5475 8.56374 21.6037C8.7209 21.66 8.87936 21.7123 9.03912 21.7608C9.19884 21.8092 9.35966 21.8537 9.52158 21.8943C9.68354 21.9349 9.84638 21.9714 10.0101 22.004C10.1738 22.0366 10.3382 22.0651 10.5034 22.0896C10.6685 22.1141 10.8341 22.1345 11.0002 22.1509C11.1663 22.1672 11.3328 22.1795 11.4995 22.1877C11.6663 22.1959 11.8331 22.2 12 22.2Z" fill="#18181B"/>
<path d="M9.64636 7.29114L7.28929 9.64821C6.11772 10.8198 6.11772 12.7193 7.28929 13.8909L9.87796 16.4795C11.0495 17.6511 12.949 17.6511 14.1206 16.4795L16.4777 14.1225C17.6492 12.9509 17.6492 11.0514 16.4777 9.87982L13.889 7.29114C12.7174 6.11957 10.8179 6.11957 9.64636 7.29114Z" fill="#18181B"/>
</g>
<defs>
<clipPath id="clip0_11040_29843">
<rect width="24" height="24" fill="white"/>
</clipPath>
</defs>
</svg>
