<svg width="32" height="42" viewBox="0 0 32 42" fill="none" xmlns="http://www.w3.org/2000/svg">
<path d="M10.3432 21.6568C11.7908 23.1046 13.7908 24 16 24C20.4183 24 24 20.4183 24 16C24 11.5817 20.4183 8 16 8C13.7908 8 11.7908 8.89543 10.3432 10.3432C9.60627 11.08 8 12.8889 8 12.8889M8 12.8889V8.88889M8 12.8889H12" stroke="white" stroke-width="1.5" stroke-linecap="round" stroke-linejoin="round"/>
<path d="M8.89258 31.8906H9.83008V36.7002C9.83008 37.234 9.71126 37.6784 9.47363 38.0332C9.236 38.388 8.92025 38.6549 8.52637 38.834C8.13574 39.0098 7.71094 39.0977 7.25195 39.0977C6.77018 39.0977 6.33398 39.0098 5.94336 38.834C5.55599 38.6549 5.24837 38.388 5.02051 38.0332C4.7959 37.6784 4.68359 37.234 4.68359 36.7002V31.8906H5.61621V36.7002C5.61621 37.0713 5.68457 37.3773 5.82129 37.6182C5.95801 37.859 6.14844 38.0381 6.39258 38.1553C6.63997 38.2725 6.92643 38.3311 7.25195 38.3311C7.58073 38.3311 7.86719 38.2725 8.11133 38.1553C8.35872 38.0381 8.55078 37.859 8.6875 37.6182C8.82422 37.3773 8.89258 37.0713 8.89258 36.7002V31.8906ZM12.0762 34.8447V39H11.1729V33.7168H12.0273L12.0762 34.8447ZM11.8613 36.1582L11.4854 36.1436C11.4886 35.7822 11.5423 35.4486 11.6465 35.1426C11.7507 34.8333 11.8971 34.5648 12.0859 34.3369C12.2747 34.109 12.4993 33.9333 12.7598 33.8096C13.0234 33.6826 13.3148 33.6191 13.6338 33.6191C13.8942 33.6191 14.1286 33.6549 14.3369 33.7266C14.5452 33.7949 14.7227 33.9056 14.8691 34.0586C15.0189 34.2116 15.1328 34.4102 15.2109 34.6543C15.2891 34.8952 15.3281 35.1898 15.3281 35.5381V39H14.4199V35.5283C14.4199 35.2516 14.3792 35.0303 14.2979 34.8643C14.2165 34.695 14.0977 34.5729 13.9414 34.498C13.7852 34.4199 13.5931 34.3809 13.3652 34.3809C13.1406 34.3809 12.9355 34.4281 12.75 34.5225C12.5677 34.6169 12.4098 34.7471 12.2764 34.9131C12.1462 35.0791 12.0436 35.2695 11.9688 35.4844C11.8971 35.696 11.8613 35.9206 11.8613 36.1582ZM20.0303 37.9746V31.5H20.9385V39H20.1084L20.0303 37.9746ZM16.4756 36.417V36.3145C16.4756 35.9108 16.5244 35.5446 16.6221 35.2158C16.723 34.8838 16.8646 34.599 17.0469 34.3613C17.2324 34.1237 17.4521 33.9414 17.7061 33.8145C17.9632 33.6842 18.2497 33.6191 18.5654 33.6191C18.8975 33.6191 19.1872 33.6777 19.4346 33.7949C19.6852 33.9089 19.8968 34.0765 20.0693 34.2979C20.2451 34.516 20.3835 34.7796 20.4844 35.0889C20.5853 35.3981 20.6553 35.748 20.6943 36.1387V36.5879C20.6585 36.9753 20.5885 37.3236 20.4844 37.6328C20.3835 37.9421 20.2451 38.2057 20.0693 38.4238C19.8968 38.6419 19.6852 38.8096 19.4346 38.9268C19.1839 39.0407 18.891 39.0977 18.5557 39.0977C18.2464 39.0977 17.9632 39.0309 17.7061 38.8975C17.4521 38.764 17.2324 38.5768 17.0469 38.3359C16.8646 38.0951 16.723 37.8118 16.6221 37.4863C16.5244 37.1576 16.4756 36.8011 16.4756 36.417ZM17.3838 36.3145V36.417C17.3838 36.6807 17.4098 36.9281 17.4619 37.1592C17.5173 37.3903 17.6019 37.5938 17.7158 37.7695C17.8298 37.9453 17.9746 38.0837 18.1504 38.1846C18.3262 38.2822 18.5361 38.3311 18.7803 38.3311C19.0798 38.3311 19.3255 38.2676 19.5176 38.1406C19.7129 38.0137 19.8691 37.846 19.9863 37.6377C20.1035 37.4294 20.1947 37.2031 20.2598 36.959V35.7822C20.2207 35.6032 20.1637 35.4307 20.0889 35.2646C20.0173 35.0954 19.9229 34.9456 19.8057 34.8154C19.6917 34.682 19.5501 34.5762 19.3809 34.498C19.2148 34.4199 19.0179 34.3809 18.79 34.3809C18.5426 34.3809 18.3294 34.4329 18.1504 34.5371C17.9746 34.638 17.8298 34.778 17.7158 34.957C17.6019 35.1328 17.5173 35.3379 17.4619 35.5723C17.4098 35.8034 17.3838 36.0508 17.3838 36.3145ZM22.1055 36.417V36.3047C22.1055 35.9238 22.1608 35.5706 22.2715 35.2451C22.3822 34.9163 22.5417 34.6315 22.75 34.3906C22.9583 34.1465 23.2106 33.9577 23.5068 33.8242C23.8031 33.6875 24.1351 33.6191 24.5029 33.6191C24.874 33.6191 25.2077 33.6875 25.5039 33.8242C25.8034 33.9577 26.0573 34.1465 26.2656 34.3906C26.4772 34.6315 26.6383 34.9163 26.749 35.2451C26.8597 35.5706 26.915 35.9238 26.915 36.3047V36.417C26.915 36.7979 26.8597 37.151 26.749 37.4766C26.6383 37.8021 26.4772 38.0869 26.2656 38.3311C26.0573 38.5719 25.805 38.7607 25.5088 38.8975C25.2158 39.0309 24.8838 39.0977 24.5127 39.0977C24.1416 39.0977 23.8079 39.0309 23.5117 38.8975C23.2155 38.7607 22.9616 38.5719 22.75 38.3311C22.5417 38.0869 22.3822 37.8021 22.2715 37.4766C22.1608 37.151 22.1055 36.7979 22.1055 36.417ZM23.0088 36.3047V36.417C23.0088 36.6807 23.0397 36.9297 23.1016 37.1641C23.1634 37.3952 23.2562 37.6003 23.3799 37.7793C23.5068 37.9583 23.6647 38.0999 23.8535 38.2041C24.0423 38.305 24.262 38.3555 24.5127 38.3555C24.7601 38.3555 24.9766 38.305 25.1621 38.2041C25.3509 38.0999 25.5072 37.9583 25.6309 37.7793C25.7546 37.6003 25.8473 37.3952 25.9092 37.1641C25.9743 36.9297 26.0068 36.6807 26.0068 36.417V36.3047C26.0068 36.0443 25.9743 35.7985 25.9092 35.5674C25.8473 35.333 25.7529 35.1263 25.626 34.9473C25.5023 34.765 25.346 34.6217 25.1572 34.5176C24.9717 34.4134 24.7536 34.3613 24.5029 34.3613C24.2555 34.3613 24.0374 34.4134 23.8486 34.5176C23.6631 34.6217 23.5068 34.765 23.3799 34.9473C23.2562 35.1263 23.1634 35.333 23.1016 35.5674C23.0397 35.7985 23.0088 36.0443 23.0088 36.3047Z" fill="white"/>
</svg>