<svg t="1747814286009" class="icon" viewBox="0 0 1024 1024" version="1.1" xmlns="http://www.w3.org/2000/svg" p-id="3159" width="200" height="200"><path d="M266.6 888.3l0-53.8c0-4.2-3.5-7.7-7.7-7.7l-61.8 0L197.1 197.1 826.9 197.1l0 629.8-61.8 0c-4.2 0-7.7 3.5-7.7 7.7l0 53.8c0 4.2 3.4 7.7 7.7 7.7L865.3 896.1c17 0 30.7-13.7 30.7-30.69999999L896 158.7c0-17-13.7-30.7-30.7-30.7l-706.6 0c-17 0-30.7 13.7-30.7 30.7l0 706.6c0 17 13.7 30.7 30.7 30.7L258.9 896c4.3 0 7.7-3.5 7.7-7.7z" p-id="3160"></path><path d="M548 902L548 588l76 0c6.69999999 0 10.5-7.8 6.3-13l-112-141.9c-3.2-4.1-9.4-4.1-12.6 0l-112 141.9c-4.2 5.3-0.4 13 6.3 13l76 0 0 314c0 4.4 3.6 8 8 8l56 0c4.4 0 8-3.6 8-8z" p-id="3161"></path></svg>