<svg width="59" height="50" viewBox="0 0 59 50" fill="none" xmlns="http://www.w3.org/2000/svg">
<mask id="path-1-outside-1_10438_27969" maskUnits="userSpaceOnUse" x="1.5" y="4" width="27" height="40" fill="black">
<rect fill="white" x="1.5" y="4" width="27" height="40"/>
<path d="M26.8672 21.1016V27.2539C26.8672 29.9232 26.5824 32.2262 26.0127 34.1631C25.443 36.0837 24.6211 37.6624 23.5469 38.8994C22.4889 40.1201 21.2275 41.0234 19.7627 41.6094C18.2979 42.1953 16.6702 42.4883 14.8799 42.4883C13.4476 42.4883 12.113 42.3092 10.876 41.9512C9.639 41.5768 8.52409 40.999 7.53125 40.2178C6.55469 39.4365 5.70833 38.4518 4.99219 37.2637C4.29232 36.0592 3.75521 34.627 3.38086 32.9668C3.00651 31.3066 2.81934 29.4023 2.81934 27.2539V21.1016C2.81934 18.4323 3.10417 16.1455 3.67383 14.2412C4.25977 12.3206 5.08171 10.75 6.13965 9.5293C7.21387 8.30859 8.4834 7.41341 9.94824 6.84375C11.4131 6.25781 13.0407 5.96484 14.8311 5.96484C16.2633 5.96484 17.5898 6.15202 18.8105 6.52637C20.0475 6.88444 21.1624 7.44596 22.1553 8.21094C23.1481 8.97591 23.9945 9.96061 24.6943 11.165C25.3942 12.3532 25.9313 13.7773 26.3057 15.4375C26.68 17.0814 26.8672 18.9694 26.8672 21.1016ZM19.8115 28.1816V20.1494C19.8115 18.8636 19.7383 17.7406 19.5918 16.7803C19.4616 15.82 19.2581 15.0062 18.9814 14.3389C18.7048 13.6553 18.363 13.1019 17.9561 12.6787C17.5492 12.2555 17.0853 11.9463 16.5645 11.751C16.0436 11.5557 15.4658 11.458 14.8311 11.458C14.0335 11.458 13.3255 11.6126 12.707 11.9219C12.1048 12.2311 11.5921 12.7275 11.1689 13.4111C10.7458 14.0785 10.4202 14.9736 10.1924 16.0967C9.98079 17.2035 9.875 18.5544 9.875 20.1494V28.1816C9.875 29.4674 9.9401 30.5986 10.0703 31.5752C10.2168 32.5518 10.4284 33.39 10.7051 34.0898C10.998 34.7734 11.3398 35.335 11.7305 35.7744C12.1374 36.1976 12.6012 36.5068 13.1221 36.7021C13.6592 36.8975 14.2451 36.9951 14.8799 36.9951C15.6611 36.9951 16.3529 36.8405 16.9551 36.5312C17.5736 36.2057 18.0944 35.7012 18.5176 35.0176C18.957 34.3177 19.2826 33.4062 19.4941 32.2832C19.7057 31.1602 19.8115 29.793 19.8115 28.1816Z"/>
</mask>
<path d="M26.0127 34.1631L26.9714 34.4475L26.9721 34.4453L26.0127 34.1631ZM23.5469 38.8994L22.7918 38.2437L22.7912 38.2445L23.5469 38.8994ZM10.876 41.9512L10.5863 42.9084L10.5979 42.9117L10.876 41.9512ZM7.53125 40.2178L6.90653 40.9987L6.91286 41.0036L7.53125 40.2178ZM4.99219 37.2637L4.12756 37.7661L4.13159 37.773L4.13573 37.7799L4.99219 37.2637ZM3.38086 32.9668L2.40535 33.1868L3.38086 32.9668ZM3.67383 14.2412L2.71734 13.9494L2.71578 13.9546L3.67383 14.2412ZM6.13965 9.5293L5.38891 8.86865L5.38396 8.87437L6.13965 9.5293ZM9.94824 6.84375L10.3107 7.7758L10.3196 7.77223L9.94824 6.84375ZM18.8105 6.52637L18.5174 7.48242L18.5249 7.48474L18.5325 7.48693L18.8105 6.52637ZM24.6943 11.165L23.8297 11.6675L23.8327 11.6726L24.6943 11.165ZM26.3057 15.4375L25.3302 15.6575L25.3306 15.6595L26.3057 15.4375ZM19.5918 16.7803L18.6009 16.9146L18.602 16.9229L18.6032 16.9311L19.5918 16.7803ZM18.9814 14.3389L18.0545 14.7141L18.0577 14.7219L18.9814 14.3389ZM16.5645 11.751L16.2133 12.6873L16.5645 11.751ZM12.707 11.9219L12.2598 11.0274L12.2502 11.0323L12.707 11.9219ZM11.1689 13.4111L12.0135 13.9467L12.0192 13.9375L11.1689 13.4111ZM10.1924 16.0967L9.21229 15.8978L9.21017 15.9089L10.1924 16.0967ZM10.0703 31.5752L9.07908 31.7074L9.08016 31.7155L9.08138 31.7235L10.0703 31.5752ZM10.7051 34.0898L9.77512 34.4575L9.78034 34.4707L9.78593 34.4838L10.7051 34.0898ZM11.7305 35.7744L10.9831 36.4388L10.9961 36.4534L11.0096 36.4675L11.7305 35.7744ZM13.1221 36.7021L12.7709 37.6385L12.7803 37.6419L13.1221 36.7021ZM16.9551 36.5312L17.4119 37.4209L17.4208 37.4162L16.9551 36.5312ZM18.5176 35.0176L17.6707 34.4858L17.6673 34.4912L18.5176 35.0176ZM25.8672 21.1016V27.2539H27.8672V21.1016H25.8672ZM25.8672 27.2539C25.8672 29.8564 25.589 32.0597 25.0533 33.8809L26.9721 34.4453C27.5757 32.3927 27.8672 29.9899 27.8672 27.2539H25.8672ZM25.054 33.8787C24.5161 35.6922 23.754 37.1358 22.7918 38.2437L24.3019 39.5551C25.4882 38.1891 26.37 36.4751 26.9714 34.4475L25.054 33.8787ZM22.7912 38.2445C21.8351 39.3476 20.7044 40.1556 19.3913 40.6809L20.1341 42.5379C21.7506 41.8912 23.1428 40.8926 24.3026 39.5543L22.7912 38.2445ZM19.3913 40.6809C18.0594 41.2136 16.5601 41.4883 14.8799 41.4883V43.4883C16.7804 43.4883 18.5363 43.177 20.1341 42.5379L19.3913 40.6809ZM14.8799 41.4883C13.5313 41.4883 12.2912 41.3198 11.154 40.9906L10.5979 42.9117C11.9348 43.2987 13.3639 43.4883 14.8799 43.4883V41.4883ZM11.1656 40.994C10.0452 40.6549 9.04226 40.1343 8.14964 39.4319L6.91286 41.0036C8.00592 41.8638 9.23284 42.4987 10.5863 42.9083L11.1656 40.994ZM8.15594 39.4369C7.28121 38.7371 6.51042 37.8454 5.84864 36.7475L4.13573 37.7799C4.90625 39.0582 5.82817 40.1359 6.90656 40.9986L8.15594 39.4369ZM5.85681 36.7613C5.21792 35.6618 4.71311 34.3289 4.35637 32.7468L2.40535 33.1868C2.79731 34.925 3.36672 36.4567 4.12756 37.7661L5.85681 36.7613ZM4.35637 32.7468C4.00189 31.1748 3.81934 29.3467 3.81934 27.2539H1.81934C1.81934 29.458 2.01113 31.4385 2.40535 33.1868L4.35637 32.7468ZM3.81934 27.2539V21.1016H1.81934V27.2539H3.81934ZM3.81934 21.1016C3.81934 18.4984 4.0977 16.3135 4.63188 14.5278L2.71578 13.9546C2.11063 15.9775 1.81934 18.3662 1.81934 21.1016H3.81934ZM4.63031 14.533C5.18507 12.7146 5.94837 11.2769 6.89534 10.1842L5.38396 8.87437C4.21504 10.2231 3.33446 11.9267 2.71735 13.9494L4.63031 14.533ZM6.89036 10.1899C7.86255 9.08517 9.00039 8.28532 10.3107 7.77575L9.5858 5.91175C7.96641 6.54151 6.56519 7.53202 5.38894 8.86867L6.89036 10.1899ZM10.3196 7.77223C11.6515 7.23948 13.1509 6.96484 14.8311 6.96484V4.96484C12.9305 4.96484 11.1747 5.27615 9.57685 5.91527L10.3196 7.77223ZM14.8311 6.96484C16.1759 6.96484 17.4024 7.14051 18.5174 7.48242L19.1037 5.57031C17.7773 5.16353 16.3508 4.96484 14.8311 4.96484V6.96484ZM18.5325 7.48693C19.6525 7.81115 20.6541 8.31667 21.5449 9.00308L22.7656 7.4188C21.6708 6.57525 20.4425 5.95773 19.0886 5.5658L18.5325 7.48693ZM21.5449 9.00308C22.4242 9.68052 23.1877 10.5627 23.8297 11.6675L25.559 10.6626C24.8012 9.35854 23.8721 8.27131 22.7656 7.4188L21.5449 9.00308ZM23.8327 11.6726C24.4693 12.7533 24.9735 14.0758 25.3302 15.6575L27.2812 15.2175C26.8891 13.4789 26.3191 11.9531 25.556 10.6575L23.8327 11.6726ZM25.3306 15.6595C25.6847 17.2144 25.8672 19.0255 25.8672 21.1016H27.8672C27.8672 18.9133 27.6753 16.9484 27.2807 15.2155L25.3306 15.6595ZM20.8115 28.1816V20.1494H18.8115V28.1816H20.8115ZM20.8115 20.1494C20.8115 18.8282 20.7364 17.6527 20.5804 16.6295L18.6032 16.9311C18.7401 17.8285 18.8115 18.899 18.8115 20.1494H20.8115ZM20.5827 16.6459C20.4446 15.6273 20.2239 14.7246 19.9052 13.9559L18.0577 14.7219C18.2923 15.2878 18.4786 16.0127 18.6009 16.9146L20.5827 16.6459ZM19.9084 13.9637C19.5957 13.1911 19.1916 12.5209 18.6769 11.9856L17.2352 13.3718C17.5343 13.6829 17.8138 14.1195 18.0545 14.7141L19.9084 13.9637ZM18.6769 11.9856C18.1723 11.4609 17.584 11.0653 16.9156 10.8146L16.2133 12.6873C16.5866 12.8273 16.926 13.0502 17.2352 13.3718L18.6769 11.9856ZM16.9156 10.8146C16.2678 10.5717 15.569 10.458 14.8311 10.458V12.458C15.3626 12.458 15.8194 12.5396 16.2133 12.6873L16.9156 10.8146ZM14.8311 10.458C13.9021 10.458 13.037 10.6388 12.2598 11.0274L13.1542 12.8163C13.614 12.5864 14.1649 12.458 14.8311 12.458V10.458ZM12.2502 11.0323C11.4582 11.439 10.8195 12.0758 10.3187 12.8848L12.0192 13.9375C12.3648 13.3792 12.7514 13.0232 13.1638 12.8114L12.2502 11.0323ZM10.3244 12.8756C9.81358 13.6812 9.4545 14.7044 9.21235 15.8978L11.1724 16.2955C11.386 15.2429 11.678 14.4757 12.0135 13.9467L10.3244 12.8756ZM9.21017 15.9089C8.983 17.0972 8.875 18.515 8.875 20.1494H10.875C10.875 18.5937 10.9786 17.3097 11.1746 16.2845L9.21017 15.9089ZM8.875 20.1494V28.1816H10.875V20.1494H8.875ZM8.875 28.1816C8.875 29.4991 8.94159 30.6761 9.07908 31.7074L11.0615 31.443C10.9386 30.5211 10.875 29.4358 10.875 28.1816H8.875ZM9.08138 31.7235C9.23585 32.7533 9.4634 33.669 9.77512 34.4575L11.635 33.7222C11.3934 33.1109 11.1977 32.3502 11.0592 31.4269L9.08138 31.7235ZM9.78593 34.4838C10.1106 35.2412 10.505 35.901 10.9831 36.4388L12.4779 35.1101C12.1747 34.769 11.8855 34.3057 11.6242 33.6959L9.78593 34.4838ZM11.0096 36.4675C11.5142 36.9923 12.1025 37.3878 12.7709 37.6385L13.4732 35.7658C13.0999 35.6258 12.7606 35.4029 12.4513 35.0813L11.0096 36.4675ZM12.7803 37.6419C13.4384 37.8812 14.1414 37.9951 14.8799 37.9951V35.9951C14.3488 35.9951 13.8799 35.9137 13.4638 35.7624L12.7803 37.6419ZM14.8799 37.9951C15.7955 37.9951 16.648 37.8131 17.4119 37.4208L16.4983 35.6417C16.0577 35.8679 15.5268 35.9951 14.8799 35.9951V37.9951ZM17.4208 37.4162C18.2196 36.9957 18.8651 36.356 19.3678 35.5439L17.6673 34.4912C17.3237 35.0463 16.9275 35.4157 16.4893 35.6463L17.4208 37.4162ZM19.3645 35.5493C19.8907 34.7113 20.2503 33.6706 20.4769 32.4684L18.5114 32.0981C18.3148 33.1419 18.0234 33.9241 17.6707 34.4858L19.3645 35.5493ZM20.4769 32.4684C20.7035 31.2651 20.8115 29.832 20.8115 28.1816H18.8115C18.8115 29.7539 18.7079 31.0552 18.5114 32.0981L20.4769 32.4684Z" fill="black" mask="url(#path-1-outside-1_10438_27969)"/>
<path d="M49.0801 6.37988V42H42.0488V14.4854L33.6016 17.1709V11.6289L48.3232 6.37988H49.0801Z" fill="#18181B"/>
</svg>
