<svg width="58" height="50" viewBox="0 0 58 50" fill="none" xmlns="http://www.w3.org/2000/svg">
<mask id="path-1-outside-1_10438_27986" maskUnits="userSpaceOnUse" x="1" y="4" width="27" height="40" fill="black">
<rect fill="white" x="1" y="4" width="27" height="40"/>
<path d="M26.3672 21.1016V27.2539C26.3672 29.9232 26.0824 32.2262 25.5127 34.1631C24.943 36.0837 24.1211 37.6624 23.0469 38.8994C21.9889 40.1201 20.7275 41.0234 19.2627 41.6094C17.7979 42.1953 16.1702 42.4883 14.3799 42.4883C12.9476 42.4883 11.613 42.3092 10.376 41.9512C9.139 41.5768 8.02409 40.999 7.03125 40.2178C6.05469 39.4365 5.20833 38.4518 4.49219 37.2637C3.79232 36.0592 3.25521 34.627 2.88086 32.9668C2.50651 31.3066 2.31934 29.4023 2.31934 27.2539V21.1016C2.31934 18.4323 2.60417 16.1455 3.17383 14.2412C3.75977 12.3206 4.58171 10.75 5.63965 9.5293C6.71387 8.30859 7.9834 7.41341 9.44824 6.84375C10.9131 6.25781 12.5407 5.96484 14.3311 5.96484C15.7633 5.96484 17.0898 6.15202 18.3105 6.52637C19.5475 6.88444 20.6624 7.44596 21.6553 8.21094C22.6481 8.97591 23.4945 9.96061 24.1943 11.165C24.8942 12.3532 25.4313 13.7773 25.8057 15.4375C26.18 17.0814 26.3672 18.9694 26.3672 21.1016ZM19.3115 28.1816V20.1494C19.3115 18.8636 19.2383 17.7406 19.0918 16.7803C18.9616 15.82 18.7581 15.0062 18.4814 14.3389C18.2048 13.6553 17.863 13.1019 17.4561 12.6787C17.0492 12.2555 16.5853 11.9463 16.0645 11.751C15.5436 11.5557 14.9658 11.458 14.3311 11.458C13.5335 11.458 12.8255 11.6126 12.207 11.9219C11.6048 12.2311 11.0921 12.7275 10.6689 13.4111C10.2458 14.0785 9.92025 14.9736 9.69238 16.0967C9.48079 17.2035 9.375 18.5544 9.375 20.1494V28.1816C9.375 29.4674 9.4401 30.5986 9.57031 31.5752C9.7168 32.5518 9.92839 33.39 10.2051 34.0898C10.498 34.7734 10.8398 35.335 11.2305 35.7744C11.6374 36.1976 12.1012 36.5068 12.6221 36.7021C13.1592 36.8975 13.7451 36.9951 14.3799 36.9951C15.1611 36.9951 15.8529 36.8405 16.4551 36.5312C17.0736 36.2057 17.5944 35.7012 18.0176 35.0176C18.457 34.3177 18.7826 33.4062 18.9941 32.2832C19.2057 31.1602 19.3115 29.793 19.3115 28.1816Z"/>
</mask>
<path d="M25.5127 34.1631L26.4714 34.4475L26.4721 34.4453L25.5127 34.1631ZM23.0469 38.8994L22.2918 38.2437L22.2912 38.2445L23.0469 38.8994ZM10.376 41.9512L10.0863 42.9084L10.0979 42.9117L10.376 41.9512ZM7.03125 40.2178L6.40653 40.9987L6.41286 41.0036L7.03125 40.2178ZM4.49219 37.2637L3.62756 37.7661L3.63159 37.773L3.63573 37.7799L4.49219 37.2637ZM2.88086 32.9668L1.90535 33.1868L2.88086 32.9668ZM3.17383 14.2412L2.21734 13.9494L2.21578 13.9546L3.17383 14.2412ZM5.63965 9.5293L4.88891 8.86865L4.88396 8.87437L5.63965 9.5293ZM9.44824 6.84375L9.81071 7.7758L9.81963 7.77223L9.44824 6.84375ZM18.3105 6.52637L18.0174 7.48242L18.0249 7.48474L18.0325 7.48693L18.3105 6.52637ZM24.1943 11.165L23.3297 11.6675L23.3327 11.6726L24.1943 11.165ZM25.8057 15.4375L24.8302 15.6575L24.8306 15.6595L25.8057 15.4375ZM19.0918 16.7803L18.1009 16.9146L18.102 16.9229L18.1032 16.9311L19.0918 16.7803ZM18.4814 14.3389L17.5545 14.7141L17.5577 14.7219L18.4814 14.3389ZM16.0645 11.751L15.7133 12.6873L16.0645 11.751ZM12.207 11.9219L11.7598 11.0274L11.7502 11.0323L12.207 11.9219ZM10.6689 13.4111L11.5135 13.9467L11.5192 13.9375L10.6689 13.4111ZM9.69238 16.0967L8.71229 15.8978L8.71017 15.9089L9.69238 16.0967ZM9.57031 31.5752L8.57908 31.7074L8.58016 31.7155L8.58138 31.7235L9.57031 31.5752ZM10.2051 34.0898L9.27512 34.4575L9.28034 34.4707L9.28593 34.4838L10.2051 34.0898ZM11.2305 35.7744L10.4831 36.4388L10.4961 36.4534L10.5096 36.4675L11.2305 35.7744ZM12.6221 36.7021L12.2709 37.6385L12.2803 37.6419L12.6221 36.7021ZM16.4551 36.5312L16.9119 37.4209L16.9208 37.4162L16.4551 36.5312ZM18.0176 35.0176L17.1707 34.4858L17.1673 34.4912L18.0176 35.0176ZM25.3672 21.1016V27.2539H27.3672V21.1016H25.3672ZM25.3672 27.2539C25.3672 29.8564 25.089 32.0597 24.5533 33.8809L26.4721 34.4453C27.0757 32.3927 27.3672 29.9899 27.3672 27.2539H25.3672ZM24.554 33.8787C24.0161 35.6922 23.254 37.1358 22.2918 38.2437L23.8019 39.5551C24.9882 38.1891 25.87 36.4751 26.4714 34.4475L24.554 33.8787ZM22.2912 38.2445C21.3351 39.3476 20.2044 40.1556 18.8913 40.6809L19.6341 42.5379C21.2506 41.8912 22.6428 40.8926 23.8026 39.5543L22.2912 38.2445ZM18.8913 40.6809C17.5594 41.2136 16.0601 41.4883 14.3799 41.4883V43.4883C16.2804 43.4883 18.0363 43.177 19.6341 42.5379L18.8913 40.6809ZM14.3799 41.4883C13.0313 41.4883 11.7912 41.3198 10.654 40.9906L10.0979 42.9117C11.4348 43.2987 12.8639 43.4883 14.3799 43.4883V41.4883ZM10.6656 40.994C9.54515 40.6549 8.54226 40.1343 7.64964 39.4319L6.41286 41.0036C7.50592 41.8638 8.73284 42.4987 10.0863 42.9083L10.6656 40.994ZM7.65594 39.4369C6.78121 38.7371 6.01042 37.8454 5.34864 36.7475L3.63573 37.7799C4.40625 39.0582 5.32817 40.1359 6.40656 40.9986L7.65594 39.4369ZM5.35681 36.7613C4.71792 35.6618 4.21311 34.3289 3.85637 32.7468L1.90535 33.1868C2.29731 34.925 2.86672 36.4567 3.62756 37.7661L5.35681 36.7613ZM3.85637 32.7468C3.50189 31.1748 3.31934 29.3467 3.31934 27.2539H1.31934C1.31934 29.458 1.51113 31.4385 1.90535 33.1868L3.85637 32.7468ZM3.31934 27.2539V21.1016H1.31934V27.2539H3.31934ZM3.31934 21.1016C3.31934 18.4984 3.5977 16.3135 4.13188 14.5278L2.21578 13.9546C1.61063 15.9775 1.31934 18.3662 1.31934 21.1016H3.31934ZM4.13031 14.533C4.68507 12.7146 5.44837 11.2769 6.39534 10.1842L4.88396 8.87437C3.71504 10.2231 2.83446 11.9267 2.21735 13.9494L4.13031 14.533ZM6.39036 10.1899C7.36255 9.08517 8.50039 8.28532 9.81069 7.77575L9.0858 5.91175C7.46641 6.54151 6.06519 7.53202 4.88894 8.86867L6.39036 10.1899ZM9.81963 7.77223C11.1515 7.23948 12.6509 6.96484 14.3311 6.96484V4.96484C12.4305 4.96484 10.6747 5.27615 9.07685 5.91527L9.81963 7.77223ZM14.3311 6.96484C15.6759 6.96484 16.9024 7.14051 18.0174 7.48242L18.6037 5.57031C17.2773 5.16353 15.8508 4.96484 14.3311 4.96484V6.96484ZM18.0325 7.48693C19.1525 7.81115 20.1541 8.31667 21.0449 9.00308L22.2656 7.4188C21.1708 6.57525 19.9425 5.95773 18.5886 5.5658L18.0325 7.48693ZM21.0449 9.00308C21.9242 9.68052 22.6877 10.5627 23.3297 11.6675L25.059 10.6626C24.3012 9.35854 23.3721 8.27131 22.2656 7.4188L21.0449 9.00308ZM23.3327 11.6726C23.9693 12.7533 24.4735 14.0758 24.8302 15.6575L26.7812 15.2175C26.3891 13.4789 25.8191 11.9531 25.056 10.6575L23.3327 11.6726ZM24.8306 15.6595C25.1847 17.2144 25.3672 19.0255 25.3672 21.1016H27.3672C27.3672 18.9133 27.1753 16.9484 26.7807 15.2155L24.8306 15.6595ZM20.3115 28.1816V20.1494H18.3115V28.1816H20.3115ZM20.3115 20.1494C20.3115 18.8282 20.2364 17.6527 20.0804 16.6295L18.1032 16.9311C18.2401 17.8285 18.3115 18.899 18.3115 20.1494H20.3115ZM20.0827 16.6459C19.9446 15.6273 19.7239 14.7246 19.4052 13.9559L17.5577 14.7219C17.7923 15.2878 17.9786 16.0127 18.1009 16.9146L20.0827 16.6459ZM19.4084 13.9637C19.0957 13.1911 18.6916 12.5209 18.1769 11.9856L16.7352 13.3718C17.0343 13.6829 17.3138 14.1195 17.5545 14.7141L19.4084 13.9637ZM18.1769 11.9856C17.6723 11.4609 17.084 11.0653 16.4156 10.8146L15.7133 12.6873C16.0866 12.8273 16.426 13.0502 16.7352 13.3718L18.1769 11.9856ZM16.4156 10.8146C15.7678 10.5717 15.069 10.458 14.3311 10.458V12.458C14.8626 12.458 15.3194 12.5396 15.7133 12.6873L16.4156 10.8146ZM14.3311 10.458C13.4021 10.458 12.537 10.6388 11.7598 11.0274L12.6542 12.8163C13.114 12.5864 13.6649 12.458 14.3311 12.458V10.458ZM11.7502 11.0323C10.9582 11.439 10.3195 12.0758 9.81868 12.8848L11.5192 13.9375C11.8648 13.3792 12.2514 13.0232 12.6638 12.8114L11.7502 11.0323ZM9.82444 12.8756C9.31358 13.6812 8.9545 14.7044 8.71235 15.8978L10.6724 16.2955C10.886 15.2429 11.178 14.4757 11.5135 13.9467L9.82444 12.8756ZM8.71017 15.9089C8.483 17.0972 8.375 18.515 8.375 20.1494H10.375C10.375 18.5937 10.4786 17.3097 10.6746 16.2845L8.71017 15.9089ZM8.375 20.1494V28.1816H10.375V20.1494H8.375ZM8.375 28.1816C8.375 29.4991 8.44159 30.6761 8.57908 31.7074L10.5615 31.443C10.4386 30.5211 10.375 29.4358 10.375 28.1816H8.375ZM8.58138 31.7235C8.73585 32.7533 8.9634 33.669 9.27512 34.4575L11.135 33.7222C10.8934 33.1109 10.6977 32.3502 10.5592 31.4269L8.58138 31.7235ZM9.28593 34.4838C9.61055 35.2412 10.005 35.901 10.4831 36.4388L11.9779 35.1101C11.6747 34.769 11.3855 34.3057 11.1242 33.6959L9.28593 34.4838ZM10.5096 36.4675C11.0142 36.9923 11.6025 37.3878 12.2709 37.6385L12.9732 35.7658C12.5999 35.6258 12.2606 35.4029 11.9513 35.0813L10.5096 36.4675ZM12.2803 37.6419C12.9384 37.8812 13.6414 37.9951 14.3799 37.9951V35.9951C13.8488 35.9951 13.3799 35.9137 12.9638 35.7624L12.2803 37.6419ZM14.3799 37.9951C15.2955 37.9951 16.148 37.8131 16.9119 37.4208L15.9983 35.6417C15.5577 35.8679 15.0268 35.9951 14.3799 35.9951V37.9951ZM16.9208 37.4162C17.7196 36.9957 18.3651 36.356 18.8678 35.5439L17.1673 34.4912C16.8237 35.0463 16.4275 35.4157 15.9893 35.6463L16.9208 37.4162ZM18.8645 35.5493C19.3907 34.7113 19.7503 33.6706 19.9769 32.4684L18.0114 32.0981C17.8148 33.1419 17.5234 33.9241 17.1707 34.4858L18.8645 35.5493ZM19.9769 32.4684C20.2035 31.2651 20.3115 29.832 20.3115 28.1816H18.3115C18.3115 29.7539 18.2079 31.0552 18.0114 32.0981L19.9769 32.4684Z" fill="black" mask="url(#path-1-outside-1_10438_27986)"/>
<path d="M55.7578 36.5068V42H31.4414V37.3125L42.9404 24.9834C44.096 23.6976 45.0075 22.5664 45.6748 21.5898C46.3421 20.597 46.8223 19.71 47.1152 18.9287C47.4245 18.1312 47.5791 17.3743 47.5791 16.6582C47.5791 15.584 47.4001 14.6644 47.042 13.8994C46.6839 13.1182 46.1549 12.516 45.4551 12.0928C44.7715 11.6696 43.9251 11.458 42.916 11.458C41.8418 11.458 40.9141 11.7184 40.1328 12.2393C39.3678 12.7601 38.7819 13.4844 38.375 14.4121C37.9844 15.3398 37.7891 16.3896 37.7891 17.5615H30.7334C30.7334 15.4456 31.238 13.5088 32.2471 11.751C33.2562 9.97689 34.6803 8.56901 36.5195 7.52734C38.3587 6.4694 40.5397 5.94043 43.0625 5.94043C45.5527 5.94043 47.6523 6.34733 49.3613 7.16113C51.0866 7.95866 52.3887 9.11426 53.2676 10.6279C54.1628 12.1253 54.6104 13.9157 54.6104 15.999C54.6104 17.1709 54.4232 18.3184 54.0488 19.4414C53.6745 20.5482 53.1374 21.6549 52.4375 22.7617C51.7539 23.8522 50.9238 24.959 49.9473 26.082C48.9707 27.2051 47.8883 28.3688 46.7002 29.5732L40.5234 36.5068H55.7578Z" fill="#18181B"/>
</svg>
