<svg xmlns="http://www.w3.org/2000/svg" xmlns:xlink="http://www.w3.org/1999/xlink" fill="none" version="1.1" width="14" height="14" viewBox="0 0 14 14"><defs><clipPath id="master_svg0_sa1_270854"><rect x="0" y="0" width="14" height="14" rx="0"/></clipPath></defs><g clip-path="url(#master_svg0_sa1_270854)"><g><path d="M12,11L2.5,11C2.3,11,2.2,11,2,11.1L2,1.5C2,1.2,2.2,1,2.5,1L4,1L4,6.5C4,6.8,4.2,7,4.5,7C4.6,7,4.8,7,4.9,6.9L6,5.8L7.1,6.9C7.2,7,7.3,7,7.5,7C7.8,7,8,6.8,8,6.5L8,1L11.7,1C11.9,1,12,1.1,12,1.3L12,11ZM12,13L2.5,13C2.2,13,2,12.8,2,12.5C2,12.2,2.2,12,2.5,12L12,12L12,13ZM5,1L7,1L7,5.4L6.4,4.7C6.3,4.6,6.1,4.6,6,4.6C5.9,4.6,5.7,4.6,5.6,4.7L5,5.4L5,1ZM12.5,0L2.5,0C1.7,0,1,0.7,1,1.5L1,12.6C1,13.3,1.7,14,2.5,14L12.6,14C12.9,14,13.1,13.8,13.1,13.5L13.1,0.5C13,0.2,12.8,0,12.5,0Z" fill="#71717A" fill-opacity="1" style="mix-blend-mode:passthrough"/></g></g></svg>