
<svg width="34" height="34" viewBox="0 0 34 34" fill="none" xmlns="http://www.w3.org/2000/svg">
  <path d="M9.80078 9.0002L12.2008 4.2002H21.8008L24.2008 9.0002H9.80078Z" fill="white" stroke="white" stroke-width="2" stroke-linejoin="round"/>
  <path fill-rule="evenodd" clip-rule="evenodd" d="M3.4 9H30.6C31.9255 9 33 10.0745 33 11.4V30.6C33 31.9255 31.9255 33 30.6 33H3.4C2.07452 33 1 31.9255 1 30.6V11.4C1 10.0745 2.07452 9 3.4 9ZM23.3991 21.0002C23.3991 24.5349 20.5338 27.4002 16.9991 27.4002C13.4645 27.4002 10.5991 24.5349 10.5991 21.0002C10.5991 17.4656 13.4645 14.6002 16.9991 14.6002C20.5338 14.6002 23.3991 17.4656 23.3991 21.0002Z" fill="white"/>
  <path d="M30.6 8H3.4V10H30.6V8ZM34 11.4C34 9.52223 32.4778 8 30.6 8V10C31.3732 10 32 10.6268 32 11.4H34ZM34 30.6V11.4H32V30.6H34ZM30.6 34C32.4778 34 34 32.4778 34 30.6H32C32 31.3732 31.3732 32 30.6 32V34ZM3.4 34H30.6V32H3.4V34ZM0 30.6C0 32.4778 1.52223 34 3.4 34V32C2.6268 32 2 31.3732 2 30.6H0ZM0 11.4V30.6H2V11.4H0ZM3.4 8C1.52223 8 0 9.52223 0 11.4H2C2 10.6268 2.6268 10 3.4 10V8ZM16.9991 28.4002C21.0861 28.4002 24.3991 25.0871 24.3991 21.0002H22.3991C22.3991 23.9826 19.9815 26.4002 16.9991 26.4002V28.4002ZM9.59914 21.0002C9.59914 25.0871 12.9122 28.4002 16.9991 28.4002V26.4002C14.0168 26.4002 11.5991 23.9826 11.5991 21.0002H9.59914ZM16.9991 13.6002C12.9122 13.6002 9.59914 16.9133 9.59914 21.0002H11.5991C11.5991 18.0179 14.0168 15.6002 16.9991 15.6002V13.6002ZM24.3991 21.0002C24.3991 16.9133 21.0861 13.6002 16.9991 13.6002V15.6002C19.9815 15.6002 22.3991 18.0179 22.3991 21.0002H24.3991Z" fill="white"/>
  <path d="M28.1992 3.4H32.9992M30.5992 1V5.8" stroke="white" stroke-width="0.7" stroke-linecap="round" stroke-linejoin="round"/>
  </svg>
  