<svg xmlns="http://www.w3.org/2000/svg" xmlns:xlink="http://www.w3.org/1999/xlink" fill="none" version="1.1" width="18" height="18" viewBox="0 0 18 18"><defs><clipPath id="master_svg0_sa1_270863"><rect x="0" y="0" width="18" height="18" rx="0"/></clipPath></defs><g clip-path="url(#master_svg0_sa1_270863)"><g><path d="M15,1.6875L7.87501,1.6875C6.75001,1.6875,5.81251,2.624994,5.81251,3.74999L5.81251,4.68751L3.00001,4.68751C1.875012,4.68751,0.9375,5.625,0.9375,6.75L0.9375,12.75C0.9375,13.875,1.875012,14.8125,3.00001,14.8125L5.325,14.8125L5.1,16.0125C5.02501,16.3125,5.25001,16.6125,5.55,16.6875C5.70001,16.725,5.81251,16.6875,5.92501,16.6125L9.18751,14.8125L12.75,14.8125C13.875,14.8125,14.8125,13.875,14.8125,12.75L14.8125,9.93749L15,9.93749C16.125,9.93749,17.0625,9,17.0625,7.875L17.0625,3.74999C17.0625,2.624994,16.125,1.687500171661,15,1.6875ZM13.6875,12.75C13.6875,13.275,13.275,13.6875,12.75,13.6875L9.00001,13.6875C8.887509999999999,13.6875,8.8125,13.725,8.73751,13.7625L6.41251,15.0375L6.5625,14.3625C6.63751,14.0625,6.41251,13.7625,6.1125,13.6875L3.00001,13.6875C2.47501,13.6875,2.0625,13.275,2.0625,12.75L2.0625,6.75C2.0625,6.22499,2.47501,5.81251,3.00001,5.81251L12.75,5.81251C13.275,5.81251,13.6875,6.22499,13.6875,6.75L13.6875,12.75ZM15.9375,7.875C15.9375,8.4,15.525,8.81249,15,8.81249L14.8125,8.81249L14.8125,6.75C14.8125,5.625,13.875,4.68751,12.75,4.68751L6.93751,4.68751L6.93751,3.74999C6.93751,3.22501,7.35,2.8125,7.87501,2.8125L15,2.8125C15.525,2.8125,15.9375,3.22501,15.9375,3.74999L15.9375,7.875Z" fill="#71717A" fill-opacity="1" style="mix-blend-mode:passthrough"/></g><g><path d="M8.024599375000001,6.37514153C7.387119375,6.33763005,6.787103375,6.56262975,6.337103375,6.97513575C5.999603375,7.31263575,5.849609375,7.76263375,5.849609375,8.25013375C5.849609375,8.55013375,6.112103375,8.81263375,6.412109375,8.81263375C6.712115375,8.81263375,6.974609375,8.55013375,6.974609375,8.25013375C6.974609375,8.06264375,7.049619375,7.9126337499999995,7.162119375,7.8001337500000005C7.424609375,7.61264375,7.724619375,7.50014375,8.024599375000001,7.5376337499999995C8.287119375,7.50014375,8.549609375,7.61264375,8.737119374999999,7.8001337500000005C8.849619375,7.9876337500000005,8.887109375,8.21263375,8.849619375,8.40014375C8.774609375,8.62514375,8.587099375000001,8.73764375,8.287119375,8.96264375C7.837119375,9.22513375,7.162119375,9.67513375,7.162119375,10.68763375C7.162119375,10.98764375,7.424609375,11.25013375,7.724619375,11.25013375C8.024619375,11.25013375,8.287119375,10.98764375,8.287119375,10.68763375C8.287119375,10.31264375,8.437109375,10.20014375,8.887109375,9.93763375C9.412119375,9.67513375,9.787109375,9.262633749999999,9.974619375,8.700133749999999C10.237109375,7.76263375,9.674609375,6.75013575,8.737119374999999,6.48764175C8.437109375,6.41263585,8.249599374999999,6.37514153,8.024599375000001,6.37514153ZM7.124599375,12.262633749999999C7.124599375,12.573293750000001,7.376439375,12.825133749999999,7.687099375,12.825133749999999C7.997759374999999,12.825133749999999,8.249599374999999,12.573293750000001,8.249599374999999,12.262633749999999C8.249599374999999,11.95197375,7.997759374999999,11.700133749999999,7.687099375,11.700133749999999C7.376439375,11.700133749999999,7.124599375,11.95197375,7.124599375,12.262633749999999Z" fill="#71717A" fill-opacity="1" style="mix-blend-mode:passthrough"/></g></g></svg>