<svg xmlns="http://www.w3.org/2000/svg" xmlns:xlink="http://www.w3.org/1999/xlink" fill="none" version="1.1" width="30" height="30" viewBox="0 0 30 30"><defs><clipPath id="master_svg0_sa1_272236"><rect x="0" y="0" width="30" height="30" rx="5"/></clipPath></defs><g clip-path="url(#master_svg0_sa1_272236)"><g><path d="M8.488372,10.62754C8.758093,10.62754,8.976745,10.86106,8.976744,11.14913L8.976744,22.1604C8.97652,23.1525,9.72984,23.9568,10.65919,23.9568L19.3412,23.9568C20.270200000000003,23.9568,21.0233,23.1525,21.0233,22.1604L21.0233,11.14913C21.0233,10.86106,21.2419,10.62754,21.5116,10.62754C21.781399999999998,10.62754,22,10.86107,22,11.14913L22,22.1604C22,23.7287,20.8096,25,19.3412,25L10.65878,25C9.19038,25,8.000000496798,23.7287,8,22.1604L8,11.14913C8.000000496798,10.86106,8.218652,10.62754,8.488372,10.62754ZM12.28709,8.36122C12.556809999999999,8.36122,12.77547,8.1277,12.77547,7.83963C12.77524,6.84731,13.52838,6.04275,14.4575,6.04275L15.5425,6.04275C16.47155,6.04227,17.22494,6.8469,17.22494,7.83963C17.22457,8.12798,17.44333,8.36194,17.71331,8.36194C17.9833,8.36194,18.2021,8.12798,18.201700000000002,7.83963C18.2018,6.287,17.03436,5.0221023,15.58076,5L14.41965,5C12.96607,5.0224132,11.79872,6.28717,11.79872,7.83963C11.79872,8.1277,12.01737,8.36122,12.28709,8.36122Z" fill="#000000" fill-opacity="1" style="mix-blend-mode:passthrough"/></g><g><path d="M6,8.507598C5.999999481777,8.227259,6.228081,8.000000516355,6.509434,8L23.4906,8C23.7719,8.000000516355,24,8.22726,24,8.507598C24,8.787937,23.7719,9.0152,23.4906,9.0152L6.509434,9.0152C6.228081,9.0152,6,8.787937,6,8.507598ZM12.735990000000001,11.524840000000001C13.01734,11.524840000000001,13.24542,11.7521,13.24542,12.032440000000001L13.24542,20.4924C13.24542,20.7727,13.01734,21,12.735990000000001,21C12.454640000000001,21,12.22656,20.7727,12.22656,20.4924L12.22656,12.032440000000001C12.22656,11.7521,12.454640000000001,11.524840000000001,12.735990000000001,11.524840000000001ZM17.264400000000002,11.524840000000001C17.5458,11.524840000000001,17.773899999999998,11.7521,17.773899999999998,12.032440000000001L17.773899999999998,20.4924C17.773899999999998,20.7727,17.5458,21,17.264400000000002,21C16.9831,21,16.755000000000003,20.7727,16.755000000000003,20.4924L16.755000000000003,12.032440000000001C16.755000000000003,11.7521,16.9831,11.524840000000001,17.264400000000002,11.524840000000001Z" fill="#000000" fill-opacity="1" style="mix-blend-mode:passthrough"/></g></g></svg>