<svg xmlns="http://www.w3.org/2000/svg" xmlns:xlink="http://www.w3.org/1999/xlink" fill="none" version="1.1" width="129.0048828125" height="102.94140625" viewBox="0 0 129.0048828125 102.94140625"><defs><filter id="master_svg0_sa1_296903" filterUnits="objectBoundingBox" color-interpolation-filters="sRGB" x="-0.7096774193548387" y="-0.9185624483751724" width="2.4193548387096775" height="3.449499862333793"><feFlood flood-opacity="0" result="BackgroundImageFix"/><feColorMatrix in="SourceAlpha" type="matrix" values="0 0 0 0 0 0 0 0 0 0 0 0 0 0 0 0 0 0 127 0"/><feOffset dy="11" dx="0"/><feGaussianBlur stdDeviation="11"/><feColorMatrix type="matrix" values="0 0 0 0 0.8196078538894653 0 0 0 0 0.8352941274642944 0 0 0 0 0.8588235378265381 0 0 0 0.27000001072883606 0"/><feBlend mode="normal" in2="BackgroundImageFix" result="effect1_dropShadow"/><feBlend mode="normal" in="SourceGraphic" in2="effect1_dropShadow" result="shape"/></filter><filter id="master_svg1_sa1_296902" filterUnits="objectBoundingBox" color-interpolation-filters="sRGB" x="-0.7096774193548387" y="-0.9185624483751724" width="2.4193548387096775" height="3.449499862333793"><feFlood flood-opacity="0" result="BackgroundImageFix"/><feColorMatrix in="SourceAlpha" type="matrix" values="0 0 0 0 0 0 0 0 0 0 0 0 0 0 0 0 0 0 127 0"/><feOffset dy="11" dx="0"/><feGaussianBlur stdDeviation="11"/><feColorMatrix type="matrix" values="0 0 0 0 0.8196078538894653 0 0 0 0 0.8352941274642944 0 0 0 0 0.8588235378265381 0 0 0 0.27000001072883606 0"/><feBlend mode="normal" in2="BackgroundImageFix" result="effect1_dropShadow"/><feBlend mode="normal" in="SourceGraphic" in2="effect1_dropShadow" result="shape"/></filter></defs><g><g><path d="M41.12818288742066,16.5885009765625C41.12818288742066,16.5885009765625,85.12832288742065,16.5885009765625,85.12832288742065,16.5885009765625C86.89812288742066,16.5885009765625,88.24072288742065,17.9326609765625,88.24072288742065,19.7045109765625C88.24072288742065,19.7045109765625,88.24072288742065,47.6264009765625,88.24072288742065,47.6264009765625C88.24072288742065,49.3982009765625,86.89812288742066,50.7424009765625,85.12832288742065,50.7424009765625C85.12832288742065,50.7424009765625,41.12818288742066,50.7424009765625,41.12818288742066,50.7424009765625C39.35840288742065,50.7424009765625,38.015822887420654,49.3982009765625,38.015822887420654,47.6264009765625C38.015822887420654,47.6264009765625,38.015822887420654,19.7045109765625,38.015822887420654,19.7045109765625C38.015822887420654,17.9326609765625,39.48046288742066,16.5885009765625,41.12818288742066,16.5885009765625Z" fill="#FFFFFF" fill-opacity="1"/><path d="M41.12818288742066,16.5885009765625L85.12832288742065,16.5885009765625C86.89812288742066,16.5885009765625,88.24072288742065,17.9326609765625,88.24072288742065,19.7045109765625L88.24072288742065,47.6264009765625C88.24072288742065,49.3982009765625,86.89812288742066,50.7424009765625,85.12832288742065,50.7424009765625L41.12818288742066,50.7424009765625C39.35840288742065,50.7424009765625,38.015822887420654,49.3982009765625,38.015822887420654,47.6264009765625L38.015822887420654,19.7045109765625C38.015822887420654,17.9326609765625,39.48046288742066,16.5885009765625,41.12818288742066,16.5885009765625ZM41.12818288742066,17.5885009765625Q40.277732887420655,17.5885009765625,39.65201288742065,18.1982509765625Q39.015822887420654,18.8182009765625,39.015822887420654,19.7045109765625L39.015822887420654,47.6264009765625Q39.015822887420654,48.5414009765625,39.61585288742065,49.1421009765625Q40.21540288742065,49.7424009765625,41.12818288742066,49.7424009765625L85.12832288742065,49.7424009765625Q86.04112288742066,49.7424009765625,86.64062288742065,49.1421009765625Q87.24072288742065,48.5414009765625,87.24072288742065,47.6264009765625L87.24072288742065,19.7045109765625Q87.24072288742065,18.7894909765625,86.64062288742065,18.1887509765625Q86.04112288742066,17.5885009765625,85.12832288742065,17.5885009765625L41.12818288742066,17.5885009765625Z" fill-rule="evenodd" fill="#18181B" fill-opacity="1"/></g><g><g><path d="M79.80463031768798,19.701971874999998C79.80463031768798,19.701971874999998,80.17873031768798,49.846571875,80.17873031768798,49.846571875C80.17873031768798,50.876371875,79.33713031768798,51.672071875,78.308530317688,51.672071875C78.308530317688,51.672071875,48.94727031768799,51.672071875,48.94727031768799,51.672071875C47.91869531768799,51.672071875,47.07713031768799,50.829571875,47.07713031768799,49.846571875C47.07713031768799,49.846571875,47.07713031768799,11.089201875,47.07713031768799,11.089201875C47.07713031768799,10.059414875,47.91869531768799,9.263671875,48.94727031768799,9.263671875C48.94727031768799,9.263671875,70.22013031768799,9.263671875,70.22013031768799,9.263671875C70.22013031768799,9.263671875,79.80463031768798,19.701971874999998,79.80463031768798,19.701971874999998Z" fill="#FDFEFF" fill-opacity="1"/><path d="M79.80463031768798,19.701971874999998L80.17873031768798,49.846571875C80.17873031768798,50.876371875,79.33713031768798,51.672071875,78.308530317688,51.672071875L48.94727031768799,51.672071875C47.91869531768799,51.672071875,47.07713031768799,50.829571875,47.07713031768799,49.846571875L47.07713031768799,11.089201875C47.07713031768799,10.059414875,47.91869531768799,9.263671875,48.94727031768799,9.263671875L70.22013031768799,9.263671875L79.80463031768798,19.701971874999998ZM48.94727031768799,10.263671875L69.78073031768798,10.263671875L78.80943031768798,20.096671875L79.17873031768798,49.858971875Q79.17873031768798,50.672071875,78.308530317688,50.672071875L48.94727031768799,50.672071875Q48.07713031768799,50.672071875,48.07713031768799,49.846571875L48.07713031768799,11.089201875Q48.07713031768799,10.263671875,48.94727031768799,10.263671875Z" fill-rule="evenodd" fill="#18181B" fill-opacity="1"/></g><g><path d="M66.31059296188354,15.58266302444458C66.31059296188354,15.58266302444458,52.23779096188355,15.58266302444458,52.23779096188355,15.58266302444458C51.91051596188355,15.58266302444458,51.629992961883545,15.30181102444458,51.629992961883545,14.97415202444458C51.629992961883545,14.64649302444458,51.91051596188355,14.36564302444458,52.23779096188355,14.36564302444458C52.23779096188355,14.36564302444458,66.31059296188354,14.36564302444458,66.31059296188354,14.36564302444458C66.63789296188355,14.36564302444458,66.91839296188354,14.64649302444458,66.91839296188354,14.97415202444458C66.91839296188354,15.30181102444458,66.63789296188355,15.58266302444458,66.31059296188354,15.58266302444458Z" fill="#71717A" fill-opacity="1"/></g><g><path d="M57.66025022766113,20.894344295043947C57.66025022766113,20.894344295043947,52.236828227661135,20.894344295043947,52.236828227661135,20.894344295043947C51.909553227661135,20.894344295043947,51.62903022766113,20.613493295043945,51.62903022766113,20.285834295043944C51.62903022766113,19.958175295043944,51.909553227661135,19.677324295043945,52.236828227661135,19.677324295043945C52.236828227661135,19.677324295043945,57.61349022766113,19.677324295043945,57.61349022766113,19.677324295043945C57.94077022766113,19.677324295043945,58.22129022766113,19.958175295043944,58.22129022766113,20.285834295043944C58.22129022766113,20.613493295043945,57.94077022766113,20.894344295043947,57.66025022766113,20.894344295043947Z" fill="#71717A" fill-opacity="1"/></g><g><path d="M70.22047138214111,17.595571874999997L70.22047138214111,9.263671875L71.22047138214111,10.352751875L71.22047138214111,17.595571874999997Q71.22047138214111,18.033291875,71.56698138214111,18.360101874999998Q71.9294413821411,18.701951875,72.41789138214111,18.701951875L78.88675138214111,18.701951875L79.80496138214112,19.701971874999998L72.41789138214111,19.701971874999998C71.24905138214112,19.701971874999998,70.22047138214111,18.765781875000002,70.22047138214111,17.595571874999997Z" fill-rule="evenodd" fill="#18181B" fill-opacity="1"/></g><g><path d="M67.49963022766113,17.028414726257324C67.49963022766113,17.028414726257324,64.14183022766113,17.028414726257324,64.14183022766113,17.028414726257324C64.14183022766113,17.028414726257324,63.309530227661135,17.028414726257324,63.309530227661135,17.028414726257324C63.309530227661135,17.028414726257324,51.91602122766113,17.028414726257324,51.91602122766113,17.028414726257324C51.77252622766113,17.028414726257324,51.62903022766113,17.298024726257324,51.62903022766113,17.675477726257323C51.62903022766113,17.999008726257323,51.74382622766113,18.322534726257324,51.91602122766113,18.322534726257324C51.91602122766113,18.322534726257324,63.309530227661135,18.322534726257324,63.309530227661135,18.322534726257324C63.309530227661135,18.322534726257324,64.14183022766113,18.322534726257324,64.14183022766113,18.322534726257324C64.14183022766113,18.322534726257324,67.47093022766113,18.322534726257324,67.47093022766113,18.322534726257324C67.67183022766113,18.322534726257324,67.78663022766113,18.052934726257323,67.78663022766113,17.675477726257323C67.78663022766113,17.351946726257324,67.67183022766113,17.028414726257324,67.49963022766113,17.028414726257324Z" fill="#71717A" fill-opacity="1"/></g></g><g><path d="M35.904789447784424,33.32911491394043Q35.904789447784424,33.25542461394043,35.91200944778442,33.18208891394043Q35.91923944778442,33.10875391394043,35.93360944778443,33.03647991394043Q35.94798944778442,32.96420491394043,35.969379447784426,32.89368791394043Q35.99076944778442,32.82317091394043,36.01896944778442,32.75508991394043Q36.04716944778443,32.68700891394043,36.081909447784426,32.62201991394043Q36.116649447784425,32.55703091394043,36.157589447784424,32.49575991394043Q36.19852944778442,32.43448791394043,36.24526944778442,32.37752491394043Q36.292019447784426,32.32056491394043,36.344129447784425,32.26845491394043Q36.396239447784424,32.21634491394043,36.45319944778442,32.16959491394043Q36.510162447784424,32.12285491394043,36.571434447784426,32.08191491394043Q36.632705447784424,32.04097491394043,36.69769444778442,32.00623491394043Q36.762683447784426,31.97149491394043,36.830764447784425,31.94329491394043Q36.898845447784424,31.91509491394043,36.96936244778443,31.89370491394043Q37.03987944778442,31.87231491394043,37.11215444778443,31.85793491394043Q37.18442844778443,31.84356491394043,37.25776344778443,31.83633491394043Q37.33109914778442,31.82911491394043,37.404789447784424,31.82911491394043Q37.47847974778443,31.82911491394043,37.55181544778442,31.83633491394043Q37.62515044778442,31.84356491394043,37.69742444778442,31.85793491394043Q37.769699447784426,31.87231491394043,37.84021644778442,31.89370491394043Q37.91073344778442,31.91509491394043,37.97881444778442,31.94329491394043Q38.04689544778442,31.97149491394043,38.111884447784426,32.00623491394043Q38.17687344778442,32.04097491394043,38.23814444778442,32.08191491394043Q38.299416447784424,32.12285491394043,38.35637944778443,32.16959491394043Q38.41333944778442,32.21634491394043,38.46544944778442,32.26845491394043Q38.51755944778442,32.32056491394043,38.564309447784424,32.37752491394043Q38.611049447784424,32.43448791394043,38.65198944778442,32.49575991394043Q38.69292944778442,32.55703091394043,38.72766944778442,32.62201991394043Q38.76240944778442,32.68700891394043,38.790609447784426,32.75508991394043Q38.818809447784425,32.82317091394043,38.84019944778442,32.89368791394043Q38.861589447784425,32.96420491394043,38.87596944778442,33.03647991394043Q38.89033944778443,33.10875391394043,38.89756944778443,33.18208891394043Q38.904789447784424,33.25542461394043,38.904789447784424,33.32911491394043L38.904789447784424,48.23701491394043Q38.904789447784424,49.975214913940434,40.63919944778442,49.975214913940434L85.85988944778443,49.975214913940434Q87.59428944778443,49.975214913940434,87.59428944778443,48.23701491394043L87.59428944778443,34.48997491394043Q87.59428944778443,34.41628491394043,87.60148944778442,34.34295491394043Q87.60878944778443,34.26961691394043,87.62308944778442,34.19734291394043Q87.63748944778442,34.12506791394043,87.65888944778442,34.05455091394043Q87.68028944778442,33.98403391394043,87.70848944778442,33.91595291394043Q87.73668944778441,33.84787191394043,87.77138944778443,33.782882913940426Q87.80618944778442,33.71789391394043,87.84708944778443,33.65662291394043Q87.88798944778442,33.595351913940426,87.93478944778442,33.53838791394043Q87.98148944778443,33.48142491394043,88.03358944778442,33.42931791394043Q88.08578944778442,33.37721111394043,88.14268944778442,33.33046251394043Q88.19968944778442,33.28371391394043,88.26088944778442,33.24277381394043Q88.32218944778442,33.201833913940426,88.38718944778442,33.16709591394043Q88.45218944778443,33.13235891394043,88.52028944778442,33.10415891394043Q88.58838944778442,33.07595891394043,88.65888944778442,33.05456791394043Q88.72938944778443,33.03317691394043,88.80168944778443,33.01879991394043Q88.87388944778442,33.00442391394043,88.94728944778441,32.99720091394043Q89.02058944778443,32.98997791394043,89.09428944778443,32.98997791394043Q89.16798944778442,32.98997791394043,89.24128944778442,32.99720091394043Q89.31468944778442,33.00442391394043,89.38688944778443,33.01879991394043Q89.45918944778442,33.03317691394043,89.52968944778442,33.05456791394043Q89.60018944778443,33.07595891394043,89.66828944778442,33.10415891394043Q89.73638944778443,33.13235891394043,89.80138944778443,33.16709591394043Q89.86638944778443,33.201833913940426,89.92768944778442,33.24277381394043Q89.98888944778443,33.28371391394043,90.04588944778442,33.33046253394043Q90.10288944778442,33.37721111394043,90.15498944778443,33.42931791394043Q90.20708944778443,33.48142491394043,90.25378944778441,33.53838791394043Q90.30058944778443,33.595351913940426,90.34148944778443,33.65662291394043Q90.38238944778442,33.71789391394043,90.41718944778442,33.782882913940426Q90.45188944778442,33.84787191394043,90.48008944778442,33.91595291394043Q90.50828944778442,33.98403391394043,90.52968944778442,34.05455091394043Q90.55108944778442,34.12506791394043,90.56548944778442,34.19734291394043Q90.57988944778442,34.26961691394043,90.58708944778442,34.34295491394043Q90.59428944778443,34.41628491394043,90.59428944778443,34.48997491394043L90.59428944778443,48.23701491394043Q90.59428944778443,50.19171491394043,89.23178944778442,51.57371491394043Q87.85008944778443,52.975214913940434,85.85988944778443,52.975214913940434L40.63919944778442,52.975214913940434Q38.69003944778442,52.975214913940434,37.29704844778443,51.58061491394043Q35.904789447784424,50.186714913940435,35.904789447784424,48.23701491394043L35.904789447784424,33.32911491394043Z" fill-rule="evenodd" fill="#1676EE" fill-opacity="1"/></g><g><g><path d="M85.24970177078248,26.79205322265625C85.24970177078248,26.79205322265625,70.96940177078247,26.79205322265625,70.96940177078247,26.79205322265625C69.56580177078247,26.79205322265625,68.22320177078247,27.28083922265625,67.18580177078248,28.13621322265625C67.18580177078248,28.13621322265625,63.463201770782476,31.191123222656252,63.463201770782476,31.191123222656252C62.42570177078247,32.04649322265625,61.08310177078247,32.53528322265625,59.679501770782466,32.53528322265625C59.679501770782466,32.53528322265625,43.56850177078247,32.53528322265625,43.56850177078247,32.53528322265625C41.92078177078247,32.53528322265625,40.57820177078247,33.87944322265625,40.57820177078247,35.52909322265625C40.57820177078247,35.65128322265625,40.57820200267147,35.834573222656246,40.63922857078247,35.95677322265625C40.63922857078247,35.95677322265625,43.62953177078247,51.72005322265625,43.62953177078247,51.72005322265625C43.87364177078247,53.186453222656255,45.094171770782474,54.28625322265625,46.61983177078247,54.28625322265625C46.61983177078247,54.28625322265625,81.09990177078248,54.28625322265625,81.09990177078248,54.28625322265625C82.56450177078247,54.28625322265625,83.84600177078246,53.24755322265625,84.09020177078247,51.78115322265625C84.09020177078247,51.78115322265625,88.24000177078247,30.21354322265625,88.24000177078247,30.21354322265625C88.54510177078248,28.56389322265625,87.44660177078248,27.09754422265625,85.79890177078246,26.79205322265625C85.55480177078246,26.792053222656236,85.37170177078247,26.79205322265625,85.24970177078248,26.79205322265625Z" fill="#FFFFFF" fill-opacity="1"/></g></g><g><g filter="url(#master_svg0_sa1_296903)"><path d="M91.6583,22.576638276660155C91.6583,22.576638276660155,73.1062,22.576638276660155,73.1062,22.576638276660155C71.2755,22.576638276660155,69.5667,23.187620076660156,68.1631,24.348481076660157C68.1631,24.348481076660157,63.281,28.319861076660157,63.281,28.319861076660157C61.9384,29.419631076660156,60.1686,30.091711076660157,58.3378,30.091711076660157C58.3378,30.091711076660157,37.34467,30.091711076660157,37.34467,30.091711076660157C35.20874,30.091711076660157,33.5,31.86355107666016,33.5,33.940841076660156C33.5,34.12414107666015,33.4999999422159,34.307441076660155,33.5610265,34.49074107666016C33.5610265,34.49074107666016,37.4057,55.08084107666016,37.4057,55.08084107666016C37.71083,57.03594107666016,39.35855,58.441241076660155,41.25038,58.441241076660155C41.25038,58.441241076660155,70.6953,58.441241076660155,70.6953,58.441241076660155C70.6953,58.441241076660155,78.4306,58.441241076660155,78.4306,58.441241076660155C78.4306,58.441241076660155,86.1659,58.441241076660155,86.1659,58.441241076660155C88.1188,58.441241076660155,89.7055,57.097041076660155,90.0106,55.14194107666015C90.0106,55.14194107666015,95.44200000000001,26.975701076660158,95.44200000000001,26.975701076660158C95.8081,24.837271076660155,94.4045,22.943228076660155,92.26859999999999,22.515541076660156C92.0855,22.576639176660155,91.8414,22.576638276660155,91.6583,22.576638276660155Z" fill="#FFFFFF" fill-opacity="1"/></g><g filter="url(#master_svg1_sa1_296902)"><path d="M41.25038,58.941241076660155L70.6953,58.941241076660155L70.6953,57.941241076660155L41.25038,57.941241076660155Q40.01115,57.941241076660155,39.06071,57.116541076660155Q38.09927,56.28234107666016,37.89972,55.003741076660155L37.89857,54.99634107666016L34.046244,34.36534107666016L34.035424,34.33284107666016Q34,34.22644107666016,34,33.940841076660156Q34,32.57764107666016,34.97705,31.588711076660154Q35.96205,30.591711076660154,37.34467,30.591711076660154L58.3378,30.591711076660154Q61.2966,30.591711076660154,63.5978,28.706661076660154L68.4786,24.736361076660156Q70.4854,23.076639076660157,73.1062,23.076638076660156L91.6583,23.076638076660156Q92.03659999999999,23.076638076660156,92.2774,23.028591076660156Q93.6214,23.332274076660156,94.3879,24.396331076660157Q95.1865,25.505081076660154,94.94919999999999,26.891321076660155L89.518,55.05604107666016L89.5166,55.06484107666016Q89.3168,56.34484107666016,88.38130000000001,57.144741076660154Q87.4496,57.941241076660155,86.1659,57.941241076660155L86.1659,58.941241076660155Q87.81880000000001,58.941241076660155,89.03110000000001,57.904841076660155Q90.2445,56.86744107666016,90.50319999999999,55.22814107666016L95.9348,27.060091076660157Q96.24289999999999,25.260721076660158,95.1993,23.811861076660158Q94.1729,22.386916076660157,92.3668,22.025273076660156L92.2364,21.999172076660155L92.1103,22.041255076660157Q92.0043,22.076638076660156,91.6583,22.076638076660156L73.1062,22.076638076660156Q70.1255,22.076638076660156,67.8476,23.960611076660157L62.9641,27.933071076660156Q60.9393,29.591711076660157,58.3378,29.591711076660157L37.34467,29.591711076660157Q35.544290000000004,29.591711076660157,34.265678,30.885891076660158Q33,32.166971076660154,33,33.940841076660156Q33,34.35704107666015,33.074866,34.611141076660154L36.91287,55.165541076660155Q37.17048,56.80044107666016,38.40534,57.871841076660154Q39.63778,58.941241076660155,41.25038,58.941241076660155Z" fill-rule="evenodd" fill="#18181B" fill-opacity="1"/></g><g><path d="M79.31552948852539,57.27540616760254L79.31552948852539,54.94597616760254L80.7098094885254,56.700086167602535L75.26524948852538,60.18717616760254L74.68660948852539,59.60479616760254L77.0010494885254,57.56657616760254L77.0010494885254,54.94597616760254L79.31552948852539,57.27540616760254ZM74.6865694885254,59.60476616760254L74.6865694885254,54.94597616760254C74.6865694885254,54.63707616760254,74.80849948852538,54.340826167602536,75.02551948852539,54.12240616760254C75.24254948852538,53.903976167602536,75.53688948852539,53.78126616760254,75.8438094885254,53.78126616760254C76.15072948852539,53.78126616760254,76.4450794885254,53.903976167602536,76.66209948852539,54.12240616760254C76.8791294885254,54.340826167602536,77.0010494885254,54.63707616760254,77.0010494885254,54.94597616760254L77.0010494885254,53.78126616760254C77.0010494885254,53.47236716760254,77.12296948852538,53.17611816760254,77.3399994885254,52.95769216760254C77.55701948852538,52.73926616760254,77.85136948852539,52.61655616760254,78.15828948852538,52.61655616760254C78.46520948852539,52.61655616760254,78.75955948852538,52.73926616760254,78.97657948852539,52.95769216760254C79.1936094885254,53.17611816760254,79.31552948852539,53.47236716760254,79.31552948852539,53.78126616760254L79.31552948852539,54.94597616760254C79.31552948852539,54.63707616760254,79.43744948852539,54.340826167602536,79.6544794885254,54.12240616760254C79.87149948852539,53.903976167602536,80.1658494885254,53.78126616760254,80.47276948852539,53.78126616760254C80.77968948852539,53.78126616760254,81.07403948852539,53.903976167602536,81.29105948852539,54.12240616760254C81.5080794885254,54.340826167602536,81.63000948852539,54.63707616760254,81.63000948852539,54.94597616760254L81.63000948852539,56.110726167602536L81.6300694885254,56.11068616760254C81.6300694885254,55.801786167602536,81.7519894885254,55.50553616760254,81.96900948852539,55.28711616760254C82.1860394885254,55.068686167602536,82.48036948852538,54.94597616760254,82.7872694885254,54.94597616760254C83.09426948852538,54.94597616760254,83.38856948852539,55.068686167602536,83.60556948852539,55.28711616760254C83.82266948852539,55.50553616760254,83.94456948852539,55.801786167602536,83.94456948852539,56.11068616760254L83.94456948852539,59.60482616760254C83.94456948852539,60.84042616760254,83.45686948852538,62.02542616760254,82.58876948852539,62.89915616760254C81.72065948852538,63.77285616760254,80.5432594885254,64.26365616760253,79.31558948852539,64.26365616760253L78.15834948852539,64.26365616760253C76.53821948852539,64.26365616760253,75.55455948852538,63.762856167602536,74.69241948852539,62.90095616760254L72.6093894885254,60.80447616760254C72.41030698852539,60.582566167602536,72.3036394585254,60.29210616760254,72.31147224752539,59.993226167602536C72.31930502852539,59.69434616760254,72.4410384885254,59.40993616760254,72.65146648852539,59.19889616760254C72.86189548852539,58.98785616760254,73.14490248852539,58.866346167602536,73.44188948852539,58.85952616760254C73.73887948852538,58.85269616760254,74.0270994885254,58.96108616760254,74.2468794885254,59.162236167602536L74.6865694885254,59.60476616760254Z" fill-rule="evenodd" fill="#FFFFFF" fill-opacity="1"/><path d="M76.5010494885254,54.94597616760254L76.5010494885254,57.56657616760254Q76.5010494885254,57.61582616760254,76.51065948852539,57.66412616760254Q76.52026948852539,57.71242616760254,76.53910948852538,57.75791616760254Q76.55795948852538,57.80341616760254,76.58531948852539,57.84436616760254Q76.61267948852539,57.885306167602536,76.6474994885254,57.920136167602536Q76.6823194885254,57.95495616760254,76.72326948852539,57.98231616760254Q76.7642094885254,58.009676167602535,76.80970948852539,58.02851616760254Q76.85520948852539,58.04736616760254,76.90350948852539,58.05697616760254Q76.95180948852538,58.06657616760254,77.0010494885254,58.06657616760254Q77.0502994885254,58.06657616760254,77.0985994885254,58.05697616760254Q77.14689948852539,58.04736616760254,77.1923894885254,58.02851616760254Q77.2378894885254,58.009676167602535,77.27883948852539,57.98231616760254Q77.31977948852538,57.95495616760254,77.3545994885254,57.920136167602536Q77.3894294885254,57.885306167602536,77.4167894885254,57.84436616760254Q77.4441494885254,57.80341616760254,77.4629894885254,57.75791616760254Q77.4818394885254,57.71242616760254,77.49143948852539,57.66412616760254Q77.5010494885254,57.61582616760254,77.5010494885254,57.56657616760254L77.5010494885254,53.78126616760254Q77.5010494885254,53.50499316760254,77.69468948852538,53.31010616760254Q77.88699948852539,53.11655616760254,78.15828948852538,53.11655616760254Q78.42957948852539,53.11655616760254,78.6218894885254,53.31010616760254Q78.81552948852539,53.50499316760254,78.81552948852539,53.78126616760254L78.81552948852539,57.27540616760254Q78.81552948852539,57.32464616760254,78.8251394885254,57.372946167602535Q78.83473948852539,57.42124616760254,78.85358948852539,57.46674616760254Q78.87242948852538,57.51223616760254,78.89978948852539,57.55318616760254Q78.92714948852539,57.59413616760254,78.96197948852539,57.62895616760254Q78.9967994885254,57.66377616760254,79.03773948852539,57.69113616760254Q79.07868948852538,57.71849616760254,79.12418948852539,57.737336167602535Q79.16967948852539,57.756186167602536,79.21797948852539,57.76579616760254Q79.26627948852538,57.77540616760254,79.31552948852539,57.77540616760254Q79.3647694885254,57.77540616760254,79.4130694885254,57.76579616760254Q79.46136948852539,57.756186167602536,79.5068694885254,57.737336167602535Q79.55236948852539,57.71849616760254,79.59330948852539,57.69113616760254Q79.63425948852539,57.66377616760254,79.6690794885254,57.62895616760254Q79.7038994885254,57.59413616760254,79.7312594885254,57.55318616760254Q79.7586194885254,57.51223616760254,79.77746948852538,57.46674616760254Q79.7963094885254,57.42124616760254,79.80591948852539,57.372946167602535Q79.81552948852539,57.32464616760254,79.81552948852539,57.27540616760254L79.81552948852539,54.94597616760254Q79.81552948852539,54.66970616760254,80.00916948852539,54.47481616760254Q80.20146948852539,54.28126616760254,80.47276948852539,54.28126616760254Q80.7440594885254,54.28126616760254,80.93636948852539,54.47481616760254Q81.13000948852539,54.66970616760254,81.13000948852539,54.94597616760254L81.13000948852539,57.85775616760254Q81.13000948852539,57.90700616760254,81.1396094885254,57.95530616760254Q81.14921948852539,58.00359616760254,81.16806948852539,58.04909616760254Q81.18690948852539,58.09459616760254,81.21426948852539,58.13554616760254Q81.24162948852539,58.17648616760254,81.27644948852539,58.21130616760254Q81.31127948852539,58.246136167602536,81.35221948852539,58.27349616760254Q81.39316948852539,58.30085616760254,81.43865948852539,58.31969616760254Q81.48415948852539,58.33854616760254,81.53245948852539,58.348146167602536Q81.58075948852539,58.35775616760254,81.63000948852539,58.35775616760254Q81.67924948852539,58.35775616760254,81.7275494885254,58.348146167602536Q81.7758494885254,58.33854616760254,81.82134948852539,58.31969616760254Q81.86683948852539,58.30085616760254,81.9077894885254,58.27349616760254Q81.94873948852539,58.246136167602536,81.98355948852539,58.21130616760254Q82.0183794885254,58.17648616760254,82.04573948852538,58.13554616760254Q82.07309948852539,58.09459616760254,82.09194948852539,58.04909616760254Q82.1107894885254,58.00359616760254,82.1203994885254,57.95530616760254Q82.13000948852539,57.90700616760254,82.13000948852539,57.85775616760254L82.13000948852539,56.118316167602536L82.1300694885254,56.11068616760254Q82.1300694885254,55.83441616760254,82.3236694885254,55.63952616760254Q82.51596948852539,55.44597616760254,82.7872694885254,55.44597616760254Q83.0585694885254,55.44597616760254,83.2508694885254,55.63952616760254Q83.44456948852539,55.83441616760254,83.44456948852539,56.11068616760254L83.44456948852539,59.60482616760254Q83.44456948852539,61.32841616760254,82.23406948852539,62.54671616760254Q81.0249194885254,63.76365616760254,79.31558948852539,63.76365616760254L78.15834948852539,63.76365616760254Q76.2625994885254,63.76365616760254,75.0471094885254,62.54854616760254L72.97418248852539,60.46223616760254Q72.80445848852538,60.26738616760254,72.81130048852539,60.00631616760254Q72.81828748852539,59.73972616760254,73.00553248852539,59.55193616760254Q73.19152448852539,59.365406167602536,73.45337948852539,59.35939616760254Q73.70997948852539,59.353496167602536,73.9016094885254,59.52412616760254L74.3273294885254,59.95258616760254Q74.33184948852539,59.95726616760254,74.33649948852539,59.96182616760254L74.9105594885254,60.53959616760254Q74.98095948852539,60.61044616760254,75.0731694885254,60.64881616760254Q75.16537948852539,60.68717616760254,75.26524948852538,60.68717616760254Q75.31449948852539,60.68717616760254,75.3627994885254,60.67757616760254Q75.4110994885254,60.66796616760254,75.4565894885254,60.64911616760254Q75.50208948852539,60.63027616760254,75.5430394885254,60.60291616760254Q75.58397948852539,60.57555616760254,75.61880948852539,60.54073616760254Q75.6536294885254,60.50590616760254,75.68098948852538,60.46496616760254Q75.70834948852539,60.42401616760254,75.7271894885254,60.37851616760254Q75.74603948852538,60.33302616760254,75.75564948852539,60.28472616760254Q75.76524948852538,60.23642616760254,75.76524948852538,60.18717616760254Q75.76524948852538,60.08814616760254,75.7274994885254,59.99658616760254Q75.6897494885254,59.90502616760254,75.61993948852539,59.83476616760254L75.6196494885254,59.83447616760254L75.1865694885254,59.39859616760254L75.1865694885254,54.94597616760254Q75.1865694885254,54.66970616760254,75.3802094885254,54.47481616760254Q75.57251948852539,54.28126616760254,75.8438094885254,54.28126616760254Q76.11510948852539,54.28126616760254,76.3074194885254,54.47481616760254Q76.5010494885254,54.66970616760254,76.5010494885254,54.94597616760254ZM76.53563948852539,53.42759016760254Q76.21993948852538,53.281267167602536,75.8438094885254,53.281267167602536Q75.15641948852539,53.281267167602536,74.67082948852538,53.76998616760254Q74.1865694885254,54.25737616760254,74.1865694885254,54.94597616760254L74.1865694885254,58.51915616760254Q73.84171948852538,58.350206167602536,73.4303994885254,58.35965616760254Q72.76699748852539,58.374896167602536,72.2974016885254,58.84585616760254Q71.82906048852539,59.31555616760254,71.81164348852539,59.98012616760254Q71.79423048852539,60.64459616760254,72.2372113885254,61.13836616760254Q72.24571968852538,61.14785616760254,72.2546998885254,61.156886167602536L74.3377294885254,63.25335616760254Q75.8484694885254,64.76365616760253,78.15834948852539,64.76365616760253L79.31558948852539,64.76365616760253Q81.44101948852538,64.76365616760253,82.9434694885254,63.25155616760254Q84.44456948852539,61.74074616760254,84.44456948852539,59.60482616760254L84.44456948852539,56.11068616760254Q84.44456948852539,55.42208616760254,83.9602694885254,54.93469616760254Q83.4746694885254,54.44597616760254,82.7872694885254,54.44597616760254Q82.41116948852539,54.44597616760254,82.09542948852538,54.592326167602536Q82.0005994885254,54.127136167602536,81.6457494885254,53.76998616760254Q81.1601594885254,53.281267167602536,80.47276948852539,53.281267167602536Q80.0966394885254,53.281267167602536,79.78093948852539,53.42758916760254Q79.68610948852539,52.96241316760254,79.3312694885254,52.60527846760254Q78.84567948852539,52.11655616760254,78.15828948852538,52.11655616760254Q77.47089948852539,52.11655616760254,76.98530948852539,52.60527846760254Q76.63046948852539,52.96241416760254,76.53563948852539,53.42759016760254Z" fill-rule="evenodd" fill="#18181B" fill-opacity="1"/></g></g></g></svg>