<svg width="32" height="36" viewBox="0 0 32 36" fill="none" xmlns="http://www.w3.org/2000/svg">
<path fill-rule="evenodd" clip-rule="evenodd" d="M16 0L32 9V27L16 36L0 27V9L16 0ZM1.66784 10.7977L15.1661 17.5294V33.6546L1.66784 26.0618V10.7977ZM16.8339 33.6546L30.3322 26.0618V10.7977L16.8339 17.5294V33.6546ZM16 16.1199L29.422 9.42617L16 1.87632L2.57804 9.42617L16 16.1199ZM16.0888 5.93069C16.5493 5.93069 16.9227 6.29445 16.9227 6.74316V13.0754C16.9227 13.5241 16.5493 13.8879 16.0888 13.8879C15.6282 13.8879 15.2548 13.5241 15.2548 13.0754V6.74316C15.2548 6.29445 15.6282 5.93069 16.0888 5.93069ZM12.3622 19.5486C12.6216 19.9195 12.5232 20.4249 12.1426 20.6775L6.77123 24.2428C6.3906 24.4954 5.87184 24.3996 5.61253 24.0287C5.35322 23.6579 5.45156 23.1525 5.83219 22.8998L11.2035 19.3346C11.5842 19.082 12.1029 19.1778 12.3622 19.5486ZM19.5655 19.6062C19.7958 19.2176 20.3058 19.0845 20.7046 19.3088L26.3333 22.4749C26.7322 22.6993 26.8688 23.1962 26.6385 23.5848C26.4083 23.9734 25.8982 24.1065 25.4994 23.8822L19.8707 20.716C19.4719 20.4917 19.3352 19.9948 19.5655 19.6062Z" fill="#18181B"/>
</svg>
