<svg xmlns="http://www.w3.org/2000/svg" xmlns:xlink="http://www.w3.org/1999/xlink" fill="none" version="1.1" width="24" height="24" viewBox="0 0 24 24"><defs><clipPath id="master_svg0_sa1_270846"><rect x="0" y="0" width="24" height="24" rx="0"/></clipPath></defs><g clip-path="url(#master_svg0_sa1_270846)"><g><path d="M3.59765625,19.02441875L3.66755635,18.12111875C3.67024475,18.08351875,3.74014525,17.18011875,3.83961825,16.233818749999998C3.89876425,15.66921875,3.95522225,15.20951875,4.01168025,14.86271875C4.11921825,14.18521875,4.21331525,13.91631875,4.41494925,13.71201875L15.45105625,2.67588675C15.71455625,2.41241675,16.06135625,2.26723984,16.42965625,2.261862946C16.806056249999997,2.25648605,17.15825625,2.40166275,17.42445625,2.66513275L20.07255625,5.313268750000001C20.33605625,5.5767387500000005,20.48125625,5.93161875,20.47585625,6.30800875C20.47045625,6.67632875,20.32525625,7.02582875,20.06185625,7.28660875L9.02566625,18.32271875C8.77832625,18.57011875,8.45840625,18.69371875,6.43667625,18.85511875C5.46613625,18.93301875,4.54399625,18.97871875,4.50366925,18.98141875L3.59765625,19.02441875ZM5.6570262499999995,14.72831875C5.56561625,15.11001875,5.43656625,16.21231875,5.33709625,17.33341875C6.48775625,17.26081875,7.61960625,17.158618750000002,8.01749625,17.07261875L18.79285625,6.29455875L16.44045625,3.94215875L5.6570262499999995,14.72831875Z" fill="#000000" fill-opacity="1" style="mix-blend-mode:passthrough"/></g><g><path d="M13.36328125,6.688533125L14.39364125,5.658203125L16.92389125,8.188453125L15.89353125,9.218783125L13.36328125,6.688533125Z" fill="#000000" fill-opacity="1" style="mix-blend-mode:passthrough"/></g></g></svg>