<svg width="190" height="197" viewBox="0 0 190 197" fill="none" xmlns="http://www.w3.org/2000/svg">
<path d="M166.925 72.6876C170.312 72.6876 173.057 69.9396 173.057 66.5498C173.057 63.1601 170.312 60.4121 166.925 60.4121C163.538 60.4121 160.793 63.1601 160.793 66.5498C160.793 69.9396 163.538 72.6876 166.925 72.6876Z" fill="#DDDFDF"/>
<path d="M4.03438 105.881C6.2625 105.881 8.06875 104.073 8.06875 101.843C8.06875 99.6126 6.2625 97.8047 4.03438 97.8047C1.80625 97.8047 0 99.6126 0 101.843C0 104.073 1.80625 105.881 4.03438 105.881Z" fill="#DDDFDF"/>
<path d="M22.5813 178.474C24.8094 178.474 26.6156 176.667 26.6156 174.436C26.6156 172.206 24.8094 170.398 22.5813 170.398C20.3531 170.398 18.5469 172.206 18.5469 174.436C18.5469 176.667 20.3531 178.474 22.5813 178.474Z" fill="#DDDFDF"/>
<path d="M100.254 160.368L44.6406 177.794V105.975L100.254 88.6826V160.368Z" fill="#71717A" stroke="#18181B"/>
<path opacity="0.4" d="M155.266 105.977V177.796L99.6523 160.37V88.6846L155.266 105.977Z" fill="#71717A" stroke="#18181B"/>
<path opacity="0.13" d="M99.7109 160.005L45.3945 177.292V106.023L99.7109 88.8691V160.005ZM155.027 106.023V177.292L100.711 160.005V88.8691L155.027 106.023Z" fill="url(#paint0_linear_9489_179192)" stroke="#18181B"/>
<path d="M100.17 123.961L87.5332 182.978L44.6406 178.166V106.562L100.17 123.961Z" stroke="#18181B"/>
<path d="M155.266 178.014L112.379 170.262L99.7607 123.953L155.266 106.562V178.014Z" stroke="#18181B"/>
<path d="M100.254 123.987V195.671L44.6406 178.245V106.562L100.254 123.987Z" fill="#FDFEFF" stroke="#18181B"/>
<path d="M155.266 178.245L99.6523 195.671V123.987L155.266 106.562V178.245Z" fill="#DDDFDF" stroke="#18181B"/>
<path d="M101.272 89.4209L45.8203 106.663L19.3115 89.208L75.6484 70.2422L101.272 89.4209Z" fill="#DDDFDF" stroke="#18181B"/>
<path d="M182.197 87.6045L155.688 105.061L100.236 87.8174L125.859 68.6387L182.197 87.6045Z" fill="#DDDFDF" stroke="#18181B"/>
<path d="M99.5801 123.776L72.4473 141.083L17.7461 122.935L44.21 106.427L99.5801 123.776Z" fill="#DDDFDF" stroke="#18181B"/>
<path d="M182.16 122.935L127.46 141.083L100.326 123.776L155.696 106.427L182.16 122.935Z" fill="#DDDFDF" stroke="#18181B"/>
<path d="M116.551 18.1798C124.483 39.7043 126.847 44.4869 127.623 65.6962C127.324 70.5375 127.139 75.802 124.857 80.0411C121.808 86.5259 114.353 91.0169 107.308 91.0897C100.052 91.2194 92.9374 86.7762 89.7352 79.9248C87.4823 75.7667 87.554 70.0791 90.6443 66.3039C94.0039 62.6833 99.9143 61.7805 104.166 64.0428C108.843 66.1912 111.634 70.6585 112.668 75.3698C113.702 80.0811 113.248 85.1909 111.986 89.8369C109.346 101.137 107.16 101.683 100.687 120.814" stroke="#18181B" stroke-width="2" stroke-miterlimit="10" stroke-dasharray="4 4"/>
<path d="M119.751 1.84734C120.786 1.43626 121.637 1.38022 122.332 1.5363C123.026 1.69234 123.607 2.07033 124.088 2.59971C125.058 3.66847 125.586 5.32631 125.71 6.8017C125.696 8.20733 125.043 9.31559 123.99 9.97365C122.924 10.6401 121.403 10.8712 119.643 10.395L119.62 10.389L119.596 10.3854L118.872 10.2577C117.224 9.96056 115.872 9.6447 114.882 9.14564C114.326 8.86527 113.908 8.53894 113.62 8.14718C113.339 7.76547 113.16 7.2949 113.118 6.68736C113.162 5.47331 113.831 4.60154 115.007 3.85203C116.211 3.08474 117.865 2.49951 119.73 1.85504L119.741 1.85107L119.751 1.84734Z" fill="#18181B" stroke="#18181B"/>
<path d="M107.992 7.26343C108.591 7.11988 109.072 7.09899 109.499 7.20461C109.919 7.30859 110.333 7.54796 110.779 8.00615C111.229 8.5152 111.444 9.01122 111.505 9.51222C111.568 10.025 111.475 10.5836 111.24 11.2149C110.882 12.1818 110.231 13.2312 109.446 14.4423L108.622 15.7083C107.705 17.1123 106.315 17.6814 104.904 17.6685C103.477 17.6554 102.057 17.043 101.158 16.1173L101.151 16.111L101.145 16.1054L100.959 15.9138C100.065 14.9418 99.7837 13.7325 100.065 12.5643C100.365 11.3141 101.324 10.0607 102.984 9.20833C104.085 8.77041 105.049 8.35006 105.865 8.01319C106.7 7.66849 107.39 7.40809 107.992 7.26343Z" fill="#18181B" stroke="#18181B"/>
<path d="M110.24 3.81252C111.854 3.15167 113.724 3.68575 114.533 4.9072L114.553 4.93624L114.576 4.96332C114.968 5.4036 115.394 6.06585 115.508 6.492L115.517 6.5269L115.531 6.55959C116.275 8.29698 116.518 10.0028 116.343 11.3496C116.177 12.625 115.655 13.4897 114.926 13.8622L114.779 13.93L114.757 13.9389L114.735 13.9497C113.802 14.4349 112.641 14.2907 111.519 13.5685C110.405 12.8507 109.388 11.5904 108.818 9.98721L108.188 7.63458C108.086 6.74695 108.203 5.96588 108.523 5.33192C108.839 4.70521 109.37 4.18972 110.16 3.84607L110.243 3.82384L110.24 3.81252Z" fill="#DDDFDF" stroke="#18181B"/>
<path d="M26.6109 61.4607H23.0994V57.9492H20.0896V61.4607H16.5781V64.5708H20.0896V68.0823H23.0994V64.5708H26.6109V61.4607Z" fill="#DDDFDF"/>
<path d="M187.829 149.76L183.532 147.59L185.702 143.294L182.019 141.435L179.85 145.731L175.554 143.562L173.632 147.367L177.929 149.536L175.759 153.833L179.442 155.692L181.611 151.396L185.907 153.565L187.829 149.76Z" fill="#DDDFDF"/>
<defs>
<linearGradient id="paint0_linear_9489_179192" x1="82.7489" y1="93.4154" x2="74.9781" y2="125.265" gradientUnits="userSpaceOnUse">
<stop offset="0.00289017" stop-color="#DDDFDF" stop-opacity="0"/>
<stop offset="1" stop-color="#DDDFDF"/>
</linearGradient>
</defs>
</svg>
