<svg xmlns="http://www.w3.org/2000/svg" width="125" height="100" viewBox="0 0 125 100" fill="none">
  <path d="M62.7948 95.9908H62.7933C38.7649 95.9908 19.4766 80.3997 19.4766 61.357C19.4766 42.3142 38.7583 26.7231 62.7933 26.7231C86.8281 26.7231 106.11 42.3405 106.11 61.357C106.11 69.4464 102.639 76.9009 96.7496 82.8067L96.7496 82.8067L96.7438 82.8127C95.3647 84.2425 94.6021 86.1587 94.6204 88.1471V99.1544L84.6506 93.7053L84.6494 93.7047C83.1069 92.8674 81.2867 92.7108 79.6244 93.2722C74.1992 95.0897 68.5147 96.0079 62.7948 95.9908Z" fill="#FDFEFF" stroke="#18181B"/>
  <path d="M46.5864 63.1038C46.5864 65.5894 44.5773 67.602 42.1018 67.602C39.6263 67.602 37.6172 65.5894 37.6172 63.1038C37.6172 60.6181 39.6263 58.6055 42.1018 58.6055C44.5773 58.6055 46.5864 60.6181 46.5864 63.1038Z" fill="white" stroke="#18181B"/>
  <path d="M67.1801 63.1038C67.1801 65.5894 65.171 67.602 62.6955 67.602C60.2201 67.602 58.2109 65.5894 58.2109 63.1038C58.2109 60.6181 60.2201 58.6055 62.6955 58.6055C65.171 58.6055 67.1801 60.6181 67.1801 63.1038Z" fill="white" stroke="#18181B"/>
  <path d="M87.9692 63.1038C87.9692 65.5894 85.9601 67.602 83.4846 67.602C81.0091 67.602 79 65.5894 79 63.1038C79 60.6181 81.0091 58.6055 83.4846 58.6055C85.9601 58.6055 87.9692 60.6181 87.9692 63.1038Z" fill="white" stroke="#18181B"/>
  <path d="M119.91 90.5832C119.91 92.433 118.41 93.9325 116.56 93.9325C114.71 93.9325 113.211 92.433 113.211 90.5832C113.211 88.7334 114.71 87.2339 116.56 87.2339C118.41 87.2339 119.91 88.7334 119.91 90.5832Z" fill="#DDDFDF" stroke="#DDDFDF"/>
  <path d="M124.32 76.7851C124.32 77.9608 123.367 78.9139 122.191 78.9139C121.016 78.9139 120.062 77.9608 120.062 76.7851C120.062 75.6093 121.016 74.6562 122.191 74.6562C123.367 74.6562 124.32 75.6094 124.32 76.7851Z" fill="#DDDFDF" stroke="#DDDFDF"/>
  <path d="M23.0662 29.6791C23.0662 30.8548 22.1131 31.8079 20.9374 31.8079C19.7617 31.8079 18.8086 30.8548 18.8086 29.6791C18.8086 28.5034 19.7617 27.5503 20.9374 27.5503C22.1131 27.5503 23.0662 28.5034 23.0662 29.6791Z" fill="#DDDFDF" stroke="#DDDFDF"/>
  <path d="M9.26415 78.1218C9.26415 80.542 7.30223 82.5039 4.88207 82.5039C2.46192 82.5039 0.5 80.542 0.5 78.1218C0.5 75.7017 2.46192 73.7397 4.88207 73.7397C7.30223 73.7397 9.26415 75.7017 9.26415 78.1218Z" fill="#DDDFDF" stroke="#DDDFDF"/>
  <path d="M81.6462 4.36539V0H98.5177V4.36539L87.0054 18.2553H98.7162V22.6207H81.0508V18.2553L92.563 4.36539H81.6462Z" fill="#18181B"/>
  <path d="M95.5415 37.109V34.3311H106.458V37.109L99.1143 46.0382H106.657V48.8162H95.1445V46.0382L102.489 37.109H95.5415Z" fill="#18181B"/>
</svg>