<svg width="197" height="166" viewBox="0 0 197 166" fill="none" xmlns="http://www.w3.org/2000/svg">
<path d="M182.821 33.5512C186.339 33.5512 189.19 30.7 189.19 27.1828C189.19 23.6657 186.339 20.8145 182.821 20.8145C179.304 20.8145 176.453 23.6657 176.453 27.1828C176.453 30.7 179.304 33.5512 182.821 33.5512Z" fill="#DDDFDF"/>
<path d="M192.134 8.69827C194.536 8.69827 196.483 6.75109 196.483 4.34913C196.483 1.94717 194.536 0 192.134 0C189.732 0 187.785 1.94717 187.785 4.34913C187.785 6.75109 189.732 8.69827 192.134 8.69827Z" fill="#DDDFDF"/>
<path d="M34.6382 33.3955C37.0402 33.3955 38.9873 31.4484 38.9873 29.0464C38.9873 26.6444 37.0402 24.6973 34.6382 24.6973C32.2362 24.6973 30.2891 26.6444 30.2891 29.0464C30.2891 31.4484 32.2362 33.3955 34.6382 33.3955Z" fill="#DDDFDF"/>
<path d="M8.07696 117.271C12.5377 117.271 16.1539 113.655 16.1539 109.194C16.1539 104.733 12.5377 101.117 8.07696 101.117C3.61618 101.117 0 104.733 0 109.194C0 113.655 3.61618 117.271 8.07696 117.271Z" fill="#DDDFDF"/>
<path d="M131.593 43.6543L155.305 128.893V128.894C155.989 131.496 154.555 134.088 152.026 134.89L151.778 134.962H151.777L68.0576 157.173C65.4555 157.858 62.8618 156.424 62.0605 153.895L61.9893 153.646V153.646L32.7871 43.3652H32.7881C32.1033 40.7632 33.5375 38.1694 36.0664 37.3682L36.3145 37.2969H36.3154L96.6797 21.3535L131.593 43.6543Z" fill="#FDFEFF" stroke="#18181B"/>
<path d="M130.784 97.3911L85.5845 109.351L80.614 110.594L65.5474 114.632C64.9261 114.788 64.4601 115.564 64.7708 116.341C64.9261 117.118 65.7027 117.583 66.324 117.428L81.3907 113.39L86.3611 112.147L131.561 100.187C132.182 100.032 132.648 99.255 132.338 98.4784C132.182 97.7017 131.406 97.2358 130.784 97.3911Z" fill="#DDDFDF"/>
<path d="M127.833 86.8288L111.058 91.178L105.311 92.7312L62.9068 104.07C62.2855 104.225 61.8195 105.002 62.1301 105.779C62.2855 106.555 63.0621 107.021 63.6834 106.866L106.243 95.5271L111.99 93.9738L128.765 89.6247C129.386 89.4694 129.852 88.6927 129.542 87.9161C129.231 87.2948 128.454 86.6735 127.833 86.8288Z" fill="#DDDFDF"/>
<path d="M125.346 76.1121L120.997 77.1994L116.648 78.2867L59.9536 93.3533C59.3323 93.5087 58.8664 94.2853 59.177 95.0619C59.3323 95.8386 60.109 96.3045 60.7303 96.1492L117.424 81.0826L122.239 79.84L126.123 78.7527C126.744 78.5974 127.21 77.8207 126.899 77.0441C126.744 76.4228 126.123 75.9568 125.346 76.1121Z" fill="#DDDFDF"/>
<path d="M99.0939 131.095L95.9874 131.872C95.3661 132.027 94.5894 131.561 94.4341 130.785C94.2788 130.008 94.5894 129.231 95.2107 129.076L98.3173 128.299C98.9386 128.144 99.7152 128.61 99.8705 129.387C100.026 130.319 99.7152 130.94 99.0939 131.095Z" fill="#D6DCE8"/>
<path d="M89.6233 133.581L71.7608 138.241C71.1395 138.397 70.3629 137.931 70.2076 137.154C70.0522 136.377 70.3629 135.601 70.9842 135.445L88.8467 130.786C89.468 130.63 90.2446 131.096 90.4 131.873C90.7106 132.65 90.4 133.426 89.6233 133.581Z" fill="#DDDFDF"/>
<path d="M123.171 65.3933L109.037 69.1211L105.619 70.0531L57.313 82.7898C56.6917 82.9451 56.2257 83.7218 56.5364 84.4984C56.6917 85.275 57.4683 85.741 58.0896 85.5857L106.241 73.0043L109.658 72.0723L123.637 68.3445C124.414 68.1892 124.725 67.4125 124.569 66.4806C124.569 65.8593 123.793 65.238 123.171 65.3933Z" fill="#DDDFDF"/>
<path d="M89.7748 41.9394L49.7007 52.5016C48.7687 52.8122 47.8368 52.1909 47.5261 51.259C47.2155 50.327 47.8368 49.3951 48.7687 49.0844L88.8429 38.5222C89.7748 38.2116 90.7068 38.8329 91.0175 39.7648C91.3281 40.6968 90.7068 41.6287 89.7748 41.9394Z" fill="#DDDFDF"/>
<path d="M67.7225 58.0937L52.3452 62.1322C51.4133 62.4428 50.4813 61.8215 50.1707 60.8896C49.86 59.9576 50.4813 59.0256 51.4133 58.715L66.6352 54.6765C67.5672 54.3659 68.4991 54.9872 68.8098 55.9191C69.1204 56.8511 68.4991 57.783 67.7225 58.0937Z" fill="#DDDFDF"/>
<path d="M96.7656 20.8145L102.979 44.424C103.911 47.6859 107.483 49.7051 110.745 48.7732L132.025 43.3368" fill="#71717A"/>
<path d="M104.717 25.8623C105.138 23.1975 107.813 21.3608 110.488 21.9238L110.496 21.9258L110.505 21.9277L172.107 32.7607L194.254 67.5195L179.995 154.935L179.994 154.938C179.573 157.602 176.898 159.438 174.223 158.875L174.215 158.873L174.206 158.872L89.0869 143.961L89.0791 143.959L88.832 143.913C86.3064 143.372 84.5818 140.779 84.9893 138.171L104.716 25.8701L104.717 25.8623Z" fill="#FDFEFF" stroke="#18181B"/>
<path d="M171.014 116.029L125.037 107.952L120.067 107.02L104.69 104.379C104.068 104.224 103.292 104.845 103.292 105.622C103.136 106.399 103.602 107.175 104.224 107.331L119.601 109.971L124.572 110.903L170.548 118.98C171.169 119.135 171.946 118.514 171.946 117.737C172.101 116.961 171.791 116.184 171.014 116.029Z" fill="#D6DCE8"/>
<path d="M172.874 105.31L155.788 102.359L150.041 101.272L106.705 93.6607C106.084 93.5054 105.307 94.1267 105.307 94.9033C105.152 95.6799 105.618 96.4566 106.239 96.6119L149.575 104.223L155.322 105.31L172.408 108.261C173.03 108.417 173.806 107.795 173.806 107.019C173.962 106.242 173.496 105.465 172.874 105.31Z" fill="#D6DCE8"/>
<path d="M175.046 94.4371L170.542 93.6605L166.038 92.8838L108.256 82.7876C107.635 82.6323 106.858 83.2536 106.858 84.0302C106.703 84.8069 107.169 85.5835 107.79 85.7388L165.572 95.835L170.542 96.767L174.425 97.3883C175.046 97.5436 175.823 96.9223 175.823 96.1457C176.134 95.3691 175.823 94.5924 175.046 94.4371Z" fill="#DDDFDF"/>
<path d="M128.143 133.426L125.036 132.96C124.415 132.804 123.949 132.028 124.104 131.251C124.26 130.474 124.881 129.853 125.502 130.008L128.609 130.474C129.23 130.63 129.696 131.406 129.541 132.183C129.385 133.115 128.764 133.426 128.143 133.426Z" fill="#D6DCE8"/>
<path d="M118.666 131.716L100.493 128.61C99.872 128.455 99.406 127.678 99.5614 126.901C99.7167 126.125 100.338 125.503 100.959 125.659L119.132 128.765C119.754 128.921 120.22 129.697 120.064 130.474C119.909 131.406 119.288 131.872 118.666 131.716Z" fill="#D6DCE8"/>
<path d="M177.536 83.8756L163.091 81.3904L159.518 80.7691L110.28 72.0708C109.658 71.9155 108.882 72.5368 108.882 73.3134C108.726 74.0901 109.192 74.8667 109.814 75.022L159.052 83.7203L162.625 84.3416L176.915 86.8268C177.691 86.9821 178.312 86.3608 178.468 85.5842C178.623 84.8076 178.157 84.0309 177.536 83.8756Z" fill="#DDDFDF"/>
<path d="M157.19 48.6153L116.34 41.4703C115.408 41.3149 114.786 40.383 114.942 39.451C115.097 38.5191 116.029 37.8978 116.961 38.0531L157.812 45.1981C158.744 45.3534 159.365 46.2854 159.21 47.2173C159.054 47.994 158.122 48.7706 157.19 48.6153Z" fill="#DDDFDF"/>
<path d="M130.317 53.897L114.629 51.1011C113.697 50.9458 113.075 50.0138 113.231 49.0819C113.386 48.1499 114.318 47.5286 115.25 47.6839L130.783 50.4798C131.715 50.6351 132.336 51.5671 132.181 52.4991C132.025 53.431 131.093 54.0523 130.317 53.897Z" fill="#DDDFDF"/>
<path d="M172.254 32.3066L168.06 56.3822C167.439 59.7994 169.924 63.0612 173.341 63.6825L194.776 67.4104" fill="#71717A"/>
<path d="M136.22 146.783C155.35 146.783 170.858 131.275 170.858 112.146C170.858 93.0156 155.35 77.5078 136.22 77.5078C117.09 77.5078 101.582 93.0156 101.582 112.146C101.582 131.275 117.09 146.783 136.22 146.783Z" fill="white"/>
<path d="M186.455 165.641C185.11 165.641 183.766 165.103 182.69 163.893L160.237 141.44L159.43 141.978C152.17 147.356 143.7 150.179 135.095 150.179C124.743 150.179 114.39 146.011 106.726 138.751C98.6595 131.087 94.2227 120.735 94.2227 109.441C94.2227 86.9882 112.508 68.7031 134.961 68.7031C150.288 68.7031 163.733 76.7701 170.993 90.4838C178.119 104.063 177.178 119.928 168.438 132.701L167.901 133.507L190.488 156.095C192.774 158.381 192.236 160.666 191.833 161.876C190.757 164.027 188.606 165.641 186.455 165.641ZM134.961 79.8624C118.558 79.8624 105.382 93.1728 105.382 109.441C105.382 127.995 120.575 139.154 135.364 139.154C144.372 139.154 152.573 135.121 158.355 127.861C165.481 118.987 166.691 107.021 161.716 96.6685C156.607 86.3159 146.389 79.8624 134.961 79.8624Z" fill="#18181B"/>
<path d="M132.956 117.737C132.801 117.116 132.801 116.494 132.801 115.718C132.801 113.077 133.888 110.747 136.684 108.728L139.014 107.019C140.412 105.932 141.033 104.689 141.033 103.136C141.033 100.962 139.48 98.7871 136.218 98.7871C132.801 98.7871 131.247 101.583 131.247 104.223C131.247 104.845 131.247 105.311 131.403 105.777L125.19 105.621C125.034 105 124.879 104.223 124.879 103.447C124.879 98.1657 128.762 93.1953 136.062 93.1953C143.518 93.1953 147.557 98.0104 147.557 102.826C147.557 106.709 145.537 109.349 142.741 111.368L140.722 112.766C139.014 114.009 138.082 115.562 138.082 117.426V117.737H132.956ZM135.596 120.843C137.771 120.843 139.48 122.552 139.48 124.727C139.48 126.901 137.771 128.61 135.596 128.61C133.422 128.61 131.713 126.901 131.713 124.727C131.869 122.707 133.422 120.843 135.596 120.843Z" fill="#18181B"/>
</svg>
