<svg width="190" height="140" viewBox="0 0 190 140" fill="none" xmlns="http://www.w3.org/2000/svg">
<path d="M166.925 15.6886C170.312 15.6886 173.057 12.9406 173.057 9.55082C173.057 6.16104 170.312 3.41309 166.925 3.41309C163.538 3.41309 160.793 6.16104 160.793 9.55082C160.793 12.9406 163.538 15.6886 166.925 15.6886Z" fill="#DDDFDF"/>
<path d="M4.03438 48.8797C6.2625 48.8797 8.06875 47.0718 8.06875 44.8417C8.06875 42.6116 6.2625 40.8037 4.03438 40.8037C1.80625 40.8037 0 42.6116 0 44.8417C0 47.0718 1.80625 48.8797 4.03438 48.8797Z" fill="#DDDFDF"/>
<path d="M22.5813 121.475C24.8094 121.475 26.6156 119.668 26.6156 117.437C26.6156 115.207 24.8094 113.399 22.5813 113.399C20.3531 113.399 18.5469 115.207 18.5469 117.437C18.5469 119.668 20.3531 121.475 22.5813 121.475Z" fill="#DDDFDF"/>
<path d="M100.254 103.368L44.6406 120.794V48.9746L100.254 31.6826V103.368Z" fill="#71717A" stroke="#18181B"/>
<path opacity="0.4" d="M155.266 48.9746V120.794L99.6523 103.368V31.6826L155.266 48.9746Z" fill="#71717A" stroke="#18181B"/>
<path opacity="0.13" d="M99.7109 103.003L45.3945 120.29V49.0215L99.7109 31.8672V103.003ZM155.027 49.0215V120.29L100.711 103.003V31.8672L155.027 49.0215Z" fill="url(#paint0_linear_9500_192505)" stroke="#18181B"/>
<path d="M100.17 66.96L87.5332 125.977L44.6406 121.165V49.5605L100.17 66.96Z" stroke="#18181B"/>
<path d="M155.266 121.012L112.379 113.26L99.7607 66.9512L155.266 49.5596V121.012Z" stroke="#18181B"/>
<path d="M100.254 66.9863V138.67L44.6406 121.244V49.5605L100.254 66.9863Z" fill="#FDFEFF" stroke="#18181B"/>
<path d="M155.266 121.243L99.6523 138.669V66.9854L155.266 49.5596V121.243Z" fill="#DDDFDF" stroke="#18181B"/>
<path d="M101.272 32.4199L45.8203 49.6621L19.3115 32.207L75.6484 13.2412L101.272 32.4199Z" fill="#DDDFDF" stroke="#18181B"/>
<path d="M182.197 30.6035L155.688 48.0596L100.236 30.8164L125.859 11.6377L182.197 30.6035Z" fill="#DDDFDF" stroke="#18181B"/>
<path d="M99.5801 66.7754L72.4473 84.082L17.7461 65.9336L44.21 49.4258L99.5801 66.7754Z" fill="#DDDFDF" stroke="#18181B"/>
<path d="M182.16 65.9326L127.46 84.0811L100.326 66.7744L155.696 49.4248L182.16 65.9326Z" fill="#DDDFDF" stroke="#18181B"/>
<path d="M26.6109 4.4597H23.0994V0.948242H20.0896V4.4597H16.5781V7.56986H20.0896V11.0813H23.0994V7.56986H26.6109V4.4597Z" fill="#DDDFDF"/>
<path d="M187.829 92.7595L183.532 90.5904L185.702 86.294L182.019 84.4348L179.85 88.7311L175.554 86.562L173.632 90.3673L177.929 92.5364L175.759 96.8328L179.442 98.692L181.611 94.3957L185.907 96.5648L187.829 92.7595Z" fill="#DDDFDF"/>
<path d="M97.6504 5.08203C98.1702 3.96509 99.7229 3.92615 100.312 4.9707L100.366 5.0752L106.452 17.9824C106.785 18.6875 107.426 19.1939 108.182 19.3584L108.334 19.3867L122.094 21.499C123.26 21.6781 123.76 23.061 123.019 23.9424L122.943 24.0264L112.788 34.4951C112.27 35.029 112.018 35.7634 112.096 36.498L112.116 36.6445L114.491 50.9717C114.691 52.1744 113.456 53.0836 112.381 52.5791L112.278 52.5254L100.222 45.7617C99.5093 45.362 98.6497 45.3367 97.9189 45.6865L97.7744 45.7617L85.7275 52.5215C84.6637 53.1185 83.3889 52.2652 83.499 51.082L83.5137 50.9668L85.9062 36.6475C86.0291 35.9121 85.8167 35.1631 85.333 34.6025L85.2334 34.4932L75.0645 24.0293C74.2411 23.1818 74.6791 21.7755 75.8037 21.5215L75.9141 21.501L89.7617 19.3877C90.5372 19.2693 91.2092 18.7943 91.5811 18.1104L91.6514 17.9707L97.6504 5.08203Z" fill="#DDDFDF" stroke="#18181B"/>
<defs>
<linearGradient id="paint0_linear_9500_192505" x1="82.7489" y1="36.4134" x2="74.9781" y2="68.2633" gradientUnits="userSpaceOnUse">
<stop offset="0.00289017" stop-color="#DDDFDF" stop-opacity="0"/>
<stop offset="1" stop-color="#DDDFDF"/>
</linearGradient>
</defs>
</svg>
