<svg width="190" height="152" viewBox="0 0 190 152" fill="none" xmlns="http://www.w3.org/2000/svg">
<path d="M166.929 27.7931C170.316 27.7931 173.061 25.0451 173.061 21.6553C173.061 18.2655 170.316 15.5176 166.929 15.5176C163.542 15.5176 160.797 18.2655 160.797 21.6553C160.797 25.0451 163.542 27.7931 166.929 27.7931Z" fill="#DDDFDF"/>
<path d="M4.03439 60.9852C6.26252 60.9852 8.06878 59.1773 8.06878 56.9472C8.06878 54.7171 6.26252 52.9092 4.03439 52.9092C1.80626 52.9092 0 54.7171 0 56.9472C0 59.1773 1.80626 60.9852 4.03439 60.9852Z" fill="#DDDFDF"/>
<path d="M22.5813 133.581C24.8094 133.581 26.6157 131.773 26.6157 129.543C26.6157 127.313 24.8094 125.505 22.5813 125.505C20.3531 125.505 18.5469 127.313 18.5469 129.543C18.5469 131.773 20.3531 133.581 22.5813 133.581Z" fill="#DDDFDF"/>
<path d="M100.254 115.474L44.6406 132.899V61.0801L100.254 43.7881V115.474Z" fill="#71717A" stroke="#18181B"/>
<path opacity="0.4" d="M155.266 61.0801V132.899L99.6523 115.474V43.7881L155.266 61.0801Z" fill="#71717A" stroke="#18181B"/>
<path d="M101.272 44.5254L45.8203 61.7676L19.3115 44.3125L75.6484 25.3467L101.272 44.5254Z" fill="#DDDFDF" stroke="#18181B"/>
<path d="M182.197 42.709L155.688 60.165L100.236 42.9219L125.859 23.7441L182.197 42.709Z" fill="#DDDFDF" stroke="#18181B"/>
<path opacity="0.09" d="M100.17 79.0654L87.5332 138.082L44.6406 133.271V61.666L100.17 79.0654Z" stroke="#18181B"/>
<path opacity="0.2" d="M155.266 133.117L112.378 125.365L99.7607 79.0566L155.266 61.665V133.117Z" stroke="#18181B"/>
<path opacity="0.13" d="M99.7109 115.108L45.3945 132.396V61.127L99.7109 43.9727V115.108ZM155.027 61.127V132.396L100.711 115.108V43.9727L155.027 61.127Z" fill="url(#paint0_linear_9500_192410)" stroke="#18181B"/>
<path d="M84.6826 0.501953C90.084 0.419082 95.2965 2.47031 99.1738 6.20215L99.5156 6.53125L99.8623 6.20703C103.597 2.71997 108.515 0.763801 113.631 0.71875L114.127 0.720703C119.255 0.799458 124.157 2.79541 127.859 6.29883L128.214 6.64258C129.988 8.40205 131.418 10.4707 132.434 12.7432L132.631 13.2002C133.655 15.6525 134.182 18.2812 134.182 20.9355C134.182 23.4243 133.718 25.8906 132.816 28.21L132.631 28.6719C131.671 30.9708 130.292 33.073 128.564 34.873L128.214 35.2285V35.2295L99.6562 63.5801C99.6389 63.5972 99.6188 63.6116 99.5957 63.6211L99.5225 63.6348H99.5176C99.493 63.6349 99.4688 63.6303 99.4463 63.6211L99.3867 63.582L99.3857 63.5811L70.8262 35.2295L70.4844 35.5732L70.8262 35.2285L70.8203 35.2236L70.4619 34.8701C66.9242 31.2919 64.8528 26.5356 64.6494 21.5273L64.6348 21.0254C64.5513 15.6665 66.616 10.4936 70.375 6.64453C74.0168 2.91564 78.9606 0.72526 84.1768 0.516602L84.6826 0.501953Z" fill="#DDDFDF" stroke="#18181B"/>
<path d="M100.254 79.0908V150.774L44.6406 133.349V61.665L100.254 79.0908Z" fill="#FDFEFF" stroke="#18181B"/>
<path d="M155.266 133.349L99.6523 150.774V79.0908L155.266 61.665V133.349Z" fill="#DDDFDF" stroke="#18181B"/>
<path d="M99.5811 78.8799L72.4473 96.1865L17.7461 78.0381L44.21 61.5303L99.5811 78.8799Z" fill="#DDDFDF" stroke="#18181B"/>
<path d="M182.161 78.0381L127.46 96.1865L100.326 78.8799L155.696 61.5303L182.161 78.0381Z" fill="#DDDFDF" stroke="#18181B"/>
<path d="M26.6109 16.5652H23.0994V13.0537H20.0896V16.5652H16.5781V19.6753H20.0896V23.1868H23.0994V19.6753H26.6109V16.5652Z" fill="#DDDFDF"/>
<path d="M187.833 104.865L183.536 102.696L185.705 98.3995L182.023 96.5402L179.854 100.837L175.557 98.6674L173.636 102.473L177.932 104.642L175.763 108.938L179.446 110.798L181.615 106.501L185.911 108.67L187.833 104.865Z" fill="#DDDFDF"/>
<defs>
<linearGradient id="paint0_linear_9500_192410" x1="82.749" y1="48.5189" x2="74.9782" y2="80.3688" gradientUnits="userSpaceOnUse">
<stop offset="0.00289017" stop-color="#606673" stop-opacity="0"/>
<stop offset="1" stop-color="#373C47"/>
</linearGradient>
</defs>
</svg>
