<svg width="24" height="24" viewBox="0 0 24 24" fill="none" xmlns="http://www.w3.org/2000/svg">
<path d="M18.1965 14.8624C17.9625 14.6953 17.7025 14.565 17.4166 14.4715C17.1381 14.3753 16.7972 14.3175 16.394 14.2983C15.9908 14.279 15.4888 14.2998 14.8881 14.3608C14.2895 14.4154 13.5621 14.5124 12.7061 14.6516C11.7675 14.8032 10.87 14.921 10.0138 15.005C9.15986 15.0826 8.35642 15.1094 7.60344 15.0854C6.84521 15.0576 6.15563 14.9642 5.53484 14.8053C4.90877 14.6428 4.36178 14.3943 3.89385 14.0603C3.43118 13.7299 3.14733 13.3811 3.04255 13.0139C2.94519 12.644 3.01492 12.2711 3.25164 11.8949C3.49063 11.5125 3.88751 11.1439 4.44204 10.7893C4.99155 10.4309 5.6932 10.1023 6.54713 9.80331C7.74997 9.38227 8.94169 9.13096 10.1224 9.0495C11.3105 8.96553 12.4011 9.02916 13.394 9.2404C14.3943 9.44901 15.2116 9.77974 15.8459 10.2326L13.0727 11.2036C12.6983 10.9363 12.2531 10.7408 11.737 10.6173C11.223 10.4874 10.6527 10.4436 10.026 10.4859C9.40663 10.5257 8.74803 10.6678 8.04996 10.9121C7.38921 11.1435 6.90992 11.3859 6.6122 11.6396C6.31448 11.8932 6.17752 12.1431 6.20133 12.3892C6.22525 12.6354 6.38792 12.8661 6.68947 13.0816C6.90262 13.2337 7.16817 13.3483 7.48598 13.4251C7.79865 13.4982 8.17508 13.5379 8.6155 13.5442C9.05066 13.5468 9.55232 13.5178 10.1204 13.4572C10.6884 13.3966 11.3292 13.3051 12.0428 13.1825C13.1284 13.0017 14.1198 12.8758 15.0168 12.8053C15.9086 12.731 16.7203 12.7178 17.4518 12.766C18.1832 12.8144 18.8423 12.9294 19.429 13.1112C20.0106 13.2895 20.53 13.5419 20.9876 13.8686C21.4659 14.2101 21.76 14.5663 21.8701 14.9373C21.9749 15.3045 21.9062 15.6743 21.6643 16.0468C21.4245 16.4128 21.0211 16.7726 20.4538 17.1262C19.8888 17.4735 19.1719 17.799 18.3032 18.1032C17.5235 18.3762 16.6823 18.5933 15.7793 18.7545C14.8838 18.9131 13.9797 18.9945 13.0671 18.9987C12.1491 18.999 11.2848 18.9033 10.4738 18.7115C9.65758 18.5158 8.94803 18.2026 8.34493 17.772L11.1404 16.7932C11.5096 17.0568 11.9133 17.2503 12.3514 17.3735C12.7971 17.4941 13.2663 17.5567 13.7595 17.5611C14.2473 17.5618 14.7456 17.5146 15.2543 17.4195C15.7703 17.3219 16.277 17.1859 16.7745 17.0117C17.428 16.7829 17.9087 16.5455 18.2169 16.2993C18.5325 16.0505 18.6846 15.8036 18.6734 15.5585C18.6621 15.3135 18.5032 15.0814 18.1965 14.8624Z" fill="#18181B"/>
<path d="M18.1921 14.8623L18.1211 14.8132V11.7988L18.1921 11.8479V14.8623Z" fill="white"/>
<path d="M18.1233 14.8142L18.0508 14.7674V11.7529L18.1233 11.7998V14.8142Z" fill="white"/>
<path d="M18.0545 14.768L17.9805 14.7234V11.709L18.0545 11.7535V14.768Z" fill="white"/>
<path d="M17.982 14.7229L17.9062 14.6804V11.666L17.982 11.7085V14.7229Z" fill="white"/>
<path d="M17.9014 14.6796L17.8242 14.6394V11.625L17.9014 11.6652V14.6796Z" fill="white"/>
<path d="M17.8249 14.6403L17.7461 14.6024V11.5879L17.8249 11.6259V14.6403Z" fill="white"/>
<path d="M17.7482 14.602L17.668 14.5663V11.5518L17.7482 11.5875V14.602Z" fill="white"/>
<path d="M17.664 14.5666L17.582 14.533V11.5186L17.664 11.552V14.5666Z" fill="white"/>
<path d="M17.5873 14.5322L17.5039 14.5008V11.4863L17.5873 11.5178V14.5322Z" fill="white"/>
<path d="M17.4991 14.5017L17.4141 14.4725V11.458L17.4991 11.4872V14.5017Z" fill="white"/>
<path d="M17.4174 14.4728L17.332 14.4451V11.4307L17.4174 11.4583V14.4728Z" fill="white"/>
<path d="M17.3275 14.445L17.2383 14.4197V11.4053L17.3275 11.4306V14.445Z" fill="white"/>
<path d="M17.2452 14.4183L17.1523 14.3953V11.3809L17.2452 11.4039V14.4183Z" fill="white"/>
<path d="M17.1474 14.3956L17.0508 14.3748V11.3604L17.1474 11.3812V14.3956Z" fill="white"/>
<path d="M17.0535 14.3746L16.9531 14.3562V11.3418L17.0535 11.3602V14.3746Z" fill="white"/>
<path d="M16.9479 14.3577L16.8438 14.3415V11.3271L16.9479 11.3433V14.3577Z" fill="white"/>
<path d="M16.8423 14.3408L16.7344 14.3269V11.3125L16.8423 11.3264V14.3408Z" fill="white"/>
<path d="M16.7366 14.3278L16.625 14.3163V11.3018L16.7366 11.3134V14.3278Z" fill="white"/>
<path d="M16.627 14.3147L16.5117 14.3054V11.291L16.627 11.3002V14.3147Z" fill="white"/>
<path d="M16.5137 14.3055L16.3945 14.2986V11.2842L16.5137 11.2911V14.3055Z" fill="white"/>
<path d="M16.3895 14.2992L16.2656 14.2947V11.2803L16.3895 11.2848V14.2992Z" fill="white"/>
<path d="M16.2666 14.294L16.1367 14.2919V11.2773L16.2666 11.2796V14.294Z" fill="white"/>
<path d="M16.1358 14.2919L16 14.2921V11.2776L16.1358 11.2773V14.2919Z" fill="white"/>
<path d="M16.0011 14.2919L15.8594 14.2945V11.28L16.0011 11.2773V14.2919Z" fill="white"/>
<path d="M15.8624 14.2948L15.7148 14.2998V11.2854L15.8624 11.2803V14.2948Z" fill="white"/>
<path d="M15.7122 14.2996L15.5586 14.307V11.2926L15.7122 11.2852V14.2996Z" fill="white"/>
<path d="M15.5618 14.3074L15.4023 14.3173V11.3028L15.5618 11.293V14.3074Z" fill="white"/>
<path d="M15.3998 14.3173L15.2344 14.3295V11.3151L15.3998 11.3027V14.3173Z" fill="white"/>
<path d="M15.2377 14.3298L15.0664 14.3445V11.3301L15.2377 11.3154V14.3298Z" fill="white"/>
<path d="M15.064 14.3445L14.8867 14.3616V11.3471L15.064 11.3301V14.3445Z" fill="white"/>
<path d="M14.8866 14.3612L14.7031 14.3788V11.3644L14.8866 11.3467V14.3612Z" fill="white"/>
<path d="M14.7068 14.3777L14.5156 14.3979V11.3835L14.7068 11.3633V14.3777Z" fill="white"/>
<path d="M14.5152 14.3982L14.3164 14.4209V11.4065L14.5152 11.3838V14.3982Z" fill="white"/>
<path d="M14.3122 14.4226L14.1055 14.448V11.4334L14.3122 11.4082V14.4226Z" fill="white"/>
<path d="M14.105 14.4481L13.8906 14.4759V11.4615L14.105 11.4336V14.4481Z" fill="white"/>
<path d="M13.89 14.4753L13.668 14.5057V11.4913L13.89 11.4609V14.4753Z" fill="white"/>
<path d="M13.6712 14.5066L13.4414 14.5395V11.5251L13.6712 11.4922V14.5066Z" fill="white"/>
<path d="M13.4407 14.5378L13.2031 14.5732V11.5588L13.4407 11.5234V14.5378Z" fill="white"/>
<path d="M13.2022 14.574L12.957 14.612V11.5975L13.2022 11.5596V14.574Z" fill="white"/>
<path d="M12.9561 14.6112L12.7031 14.6516V11.6372L12.9561 11.5967V14.6112Z" fill="white"/>
<path d="M12.7101 14.6521L12.4297 14.6966V11.6822L12.7101 11.6377V14.6521Z" fill="white"/>
<path d="M12.4263 14.696L12.1484 14.7385V11.724L12.4263 11.6816V14.696Z" fill="white"/>
<path d="M12.1466 14.7391L11.8711 14.7794V11.765L12.1466 11.7246V14.7391Z" fill="white"/>
<path d="M11.8705 14.779L11.5977 14.8174V11.803L11.8705 11.7646V14.779Z" fill="white"/>
<path d="M11.5947 14.8181L11.3242 14.8545V11.8401L11.5947 11.8037V14.8181Z" fill="white"/>
<path d="M11.3306 14.8542L11.0625 14.8886V11.8742L11.3306 11.8398V14.8542Z" fill="white"/>
<path d="M11.0623 14.8884L10.7969 14.9207V11.9063L11.0623 11.874V14.8884Z" fill="white"/>
<path d="M10.7904 14.9197L10.5273 14.9499V11.9355L10.7904 11.9053V14.9197Z" fill="white"/>
<path d="M10.5302 14.9509L10.2695 14.9792V11.9648L10.5302 11.9365V14.9509Z" fill="white"/>
<path d="M10.2698 14.9802L10.0117 15.0064V11.992L10.2698 11.9658V14.9802Z" fill="white"/>
<path d="M10.0086 15.0056L9.75391 15.0274V12.013L10.0086 11.9912V15.0056Z" fill="white"/>
<path d="M9.75557 15.0281L9.50391 15.0469V12.0323L9.75557 12.0137V15.0281Z" fill="white"/>
<path d="M9.50637 15.0458L9.25781 15.0614V12.0469L9.50637 12.0312V15.0458Z" fill="white"/>
<path d="M9.25729 15.0614L9.01172 15.074V12.0596L9.25729 12.0469V15.0614Z" fill="white"/>
<path d="M9.01602 15.0749L8.77344 15.0845V12.0701L9.01602 12.0605V15.0749Z" fill="white"/>
<path d="M8.77084 15.0837L8.53125 15.0902V12.0758L8.77084 12.0693V15.0837Z" fill="white"/>
<path d="M8.52945 15.0906L8.29297 15.094V12.0796L8.52945 12.0762V15.0906Z" fill="white"/>
<path d="M8.29599 15.0935L8.0625 15.094V12.0795L8.29599 12.0791V15.0935Z" fill="white"/>
<path d="M8.06241 15.0953L7.83203 15.0926V12.0781L8.06241 12.0808V15.0953Z" fill="white"/>
<path d="M7.82895 15.0924L7.60156 15.0867V12.0723L7.82895 12.0779V15.0924Z" fill="white"/>
<path d="M7.60047 15.0854L7.375 15.0751V12.0605L7.60047 12.071V15.0854Z" fill="white"/>
<path d="M7.37363 15.0756L7.15234 15.0614V12.0469L7.37363 12.0611V15.0756Z" fill="white"/>
<path d="M7.1546 15.0609L6.9375 15.0427V12.0283L7.1546 12.0464V15.0609Z" fill="white"/>
<path d="M6.93569 15.0424L6.72266 15.0203V12.0059L6.93569 12.028V15.0424Z" fill="white"/>
<path d="M6.72068 15.0209L6.51172 14.9949V11.9805L6.72068 12.0065V15.0209Z" fill="white"/>
<path d="M6.51337 14.9945L6.30859 14.9646V11.9502L6.51337 11.9801V14.9945Z" fill="white"/>
<path d="M6.31399 14.9644L6.11328 14.9305V11.916L6.31399 11.95V14.9644Z" fill="white"/>
<path d="M6.11059 14.9312L5.91406 14.8933V11.8789L6.11059 11.9167V14.9312Z" fill="white"/>
<path d="M5.91121 14.894L5.71875 14.8523V11.8379L5.91121 11.8796V14.894Z" fill="white"/>
<path d="M5.72343 14.8521L5.53516 14.8064V11.792L5.72343 11.8377V14.8521Z" fill="white"/>
<path d="M5.52915 14.8051L5.34375 14.7538V11.7393L5.52915 11.7907V14.8051Z" fill="white"/>
<path d="M5.34871 14.7546L5.16797 14.698V11.6836L5.34871 11.7401V14.7546Z" fill="white"/>
<path d="M5.16814 14.6981L4.99219 14.6365V11.6221L5.16814 11.6837V14.6981Z" fill="white"/>
<path d="M4.9916 14.6379L4.82031 14.5712V11.5566L4.9916 11.6235V14.6379Z" fill="white"/>
<path d="M4.81482 14.5698L4.64844 14.4978V11.4834L4.81482 11.5553V14.5698Z" fill="white"/>
<path d="M4.65391 14.4977L4.49219 14.4206V11.4062L4.65391 11.4833V14.4977Z" fill="white"/>
<path d="M4.48908 14.4209L4.33203 14.3387V11.3242L4.48908 11.4065V14.4209Z" fill="white"/>
<path d="M4.33184 14.3382L4.17969 14.2507V11.2363L4.33184 11.3236V14.3382Z" fill="white"/>
<path d="M4.17885 14.2515L4.03125 14.159V11.1445L4.17885 11.2371V14.2515Z" fill="white"/>
<path d="M4.03332 14.159L3.89062 14.0613V11.0469L4.03332 11.1445V14.159Z" fill="white"/>
<path d="M3.89521 14.0624L3.76172 13.9628V10.9482L3.89521 11.048V14.0624Z" fill="white"/>
<path d="M3.76335 13.9609L3.64062 13.8601V10.8457L3.76335 10.9464V13.9609Z" fill="white"/>
<path d="M3.6354 13.8605L3.52344 13.7585V10.7441L3.6354 10.8461V13.8605Z" fill="white"/>
<path d="M3.52307 13.76L3.42188 13.657V10.6426L3.52307 10.7456V13.76Z" fill="white"/>
<path d="M3.42649 13.6546L3.33594 13.5505V10.5361L3.42649 10.6402V13.6546Z" fill="white"/>
<path d="M3.32966 13.5503L3.25 13.4452V10.4307L3.32966 10.5359V13.5503Z" fill="white"/>
<path d="M3.25261 13.4469L3.18359 13.3406V10.3262L3.25261 10.4324V13.4469Z" fill="white"/>
<path d="M3.17947 13.3406L3.12109 13.2331V10.2188L3.17947 10.3262V13.3406Z" fill="white"/>
<path d="M3.12952 13.2332L3.08203 13.1248V10.1104L3.12952 10.2188V13.2332Z" fill="white"/>
<path d="M3.07981 13.1241L3.04297 13.0145V10L3.07981 10.1097V13.1241Z" fill="white"/>
<path d="M3.04369 13.0142L3.01953 12.9031V9.88867L3.04369 9.99967V13.0142Z" fill="white"/>
<path d="M3.01423 12.903L3 12.7917V9.77734L3.01423 9.88859V12.903Z" fill="white"/>
<path d="M3.00419 12.7928L3 12.6814V9.66699L3.00419 9.77835V12.7928Z" fill="white"/>
<path d="M3 12.6807L3.00598 12.5691V9.55469L3 9.66629V12.6807Z" fill="white"/>
<path d="M3.00781 12.5686L3.0236 12.4568V9.44238L3.00781 9.55422V12.5686Z" fill="white"/>
<path d="M3.01953 12.4574L3.04549 12.3455V9.33105L3.01953 9.44301V12.4574Z" fill="white"/>
<path d="M3.04688 12.3463L3.08288 12.2341V9.21973L3.04688 9.33192V12.3463Z" fill="white"/>
<path d="M3.08203 12.2333L3.12796 12.121V9.10645L3.08203 9.21888V12.2333Z" fill="white"/>
<path d="M3.13281 12.1212L3.18879 12.0087V8.99414L3.13281 9.1067V12.1212Z" fill="white"/>
<path d="M3.18359 12.009L3.24962 11.8962V8.88184L3.18359 8.99451V12.009Z" fill="white"/>
<path d="M3.25 11.8954L3.32643 11.781V8.7666L3.25 8.88095V11.8954Z" fill="white"/>
<path d="M3.32422 11.7822L3.4101 11.6688V8.6543L3.32422 8.76781V11.7822Z" fill="white"/>
<path d="M3.41406 11.6671L3.50951 11.5544V8.54004L3.41406 8.6526V11.6671Z" fill="white"/>
<path d="M3.50781 11.5559L3.61259 11.4441V8.42969L3.50781 8.54153V11.5559Z" fill="white"/>
<path d="M3.61328 11.4438L3.72763 11.3328V8.31836L3.61328 8.42936V11.4438Z" fill="white"/>
<path d="M3.72656 11.3316L3.85036 11.2215V8.20703L3.72656 8.3172V11.3316Z" fill="white"/>
<path d="M3.85156 11.2215L3.98481 11.1122V8.09766L3.85156 8.20698V11.2215Z" fill="white"/>
<path d="M3.98438 11.1132L4.12707 11.0048V7.99023L3.98438 8.09872V11.1132Z" fill="white"/>
<path d="M4.12891 11.0039L4.28106 10.8962V7.88184L4.12891 7.98937V11.0039Z" fill="white"/>
<path d="M4.27734 10.8966L4.43894 10.7898V7.77539L4.27734 7.88221V10.8966Z" fill="white"/>
<path d="M4.4375 10.7891L4.60699 10.6825V7.66797L4.4375 7.77466V10.7891Z" fill="white"/>
<path d="M4.61328 10.6838L4.79175 10.5789V7.56445L4.61328 7.66924V10.6838Z" fill="white"/>
<path d="M4.78516 10.5784L4.97283 10.4755V7.46094L4.78516 7.56404V10.5784Z" fill="white"/>
<path d="M4.97656 10.4751L5.17333 10.3738V7.35938L4.97656 7.46057V10.4751Z" fill="white"/>
<path d="M5.17578 10.3747L5.38176 10.2751V7.26074L5.17578 7.36026V10.3747Z" fill="white"/>
<path d="M5.37891 10.2752L5.59397 10.1776V7.16309L5.37891 7.26081V10.2752Z" fill="white"/>
<path d="M5.59375 10.1778L5.81791 10.0819V7.06738L5.59375 7.16331V10.1778Z" fill="white"/>
<path d="M5.82031 10.0813L6.05368 9.98717V6.97266L5.82031 7.06679V10.0813Z" fill="white"/>
<path d="M6.05078 9.98674L6.29324 9.8944V6.87988L6.05078 6.97222V9.98674Z" fill="white"/>
<path d="M6.29688 9.89511L6.54854 9.80444V6.79004L6.29688 6.88059V9.89511Z" fill="white"/>
<path d="M6.54688 9.80366L6.90739 9.68249V6.66797L6.54688 6.78926V9.80366Z" fill="white"/>
<path d="M6.90625 9.68314L7.26605 9.57202V6.55762L6.90625 6.66862V9.68314Z" fill="white"/>
<path d="M7.26953 9.57226L7.62873 9.47143V6.45703L7.26953 6.55787V9.57226Z" fill="white"/>
<path d="M7.62891 9.4703L7.98751 9.37963V6.36523L7.62891 6.4559V9.4703Z" fill="white"/>
<path d="M7.98047 9.38006L8.33835 9.29956V6.28516L7.98047 6.36566V9.38006Z" fill="white"/>
<path d="M8.33984 9.30055L8.69701 9.23034V6.21582L8.33984 6.28615V9.30055Z" fill="white"/>
<path d="M8.69922 9.22886L9.05579 9.1687V6.1543L8.69922 6.21434V9.22886Z" fill="white"/>
<path d="M9.05469 9.16975L9.41054 9.11987V6.10547L9.05469 6.15535V9.16975Z" fill="white"/>
<path d="M9.40625 9.11856L9.76138 9.07885V6.06445L9.40625 6.10417V9.11856Z" fill="white"/>
<path d="M9.76953 9.08008L10.1241 9.05053V6.03613L9.76953 6.06568V9.08008Z" fill="white"/>
<path d="M10.1211 9.04986L10.4747 9.02917V6.01465L10.1211 6.03546V9.04986Z" fill="white"/>
<path d="M10.4766 9.02929L10.8242 9.01733V6.00293L10.4766 6.01477V9.02929Z" fill="white"/>
<path d="M10.8242 9.01751L11.1661 9.01452V6L10.8242 6.00311V9.01751Z" fill="white"/>
<path d="M11.1641 9.01452L11.4999 9.02026V6.00586L11.1641 6V9.01452Z" fill="white"/>
<path d="M11.5 9.01928L11.8301 9.03399V6.01948L11.5 6.00488V9.01928Z" fill="white"/>
<path d="M11.8281 9.03503L12.1524 9.05847V6.04407L11.8281 6.02051V9.03503Z" fill="white"/>
<path d="M12.1523 9.05932L12.4706 9.09174V6.07722L12.1523 6.04492V9.05932Z" fill="white"/>
<path d="M12.4766 9.09069L12.7891 9.13184V6.11744L12.4766 6.07617V9.09069Z" fill="white"/>
<path d="M12.7891 9.13159L13.0958 9.1817V6.16731L12.7891 6.11719V9.13159Z" fill="white"/>
<path d="M13.0938 9.18237L13.3945 9.24134V6.22682L13.0938 6.16797V9.18237Z" fill="white"/>
<path d="M13.3945 9.24108L13.6891 9.30723V6.29283L13.3945 6.22656V9.24108Z" fill="white"/>
<path d="M13.6875 9.30639L13.9711 9.37995V6.36555L13.6875 6.29199V9.30639Z" fill="white"/>
<path d="M13.9688 9.38159L14.2415 9.46257V6.44817L13.9688 6.36719V9.38159Z" fill="white"/>
<path d="M14.2383 9.46069L14.4999 9.54896V6.53444L14.2383 6.44629V9.46069Z" fill="white"/>
<path d="M14.5078 9.54967L14.7585 9.64513V6.63073L14.5078 6.53516V9.54967Z" fill="white"/>
<path d="M14.7578 9.64623L14.9975 9.74922V6.7347L14.7578 6.63184V9.64623Z" fill="white"/>
<path d="M14.9961 9.74889L15.2248 9.85906V6.84466L14.9961 6.73438V9.74889Z" fill="white"/>
<path d="M15.2266 9.85815L15.4444 9.97573V6.96133L15.2266 6.84375V9.85815Z" fill="white"/>
<path d="M15.4453 9.97631L15.652 10.1012V7.08679L15.4453 6.96191V9.97631Z" fill="white"/>
<path d="M15.6484 10.1023L15.8442 10.2345V7.22006L15.6484 7.08789V10.1023Z" fill="white"/>
<path d="M15.8436 10.2331L13.0703 11.2042V8.18966L15.8436 7.21875V10.2331Z" fill="white"/>
<path d="M13.0715 11.2038L12.957 11.1257V8.11133L13.0715 8.18932V11.2038Z" fill="white"/>
<path d="M12.9624 11.1271L12.8438 11.0535V8.03906L12.9624 8.11274V11.1271Z" fill="white"/>
<path d="M12.8339 11.0526L12.7109 10.9833V7.96875L12.8339 8.03825V11.0526Z" fill="white"/>
<path d="M12.717 10.9829L12.5898 10.9177V7.90332L12.717 7.96839V10.9829Z" fill="white"/>
<path d="M12.5846 10.9189L12.4531 10.8581V7.84375L12.5846 7.90451V10.9189Z" fill="white"/>
<path d="M12.4561 10.857L12.3203 10.8005V7.78613L12.4561 7.84259V10.857Z" fill="white"/>
<path d="M12.3235 10.802L12.1836 10.7499V7.73535L12.3235 7.78762V10.802Z" fill="white"/>
<path d="M12.1832 10.7479L12.0391 10.7001V7.68555L12.1832 7.73339V10.7479Z" fill="white"/>
<path d="M12.0392 10.7006L11.8906 10.6571V7.64258L12.0392 7.68612V10.7006Z" fill="white"/>
<path d="M11.887 10.6573L11.7344 10.618V7.60352L11.887 7.64275V10.6573Z" fill="white"/>
<path d="M11.734 10.6173L11.5781 10.5808V7.56641L11.734 7.60277V10.6173Z" fill="white"/>
<path d="M11.5812 10.5818L11.4219 10.5505V7.53613L11.5812 7.56735V10.5818Z" fill="white"/>
<path d="M11.4204 10.5512L11.2578 10.5253V7.51074L11.4204 7.53682V10.5512Z" fill="white"/>
<path d="M11.2598 10.5236L11.0938 10.5027V7.48828L11.2598 7.50909V10.5236Z" fill="white"/>
<path d="M11.0953 10.5028L10.9258 10.4872V7.47266L11.0953 7.48845V10.5028Z" fill="white"/>
<path d="M10.9227 10.4879L10.75 10.4773V7.46289L10.9227 7.47342V10.4879Z" fill="white"/>
<path d="M10.7465 10.4778L10.5703 10.4724V7.45801L10.7465 7.46339V10.4778Z" fill="white"/>
<path d="M10.5741 10.4726L10.3945 10.4725V7.45801L10.5741 7.45825V10.4726Z" fill="white"/>
<path d="M10.3939 10.4725L10.2109 10.4774V7.46303L10.3939 7.45801V10.4725Z" fill="white"/>
<path d="M10.2136 10.4773L10.0273 10.4875V7.47294L10.2136 7.46289V10.4773Z" fill="white"/>
<path d="M10.0269 10.4862L9.83984 10.5011V7.48675L10.0269 7.47168V10.4862Z" fill="white"/>
<path d="M9.83767 10.5007L9.64844 10.5219V7.5075L9.83767 7.48633V10.5007Z" fill="white"/>
<path d="M9.64877 10.5232L9.45703 10.5505V7.53606L9.64877 7.50879V10.5232Z" fill="white"/>
<path d="M9.45183 10.5505L9.25781 10.5839V7.56951L9.45183 7.53613V10.5505Z" fill="white"/>
<path d="M9.26672 10.5847L9.07031 10.6243V7.6099L9.26672 7.57031V10.5847Z" fill="white"/>
<path d="M9.06599 10.6238L8.86719 10.6695V7.65507L9.06599 7.60938V10.6238Z" fill="white"/>
<path d="M8.86916 10.6687L8.66797 10.7205V7.70609L8.86916 7.6543V10.6687Z" fill="white"/>
<path d="M8.66831 10.7195L8.46484 10.7775V7.76297L8.66831 7.70508V10.7195Z" fill="white"/>
<path d="M8.45586 10.7782L8.25 10.8423V7.82779L8.45586 7.76367V10.7782Z" fill="white"/>
<path d="M8.25512 10.8426L8.04688 10.9129V7.89846L8.25512 7.82812V10.8426Z" fill="white"/>
<path d="M8.04817 10.9128L7.85547 10.9826V7.96817L8.04817 7.89844V10.9128Z" fill="white"/>
<path d="M7.85771 10.9822L7.67578 11.0526V8.03811L7.85771 7.96777V10.9822Z" fill="white"/>
<path d="M7.67886 11.0536L7.50781 11.1246V8.11023L7.67886 8.03906V11.0536Z" fill="white"/>
<path d="M7.50391 11.1248L7.34375 11.1965V8.182L7.50391 8.11035V11.1248Z" fill="white"/>
<path d="M7.34447 11.1962L7.19531 11.2685V8.25413L7.34447 8.18164V11.1962Z" fill="white"/>
<path d="M7.19699 11.2693L7.05859 11.3424V8.32797L7.19699 8.25488V11.2693Z" fill="white"/>
<path d="M7.05317 11.3415L6.92578 11.4153V8.40083L7.05317 8.32715V11.3415Z" fill="white"/>
<path d="M6.92912 11.4149L6.8125 11.4893V8.47479L6.92912 8.40039V11.4149Z" fill="white"/>
<path d="M6.80874 11.4901L6.70312 11.5651V8.5507L6.80874 8.47559V11.4901Z" fill="white"/>
<path d="M6.70411 11.5652L6.60938 11.641V8.6265L6.70411 8.55078V11.5652Z" fill="white"/>
<path d="M6.6157 11.6395L6.53125 11.7155V8.70107L6.6157 8.625V11.6395Z" fill="white"/>
<path d="M6.528 11.7165L6.45312 11.7923V8.77786L6.528 8.70215V11.7165Z" fill="white"/>
<path d="M6.45191 11.7927L6.38672 11.8683V8.8538L6.45191 8.77832V11.7927Z" fill="white"/>
<path d="M6.38765 11.8671L6.33203 11.9423V8.9279L6.38765 8.85254V11.8671Z" fill="white"/>
<path d="M6.33097 11.9441L6.28516 12.0192V9.00469L6.33097 8.92969V11.9441Z" fill="white"/>
<path d="M6.28636 12.0184L6.25 12.0933V9.07878L6.28636 9.00391V12.0184Z" fill="white"/>
<path d="M6.2453 12.0926L6.21875 12.1673V9.15276L6.2453 9.07812V12.0926Z" fill="white"/>
<path d="M6.22402 12.1678L6.20703 12.2422V9.22772L6.22402 9.15332V12.1678Z" fill="white"/>
<path d="M6.20261 12.2421L6.19531 12.3162V9.3017L6.20261 9.22754V12.2421Z" fill="white"/>
<path d="M6.19531 12.3153L6.19759 12.3892V9.37482L6.19531 9.30078V12.3153Z" fill="white"/>
<path d="M6.19922 12.3904L6.21058 12.4638V9.4493L6.19922 9.37598V12.3904Z" fill="white"/>
<path d="M6.21484 12.4637L6.23446 12.5362V9.5217L6.21484 9.44922V12.4637Z" fill="white"/>
<path d="M6.23047 12.536L6.25846 12.6075V9.59301L6.23047 9.52148V12.536Z" fill="white"/>
<path d="M6.25391 12.6083L6.29027 12.6788V9.66444L6.25391 9.59375V12.6083Z" fill="white"/>
<path d="M6.29688 12.6785L6.34149 12.7482V9.73368L6.29688 9.66406V12.6785Z" fill="white"/>
<path d="M6.33984 12.7469L6.39283 12.8156V9.8012L6.33984 9.73242V12.7469Z" fill="white"/>
<path d="M6.39062 12.8171L6.45187 12.8851V9.87056L6.39062 9.80273V12.8171Z" fill="white"/>
<path d="M6.45312 12.8846L6.52274 12.9515V9.9371L6.45312 9.87012V12.8846Z" fill="white"/>
<path d="M6.51953 12.9509L6.59752 13.0169V10.0024L6.51953 9.93652V12.9509Z" fill="white"/>
<path d="M6.60156 13.0174L6.68792 13.0825V10.068L6.60156 10.0029V13.0174Z" fill="white"/>
<path d="M6.69141 13.0819L6.75695 13.1264V10.1119L6.69141 10.0674V13.0819Z" fill="white"/>
<path d="M6.75391 13.1268L6.82256 13.169V10.1546L6.75391 10.1123V13.1268Z" fill="white"/>
<path d="M6.82031 13.1687L6.89208 13.2088V10.1942L6.82031 10.1543V13.1687Z" fill="white"/>
<path d="M6.89453 13.2089L6.96941 13.2465V10.2321L6.89453 10.1943V13.2089Z" fill="white"/>
<path d="M6.96875 13.2468L7.04686 13.2823V10.2679L6.96875 10.2324V13.2468Z" fill="white"/>
<path d="M7.04688 13.282L7.12809 13.3152V10.3007L7.04688 10.2676V13.282Z" fill="white"/>
<path d="M7.125 13.3153L7.20945 13.3463V10.3318L7.125 10.3008V13.3153Z" fill="white"/>
<path d="M7.21484 13.3465L7.30228 13.3753V10.3607L7.21484 10.332V13.3465Z" fill="white"/>
<path d="M7.30469 13.3768L7.39536 13.4033V10.3887L7.30469 10.3623V13.3768Z" fill="white"/>
<path d="M7.38672 13.4022L7.4805 13.4264V10.412L7.38672 10.3877V13.4022Z" fill="white"/>
<path d="M7.48438 13.4246L7.58007 13.4455V10.4311L7.48438 10.4102V13.4246Z" fill="white"/>
<path d="M7.57812 13.447L7.67764 13.4659V10.4515L7.57812 10.4326V13.447Z" fill="white"/>
<path d="M7.68359 13.4665L7.78706 13.4835V10.469L7.68359 10.4521V13.4665Z" fill="white"/>
<path d="M7.78516 13.4833L7.89233 13.4981V10.4837L7.78516 10.4688V13.4833Z" fill="white"/>
<path d="M7.89062 13.4978L8.00163 13.5107V10.4963L7.89062 10.4834V13.4978Z" fill="white"/>
<path d="M8 13.5105L8.11483 13.5215V10.507L8 10.4961V13.5105Z" fill="white"/>
<path d="M8.11719 13.5223L8.23596 13.5312V10.5168L8.11719 10.5078V13.5223Z" fill="white"/>
<path d="M8.23438 13.531L8.35686 13.5379V10.5234L8.23438 10.5166V13.531Z" fill="white"/>
<path d="M8.35938 13.537L8.48569 13.5419V10.5274L8.35938 10.5225V13.537Z" fill="white"/>
<path d="M8.48438 13.5428L8.61464 13.5457V10.5312L8.48438 10.5283V13.5428Z" fill="white"/>
<path d="M8.61719 13.5449L8.74972 13.5447V10.5303L8.61719 10.5304V13.5449Z" fill="white"/>
<path d="M8.75 13.5448L8.88648 13.5427V10.5283L8.75 10.5304V13.5448Z" fill="white"/>
<path d="M8.88672 13.5429L9.02727 13.5389V10.5244L8.88672 10.5285V13.5429Z" fill="white"/>
<path d="M9.02344 13.538L9.16793 13.5321V10.5176L9.02344 10.5234V13.538Z" fill="white"/>
<path d="M9.17188 13.5329L9.32044 13.5251V10.5107L9.17188 10.5184V13.5329Z" fill="white"/>
<path d="M9.3125 13.5241L9.46489 13.5144V10.5L9.3125 10.5097V13.5241Z" fill="white"/>
<path d="M9.46875 13.5151L9.62532 13.5037V10.4893L9.46875 10.5007V13.5151Z" fill="white"/>
<path d="M9.625 13.5025L9.7854 13.4891V10.4746L9.625 10.4881V13.5025Z" fill="white"/>
<path d="M9.78516 13.4898L9.94963 13.4744V10.46L9.78516 10.4753V13.4898Z" fill="white"/>
<path d="M9.95312 13.475L10.1215 13.4578V10.4434L9.95312 10.4606V13.475Z" fill="white"/>
<path d="M10.1133 13.4574L10.2859 13.4383V10.4238L10.1133 10.443V13.4574Z" fill="white"/>
<path d="M10.293 13.4397L10.4699 13.4188V10.4043L10.293 10.4252V13.4397Z" fill="white"/>
<path d="M10.4688 13.4172L10.6501 13.3944V10.3799L10.4688 10.4027V13.4172Z" fill="white"/>
<path d="M10.6523 13.3956L10.8381 13.3708V10.3564L10.6523 10.3811V13.3956Z" fill="white"/>
<path d="M10.8359 13.3701L11.026 13.3436V10.3291L10.8359 10.3557V13.3701Z" fill="white"/>
<path d="M11.0273 13.3436L11.2217 13.3152V10.3008L11.0273 10.3291V13.3436Z" fill="white"/>
<path d="M11.2188 13.3161L11.4175 13.2859V10.2715L11.2188 10.3017V13.3161Z" fill="white"/>
<path d="M11.4219 13.2858L11.6251 13.2538V10.2393L11.4219 10.2714V13.2858Z" fill="white"/>
<path d="M11.625 13.2536L11.8325 13.2196V10.2051L11.625 10.239V13.2536Z" fill="white"/>
<path d="M11.8281 13.2192L12.04 13.1833V10.1689L11.8281 10.2047V13.2192Z" fill="white"/>
<path d="M12.0391 13.1832L12.3619 13.1306V10.1162L12.0391 10.1688V13.1832Z" fill="white"/>
<path d="M12.3633 13.1312L12.6805 13.0819V10.0674L12.3633 10.1168V13.1312Z" fill="white"/>
<path d="M12.6875 13.0819L12.9991 13.0359V10.0215L12.6875 10.0674V13.0819Z" fill="white"/>
<path d="M12.9922 13.0346L13.298 12.9919V9.97754L12.9922 10.0202V13.0346Z" fill="white"/>
<path d="M13.2969 12.9922L13.5971 12.9529V9.93848L13.2969 9.97783V12.9922Z" fill="white"/>
<path d="M13.6016 12.9529L13.8962 12.9169V9.90234L13.6016 9.93847V12.9529Z" fill="white"/>
<path d="M13.8906 12.9174L14.1795 12.8846V9.87012L13.8906 9.90289V12.9174Z" fill="white"/>
<path d="M14.1797 12.8838L14.4629 12.8542V9.83984L14.1797 9.86927V12.8838Z" fill="white"/>
<path d="M14.4648 12.8541L14.7425 12.828V9.81348L14.4648 9.83967V12.8541Z" fill="white"/>
<path d="M14.7422 12.8302L15.0141 12.8074V9.79297L14.7422 9.8157V12.8302Z" fill="white"/>
<path d="M15.0156 12.8063L15.2808 12.7859V9.77148L15.0156 9.79194V12.8063Z" fill="white"/>
<path d="M15.2812 12.7861L15.5417 12.7694V9.75488L15.2812 9.77175V12.7861Z" fill="white"/>
<path d="M15.5391 12.7688L15.7946 12.7556V9.74121L15.5391 9.75425V12.7688Z" fill="white"/>
<path d="M15.7969 12.7553L16.0476 12.7458V9.73145L15.7969 9.74089V12.7553Z" fill="white"/>
<path d="M16.0508 12.7467L16.2967 12.741V9.72656L16.0508 9.7323V12.7467Z" fill="white"/>
<path d="M16.293 12.7402L16.534 12.7382V9.72363L16.293 9.72579V12.7402Z" fill="white"/>
<path d="M16.5312 12.7382L16.7675 12.7397V9.72531L16.5312 9.72363V12.7382Z" fill="white"/>
<path d="M16.7695 12.741L17.0011 12.7462V9.73183L16.7695 9.72656V12.741Z" fill="white"/>
<path d="M17 12.7458L17.2265 12.7548V9.74042L17 9.73145V12.7458Z" fill="white"/>
<path d="M17.2305 12.7546L17.4524 12.7672V9.75279L17.2305 9.74023V12.7546Z" fill="white"/>
<path d="M17.4453 12.7683L17.6627 12.7848V9.77041L17.4453 9.75391V12.7683Z" fill="white"/>
<path d="M17.668 12.783L17.8809 12.8034V9.78901L17.668 9.76855V12.783Z" fill="white"/>
<path d="M17.8828 12.8025L18.0913 12.827V9.81261L17.8828 9.78809V12.8025Z" fill="white"/>
<path d="M18.0859 12.8279L18.2902 12.8563V9.84194L18.0859 9.81348V12.8279Z" fill="white"/>
<path d="M18.293 12.8562L18.4928 12.8887V9.87433L18.293 9.8418V12.8562Z" fill="white"/>
<path d="M18.4961 12.8894L18.6917 12.926V9.91148L18.4961 9.875V12.8894Z" fill="white"/>
<path d="M18.6875 12.9257L18.8788 12.9661V9.95168L18.6875 9.91113V12.9257Z" fill="white"/>
<path d="M18.8828 12.9665L19.0696 13.0112V9.99676L18.8828 9.95215V12.9665Z" fill="white"/>
<path d="M19.0664 13.0105L19.2489 13.0591V10.0445L19.0664 9.99609V13.0105Z" fill="white"/>
<path d="M19.25 13.0604L19.4281 13.1129V10.0985L19.25 10.0459V13.0604Z" fill="white"/>
<path d="M19.4297 13.113L19.6023 13.1688V10.1543L19.4297 10.0986V13.113Z" fill="white"/>
<path d="M19.6016 13.1669L19.7705 13.2269V10.2125L19.6016 10.1523V13.1669Z" fill="white"/>
<path d="M19.7656 13.2283L19.9308 13.293V10.2785L19.7656 10.2139V13.2283Z" fill="white"/>
<path d="M19.9375 13.2928L20.0989 13.3619V10.3473L19.9375 10.2783V13.2928Z" fill="white"/>
<path d="M20.0938 13.3602L20.2515 13.4337V10.4193L20.0938 10.3457V13.3602Z" fill="white"/>
<path d="M20.2578 13.4353L20.4118 13.5133V10.4989L20.2578 10.4209V13.4353Z" fill="white"/>
<path d="M20.4062 13.5134L20.5566 13.5958V10.5814L20.4062 10.499V13.5134Z" fill="white"/>
<path d="M20.5547 13.5955L20.7012 13.6823V10.6679L20.5547 10.5811V13.5955Z" fill="white"/>
<path d="M20.707 13.6824L20.8499 13.7738V10.7594L20.707 10.668V13.6824Z" fill="white"/>
<path d="M20.8438 13.7732L20.9829 13.869V10.8545L20.8438 10.7588V13.7732Z" fill="white"/>
<path d="M20.9844 13.868L21.1224 13.9709V10.9565L20.9844 10.8535V13.868Z" fill="white"/>
<path d="M21.125 13.9714L21.2519 14.0753V11.0607L21.125 10.957V13.9714Z" fill="white"/>
<path d="M21.2461 14.076L21.3619 14.1807V11.1662L21.2461 11.0615V14.076Z" fill="white"/>
<path d="M21.3711 14.1815L21.476 14.287V11.2726L21.3711 11.167V14.1815Z" fill="white"/>
<path d="M21.4727 14.2859L21.5664 14.3923V11.3779L21.4727 11.2715V14.2859Z" fill="white"/>
<path d="M21.5703 14.3923L21.653 14.4996V11.4852L21.5703 11.3779V14.3923Z" fill="white"/>
<path d="M21.6484 14.5007L21.7202 14.609V11.5945L21.6484 11.4863V14.5007Z" fill="white"/>
<path d="M21.7188 14.6083L21.7793 14.7174V11.7028L21.7188 11.5938V14.6083Z" fill="white"/>
<path d="M21.7773 14.7167L21.827 14.8266V11.8121L21.7773 11.7021V14.7167Z" fill="white"/>
<path d="M21.832 14.827L21.8705 14.9378V11.9234L21.832 11.8125V14.827Z" fill="white"/>
<path d="M21.8672 14.9382L21.8934 15.0485V12.0341L21.8672 11.9238V14.9382Z" fill="white"/>
<path d="M21.8945 15.0476L21.9104 15.158V12.1436L21.8945 12.0332V15.0476Z" fill="white"/>
<path d="M21.9141 15.158L21.9194 15.2685V12.2541L21.9141 12.1436V15.158Z" fill="white"/>
<path d="M21.919 15.2693L21.9141 15.38V12.3655L21.919 12.2549V15.2693Z" fill="white"/>
<path d="M21.91 15.3788L21.8945 15.4897V12.4751L21.91 12.3643V15.3788Z" fill="white"/>
<path d="M21.9008 15.4911L21.875 15.6021V12.5876L21.9008 12.4766V15.4911Z" fill="white"/>
<path d="M21.8682 15.6014L21.832 15.7126V12.6982L21.8682 12.5869V15.6014Z" fill="white"/>
<path d="M21.8317 15.7136L21.7852 15.825V12.8106L21.8317 12.6992V15.7136Z" fill="white"/>
<path d="M21.7875 15.824L21.7305 15.9354V12.9211L21.7875 12.8096V15.824Z" fill="white"/>
<path d="M21.7314 15.9363L21.6641 16.048V13.0335L21.7314 12.9219V15.9363Z" fill="white"/>
<path d="M21.6627 16.0467L21.5859 16.1563V13.1419L21.6627 13.0322V16.0467Z" fill="white"/>
<path d="M21.5867 16.158L21.5 16.2673V13.2529L21.5867 13.1436V16.158Z" fill="white"/>
<path d="M21.4989 16.2654L21.4023 16.3742V13.3598L21.4989 13.251V16.2654Z" fill="white"/>
<path d="M21.3993 16.3748L21.293 16.4832V13.4688L21.3993 13.3604V16.3748Z" fill="white"/>
<path d="M21.2958 16.4831L21.1797 16.5913V13.5769L21.2958 13.4688V16.4831Z" fill="white"/>
<path d="M21.1845 16.5925L21.0586 16.7003V13.6859L21.1845 13.5781V16.5925Z" fill="white"/>
<path d="M21.0576 16.699L20.9219 16.8064V13.792L21.0576 13.6846V16.699Z" fill="white"/>
<path d="M20.919 16.8064L20.7734 16.9133V13.8989L20.919 13.792V16.8064Z" fill="white"/>
<path d="M20.7726 16.9128L20.6172 17.0195V14.0051L20.7726 13.8984V16.9128Z" fill="white"/>
<path d="M20.6184 17.0212L20.4531 17.1275V14.1131L20.6184 14.0068V17.0212Z" fill="white"/>
<path d="M20.4475 17.1277L20.2734 17.2313V14.2167L20.4475 14.1133V17.1277Z" fill="white"/>
<path d="M20.277 17.2313L20.0938 17.3335V14.3191L20.277 14.2168V17.2313Z" fill="white"/>
<path d="M20.0946 17.3328L19.9023 17.4337V14.4193L20.0946 14.3184V17.3328Z" fill="white"/>
<path d="M19.9006 17.4333L19.6992 17.533V14.5186L19.9006 14.4189V17.4333Z" fill="white"/>
<path d="M19.6988 17.5339L19.4883 17.6323V14.6179L19.6988 14.5195V17.5339Z" fill="white"/>
<path d="M19.4891 17.6326L19.2695 17.7297V14.7152L19.4891 14.6182V17.6326Z" fill="white"/>
<path d="M19.2678 17.7284L19.0391 17.8241V14.8097L19.2678 14.7139V17.7284Z" fill="white"/>
<path d="M19.0387 17.824L18.8008 17.9185V14.9041L19.0387 14.8096V17.824Z" fill="white"/>
<path d="M18.8016 17.9187L18.5547 18.0119V14.9975L18.8016 14.9043V17.9187Z" fill="white"/>
<path d="M18.5608 18.0124L18.3047 18.1043V15.0899L18.5608 14.998V18.0124Z" fill="white"/>
<path d="M18.3061 18.1042L18.0703 18.1845V15.17L18.3061 15.0898V18.1042Z" fill="white"/>
<path d="M18.0676 18.1844L17.8281 18.2612V15.2468L18.0676 15.1699V18.1844Z" fill="white"/>
<path d="M17.8251 18.2605L17.582 18.3341V15.3197L17.8251 15.2461V18.2605Z" fill="white"/>
<path d="M17.5789 18.3337L17.332 18.4038V15.3894L17.5789 15.3193V18.3337Z" fill="white"/>
<path d="M17.3365 18.405L17.0859 18.4719V15.4575L17.3365 15.3906V18.405Z" fill="white"/>
<path d="M17.0823 18.4714L16.8281 18.5348V15.5204L17.0823 15.457V18.4714Z" fill="white"/>
<path d="M16.8282 18.5339L16.5703 18.5941V15.5796L16.8282 15.5195V18.5339Z" fill="white"/>
<path d="M16.5742 18.5956L16.3125 18.6523V15.6379L16.5742 15.5811V18.5956Z" fill="white"/>
<path d="M16.3161 18.6511L16.0508 18.7046V15.6901L16.3161 15.6367V18.6511Z" fill="white"/>
<path d="M16.0464 18.7059L15.7773 18.7559V15.7415L16.0464 15.6914V18.7059Z" fill="white"/>
<path d="M15.7806 18.7546L15.5117 18.7998V15.7854L15.7806 15.7402V18.7546Z" fill="white"/>
<path d="M15.5078 18.8015L15.2383 18.8422V15.8278L15.5078 15.7871V18.8015Z" fill="white"/>
<path d="M15.2387 18.8415L14.9688 18.8776V15.8632L15.2387 15.8271V18.8415Z" fill="white"/>
<path d="M14.9658 18.8777L14.6953 18.909V15.8946L14.9658 15.8633V18.8777Z" fill="white"/>
<path d="M14.7006 18.908L14.4297 18.9347V15.9202L14.7006 15.8936V18.908Z" fill="white"/>
<path d="M14.4317 18.9344L14.1602 18.9564V15.9421L14.4317 15.9199V18.9344Z" fill="white"/>
<path d="M14.1587 18.9568L13.8867 18.9742V15.9598L14.1587 15.9424V18.9568Z" fill="white"/>
<path d="M13.8819 18.9734L13.6094 18.9863V15.9718L13.8819 15.959V18.9734Z" fill="white"/>
<path d="M13.6128 18.9882L13.3398 18.9963V15.9819L13.6128 15.9736V18.9882Z" fill="white"/>
<path d="M13.3361 18.9958L13.0625 18.9994V15.9849L13.3361 15.9814V18.9958Z" fill="white"/>
<path d="M13.0668 18.9987L12.793 18.996V15.9814L13.0668 15.9842V18.9987Z" fill="white"/>
<path d="M12.794 18.9966L12.5234 18.988V15.9736L12.794 15.9821V18.9966Z" fill="white"/>
<path d="M12.5212 18.9876L12.2539 18.9734V15.959L12.5212 15.9732V18.9876Z" fill="white"/>
<path d="M12.2563 18.9739L11.9922 18.9539V15.9395L12.2563 15.9595V18.9739Z" fill="white"/>
<path d="M11.9874 18.9543L11.7266 18.9285V15.9141L11.9874 15.9399V18.9543Z" fill="white"/>
<path d="M11.7265 18.9278L11.4688 18.8962V15.8818L11.7265 15.9134V18.9278Z" fill="white"/>
<path d="M11.4733 18.8956L11.2188 18.8581V15.8438L11.4733 15.8812V18.8956Z" fill="white"/>
<path d="M11.2162 18.8593L10.9648 18.8163V15.8018L11.2162 15.8449V18.8593Z" fill="white"/>
<path d="M10.9629 18.8153L10.7148 18.7664V15.752L10.9629 15.8008V18.8153Z" fill="white"/>
<path d="M10.7136 18.7674L10.4688 18.7128V15.6982L10.7136 15.753V18.7674Z" fill="white"/>
<path d="M10.4722 18.7125L10.2305 18.6503V15.6357L10.4722 15.6979V18.7125Z" fill="white"/>
<path d="M10.2313 18.6502L9.99609 18.5809V15.5664L10.2313 15.6357V18.6502Z" fill="white"/>
<path d="M9.99847 18.5811L9.76953 18.5048V15.4902L9.99847 15.5665V18.5811Z" fill="white"/>
<path d="M9.76936 18.5041L9.54688 18.4208V15.4062L9.76936 15.4896V18.5041Z" fill="white"/>
<path d="M9.54415 18.4214L9.32812 18.3309V15.3164L9.54415 15.4068V18.4214Z" fill="white"/>
<path d="M9.32297 18.3308L9.11328 18.2333V15.2188L9.32297 15.3162V18.3308Z" fill="white"/>
<path d="M9.1135 18.2332L8.91016 18.1287V15.1143L9.1135 15.2187V18.2332Z" fill="white"/>
<path d="M8.91564 18.1289L8.71875 18.0173V15.0029L8.91564 15.1145V18.1289Z" fill="white"/>
<path d="M8.71789 18.0178L8.52734 17.8993V14.8848L8.71789 15.0034V18.0178Z" fill="white"/>
<path d="M8.52393 17.8989L8.33984 17.7732V14.7588L8.52393 14.8844V17.8989Z" fill="white"/>
<path d="M8.33984 17.7735L11.1353 16.7947V13.7803L8.33984 14.7591V17.7735Z" fill="white"/>
<path d="M11.1406 16.7947L11.2525 16.8717V13.8573L11.1406 13.7803V16.7947Z" fill="white"/>
<path d="M11.25 16.8708L11.3639 16.9436V13.9292L11.25 13.8564V16.8708Z" fill="white"/>
<path d="M11.3672 16.9441L11.4831 17.0126V13.9982L11.3672 13.9297V16.9441Z" fill="white"/>
<path d="M11.4805 17.0115L11.5984 17.0758V14.0614L11.4805 13.9971V17.0115Z" fill="white"/>
<path d="M11.5977 17.0769L11.7177 17.1371V14.1227L11.5977 14.0625V17.0769Z" fill="white"/>
<path d="M11.7227 17.1374L11.8448 17.1933V14.1789L11.7227 14.123V17.1374Z" fill="white"/>
<path d="M11.8398 17.1921L11.964 17.2439V14.2294L11.8398 14.1777V17.1921Z" fill="white"/>
<path d="M11.9609 17.245L12.0873 17.2925V14.278L11.9609 14.2305V17.245Z" fill="white"/>
<path d="M12.0938 17.2919L12.2221 17.3352V14.3206L12.0938 14.2773V17.2919Z" fill="white"/>
<path d="M12.2227 17.3348L12.353 17.3738V14.3594L12.2227 14.3203V17.3348Z" fill="white"/>
<path d="M12.3516 17.3738L12.486 17.4082V14.3938L12.3516 14.3594V17.3738Z" fill="white"/>
<path d="M12.4883 17.408L12.624 17.4389V14.4245L12.4883 14.3936V17.408Z" fill="white"/>
<path d="M12.625 17.4402L12.7623 17.4677V14.4533L12.625 14.4258V17.4402Z" fill="white"/>
<path d="M12.7578 17.4675L12.8964 17.4916V14.477L12.7578 14.4531V17.4675Z" fill="white"/>
<path d="M12.8945 17.4911L13.0346 17.5115V14.4971L12.8945 14.4766V17.4911Z" fill="white"/>
<path d="M13.0391 17.5115L13.1806 17.5285V14.5141L13.0391 14.4971V17.5115Z" fill="white"/>
<path d="M13.1797 17.529L13.3226 17.5426V14.5282L13.1797 14.5146V17.529Z" fill="white"/>
<path d="M13.3242 17.5427L13.4686 17.5528V14.5384L13.3242 14.5283V17.5427Z" fill="white"/>
<path d="M13.4648 17.5515L13.6107 17.5581V14.5437L13.4648 14.5371V17.5515Z" fill="white"/>
<path d="M13.6094 17.5593L13.7566 17.5624V14.5479L13.6094 14.5449V17.5593Z" fill="white"/>
<path d="M13.7578 17.5616L13.9045 17.5604V14.5459L13.7578 14.5471V17.5616Z" fill="white"/>
<path d="M13.9102 17.5616L14.0574 17.5574V14.543L13.9102 14.547V17.5616Z" fill="white"/>
<path d="M14.0508 17.5555L14.1987 17.5486V14.5342L14.0508 14.5411V17.5555Z" fill="white"/>
<path d="M14.2031 17.5507L14.3517 17.5409V14.5264L14.2031 14.5363V17.5507Z" fill="white"/>
<path d="M14.3516 17.5389L14.5007 17.5261V14.5117L14.3516 14.5244V17.5389Z" fill="white"/>
<path d="M14.4961 17.527L14.6459 17.5115V14.4971L14.4961 14.5126V17.527Z" fill="white"/>
<path d="M14.6484 17.5115L14.7989 17.493V14.4785L14.6484 14.4971V17.5115Z" fill="white"/>
<path d="M14.7969 17.4938L14.9479 17.4724V14.458L14.7969 14.4793V17.4938Z" fill="white"/>
<path d="M14.9453 17.4713L15.097 17.4471V14.4326L14.9453 14.4569V17.4713Z" fill="white"/>
<path d="M15.1016 17.4468L15.2538 17.4197V14.4053L15.1016 14.4323V17.4468Z" fill="white"/>
<path d="M15.2539 17.4199L15.4084 17.3895V14.375L15.2539 14.4055V17.4199Z" fill="white"/>
<path d="M15.4102 17.3899L15.5641 17.3572V14.3428L15.4102 14.3754V17.3899Z" fill="white"/>
<path d="M15.5586 17.3571L15.7121 17.322V14.3076L15.5586 14.3427V17.3571Z" fill="white"/>
<path d="M15.7148 17.3204L15.8676 17.2831V14.2686L15.7148 14.306V17.3204Z" fill="white"/>
<path d="M15.8633 17.2846L16.0157 17.2449V14.2305L15.8633 14.2701V17.2846Z" fill="white"/>
<path d="M16.0195 17.2439L16.1712 17.202V14.1875L16.0195 14.2295V17.2439Z" fill="white"/>
<path d="M16.168 17.2042L16.3192 17.1599V14.1455L16.168 14.1896V17.2042Z" fill="white"/>
<path d="M16.3203 17.1586L16.471 17.1121V14.0977L16.3203 14.1442V17.1586Z" fill="white"/>
<path d="M16.4766 17.112L16.6266 17.0632V14.0488L16.4766 14.0976V17.112Z" fill="white"/>
<path d="M16.625 17.0627L16.7745 17.0116V13.9971L16.625 14.0483V17.0627Z" fill="white"/>
<path d="M16.7734 17.0131L16.9643 16.9442V13.9297L16.7734 13.9986V17.0131Z" fill="white"/>
<path d="M16.9648 16.9433L17.1453 16.8738V13.8594L16.9648 13.9288V16.9433Z" fill="white"/>
<path d="M17.1406 16.8754L17.3107 16.8055V13.791L17.1406 13.861V16.8754Z" fill="white"/>
<path d="M17.3125 16.8037L17.4723 16.7333V13.7188L17.3125 13.7892V16.8037Z" fill="white"/>
<path d="M17.4766 16.7339L17.626 16.6628V13.6484L17.4766 13.7194V16.7339Z" fill="white"/>
<path d="M17.625 16.6621L17.764 16.5907V13.5762L17.625 13.6477V16.6621Z" fill="white"/>
<path d="M17.7617 16.5914L17.8904 16.5193V13.5049L17.7617 13.5769V16.5914Z" fill="white"/>
<path d="M17.8906 16.5185L18.009 16.446V13.4316L17.8906 13.5041V16.5185Z" fill="white"/>
<path d="M18.0156 16.4469L18.1236 16.3738V13.3594L18.0156 13.4325V16.4469Z" fill="white"/>
<path d="M18.1172 16.3741L18.2148 16.3005V13.2861L18.1172 13.3597V16.3741Z" fill="white"/>
<path d="M18.2188 16.3L18.3085 16.2253V13.2109L18.2188 13.2856V16.3Z" fill="white"/>
<path d="M18.3047 16.2247L18.3847 16.1503V13.1357L18.3047 13.2103V16.2247Z" fill="white"/>
<path d="M18.3867 16.1513L18.4568 16.0769V13.0625L18.3867 13.1368V16.1513Z" fill="white"/>
<path d="M18.4531 16.077L18.5135 16.0027V12.9883L18.4531 13.0626V16.077Z" fill="white"/>
<path d="M18.5195 16.0026L18.57 15.9286V12.9141L18.5195 12.9882V16.0026Z" fill="white"/>
<path d="M18.5625 15.9293L18.6033 15.8552V12.8408L18.5625 12.9147V15.9293Z" fill="white"/>
<path d="M18.6016 15.8539L18.6325 15.78V12.7656L18.6016 12.8395V15.8539Z" fill="white"/>
<path d="M18.6367 15.7806L18.6578 15.7068V12.6924L18.6367 12.7662V15.7806Z" fill="white"/>
<path d="M18.6562 15.7053L18.6676 15.6316V12.6172L18.6562 12.6909V15.7053Z" fill="white"/>
<path d="M18.6718 15.5593L18.6641 15.4862V12.4717L18.6718 12.5449V15.5593Z" fill="white"/>
<path d="M18.6613 15.4853L18.6445 15.413V12.3984L18.6613 12.4708V15.4853Z" fill="white"/>
<path d="M18.6505 15.4132L18.625 15.3415V12.3271L18.6505 12.3987V15.4132Z" fill="white"/>
<path d="M18.6242 15.343L18.5898 15.2723V12.2578L18.6242 12.3286V15.343Z" fill="white"/>
<path d="M18.5863 15.27L18.543 15.1999V12.1855L18.5863 12.2555V15.27Z" fill="white"/>
<path d="M18.5404 15.2018L18.4883 15.1327V12.1182L18.5404 12.1874V15.2018Z" fill="white"/>
<path d="M18.4946 15.1308L18.4336 15.0623V12.0479L18.4946 12.1163V15.1308Z" fill="white"/>
<path d="M18.4292 15.0645L18.3594 14.9969V11.9824L18.4292 12.0501V15.0645Z" fill="white"/>
<path d="M18.3639 14.9964L18.2852 14.9296V11.915L18.3639 11.9819V14.9964Z" fill="white"/>
<path d="M18.2829 14.9292L18.1953 14.863V11.8486L18.2829 11.9147V14.9292Z" fill="white"/>
<path d="M18.1965 11.8487C17.9625 11.6816 17.7025 11.5512 17.4166 11.4577C17.1381 11.3617 16.7972 11.3039 16.394 11.2846C15.9908 11.2654 15.4888 11.2862 14.8881 11.3471C14.2895 11.4017 13.5621 11.4987 12.7061 11.638C11.7675 11.7895 10.87 11.9073 10.0138 11.9913C9.15986 12.0689 8.35642 12.0957 7.60344 12.0717C6.84521 12.0438 6.15563 11.9505 5.53484 11.7917C4.90877 11.629 4.36178 11.3807 3.89385 11.0466C3.43118 10.7161 3.14733 10.3673 3.04255 10.0001C2.94519 9.63036 3.01492 9.25728 3.25164 8.88121C3.49063 8.49869 3.88751 8.13016 4.44204 7.77562C4.99155 7.41725 5.6932 7.08855 6.54713 6.78964C7.74997 6.36848 8.94169 6.11729 10.1224 6.03583C11.3105 5.95186 12.4011 6.01549 13.394 6.22661C14.3943 6.43522 15.2116 6.76595 15.8459 7.21893L13.0727 8.18984C12.6983 7.92262 12.2531 7.72717 11.737 7.60349C11.223 7.47359 10.6527 7.42981 10.026 7.47216C9.40663 7.51199 8.74803 7.65409 8.04996 7.89846C7.38921 8.1298 6.90992 8.37225 6.6122 8.62584C6.31448 8.87954 6.17752 9.12941 6.20133 9.37558C6.22525 9.62175 6.38792 9.85248 6.68947 10.0678C6.90262 10.2201 7.16817 10.3345 7.48598 10.4114C7.79865 10.4845 8.17508 10.5242 8.6155 10.5305C9.05066 10.5331 9.55232 10.504 10.1204 10.4435C10.6884 10.383 11.3292 10.2913 12.0428 10.1689C13.1284 9.98788 14.1198 9.86217 15.0168 9.7916C15.9086 9.7172 16.7203 9.70416 17.4518 9.75236C18.1832 9.80057 18.8423 9.91564 19.429 10.0976C20.0106 10.2757 20.53 10.5282 20.9876 10.8548C21.4659 11.1965 21.76 11.5527 21.8701 11.9236C21.9749 12.2908 21.9062 12.6605 21.6643 13.033C21.4245 13.3992 21.0211 13.759 20.4538 14.1125C19.8888 14.4597 19.1719 14.7854 18.3032 15.0896C17.5235 15.3625 16.6823 15.5796 15.7793 15.7409C14.8838 15.8993 13.9797 15.9808 13.0671 15.9849C12.1491 15.9853 11.2848 15.8897 10.4738 15.6977C9.65758 15.5021 8.94803 15.189 8.34493 14.7583L11.1404 13.7795C11.5096 14.0432 11.9133 14.2366 12.3514 14.3598C12.7971 14.4805 13.2663 14.5429 13.7595 14.5473C14.2473 14.5481 14.7456 14.5009 15.2543 14.4058C15.7703 14.3081 16.277 14.1721 16.7745 13.998C17.428 13.7692 17.9087 13.5317 18.2169 13.2856C18.5325 13.0369 18.6846 12.7898 18.6734 12.5449C18.6621 12.2998 18.5032 12.0677 18.1965 11.8487Z" fill="#18181B"/>
</svg>
