<svg width="24" height="24" viewBox="0 0 24 24" fill="none" xmlns="http://www.w3.org/2000/svg">
<path d="M6.68985 10.3695L17.6152 18.0701L14.9253 18.9997L4 11.2991L6.68985 10.3695ZM17.8352 11.5388L19.3284 12.5913L12.277 15.028L10.7838 13.9755L17.8352 11.5388ZM13.9448 7.8623L15.4455 8.92004L7.50467 11.6643L6.00392 10.6064L13.9448 7.8623Z" fill="#18181B"/>
<path d="M6.68985 7.50717L17.6152 15.2078L14.9253 16.1374L4 8.43665L6.68985 7.50717ZM17.8352 8.67635L19.3284 9.72886L12.277 12.1657L10.7838 11.1132L17.8352 8.67635ZM13.9448 5L15.4455 6.05774L7.50467 8.80199L6.00392 7.74414L13.9448 5Z" fill="#18181B"/>
<path d="M6.69141 10.3707L17.6167 18.0713V15.2085L6.69141 7.50781V10.3707Z" fill="white"/>
<path d="M17.6195 18.0699L14.9297 18.9995V16.1366L17.6195 15.207V18.0699Z" fill="white"/>
<path d="M14.9253 19.0001L4 11.2995V8.43652L14.9253 16.1373V19.0001Z" fill="white"/>
<path d="M4 11.3003L6.68985 10.3707V7.50781L4 8.43729V11.3003Z" fill="white"/>
<path d="M17.8359 11.5397L19.3291 12.5922V9.72927L17.8359 8.67676V11.5397Z" fill="white"/>
<path d="M19.3326 12.5925L12.2812 15.0292V12.1663L19.3326 9.72949V12.5925Z" fill="white"/>
<path d="M12.2784 15.0277L10.7852 13.9752V11.1123L12.2784 12.1648V15.0277Z" fill="white"/>
<path d="M10.7852 13.9765L17.8366 11.5397V8.67676L10.7852 11.1136V13.9765Z" fill="white"/>
<path d="M13.9453 7.86285L15.4461 8.92059V6.05774L13.9453 5V7.86285Z" fill="white"/>
<path d="M15.4448 8.92047L7.50391 11.6647V8.80187L15.4448 6.05762V8.92047Z" fill="white"/>
<path d="M7.50857 11.6648L6.00781 10.607V7.74414L7.50857 8.80199V11.6648Z" fill="white"/>
<path d="M6.00781 10.607L13.9487 7.86285V5L6.00781 7.74414V10.607Z" fill="white"/>
<path d="M14.8205 16.3176L4.05078 8.4758L13.9758 5.02539L15.454 6.07097L8.90772 8.99859L11.5474 10.8806L17.7769 8.58036L19.3607 9.7305L13.2367 11.9262L15.6652 13.8083L17.6713 15.2721L14.8205 16.3176Z" fill="#18181B"/>
</svg>
