<svg width="24" height="24" viewBox="0 0 24 24" fill="none" xmlns="http://www.w3.org/2000/svg">
<path d="M16.1457 14.2619L12.2852 15.6134V12.8566L16.1457 11.5049V14.2619Z" fill="white"/>
<path d="M12.2866 15.6132L10.8672 14.5996V11.8428L12.2866 12.8563V15.6132Z" fill="white"/>
<path d="M10.8672 14.5998L14.7279 13.2482V10.4912L10.8672 11.8429V14.5998Z" fill="white"/>
<path d="M14.7266 13.2488L14.9221 13.1779V10.4209L14.7266 10.4918V13.2488Z" fill="white"/>
<path d="M14.9219 13.178L15.1051 13.1066V10.3496L14.9219 10.421V13.178Z" fill="white"/>
<path d="M15.1094 13.1053L15.2803 13.0333V10.2764L15.1094 10.3483V13.1053Z" fill="white"/>
<path d="M15.2734 13.0346L15.4321 12.9621V10.2051L15.2734 10.2776V13.0346Z" fill="white"/>
<path d="M15.4375 12.9629L15.5839 12.8898V10.1328L15.4375 10.2059V12.9629Z" fill="white"/>
<path d="M15.5781 12.8882L15.7121 12.8146V10.0576L15.5781 10.1312V12.8882Z" fill="white"/>
<path d="M15.7188 12.8145L15.8404 12.7403V9.9834L15.7188 10.0576V12.8145Z" fill="white"/>
<path d="M15.8398 12.7398L15.9492 12.6651V9.9082L15.8398 9.98292V12.7398Z" fill="white"/>
<path d="M15.9453 12.6661L16.0425 12.5909V9.83398L15.9453 9.90925V12.6661Z" fill="white"/>
<path d="M16.0469 12.5905L16.1317 12.5147V9.75781L16.0469 9.83362V12.5905Z" fill="white"/>
<path d="M16.1289 12.5147L16.2024 12.4385V9.68164L16.1289 9.75778V12.5147Z" fill="white"/>
<path d="M16.1992 12.4386L16.2627 12.3623V9.60547L16.1992 9.68172V12.4386Z" fill="white"/>
<path d="M16.2695 12.3625L16.3227 12.2862V9.5293L16.2695 9.60565V12.3625Z" fill="white"/>
<path d="M16.3203 12.2865L16.3634 12.2101V9.45312L16.3203 9.52959V12.2865Z" fill="white"/>
<path d="M16.3594 12.2104L16.3924 12.1338V9.37695L16.3594 9.45342V12.2104Z" fill="white"/>
<path d="M16.3945 12.1323L16.4173 12.0557V9.29883L16.3945 9.3754V12.1323Z" fill="white"/>
<path d="M16.4219 12.0562L16.4346 11.9795V9.22266L16.4219 9.29934V12.0562Z" fill="white"/>
<path d="M16.4336 11.9802L16.4361 11.9034V9.14648L16.4336 9.22328V11.9802Z" fill="white"/>
<path d="M16.4333 11.9031L16.4258 11.8262V9.06934L16.4333 9.14624V11.9031Z" fill="white"/>
<path d="M16.4241 11.8251L16.4062 11.7482V8.99121L16.4241 9.06823V11.8251Z" fill="white"/>
<path d="M16.4091 11.7496L16.3828 11.671V8.91406L16.4091 8.99261V11.7496Z" fill="white"/>
<path d="M16.3861 11.6709L16.3516 11.5928V8.83594L16.3861 8.91394V11.6709Z" fill="white"/>
<path d="M16.3474 11.5924L16.3047 11.5147V8.75781L16.3474 8.83548V11.5924Z" fill="white"/>
<path d="M16.301 11.5148L16.25 11.4375V8.68066L16.301 8.7579V11.5148Z" fill="white"/>
<path d="M16.2544 11.4382L16.1953 11.3615V8.60449L16.2544 8.68129V11.4382Z" fill="white"/>
<path d="M16.1962 11.3597L16.1289 11.2833V8.52637L16.1962 8.60273V11.3597Z" fill="white"/>
<path d="M16.1262 11.2849L16.0508 11.209V8.45215L16.1262 8.52796V11.2849Z" fill="white"/>
<path d="M16.0563 11.2083L15.9727 11.1328V8.37598L16.0563 8.45146V11.2083Z" fill="white"/>
<path d="M15.9708 11.1327L15.8789 11.0577V8.30078L15.9708 8.37583V11.1327Z" fill="white"/>
<path d="M15.8773 11.058L15.7773 10.9835V8.22656L15.8773 8.30117V11.058Z" fill="white"/>
<path d="M15.7804 10.9839L15.6797 10.9151V8.1582L15.7804 8.2269V10.9839Z" fill="white"/>
<path d="M15.6796 10.9145L15.5742 10.8487V8.0918L15.6796 8.15765V10.9145Z" fill="white"/>
<path d="M15.571 10.849L15.4609 10.7862V8.0293L15.571 8.09209V10.849Z" fill="white"/>
<path d="M15.4583 10.7855L15.3438 10.7256V7.96875L15.4583 8.02859V10.7855Z" fill="white"/>
<path d="M15.3458 10.7268L15.2266 10.67V7.91309L15.3458 7.96997V10.7268Z" fill="white"/>
<path d="M15.2255 10.6691L15.1016 10.6153V7.8584L15.2255 7.91222V10.6691Z" fill="white"/>
<path d="M15.105 10.6144L14.9766 10.5635V7.80664L15.105 7.85751V10.6144Z" fill="white"/>
<path d="M14.9769 10.5646L14.8438 10.5166V7.75977L14.9769 7.80768V10.5646Z" fill="white"/>
<path d="M14.8409 10.5177L14.7031 10.4728V7.71582L14.8409 7.76078V10.5177Z" fill="white"/>
<path d="M14.7009 10.4727L14.5586 10.4307V7.67383L14.7009 7.71573V10.4727Z" fill="white"/>
<path d="M14.5637 10.4305L14.418 10.3908V7.63379L14.5637 7.67361V10.4305Z" fill="white"/>
<path d="M14.4146 10.3895L14.2656 10.3545V7.59766L14.4146 7.63255V10.3895Z" fill="white"/>
<path d="M14.2657 10.3554L14.1133 10.3252V7.56836L14.2657 7.59855V10.3554Z" fill="white"/>
<path d="M14.1126 10.3262L13.957 10.3008V7.54395L14.1126 7.56933V10.3262Z" fill="white"/>
<path d="M13.9597 10.2989L13.8008 10.2784V7.52148L13.9597 7.54205V10.2989Z" fill="white"/>
<path d="M13.8029 10.2785L13.6406 10.2627V7.50586L13.8029 7.52161V10.2785Z" fill="white"/>
<path d="M13.6342 10.263L13.4688 10.2521V7.49512L13.6342 7.50617V10.263Z" fill="white"/>
<path d="M13.4736 10.2514L13.3047 10.2452V7.48828L13.4736 7.49441V10.2514Z" fill="white"/>
<path d="M13.3049 10.2456L13.1328 10.2443V7.4873L13.3049 7.48873V10.2456Z" fill="white"/>
<path d="M13.1324 10.2443L12.957 10.2477V7.49081L13.1324 7.4873V10.2443Z" fill="white"/>
<path d="M12.9557 10.2491L12.7773 10.2581V7.50116L12.9557 7.49219V10.2491Z" fill="white"/>
<path d="M12.7745 10.256L12.5938 10.2715V7.51467L12.7745 7.49902V10.256Z" fill="white"/>
<path d="M12.6012 10.2715L12.418 10.2935V7.53664L12.6012 7.51465V10.2715Z" fill="white"/>
<path d="M12.4161 10.295L12.2305 10.3235V7.56653L12.4161 7.53809V10.295Z" fill="white"/>
<path d="M12.2233 10.3234L12.0352 10.3583V7.60141L12.2233 7.56641V10.3234Z" fill="white"/>
<path d="M12.0421 10.3575L11.8516 10.3989V7.64205L12.0421 7.60059V10.3575Z" fill="white"/>
<path d="M11.8532 10.3994L11.6602 10.4474V7.69049L11.8532 7.64258V10.3994Z" fill="white"/>
<path d="M11.6565 10.4473L11.4609 10.5018V7.74491L11.6565 7.69043V10.4473Z" fill="white"/>
<path d="M11.4596 10.501L11.2617 10.5619V7.80496L11.4596 7.74414V10.501Z" fill="white"/>
<path d="M11.263 10.5626L11.0625 10.6299V7.87305L11.263 7.80566V10.5626Z" fill="white"/>
<path d="M11.0606 10.6309L7.98438 11.7079V8.95102L11.0606 7.87402V10.6309Z" fill="white"/>
<path d="M7.98438 11.7071L16.9428 18.1041V15.3472L7.98438 8.9502V11.7071Z" fill="white"/>
<path d="M16.9396 18.1036L14.3828 18.9987V16.2419L16.9396 15.3467V18.1036Z" fill="white"/>
<path d="M14.3849 18.9997L4 11.5841V8.82715L14.3849 16.2428V18.9997Z" fill="white"/>
<path d="M4 11.5835L9.63298 9.61136V6.85449L4 8.82656V11.5835Z" fill="white"/>
<path d="M9.63672 9.61187L9.98011 9.49624V6.73926L9.63672 6.855V9.61187Z" fill="white"/>
<path d="M9.98047 9.49569L10.322 9.38968V6.63281L9.98047 6.73871V9.49569Z" fill="white"/>
<path d="M10.3203 9.39014L10.6601 9.29398V6.53711L10.3203 6.63327V9.39014Z" fill="white"/>
<path d="M10.6641 9.29447L11.0019 9.20804V6.45117L10.6641 6.53759V9.29447Z" fill="white"/>
<path d="M11 9.20856L11.3361 9.13198V6.375L11 6.45169V9.20856Z" fill="white"/>
<path d="M11.332 9.13144L11.6663 9.06449V6.30762L11.332 6.37446V9.13144Z" fill="white"/>
<path d="M11.6719 9.06409L12.0042 9.00687V6.25L11.6719 6.30721V9.06409Z" fill="white"/>
<path d="M12 9.0065L12.3306 8.95913V6.20215L12 6.24963V9.0065Z" fill="white"/>
<path d="M12.3281 8.95965L12.6569 8.92191V6.16504L12.3281 6.20267V8.95965Z" fill="white"/>
<path d="M12.6562 8.92149L12.9831 8.89359V6.13672L12.6562 6.16461V8.92149Z" fill="white"/>
<path d="M12.9883 8.89354L13.3123 8.87319V6.11621L12.9883 6.13667V8.89354Z" fill="white"/>
<path d="M13.3086 8.87209L13.6277 8.86039V6.10352L13.3086 6.11511V8.87209Z" fill="white"/>
<path d="M13.6289 8.86041L13.9429 8.85757V6.10059L13.6289 6.10354V8.86041Z" fill="white"/>
<path d="M13.9453 8.85757L14.2542 8.86336V6.10649L13.9453 6.10059V8.85757Z" fill="white"/>
<path d="M14.2578 8.86332L14.5616 8.87798V6.12099L14.2578 6.10645V8.86332Z" fill="white"/>
<path d="M14.5547 8.88003L14.8536 8.90333V6.14646L14.5547 6.12305V8.88003Z" fill="white"/>
<path d="M14.8594 8.90336L15.1531 8.93552V6.17854L14.8594 6.14648V8.90336Z" fill="white"/>
<path d="M15.1523 8.93374L15.4411 8.97454V6.21767L15.1523 6.17676V8.93374Z" fill="white"/>
<path d="M15.4375 8.97562L15.7212 9.02529V6.26831L15.4375 6.21875V8.97562Z" fill="white"/>
<path d="M15.7227 9.02554L16.0013 9.08384V6.32697L15.7227 6.26855V9.02554Z" fill="white"/>
<path d="M16 9.08304L16.2704 9.14846V6.39159L16 6.32617V9.08304Z" fill="white"/>
<path d="M16.2695 9.14847L16.5316 9.22144V6.46457L16.2695 6.3916V9.14847Z" fill="white"/>
<path d="M16.5312 9.22172L16.785 9.30212V6.54525L16.5312 6.46484V9.22172Z" fill="white"/>
<path d="M16.7852 9.30277L17.0306 9.39072V6.63374L16.7852 6.5459V9.30277Z" fill="white"/>
<path d="M17.0352 9.38979L17.2722 9.48508V6.72821L17.0352 6.63281V9.38979Z" fill="white"/>
<path d="M17.2695 9.48539L17.4983 9.58822V6.83135L17.2695 6.72852V9.48539Z" fill="white"/>
<path d="M17.5 9.5889L17.7204 9.69928V6.94241L17.5 6.83203V9.5889Z" fill="white"/>
<path d="M17.7188 9.69828L17.9308 9.8161V7.05912L17.7188 6.94141V9.69828Z" fill="white"/>
<path d="M17.9297 9.81753L18.1334 9.94279V7.18591L17.9297 7.06055V9.81753Z" fill="white"/>
<path d="M18.1328 9.94242L18.3281 10.0752V7.31824L18.1328 7.18555V9.94242Z" fill="white"/>
<path d="M18.3281 10.0753L18.5201 10.2191V7.46221L18.3281 7.31836V10.0753Z" fill="white"/>
<path d="M18.5195 10.2178L18.6931 10.362V7.60501L18.5195 7.46094V10.2178Z" fill="white"/>
<path d="M18.6914 10.3615L18.8467 10.506V7.749L18.6914 7.60449V10.3615Z" fill="white"/>
<path d="M18.8477 10.507L18.9846 10.6518V7.89484L18.8477 7.75V10.507Z" fill="white"/>
<path d="M18.9844 10.6505L19.103 10.7957V8.03872L18.9844 7.89355V10.6505Z" fill="white"/>
<path d="M19.1016 10.798L19.2019 10.9435V8.18662L19.1016 8.04102V10.798Z" fill="white"/>
<path d="M19.2031 10.9434L19.2851 11.0893V8.33235L19.2031 8.18652V10.9434Z" fill="white"/>
<path d="M19.2891 11.088L19.3526 11.2343V8.47732L19.2891 8.33105V11.088Z" fill="white"/>
<path d="M19.3516 11.2335L19.3969 11.38V8.62315L19.3516 8.47656V11.2335Z" fill="white"/>
<path d="M19.3945 11.3819L19.4214 11.5289V8.77192L19.3945 8.625V11.3819Z" fill="white"/>
<path d="M19.4219 11.5275L19.4305 11.6742V8.91732L19.4219 8.77051V11.5275Z" fill="white"/>
<path d="M19.4316 11.6748L19.4219 11.8209V9.0639L19.4316 8.91797V11.6748Z" fill="white"/>
<path d="M19.4225 11.8205L19.3945 11.9657V9.20886L19.4225 9.06348V11.8205Z" fill="white"/>
<path d="M19.3901 11.9659L19.3438 12.1105V9.3535L19.3901 9.20898V11.9659Z" fill="white"/>
<path d="M19.3498 12.1105L19.2852 12.2544V9.49737L19.3498 9.35352V12.1105Z" fill="white"/>
<path d="M19.286 12.255L19.2031 12.3981V9.64125L19.286 9.49805V12.255Z" fill="white"/>
<path d="M19.199 12.3975L19.0977 12.5399V9.78295L19.199 9.64062V12.3975Z" fill="white"/>
<path d="M19.1 12.5412L18.9805 12.6828V9.92596L19.1 9.78418V12.5412Z" fill="white"/>
<path d="M18.9817 12.6817L18.8438 12.8227V10.0657L18.9817 9.9248V12.6817Z" fill="white"/>
<path d="M18.8437 12.8234L18.6875 12.9635V10.2067L18.8437 10.0664V12.8234Z" fill="white"/>
<path d="M18.6881 12.9629L18.5156 13.1012V10.3443L18.6881 10.2061V12.9629Z" fill="white"/>
<path d="M18.5108 13.1016L18.3203 13.238V10.481L18.5108 10.3447V13.1016Z" fill="white"/>
<path d="M18.3258 13.2384L18.1172 13.3729V10.616L18.3258 10.4814V13.2384Z" fill="white"/>
<path d="M18.1095 13.3721L17.8828 13.5048V10.7479L18.1095 10.6152V13.3721Z" fill="white"/>
<path d="M17.8894 13.5039L17.6445 13.6347V10.8778L17.8894 10.7471V13.5039Z" fill="white"/>
<path d="M17.6457 13.6358L17.3828 13.7648V11.0079L17.6457 10.8789V13.6358Z" fill="white"/>
<path d="M17.3786 13.7647L17.0977 13.8917V11.1348L17.3786 11.0078V13.7647Z" fill="white"/>
<path d="M17.096 13.8907L16.7969 14.0159V11.259L17.096 11.1338V13.8907Z" fill="white"/>
<path d="M16.7976 14.0166L16.4805 14.1399V11.3831L16.7976 11.2598V14.0166Z" fill="white"/>
<path d="M16.4798 14.1397L16.1445 14.2612V11.5042L16.4798 11.3828V14.1397Z" fill="white"/>
<path d="M16.145 14.2625L12.2844 15.6141L10.865 14.6005L14.7257 13.2489C15.3979 13.0135 15.8651 12.769 16.1272 12.5153C16.3892 12.2616 16.4822 12.0064 16.4061 11.7498C16.332 11.4872 16.1214 11.2321 15.7743 10.9842C15.4461 10.7499 15.0411 10.5654 14.5588 10.4306C14.0786 10.29 13.5434 10.2295 12.9532 10.2489C12.3631 10.2682 11.7318 10.3957 11.0595 10.631L7.9833 11.708L16.9417 18.105L14.3849 19.0002L4 11.5846L9.63298 9.61242C10.7807 9.21061 11.8978 8.97125 12.9844 8.89446C14.0731 8.81186 15.0776 8.87509 15.9979 9.08426C16.9135 9.29003 17.6898 9.6203 18.327 10.0754C18.9974 10.5541 19.3623 11.0386 19.4215 11.529C19.4808 12.0193 19.2346 12.4976 18.6834 12.9639C18.1388 13.4278 17.2926 13.8607 16.145 14.2625Z" fill="white"/>
<path d="M16.145 11.5036L12.2844 12.8553L10.865 11.8417L14.7257 10.49C15.3979 10.2547 15.8651 10.0102 16.1272 9.75654C16.3892 9.50286 16.4822 9.24764 16.4061 8.99089C16.332 8.72845 16.1214 8.47323 15.7743 8.22534C15.4461 7.99112 15.0411 7.80657 14.5588 7.6718C14.0786 7.53122 13.5434 7.47062 12.9532 7.49009C12.3631 7.50945 11.7318 7.63679 11.0595 7.87221L7.9833 8.94921L16.9417 15.3462L14.3849 16.2414L4 8.8257L9.63298 6.85363C10.7807 6.45182 11.8978 6.21246 12.9844 6.13567C14.0731 6.05308 15.0776 6.11631 15.9979 6.32547C16.9135 6.53113 17.6898 6.86151 18.327 7.31648C18.9974 7.79531 19.3623 8.27982 19.4215 8.77013C19.4808 9.26044 19.2346 9.73882 18.6834 10.2051C18.1388 10.669 17.2926 11.1018 16.145 11.5036Z" fill="white"/>
<path d="M16.1684 11.4031L12.3078 12.7547L10.8884 11.7411L14.7491 10.3896C15.4213 10.1541 15.8886 9.90965 16.1507 9.65596C16.4127 9.40227 16.5057 9.14705 16.4295 8.89041C16.3555 8.62786 16.1449 8.37275 15.7978 8.12486C15.4696 7.89054 15.0645 7.70599 14.5823 7.57121C14.102 7.43064 13.5669 7.37014 12.9767 7.38951C12.3865 7.40887 11.7553 7.53631 11.0829 7.77162L8.00674 8.84862L16.9651 15.2456L14.4083 16.1408L4.02344 8.72522L9.65642 6.75304C10.8041 6.35124 11.9212 6.11188 13.0079 6.03508C14.0966 5.95249 15.101 6.01572 16.0214 6.22488C16.9369 6.43066 17.7133 6.76092 18.3504 7.21601C19.0209 7.69472 19.3857 8.17923 19.4449 8.66965C19.5042 9.15996 19.258 9.63824 18.7068 10.1045C18.1622 10.5684 17.3161 11.0013 16.1684 11.4031Z" fill="#18181B"/>
</svg>
