<svg width="24" height="24" viewBox="0 0 24 24" fill="none" xmlns="http://www.w3.org/2000/svg">
<path d="M17.6243 11.0051L18.2066 11.4209C19.0074 11.9927 19.5768 12.5579 19.9146 13.1163C20.2522 13.6746 20.3671 14.2103 20.2591 14.7233C20.1581 15.2338 19.8418 15.7087 19.3101 16.148C18.7737 16.5837 18.0376 16.9654 17.1019 17.293C16.1731 17.6181 15.2075 17.8322 14.2051 17.9352C13.2048 18.0324 12.2007 18.0198 11.1927 17.8975C10.1847 17.7752 9.20691 17.5416 8.25913 17.1968C7.31838 16.8497 6.44753 16.3901 5.6467 15.8183L5.06427 15.4023C4.26344 14.8305 3.70011 14.2659 3.37406 13.7085C3.04332 13.1478 2.93188 12.6109 3.03985 12.0979C3.14995 11.579 3.46975 11.1029 3.99925 10.6697C4.53076 10.2304 5.26102 9.84829 6.18982 9.52302C7.12554 9.19541 8.09711 8.98191 9.10429 8.88231C10.1067 8.77936 11.1108 8.79186 12.1167 8.92005C13.1177 9.04477 14.0852 9.28194 15.0191 9.63167C15.955 9.97536 16.8234 10.4332 17.6243 11.0051ZM15.5969 12.3347L14.9999 11.9083C14.4078 11.4855 13.8029 11.1421 13.1852 10.878C12.5695 10.608 11.9493 10.4197 11.3248 10.313C10.7022 10.2004 10.0846 10.1686 9.47177 10.218C8.85406 10.2638 8.25756 10.3874 7.68228 10.5888C7.107 10.7902 6.67409 11.027 6.38377 11.2991C6.08854 11.5678 5.93679 11.8688 5.92853 12.2022C5.92239 12.5297 6.0642 12.8855 6.35407 13.2696C6.63914 13.6501 7.07775 14.0518 7.66989 14.4746L8.26683 14.901C8.85897 15.3237 9.4663 15.669 10.0889 15.9365C10.7114 16.204 11.34 16.3945 11.9743 16.5082C12.6107 16.616 13.2342 16.6481 13.845 16.6048C14.4509 16.558 15.0414 16.4338 15.6168 16.2324C16.199 16.0286 16.6377 15.7924 16.933 15.5237C17.2233 15.2516 17.3691 14.95 17.3705 14.619C17.3669 14.2845 17.2167 13.9265 16.9199 13.5449C16.63 13.1608 16.1891 12.7574 15.5969 12.3347Z" fill="#18181B"/>
<path d="M17.625 11.0045L18.2073 11.4203V8.60637L17.625 8.19043V11.0045Z" fill="white"/>
<path d="M18.1992 11.4214L18.4326 11.5928V8.77871L18.1992 8.60742V11.4214Z" fill="white"/>
<path d="M18.4375 11.5934L18.6569 11.7643V8.95025L18.4375 8.7793V11.5934Z" fill="white"/>
<path d="M18.6562 11.7623L18.8617 11.9328V9.11886L18.6562 8.94824V11.7623Z" fill="white"/>
<path d="M18.8594 11.9341L19.051 12.1043V9.29018L18.8594 9.12012V11.9341Z" fill="white"/>
<path d="M19.0508 12.1041L19.2285 12.2739V9.45988L19.0508 9.29004V12.1041Z" fill="white"/>
<path d="M19.2305 12.273L19.3944 12.4422V9.62826L19.2305 9.45898V12.273Z" fill="white"/>
<path d="M19.3945 12.4429L19.5444 12.6118V9.79785L19.3945 9.62891V12.4429Z" fill="white"/>
<path d="M19.5469 12.6109L19.683 12.7793V9.96537L19.5469 9.79688V12.6109Z" fill="white"/>
<path d="M19.6797 12.7808L19.8018 12.9489V10.135L19.6797 9.9668V12.7808Z" fill="white"/>
<path d="M19.8008 12.9487L19.9091 13.1165V10.3025L19.8008 10.1348V12.9487Z" fill="white"/>
<path d="M19.9141 13.1157L20.0086 13.2826V10.4686L19.9141 10.3018V13.1157Z" fill="white"/>
<path d="M20.0039 13.2837L20.0852 13.4492V10.6352L20.0039 10.4697V13.2837Z" fill="white"/>
<path d="M20.0859 13.4487L20.1538 13.6129V10.7988L20.0859 10.6348V13.4487Z" fill="white"/>
<path d="M20.1562 13.6119L20.2107 13.7746V10.9607L20.1562 10.7979V13.6119Z" fill="white"/>
<path d="M20.2109 13.7749L20.2521 13.9363V11.1223L20.2109 10.9609V13.7749Z" fill="white"/>
<path d="M20.25 13.937L20.2777 14.097V11.2831L20.25 11.123V13.937Z" fill="white"/>
<path d="M20.2773 14.0972L20.2917 14.2558V11.4419L20.2773 11.2832V14.0972Z" fill="white"/>
<path d="M20.2936 14.4126L20.2812 14.5685V11.7545L20.2936 11.5986V14.4126Z" fill="white"/>
<path d="M20.2835 14.5679L20.2578 14.7225V11.9084L20.2835 11.7539V14.5679Z" fill="white"/>
<path d="M20.2556 14.7242L20.2188 14.8763V12.0624L20.2556 11.9102V14.7242Z" fill="white"/>
<path d="M20.2177 14.8765L20.168 15.0264V12.2125L20.2177 12.0625V14.8765Z" fill="white"/>
<path d="M20.168 15.0249L20.1055 15.1728V12.3587L20.168 12.2109V15.0249Z" fill="white"/>
<path d="M20.1028 15.1725L20.0273 15.3181V12.5041L20.1028 12.3584V15.1725Z" fill="white"/>
<path d="M20.0337 15.3189L19.9453 15.4625V12.6485L20.0337 12.5049V15.3189Z" fill="white"/>
<path d="M19.9451 15.4624L19.8438 15.6038V12.7898L19.9451 12.6484V15.4624Z" fill="white"/>
<path d="M19.8447 15.604L19.7305 15.7433V12.9293L19.8447 12.79V15.604Z" fill="white"/>
<path d="M19.725 15.7437L19.5977 15.8808V13.0668L19.725 12.9297V15.7437Z" fill="white"/>
<path d="M19.5971 15.8804L19.457 16.0154V13.2014L19.5971 13.0664V15.8804Z" fill="white"/>
<path d="M19.4578 16.0151L19.3047 16.148V13.3339L19.4578 13.2012V16.0151Z" fill="white"/>
<path d="M19.3074 16.1481L19.1406 16.2772V13.4631L19.3074 13.334V16.1481Z" fill="white"/>
<path d="M19.1399 16.277L18.9609 16.4028V13.5887L19.1399 13.4629V16.277Z" fill="white"/>
<path d="M18.9643 16.4039L18.7734 16.5265V13.7124L18.9643 13.5898V16.4039Z" fill="white"/>
<path d="M18.7732 16.526L18.5703 16.6454V13.8313L18.7732 13.7119V16.526Z" fill="white"/>
<path d="M18.5664 16.6442L18.3516 16.7603V13.9462L18.5664 13.8301V16.6442Z" fill="white"/>
<path d="M18.3518 16.7604L18.125 16.8733V14.0592L18.3518 13.9463V16.7604Z" fill="white"/>
<path d="M18.1217 16.8727L17.8828 16.9823V14.1682L18.1217 14.0586V16.8727Z" fill="white"/>
<path d="M17.8875 16.984L17.6367 17.0903V14.2763L17.8875 14.1699V16.984Z" fill="white"/>
<path d="M17.6377 17.0903L17.375 17.1935V14.3795L17.6377 14.2764V17.0903Z" fill="white"/>
<path d="M17.3723 17.1929L17.0977 17.2928V14.4787L17.3723 14.3789V17.1929Z" fill="white"/>
<path d="M17.0962 17.2936L16.8164 17.3878V14.5737L17.0962 14.4795V17.2936Z" fill="white"/>
<path d="M16.821 17.3873L16.5391 17.4749V14.6608L16.821 14.5732V17.3873Z" fill="white"/>
<path d="M16.5381 17.4742L16.2539 17.5551V14.7411L16.5381 14.6602V17.4742Z" fill="white"/>
<path d="M16.255 17.5552L15.9688 17.6294V14.8155L16.255 14.7412V17.5552Z" fill="white"/>
<path d="M15.9644 17.6294L15.6758 17.697V14.883L15.9644 14.8154V17.6294Z" fill="white"/>
<path d="M15.6736 17.6978L15.3828 17.7586V14.9446L15.6736 14.8838V17.6978Z" fill="white"/>
<path d="M15.3867 17.7583L15.0938 17.8126V14.9986L15.3867 14.9443V17.7583Z" fill="white"/>
<path d="M15.0959 17.812L14.8008 17.8596V15.0456L15.0959 14.998V17.812Z" fill="white"/>
<path d="M14.8014 17.8599L14.5039 17.9007V15.0868L14.8014 15.0459V17.8599Z" fill="white"/>
<path d="M14.5027 17.9009L14.2031 17.9352V15.1212L14.5027 15.0869V17.9009Z" fill="white"/>
<path d="M14.1986 17.936L13.8984 17.9618V15.1479L14.1986 15.1221V17.936Z" fill="white"/>
<path d="M13.902 17.9614L13.6016 17.9808V15.1668L13.902 15.1475V17.9614Z" fill="white"/>
<path d="M13.6054 17.98L13.3047 17.9927V15.1786L13.6054 15.166V17.98Z" fill="white"/>
<path d="M13.3008 17.9928L13 17.9988V15.1849L13.3008 15.1787V17.9928Z" fill="white"/>
<path d="M13.0004 18.0001L12.6992 17.9996V15.1855L13.0004 15.1861V18.0001Z" fill="white"/>
<path d="M12.6959 17.9979L12.3945 17.9908V15.1768L12.6959 15.1838V17.9979Z" fill="white"/>
<path d="M12.3993 17.9918L12.0977 17.978V15.1641L12.3993 15.1777V17.9918Z" fill="white"/>
<path d="M12.0948 17.9777L11.793 17.9575V15.1436L12.0948 15.1638V17.9777Z" fill="white"/>
<path d="M11.7903 17.958L11.4883 17.9312V15.1172L11.7903 15.144V17.958Z" fill="white"/>
<path d="M11.4937 17.9315L11.1914 17.8981V15.084L11.4937 15.1175V17.9315Z" fill="white"/>
<path d="M11.1882 17.898L10.8867 17.8579V15.0439L11.1882 15.0839V17.898Z" fill="white"/>
<path d="M10.8895 17.8567L10.5898 17.8101V14.9961L10.8895 15.0428V17.8567Z" fill="white"/>
<path d="M10.587 17.8117L10.2891 17.7583V14.9443L10.587 14.9977V17.8117Z" fill="white"/>
<path d="M10.2882 17.7578L9.99219 17.6978V14.8838L10.2882 14.9439V17.7578Z" fill="white"/>
<path d="M9.99345 17.698L9.69922 17.6314V14.8174L9.99345 14.884V17.698Z" fill="white"/>
<path d="M9.69869 17.6296L9.40625 17.5563V14.7422L9.69869 14.8157V17.6296Z" fill="white"/>
<path d="M9.40784 17.5572L9.11719 17.4771V14.6631L9.40784 14.7431V17.5572Z" fill="white"/>
<path d="M9.1209 17.4769L8.83203 17.3901V14.5762L9.1209 14.6629V17.4769Z" fill="white"/>
<path d="M8.82603 17.3899L8.53906 17.2965V14.4824L8.82603 14.5759V17.3899Z" fill="white"/>
<path d="M8.5392 17.2969L8.25391 17.1968V14.3828L8.5392 14.4829V17.2969Z" fill="white"/>
<path d="M8.25281 17.1959L7.97266 17.0884V14.2744L8.25281 14.3819V17.1959Z" fill="white"/>
<path d="M7.97904 17.0885L7.70312 16.9742V14.1602L7.97904 14.2745V17.0885Z" fill="white"/>
<path d="M7.70136 16.9751L7.42969 16.854V14.04L7.70136 14.161V16.9751Z" fill="white"/>
<path d="M7.4277 16.853L7.16016 16.7252V13.9111L7.4277 14.039V16.853Z" fill="white"/>
<path d="M7.15794 16.7268L6.89453 16.5923V13.7783L7.15794 13.9128V16.7268Z" fill="white"/>
<path d="M6.89588 16.5919L6.63672 16.4507V13.6367L6.89588 13.778V16.5919Z" fill="white"/>
<path d="M6.63774 16.4502L6.38281 16.3023V13.4883L6.63774 13.6362V16.4502Z" fill="white"/>
<path d="M6.3836 16.3027L6.13281 16.1481V13.334L6.3836 13.4887V16.3027Z" fill="white"/>
<path d="M6.13327 16.1473L5.88672 15.9859V13.1719L6.13327 13.3332V16.1473Z" fill="white"/>
<path d="M5.88684 15.9862L5.64453 15.818V13.0039L5.88684 13.1722V15.9862Z" fill="white"/>
<path d="M5.64493 15.8188L5.0625 15.4028V12.5889L5.64493 13.0047V15.8188Z" fill="white"/>
<path d="M5.06127 15.4024L4.82812 15.2311V12.417L5.06127 12.5884V15.4024Z" fill="white"/>
<path d="M4.83214 15.231L4.61328 15.0601V12.2461L4.83214 12.4169V15.231Z" fill="white"/>
<path d="M4.60691 15.0597L4.40234 14.8893V12.0752L4.60691 12.2457V15.0597Z" fill="white"/>
<path d="M4.40143 14.8894L4.21094 14.7194V11.9053L4.40143 12.0753V14.8894Z" fill="white"/>
<path d="M4.21515 14.7189L4.03906 14.5493V11.7354L4.21515 11.9049V14.7189Z" fill="white"/>
<path d="M4.03691 14.5505L3.875 14.3814V11.5674L4.03691 11.7365V14.5505Z" fill="white"/>
<path d="M3.87808 14.3802L3.73047 14.2114V11.3975L3.87808 11.5662V14.3802Z" fill="white"/>
<path d="M3.73109 14.2117L3.59766 14.0435V11.2295L3.73109 11.3978V14.2117Z" fill="white"/>
<path d="M3.59571 14.0434L3.47656 13.8756V11.0615L3.59571 11.2295V14.0434Z" fill="white"/>
<path d="M3.47215 13.876L3.36719 13.7085V10.8945L3.47215 11.0619V13.876Z" fill="white"/>
<path d="M3.37002 13.708L3.27734 13.5405V10.7266L3.37002 10.8941V13.708Z" fill="white"/>
<path d="M3.27482 13.5397L3.19531 13.3737V10.5596L3.27482 10.7257V13.5397Z" fill="white"/>
<path d="M3.19914 13.3752L3.13281 13.2105V10.3965L3.19914 10.5611V13.3752Z" fill="white"/>
<path d="M3.13518 13.2106L3.08203 13.0474V10.2334L3.13518 10.3966V13.2106Z" fill="white"/>
<path d="M3.07904 13.0471L3.03906 12.8853V10.0713L3.07904 10.2331V13.0471Z" fill="white"/>
<path d="M3.03852 12.8855L3.01172 12.7251V9.91113L3.03852 10.0715V12.8855Z" fill="white"/>
<path d="M3.01373 12.7238L3 12.565V9.75098L3.01373 9.90987V12.7238Z" fill="white"/>
<path d="M3 12.4086L3.01262 12.2525V9.43848L3 9.59458V12.4086Z" fill="white"/>
<path d="M3.01172 12.2518L3.03751 12.0973V9.2832L3.01172 9.43785V12.2518Z" fill="white"/>
<path d="M3.03906 12.0973L3.07837 11.9429V9.12891L3.03906 9.28322V12.0973Z" fill="white"/>
<path d="M3.07422 11.9434L3.12614 11.7916V8.97754L3.07422 9.1294V11.9434Z" fill="white"/>
<path d="M3.125 11.7914L3.18943 11.6421V8.82812L3.125 8.9773V11.7914Z" fill="white"/>
<path d="M3.19141 11.6423L3.26856 11.4956V8.68164L3.19141 8.82836V11.6423Z" fill="white"/>
<path d="M3.26562 11.4962L3.35518 11.3522V8.53809L3.26562 8.68224V11.4962Z" fill="white"/>
<path d="M3.36328 11.352L3.46556 11.2105V8.39648L3.36328 8.53796V11.352Z" fill="white"/>
<path d="M3.46484 11.2098L3.57963 11.0708V8.25684L3.46484 8.39585V11.2098Z" fill="white"/>
<path d="M3.57812 11.0715L3.70553 10.9352V8.12109L3.57812 8.25754V11.0715Z" fill="white"/>
<path d="M3.70312 10.9352L3.84315 10.8013V7.9873L3.70312 8.12107V10.9352Z" fill="white"/>
<path d="M3.84375 10.8008L3.99628 10.6696V7.85547L3.84375 7.98678V10.8008Z" fill="white"/>
<path d="M3.99609 10.6696L4.16146 10.5396V7.72559L3.99609 7.85556V10.6696Z" fill="white"/>
<path d="M4.16016 10.5392L4.33759 10.4126V7.59863L4.16016 7.72526V10.5392Z" fill="white"/>
<path d="M4.33984 10.4119L4.52911 10.2886V7.47461L4.33984 7.59788V10.4119Z" fill="white"/>
<path d="M4.52734 10.2902L4.72845 10.1705V7.35645L4.52734 7.47626V10.2902Z" fill="white"/>
<path d="M4.73047 10.1687L4.94363 10.0524V7.23828L4.73047 7.35463V10.1687Z" fill="white"/>
<path d="M4.94141 10.053L5.1664 9.93995V7.12598L4.94141 7.23887V10.053Z" fill="white"/>
<path d="M5.16797 9.94012L5.40491 9.83058V7.0166L5.16797 7.12614V9.94012Z" fill="white"/>
<path d="M5.40625 9.83021L5.65514 9.72413V6.91016L5.40625 7.01623V9.83021Z" fill="white"/>
<path d="M5.65234 9.7253L5.91307 9.62257V6.80859L5.65234 6.91132V9.7253Z" fill="white"/>
<path d="M5.91016 9.62223L6.18283 9.52296V6.70898L5.91016 6.80825V9.62223Z" fill="white"/>
<path d="M6.18359 9.52315L6.46543 9.42835V6.61426L6.18359 6.70917V9.52315Z" fill="white"/>
<path d="M6.46875 9.42844L6.7527 9.34034V6.52637L6.46875 6.61436V9.42844Z" fill="white"/>
<path d="M6.75 9.33949L7.03608 9.25831V6.44434L6.75 6.52551V9.33949Z" fill="white"/>
<path d="M7.04297 9.25944L7.33117 9.18518V6.37109L7.04297 6.44546V9.25944Z" fill="white"/>
<path d="M7.32812 9.18427L7.61856 9.11671V6.30273L7.32812 6.37018V9.18427Z" fill="white"/>
<path d="M7.61719 9.1168L7.90963 9.05616V6.24219L7.61719 6.30282V9.1168Z" fill="white"/>
<path d="M7.91016 9.05627L8.20483 9.00245V6.18848L7.91016 6.2423V9.05627Z" fill="white"/>
<path d="M8.20312 9.00259L8.49992 8.95569V6.1416L8.20312 6.18861V9.00259Z" fill="white"/>
<path d="M8.5 8.95574L8.79903 8.91554V6.10156L8.5 6.14165V8.95574Z" fill="white"/>
<path d="M8.79688 8.91561L9.09791 8.88234V6.06836L8.79688 6.10163V8.91561Z" fill="white"/>
<path d="M9.10156 8.88246L9.40238 8.85499V6.04102L9.10156 6.06848V8.88246Z" fill="white"/>
<path d="M9.40234 8.85503L9.70316 8.8346V6.02051L9.40234 6.04105V8.85503Z" fill="white"/>
<path d="M9.69922 8.83346L10.0001 8.81983V6.00586L9.69922 6.01937V8.83346Z" fill="white"/>
<path d="M10.0039 8.82056L10.3051 8.81398V6L10.0039 6.00659V8.82056Z" fill="white"/>
<path d="M10.3008 8.81398L10.6019 8.81431V6.00022L10.3008 6V8.81398Z" fill="white"/>
<path d="M10.6055 8.81409L10.9067 8.82135V6.00726L10.6055 6V8.81409Z" fill="white"/>
<path d="M10.9062 8.8219L11.2077 8.83608V6.02199L10.9062 6.00781V8.8219Z" fill="white"/>
<path d="M11.2109 8.83655L11.5124 8.85765V6.04356L11.2109 6.02246V8.83655Z" fill="white"/>
<path d="M11.5078 8.85706L11.8094 8.88508V6.071L11.5078 6.04297V8.85706Z" fill="white"/>
<path d="M11.8125 8.88538L12.1142 8.92033V6.10635L11.8125 6.07129V8.88538Z" fill="white"/>
<path d="M12.1094 8.92042L12.4087 8.96118V6.1472L12.1094 6.10645V8.92042Z" fill="white"/>
<path d="M12.4141 8.95948L12.7113 9.00705V6.19308L12.4141 6.14551V8.95948Z" fill="white"/>
<path d="M12.7148 9.00929L13.0101 9.06356V6.24958L12.7148 6.19531V9.00929Z" fill="white"/>
<path d="M13.0039 9.063L13.2972 9.12408V6.3101L13.0039 6.24902V9.063Z" fill="white"/>
<path d="M13.2969 9.12355L13.5881 9.19132V6.37735L13.2969 6.30957V9.12355Z" fill="white"/>
<path d="M13.5898 9.19191L13.879 9.26638V6.45241L13.5898 6.37793V9.19191Z" fill="white"/>
<path d="M13.8789 9.26612L14.1661 9.34741V6.53344L13.8789 6.45215V9.26612Z" fill="white"/>
<path d="M14.168 9.34718L14.4532 9.43528V6.62119L14.168 6.5332V9.34718Z" fill="white"/>
<path d="M14.4531 9.43616L14.7364 9.53085V6.71687L14.4531 6.62207V9.43616Z" fill="white"/>
<path d="M14.7383 9.52882L15.0194 9.63043V6.81634L14.7383 6.71484V9.52882Z" fill="white"/>
<path d="M15.0156 9.63049L15.2943 9.73702V6.92304L15.0156 6.81641V9.63049Z" fill="white"/>
<path d="M15.2969 9.73878L15.5716 9.85212V7.03814L15.2969 6.9248V9.73878Z" fill="white"/>
<path d="M15.5664 9.85109L15.8371 9.97134V7.15737L15.5664 7.03711V9.85109Z" fill="white"/>
<path d="M15.8398 9.97218L16.1065 10.0992V7.28527L15.8398 7.1582V9.97218Z" fill="white"/>
<path d="M16.1094 10.0991L16.3719 10.2331V7.41904L16.1094 7.28516V10.0991Z" fill="white"/>
<path d="M16.3672 10.2321L16.6257 10.3727V7.55877L16.3672 7.41797V10.2321Z" fill="white"/>
<path d="M16.6289 10.3735L16.8833 10.5212V7.70719L16.6289 7.55957V10.3735Z" fill="white"/>
<path d="M16.8828 10.521L17.1333 10.6754V7.86146L16.8828 7.70703V10.521Z" fill="white"/>
<path d="M17.1367 10.6763L17.383 10.8376V8.02366L17.1367 7.8623V10.6763Z" fill="white"/>
<path d="M17.375 10.8364L17.6173 11.0046V8.19051L17.375 8.02246V10.8364Z" fill="white"/>
<path d="M15.5931 12.335L14.9961 11.9087V9.09473L15.5931 9.52094V12.335Z" fill="white"/>
<path d="M14.9983 11.9072L14.8203 11.7827V8.96875L14.9983 9.09325V11.9072Z" fill="white"/>
<path d="M14.8194 11.7843L14.6406 11.6646V8.85059L14.8194 8.97029V11.7843Z" fill="white"/>
<path d="M14.6366 11.6633L14.457 11.5484V8.73438L14.6366 8.84927V11.6633Z" fill="white"/>
<path d="M14.4616 11.5492L14.2812 11.439V8.625L14.4616 8.73521V11.5492Z" fill="white"/>
<path d="M14.2788 11.4379L14.0977 11.3325V8.51855L14.2788 8.62396V11.4379Z" fill="white"/>
<path d="M14.0999 11.3336L13.918 11.233V8.41895L14.0999 8.51966V11.3336Z" fill="white"/>
<path d="M13.9169 11.2331L13.7344 11.1372V8.32324L13.9169 8.41905V11.2331Z" fill="white"/>
<path d="M13.7342 11.1365L13.5508 11.0454V8.23145L13.7342 8.32256V11.1365Z" fill="white"/>
<path d="M13.5513 11.0459L13.3672 10.9595V8.14551L13.5513 8.23193V11.0459Z" fill="white"/>
<path d="M13.3685 10.9591L13.1836 10.8776V8.06348L13.3685 8.1451V10.9591Z" fill="white"/>
<path d="M13.1849 10.8779L13 10.7993V7.98535L13.1849 8.06385V10.8779Z" fill="white"/>
<path d="M13.0014 10.7988L12.8164 10.7252V7.91113L13.0014 7.98483V10.7988Z" fill="white"/>
<path d="M12.8104 10.7255L12.625 10.6567V7.84277L12.8104 7.91145V10.7255Z" fill="white"/>
<path d="M12.6271 10.6571L12.4414 10.5933V7.7793L12.6271 7.84317V10.6571Z" fill="white"/>
<path d="M12.4437 10.5936L12.2578 10.5347V7.7207L12.4437 7.77966V10.5936Z" fill="white"/>
<path d="M12.2525 10.5331L12.0664 10.479V7.66504L12.2525 7.71908V10.5331Z" fill="white"/>
<path d="M12.0693 10.4793L11.8828 10.4302V7.61621L12.0693 7.66534V10.4793Z" fill="white"/>
<path d="M11.8859 10.4315L11.6992 10.3873V7.57324L11.8859 7.61757V10.4315Z" fill="white"/>
<path d="M11.6948 10.3876L11.5078 10.3482V7.53418L11.6948 7.57348V10.3876Z" fill="white"/>
<path d="M11.5114 10.3475L11.3242 10.3131V7.49902L11.5114 7.53353V10.3475Z" fill="white"/>
<path d="M11.3195 10.3123L11.1328 10.2809V7.4668L11.3195 7.49817V10.3123Z" fill="white"/>
<path d="M11.1355 10.282L10.9492 10.2554V7.44141L11.1355 7.46787V10.282Z" fill="white"/>
<path d="M10.9517 10.2556L10.7656 10.234V7.41992L10.9517 7.44158V10.2556Z" fill="white"/>
<path d="M10.76 10.2332L10.5742 10.2163V7.40234L10.76 7.41909V10.2332Z" fill="white"/>
<path d="M10.5761 10.2165L10.3906 10.2046V7.39062L10.5761 7.40257V10.2165Z" fill="white"/>
<path d="M10.3922 10.2038L10.207 10.1968V7.38281L10.3922 7.38985V10.2038Z" fill="white"/>
<path d="M10.2082 10.198L10.0234 10.1958V7.38184L10.2082 7.38407V10.198Z" fill="white"/>
<path d="M10.0244 10.1958L9.83984 10.1985V7.38452L10.0244 7.38184V10.1958Z" fill="white"/>
<path d="M9.8406 10.1987L9.65625 10.2062V7.39225L9.8406 7.38477V10.1987Z" fill="white"/>
<path d="M9.65656 10.2046L9.47266 10.217V7.40291L9.65656 7.39062V10.2046Z" fill="white"/>
<path d="M9.46594 10.2174L9.28125 10.2335V7.4194L9.46594 7.40332V10.2174Z" fill="white"/>
<path d="M9.28491 10.234L9.10156 10.2547V7.44069L9.28491 7.41992V10.234Z" fill="white"/>
<path d="M9.10009 10.2544L8.91797 10.2799V7.46589L9.10009 7.44043V10.2544Z" fill="white"/>
<path d="M8.91527 10.2798L8.73438 10.3098V7.49586L8.91527 7.46582V10.2798Z" fill="white"/>
<path d="M8.73814 10.3101L8.55859 10.3448V7.53082L8.73814 7.49609V10.3101Z" fill="white"/>
<path d="M8.55723 10.3442L8.37891 10.3837V7.56969L8.55723 7.53027V10.3442Z" fill="white"/>
<path d="M8.38022 10.3843L8.20312 10.4284V7.61442L8.38022 7.57031V10.3843Z" fill="white"/>
<path d="M8.19919 10.4282L8.02344 10.477V7.66305L8.19919 7.61426V10.4282Z" fill="white"/>
<path d="M8.02609 10.478L7.85156 10.5314V7.71744L8.02609 7.66406V10.478Z" fill="white"/>
<path d="M7.84897 10.5298L7.67578 10.588V7.77388L7.84897 7.71582V10.5298Z" fill="white"/>
<path d="M7.67999 10.5885L7.51172 10.6499V7.83594L7.67999 7.77441V10.5885Z" fill="white"/>
<path d="M7.51135 10.6509L7.35156 10.7145V7.90056L7.51135 7.83691V10.6509Z" fill="white"/>
<path d="M7.35052 10.7144L7.19922 10.78V7.96605L7.35052 7.90039V10.7144Z" fill="white"/>
<path d="M7.20119 10.7788L7.05859 10.8467V8.03273L7.20119 7.96484V10.7788Z" fill="white"/>
<path d="M7.05609 10.8472L6.92188 10.9172V8.1031L7.05609 8.0332V10.8472Z" fill="white"/>
<path d="M6.92629 10.9176L6.80078 10.9896V8.17565L6.92629 8.10352V10.9176Z" fill="white"/>
<path d="M6.79671 10.9898L6.67969 11.064V8.25004L6.79671 8.17578V10.9898Z" fill="white"/>
<path d="M6.67885 11.063L6.57031 11.1394V8.32529L6.67885 8.24902V11.063Z" fill="white"/>
<path d="M6.56869 11.1393L6.46875 11.2177V8.40369L6.56869 8.3252V11.1393Z" fill="white"/>
<path d="M6.47415 11.2183L6.38281 11.2989V8.4848L6.47415 8.4043V11.2183Z" fill="white"/>
<path d="M6.38509 11.2994L6.30078 11.381V8.56698L6.38509 8.48535V11.2994Z" fill="white"/>
<path d="M6.29836 11.3804L6.22266 11.4639V8.64993L6.29836 8.56641V11.3804Z" fill="white"/>
<path d="M6.21934 11.4644L6.15234 11.5498V8.73581L6.21934 8.65039V11.4644Z" fill="white"/>
<path d="M6.15605 11.5503L6.09766 11.6377V8.82376L6.15605 8.73633V11.5503Z" fill="white"/>
<path d="M6.09679 11.6372L6.04688 11.7265V8.91257L6.09679 8.82324V11.6372Z" fill="white"/>
<path d="M6.0412 11.7261L6 11.8174V9.00334L6.0412 8.91211V11.7261Z" fill="white"/>
<path d="M6.00136 11.818L5.96875 11.9112V9.09714L6.00136 9.00391V11.818Z" fill="white"/>
<path d="M5.97311 11.9098L5.94922 12.0049V9.19095L5.97311 9.0957V11.9098Z" fill="white"/>
<path d="M5.9451 12.0054L5.92969 12.1025V9.28844L5.9451 9.19141V12.0054Z" fill="white"/>
<path d="M5.93259 12.1041L5.92578 12.2032V9.38908L5.93259 9.29004V12.1041Z" fill="white"/>
<path d="M5.92578 12.2018L5.92835 12.3008V9.48685L5.92578 9.3877V12.2018Z" fill="white"/>
<path d="M5.92969 12.3023L5.94119 12.4031V9.58911L5.92969 9.48828V12.3023Z" fill="white"/>
<path d="M5.9375 12.4019L5.95782 12.5044V9.6904L5.9375 9.58789V12.4019Z" fill="white"/>
<path d="M5.96094 12.5044L5.99019 12.6086V9.79461L5.96094 9.69043V12.5044Z" fill="white"/>
<path d="M5.98828 12.6079L6.02647 12.7139V9.8998L5.98828 9.79395V12.6079Z" fill="white"/>
<path d="M6.02734 12.7145L6.07435 12.822V10.008L6.02734 9.90039V12.7145Z" fill="white"/>
<path d="M6.07812 12.8218L6.13396 12.9311V10.117L6.07812 10.0078V12.8218Z" fill="white"/>
<path d="M6.12891 12.9313L6.19367 13.0422V10.2282L6.12891 10.1172V12.9313Z" fill="white"/>
<path d="M6.19922 13.0425L6.2728 13.1553V10.3412L6.19922 10.2285V13.0425Z" fill="white"/>
<path d="M6.26562 13.1549L6.34814 13.2692V10.4552L6.26562 10.3408V13.1549Z" fill="white"/>
<path d="M6.35156 13.2692L6.44179 13.384V10.5699L6.35156 10.4551V13.2692Z" fill="white"/>
<path d="M6.4375 13.3834L6.53677 13.4994V10.6855L6.4375 10.5693V13.3834Z" fill="white"/>
<path d="M6.53906 13.5005L6.6476 13.6179V10.8039L6.53906 10.6865V13.5005Z" fill="white"/>
<path d="M6.64844 13.6187L6.76624 13.7372V10.9233L6.64844 10.8047V13.6187Z" fill="white"/>
<path d="M6.76953 13.7359L6.89649 13.8558V11.0417L6.76953 10.9219V13.7359Z" fill="white"/>
<path d="M6.89453 13.8561L7.03065 13.9772V11.1631L6.89453 11.042V13.8561Z" fill="white"/>
<path d="M7.02734 13.9772L7.17273 14.0996V11.2856L7.02734 11.1631V13.9772Z" fill="white"/>
<path d="M7.17578 14.1001L7.33043 14.2238V11.4097L7.17578 11.2861V14.1001Z" fill="white"/>
<path d="M7.32812 14.2223L7.49193 14.3472V11.5332L7.32812 11.4082V14.2223Z" fill="white"/>
<path d="M7.49219 14.3483L7.66526 14.4744V11.6605L7.49219 11.5342V14.3483Z" fill="white"/>
<path d="M7.66797 14.4751L8.26491 14.9014V12.0873L7.66797 11.6611V14.4751Z" fill="white"/>
<path d="M8.26562 14.902L8.44372 15.0265V12.2124L8.26562 12.0879V14.902Z" fill="white"/>
<path d="M8.44531 15.025L8.62431 15.1448V12.3309L8.44531 12.2109V15.025Z" fill="white"/>
<path d="M8.62109 15.146L8.80098 15.2612V12.4472L8.62109 12.332V15.146Z" fill="white"/>
<path d="M8.79688 15.2604L8.97777 15.3709V12.5568L8.79688 12.4463V15.2604Z" fill="white"/>
<path d="M8.98438 15.3707L9.16616 15.4766V12.6626L8.98438 12.5566V15.3707Z" fill="white"/>
<path d="M9.16016 15.4771L9.34283 15.5783V12.7643L9.16016 12.6631V15.4771Z" fill="white"/>
<path d="M9.34375 15.5787L9.52732 15.6752V12.8612L9.34375 12.7646V15.5787Z" fill="white"/>
<path d="M9.52734 15.6743L9.71181 15.7663V12.9522L9.52734 12.8604V15.6743Z" fill="white"/>
<path d="M9.71094 15.7662L9.8963 15.8534V13.0395L9.71094 12.9521V15.7662Z" fill="white"/>
<path d="M9.89453 15.853L10.0809 15.9357V13.1216L9.89453 13.0391V15.853Z" fill="white"/>
<path d="M10.0859 15.9352L10.2729 16.0131V13.199L10.0859 13.1211V15.9352Z" fill="white"/>
<path d="M10.2695 16.0153L10.4569 16.0885V13.2745L10.2695 13.2012V16.0153Z" fill="white"/>
<path d="M10.4609 16.0874L10.6485 16.1562V13.3422L10.4609 13.2734V16.0874Z" fill="white"/>
<path d="M10.6445 16.1558L10.8326 16.2199V13.4059L10.6445 13.3418V16.1558Z" fill="white"/>
<path d="M10.8359 16.2212L11.0243 16.2807V13.4666L10.8359 13.4072V16.2212Z" fill="white"/>
<path d="M11.0273 16.2799L11.2161 16.3347V13.5208L11.0273 13.4658V16.2799Z" fill="white"/>
<path d="M11.2109 16.3355L11.4 16.3857V13.5717L11.2109 13.5215V16.3355Z" fill="white"/>
<path d="M11.3984 16.3843L11.5878 16.43V13.616L11.3984 13.5703V16.3843Z" fill="white"/>
<path d="M11.5898 16.4302L11.7797 16.4712V13.6572L11.5898 13.6162V16.4302Z" fill="white"/>
<path d="M11.7812 16.4712L11.9714 16.5076V13.6936L11.7812 13.6572V16.4712Z" fill="white"/>
<path d="M11.9727 16.5083L12.1632 16.5383V13.7244L11.9727 13.6943V16.5083Z" fill="white"/>
<path d="M12.1602 16.5386L12.3499 16.5642V13.7502L12.1602 13.7246V16.5386Z" fill="white"/>
<path d="M12.3516 16.564L12.5406 16.585V13.771L12.3516 13.75V16.564Z" fill="white"/>
<path d="M12.543 16.5845L12.7312 16.6009V13.7869L12.543 13.7705V16.5845Z" fill="white"/>
<path d="M12.7266 16.6021L12.9139 16.614V13.8L12.7266 13.7881V16.6021Z" fill="white"/>
<path d="M12.918 16.6128L13.1047 16.6202V13.8062L12.918 13.7988V16.6128Z" fill="white"/>
<path d="M13.1016 16.6206L13.2875 16.6235V13.8095L13.1016 13.8066V16.6206Z" fill="white"/>
<path d="M13.2891 16.6242L13.4742 16.6226V13.8086L13.2891 13.8103V16.6242Z" fill="white"/>
<path d="M13.4727 16.622L13.657 16.6157V13.8018L13.4727 13.808V16.622Z" fill="white"/>
<path d="M13.6602 16.6157L13.8438 16.605V13.791L13.6602 13.8017V16.6157Z" fill="white"/>
<path d="M13.8438 16.6058L14.025 16.5894V13.7754L13.8438 13.7918V16.6058Z" fill="white"/>
<path d="M14.0195 16.5879L14.2 16.5669V13.7529L14.0195 13.7739V16.5879Z" fill="white"/>
<path d="M14.2031 16.5672L14.3826 16.5416V13.7275L14.2031 13.7532V16.5672Z" fill="white"/>
<path d="M14.3828 16.5416L14.5614 16.5114V13.6973L14.3828 13.7275V16.5416Z" fill="white"/>
<path d="M14.5586 16.511L14.7362 16.4761V13.6621L14.5586 13.6969V16.511Z" fill="white"/>
<path d="M14.7383 16.4767L14.915 16.4371V13.623L14.7383 13.6627V16.4767Z" fill="white"/>
<path d="M14.9141 16.4363L15.0898 16.3921V13.5781L14.9141 13.6222V16.4363Z" fill="white"/>
<path d="M15.0938 16.3922L15.2687 16.3434V13.5293L15.0938 13.5782V16.3922Z" fill="white"/>
<path d="M15.2656 16.3441L15.4396 16.2907V13.4766L15.2656 13.53V16.3441Z" fill="white"/>
<path d="M15.4414 16.2901L15.6145 16.2319V13.418L15.4414 13.476V16.2901Z" fill="white"/>
<path d="M15.6133 16.2325L15.7836 16.1704V13.3564L15.6133 13.4185V16.2325Z" fill="white"/>
<path d="M15.7852 16.171L15.947 16.1069V13.293L15.7852 13.3571V16.171Z" fill="white"/>
<path d="M15.9414 16.1065L16.0945 16.0405V13.2266L15.9414 13.2926V16.1065Z" fill="white"/>
<path d="M16.1016 16.0402L16.2462 15.9722V13.1582L16.1016 13.2262V16.0402Z" fill="white"/>
<path d="M16.2422 15.9718L16.3781 15.9019V13.0879L16.2422 13.1578V15.9718Z" fill="white"/>
<path d="M16.3789 15.9025L16.5062 15.8307V13.0166L16.3789 13.0885V15.9025Z" fill="white"/>
<path d="M16.5078 15.8302L16.6265 15.7564V12.9424L16.5078 13.0161V15.8302Z" fill="white"/>
<path d="M16.6289 15.756L16.739 15.6803V12.8662L16.6289 12.942V15.756Z" fill="white"/>
<path d="M16.7344 15.6798L16.8359 15.6021V12.7881L16.7344 12.8657V15.6798Z" fill="white"/>
<path d="M16.8359 15.6026L16.9288 15.523V12.709L16.8359 12.7886V15.6026Z" fill="white"/>
<path d="M16.9336 15.5234L17.0163 15.4409V12.627L16.9336 12.7095V15.5234Z" fill="white"/>
<path d="M17.0156 15.4412L17.0898 15.3569V12.543L17.0156 12.6273V15.4412Z" fill="white"/>
<path d="M17.0859 15.3571L17.1514 15.271V12.457L17.0859 12.5431V15.3571Z" fill="white"/>
<path d="M17.1562 15.2699L17.213 15.1821V12.3682L17.1562 12.4559V15.2699Z" fill="white"/>
<path d="M17.2109 15.1829L17.2591 15.0934V12.2793L17.2109 12.369V15.1829Z" fill="white"/>
<path d="M17.2539 15.0929L17.2933 15.0016V12.1875L17.2539 12.2788V15.0929Z" fill="white"/>
<path d="M17.293 15.0029L17.3237 14.9098V12.0957L17.293 12.1888V15.0029Z" fill="white"/>
<path d="M17.3242 14.9089L17.3463 14.814V12L17.3242 12.0948V14.9089Z" fill="white"/>
<path d="M17.3516 14.814L17.365 14.7173V11.9033L17.3516 12V14.814Z" fill="white"/>
<path d="M17.3633 14.717L17.368 14.6187V11.8047L17.3633 11.9031V14.717Z" fill="white"/>
<path d="M17.3688 14.6182L17.3633 14.5171V11.7031L17.3688 11.8042V14.6182Z" fill="white"/>
<path d="M17.358 14.519L17.3438 14.4165V11.6025L17.358 11.705V14.519Z" fill="white"/>
<path d="M17.3472 14.4149L17.3242 14.311V11.4971L17.3472 11.6009V14.4149Z" fill="white"/>
<path d="M17.3249 14.3119L17.293 14.2066V11.3926L17.3249 11.4979V14.3119Z" fill="white"/>
<path d="M17.2906 14.2059L17.25 14.0991V11.2852L17.2906 11.3919V14.2059Z" fill="white"/>
<path d="M17.2565 14.0988L17.207 13.9907V11.1768L17.2565 11.2848V14.0988Z" fill="white"/>
<path d="M17.1988 13.9909L17.1406 13.8814V11.0674L17.1988 11.1769V13.9909Z" fill="white"/>
<path d="M17.1452 13.882L17.0781 13.7711V10.957L17.1452 11.068V13.882Z" fill="white"/>
<path d="M17.0797 13.7702L17.0039 13.6577V10.8438L17.0797 10.9561V13.7702Z" fill="white"/>
<path d="M17.0026 13.6592L16.918 13.5455V10.7314L17.0026 10.8452V13.6592Z" fill="white"/>
<path d="M16.9157 13.5451L16.8242 13.4293V10.6152L16.9157 10.731V13.5451Z" fill="white"/>
<path d="M16.8233 13.429L16.7227 13.312V10.498L16.8233 10.615V13.429Z" fill="white"/>
<path d="M16.7229 13.311L16.6133 13.1929V10.3789L16.7229 10.497V13.311Z" fill="white"/>
<path d="M16.6148 13.194L16.4961 13.0747V10.2607L16.6148 10.38V13.194Z" fill="white"/>
<path d="M16.4949 13.0741L16.3672 12.9536V10.1396L16.4949 10.2601V13.0741Z" fill="white"/>
<path d="M16.3712 12.9551L16.2344 12.8335V10.0195L16.3712 10.1411V12.9551Z" fill="white"/>
<path d="M16.2358 12.8322L16.0898 12.7095V9.89551L16.2358 10.0182V12.8322Z" fill="white"/>
<path d="M16.0847 12.7094L15.9297 12.5855V9.77148L16.0847 9.89543V12.7094Z" fill="white"/>
<path d="M15.9297 12.5856L15.7656 12.4606V9.64648L15.9297 9.77166V12.5856Z" fill="white"/>
<path d="M15.7668 12.4619L15.5938 12.3356V9.52148L15.7668 9.64777V12.4619Z" fill="white"/>
<path d="M17.6243 8.19156L18.2066 8.6075C19.0074 9.17931 19.5768 9.74443 19.9146 10.3028C20.2522 10.8612 20.3671 11.3968 20.2591 11.9098C20.1581 12.4204 19.8418 12.8953 19.3101 13.3345C18.7737 13.7702 18.0376 14.1518 17.1019 14.4794C16.1731 14.8047 15.2075 15.0188 14.2051 15.1218C13.2048 15.2188 12.2007 15.2063 11.1927 15.084C10.1847 14.9618 9.20691 14.7282 8.25913 14.3834C7.31838 14.0361 6.44753 13.5766 5.6467 13.0047L5.06427 12.5889C4.26344 12.0171 3.70011 11.4524 3.37406 10.8951C3.04332 10.3343 2.93188 9.79747 3.03985 9.28439C3.14995 8.7655 3.46975 8.28948 3.99925 7.85613C4.53076 7.41696 5.26102 7.03475 6.18982 6.70959C7.12554 6.38197 8.09711 6.16837 9.10429 6.06888C10.1067 5.96581 11.1108 5.97843 12.1167 6.10662C13.1177 6.23134 14.0852 6.46851 15.0191 6.81812C15.955 7.16193 16.8234 7.61974 17.6243 8.19156ZM15.5969 9.52111L14.9999 9.0949C14.4078 8.67204 13.8029 8.32857 13.1852 8.06449C12.5695 7.7946 11.9493 7.60623 11.3248 7.49948C10.7022 7.38693 10.0846 7.35521 9.47177 7.40446C8.85406 7.45024 8.25756 7.57385 7.68228 7.77528C7.107 7.97672 6.67409 8.21344 6.38377 8.48556C6.08854 8.75422 5.93679 9.05526 5.92853 9.38868C5.92239 9.71629 6.0642 10.072 6.35407 10.456C6.63914 10.8366 7.07775 11.2383 7.66989 11.6612L8.26683 12.0874C8.85897 12.5103 9.4663 12.8554 10.0889 13.123C10.7114 13.3905 11.34 13.5811 11.9743 13.6948C12.6107 13.8025 13.2342 13.8347 13.845 13.7914C14.4509 13.7445 15.0414 13.6204 15.6168 13.419C16.199 13.2151 16.6377 12.9788 16.933 12.7103C17.2233 12.4381 17.3691 12.1366 17.3705 11.8056C17.3669 11.471 17.2167 11.1131 16.9199 10.7314C16.63 10.3474 16.1891 9.94397 15.5969 9.52111Z" fill="#18181B"/>
</svg>
