<svg width="24" height="24" viewBox="0 0 24 24" fill="none" xmlns="http://www.w3.org/2000/svg">
<path d="M3.85602 10.7923L10.561 12.3417L9.94236 8.66147L12.7885 7.66504L13.4273 12.7325L22.9374 14.7968L20.0617 15.8036L13.209 14.2326L13.8178 17.9896L10.9321 18.9998L10.3152 13.822L1 11.7923L3.85602 10.7923Z" fill="#18181B"/>
<path d="M3.86328 10.7914L10.5683 12.3408V9.67525L3.86328 8.12598V10.7914Z" fill="white"/>
<path d="M10.56 12.3418L9.94141 8.66152V5.99609L10.56 9.67624V12.3418Z" fill="white"/>
<path d="M9.94141 8.66185L12.7876 7.66543V5L9.94141 5.99643V8.66185Z" fill="white"/>
<path d="M12.7891 7.66543L13.4278 12.7329V10.0674L12.7891 5V7.66543Z" fill="white"/>
<path d="M13.4297 12.7329L22.9398 14.7972V12.1317L13.4297 10.0674V12.7329Z" fill="white"/>
<path d="M22.9382 14.7973L20.0625 15.8041V13.1386L22.9382 12.1318V14.7973Z" fill="white"/>
<path d="M20.0637 15.8039L13.2109 14.2329V11.5674L20.0637 13.1384V15.8039Z" fill="white"/>
<path d="M13.2109 14.2329L13.8197 17.9899V15.3244L13.2109 11.5674V14.2329Z" fill="white"/>
<path d="M13.8192 17.9896L10.9336 18.9999V16.3345L13.8192 15.3242V17.9896Z" fill="white"/>
<path d="M10.9372 19.0005L10.3203 13.8227V11.1572L10.9372 16.335V19.0005Z" fill="white"/>
<path d="M10.3152 13.8221L1 11.7924V9.12695L10.3152 11.1567V13.8221Z" fill="white"/>
<path d="M1 11.7913L3.85602 10.7914V8.12598L1 9.12589V11.7913Z" fill="white"/>
<path d="M3.85602 8.12731L10.561 9.67658L9.94236 5.99643L12.7885 5L13.4273 10.0674L22.9374 12.1317L20.0617 13.1385L13.209 11.5675L13.8178 15.3245L10.9321 16.3348L10.3152 11.157L1 9.12723L3.85602 8.12731Z" fill="#18181B"/>
</svg>
