<svg width="19" height="18" viewBox="0 0 19 18" fill="none" xmlns="http://www.w3.org/2000/svg">
<path d="M7.73255 2.70425C8.13151 2.91142 8.48866 3.18813 8.78757 3.51828L8.93214 3.68584L9.51675 4.36342L10.0817 3.66935C10.3599 3.32754 10.6977 3.03539 11.0792 2.80874C11.6403 2.47534 12.2964 2.28333 13 2.28333C15.0742 2.28333 16.75 3.95645 16.75 6.01332C16.75 6.56626 16.699 6.90435 16.5644 7.24147C16.4218 7.59888 16.1658 8.0048 15.6651 8.65943L15.4727 8.90102L15.2142 9.20908C14.4582 10.0935 13.0595 11.6173 11.0077 13.7898C11.0075 13.7901 11.0072 13.7904 11.007 13.7906L9.50038 15.3771L7.49493 13.2623C7.49463 13.262 7.49433 13.2617 7.49404 13.2614C5.53822 11.1833 4.24642 9.76502 3.60337 8.99312L3.33381 8.65797C2.83386 8.0042 2.57814 7.59862 2.4356 7.24147C2.30105 6.90435 2.25 6.56626 2.25 6.01332C2.25 3.95645 3.92578 2.28333 6 2.28333C6.62665 2.28333 7.21524 2.43562 7.73255 2.70425L8.07819 2.03864L7.73255 2.70425Z" stroke="#1E232C" stroke-width="1.5"/>
</svg>
