<svg width="19" height="18" viewBox="0 0 19 18" fill="none" xmlns="http://www.w3.org/2000/svg">
<path fill-rule="evenodd" clip-rule="evenodd" d="M8.07819 2.03864C7.45653 1.71583 6.74967 1.53333 6 1.53333C3.51472 1.53333 1.5 3.53909 1.5 6.01332C1.5 7.22015 1.72284 7.78704 2.74367 9.12093L3.02294 9.46815C3.68147 10.2592 4.99008 11.6953 6.94878 13.7763L9.5 16.4667L11.5522 14.3056C13.6059 12.1311 15.0173 10.5938 15.7865 9.69383L16.0534 9.37573L16.2563 9.12093C17.2772 7.78704 17.5 7.22015 17.5 6.01332C17.5 3.53909 15.4853 1.53333 13 1.53333C12.158 1.53333 11.37 1.76355 10.6961 2.16396C10.2386 2.43577 9.83362 2.78601 9.5 3.1959L9.34985 3.02187C8.99022 2.623 8.55977 2.28872 8.07819 2.03864Z" fill="#EB4B51"/>
</svg>
