
<svg width="750" height="1148" viewBox="0 0 750 1148" fill="none" xmlns="http://www.w3.org/2000/svg">
  <g clip-path="url(#clip0_9618_12071)">
  <rect width="750" height="1148" fill="#F2F4F3"/>
  <g clip-path="url(#clip1_9618_12071)">
  <rect width="750" height="1129" transform="translate(1)" fill="#F2F4F3"/>
  <path d="M747.079 1008.17C788.373 1008.17 821.849 974.707 821.849 933.424C821.849 892.141 788.373 858.674 747.079 858.674C705.784 858.674 672.309 892.141 672.309 933.424C672.309 974.707 705.784 1008.17 747.079 1008.17Z" stroke="#A4A8A8" stroke-width="1.5" stroke-miterlimit="10"/>
  <path d="M747.079 1034.01C691.601 1034.01 646.463 988.888 646.463 933.425C646.463 877.962 691.601 832.836 747.079 832.836C802.557 832.836 847.694 877.962 847.694 933.425C847.694 988.888 802.557 1034.01 747.079 1034.01Z" stroke="#A4A8A8" stroke-width="1.5" stroke-miterlimit="10"/>
  <path d="M747.078 1021.1C698.721 1021.1 659.383 981.768 659.383 933.424C659.383 885.08 698.721 845.752 747.078 845.752C795.436 845.752 834.768 885.08 834.768 933.424C834.768 981.768 795.43 1021.1 747.078 1021.1Z" stroke="#A4A8A8" stroke-width="1.5" stroke-miterlimit="10"/>
  <path d="M747.079 1008.17C788.373 1008.17 821.849 974.707 821.849 933.424C821.849 892.141 788.373 858.674 747.079 858.674C705.784 858.674 672.309 892.141 672.309 933.424C672.309 974.707 705.784 1008.17 747.079 1008.17Z" stroke="#A4A8A8" stroke-width="1.5" stroke-miterlimit="10"/>
  <path d="M747.079 994.311C780.715 994.311 807.982 967.051 807.982 933.424C807.982 899.797 780.715 872.537 747.079 872.537C713.443 872.537 686.176 899.797 686.176 933.424C686.176 967.051 713.443 994.311 747.079 994.311Z" stroke="#A4A8A8" stroke-width="1.5" stroke-miterlimit="10"/>
  <path d="M747.078 981.613C773.699 981.613 795.279 960.038 795.279 933.425C795.279 906.811 773.699 885.236 747.078 885.236C720.457 885.236 698.877 906.811 698.877 933.425C698.877 960.038 720.457 981.613 747.078 981.613Z" stroke="#A4A8A8" stroke-width="1.5" stroke-miterlimit="10"/>
  <path d="M105.786 569.43H34.0488V641.148H105.786V569.43Z" stroke="#18181B" stroke-width="1.3" stroke-miterlimit="10"/>
  <path d="M34.0488 641.148L61.1273 668.219H133.515V596.204L105.792 569.43" stroke="#18181B" stroke-width="1.3" stroke-miterlimit="10"/>
  <path d="M105.791 641.148L133.192 668.542" stroke="#18181B" stroke-width="1.3" stroke-miterlimit="10"/>
  <path d="M527.682 689.801L536.945 696.041L546.204 689.801L555.467 696.041L564.731 689.801L573.99 696.041L583.253 689.801L592.517 696.041L601.781 689.801L611.044 696.041L620.308 689.801" stroke="#18181B" stroke-width="2" stroke-miterlimit="10"/>
  <path d="M527.682 704.412L536.945 710.652L546.204 704.412L555.467 710.652L564.731 704.412L573.99 710.652L583.253 704.412L592.517 710.652L601.781 704.412L611.044 710.652L620.308 704.412" stroke="#18181B" stroke-width="2" stroke-miterlimit="10"/>
  <path d="M609.629 84.9345C609.629 55.6325 633.389 31.8789 662.699 31.8789C692.009 31.8789 715.768 55.6325 715.768 84.9345C715.768 114.237 692.009 137.99 662.699 137.99" stroke="#18181B" stroke-width="1.5" stroke-miterlimit="10"/>
  <path d="M125.882 71.2042L118.962 77.8683L126 84.6459L119.402 91L112.363 84.2223L105.443 90.8863L99.1609 84.8371L106.081 78.1731L99 71.3541L105.598 65L112.68 71.819L119.6 65.155L125.882 71.2042Z" fill="#18181B" fill-opacity="0.32"/>
  <path d="M201.572 756.396L215.528 742.449" stroke="#18181B" stroke-width="1.5" stroke-miterlimit="10"/>
  <path d="M213.738 756.396L227.688 742.449" stroke="#18181B" stroke-width="1.5" stroke-miterlimit="10"/>
  <path d="M225.899 756.396L239.855 742.449" stroke="#18181B" stroke-width="1.5" stroke-miterlimit="10"/>
  <path d="M238.065 756.396L252.016 742.449" stroke="#18181B" stroke-width="1.5" stroke-miterlimit="10"/>
  <path d="M250.226 756.396L264.181 742.449" stroke="#18181B" stroke-width="1.5" stroke-miterlimit="10"/>
  <path d="M262.393 756.396L276.343 742.449" stroke="#18181B" stroke-width="1.5" stroke-miterlimit="10"/>
  <path d="M274.553 756.396L288.508 742.449" stroke="#18181B" stroke-width="1.5" stroke-miterlimit="10"/>
  <path d="M33.4936 183.227H-26.9102V192.093H33.4936V183.227Z" fill="#1D1D1D"/>
  <path d="M52.3643 183.227H42.6689V192.093H52.3643V183.227Z" fill="#1D1D1D"/>
  <g style="mix-blend-mode:multiply">
  <path d="M794.415 520.707H724.576V530.067H794.415V520.707Z" fill="#18181B"/>
  </g>
  <g style="mix-blend-mode:multiply">
  <path d="M710.583 520.707H690.891V530.067H710.583V520.707Z" fill="#18181B"/>
  </g>
  <g style="mix-blend-mode:multiply">
  <path d="M145.316 661.459H125.623V681.146H145.316V661.459Z" fill="#A4A8A8"/>
  </g>
  </g>
  </g>
  <defs>
  <clipPath id="clip0_9618_12071">
  <rect width="750" height="1148" fill="white"/>
  </clipPath>
  <clipPath id="clip1_9618_12071">
  <rect width="750" height="1129" fill="white" transform="translate(1)"/>
  </clipPath>
  </defs>
  </svg>
  