<svg width="32" height="32" viewBox="0 0 32 32" fill="none" xmlns="http://www.w3.org/2000/svg">
<g clip-path="url(#clip0_9464_65863)">
<path d="M21.1972 20.1624L17.966 16.9312L6.80201 28.096C7.11401 28.1488 7.44921 28.1 7.75961 27.9208L21.1972 20.1624ZM22.6316 19.3344L19.0972 15.8L22.8116 12.0856L26.8396 14.4112C27.7996 14.9656 27.7996 16.3512 26.8396 16.904L22.6316 19.3344ZM21.3772 11.2576L17.966 14.6688L6.57561 3.27842C6.94681 3.15042 7.37241 3.17202 7.75961 3.39522L21.3772 11.2576ZM5.60121 4.56642L5.59961 4.64242V26.6744C5.59961 26.7856 5.61241 26.8944 5.63561 26.9984L16.8348 15.7992L5.60121 4.56642Z" fill="white"/>
</g>
<defs>
<clipPath id="clip0_9464_65863">
<rect width="32" height="32" fill="white"/>
</clipPath>
</defs>
</svg>
