<svg xmlns="http://www.w3.org/2000/svg" xmlns:xlink="http://www.w3.org/1999/xlink" fill="none" version="1.1" width="136" height="20.1484375" viewBox="0 0 136 20.1484375"><g><g><g><path d="M0,0.3410493731498718C0,0.3410493731498718,7.10545,0.3410493731498718,7.10545,0.3410493731498718C8.28412,0.3410493731498718,9.35075,0.47566737314987184,10.3042,0.7428323731498718C11.2577,1.0110323731498718,12.0723,1.4024593731498718,12.7478,1.9171093731498718C13.4233,2.432799373149872,13.9426,3.055149373149872,14.3068,3.786229373149872C14.6709,4.517309373149872,14.853,5.357119373149872,14.853,6.304619373149872C14.853,7.416769373149871,14.6386,8.374629373149872,14.2098,9.178199373149871C13.781,9.981759373149872,13.1971,10.645549373149873,12.458,11.171549373149873C11.7189,11.696549373149871,10.8559,12.088049373149872,9.87005,12.345849373149871C8.88423,12.603749373149872,7.83377,12.732149373149872,6.71974,12.732149373149872C6.71974,12.732149373149872,4.40441,12.732149373149872,4.40441,12.732149373149872C4.40441,12.732149373149872,4.40441,19.808849373149872,4.40441,19.808849373149872C4.40441,19.808849373149872,0,19.808849373149872,0,19.808849373149872C0,19.808849373149872,0,0.3410493731498718,0,0.3410493731498718ZM4.40441,9.487819373149872C4.40441,9.487819373149872,6.20474,9.487819373149872,6.20474,9.487819373149872C6.76176,9.487819373149872,7.29184,9.441219373149872,7.79606,9.349059373149872C8.2992,9.255859373149871,8.73878,9.091209373149871,9.11372,8.855109373149872C9.48865,8.619009373149872,9.78386,8.309389373149873,9.99826,7.928319373149872C10.2127,7.547249373149872,10.3193,7.0688393731498715,10.3193,6.4910193731498715C10.3193,5.4813793731498714,9.96594,4.739949373149872,9.25809,4.265679373149872C8.55132,3.792449373149872,7.65061,3.5553093731498717,6.55705,3.5553093731498717C6.55705,3.5553093731498717,4.40333,3.5553093731498717,4.40333,3.5553093731498717C4.40333,3.5553093731498717,4.40333,9.488849373149872,4.40333,9.488849373149872C4.40333,9.488849373149872,4.40441,9.487819373149872,4.40441,9.487819373149872Z" fill="#18181B" fill-opacity="1"/></g><g><path d="M27.520845288085937,0.00103552C28.957045288085936,0.00103552,30.28544528808594,0.227815,31.50724528808594,0.680338C32.72904528808594,1.1339,33.77834528808594,1.78835,34.65754528808594,2.64265C35.53674528808594,3.49799,36.22734528808594,4.55422,36.73154528808594,5.81031C37.234645288085936,7.06744,37.48674528808594,8.49853,37.48674528808594,10.1057C37.48674528808594,11.7128,37.229245288085934,13.0724,36.71534528808594,14.3078C36.201445288085935,15.5442,35.493645288085936,16.5942,34.592945288085936,17.4599C33.69214528808594,18.3256,32.62664528808594,18.9894,31.394145288085937,19.4533C30.16154528808594,19.9172,28.82664528808594,20.1481,27.391565288085935,20.1481C25.956465288085937,20.1481,24.626955288085938,19.9265,23.40518528808594,19.4833C22.18341528808594,19.0401,21.132955288085938,18.3919,20.25379528808594,17.5366C19.374635288085937,16.6823,18.68294528808594,15.6312,18.17980328808594,14.3844C17.67558028808594,13.1387,17.424545288085938,11.7118,17.424545288085938,10.1046C17.424545288085938,8.49749,17.682044288085937,7.13371,18.195963288085938,5.88694C18.70988528808594,4.64121,19.417735288085936,3.5798,20.318435288085936,2.70375C21.219145288085937,1.82873,22.28469528808594,1.15875,23.51723528808594,0.694835C24.74978528808594,0.230921,26.083605288085938,0,27.519745288085936,0C27.519745288085936,0,27.520845288085937,0.00103552,27.520845288085937,0.00103552ZM22.08752528808594,10.1057C22.08752528808594,11.2592,22.231895288085937,12.2637,22.521715288085936,13.119C22.81153528808594,13.9744,23.201555288085938,14.6847,23.695005288085937,15.2512C24.18737528808594,15.8176,24.76055528808594,16.2401,25.414535288085936,16.5176C26.068515288085937,16.7962,26.769905288085937,16.9349,27.520845288085937,16.9349C28.271845288085938,16.9349,28.94084528808594,16.7962,29.594845288085935,16.5176C30.24884528808594,16.2391,30.811245288085935,15.8176,31.283145288085937,15.2512C31.753945288085937,14.6847,32.129945288085935,13.9744,32.40794528808594,13.119C32.68594528808594,12.2647,32.82594528808594,11.2603,32.82594528808594,10.1057C32.82594528808594,8.95105,32.681545288085935,7.88032,32.391745288085936,7.01566C32.101945288085936,6.14996,31.710845288085938,5.43442,31.218445288085938,4.86799C30.725045288085937,4.30156,30.151845288085937,3.88424,29.498945288085938,3.61604C28.84494528808594,3.34888,28.14354528808594,3.21426,27.392645288085937,3.21426C26.641695288085938,3.21426,25.945695288085936,3.3582,25.302485288085936,3.64711C24.65928528808594,3.93602,24.10226528808594,4.36265,23.630365288085937,4.92908C23.15846528808594,5.49551,22.783525288085936,6.21106,22.505555288085937,7.07676C22.22651528808594,7.94245,22.08752528808594,8.95105,22.08752528808594,10.1046C22.08752528808594,10.1046,22.08752528808594,10.1057,22.08752528808594,10.1057Z" fill="#18181B" fill-opacity="1"/></g><g><path d="M41.34629821777344,0.3410493731498718C41.34629821777344,0.3410493731498718,45.750708217773436,0.3410493731498718,45.750708217773436,0.3410493731498718C45.750708217773436,0.3410493731498718,45.750708217773436,16.47134937314987,45.750708217773436,16.47134937314987C45.750708217773436,16.47134937314987,53.91739821777344,16.47134937314987,53.91739821777344,16.47134937314987C53.91739821777344,16.47134937314987,53.91739821777344,19.808849373149872,53.91739821777344,19.808849373149872C53.91739821777344,19.808849373149872,41.34629821777344,19.808849373149872,41.34629821777344,19.808849373149872C41.34629821777344,19.808849373149872,41.34629821777344,0.3410493731498718,41.34629821777344,0.3410493731498718Z" fill="#18181B" fill-opacity="1"/></g><g><path d="M56.746785389404295,0.3410493731498718C56.746785389404295,0.3410493731498718,61.055305389404296,7.911749373149872,61.055305389404296,7.911749373149872C61.055305389404296,7.911749373149872,65.4273553894043,0.3410493731498718,65.4273553894043,0.3410493731498718C65.4273553894043,0.3410493731498718,70.2174553894043,0.3410493731498718,70.2174553894043,0.3410493731498718C70.2174553894043,0.3410493731498718,63.144355389404296,11.774249373149871,63.144355389404296,11.774249373149871C63.144355389404296,11.774249373149871,63.144355389404296,19.808849373149872,63.144355389404296,19.808849373149872C63.144355389404296,19.808849373149872,58.73997538940429,19.808849373149872,58.73997538940429,19.808849373149872C58.73997538940429,19.808849373149872,58.73997538940429,11.774249373149871,58.73997538940429,11.774249373149871C58.73997538940429,11.774249373149871,51.7950553894043,0.3410493731498718,51.7950553894043,0.3410493731498718C51.7950553894043,0.3410493731498718,56.746785389404295,0.3410493731498718,56.746785389404295,0.3410493731498718Z" fill="#18181B" fill-opacity="1"/></g><g><path d="M72.6610420288086,0.3410493731498718C72.6610420288086,0.3410493731498718,77.22599202880859,12.114949373149871,77.22599202880859,12.114949373149871C77.59015202880859,13.083149373149872,77.95431202880859,14.046149373149872,78.3195420288086,15.004049373149872C78.6837020288086,15.961949373149872,79.02739202880859,16.92494937314987,79.3484620288086,17.89314937314987C79.3484620288086,17.89314937314987,79.4131120288086,17.89314937314987,79.4131120288086,17.89314937314987C79.73417202880859,16.92494937314987,80.0778620288086,15.961949373149872,80.4420220288086,15.004049373149872C80.80618202880859,14.046149373149872,81.17039202880859,13.083149373149872,81.5355920288086,12.114949373149871C81.5355920288086,12.114949373149871,86.13179202880859,0.3410493731498718,86.13179202880859,0.3410493731498718C86.13179202880859,0.3410493731498718,87.9320920288086,0.3410493731498718,87.9320920288086,0.3410493731498718C87.9320920288086,0.3410493731498718,80.1511220288086,19.808849373149872,80.1511220288086,19.808849373149872C80.1511220288086,19.808849373149872,78.51132202880859,19.808849373149872,78.51132202880859,19.808849373149872C78.51132202880859,19.808849373149872,70.8283920288086,0.3410493731498718,70.8283920288086,0.3410493731498718C70.8283920288086,0.3410493731498718,72.6610420288086,0.3410493731498718,72.6610420288086,0.3410493731498718Z" fill="#18181B" fill-opacity="1"/></g><g><path d="M92.24044359863281,0.3410493731498718C92.24044359863281,0.3410493731498718,92.24044359863281,19.808849373149872,92.24044359863281,19.808849373149872C92.24044359863281,19.808849373149872,90.56831359863281,19.808849373149872,90.56831359863281,19.808849373149872C90.56831359863281,19.808849373149872,90.56831359863281,0.3410493731498718,90.56831359863281,0.3410493731498718C90.56831359863281,0.3410493731498718,92.24044359863281,0.3410493731498718,92.24044359863281,0.3410493731498718Z" fill="#18181B" fill-opacity="1"/></g><g><path d="M97.38382720947266,0.3410493731498718C97.38382720947266,0.3410493731498718,108.95832720947266,0.3410493731498718,108.95832720947266,0.3410493731498718C108.95832720947266,0.3410493731498718,108.95832720947266,1.6385593731498718,108.95832720947266,1.6385593731498718C108.95832720947266,1.6385593731498718,99.05594720947266,1.6385593731498718,99.05594720947266,1.6385593731498718C99.05594720947266,1.6385593731498718,99.05594720947266,9.147129373149872,99.05594720947266,9.147129373149872C99.05594720947266,9.147129373149872,108.12222720947265,9.147129373149872,108.12222720947265,9.147129373149872C108.12222720947265,9.147129373149872,108.12222720947265,10.444649373149872,108.12222720947265,10.444649373149872C108.12222720947265,10.444649373149872,99.05594720947266,10.444649373149872,99.05594720947266,10.444649373149872C99.05594720947266,10.444649373149872,99.05594720947266,18.51034937314987,99.05594720947266,18.51034937314987C99.05594720947266,18.51034937314987,109.05532720947265,18.51034937314987,109.05532720947265,18.51034937314987C109.05532720947265,18.51034937314987,109.05532720947265,19.80784937314987,109.05532720947265,19.80784937314987C109.05532720947265,19.80784937314987,97.38490565947265,19.80784937314987,97.38490565947265,19.80784937314987C97.38490565947265,19.80784937314987,97.38490565947265,0.3410493731498718,97.38490565947265,0.3410493731498718C97.38490565947265,0.3410493731498718,97.38382720947266,0.3410493731498718,97.38382720947266,0.3410493731498718Z" fill="#18181B" fill-opacity="1"/></g><g><path d="M112.46318754150391,0.3410493731498718C112.46318754150391,0.3410493731498718,115.8074375415039,11.805349373149872,115.8074375415039,11.805349373149872C116.1069575415039,12.814949373149872,116.3913875415039,13.824549373149871,116.6596575415039,14.833149373149872C116.92793754150391,15.842849373149871,117.16818754150391,16.86284937314987,117.38259754150391,17.892149373149874C117.38259754150391,17.892149373149874,117.44723754150391,17.892149373149874,117.44723754150391,17.892149373149874C117.68318754150391,16.861749373149873,117.94499754150391,15.842849373149871,118.2348175415039,14.833149373149872C118.5246375415039,13.823549373149872,118.8187675415039,12.814949373149872,119.1193575415039,11.805349373149872C119.1193575415039,11.805349373149872,122.5918175415039,0.3410493731498718,122.5918175415039,0.3410493731498718C122.5918175415039,0.3410493731498718,124.16701754150391,0.3410493731498718,124.16701754150391,0.3410493731498718C124.16701754150391,0.3410493731498718,127.7041175415039,11.805349373149872,127.7041175415039,11.805349373149872C128.0036175415039,12.835649373149872,128.3042175415039,13.850449373149871,128.6048175415039,14.848749373149872C128.9043175415039,15.847949373149872,129.1833175415039,16.86284937314987,129.44081754150392,17.892149373149874C129.44081754150392,17.892149373149874,129.5055175415039,17.892149373149874,129.5055175415039,17.892149373149874C129.7414175415039,16.861749373149873,129.9817175415039,15.847949373149872,130.22841754150392,14.848749373149872C130.4751175415039,13.849449373149872,130.7477175415039,12.835649373149872,131.0483175415039,11.805349373149872C131.0483175415039,11.805349373149872,134.2956175415039,0.3410493731498718,134.2956175415039,0.3410493731498718C134.2956175415039,0.3410493731498718,136.0000175415039,0.3410493731498718,136.0000175415039,0.3410493731498718C136.0000175415039,0.3410493731498718,130.3092175415039,19.808849373149872,130.3092175415039,19.808849373149872C130.3092175415039,19.808849373149872,128.6048175415039,19.808849373149872,128.6048175415039,19.808849373149872C128.6048175415039,19.808849373149872,124.68201754150391,6.7685393731498715,124.68201754150391,6.7685393731498715C124.4460175415039,6.027099373149872,124.2208175415039,5.280489373149872,124.00641754150391,4.5286993731498715C123.79201754150391,3.7769093731498717,123.5884175415039,3.019949373149872,123.3955175415039,2.257799373149872C123.3955175415039,2.257799373149872,123.33091754150391,2.257799373149872,123.33091754150391,2.257799373149872C123.1380175415039,3.019949373149872,122.93981754150391,3.771729373149872,122.7362175415039,4.513169373149871C122.5325175415039,5.254599373149872,122.3127175415039,6.007429373149872,122.07681754150391,6.7685393731498715C122.07681754150391,6.7685393731498715,118.2509875415039,19.808849373149872,118.2509875415039,19.808849373149872C118.2509875415039,19.808849373149872,116.57885754150391,19.808849373149872,116.57885754150391,19.808849373149872C116.57885754150391,19.808849373149872,110.7264175415039,0.3410493731498718,110.7264175415039,0.3410493731498718C110.7264175415039,0.3410493731498718,112.46210754150391,0.3410493731498718,112.46210754150391,0.3410493731498718C112.46210754150391,0.3410493731498718,112.46318754150391,0.3410493731498718,112.46318754150391,0.3410493731498718Z" fill="#18181B" fill-opacity="1"/></g></g></g></svg>