<svg width="32" height="32" viewBox="0 0 32 32" fill="none" xmlns="http://www.w3.org/2000/svg">
<g clip-path="url(#clip0_9464_66053)">
<path d="M16.1663 10.3464C17.1711 10.3464 19.0823 9.00155 21.0535 9.20235C21.9775 9.23035 22.8823 9.46635 23.6959 9.89355C24.5095 10.32 25.2087 10.9248 25.7391 11.6592C24.9047 12.1576 24.2127 12.852 23.7295 13.68C23.2455 14.5056 22.9855 15.4376 22.9727 16.388C22.9735 17.4576 23.2991 18.504 23.9087 19.3936C24.5183 20.2848 25.3847 20.9824 26.3999 21.3984C26.0007 22.656 25.3991 23.8448 24.6175 24.9208C23.5671 26.444 22.4655 27.9328 20.7191 27.96C19.0207 27.9984 18.4503 26.9911 16.5031 26.9911C14.5375 26.9911 13.9279 27.9328 12.3007 27.9992C10.6367 28.0576 9.36471 26.3712 8.27671 24.8624C6.09991 21.7792 4.40791 16.1744 6.67751 12.3616C7.20231 11.448 7.96151 10.6824 8.88151 10.1376C9.80151 9.59355 10.8519 9.28955 11.9295 9.25515C13.5951 9.22235 15.1423 10.3464 16.1663 10.3464ZM21.0735 3.19995C21.1871 4.63995 20.7183 6.06555 19.7655 7.17595C19.3095 7.72475 18.7303 8.16795 18.0719 8.46955C17.4135 8.77275 16.6935 8.92635 15.9655 8.91835C15.9183 8.22555 16.0135 7.53115 16.2439 6.87435C16.4743 6.21835 16.8359 5.61115 17.3079 5.09035C18.2735 4.02315 19.6183 3.34795 21.0735 3.19995Z" fill="white"/>
</g>
<defs>
<clipPath id="clip0_9464_66053">
<rect width="32" height="32" fill="white"/>
</clipPath>
</defs>
</svg>
