<svg width="56" height="57" viewBox="0 0 56 57" fill="none" xmlns="http://www.w3.org/2000/svg">
<path d="M32.8149 30.6689C37.855 30.669 42.2252 34.1553 43.3452 39.0693L44.8306 45.5869H11.1714L12.6567 39.0693C13.7417 34.3089 17.8768 30.8878 22.7163 30.6787L23.187 30.6689H32.8149ZM23.187 33.6689C19.6607 33.6689 16.5884 36.0319 15.6646 39.4062L15.5815 39.7354L14.9321 42.5869H41.0698L40.4204 39.7354C39.6115 36.1864 36.4549 33.669 32.8149 33.6689H23.187ZM28.4194 11.5967C32.7155 11.8146 36.1322 15.3666 36.1323 19.7168L36.1216 20.1357C35.9037 24.4319 32.3508 27.8486 28.0005 27.8486L27.5825 27.8379C23.4249 27.6272 20.0912 24.2933 19.8804 20.1357L19.8696 19.7168C19.8698 15.2264 23.5101 11.5862 28.0005 11.5859L28.4194 11.5967ZM28.0005 14.5859C25.1669 14.5862 22.8698 16.8832 22.8696 19.7168C22.8696 22.5505 25.1668 24.8484 28.0005 24.8486C30.8344 24.8486 33.1323 22.5507 33.1323 19.7168C33.1321 16.8831 30.8343 14.5859 28.0005 14.5859Z" fill="#9199AB"/>
</svg>
