<svg xmlns="http://www.w3.org/2000/svg" width="48" height="48" viewBox="0 0 48 48" fill="none">
  <path d="M12.9071 37.0916H11.6571V38.3416H12.9071V37.0916ZM35.8162 37.0916V38.3416H37.0662V37.0916H35.8162ZM7.99805 35.8416C7.30769 35.8416 6.74805 36.4013 6.74805 37.0916C6.74805 37.782 7.30769 38.3416 7.99805 38.3416V35.8416ZM40.7253 38.3416C41.4157 38.3416 41.9753 37.782 41.9753 37.0916C41.9753 36.4013 41.4157 35.8416 40.7253 35.8416V38.3416ZM28.4526 37.0916H29.7026C29.7026 36.4013 29.143 35.8416 28.4526 35.8416V37.0916ZM20.2708 37.0916V35.8416C19.5804 35.8416 19.0208 36.4013 19.0208 37.0916H20.2708ZM24.3617 8.02344C17.3451 8.02344 11.6571 13.7114 11.6571 20.728H14.1571C14.1571 15.0922 18.7259 10.5234 24.3617 10.5234V8.02344ZM11.6571 20.728V37.0916H14.1571V20.728H11.6571ZM12.9071 38.3416H35.8162V35.8416H12.9071V38.3416ZM37.0662 37.0916V20.728H34.5662V37.0916H37.0662ZM37.0662 20.728C37.0662 13.7114 31.3782 8.02344 24.3617 8.02344V10.5234C29.9975 10.5234 34.5662 15.0922 34.5662 20.728H37.0662ZM7.99805 38.3416H40.7253V35.8416H7.99805V38.3416ZM24.3617 43.2507C27.3114 43.2507 29.7026 40.8595 29.7026 37.9098H27.2026C27.2026 39.4788 25.9307 40.7507 24.3617 40.7507V43.2507ZM29.7026 37.9098V37.0916H27.2026V37.9098H29.7026ZM28.4526 35.8416H20.2708V38.3416H28.4526V35.8416ZM19.0208 37.0916V37.9098H21.5208V37.0916H19.0208ZM19.0208 37.9098C19.0208 40.8595 21.412 43.2507 24.3617 43.2507V40.7507C22.7927 40.7507 21.5208 39.4788 21.5208 37.9098H19.0208Z" fill="#18181B"/>
</svg>