<svg t="1744768059139" class="icon" viewBox="0 0 1024 1024" version="1.1" xmlns="http://www.w3.org/2000/svg" p-id="5157" width="200" height="200"><path d="M217.216 802.752 62.08 802.752l0-153.024c0-23.36-7.744-30.592-31.04-30.592S0 629.44 0 652.8l0 0 0 168.96c0 23.36 18.88 42.24 42.176 42.24l175.04 0c23.296 0 31.04-7.296 31.04-30.592C248.256 810.048 240.512 802.752 217.216 802.752zM31.04 404.864c23.296 0 31.04-7.296 31.04-30.592L62.08 221.184l155.136 0c23.296 0 31.04-7.296 31.04-30.592 0-23.296-14.016-30.592-37.312-30.592L42.176 160C18.88 160 0 178.88 0 202.24L0 371.2c0 0 0 0 0 0C0 394.496 7.744 404.864 31.04 404.864zM124.096 741.568l775.744 0L899.84 282.432 124.096 282.432 124.096 741.568zM186.176 343.616l651.648 0 0 336.704L186.176 680.32 186.176 343.616zM806.784 221.184l155.136 0 0 153.024c0 23.36 7.744 30.592 31.04 30.592C1016.256 404.864 1024 394.496 1024 371.2c0 0 0 0 0 0L1024 202.24c0-23.36-18.88-42.24-42.176-42.24l-168.704 0c-23.296 0-37.312 7.296-37.312 30.592C775.744 213.888 783.488 221.184 806.784 221.184zM992.96 619.136c-23.296 0-31.04 7.296-31.04 30.592l0 153.024-155.136 0c-23.296 0-31.04 7.296-31.04 30.592 0 23.296 7.744 30.592 31.04 30.592l175.04 0c23.296 0 42.176-18.88 42.176-42.24L1024 652.8l0 0C1024 629.44 1016.256 619.136 992.96 619.136z" p-id="5158"></path></svg>