<svg width="18" height="18" viewBox="0 0 18 18" fill="none" xmlns="http://www.w3.org/2000/svg">
<path d="M5.96951 1.0437e-06L0.778632 1.36135e-07C0.348531 6.09368e-08 -6.09747e-08 0.348722 -1.3622e-07 0.77906L-1.04371e-06 5.96908C-1.11928e-06 6.40128 0.348529 6.75 0.778631 6.75C1.20873 6.75 1.56097 6.40128 1.56097 5.96908C1.56097 5.87955 1.54614 5.79052 1.54614 5.70099L1.54614 1.68425C1.54614 1.61191 1.60361 1.55441 1.67406 1.55441L5.88609 1.55441C5.9139 1.55627 5.94171 1.56183 5.96951 1.56183C6.39962 1.56183 6.75 1.21311 6.75 0.780916C6.75 0.348723 6.39962 1.1189e-06 5.96951 1.0437e-06Z" fill="white"/>
<path d="M12.0305 -5.21984e-07L17.2214 -6.80849e-08C17.6515 -3.04761e-08 18 0.348722 18 0.77906L18 5.96908C18 6.40128 17.6515 6.75 17.2214 6.75C16.7913 6.75 16.439 6.40128 16.439 5.96908C16.439 5.87955 16.4539 5.79052 16.4539 5.70099L16.4539 1.68425C16.4539 1.61191 16.3964 1.55441 16.3259 1.55441L12.1139 1.55441C12.0861 1.55626 12.0583 1.56183 12.0305 1.56183C11.6004 1.56183 11.25 1.21311 11.25 0.780914C11.25 0.348722 11.6004 -5.59593e-07 12.0305 -5.21984e-07Z" fill="white"/>
<path d="M5.96951 18L0.778632 18C0.348531 18 5.07995e-08 17.7094 1.13488e-07 17.3508L8.69536e-07 13.0258C9.32494e-07 12.6656 0.348531 12.375 0.778633 12.375C1.20873 12.375 1.56097 12.6656 1.56097 13.0258C1.56097 13.1006 1.54614 13.1747 1.54614 13.2495L1.54614 16.5965C1.54614 16.6567 1.60361 16.7047 1.67406 16.7047L5.88609 16.7047C5.9139 16.7031 5.9417 16.6985 5.96951 16.6985C6.39961 16.6985 6.75 16.9891 6.75 17.3492C6.75 17.7094 6.39961 18 5.96951 18Z" fill="white"/>
<path d="M12.0305 18L17.2214 18C17.6515 18 18 17.7094 18 17.3508L18 13.0258C18 12.6656 17.6515 12.375 17.2214 12.375C16.7913 12.375 16.439 12.6656 16.439 13.0258C16.439 13.1006 16.4539 13.1748 16.4539 13.2495L16.4539 16.5965C16.4539 16.6567 16.3964 16.7047 16.3259 16.7047L12.1139 16.7047C12.0861 16.7031 12.0583 16.6985 12.0305 16.6985C11.6004 16.6985 11.25 16.9891 11.25 17.3492C11.25 17.7094 11.6004 18 12.0305 18Z" fill="white"/>
</svg>
