<svg width="17" height="16" viewBox="0 0 17 16" fill="none" xmlns="http://www.w3.org/2000/svg">
<path fill-rule="evenodd" clip-rule="evenodd" d="M11.8912 6.596C11.8912 9.134 9.83322 11.192 7.29522 11.192C4.75722 11.192 2.69922 9.134 2.69922 6.596C2.69922 4.058 4.75722 2 7.29522 2C9.83322 2 11.8912 4.058 11.8912 6.596ZM10.8832 10.891C9.91122 11.703 8.65922 12.192 7.29522 12.192C4.20522 12.192 1.69922 9.687 1.69922 6.596C1.69922 3.506 4.20422 1 7.29522 1C10.3852 1 12.8912 3.505 12.8912 6.596C12.8912 7.961 12.4022 9.212 11.5902 10.184L15.5762 14.17L14.8692 14.877L10.8832 10.891Z" fill="currentColor"/>
</svg>