<svg width="18" height="20" viewBox="0 0 18 20" fill="none" xmlns="http://www.w3.org/2000/svg">
<path d="M12.0005 4.78906L5.66992 8.62451M5.66895 11.2812L12.3391 15.2227M14.5 6C15.8807 6 17 4.8807 17 3.5C17 2.11929 15.8807 1 14.5 1C13.1193 1 12 2.11929 12 3.5C12 4.8807 13.1193 6 14.5 6ZM3.5 12.5C4.8807 12.5 6 11.3807 6 10C6 8.6193 4.8807 7.5 3.5 7.5C2.1193 7.5 1 8.6193 1 10C1 11.3807 2.1193 12.5 3.5 12.5ZM14.5 14C15.8807 14 17 15.1193 17 16.5C17 17.8807 15.8807 19 14.5 19C13.1193 19 12 17.8807 12 16.5C12 15.1193 13.1193 14 14.5 14Z" stroke="white" stroke-width="1.5" stroke-linecap="round" stroke-linejoin="round"/>
</svg>
