<svg xmlns="http://www.w3.org/2000/svg" xmlns:xlink="http://www.w3.org/1999/xlink" fill="none" version="1.1" width="18" height="18" viewBox="0 0 18 18"><g><g><path d="M15.4583,5.7236428746032715C14.4679,4.682282874603271,13.2379,3.6283928746032714,11.859,2.9589868746032715C10.9607,2.5229298746032716,9.99937,2.2500128746032715,8.99991,2.2500128746032715C8.00045,2.2500128746032715,7.03913,2.5229298746032716,6.14087,2.9589868746032715C2.57182,4.691612874603272,0,8.999982874603273,0,8.999982874603273C0,8.999982874603273,0.968485,10.622362874603272,2.54161,12.276412874603272C4.17723,13.996112874603272,6.46628,15.750012874603271,9.00004,15.750012874603271C9.9995,15.750012874603271,10.9608,15.477112874603272,11.8591,15.041012874603272C15.4282,13.308412874603272,18,8.999982874603273,18,8.999982874603273C18,8.999982874603273,17.0315,7.377652874603272,15.4583,5.7236428746032715ZM16.2138,8.99590287460327Q15.4499,7.891312874603272,14.3714,6.757382874603271Q12.7613,5.0644128746032715,11.2039,4.308392874603271Q10.0537,3.7500128746032715,8.99991,3.7500128746032715Q7.94617,3.7500128746032715,6.79595,4.3083828746032715Q4.85227,5.251962874603271,2.87955,7.595252874603272Q2.24921,8.344002874603271,1.78614,9.004112874603273Q2.54992,10.108572874603272,3.62852,11.242622874603272Q6.48879,14.250012874603271,9.00004,14.250012874603271Q10.0538,14.250012874603271,11.204,13.69161287460327Q13.1477,12.74801287460327,15.1204,10.40473287460327Q15.7508,9.65601287460327,16.2138,8.99590287460327ZM8.99759,11.919012874603272Q9.14101,11.919012874603272,9.28374,11.904952874603271Q9.42648,11.890902874603272,9.56715,11.862912874603271Q9.70781,11.834932874603272,9.84506,11.793302874603272Q9.98231,11.75167287460327,10.1148,11.696782874603272Q10.2473,11.641892874603272,10.3738,11.574282874603272Q10.5003,11.506672874603272,10.6196,11.426992874603272Q10.7388,11.347312874603272,10.8497,11.25632287460327Q10.9605,11.165342874603272,11.062,11.063922874603271Q11.1634,10.962502874603272,11.2544,10.851642874603272Q11.3453,10.740772874603271,11.425,10.62151287460327Q11.5047,10.502262874603272,11.5723,10.375772874603271Q11.6399,10.24929287460327,11.6948,10.11678287460327Q11.7497,9.98427287460327,11.7913,9.847032874603272Q11.833,9.70978287460327,11.861,9.56911287460327Q11.8889,9.42844287460327,11.903,9.285712874603272Q11.917,9.142972874603272,11.917,8.999552874603271Q11.917,8.856132874603272,11.903,8.713392874603272Q11.8889,8.570662874603272,11.861,8.429992874603272Q11.833,8.289322874603272,11.7913,8.15207287460327Q11.7497,8.014832874603272,11.6948,7.882322874603272Q11.6399,7.749812874603271,11.5723,7.6233228746032715Q11.5047,7.496842874603272,11.425,7.377582874603272Q11.3453,7.258332874603272,11.2544,7.147462874603272Q11.1634,7.036592874603271,11.062,6.935182874603272Q10.9605,6.833762874603272,10.8497,6.742772874603271Q10.7388,6.651792874603271,10.6196,6.572112874603271Q10.5003,6.492422874603271,10.3738,6.424812874603272Q10.2473,6.357212874603271,10.1148,6.302322874603272Q9.98231,6.2474328746032715,9.84506,6.205802874603272Q9.70781,6.164172874603271,9.56715,6.136182874603271Q9.42648,6.108202874603272,9.28374,6.094152874603271Q9.14101,6.080092874603272,8.99759,6.080092874603272Q8.85416,6.080092874603272,8.71143,6.094152874603271Q8.5687,6.108202874603272,8.42803,6.136182874603271Q8.28736,6.164172874603271,8.15011,6.205802874603272Q8.01286,6.2474328746032715,7.88036,6.302322874603272Q7.74785,6.357212874603271,7.62136,6.424812874603272Q7.49487,6.492422874603271,7.37562,6.572112874603271Q7.25637,6.651792874603271,7.1455,6.742772874603271Q7.03463,6.833762874603272,6.93322,6.935182874603272Q6.8318,7.036592874603271,6.74081,7.147462874603272Q6.64982,7.258332874603272,6.57014,7.377582874603272Q6.49046,7.496842874603272,6.42285,7.6233228746032715Q6.35524,7.749812874603271,6.30036,7.882322874603272Q6.24547,8.014832874603272,6.20384,8.15207287460327Q6.1622,8.289322874603272,6.13422,8.429992874603272Q6.10624,8.570662874603272,6.09218,8.713392874603272Q6.07812,8.856132874603272,6.07812,8.999552874603271Q6.07812,9.142972874603272,6.09218,9.285712874603272Q6.10624,9.42844287460327,6.13422,9.56911287460327Q6.1622,9.70978287460327,6.20384,9.847022874603272Q6.24547,9.98427287460327,6.30036,10.11678287460327Q6.35524,10.24928287460327,6.42285,10.375772874603271Q6.49046,10.502262874603272,6.57014,10.62151287460327Q6.64982,10.740772874603271,6.74081,10.851642874603272Q6.8318,10.962502874603272,6.93322,11.063922874603271Q7.03463,11.165342874603272,7.1455,11.25632287460327Q7.25637,11.347312874603272,7.37562,11.426992874603272Q7.49487,11.506672874603272,7.62136,11.574282874603272Q7.74785,11.641892874603272,7.88036,11.696782874603272Q8.01286,11.75167287460327,8.15011,11.793302874603272Q8.28736,11.834932874603272,8.42803,11.862912874603271Q8.5687,11.890902874603272,8.71143,11.904952874603271Q8.85416,11.919012874603272,8.99759,11.919012874603272ZM8.99759,7.580092874603271Q9.06732,7.580092874603271,9.13672,7.586922874603271Q9.20612,7.5937628746032715,9.27451,7.607362874603272Q9.3429,7.620972874603272,9.40963,7.641212874603272Q9.47637,7.661452874603271,9.54079,7.688142874603272Q9.60522,7.714822874603271,9.66672,7.747702874603272Q9.72822,7.780572874603272,9.7862,7.819312874603272Q9.84418,7.858052874603271,9.89808,7.902292874603272Q9.95199,7.946532874603271,10.0013,7.995842874603271Q10.0506,8.045152874603271,10.0948,8.09905287460327Q10.1391,8.152962874603272,10.1778,8.210942874603273Q10.2166,8.268922874603271,10.2494,8.330422874603272Q10.2823,8.39192287460327,10.309,8.456352874603272Q10.3357,8.52077287460327,10.3559,8.58750287460327Q10.3762,8.65423287460327,10.3898,8.72263287460327Q10.4034,8.791022874603271,10.4102,8.860422874603271Q10.417,8.929822874603271,10.417,8.999552874603271Q10.417,9.069282874603271,10.4102,9.138682874603273Q10.4034,9.20808287460327,10.3898,9.276472874603272Q10.3762,9.344872874603272,10.3559,9.411602874603272Q10.3357,9.478332874603272,10.309,9.542752874603272Q10.2823,9.607182874603271,10.2494,9.66868287460327Q10.2166,9.730182874603273,10.1778,9.788162874603271Q10.1391,9.84614287460327,10.0948,9.900052874603272Q10.0506,9.95395287460327,10.0013,10.003262874603273Q9.95199,10.052572874603271,9.89808,10.096812874603271Q9.84418,10.141052874603272,9.7862,10.179792874603272Q9.72822,10.218532874603271,9.66672,10.251402874603272Q9.60522,10.28428287460327,9.54079,10.310962874603272Q9.47637,10.337652874603272,9.40963,10.357892874603271Q9.3429,10.37813287460327,9.27451,10.391742874603272Q9.20612,10.40534287460327,9.13672,10.412182874603271Q9.06732,10.419012874603272,8.99759,10.419012874603272Q8.92785,10.419012874603272,8.85846,10.412182874603271Q8.78906,10.40534287460327,8.72066,10.391742874603272Q8.65227,10.37813287460327,8.58554,10.357892874603271Q8.51881,10.337652874603272,8.45438,10.310962874603272Q8.38996,10.28428287460327,8.32846,10.251402874603272Q8.26696,10.218532874603271,8.20897,10.179792874603272Q8.15099,10.141052874603272,8.09709,10.096812874603271Q8.04318,10.052572874603271,7.99388,10.003262874603273Q7.94457,9.95395287460327,7.90033,9.900052874603272Q7.85609,9.84614287460327,7.81735,9.788162874603271Q7.7786,9.730182874603273,7.74573,9.66868287460327Q7.71286,9.607182874603271,7.68617,9.542752874603272Q7.65949,9.478332874603272,7.63925,9.411602874603272Q7.619,9.344872874603272,7.6054,9.276472874603272Q7.59179,9.20808287460327,7.58496,9.138682874603273Q7.57812,9.069282874603271,7.57812,8.999552874603271Q7.57812,8.929822874603271,7.58496,8.860422874603271Q7.59179,8.791022874603271,7.6054,8.72263287460327Q7.619,8.65423287460327,7.63925,8.58750287460327Q7.65949,8.52077287460327,7.68617,8.456352874603272Q7.71286,8.39192287460327,7.74573,8.330422874603272Q7.7786,8.268922874603271,7.81735,8.210942874603273Q7.85609,8.152962874603272,7.90033,8.09905287460327Q7.94457,8.045152874603271,7.99388,7.995842874603271Q8.04318,7.946532874603271,8.09709,7.902292874603272Q8.15099,7.858052874603271,8.20897,7.819312874603272Q8.26696,7.780572874603272,8.32846,7.747702874603272Q8.38996,7.714822874603271,8.45438,7.688142874603272Q8.51881,7.661452874603271,8.58554,7.641212874603272Q8.65227,7.620972874603272,8.72066,7.607362874603272Q8.78906,7.5937628746032715,8.85846,7.586922874603271Q8.92785,7.580092874603271,8.99759,7.580092874603271Z" fill-rule="evenodd" fill="#1E232C" fill-opacity="1"/></g></g></svg>