<svg width="32" height="32" viewBox="0 0 32 32" fill="none" xmlns="http://www.w3.org/2000/svg">
<path d="M16.1683 10.3466C17.1731 10.3466 19.0843 9.0018 21.0555 9.2026C21.9795 9.2306 22.8843 9.4666 23.6979 9.8938C24.5115 10.3202 25.2107 10.925 25.7411 11.6594C24.9067 12.1578 24.2147 12.8522 23.7315 13.6802C23.2475 14.5058 22.9875 15.4378 22.9747 16.3882C22.9755 17.4578 23.3011 18.5042 23.9107 19.3938C24.5203 20.285 25.3867 20.9826 26.4019 21.3986C26.0027 22.6562 25.4011 23.845 24.6195 24.921C23.5691 26.4442 22.4675 27.933 20.7211 27.9602C19.0227 27.9986 18.4523 26.9914 16.5051 26.9914C14.5395 26.9914 13.9299 27.933 12.3027 27.9994C10.6387 28.0578 9.36666 26.3714 8.27866 24.8626C6.10186 21.7794 4.40986 16.1746 6.67946 12.3618C7.20426 11.4482 7.96346 10.6826 8.88346 10.1378C9.80346 9.5938 10.8539 9.2898 11.9315 9.2554C13.5971 9.2226 15.1443 10.3466 16.1683 10.3466ZM21.0755 3.2002C21.1891 4.6402 20.7203 6.0658 19.7675 7.1762C19.3115 7.725 18.7323 8.1682 18.0739 8.4698C17.4155 8.773 16.6955 8.9266 15.9675 8.9186C15.9203 8.2258 16.0155 7.5314 16.2459 6.8746C16.4763 6.2186 16.8379 5.6114 17.3099 5.0906C18.2755 4.0234 19.6203 3.3482 21.0755 3.2002Z" fill="currentColor"/>
</svg>