<svg width="40" height="40" viewBox="0 0 40 40" fill="none" xmlns="http://www.w3.org/2000/svg">
<g id="Frame 1171276492">
<rect x="1" y="1" width="38" height="38" rx="19" fill="#EDEDED"/>
<rect x="1" y="1" width="38" height="38" rx="19" stroke="white" stroke-width="2"/>
<g id="vctrly-notion-people-98">
<path id="path4845" d="M16.9729 17.4522C16.4141 17.4662 16.0288 17.7187 16.0288 17.7187C15.9701 17.7575 15.9284 17.8193 15.9129 17.8905C15.8974 17.9617 15.9093 18.0364 15.9462 18.0983C15.9644 18.1289 15.9882 18.1555 16.0162 18.1764C16.0442 18.1974 16.0758 18.2123 16.1093 18.2204C16.1428 18.2285 16.1774 18.2295 16.2113 18.2235C16.2452 18.2175 16.2776 18.2045 16.3067 18.1853C16.3067 18.1853 16.5644 18.0133 16.9853 18.0029C17.4062 17.9924 17.9741 18.1365 18.6049 18.8862C18.6277 18.9133 18.6553 18.9354 18.6862 18.9512C18.7171 18.967 18.7506 18.9763 18.7849 18.9785C18.8192 18.9806 18.8536 18.9757 18.886 18.9639C18.9185 18.9521 18.9484 18.9337 18.9741 18.9097C19.026 18.8612 19.0575 18.793 19.0617 18.7201C19.0659 18.6472 19.0424 18.5756 18.9964 18.5209C18.2803 17.67 17.5318 17.4383 16.9729 17.4522Z" fill="black"/>
<path id="path4846" d="M23.417 17.4051C23.0747 17.4263 22.774 17.5494 22.5394 17.7064C22.07 18.0205 21.8133 18.4583 21.8133 18.4583C21.7765 18.5202 21.7646 18.5949 21.7801 18.6661C21.7956 18.7373 21.8373 18.799 21.896 18.8378C21.9548 18.8766 22.0258 18.8892 22.0934 18.8729C22.161 18.8566 22.2196 18.8127 22.2565 18.7508C22.2565 18.7508 22.4635 18.4097 22.8199 18.1712C23.1762 17.9328 23.6306 17.7848 24.2771 18.1887C24.3067 18.2072 24.3394 18.2194 24.3734 18.2245C24.4073 18.2297 24.442 18.2277 24.4752 18.2188C24.5085 18.2098 24.5398 18.194 24.5673 18.1724C24.5948 18.1507 24.618 18.1235 24.6355 18.0924C24.6709 18.0296 24.6811 17.9546 24.664 17.8838C24.6468 17.813 24.6037 17.7523 24.5441 17.7151C24.1431 17.4645 23.7593 17.3839 23.417 17.4051Z" fill="black"/>
<path id="path4847" d="M21.0544 18.7254C21.0203 18.7213 20.9857 18.7244 20.9527 18.7344C20.9198 18.7445 20.889 18.7613 20.8621 18.7838C20.8353 18.8064 20.8129 18.8343 20.7963 18.8659C20.7797 18.8976 20.7692 18.9324 20.7654 18.9683C20.7654 18.9683 20.6783 19.7864 20.6194 20.6771C20.5899 21.1225 20.5674 21.5861 20.5666 21.9806C20.5658 22.3752 20.5623 22.6694 20.6636 22.921C20.7128 23.0432 20.8495 23.1823 20.9978 23.192C21.1462 23.2018 21.2342 23.14 21.3131 23.088C21.4711 22.984 21.6149 22.8488 21.7796 22.7489C21.9443 22.6491 22.1092 22.5885 22.2991 22.6135C22.4891 22.6385 22.7296 22.752 23.0348 23.093C23.0943 23.1595 23.1838 23.3404 23.2314 23.5633C23.2791 23.7863 23.2923 24.0511 23.2532 24.2957C23.2142 24.5403 23.1249 24.7612 22.9797 24.9242C22.8346 25.0872 22.6334 25.2048 22.3129 25.2357C22.2787 25.239 22.2455 25.2493 22.2151 25.2661C22.1847 25.283 22.1577 25.3059 22.1357 25.3337C22.1138 25.3615 22.0972 25.3936 22.087 25.4281C22.0768 25.4627 22.0732 25.499 22.0763 25.535C22.0794 25.571 22.0892 25.6061 22.1052 25.6381C22.1212 25.6701 22.143 25.6985 22.1694 25.7216C22.1958 25.7447 22.2263 25.7622 22.2591 25.7729C22.2919 25.7836 22.3264 25.7875 22.3606 25.7842C22.7888 25.7429 23.1292 25.5615 23.3613 25.3009C23.5933 25.0404 23.7169 24.7131 23.769 24.387C23.8211 24.061 23.8037 23.7327 23.7417 23.4425C23.6797 23.1523 23.5807 22.8999 23.4153 22.7152C23.0538 22.3113 22.699 22.1111 22.364 22.067C22.029 22.0229 21.7393 22.1378 21.5187 22.2716C21.3486 22.3747 21.221 22.4786 21.124 22.5538C21.1073 22.4227 21.0891 22.2329 21.0896 21.9817C21.0904 21.6086 21.1121 21.1536 21.1411 20.7154C21.1991 19.8389 21.2852 19.0296 21.2852 19.0296C21.289 18.9937 21.2861 18.9573 21.2765 18.9226C21.267 18.8878 21.2511 18.8554 21.2297 18.8271C21.2082 18.7989 21.1817 18.7753 21.1517 18.7578C21.1216 18.7404 21.0886 18.7293 21.0544 18.7253V18.7254Z" fill="black"/>
<path id="ellipse4847" fill-rule="evenodd" clip-rule="evenodd" d="M18.4694 21.0841C18.4694 21.3547 18.3959 21.6141 18.2651 21.8054C18.1343 21.9968 17.9568 22.1042 17.7718 22.1042C17.5868 22.1042 17.4094 21.9968 17.2785 21.8054C17.1477 21.6141 17.0742 21.3547 17.0742 21.0841C17.0742 20.8135 17.1477 20.5541 17.2785 20.3628C17.4094 20.1714 17.5868 20.064 17.7718 20.064C17.9568 20.064 18.1343 20.1714 18.2651 20.3628C18.3959 20.5541 18.4694 20.8135 18.4694 21.0841Z" fill="black"/>
<path id="ellipse4848" fill-rule="evenodd" clip-rule="evenodd" d="M23.9186 20.7213C23.9186 20.9919 23.8451 21.2513 23.7143 21.4427C23.5835 21.634 23.406 21.7414 23.221 21.7414C23.036 21.7414 22.8586 21.634 22.7278 21.4427C22.5969 21.2513 22.5234 20.9919 22.5234 20.7213C22.5234 20.4508 22.5969 20.1913 22.7278 20C22.8586 19.8087 23.036 19.7012 23.221 19.7012C23.406 19.7012 23.5835 19.8087 23.7143 20C23.8451 20.1913 23.9186 20.4508 23.9186 20.7213Z" fill="black"/>
<path id="path4848" d="M20.2517 27.0696C20.2188 27.0801 20.1883 27.0974 20.1618 27.1204C20.1352 27.1433 20.1133 27.1716 20.0971 27.2035C20.081 27.2354 20.071 27.2704 20.0676 27.3063C20.0643 27.3423 20.0677 27.3787 20.0778 27.4133C20.335 28.3024 21.0898 28.7288 21.8059 28.7113C22.5219 28.6938 23.2451 28.2543 23.4737 27.4606C23.4938 27.3907 23.4868 27.3152 23.4541 27.2508C23.4214 27.1864 23.3657 27.1383 23.2993 27.1171C23.233 27.0959 23.1613 27.1034 23.1002 27.1378C23.039 27.1722 22.9933 27.2308 22.9732 27.3007C22.8186 27.8377 22.3177 28.1479 21.7937 28.1607C21.2697 28.1735 20.7684 27.9107 20.5781 27.2528C20.5681 27.2182 20.5517 27.186 20.5299 27.1581C20.5081 27.1301 20.4812 27.107 20.4509 27.09C20.4206 27.073 20.3874 27.0624 20.3532 27.0589C20.3191 27.0554 20.2845 27.059 20.2517 27.0696Z" fill="black"/>
<path id="path4849" d="M17.6808 12.9713C17.6144 12.9696 17.5499 12.9946 17.5004 13.0412C17.4508 13.0877 17.42 13.1524 17.414 13.2221C17.213 15.5931 16.2138 16.6562 14.669 17.109C14.6149 17.1249 14.567 17.1587 14.5326 17.2054C14.462 17.3011 14.4396 17.3764 14.398 17.4907C14.3564 17.6051 14.3114 17.7456 14.2635 17.9065C14.1677 18.2284 14.0608 18.6309 13.96 19.0407C13.8592 19.4504 13.7646 19.8667 13.6941 20.2149C13.6582 20.3924 13.6285 20.545 13.6071 20.6779C13.5509 20.6283 13.5255 20.6126 13.4566 20.547C13.1375 20.2432 12.7205 19.8143 12.2548 19.6197C11.9472 19.4912 11.6206 19.5146 11.3458 19.6495C11.071 19.7844 10.8437 20.0215 10.68 20.3166C10.3526 20.9069 10.2738 21.7454 10.6429 22.5615C11.0864 23.5417 11.8336 23.818 12.4168 23.788C12.6319 23.777 12.8174 23.7288 12.9807 23.6757C12.8408 24.6491 12.6456 26.9313 13.4498 29.1243C14.3319 31.5303 16.0134 33.0011 18.0156 33.4496C20.0179 33.898 22.3238 33.3379 24.4916 31.7842C26.4913 30.3508 27.4434 28.1788 27.7889 26.0718C28.1343 23.9649 27.8875 21.918 27.4695 20.6313C26.7386 18.3811 25.983 17.2226 25.382 16.6177C25.0815 16.3152 24.8192 16.1524 24.6232 16.0665C24.4272 15.9805 24.2681 15.9714 24.2681 15.9714C24.2244 15.9705 24.1811 15.9813 24.1423 16.0026C23.4327 16.393 22.6234 16.4143 21.59 15.9605C20.5566 15.5067 19.3194 14.5636 17.8578 13.0502C17.8105 13.0012 17.7472 12.973 17.6808 12.9713V12.9713ZM17.8677 13.822C19.1959 15.1447 20.3532 16.014 21.3887 16.4688C22.4851 16.9503 23.4651 16.9558 24.3006 16.5303C24.3254 16.5368 24.3608 16.5479 24.4222 16.5748C24.5553 16.6332 24.762 16.7554 25.0207 17.0158C25.538 17.5365 26.2618 18.6148 26.9746 20.8095C27.3573 21.9874 27.6019 23.975 27.2735 25.9782C26.945 27.9813 26.058 29.9951 24.1973 31.329C22.1238 32.8151 19.9597 33.3218 18.1244 32.9108C16.2892 32.4998 14.7659 31.185 13.9377 28.926C12.9543 26.2442 13.575 23.297 13.575 23.297C13.5862 23.2447 13.5827 23.19 13.5648 23.1398C13.547 23.0896 13.5155 23.0459 13.4744 23.0142C13.4333 22.9825 13.3843 22.9641 13.3335 22.9613C13.2826 22.9586 13.232 22.9715 13.188 22.9985C13.188 22.9985 12.8256 23.2156 12.3913 23.2379C11.9571 23.2602 11.4839 23.1399 11.115 22.3247C10.8183 21.6685 10.8949 21.0209 11.1316 20.5944C11.2499 20.3811 11.4068 20.2272 11.5668 20.1486C11.7267 20.0701 11.8853 20.0578 12.0619 20.1316C12.3654 20.2585 12.7817 20.6469 13.1058 20.9555C13.2679 21.1098 13.3989 21.2409 13.5475 21.3296C13.6218 21.3739 13.7218 21.4441 13.8865 21.3757C13.9689 21.3416 14.0345 21.2611 14.062 21.1939C14.0894 21.1268 14.0941 21.0705 14.095 21.0171C14.096 20.9553 14.1373 20.6673 14.2056 20.3299C14.274 19.9924 14.3672 19.5819 14.4663 19.1789C14.5655 18.7759 14.6708 18.3796 14.7625 18.0714C14.8084 17.9173 14.8511 17.7849 14.8864 17.6879C14.9072 17.6307 14.9094 17.628 14.9214 17.6026C16.439 17.1177 17.5416 15.9417 17.8677 13.8221V13.822ZM13.7988 20.8446C13.8164 20.8488 13.817 20.8573 13.8053 20.8503C13.8044 20.8498 13.7997 20.8452 13.7988 20.8446Z" fill="black"/>
<path id="path4850" d="M18.8884 7.2006C16.9734 7.18009 15.8848 7.93708 15.3115 8.77334C14.8683 9.41981 14.7272 10.095 14.6808 10.4693C13.3943 10.4065 12.3221 11.0347 11.7175 11.9553C11.0884 12.9131 10.9653 14.2004 11.5946 15.3094C11.5608 15.5638 11.352 17.2728 11.5315 19.831C11.534 19.8671 11.5433 19.9023 11.5587 19.9346C11.5741 19.9669 11.5955 19.9956 11.6215 20.0192C11.6475 20.0429 11.6777 20.0609 11.7103 20.0722C11.7429 20.0835 11.7773 20.088 11.8115 20.0853C11.8458 20.0827 11.8792 20.0729 11.9099 20.0567C11.9406 20.0404 11.9679 20.0179 11.9903 19.9906C12.0127 19.9632 12.0298 19.9314 12.0406 19.897C12.0514 19.8627 12.0556 19.8265 12.0531 19.7904C11.8628 17.0777 12.1233 15.292 12.1233 15.292C12.133 15.2257 12.1193 15.158 12.0849 15.1015C11.5106 14.1595 11.6085 13.0895 12.1476 12.2686C12.6868 11.4478 13.6648 10.8908 14.8878 11.0389C14.9244 11.0433 14.9614 11.0396 14.9965 11.0279C15.0316 11.0162 15.064 10.9969 15.0915 10.9711C15.119 10.9454 15.141 10.9138 15.1561 10.8785C15.1713 10.8432 15.1791 10.8049 15.1793 10.7661C15.1793 10.7661 15.1847 9.89931 15.7356 9.09571C16.2865 8.29212 17.365 7.52798 19.7018 7.80627C21.0894 7.9716 21.9918 8.88449 22.8094 9.85185C23.6269 10.8192 24.3329 11.8689 25.4117 12.0613C25.8844 12.1454 26.4324 12.0753 26.925 11.9193C27.3892 11.7723 27.8039 11.5643 28.0484 11.2349C28.0803 11.3237 28.1188 11.4836 28.1115 11.7183C28.0904 12.4017 27.746 13.6517 26.5782 15.4012C26.5474 15.4473 26.5309 15.5022 26.5307 15.5586C26.5305 15.6149 26.5467 15.6699 26.5772 15.7163C26.5772 15.7163 26.7755 16.0133 27.0417 16.7517C27.3078 17.4901 27.6298 18.652 27.8403 20.3277C27.8448 20.3636 27.8559 20.3981 27.8731 20.4295C27.8903 20.4608 27.9132 20.4882 27.9404 20.5102C27.9677 20.5322 27.9988 20.5484 28.032 20.5577C28.0652 20.567 28.0998 20.5694 28.1338 20.5646C28.1679 20.5599 28.2007 20.5481 28.2304 20.53C28.2602 20.5119 28.2862 20.4878 28.3071 20.4591C28.328 20.4304 28.3433 20.3977 28.3522 20.3628C28.3611 20.3278 28.3633 20.2914 28.3588 20.2555C28.1433 18.5402 27.8117 17.3361 27.5306 16.5562C27.3325 16.0066 27.1878 15.7281 27.0994 15.5706C28.2282 13.8401 28.6087 12.562 28.6343 11.7363C28.6475 11.3115 28.5852 11.0009 28.402 10.7873C28.3104 10.6805 28.1608 10.6001 28.0079 10.6209C27.8549 10.6417 27.7384 10.7454 27.6613 10.8647C27.5602 11.0209 27.2018 11.2565 26.7744 11.3919C26.3469 11.5272 25.8527 11.5812 25.499 11.5182C24.7101 11.3775 24.0364 10.4752 23.2001 9.48567C22.3638 8.49607 21.338 7.44695 19.7606 7.25901C19.4524 7.2223 19.162 7.20353 18.8884 7.2006ZM12.2407 23.2468C12.1729 23.262 12.1136 23.3051 12.076 23.3664C12.0383 23.4277 12.0252 23.5022 12.0398 23.5737C12.2568 24.6414 12.5501 25.766 12.9427 26.9184C12.9543 26.9525 12.9721 26.9838 12.9952 27.0106C13.0183 27.0373 13.0461 27.0591 13.0772 27.0745C13.1083 27.09 13.1419 27.0988 13.1762 27.1005C13.2105 27.1023 13.2448 27.0969 13.2771 27.0847C13.3424 27.06 13.3957 27.0091 13.4253 26.943C13.4549 26.877 13.4584 26.8012 13.435 26.7325C13.051 25.6052 12.7639 24.5043 12.5512 23.4584C12.5441 23.423 12.5303 23.3895 12.5108 23.3597C12.4913 23.3299 12.4665 23.3045 12.4376 23.2848C12.4088 23.2652 12.3766 23.2517 12.3428 23.2452C12.309 23.2386 12.2743 23.2392 12.2407 23.2468Z" fill="black"/>
<path id="path4851" d="M28.3824 19.9841C28.3226 19.9837 28.263 19.987 28.2038 19.9942C27.73 20.0513 27.2768 20.3675 27.0697 20.9097C27.0438 20.9775 27.0445 21.0533 27.0717 21.1205C27.0989 21.1877 27.1504 21.2407 27.2147 21.268C27.279 21.2952 27.351 21.2945 27.4148 21.2658C27.4786 21.2372 27.529 21.1831 27.5549 21.1153C27.6926 20.7548 27.9591 20.578 28.2632 20.5414C28.5674 20.5047 28.9013 20.6241 29.1329 20.9023C29.3541 21.1677 29.4533 21.6307 29.4293 22.1058C29.4053 22.5809 29.2551 23.0589 29.092 23.2976C28.9759 23.4677 28.7067 23.6496 28.4556 23.7053C28.2045 23.761 28.0188 23.7204 27.9037 23.5426C27.8844 23.5127 27.8597 23.4871 27.8309 23.4672C27.8022 23.4474 27.7701 23.4337 27.7363 23.427C27.7026 23.4202 27.6679 23.4206 27.6343 23.428C27.6006 23.4353 27.5687 23.4496 27.5403 23.4699C27.512 23.4903 27.4877 23.5164 27.4688 23.5466C27.45 23.5769 27.437 23.6107 27.4306 23.6463C27.4242 23.6818 27.4245 23.7183 27.4315 23.7537C27.4385 23.7891 27.4521 23.8227 27.4714 23.8526C27.7255 24.2453 28.1817 24.3289 28.5634 24.2442C28.9452 24.1596 29.2998 23.9367 29.5166 23.6192C29.7713 23.2464 29.9229 22.7025 29.9515 22.135C29.9802 21.5676 29.8831 20.9675 29.526 20.539C29.223 20.1749 28.8005 19.9869 28.3822 19.9839L28.3824 19.9841Z" fill="black"/>
<path id="path4852" fill-rule="evenodd" clip-rule="evenodd" d="M11.7923 19.8117C11.6001 17.0716 11.8649 15.2513 11.8649 15.2513C10.6025 13.1807 12.2902 10.4481 14.9178 10.7664C14.9178 10.7664 14.9288 6.96176 19.7313 7.53367C22.6962 7.88694 23.5877 11.4577 25.4554 11.7908C26.2818 11.938 27.5399 11.5427 27.8775 11.0207C28.2714 10.4117 29.1667 12.0034 26.7923 15.5606C26.7923 15.5606 27.6737 16.9016 28.0996 20.2927C27.7619 20.3744 27.4613 20.6135 27.3084 21.0141C27.2801 20.9125 27.2506 20.8153 27.2204 20.7223C25.7767 16.2774 24.2617 16.2486 24.2617 16.2486C22.699 17.1083 20.6234 16.3035 17.6729 13.2485C17.4652 15.6976 16.3624 16.8999 14.7375 17.3762C14.5342 17.6517 13.84 20.5159 13.8319 21.0141C13.8234 21.5122 12.926 20.199 12.1567 19.8775C12.0342 19.8266 11.9117 19.8058 11.7923 19.8117ZM13.1889 26.8265C12.8006 25.6866 12.5104 24.5739 12.2955 23.5171C12.8528 23.5247 13.3183 23.2382 13.3183 23.2382C13.3183 23.2382 12.9696 24.862 13.1889 26.8265Z" fill="black"/>
</g>
</g>
</svg>
