<svg xmlns="http://www.w3.org/2000/svg" width="48" height="48" viewBox="0 0 48 48" fill="none">
  <path d="M40.2278 39.503L37.9679 26.4723H38.7312C39.3452 26.4723 39.8398 25.9777 39.8398 25.3637V17.1769C39.8398 16.5629 39.3452 16.0683 38.7312 16.0683H28.2419V8.30785C28.2419 7.69384 27.7472 7.19922 27.1332 7.19922H20.3109C19.6969 7.19922 19.2023 7.69384 19.2023 8.30785V16.0683H8.71292C8.09891 16.0683 7.60429 16.5629 7.60429 17.1769V25.3637C7.60429 25.9777 8.09891 26.4723 8.71292 26.4723H9.47617L7.21627 39.503C7.20348 39.5669 7.19922 39.6309 7.19922 39.6906C7.19922 40.3046 7.69384 40.7992 8.30785 40.7992H39.1363C39.2002 40.7992 39.2642 40.795 39.3239 40.7822C39.9294 40.6798 40.3344 40.1042 40.2278 39.503ZM10.5891 19.053H22.187V10.184H25.2571V19.053H36.8551V23.4875H10.5891V19.053ZM30.5444 37.8144V31.1627C30.5444 30.9751 30.3909 30.8216 30.2033 30.8216H28.1566C27.969 30.8216 27.8155 30.9751 27.8155 31.1627V37.8144H19.6287V31.1627C19.6287 30.9751 19.4752 30.8216 19.2875 30.8216H17.2408C17.0532 30.8216 16.8997 30.9751 16.8997 31.1627V37.8144H10.5379L12.4609 26.7282H34.9789L36.902 37.8144H30.5444Z" fill="#09090B"/>
</svg>