<svg width="19" height="20" viewBox="0 0 19 20" fill="none" xmlns="http://www.w3.org/2000/svg">
<path d="M17.1362 15.2123C16.0055 15.1858 14.8909 14.932 13.8563 14.4652C12.8217 13.9985 11.8874 13.328 11.1068 12.4922C10.3262 11.6564 9.71472 10.6716 9.30726 9.59416C8.89979 8.51675 8.70437 7.36787 8.73219 6.21326C8.7641 5.06909 9.01738 3.94267 9.47744 2.89888C9.93749 1.85509 10.5952 0.914549 11.4128 0.131426C10.9927 0.0624036 10.5687 0.0206578 10.1435 0.00644011C8.85246 -0.040896 7.56503 0.173088 6.35536 0.636064C5.14569 1.09904 4.03769 1.80186 3.0952 2.70402C2.15271 3.60619 1.39436 4.68987 0.863829 5.89263C0.333303 7.09539 0.0410914 8.39346 0.00403058 9.71205C-0.0330303 11.0306 0.185792 12.3437 0.64789 13.5755C1.10999 14.8074 1.80623 15.9337 2.69649 16.8896C3.58676 17.8455 4.65346 18.612 5.83514 19.1451C7.01681 19.6781 8.2901 19.9671 9.58165 19.9955C11.3292 20.0488 13.0595 19.6287 14.5966 18.7781C16.1338 17.9274 17.423 16.6765 18.3333 15.1523C17.9362 15.2006 17.5362 15.2207 17.1362 15.2123Z" fill="#18181B"/>
</svg>