<svg width="15" height="3" viewBox="0 0 15 3" fill="none" xmlns="http://www.w3.org/2000/svg">
<path d="M0 1.5C0 1.89782 0.158035 2.27936 0.43934 2.56066C0.720644 2.84196 1.10218 3 1.5 3C1.89782 3 2.27936 2.84196 2.56066 2.56066C2.84196 2.27936 3 1.89782 3 1.5C3 1.10218 2.84196 0.720644 2.56066 0.43934C2.27936 0.158035 1.89782 0 1.5 0C1.10218 0 0.720644 0.158035 0.43934 0.43934C0.158035 0.720644 0 1.10218 0 1.5Z" fill="currentColor"/>
<path d="M6 1.5C6 1.89782 6.15804 2.27936 6.43934 2.56066C6.72064 2.84196 7.10218 3 7.5 3C7.89782 3 8.27936 2.84196 8.56066 2.56066C8.84196 2.27936 9 1.89782 9 1.5C9 1.10218 8.84196 0.720644 8.56066 0.43934C8.27936 0.158035 7.89782 0 7.5 0C7.10218 0 6.72064 0.158035 6.43934 0.43934C6.15804 0.720644 6 1.10218 6 1.5Z" fill="currentColor"/>
<path d="M12 1.5C12 1.69698 12.0388 1.89204 12.1142 2.07402C12.1896 2.25601 12.3001 2.42137 12.4393 2.56066C12.5786 2.69995 12.744 2.81044 12.926 2.88582C13.108 2.9612 13.303 3 13.5 3C13.697 3 13.892 2.9612 14.074 2.88582C14.256 2.81044 14.4214 2.69995 14.5607 2.56066C14.6999 2.42137 14.8104 2.25601 14.8858 2.07402C14.9612 1.89204 15 1.69698 15 1.5C15 1.30302 14.9612 1.10796 14.8858 0.925974C14.8104 0.743986 14.6999 0.578627 14.5607 0.43934C14.4214 0.300052 14.256 0.189563 14.074 0.11418C13.892 0.0387984 13.697 0 13.5 0C13.303 0 13.108 0.0387984 12.926 0.11418C12.744 0.189563 12.5786 0.300052 12.4393 0.43934C12.3001 0.578627 12.1896 0.743986 12.1142 0.925974C12.0388 1.10796 12 1.30302 12 1.5Z" fill="currentColor"/>
</svg>