<svg width="20" height="22" viewBox="0 0 20 22" fill="none" xmlns="http://www.w3.org/2000/svg">
<path fill-rule="evenodd" clip-rule="evenodd" d="M0 5.5V16.5L9.52628 22L19.0526 16.5V5.5L9.52628 0L0 5.5ZM1.5 7.11036V15.634L8.77628 19.8349V10.8349L1.5 7.11036ZM10.2763 10.8349V19.8349L17.5526 15.634V7.11036L10.2763 10.8349ZM16.6889 5.86737L9.52628 1.73205L2.36369 5.86737L9.52628 9.53374L16.6889 5.86737Z" fill="white"/>
<path fill-rule="evenodd" clip-rule="evenodd" d="M9.58203 2.99292C9.99624 2.99292 10.332 3.32871 10.332 3.74292L10.332 7.82539C10.332 8.23961 9.99624 8.57539 9.58203 8.57539C9.16782 8.57539 8.83203 8.23961 8.83203 7.82539L8.83203 3.74292C8.83203 3.32871 9.16782 2.99292 9.58203 2.99292Z" fill="white"/>
<path fill-rule="evenodd" clip-rule="evenodd" d="M7.42929 11.8714C7.66251 12.2137 7.57406 12.6803 7.23173 12.9135L3.85782 15.212C3.5155 15.4452 3.04894 15.3568 2.81572 15.0145C2.58251 14.6722 2.67096 14.2056 3.01328 13.9724L6.38719 11.6738C6.72951 11.4406 7.19608 11.5291 7.42929 11.8714Z" fill="white"/>
<path fill-rule="evenodd" clip-rule="evenodd" d="M16.4023 14.7135C16.1952 15.0722 15.7365 15.1951 15.3778 14.988L11.8423 12.9468C11.4836 12.7397 11.3607 12.281 11.5678 11.9223C11.7749 11.5636 12.2336 11.4407 12.5923 11.6478L16.1278 13.689C16.4865 13.8961 16.6095 14.3548 16.4023 14.7135Z" fill="white"/>
</svg>
