<svg xmlns="http://www.w3.org/2000/svg" width="190" height="197" viewBox="0 0 190 197" fill="none">
  <path d="M166.925 72.6886C170.312 72.6886 173.057 69.9406 173.057 66.5508C173.057 63.161 170.312 60.4131 166.925 60.4131C163.538 60.4131 160.793 63.161 160.793 66.5508C160.793 69.9406 163.538 72.6886 166.925 72.6886Z" fill="#DDDFDF"/>
  <path d="M4.03438 105.881C6.2625 105.881 8.06875 104.073 8.06875 101.843C8.06875 99.6126 6.2625 97.8047 4.03438 97.8047C1.80625 97.8047 0 99.6126 0 101.843C0 104.073 1.80625 105.881 4.03438 105.881Z" fill="#DDDFDF"/>
  <path d="M22.5813 178.475C24.8094 178.475 26.6156 176.668 26.6156 174.437C26.6156 172.207 24.8094 170.399 22.5813 170.399C20.3531 170.399 18.5469 172.207 18.5469 174.437C18.5469 176.668 20.3531 178.475 22.5813 178.475Z" fill="#DDDFDF"/>
  <path d="M100.254 160.368L44.6406 177.795V105.975L100.254 88.683V160.368Z" fill="#71717A" stroke="#18181B"/>
  <path opacity="0.4" d="M155.266 105.975V177.795L99.6523 160.368V88.683L155.266 105.975Z" fill="#71717A" stroke="#18181B"/>
  <path opacity="0.13" d="M99.711 160.003L45.3945 177.291V106.022L99.711 88.8678V160.003ZM100.711 160.003V88.8678L155.027 106.022V177.291L100.711 160.003Z" fill="url(#paint0_linear_9489_179192)" stroke="#18181B"/>
  <path d="M100.17 123.96L87.5331 182.977L44.6406 178.165V106.561L100.17 123.96Z" stroke="#18181B"/>
  <path d="M155.266 106.56V178.012L112.379 170.26L99.7613 123.952L155.266 106.56Z" stroke="#18181B"/>
  <path d="M100.254 123.987V195.671L44.6406 178.244V106.561L100.254 123.987Z" fill="#FDFEFF" stroke="#18181B"/>
  <path d="M155.266 178.243L99.6523 195.67V123.986L155.266 106.56V178.243Z" fill="#DDDFDF" stroke="#18181B"/>
  <path d="M19.3115 89.2081L75.6497 70.2422L101.273 89.4207L45.8208 106.663L19.3115 89.2081Z" fill="#DDDFDF" stroke="#18181B"/>
  <path d="M155.688 105.059L100.236 87.8172L125.86 68.6387L182.198 87.6046L155.688 105.059Z" fill="#DDDFDF" stroke="#18181B"/>
  <path d="M17.7462 122.934L44.2115 106.426L99.581 123.775L72.4478 141.082L17.7462 122.934Z" fill="#DDDFDF" stroke="#18181B"/>
  <path d="M182.162 122.933L127.46 141.081L100.327 123.774L155.696 106.425L182.162 122.933Z" fill="#DDDFDF" stroke="#18181B"/>
  <path d="M116.551 18.1789C124.483 39.7033 126.847 44.4859 127.623 65.6952C127.324 70.5366 127.139 75.8011 124.857 80.0402C121.808 86.525 114.353 91.016 107.308 91.0887C100.052 91.2184 92.9374 86.7752 89.7352 79.9238C87.4823 75.7658 87.554 70.0782 90.6443 66.3029C94.0039 62.6823 99.9143 61.7795 104.166 64.0418C108.843 66.1903 111.634 70.6575 112.668 75.3688C113.702 80.0801 113.248 85.1899 111.986 89.836C109.346 101.136 107.16 101.682 100.687 120.813" stroke="#18181B" stroke-width="2" stroke-miterlimit="10" stroke-dasharray="4 4"/>
  <path d="M119.643 10.396L119.619 10.3898L119.596 10.3858C117.617 10.0485 116.014 9.71737 114.882 9.14702C114.325 8.86656 113.908 8.53974 113.619 8.1478C113.338 7.76529 113.16 7.29393 113.117 6.68456C113.163 5.47237 113.832 4.60147 115.007 3.85269C116.211 3.08538 117.865 2.50071 119.73 1.85621L119.741 1.85249L119.752 1.84828C120.786 1.4372 121.637 1.38101 122.332 1.53708C123.026 1.69308 123.608 2.07073 124.088 2.60019C125.059 3.66949 125.587 5.32882 125.711 6.80483C125.696 8.20947 125.042 9.31668 123.99 9.9744C122.924 10.6409 121.403 10.8723 119.643 10.396Z" fill="#18181B" stroke="#18181B"/>
  <path d="M101.157 16.1161L101.151 16.1101L101.145 16.1043C100.105 15.1026 99.7646 13.8094 100.064 12.5632C100.365 11.3137 101.324 10.0613 102.982 9.20898C103.7 8.92343 104.359 8.64519 104.957 8.39271C105.277 8.25767 105.58 8.13 105.865 8.01252C106.7 7.66774 107.389 7.4075 107.992 7.26282C108.591 7.1192 109.072 7.09782 109.499 7.20347C109.918 7.30719 110.332 7.54508 110.777 8.00144C111.229 8.51162 111.445 9.00927 111.506 9.51133C111.568 10.0241 111.474 10.5826 111.24 11.2139C110.83 12.3195 110.039 13.5329 109.1 14.9725C108.945 15.2112 108.785 15.4562 108.622 15.708C107.705 17.1117 106.314 17.6801 104.904 17.6672C103.476 17.6541 102.057 17.0421 101.157 16.1161Z" fill="#18181B" stroke="#18181B"/>
  <path d="M114.533 4.90671L114.553 4.93644L114.576 4.96308C114.968 5.40338 115.394 6.06594 115.508 6.49208L115.517 6.52657L115.531 6.5594C116.275 8.29698 116.518 10.0031 116.343 11.3499C116.166 12.7102 115.584 13.6034 114.778 13.9305L114.757 13.9393L114.736 13.9501C113.802 14.4353 112.641 14.2906 111.52 13.5685C110.405 12.8507 109.388 11.5905 108.818 9.9872L108.817 9.98109L108.815 9.97486L108.813 9.96865L108.812 9.96244L108.81 9.95625L108.808 9.95007L108.807 9.9439L108.805 9.93775L108.803 9.9316L108.802 9.92547L108.8 9.91935L108.799 9.91324L108.797 9.90715L108.795 9.90106L108.794 9.89499L108.792 9.88893L108.79 9.88288L108.789 9.87684L108.787 9.87081L108.786 9.8648L108.784 9.85879L108.782 9.8528L108.781 9.84682L108.779 9.84085L108.778 9.83489L108.776 9.82894L108.774 9.82301L108.773 9.81708L108.771 9.81117L108.77 9.80527L108.768 9.79937L108.766 9.79349L108.765 9.78762L108.763 9.78177L108.762 9.77592L108.76 9.77008L108.759 9.76425L108.757 9.75844L108.756 9.75264L108.754 9.74684L108.752 9.74106L108.751 9.73529L108.749 9.72953L108.748 9.72378L108.746 9.71804L108.745 9.71231L108.743 9.70659L108.742 9.70088L108.74 9.69518L108.739 9.68949L108.737 9.68381L108.736 9.67815L108.734 9.67249L108.733 9.66684L108.731 9.66121L108.73 9.65558L108.728 9.64997L108.727 9.64436L108.725 9.63876L108.724 9.63318L108.722 9.6276L108.721 9.62204L108.719 9.61648L108.718 9.61093L108.716 9.6054L108.715 9.59987L108.713 9.59436L108.712 9.58885L108.71 9.58335L108.709 9.57786L108.707 9.57239L108.706 9.56692L108.704 9.56146L108.703 9.55601L108.701 9.55057L108.7 9.54514L108.698 9.53972L108.697 9.53431L108.696 9.52891L108.694 9.52352L108.693 9.51813L108.691 9.51276L108.69 9.50739L108.688 9.50204L108.687 9.49669L108.686 9.49135L108.684 9.48603L108.683 9.48071L108.681 9.4754L108.68 9.4701L108.678 9.4648L108.677 9.45952L108.676 9.45424L108.674 9.44898L108.673 9.44372L108.671 9.43847L108.67 9.43323L108.669 9.428L108.667 9.42278L108.666 9.41757L108.664 9.41236L108.663 9.40717L108.662 9.40198L108.66 9.3968L108.659 9.39163L108.657 9.38646L108.656 9.38131L108.655 9.37616L108.653 9.37103L108.652 9.3659L108.651 9.36078L108.649 9.35566L108.648 9.35056L108.646 9.34546L108.645 9.34037L108.644 9.33529L108.642 9.33022L108.641 9.32515L108.64 9.3201L108.638 9.31505L108.637 9.31001L108.636 9.30497L108.634 9.29995L108.633 9.29493L108.632 9.28992L108.63 9.28492L108.629 9.27992L108.628 9.27493L108.626 9.26995L108.625 9.26498L108.624 9.26002L108.622 9.25506L108.621 9.25011L108.62 9.24517L108.618 9.24023L108.617 9.2353L108.616 9.23038L108.614 9.22547L108.613 9.22056L108.612 9.21567L108.61 9.21077L108.609 9.20589L108.608 9.20101L108.606 9.19614L108.605 9.19128L108.604 9.18642L108.603 9.18157L108.601 9.17673L108.6 9.17189L108.599 9.16706L108.597 9.16224L108.596 9.15742L108.595 9.15262L108.594 9.14781L108.592 9.14302L108.591 9.13823L108.59 9.13344L108.588 9.12867L108.587 9.1239L108.586 9.11914L108.585 9.11438L108.583 9.10963L108.582 9.10488L108.581 9.10015L108.579 9.09542L108.578 9.09069L108.577 9.08597L108.576 9.08126L108.574 9.07655L108.573 9.07185L108.572 9.06716L108.571 9.06247L108.569 9.05779L108.568 9.05311L108.567 9.04844L108.566 9.04377L108.564 9.03911L108.563 9.03446L108.562 9.02981L108.561 9.02517L108.559 9.02054L108.558 9.0159L108.557 9.01128L108.556 9.00666L108.554 9.00205L108.553 8.99744L108.552 8.99284L108.551 8.98824L108.55 8.98365L108.548 8.97906L108.547 8.97448L108.546 8.9699L108.545 8.96533L108.543 8.96077L108.542 8.95621L108.541 8.95165L108.54 8.9471L108.539 8.94256L108.537 8.93802L108.536 8.93348L108.535 8.92895L108.534 8.92443L108.532 8.91991L108.531 8.91539L108.53 8.91088L108.529 8.90638L108.528 8.90188L108.526 8.89738L108.525 8.89289L108.524 8.8884L108.523 8.88392L108.522 8.87944L108.52 8.87497L108.519 8.8705L108.518 8.86604L108.517 8.86158L108.516 8.85712L108.514 8.85267L108.513 8.84823L108.512 8.84378L108.511 8.83935L108.51 8.83491L108.509 8.83048L108.507 8.82606L108.506 8.82164L108.505 8.81722L108.504 8.81281L108.503 8.8084L108.501 8.80399L108.5 8.79959L108.499 8.79519L108.498 8.7908L108.497 8.78641L108.496 8.78202L108.494 8.77764L108.493 8.77326L108.492 8.76889L108.491 8.76452L108.49 8.76015L108.489 8.75579L108.487 8.75143L108.486 8.74707L108.485 8.74272L108.484 8.73837L108.483 8.73402L108.482 8.72968L108.48 8.72534L108.479 8.721L108.478 8.71667L108.477 8.71234L108.476 8.70801L108.475 8.70369L108.473 8.69936L108.472 8.69505L108.471 8.69073L108.47 8.68642L108.469 8.68211L108.468 8.67781L108.466 8.6735L108.465 8.6692L108.464 8.66491L108.463 8.66061L108.462 8.65632L108.461 8.65203L108.46 8.64774L108.458 8.64346L108.457 8.63918L108.456 8.6349L108.455 8.63063L108.454 8.62635L108.453 8.62208L108.452 8.61781L108.45 8.61355L108.449 8.60928L108.448 8.60502L108.447 8.60076L108.446 8.5965L108.445 8.59225L108.444 8.588L108.442 8.58375L108.441 8.5795L108.44 8.57525L108.439 8.57101L108.438 8.56676L108.437 8.56252L108.436 8.55829L108.435 8.55405L108.433 8.54981L108.432 8.54558L108.431 8.54135L108.43 8.53712L108.429 8.53289L108.428 8.52867L108.427 8.52444L108.425 8.52022L108.424 8.516L108.423 8.51178L108.422 8.50756L108.421 8.50334L108.42 8.49913L108.419 8.49491L108.418 8.4907L108.416 8.48649L108.415 8.48228L108.414 8.47807L108.413 8.47386L108.412 8.46966L108.411 8.46545L108.41 8.46125L108.409 8.45704L108.407 8.45284L108.406 8.44864L108.405 8.44444L108.404 8.44024L108.403 8.43604L108.402 8.43184L108.401 8.42765L108.4 8.42345L108.398 8.41926L108.397 8.41506L108.396 8.41087L108.395 8.40667L108.394 8.40248L108.393 8.39829L108.392 8.3941L108.391 8.38991L108.389 8.38571L108.388 8.38152L108.387 8.37733L108.386 8.37314L108.385 8.36896L108.384 8.36477L108.383 8.36058L108.382 8.35639L108.38 8.3522L108.379 8.34801L108.378 8.34382L108.377 8.33963L108.376 8.33545L108.375 8.33126L108.374 8.32707L108.373 8.32288L108.371 8.31869L108.37 8.3145L108.369 8.31031L108.368 8.30613L108.367 8.30194L108.366 8.29775L108.365 8.29356L108.364 8.28936L108.362 8.28517L108.361 8.28098L108.36 8.27679L108.359 8.2726L108.358 8.2684L108.357 8.26421L108.356 8.26002L108.355 8.25582L108.354 8.25163L108.352 8.24743L108.351 8.24323L108.35 8.23904L108.349 8.23484L108.348 8.23064L108.347 8.22644L108.346 8.22223L108.345 8.21803L108.343 8.21383L108.342 8.20962L108.341 8.20542L108.34 8.20121L108.339 8.197L108.338 8.19279L108.337 8.18858L108.335 8.18437L108.334 8.18016L108.333 8.17594L108.332 8.17173L108.331 8.16751L108.33 8.16329L108.329 8.15907L108.328 8.15485L108.326 8.15063L108.325 8.1464L108.324 8.14217L108.323 8.13795L108.322 8.13372L108.321 8.12948L108.32 8.12525L108.319 8.12102L108.317 8.11678L108.316 8.11254L108.315 8.1083L108.314 8.10405L108.313 8.09981L108.312 8.09556L108.311 8.09131L108.309 8.08706L108.308 8.08281L108.307 8.07855L108.306 8.0743L108.305 8.07004L108.304 8.06577L108.303 8.06151L108.301 8.05724L108.3 8.05297L108.299 8.0487L108.298 8.04443L108.297 8.04015L108.296 8.03587L108.295 8.03159L108.293 8.0273L108.292 8.02302L108.291 8.01873L108.29 8.01443L108.289 8.01014L108.288 8.00584L108.287 8.00154L108.285 7.99724L108.284 7.99293L108.283 7.98862L108.282 7.98431L108.281 7.97999L108.28 7.97567L108.278 7.97135L108.277 7.96703L108.276 7.9627L108.275 7.95837L108.274 7.95403L108.273 7.94969L108.271 7.94535L108.27 7.94101L108.269 7.93666L108.268 7.93231L108.267 7.92795L108.266 7.9236L108.264 7.91924L108.263 7.91487L108.262 7.9105L108.261 7.90613L108.26 7.90175L108.259 7.89737L108.257 7.89299L108.256 7.8886L108.255 7.88421L108.254 7.87982L108.253 7.87542L108.252 7.87102L108.25 7.86661L108.249 7.8622L108.248 7.85778L108.247 7.85337L108.246 7.84894L108.244 7.84452L108.243 7.84009L108.242 7.83565L108.241 7.83121L108.24 7.82677L108.239 7.82232L108.237 7.81787L108.236 7.81341L108.235 7.80895L108.234 7.80449L108.233 7.80002L108.231 7.79554L108.23 7.79106L108.229 7.78658L108.228 7.78209L108.227 7.7776L108.225 7.7731L108.224 7.7686L108.223 7.76409L108.222 7.75958L108.221 7.75506L108.219 7.75054L108.218 7.74601L108.217 7.74148L108.216 7.73695L108.214 7.7324L108.213 7.72786L108.212 7.72331L108.211 7.71875L108.21 7.71419L108.208 7.70962L108.207 7.70505L108.206 7.70047L108.205 7.69589L108.203 7.6913L108.202 7.68671L108.201 7.68211L108.2 7.6775L108.199 7.67289L108.197 7.66828L108.196 7.66366L108.195 7.65903L108.194 7.6544L108.192 7.64976L108.191 7.64511L108.19 7.64047L108.189 7.63581L108.187 7.63115L108.187 7.62885C108.086 6.74363 108.203 5.96483 108.523 5.33227C108.839 4.70585 109.369 4.18984 110.158 3.84612L110.158 3.84603L110.159 3.84596L110.159 3.8459L110.159 3.84577L110.16 3.84564L110.16 3.84562L110.16 3.84551L110.161 3.84537L110.161 3.84528L110.161 3.84524L110.162 3.84511L110.162 3.84498L110.162 3.84494L110.163 3.84484L110.163 3.84471L110.164 3.84461L110.164 3.84457L110.164 3.84444L110.165 3.8443L110.165 3.84428L110.165 3.84417L110.166 3.84403L110.166 3.84395L110.166 3.8439L110.167 3.84376L110.167 3.84363L110.167 3.84363L110.168 3.84349L110.168 3.84335L110.168 3.84331L110.169 3.84321L110.169 3.84308L110.17 3.84299L110.17 3.84294L110.17 3.8428L110.171 3.84268L110.171 3.84266L110.171 3.84252L110.172 3.84238L110.172 3.84237L110.172 3.84225L110.173 3.84211L110.173 3.84206L110.173 3.84197L110.174 3.84183L110.174 3.84175L110.175 3.84169L110.175 3.84155L110.175 3.84145L110.176 3.84141L110.176 3.84127L110.177 3.84115L110.177 3.84113L110.177 3.84099L110.178 3.84085L110.178 3.84085L110.178 3.84071L110.179 3.84057L110.179 3.84056L110.179 3.84043L110.18 3.84028L110.18 3.84027L110.18 3.84014L110.181 3.84L110.181 3.83998L110.181 3.83986L110.182 3.83972L110.182 3.83969L110.182 3.83958L110.183 3.83944L110.183 3.83941L110.183 3.8393L110.184 3.83916L110.184 3.83913L110.185 3.83902L110.185 3.83888L110.185 3.83885L110.186 3.83874L110.186 3.83859L110.186 3.83858L110.187 3.83845L110.187 3.83831L110.187 3.83831L110.188 3.83817L110.188 3.83804L110.188 3.83803L110.189 3.83789L110.189 3.83778L110.189 3.83775L110.19 3.83761L110.19 3.83751L110.19 3.83747L110.191 3.83733L110.191 3.83725L110.191 3.83719L110.192 3.83705L110.192 3.837L110.192 3.83691L110.193 3.83677L110.193 3.83674L110.193 3.83664L110.194 3.8365L110.194 3.83649L110.194 3.83636L110.195 3.83624L110.195 3.83622L110.195 3.83608L110.196 3.83599L110.196 3.83594L110.196 3.83581L110.197 3.83575L110.197 3.83567L110.198 3.83553L110.198 3.83551L110.198 3.83539L110.198 3.83527L110.199 3.83526L110.199 3.83512L110.199 3.83504L110.2 3.83498L110.2 3.83485L110.2 3.83481L110.201 3.83471L110.201 3.83458L110.201 3.83458L110.202 3.83444L110.202 3.83435L110.202 3.83431L110.203 3.83418L110.203 3.83412L110.203 3.83404L110.204 3.83391L110.204 3.8339L110.204 3.83378L110.204 3.83368L110.205 3.83364L110.205 3.83351L110.205 3.83347L110.206 3.83338L110.206 3.83325L110.206 3.83325L110.207 3.83312L110.207 3.83304L110.207 3.83299L110.208 3.83286L110.208 3.83283L110.208 3.83273L110.208 3.83263L110.208 3.8326L110.209 3.83247L110.209 3.83242L110.209 3.83234L110.21 3.83222L110.21 3.83222L110.21 3.83209L110.211 3.83202L110.211 3.83196L110.211 3.83184L110.211 3.83183L110.212 3.83171L110.212 3.83163L110.212 3.83159L110.213 3.83146L110.213 3.83144L110.213 3.83134L110.213 3.83125L110.214 3.83122L110.214 3.83109L110.214 3.83107L110.215 3.83097L110.215 3.83089L110.215 3.83085L110.215 3.83073L110.216 3.83071L110.216 3.83061L110.216 3.83053L110.216 3.83049L110.217 3.83037L110.217 3.83035L110.217 3.83025L110.218 3.83018L110.218 3.83014L110.218 3.83002L110.218 3.83001L110.219 3.8299L110.219 3.82984L110.219 3.82979L110.219 3.82967L110.219 3.82967L110.22 3.82956L110.22 3.82951L110.22 3.82945L110.221 3.82935L110.221 3.82934L110.221 3.82922L110.221 3.82919L110.221 3.82911L110.222 3.82903L110.222 3.829L110.222 3.82889L110.222 3.82888L110.223 3.82878L110.223 3.82873L110.223 3.82868L110.223 3.82858L110.224 3.82857L110.224 3.82846L110.224 3.82843L110.224 3.82836L110.225 3.82829L110.225 3.82825L110.225 3.82815L110.225 3.82815L110.225 3.82805L110.226 3.82801L110.226 3.82795L110.226 3.82787L110.226 3.82785L110.227 3.82775L110.227 3.82773L110.227 3.82765L110.227 3.8276L110.227 3.82755L110.228 3.82747L110.228 3.82745L110.228 3.82735L110.228 3.82734L110.228 3.82726L110.229 3.82722L110.229 3.82716L110.229 3.82709L110.229 3.82707L110.229 3.82698L110.229 3.82697L110.23 3.82689L110.23 3.82685L110.23 3.82679L110.23 3.82674L110.23 3.8267L110.231 3.82662L110.231 3.82662L110.231 3.82653L110.231 3.82651L110.231 3.82644L110.232 3.8264L110.232 3.82636L110.232 3.82629L110.232 3.82627L110.232 3.82619L110.232 3.82618L110.233 3.82611L110.233 3.82608L110.233 3.82602L110.233 3.82598L110.233 3.82594L110.234 3.82588L110.234 3.82586L110.234 3.82579L110.234 3.82578L110.234 3.82571L110.234 3.82569L110.234 3.82563L110.235 3.8256L110.235 3.82556L110.235 3.8255L110.235 3.82548L110.235 3.82542L110.235 3.82541L110.236 3.82534L110.236 3.82533L110.236 3.82527L110.236 3.82524L110.236 3.8252L110.236 3.82516L110.236 3.82513L110.237 3.82508L110.237 3.82507L110.237 3.825L110.237 3.825L110.237 3.82494L110.237 3.82493L110.237 3.82487L110.237 3.82485L110.238 3.82481L110.238 3.82478L110.238 3.82475L110.238 3.82471L110.238 3.82469L110.238 3.82464L110.238 3.82463L110.238 3.82458L110.238 3.82458L110.239 3.82452L110.239 3.82451L110.239 3.82447L110.239 3.82445L110.239 3.82441L110.239 3.82439L110.239 3.82436L110.239 3.82433L110.239 3.82431L110.24 3.82428L110.24 3.82426L110.24 3.82422L110.24 3.82421L110.24 3.82417L110.24 3.82417L110.24 3.82412L110.24 3.82412L110.24 3.82408L110.24 3.82407L110.24 3.82404L110.24 3.82402L110.241 3.824L110.241 3.82398L110.241 3.82396L110.241 3.82394L110.241 3.82392L110.241 3.8239L110.241 3.82388L110.241 3.82386L110.241 3.82385L110.241 3.82382L110.241 3.82381L110.241 3.82379L110.241 3.82378L110.242 3.82375L110.242 3.82375L110.242 3.82372L110.242 3.82372L110.242 3.82369L110.242 3.82369L110.242 3.82367L110.242 3.82366L110.242 3.82364L110.242 3.82364L110.242 3.82362L110.242 3.82361L110.242 3.8236L110.242 3.82359L110.242 3.82358L110.242 3.82357L110.242 3.82356L110.242 3.82355L110.242 3.82354L110.242 3.82353L110.242 3.82352L110.242 3.82352L110.242 3.82351L110.242 3.8235L110.242 3.8235L110.242 3.82349L110.242 3.82349L110.243 3.82348L110.243 3.82348L110.243 3.82347L110.243 3.82347L110.243 3.82346L110.243 3.82346L110.243 3.82346L110.243 3.82346L110.243 3.82346L110.243 3.82346L110.243 3.82345L110.239 3.81167C111.854 3.15073 113.724 3.68523 114.533 4.90671Z" fill="#DDDFDF" stroke="#18181B"/>
  <path d="M26.6109 61.4597H23.0994V57.9482H20.0896V61.4597H16.5781V64.5699H20.0896V68.0813H23.0994V64.5699H26.6109V61.4597Z" fill="#DDDFDF"/>
  <path d="M187.829 149.76L183.532 147.59L185.702 143.294L182.019 141.435L179.85 145.731L175.554 143.562L173.632 147.367L177.929 149.536L175.759 153.833L179.442 155.692L181.611 151.396L185.907 153.565L187.829 149.76Z" fill="#DDDFDF"/>
  <defs>
    <linearGradient id="paint0_linear_9489_179192" x1="82.7489" y1="93.4134" x2="74.9781" y2="125.263" gradientUnits="userSpaceOnUse">
      <stop offset="0.00289017" stop-color="#DDDFDF" stop-opacity="0"/>
      <stop offset="1" stop-color="#DDDFDF"/>
    </linearGradient>
  </defs>
</svg>