<svg xmlns="http://www.w3.org/2000/svg" width="197" height="166" viewBox="0 0 197 166" fill="none">
  <path d="M182.821 33.5512C186.339 33.5512 189.19 30.7 189.19 27.1828C189.19 23.6657 186.339 20.8145 182.821 20.8145C179.304 20.8145 176.453 23.6657 176.453 27.1828C176.453 30.7 179.304 33.5512 182.821 33.5512Z" fill="#DDDFDF"/>
  <path d="M192.134 8.69827C194.536 8.69827 196.483 6.75109 196.483 4.34913C196.483 1.94717 194.536 0 192.134 0C189.732 0 187.785 1.94717 187.785 4.34913C187.785 6.75109 189.732 8.69827 192.134 8.69827Z" fill="#DDDFDF"/>
  <path d="M34.6382 33.3955C37.0402 33.3955 38.9873 31.4484 38.9873 29.0464C38.9873 26.6444 37.0402 24.6973 34.6382 24.6973C32.2362 24.6973 30.2891 26.6444 30.2891 29.0464C30.2891 31.4484 32.2362 33.3955 34.6382 33.3955Z" fill="#DDDFDF"/>
  <path d="M8.07696 117.271C12.5377 117.271 16.1539 113.655 16.1539 109.194C16.1539 104.733 12.5377 101.117 8.07696 101.117C3.61618 101.117 0 104.733 0 109.194C0 113.655 3.61618 117.271 8.07696 117.271Z" fill="#DDDFDF"/>
  <path d="M151.778 134.962L151.777 134.962L68.0574 157.173C65.3714 157.88 62.695 156.329 61.9891 153.646L61.9889 153.646L32.7878 43.3648C32.081 40.6789 33.6323 38.0025 36.3147 37.2966L36.3151 37.2965L96.6803 21.3539L131.593 43.6551L155.305 128.893C155.305 128.895 155.306 128.896 155.306 128.897C156.011 131.582 154.459 134.256 151.778 134.962Z" fill="#FDFEFF" stroke="#18181B"/>
  <path d="M130.784 97.3911L85.5845 109.351L80.614 110.594L65.5474 114.632C64.9261 114.788 64.4601 115.564 64.7708 116.341C64.9261 117.118 65.7027 117.583 66.324 117.428L81.3907 113.39L86.3611 112.147L131.561 100.187C132.182 100.032 132.648 99.255 132.338 98.4784C132.182 97.7017 131.406 97.2358 130.784 97.3911Z" fill="#DDDFDF"/>
  <path d="M127.833 86.8279L111.058 91.177L105.311 92.7302L62.9068 104.069C62.2855 104.224 61.8195 105.001 62.1301 105.778C62.2855 106.554 63.0621 107.02 63.6834 106.865L106.243 95.5261L111.99 93.9729L128.765 89.6237C129.386 89.4684 129.852 88.6918 129.542 87.9151C129.231 87.2938 128.454 86.6725 127.833 86.8279Z" fill="#DDDFDF"/>
  <path d="M125.346 76.1112L120.997 77.1984L116.648 78.2857L59.9536 93.3524C59.3323 93.5077 58.8664 94.2843 59.177 95.061C59.3323 95.8376 60.109 96.3036 60.7303 96.1482L117.424 81.0816L122.239 79.839L126.123 78.7517C126.744 78.5964 127.21 77.8197 126.899 77.0431C126.744 76.4218 126.123 75.9558 125.346 76.1112Z" fill="#DDDFDF"/>
  <path d="M99.0939 131.096L95.9874 131.873C95.3661 132.028 94.5894 131.562 94.4341 130.785C94.2788 130.009 94.5894 129.232 95.2107 129.077L98.3173 128.3C98.9386 128.145 99.7152 128.611 99.8705 129.388C100.026 130.32 99.7152 130.941 99.0939 131.096Z" fill="#D6DCE8"/>
  <path d="M89.6233 133.582L71.7608 138.242C71.1395 138.398 70.3629 137.932 70.2076 137.155C70.0522 136.378 70.3629 135.602 70.9842 135.446L88.8467 130.787C89.468 130.631 90.2446 131.097 90.4 131.874C90.7106 132.651 90.4 133.427 89.6233 133.582Z" fill="#DDDFDF"/>
  <path d="M123.171 65.3933L109.037 69.1211L105.619 70.0531L57.313 82.7898C56.6917 82.9451 56.2257 83.7218 56.5364 84.4984C56.6917 85.275 57.4683 85.741 58.0896 85.5857L106.241 73.0043L109.658 72.0723L123.637 68.3445C124.414 68.1892 124.725 67.4125 124.569 66.4806C124.569 65.8593 123.793 65.238 123.171 65.3933Z" fill="#DDDFDF"/>
  <path d="M89.7748 41.9384L49.7007 52.5006C48.7687 52.8112 47.8368 52.1899 47.5261 51.258C47.2155 50.326 47.8368 49.3941 48.7687 49.0834L88.8429 38.5212C89.7748 38.2106 90.7068 38.8319 91.0175 39.7639C91.3281 40.6958 90.7068 41.6278 89.7748 41.9384Z" fill="#DDDFDF"/>
  <path d="M67.7225 58.0927L52.3452 62.1312C51.4133 62.4418 50.4813 61.8205 50.1707 60.8886C49.86 59.9566 50.4813 59.0247 51.4133 58.714L66.6352 54.6755C67.5672 54.3649 68.4991 54.9862 68.8098 55.9181C69.1204 56.8501 68.4991 57.7821 67.7225 58.0927Z" fill="#DDDFDF"/>
  <path d="M96.7656 20.8145L102.979 44.424C103.911 47.6859 107.483 49.7051 110.745 48.7732L132.025 43.3368" fill="#71717A"/>
  <path d="M179.995 154.936L179.994 154.938C179.573 157.603 176.898 159.439 174.223 158.876L174.214 158.874L174.206 158.873L89.0873 143.962L89.0873 143.962L89.079 143.96C86.4186 143.54 84.5667 140.862 84.9898 138.168C84.99 138.167 84.9902 138.165 84.9904 138.164L104.715 25.8715L104.716 25.8715L104.717 25.863C105.138 23.1981 107.813 21.362 110.488 21.9251L110.497 21.9268L110.505 21.9283L172.108 32.763L194.254 67.5202L179.995 154.936Z" fill="#FDFEFF" stroke="#18181B"/>
  <path d="M171.014 116.029L125.037 107.952L120.067 107.02L104.69 104.379C104.068 104.224 103.292 104.845 103.292 105.622C103.136 106.399 103.602 107.175 104.224 107.331L119.601 109.971L124.572 110.903L170.548 118.98C171.169 119.135 171.946 118.514 171.946 117.737C172.101 116.961 171.791 116.184 171.014 116.029Z" fill="#D6DCE8"/>
  <path d="M172.874 105.311L155.788 102.36L150.041 101.273L106.705 93.6617C106.084 93.5063 105.307 94.1276 105.307 94.9043C105.152 95.6809 105.618 96.4575 106.239 96.6129L149.575 104.224L155.322 105.311L172.408 108.262C173.03 108.418 173.806 107.796 173.806 107.02C173.962 106.243 173.496 105.466 172.874 105.311Z" fill="#D6DCE8"/>
  <path d="M175.046 94.4381L170.542 93.6614L166.038 92.8848L108.256 82.7886C107.635 82.6333 106.858 83.2546 106.858 84.0312C106.703 84.8078 107.169 85.5845 107.79 85.7398L165.572 95.836L170.542 96.768L174.425 97.3893C175.046 97.5446 175.823 96.9233 175.823 96.1467C176.134 95.37 175.823 94.5934 175.046 94.4381Z" fill="#DDDFDF"/>
  <path d="M128.143 133.426L125.036 132.96C124.415 132.804 123.949 132.028 124.104 131.251C124.26 130.474 124.881 129.853 125.502 130.008L128.609 130.474C129.23 130.63 129.696 131.406 129.541 132.183C129.385 133.115 128.764 133.426 128.143 133.426Z" fill="#D6DCE8"/>
  <path d="M118.666 131.717L100.493 128.611C99.872 128.456 99.406 127.679 99.5614 126.902C99.7167 126.126 100.338 125.504 100.959 125.66L119.132 128.766C119.754 128.922 120.22 129.698 120.064 130.475C119.909 131.407 119.288 131.873 118.666 131.717Z" fill="#D6DCE8"/>
  <path d="M177.536 83.8766L163.091 81.3914L159.518 80.7701L110.28 72.0718C109.658 71.9165 108.882 72.5378 108.882 73.3144C108.726 74.0911 109.192 74.8677 109.814 75.023L159.052 83.7213L162.625 84.3426L176.915 86.8278C177.691 86.9831 178.312 86.3618 178.468 85.5852C178.623 84.8086 178.157 84.0319 177.536 83.8766Z" fill="#DDDFDF"/>
  <path d="M157.19 48.6172L116.34 41.4722C115.408 41.3169 114.786 40.3849 114.942 39.453C115.097 38.521 116.029 37.8997 116.961 38.055L157.812 45.2C158.744 45.3554 159.365 46.2873 159.21 47.2193C159.054 47.9959 158.122 48.7725 157.19 48.6172Z" fill="#DDDFDF"/>
  <path d="M130.317 53.8989L114.629 51.1031C113.697 50.9477 113.075 50.0158 113.231 49.0838C113.386 48.1519 114.318 47.5306 115.25 47.6859L130.783 50.4818C131.715 50.6371 132.336 51.569 132.181 52.501C132.025 53.433 131.093 54.0543 130.317 53.8989Z" fill="#DDDFDF"/>
  <path d="M172.254 32.3086L168.06 56.3842C167.439 59.8013 169.924 63.0632 173.341 63.6845L194.776 67.4123" fill="#71717A"/>
  <path d="M136.22 146.784C155.35 146.784 170.858 131.276 170.858 112.147C170.858 93.0166 155.35 77.5088 136.22 77.5088C117.09 77.5088 101.582 93.0166 101.582 112.147C101.582 131.276 117.09 146.784 136.22 146.784Z" fill="white"/>
  <path d="M186.455 165.641C185.11 165.641 183.766 165.103 182.69 163.893L160.237 141.44L159.43 141.978C152.17 147.356 143.7 150.179 135.095 150.179C124.743 150.179 114.39 146.011 106.726 138.751C98.6595 131.087 94.2227 120.735 94.2227 109.441C94.2227 86.9882 112.508 68.7031 134.961 68.7031C150.288 68.7031 163.733 76.7701 170.993 90.4838C178.119 104.063 177.178 119.928 168.438 132.701L167.901 133.507L190.488 156.095C192.774 158.381 192.236 160.666 191.833 161.876C190.757 164.027 188.606 165.641 186.455 165.641ZM134.961 79.8624C118.558 79.8624 105.382 93.1728 105.382 109.441C105.382 127.995 120.575 139.154 135.364 139.154C144.372 139.154 152.573 135.121 158.355 127.861C165.481 118.987 166.691 107.021 161.716 96.6685C156.607 86.3159 146.389 79.8624 134.961 79.8624Z" fill="#18181B"/>
  <path d="M132.956 117.738C132.801 117.117 132.801 116.495 132.801 115.719C132.801 113.078 133.888 110.748 136.684 108.729L139.014 107.02C140.412 105.933 141.033 104.69 141.033 103.137C141.033 100.963 139.48 98.788 136.218 98.788C132.801 98.788 131.247 101.584 131.247 104.224C131.247 104.846 131.247 105.312 131.403 105.778L125.19 105.622C125.034 105.001 124.879 104.224 124.879 103.448C124.879 98.1667 128.762 93.1963 136.062 93.1963C143.518 93.1963 147.557 98.0114 147.557 102.827C147.557 106.71 145.537 109.35 142.741 111.369L140.722 112.767C139.014 114.01 138.082 115.563 138.082 117.427V117.738H132.956ZM135.596 120.844C137.771 120.844 139.48 122.553 139.48 124.728C139.48 126.902 137.771 128.611 135.596 128.611C133.422 128.611 131.713 126.902 131.713 124.728C131.869 122.708 133.422 120.844 135.596 120.844Z" fill="#18181B"/>
</svg>