<svg width="15" height="18" viewBox="0 0 15 18" fill="none" xmlns="http://www.w3.org/2000/svg">
<path id="Vector" d="M5.875 13.8L8.3125 11.4M8.3125 11.4L5.875 9M8.3125 11.4H2.625C2.19402 11.4 1.7807 11.5686 1.47595 11.8686C1.1712 12.1687 1 12.5757 1 13V15.4C1 15.8243 1.1712 16.2313 1.47595 16.5314C1.7807 16.8314 2.19402 17 2.625 17H12.375C12.806 17 13.2193 16.8314 13.524 16.5314C13.8288 16.2313 14 15.8243 14 15.4V5L9.9375 1H2.625C2.19402 1 1.7807 1.16857 1.47595 1.46863C1.1712 1.76869 1 2.17565 1 2.6V8.2M9.125 1V4.2C9.125 4.62435 9.29621 5.03131 9.60095 5.33137C9.9057 5.63143 10.319 5.8 10.75 5.8H14" stroke="#18181B" stroke-width="1.5" stroke-linecap="round" stroke-linejoin="round"/>
</svg>
