<svg width="32" height="32" viewBox="0 0 32 32" fill="none" xmlns="http://www.w3.org/2000/svg">
<path d="M21.1992 20.1622L17.968 16.931L6.80396 28.0958C7.11596 28.1486 7.45116 28.0998 7.76156 27.9206L21.1992 20.1622ZM22.6336 19.3342L19.0992 15.7998L22.8136 12.0854L26.8416 14.411C27.8016 14.9654 27.8016 16.351 26.8416 16.9038L22.6336 19.3342ZM21.3792 11.2574L17.968 14.6686L6.57756 3.27817C6.94876 3.15017 7.37436 3.17177 7.76156 3.39497L21.3792 11.2574ZM5.60316 4.56617L5.60156 4.64217V26.6742C5.60156 26.7854 5.61436 26.8942 5.63756 26.9982L16.8368 15.799L5.60316 4.56617Z" fill="currentColor"/>
</svg>