
<svg width="783" height="783" viewBox="0 0 783 783" fill="none" xmlns="http://www.w3.org/2000/svg">
<g opacity="0.4">
<mask id="mask0_8713_37508" style="mask-type:luminance" maskUnits="userSpaceOnUse" x="114" y="114" width="555" height="555">
<path d="M587.25 587.25C695.36 479.14 695.36 303.86 587.25 195.75C479.14 87.6403 303.86 87.6402 195.75 195.75C87.6403 303.86 87.6403 479.14 195.75 587.25C303.86 695.36 479.14 695.36 587.25 587.25Z" fill="white"/>
</mask>
<g mask="url(#mask0_8713_37508)">
<path d="M114.95 729.524L113.602 729.453C114.099 719.219 115.127 708.736 116.121 698.591C118.639 673.033 121.229 646.587 115.571 621.277C114.755 617.659 113.957 614.112 113.159 610.635C106.702 582.346 101.133 557.905 102.765 527.061C103.12 520.498 103.687 513.634 104.237 507.018C105.94 486.426 107.713 465.142 103.829 445.26C101.949 435.611 98.4372 426.459 95.0495 417.591C90.2783 405.139 85.3476 392.245 84.9219 377.932C84.2124 354.661 93.7902 334.672 103.066 315.322C109.593 301.7 116.333 287.599 119.508 272.417C126.408 239.303 123.126 202.357 119.969 166.654C118.267 147.463 116.653 129.336 116.493 111.688H117.841C118.001 129.265 119.597 147.374 121.3 166.529C124.474 202.34 127.773 239.374 120.821 272.701C117.61 288.06 110.835 302.214 104.273 315.907C95.085 335.098 85.5782 354.945 86.2699 377.896C86.6956 391.979 91.5909 404.767 96.3088 417.112C99.7142 426.033 103.244 435.238 105.159 444.994C109.079 465.071 107.305 486.462 105.585 507.125C105.035 513.74 104.468 520.587 104.113 527.132C102.481 557.78 108.033 582.133 114.471 610.334C115.269 613.81 116.067 617.358 116.883 620.976C122.594 646.499 119.987 673.05 117.469 698.715C116.475 708.843 115.447 719.307 114.95 729.506V729.524Z" fill="currentColor" fill-opacity="0.4"/>
<path d="M130.809 708.418H129.461C129.55 698.379 130.011 688.092 130.437 678.124C131.678 650.136 132.956 621.172 126.304 593.787C125.4 590.026 124.442 586.319 123.52 582.648C118.873 564.344 114.474 547.068 114.758 527.824C114.971 513.404 117.099 498.577 119.156 484.246C122.438 461.401 125.825 437.793 121.622 414.966C120.097 406.701 117.454 398.897 114.882 391.341C111.157 380.327 107.291 368.958 106.989 356.258C106.457 334.07 115.503 315.358 124.247 297.267C130.969 283.361 137.922 268.995 140.582 253.014C145.424 224.103 141.877 193.118 138.454 163.16C136.503 146.098 134.481 128.468 134.108 111.671L135.456 111.636C135.829 128.361 137.851 145.974 139.802 163.001C143.243 193.047 146.79 224.121 141.93 253.227C139.217 269.385 132.228 283.858 125.471 297.834C116.798 315.784 107.823 334.336 108.337 356.205C108.639 368.692 112.292 379.476 116.159 390.88C118.731 398.489 121.391 406.347 122.934 414.7C127.191 437.74 123.786 461.454 120.487 484.405C118.429 498.701 116.319 513.475 116.106 527.807C115.822 546.873 120.203 564.078 124.832 582.276C125.772 585.965 126.712 589.672 127.617 593.432C134.321 621.012 133.026 650.065 131.785 678.142C131.341 688.092 130.88 698.379 130.809 708.383V708.418Z" fill="currentColor" fill-opacity="0.4"/>
<path d="M145.213 686.105C144.947 676.669 144.894 667.002 144.841 657.655C144.681 626.971 144.504 595.24 136.788 565.248C131.201 543.52 126.377 524.773 128.151 499.072C129.108 485.344 131.893 471.137 134.589 457.392C138.792 435.948 143.156 413.795 140.797 392.476C139.803 383.519 137.232 374.863 134.731 366.474C131.591 355.903 128.328 344.995 128.204 333.324C127.973 312.2 136.912 295.049 145.568 278.465C152.804 264.595 160.271 250.246 162.435 233.556C165.575 209.257 161.495 183.965 157.558 159.524C155.004 143.756 152.379 127.438 151.758 111.67L153.106 111.617C153.727 127.314 156.352 143.578 158.888 159.311C162.843 183.858 166.94 209.239 163.783 233.733C161.602 250.654 154.064 265.109 146.774 279.086C138.207 295.528 129.339 312.537 129.569 333.307C129.694 344.782 132.922 355.601 136.043 366.084C138.562 374.526 141.151 383.235 142.162 392.316C144.539 413.831 140.158 436.108 135.937 457.64C133.241 471.333 130.456 485.504 129.516 499.143C127.743 524.631 132.549 543.29 138.101 564.893C145.852 595.045 146.029 626.864 146.189 657.637C146.242 666.985 146.295 676.633 146.561 686.051L145.213 686.087V686.105Z" fill="currentColor" fill-opacity="0.4"/>
<path d="M161.05 664.644C158.549 622.076 155.641 580.36 147.535 538.058L147.269 536.639C142.64 512.5 139.305 495.047 142.587 469.364C144.236 456.452 147.624 442.617 150.887 429.244C155.712 409.539 160.696 389.142 160.696 370.11C160.696 359.983 158.071 350.21 155.534 340.739C152.998 331.303 150.391 321.548 150.302 311.331C150.125 291.271 158.638 276.107 166.85 261.421C173.324 249.874 179.993 237.955 182.6 223.571C186.733 200.602 181.607 177.367 176.641 154.895C173.501 140.723 170.273 126.055 169.404 111.653L170.752 111.564C171.604 125.86 174.832 140.457 177.953 154.593C182.955 177.19 188.116 200.567 183.931 223.801C181.306 238.399 174.566 250.442 168.039 262.077C159.525 277.259 151.49 291.608 151.668 311.314C151.756 321.353 154.346 331.037 156.847 340.384C159.401 349.926 162.061 359.805 162.044 370.11C162.044 389.301 157.024 409.769 152.182 429.563C148.777 443.522 145.549 456.7 143.899 469.542C140.653 495.011 143.97 512.375 148.582 536.391L148.848 537.81C156.971 580.2 159.88 621.97 162.381 664.573L161.033 664.644H161.05Z" fill="currentColor" fill-opacity="0.4"/>
<path d="M177.14 646.109C176.821 642.26 176.519 638.411 176.218 634.58C173.309 597.972 170.311 560.104 161.656 523.532C156.317 500.917 153.657 482.95 155.874 458.084C157.364 441.429 162.631 424.136 167.739 407.392C174.249 386.038 180.971 363.938 179.96 342.902C179.57 334.868 177.512 327.081 175.508 319.543C173.202 310.817 170.808 301.771 170.932 292.193C171.18 273.073 179.002 260.073 187.303 246.291C192.961 236.891 198.814 227.171 202.095 215.252C208.25 192.904 201.9 171.478 195.745 150.762C191.985 138.08 188.083 124.973 187.037 111.688L188.385 111.582C189.414 124.725 193.298 137.761 197.04 150.372C203.248 171.266 209.651 192.886 203.39 215.607C200.055 227.703 194.149 237.512 188.456 246.983C180.261 260.605 172.528 273.464 172.28 292.211C172.156 301.612 174.515 310.569 176.803 319.206C178.807 326.815 180.9 334.673 181.29 342.849C182.319 364.115 175.561 386.321 169.016 407.8C163.944 424.455 158.694 441.695 157.204 458.208C154.987 482.879 157.63 500.74 162.951 523.212C171.624 559.892 174.621 597.812 177.53 634.474C177.832 638.323 178.133 642.154 178.452 646.003L177.104 646.109H177.14Z" fill="currentColor" fill-opacity="0.4"/>
<path d="M193.649 632.611L192.762 623.033C189.41 586.975 185.952 549.693 176.924 513.741L176.126 510.548C171.532 492.368 167.204 475.181 168.463 455.707C169.865 433.855 176.693 412.766 183.309 392.387C188.949 374.97 194.784 356.95 197.072 338.805C198.598 326.638 196.682 315.978 194.66 304.68C193.17 296.326 191.61 287.67 191.61 278.394C191.592 259.558 199.538 246.539 207.236 233.964C213.23 224.138 219.438 213.993 222.081 200.956C226.267 180.276 220.449 164.437 214.295 147.676C210.198 136.519 205.958 124.973 204.717 111.671L206.065 111.546C207.271 124.671 211.492 136.129 215.554 147.197C221.779 164.153 227.668 180.151 223.394 201.222C220.698 214.489 214.437 224.741 208.371 234.656C200.425 247.657 192.922 259.93 192.94 278.377C192.94 287.529 194.483 296.113 195.973 304.432C197.924 315.322 199.946 326.585 198.385 338.965C196.097 357.233 190.226 375.307 184.568 392.795C177.988 413.103 171.177 434.121 169.794 455.795C168.552 475.057 172.862 492.138 177.42 510.211L178.218 513.404C187.264 549.462 190.74 586.798 194.093 622.909L194.98 632.487L193.632 632.611H193.649Z" fill="currentColor" fill-opacity="0.4"/>
<path d="M210.763 626.226C206.683 583.517 202.444 544.975 191.962 505.813C186.588 485.753 183.253 468.531 184.459 449.623C185.949 426.371 193.434 404.307 200.671 382.969C206.329 366.262 212.199 349.004 215.002 331.498C217.041 318.781 215.215 308.015 213.281 296.628C211.951 288.788 210.568 280.7 210.497 271.761C210.355 252.978 218.265 240.509 225.892 228.448C231.816 219.119 237.935 209.453 240.596 196.718C245.012 175.629 238.964 161.475 232.579 146.488C228.145 136.076 223.551 125.293 222.309 111.689L223.657 111.564C224.881 124.973 229.422 135.633 233.82 145.956C240.294 161.138 246.413 175.487 241.908 196.984C239.194 209.967 233.004 219.722 227.027 229.158C219.152 241.591 211.703 253.351 211.827 271.726C211.898 280.541 213.264 288.593 214.576 296.362C216.527 307.855 218.389 318.728 216.297 331.675C213.476 349.288 207.588 366.616 201.912 383.36C194.711 404.608 187.244 426.584 185.772 449.659C184.584 468.371 187.883 485.469 193.221 505.405C203.739 544.674 207.978 583.268 212.057 626.031L210.709 626.155L210.763 626.226Z" fill="currentColor" fill-opacity="0.4"/>
<path d="M228.961 628.798C225.236 589.299 220.997 550.527 210.107 510.566C205.14 492.351 200.742 472.503 202.178 450.634C203.775 426.087 211.064 402.781 218.106 380.256C222.877 365.002 227.808 349.217 230.894 333.289C233.501 319.774 232.384 308.032 231.213 295.617C230.521 288.327 229.794 280.771 229.865 272.683C230.007 254.557 237.226 242.088 244.196 230.045C249.624 220.68 255.228 210.995 257.765 198.509C262.004 177.562 256.115 162.699 249.89 146.966C245.651 136.254 241.252 125.186 239.993 111.706L241.341 111.582C242.6 124.867 246.945 135.846 251.149 146.47C257.463 162.397 263.423 177.438 259.095 198.775C256.523 211.474 250.865 221.265 245.385 230.719C238.184 243.17 231.373 254.911 231.231 272.683C231.16 280.7 231.887 288.203 232.579 295.475C233.767 307.997 234.902 319.827 232.242 333.537C229.156 349.536 224.207 365.357 219.418 380.663C212.395 403.118 205.14 426.353 203.544 450.723C202.125 472.397 206.488 492.12 211.437 510.211C222.363 550.278 226.602 589.104 230.344 628.674L228.996 628.798H228.961Z" fill="currentColor" fill-opacity="0.4"/>
<path d="M248.634 639.191C246.293 613.669 240.671 587.578 235.243 562.339C226.996 524.01 218.465 484.369 221.054 445.49C223.041 415.746 229.905 386.641 236.556 358.493C242.728 332.331 249.131 305.301 251.526 277.933C252.927 262.006 258.07 250.441 263.533 238.185C267.311 229.707 271.231 220.928 273.803 210.516C279.336 188.186 273.253 169.58 266.832 149.893C262.877 137.761 258.78 125.221 257.609 111.671L258.957 111.546C260.11 124.937 264.189 137.406 268.127 149.467C274.619 169.35 280.738 188.133 275.133 210.836C272.526 221.371 268.588 230.186 264.792 238.735C259.383 250.885 254.275 262.343 252.891 278.04C250.497 305.513 244.094 332.597 237.904 358.794C231.27 386.889 224.406 415.941 222.438 445.561C219.866 484.245 228.362 523.797 236.591 562.037C242.036 587.312 247.659 613.456 250 639.05L248.652 639.174L248.634 639.191Z" fill="currentColor" fill-opacity="0.4"/>
<path d="M269.119 653.842C266.512 625.056 260.109 596.358 253.901 568.618C245.601 531.46 237.016 493.043 237.566 454.146C238.045 421.068 240.599 378.269 256.278 340.668C258.282 335.879 260.304 331.409 262.273 327.081C268.073 314.329 273.536 302.268 275.93 286.341C277.704 274.457 280.489 263.088 283.167 252.109C285.579 242.194 288.08 231.96 289.836 221.425C293.702 198.083 288.328 175.86 283.114 154.381C279.761 140.564 276.32 126.286 275.239 111.671L276.587 111.564C277.651 126.073 281.092 140.298 284.426 154.044C289.658 175.664 295.068 198.012 291.166 221.62C289.41 232.209 286.909 242.478 284.479 252.411C281.801 263.372 279.034 274.705 277.261 286.536C274.848 302.658 269.332 314.79 263.497 327.649C261.546 331.959 259.506 336.429 257.52 341.2C241.929 378.588 239.393 421.209 238.914 454.182C238.347 492.918 246.931 531.265 255.214 568.334C261.422 596.127 267.842 624.861 270.45 653.718L269.102 653.842H269.119Z" fill="currentColor" fill-opacity="0.4"/>
<path d="M289.693 669.078C286.873 636.212 279.494 603.967 272.364 572.786C263.851 535.557 255.053 497.069 253.971 457.374C253.847 452.993 253.652 448.399 253.457 443.681C252.322 416.952 251.045 386.676 261.563 363.388C266.192 353.119 272.613 344.676 278.838 336.499C287.884 324.598 296.415 313.371 299.448 297.319C307.713 253.421 303.084 212.308 298.189 168.765C296.096 150.177 293.932 130.95 292.903 111.653L294.251 111.582C295.28 130.844 297.444 150.053 299.537 168.623C304.45 212.255 309.079 253.475 300.778 297.568C297.692 313.939 289.054 325.29 279.92 337.315C273.748 345.421 267.38 353.81 262.804 363.938C252.428 386.924 253.705 417.041 254.823 443.611C255.018 448.346 255.213 452.94 255.337 457.321C256.401 496.873 265.199 535.309 273.694 572.467C280.842 603.701 288.221 635.981 291.059 668.936L289.711 669.06L289.693 669.078Z" fill="currentColor" fill-opacity="0.4"/>
<path d="M309.612 681.263C306.704 645.081 298.35 609.2 290.28 574.525C282.742 542.191 274.955 508.74 271.532 474.934C270.84 468.034 269.847 461.099 268.907 454.395C265.147 427.879 261.6 402.817 274.015 377.702C279.496 366.599 288.24 357.819 296.7 349.341C308.424 337.582 319.492 326.461 322.915 309.558C325.522 296.664 323.802 280.169 322.117 264.206C321.248 255.976 320.432 248.19 320.254 241.272C319.687 218.765 317.47 196.097 315.324 174.193C313.319 153.778 311.262 132.654 310.535 111.689L311.883 111.636C312.61 132.547 314.667 153.654 316.672 174.051C318.818 195.991 321.035 218.676 321.602 241.237C321.78 248.101 322.596 255.852 323.447 264.046C325.132 280.115 326.87 296.717 324.227 309.806C320.716 327.1 308.992 338.877 297.64 350.281C289.269 358.688 280.595 367.397 275.221 378.287C263.001 403.048 266.513 427.896 270.237 454.2C271.195 460.922 272.171 467.857 272.88 474.792C276.303 508.527 284.072 541.925 291.61 574.223C299.698 608.951 308.069 644.886 310.978 681.157L309.63 681.263H309.612Z" fill="currentColor" fill-opacity="0.4"/>
<path d="M328.163 686.708C325.041 646.428 315.694 605.652 306.631 566.206C300.387 538.998 293.931 510.868 289.586 483.163C288.344 475.271 286.659 467.839 285.01 460.638C279.795 437.811 275.308 418.106 286.872 393.984C292.814 381.604 303.012 372.345 312.874 363.406C325.875 351.593 338.166 340.455 341.767 322.665C344.356 309.895 341.412 295.422 338.574 281.428C336.747 272.471 335.027 264.01 334.654 255.94C333.963 241.272 333.165 226.338 332.402 211.883C330.646 179.017 328.837 145.033 328.163 111.671H329.511C330.167 144.998 331.994 178.963 333.75 211.812C334.53 226.267 335.328 241.201 336.002 255.887C336.375 263.851 338.095 272.258 339.905 281.162C342.778 295.28 345.758 309.895 343.097 322.931C339.39 341.147 326.371 352.977 313.779 364.399C304.023 373.268 293.914 382.42 288.096 394.569C276.727 418.283 281.179 437.775 286.322 460.336C287.972 467.555 289.675 475.022 290.916 482.95C295.244 510.602 301.7 538.714 307.943 565.904C317.007 605.386 326.371 646.216 329.493 686.602L328.145 686.708H328.163Z" fill="currentColor" fill-opacity="0.4"/>
<path d="M347.44 686.583C344.638 656.484 337.472 629.241 329.899 600.384C328.036 593.324 326.121 585.999 324.276 578.674C320.25 562.64 318.068 546.464 315.976 530.839C314.273 518.104 312.499 504.925 309.732 491.96C308.136 484.475 306.132 477.771 304.198 471.279C298.416 451.929 293.415 435.203 304.819 412.11C311.169 399.251 322.538 390.418 333.535 381.851C347.582 370.926 360.849 360.603 364.627 342.636C367.731 327.879 362.481 313.14 357.408 298.897C353.914 289.107 350.314 278.979 349.498 268.976C346.11 227.561 346.004 184.497 345.915 142.833C345.897 132.404 345.862 122.011 345.791 111.688H347.139C347.21 121.993 347.245 132.387 347.263 142.833C347.352 184.461 347.458 227.49 350.846 268.869C351.644 278.678 355.227 288.734 358.685 298.436C363.829 312.856 369.132 327.773 365.957 342.92C362.073 361.383 347.99 372.327 334.368 382.916C323.496 391.376 312.233 400.12 306.025 412.695C294.869 435.327 299.552 451.006 305.476 470.889C307.427 477.398 309.431 484.138 311.045 491.676C313.812 504.695 315.585 517.891 317.306 530.661C319.399 546.252 321.563 562.392 325.571 578.355C327.416 585.68 329.331 592.987 331.194 600.064C338.785 628.975 345.95 656.289 348.77 686.495L347.422 686.619L347.44 686.583Z" fill="currentColor" fill-opacity="0.4"/>
<path d="M368.374 684.952C362.237 633.072 349.892 579.525 337.973 527.735C335.951 518.973 333.947 510.282 331.996 501.644C330.133 493.468 327.491 486.515 325.15 480.378C319.155 464.628 314.419 452.195 326.249 430.716C333.397 417.75 346.593 410.141 359.363 402.78C375.025 393.753 389.799 385.221 394.233 367.68C398.597 350.404 389.09 332.579 379.885 315.339C373.269 302.941 367.026 291.235 365.482 279.636C360.357 241.289 361.474 200.069 362.574 160.197C363.017 144.128 363.461 127.509 363.478 111.688H364.826C364.826 127.544 364.365 144.164 363.922 160.251C362.84 200.069 361.705 241.236 366.83 279.476C368.356 290.827 374.546 302.445 381.091 314.718C390.402 332.189 400.051 350.263 395.564 368.035C391.005 386.126 375.273 395.207 360.055 403.969C347.444 411.241 334.426 418.761 327.455 431.39C315.927 452.319 320.556 464.486 326.427 479.917C328.786 486.089 331.446 493.095 333.326 501.36C335.277 509.998 337.299 518.689 339.303 527.451C351.24 579.277 363.585 632.859 369.739 684.81L368.391 684.969L368.374 684.952Z" fill="currentColor" fill-opacity="0.4"/>
<path d="M388.732 683.409C383.127 641.444 373.408 604.64 363.741 571.136C360.584 560.21 359.36 548.983 358.172 538.128C357.09 528.231 355.973 517.997 353.383 508.189C351.29 500.261 348.399 493.893 345.827 488.271C339.407 474.188 334.777 464.007 347.353 443.078C355.281 429.9 369.967 423.497 384.156 417.307C400.935 409.999 416.774 403.1 421.899 385.948C427.504 367.165 414.308 346.165 401.52 325.857C392.545 311.597 384.085 298.135 382.099 285.737C375.997 247.515 377.771 205.674 379.474 165.235C380.254 146.611 380.999 129.017 381.034 111.688H382.382C382.347 129.052 381.602 146.647 380.821 165.288C379.119 205.674 377.345 247.426 383.429 285.524C385.362 297.638 393.769 310.994 402.655 325.13C415.585 345.686 428.976 366.953 423.176 386.339C417.873 404.093 401.006 411.454 384.688 418.566C370.676 424.667 356.203 430.982 348.505 443.805C336.285 464.131 340.808 474.028 347.051 487.739C349.641 493.414 352.567 499.835 354.678 507.87C357.285 517.784 358.402 528.072 359.502 538.004C360.673 548.806 361.897 559.962 365.018 570.781C374.702 604.339 384.44 641.195 390.044 683.249L388.697 683.426L388.732 683.409Z" fill="currentColor" fill-opacity="0.4"/>
<path d="M406.56 684.065C396.858 615.478 385.364 555.99 372.434 507.267C370.625 500.439 368.319 494.603 366.297 489.478C360.338 474.366 356.028 463.44 368.621 442.671C376.425 429.794 390.65 423.409 404.413 417.254C420.536 410.035 435.772 403.207 440.951 386.783C447.07 367.397 433.093 346.68 419.578 326.656C409.929 312.36 400.831 298.863 398.791 286.039C393.009 249.502 394.978 209.807 396.893 171.425C397.886 151.56 398.897 131.021 398.755 111.671H400.103C400.245 131.057 399.217 151.614 398.241 171.496C396.343 209.807 394.374 249.431 400.139 285.826C402.125 298.366 411.153 311.739 420.713 325.893C434.406 346.184 448.577 367.166 442.263 387.191C436.907 404.2 420.678 411.454 404.999 418.478C391.43 424.562 377.401 430.84 369.827 443.362C357.589 463.564 361.792 474.224 367.61 488.981C369.65 494.16 371.955 500.013 373.8 506.93C386.748 555.706 398.241 615.23 407.961 683.888L406.613 684.083L406.56 684.065Z" fill="currentColor" fill-opacity="0.4"/>
<path d="M422.398 690.007C414.239 632.718 404.927 564.822 397.726 495.526C397.496 493.273 397.248 491.038 396.999 488.857C394.693 467.999 392.707 449.978 404.218 429.421C409.929 419.241 419.862 412.093 429.475 405.176C441.837 396.29 453.526 387.882 456.789 373.622C461.507 353.012 448.045 336.712 435.009 320.962C425.183 309.061 415.002 296.77 412.501 282.58C406.488 248.544 409.681 211.138 412.785 174.955C414.594 153.848 416.456 132.015 416.35 111.671H417.698C417.804 132.068 415.942 153.937 414.133 175.079C411.047 211.173 407.854 248.491 413.831 282.35C416.279 296.184 426.335 308.334 436.055 320.093C449.287 336.109 462.979 352.658 458.119 373.924C454.749 388.681 442.298 397.62 430.273 406.275C420.784 413.104 410.958 420.163 405.406 430.078C394.108 450.244 396.077 468.069 398.347 488.697C398.596 490.879 398.826 493.096 399.074 495.366C406.258 564.627 415.569 632.523 423.728 689.794L422.38 689.989L422.398 690.007Z" fill="currentColor" fill-opacity="0.4"/>
<path d="M437.457 700.011L437.102 697.386C427.365 626.085 417.29 552.354 427.542 479.031C430.096 460.727 436.996 437.722 448.046 410.638C450.812 403.845 454.661 397.283 458.386 390.915C465.055 379.511 471.954 367.734 472.753 354.431C474.065 332.58 461.827 322.133 448.861 311.048C438.255 301.984 427.276 292.602 423.729 276.444C416.811 244.89 422.203 208.708 427.418 173.713C430.681 151.826 433.75 131.163 434.016 111.671H435.364C435.098 131.288 432.012 151.986 428.748 173.926C423.551 208.796 418.177 244.855 425.041 276.16C428.482 291.874 439.284 301.097 449.731 310.019C462.377 320.821 475.449 331.995 474.101 354.502C473.285 368.142 466.296 380.061 459.539 391.589C455.85 397.904 452.019 404.431 449.287 411.135C438.29 438.095 431.409 461.01 428.872 479.208C418.656 552.354 428.713 625.978 438.432 697.19L438.787 699.815L437.439 699.993L437.457 700.011Z" fill="currentColor" fill-opacity="0.4"/>
<path d="M452.73 712.284C441.13 622.963 434 548.38 455.94 469.861C459.7 456.416 466.369 445.508 472.825 434.955C480.931 421.67 489.338 407.942 491.91 389.106C494.304 371.529 494.02 354.325 491.023 336.535C487.476 315.464 475.291 308.032 462.396 300.157C451.754 293.665 440.758 286.943 434.887 272.009C423.926 244.145 432.918 205.515 441.609 168.162C446.416 147.463 450.974 127.935 451.683 111.653L453.031 111.706C452.322 128.095 447.764 147.711 442.921 168.463C434.284 205.621 425.345 244.039 436.146 271.512C441.857 286.021 452.659 292.619 463.106 298.986C475.681 306.666 488.7 314.63 492.353 336.304C495.386 354.236 495.67 371.564 493.258 389.283C490.651 408.403 482.172 422.256 473.996 435.664C467.593 446.147 460.977 456.984 457.27 470.233C435.401 548.522 442.531 622.945 454.113 712.124L452.765 712.302L452.73 712.284Z" fill="currentColor" fill-opacity="0.4"/>
<path d="M469.277 725.037C467.876 713.969 466.227 702.76 464.648 691.923C457.163 640.717 449.43 587.756 464.683 535.557C467.273 526.707 469.206 517.076 471.246 506.859C474.935 488.484 478.731 469.471 486.73 454.714C492.228 444.551 498.135 438.095 503.846 431.869C512.98 421.901 520.873 413.299 524.261 392.21C527.595 371.583 520.412 351.132 513.495 331.356L512.076 327.277C503.704 303.19 502.817 300.672 478.784 289.657C475.68 288.238 472.594 287.068 469.614 285.95C460.249 282.421 451.417 279.104 444.978 268.569C430.079 244.163 443.825 201.241 455.939 163.355C462.236 143.703 468.178 125.133 469.277 111.564L470.625 111.671C469.508 125.399 463.548 144.022 457.234 163.763C445.191 201.365 431.552 243.986 446.131 267.841C452.321 277.969 460.551 281.073 470.093 284.656C473.091 285.791 476.195 286.961 479.352 288.398C503.243 299.341 504.715 301.949 513.37 326.798L514.789 330.877C521.778 350.813 528.996 371.423 525.626 392.388C522.168 413.884 514.151 422.628 504.875 432.738C499.217 438.911 493.364 445.296 487.936 455.317C480.043 469.896 476.265 488.803 472.594 507.09C470.537 517.324 468.603 526.99 465.996 535.894C450.813 587.809 458.192 638.269 465.996 691.692C467.575 702.529 469.224 713.739 470.625 724.824L469.277 725.001V725.037Z" fill="currentColor" fill-opacity="0.4"/>
<path d="M486.925 737.026C485.63 725.551 484.051 713.898 482.544 702.635C475.946 653.753 469.117 603.204 483.342 553.808C485.896 544.939 487.882 535.149 489.975 524.791C493.877 505.458 497.921 485.486 506.116 470.251C510.834 461.471 515.835 454.323 520.677 447.406C529.865 434.281 538.52 421.901 542.369 401.344C546.945 376.85 541.571 347.123 535.008 327.471C526.796 302.835 510.426 296.113 493.079 288.983C478.996 283.183 464.435 277.206 454.538 260.871C439.018 235.277 455.318 196.611 469.685 162.504C477.648 143.614 485.169 125.771 486.925 111.546L488.273 111.706C486.481 126.108 478.925 144.04 470.926 163.036C456.684 196.842 440.544 235.17 455.691 260.179C465.357 276.124 479.706 282.03 493.594 287.741C510.443 294.676 527.878 301.842 536.286 327.063C542.901 346.875 548.311 376.868 543.699 401.61C539.815 422.433 531.053 434.955 521.795 448.186C516.988 455.068 512.004 462.163 507.322 470.889C499.234 485.93 495.208 505.83 491.323 525.057C489.213 535.45 487.226 545.259 484.672 554.18C470.518 603.31 477.329 653.718 483.909 702.458C485.435 713.738 487.013 725.391 488.308 736.867L486.96 737.026H486.925Z" fill="currentColor" fill-opacity="0.4"/>
<path d="M504.571 748.165C503.454 736.991 502.017 725.569 500.633 714.519C495.401 673.051 489.992 630.164 500.367 588.572C503.134 577.451 505.511 565.656 507.799 554.269C511.063 537.987 514.45 521.137 519.115 505.618C523.443 491.233 529.491 477.966 535.326 465.125C544.549 444.852 553.258 425.715 556.149 402.178C558.064 386.694 560.423 356.861 554.89 330.948C549.001 303.456 528.852 294.712 507.497 285.472C489.743 277.774 471.368 269.81 462.145 250.087C449.73 223.553 466.562 192.514 482.844 162.522C492.741 144.271 502.088 127.048 504.571 111.564L505.901 111.777C503.4 127.492 494 144.821 484.032 163.16C467.91 192.869 451.237 223.589 463.369 249.502C472.379 268.764 490.506 276.621 508.047 284.23C528.764 293.205 550.189 302.499 556.22 330.664C561.807 356.772 559.43 386.783 557.497 402.338C554.57 426.087 545.418 446.218 536.55 465.675C530.732 478.481 524.702 491.712 520.41 505.99C515.745 521.457 512.375 538.271 509.112 554.517C506.824 565.922 504.465 577.735 501.68 588.891C491.375 630.235 496.767 672.998 501.981 714.342C503.383 725.392 504.819 736.832 505.937 748.023L504.589 748.165H504.571Z" fill="currentColor" fill-opacity="0.4"/>
<path d="M522.221 757.228C521.316 746.603 520.057 735.695 518.815 725.16C514.878 691.354 510.798 656.413 517.857 622.518C522.008 602.6 525.449 582.611 528.801 563.278C530.131 555.581 531.461 547.848 532.845 540.061C536.924 517.181 544.586 493.414 552 470.445C566.207 426.458 580.875 380.982 573.249 335.789C568.211 306.027 545.846 295.545 522.15 284.46C502.568 275.29 482.313 265.818 472.984 244.428C460.781 216.475 479.067 188.7 496.769 161.864C508.262 144.429 519.117 127.952 522.185 111.51L523.515 111.759C520.394 128.466 509.468 145.05 497.904 162.609C480.415 189.161 462.324 216.599 474.225 243.896C483.36 264.807 503.367 274.172 522.717 283.236C545.686 293.984 569.435 305.105 574.579 335.576C582.277 381.088 567.537 426.725 553.277 470.871C545.881 493.804 538.219 517.518 534.157 540.309C532.774 548.096 531.444 555.829 530.113 563.527C526.779 582.877 523.32 602.866 519.17 622.82C512.164 656.484 516.226 691.319 520.145 725.018C521.369 735.571 522.646 746.462 523.551 757.121L522.203 757.228H522.221Z" fill="currentColor" fill-opacity="0.4"/>
<path d="M539.851 762.974C539.124 752.013 537.865 740.715 536.623 729.789C533.59 702.954 530.451 675.214 534.991 648.396L536.126 641.727C540.419 616.47 544.463 592.597 547.07 566.772C550.209 535.733 558.297 504.623 566.119 474.542C569.294 462.304 572.593 449.658 575.466 437.295C576.832 431.442 578.428 425.306 580.113 418.796C586.782 393.06 594.338 363.884 590.915 339.727C586.481 308.563 562.714 296.751 537.545 284.229C516.794 273.906 495.315 263.247 486.021 240.703C474.013 211.615 493.169 186.252 511.703 161.722C523.87 145.6 536.463 128.928 539.833 111.51L541.164 111.776C537.741 129.495 525.041 146.292 512.767 162.538C494.463 186.766 475.556 211.828 487.262 240.189C496.379 262.271 517.609 272.824 538.148 283.023C562.518 295.137 587.74 307.677 592.263 339.532C595.739 363.973 588.148 393.273 581.443 419.133C579.758 425.625 578.162 431.762 576.814 437.597C573.923 449.977 570.642 462.641 567.449 474.879C559.627 504.907 551.557 535.964 548.436 566.897C545.828 592.774 541.767 616.665 537.474 641.94L536.339 648.609C531.834 675.231 534.956 702.883 537.989 729.63C539.23 740.573 540.507 751.871 541.217 762.868L539.869 762.957L539.851 762.974Z" fill="currentColor" fill-opacity="0.4"/>
<path d="M557.354 763.968C556.751 752.369 555.385 740.379 554.055 728.797C551.305 704.693 548.468 679.773 552.068 655.74C553.239 647.918 554.498 640.167 555.704 632.647C558.897 612.959 561.894 594.354 563.615 574.276C566.807 537.118 576.03 500.102 584.952 464.291C586.796 456.895 588.623 449.535 590.414 442.174C592.099 435.186 594.21 427.754 596.427 419.879C603.681 394.232 611.893 365.144 608.506 341.04C604.125 309.877 580.021 297.461 554.498 284.319C533.427 273.464 511.629 262.236 502.406 239.445C490.522 210.056 509.784 185.685 528.425 162.114C541.018 146.186 554.019 129.727 557.371 111.848L558.702 112.096C555.296 130.294 542.171 146.896 529.489 162.947C510.245 187.282 492.083 210.286 503.665 238.931C512.693 261.261 534.261 272.364 555.119 283.095C579.826 295.812 605.366 308.972 609.854 340.827C613.277 365.215 605.029 394.445 597.74 420.234C595.523 428.091 593.412 435.505 591.727 442.475C589.953 449.836 588.109 457.215 586.264 464.593C577.36 500.35 568.137 537.331 564.963 574.365C563.242 594.496 560.227 613.119 557.034 632.842C555.828 640.345 554.569 648.113 553.398 655.917C549.815 679.755 552.653 704.604 555.403 728.619C556.733 740.219 558.098 752.227 558.702 763.862L557.354 763.933V763.968Z" fill="currentColor" fill-opacity="0.4"/>
<path d="M572.183 754.107C568.76 686.424 568.193 628.461 576.617 565.585C580.395 537.384 588.146 508.757 595.631 481.052C599.019 468.495 602.531 455.512 605.581 442.901C607.32 435.7 609.519 428.056 611.86 419.985C618.813 395.935 626.688 368.691 623.548 345.811C619.398 315.641 596.553 302.144 572.378 287.866C552.496 276.124 531.939 263.975 523.23 241.68C512.11 213.159 529.704 189.783 546.731 167.151C558.083 152.075 569.807 136.484 573.141 119.404L574.471 119.67C571.066 137.052 559.253 152.766 547.813 167.967C530.236 191.308 513.653 213.372 524.507 241.183C533.039 263.035 553.4 275.06 573.088 286.695C596.482 300.512 620.657 314.808 624.896 345.616C628.089 368.78 620.161 396.183 613.173 420.358C610.849 428.428 608.632 436.037 606.912 443.22C603.861 455.849 600.349 468.85 596.961 481.407C589.477 509.058 581.743 537.65 577.983 565.762C569.576 628.532 570.126 686.424 573.567 754.036L572.219 754.107H572.183Z" fill="currentColor" fill-opacity="0.4"/>
<path d="M584.545 735.607C583.96 722.5 583.109 709.18 582.293 696.285C579.49 652.21 576.599 606.627 583.446 561.753C587.525 535.024 598.309 507.142 608.738 480.183C624.559 439.247 640.93 396.91 635.964 355.3C632.505 326.442 612.197 311.011 590.682 294.676C573.354 281.516 555.422 267.894 547.423 246.645C537.206 219.562 550.935 199.182 565.479 177.615C574.719 163.887 584.279 149.697 587.277 133.504L588.607 133.752C585.574 150.229 575.925 164.525 566.614 178.36C552.283 199.626 538.732 219.721 548.7 246.167C556.575 267.043 574.329 280.54 591.516 293.594C612.303 309.38 633.8 325.715 637.329 355.14C642.349 397.087 625.925 439.566 610.033 480.662C599.639 507.568 588.873 535.379 584.829 561.948C578.001 606.662 580.892 652.174 583.694 696.179C584.51 709.073 585.361 722.393 585.947 735.518L584.599 735.572L584.545 735.607Z" fill="currentColor" fill-opacity="0.4"/>
<path d="M596.165 714.537C595.633 700.259 593.504 683.197 591.234 665.123C585.612 620.249 579.227 569.363 593.416 534.156C597.992 522.805 603.082 513.812 607.995 505.139C615.072 492.635 621.759 480.822 626.583 462.944C628.446 456.098 630.645 448.967 632.986 441.412C640.294 417.875 648.576 391.199 646.608 368.106C644.213 339.994 626.636 322.63 608.048 304.237C593.504 289.853 578.482 274.99 571.529 254.575C562.909 229.176 573.409 210.127 584.53 189.978C591.465 177.403 598.648 164.402 600.83 149.627L602.178 149.823C599.943 164.845 592.724 177.953 585.718 190.634C574.739 210.535 564.381 229.318 572.806 254.149C579.634 274.262 594.551 289.019 608.988 303.279C626.938 321.034 645.508 339.391 647.956 368C649.942 391.359 641.624 418.177 634.281 441.82C631.94 449.358 629.74 456.47 627.878 463.299C623 481.337 616.278 493.22 609.148 505.795C604.253 514.451 599.198 523.39 594.657 534.671C580.592 569.558 586.96 620.249 592.564 664.963C594.835 683.072 596.981 700.171 597.513 714.502L596.165 714.555V714.537Z" fill="currentColor" fill-opacity="0.4"/>
<path d="M608.809 696.977C607.869 662.621 606.237 621.969 601.2 580.909C600.775 577.397 600.207 573.779 599.657 570.285C597.334 555.492 594.939 540.204 601.378 526.334C604.357 516.827 610.796 509.75 620.48 505.387C633.41 491.517 640.327 474.685 641.037 455.37C642.775 448.594 644.921 441.712 647.014 435.061C652.406 417.857 657.975 400.085 657.461 382.614C656.68 356.222 641.391 335.453 626.599 315.357C615.886 300.795 604.801 285.737 599.107 268.533C590.682 243.01 597.635 223.304 604.996 202.446C609.341 190.137 613.829 177.42 615.141 163.106L616.489 163.231C615.159 177.721 610.636 190.527 606.273 202.907C598.983 223.553 592.119 243.045 600.384 268.125C605.989 285.116 617.021 300.086 627.681 314.577C642.597 334.832 658.028 355.796 658.809 382.614C659.323 400.298 653.718 418.194 648.291 435.505C646.216 442.138 644.052 449.002 642.367 455.6C641.657 475.146 634.58 492.315 621.367 506.451L621.154 506.611C611.771 510.796 605.546 517.607 602.637 526.866C596.358 540.452 598.717 555.528 601.005 570.125C601.555 573.637 602.123 577.273 602.566 580.803C607.603 621.916 609.235 662.604 610.175 696.995L608.827 697.03L608.809 696.977Z" fill="currentColor" fill-opacity="0.4"/>
<path d="M624.153 688.978C624.029 682.309 623.958 675.604 623.887 668.918C623.568 639.386 623.248 608.862 618.052 579.383C617.342 575.322 615.994 570.427 614.575 565.247C610.655 550.952 606.204 534.758 610.726 523.247C617.91 513.208 627.416 506.256 639.034 502.425L649.516 480.768C653.383 469.683 666.118 430.751 666.029 398.275C665.958 372.203 655.032 349.198 644.479 326.957C636.178 309.468 627.594 291.377 624.135 271.707C620.233 249.501 623.585 228.022 626.813 207.253C628.729 194.943 630.715 182.209 631.23 169.296L632.578 169.35C632.063 182.333 630.077 195.103 628.144 207.448C624.774 229.069 621.599 249.483 625.448 271.477C628.871 290.969 637.42 308.972 645.667 326.389C656.292 348.773 667.27 371.919 667.341 398.293C667.43 430.982 654.642 470.091 650.722 481.3L639.956 503.56L639.672 503.648C628.197 507.373 618.832 514.184 611.844 523.921C607.569 534.865 611.95 550.828 615.817 564.91C617.253 570.125 618.601 575.038 619.329 579.171C624.543 608.755 624.862 639.351 625.182 668.935C625.253 675.64 625.324 682.327 625.448 688.995H624.1L624.153 688.978Z" fill="currentColor" fill-opacity="0.4"/>
<path d="M644.744 699.265C644.691 693.838 644.655 688.411 644.637 683.019C644.495 649.621 644.354 618.085 636.638 586.071C635.609 581.814 634.155 577.415 632.63 572.751C627.663 557.692 622.52 542.137 630.572 528.462C633.339 519.665 640.008 514.592 650.313 513.51C662.924 504.075 668.44 491.02 666.684 474.667V474.561V474.455C668.316 467.289 670.426 460.248 672.448 453.454C676.616 439.478 680.572 426.264 681.05 411.507C681.937 384.637 671.349 361.029 661.115 338.202C653.364 320.909 645.347 303.048 642.154 283.662C638.022 258.512 641.87 234.514 645.595 211.297C648.185 195.157 650.863 178.484 650.881 161.422H652.229C652.211 178.591 649.515 195.334 646.925 211.51C643.218 234.603 639.387 258.494 643.484 283.432C646.642 302.64 654.623 320.43 662.338 337.635C672.643 360.604 683.303 384.353 682.398 411.543C681.902 426.495 677.751 440.4 673.743 453.845C671.721 460.585 669.646 467.573 668.014 474.65C669.788 491.517 664.041 504.997 650.952 514.717L650.81 514.823H650.615C640.647 515.834 634.492 520.481 631.778 529.012C623.974 542.279 629.011 557.55 633.889 572.325C635.432 577.007 636.886 581.441 637.933 585.751C645.702 617.926 645.843 649.532 645.985 683.001C646.003 688.411 646.039 693.82 646.092 699.248H644.744V699.265Z" fill="currentColor" fill-opacity="0.4"/>
<path d="M669.718 724.984C669.718 721.543 669.718 718.12 669.718 714.732C669.7 678.407 669.682 644.087 657.409 608.791C656.486 606.149 655.298 603.063 654.039 599.781C647.317 582.329 638.111 558.42 645.348 543.06L645.49 542.865C653.578 535.025 662.712 528.321 672.609 522.929C678.462 514.256 681.903 504.66 682.843 494.391C684.634 488.963 686.585 483.607 688.643 477.931C695.667 458.616 702.938 438.645 703.595 419.613C704.606 389.94 689.884 364.577 675.624 340.047C663.51 319.171 650.97 297.603 647.884 273.233C644.514 246.646 652.567 221.78 660.335 197.729C666.171 179.709 672.201 161.067 673.46 141.717L674.808 141.805C673.531 161.333 667.483 180.046 661.63 198.155C653.897 222.063 645.898 246.77 649.232 273.056C652.283 297.16 664.752 318.604 676.795 339.355C691.144 364.045 705.971 389.585 704.943 419.631C704.286 438.875 696.979 458.953 689.92 478.357C687.862 484.015 685.911 489.371 684.155 494.621C683.233 505.033 679.668 514.894 673.638 523.78L673.407 523.993C663.581 529.314 654.553 535.947 646.536 543.698C639.654 558.544 648.718 582.062 655.334 599.249C656.593 602.53 657.799 605.652 658.721 608.313C671.066 643.821 671.084 678.248 671.119 714.697C671.119 718.084 671.119 721.507 671.119 724.948H669.771L669.718 724.984Z" fill="currentColor" fill-opacity="0.4"/>
<path d="M696.287 751.535H694.939V745.594C695.028 709.464 695.098 678.266 682.506 644.123C680.484 638.642 677.894 632.842 675.163 626.688C664.396 602.477 652.211 575.039 667.358 552.602C673.726 543.184 678.586 539.3 682.86 535.859C688.696 531.194 693.307 527.505 698.93 511.098C701.874 502.532 705.794 493.61 709.926 484.157C718.759 464.026 727.893 443.221 728.443 423.764C729.348 392.388 709.27 365.942 689.866 340.349C676.067 322.169 661.807 303.368 655.351 283.042C644.283 248.278 659.554 215.253 674.329 183.309C683.641 163.178 693.272 142.355 696.109 121.391L697.457 121.568C694.584 142.728 684.918 163.639 675.571 183.859C660.902 215.572 645.755 248.349 656.663 282.616C663.066 302.729 677.255 321.424 690.966 339.515C710.512 365.286 730.731 391.926 729.809 423.781C729.241 443.487 720.054 464.434 711.168 484.671C707.035 494.089 703.133 502.993 700.207 511.506C694.442 528.285 689.707 532.081 683.694 536.887C679.49 540.257 674.719 544.071 668.476 553.329C653.737 575.145 665.78 602.211 676.386 626.102C679.136 632.275 681.725 638.11 683.765 643.626C696.446 677.982 696.376 709.305 696.287 745.558V751.5V751.535Z" fill="currentColor" fill-opacity="0.4"/>
<path d="M66.0708 746.32L65.5742 745.06C101.526 730.889 118.819 702.723 137.106 672.926C141.38 665.955 145.814 658.737 150.55 651.553L153.122 647.651C171.479 619.681 194.324 584.881 232.245 601.022C248.048 607.744 260.73 620.532 272.986 632.912C287.565 647.616 302.641 662.816 323.003 667.782C336.624 671.099 350.512 667.144 363.956 663.33C374.244 660.422 384.868 657.389 395.368 657.601C431.533 658.311 456.258 680.286 480.149 701.517C496.91 716.416 514.238 731.811 535.38 739.81C565.213 751.091 575.696 729.168 586.781 705.951C591.588 695.895 596.554 685.483 603.205 678.264C610.105 668.58 617.501 663.561 625.11 663.384C633.517 663.188 642.243 668.9 651.182 680.322C668.919 706.271 691.143 728.051 717.269 745.114L716.524 746.249C690.256 729.08 667.89 707.175 650.083 681.12C641.445 670.088 633.073 664.554 625.127 664.731C617.98 664.891 610.956 669.733 604.252 679.116C597.671 686.264 592.758 696.569 588.005 706.537C577.15 729.275 565.923 752.811 534.902 741.07C513.511 732.982 496.094 717.498 479.244 702.528C455.53 681.457 431.001 659.659 395.332 658.949C385.045 658.737 374.51 661.734 364.329 664.625C350.707 668.492 336.642 672.5 322.683 669.095C301.949 664.04 286.749 648.698 272.028 633.87C259.861 621.596 247.285 608.897 231.713 602.281C194.821 586.584 172.331 620.869 154.239 648.414L151.668 652.316C146.932 659.481 142.515 666.683 138.241 673.635C119.813 703.646 102.431 731.989 66.0531 746.337L66.0708 746.32Z" fill="currentColor" fill-opacity="0.4"/>
<path d="M70.0794 727.626L69.4941 726.403C105.18 709.234 120.487 678.266 136.68 645.488C140.6 637.542 144.662 629.313 149.078 621.189C150.178 619.167 151.295 617.057 152.448 614.875C163.64 593.857 177.545 567.696 198.439 561.364C207.627 558.579 217.506 559.98 227.811 565.532C243.49 573.975 255.852 590.203 267.789 605.883C282.776 625.552 298.26 645.896 320.52 651.412C334.762 654.942 349.359 646.854 363.46 639.05C372.506 634.048 381.037 629.313 389.48 627.45C402.711 624.506 427.72 620.586 446.432 627.362C469.117 635.556 482.703 654.853 495.846 673.512C506.363 688.446 517.218 703.877 532.631 713.278C542.12 719.06 550.173 720.78 557.267 718.528C570.676 714.289 578.498 696.321 586.072 678.94C591.038 667.517 595.738 656.733 601.91 649.639C609.023 638.926 616.561 633.445 624.276 633.392H624.383C632.914 633.392 641.782 640.043 650.757 653.186C668.334 681.76 690.717 706.396 717.322 726.474L716.506 727.555C689.76 707.389 667.252 682.611 649.622 653.931C640.931 641.214 632.435 634.758 624.383 634.758H624.276C617.04 634.811 609.874 640.096 602.975 650.472C596.873 657.478 592.226 668.173 587.295 679.489C579.616 697.137 571.67 715.388 557.658 719.822C550.173 722.181 541.748 720.425 531.904 714.43C516.26 704.888 505.317 689.333 494.711 674.293C481.692 655.811 468.23 636.691 445.953 628.639C427.56 621.987 402.835 625.872 389.746 628.781C381.498 630.607 373.038 635.29 364.099 640.256C349.767 648.202 334.94 656.396 320.165 652.76C297.444 647.138 281.801 626.599 266.689 606.734C254.824 591.161 242.568 575.056 227.154 566.756C217.187 561.382 207.662 560.016 198.829 562.694C178.485 568.849 164.704 594.744 153.654 615.549C152.501 617.731 151.366 619.841 150.266 621.863C145.868 629.969 141.824 638.181 137.886 646.127C121.586 679.117 106.191 710.298 70.0794 727.662V727.626Z" fill="currentColor" fill-opacity="0.4"/>
<path d="M75.7555 708.985L75.1348 707.779C110.164 689.545 123.236 656.963 137.053 622.466C140.529 613.793 144.13 604.818 148.103 596.056C149.114 593.839 150.143 591.498 151.207 589.068C160.519 567.997 173.271 539.122 193.668 532.612C202.643 529.757 212.451 531.442 222.845 537.614C238.808 547.103 251.046 565.797 262.876 583.889C277.935 606.893 293.507 630.66 316.991 636.602C331.836 640.344 348.331 628.656 362.875 618.333C370.502 612.923 377.703 607.815 384.265 605.084C387.476 603.736 391.395 601.909 395.528 599.958C410.87 592.739 429.937 583.765 442.636 585.396C470.625 589.015 484.92 616.347 498.737 642.792C508.191 660.865 517.112 677.946 530.007 687.594C539.265 694.529 547.211 696.977 554.306 695.061C567.928 691.408 576.122 672.199 584.032 653.611C589.14 641.639 593.965 630.323 600.084 623.37C607.48 612.569 615.178 607.053 622.929 607.053C623.035 607.053 623.141 607.053 623.23 607.053C632.045 607.212 641.055 614.52 650.012 628.744C667.465 659.287 690.097 685.874 717.287 707.832L716.436 708.878C689.104 686.832 666.365 660.103 648.842 629.436C640.151 615.655 631.513 608.56 623.195 608.401C615.834 608.259 608.402 613.58 601.13 624.204C595.1 631.05 590.311 642.277 585.256 654.143C577.204 673.015 568.885 692.525 554.625 696.356C547.105 698.378 538.769 695.86 529.155 688.676C516.013 678.85 507.02 661.628 497.496 643.413C483.838 617.287 469.72 590.274 442.424 586.727C430.15 585.148 410.445 594.406 396.078 601.164C391.928 603.115 387.99 604.96 384.762 606.325C378.341 609.004 371.194 614.076 363.638 619.433C348.845 629.915 332.084 641.816 316.636 637.914C292.621 631.848 276.906 607.851 261.706 584.634C249.946 566.684 237.797 548.114 222.118 538.785C212.079 532.807 202.625 531.158 194.041 533.907C174.229 540.239 161.618 568.777 152.413 589.618C151.331 592.048 150.302 594.389 149.291 596.606C145.336 605.35 141.736 614.307 138.277 622.962C124.354 657.691 111.193 690.503 75.7201 708.967L75.7555 708.985Z" fill="currentColor" fill-opacity="0.4"/>
<path d="M78.8223 689.386L78.166 688.197C111.475 669.982 123.678 638.375 136.573 604.924C139.818 596.499 143.171 587.808 146.895 579.295C147.888 577.025 148.899 574.63 149.964 572.165C159.116 550.65 170.503 523.868 189.871 517.607C198.615 514.769 208.317 516.508 218.711 522.769C234.425 532.24 246.717 550.03 258.618 567.216C273.658 588.961 289.213 611.451 311.934 617.943C327.489 622.395 346.751 610.972 363.742 600.898C369.773 597.333 375.466 593.945 380.397 591.693C385.878 589.192 392.582 585.024 399.712 580.607C414.912 571.189 432.117 560.476 445.189 560.796C474.844 561.452 488.608 591.32 501.928 620.178C510.264 638.251 518.139 655.314 529.473 664.696C538.448 672.11 546.181 674.913 553.151 673.263C566.294 670.159 574.506 651.589 582.434 633.64C587.525 622.111 592.331 611.238 598.291 604.658C605.9 594.105 613.739 588.89 621.579 589.103C630.394 589.387 639.333 596.677 648.148 610.76C665.406 640.397 687.665 666.186 714.341 687.417L713.49 688.481C686.69 667.144 664.306 641.231 646.978 611.469C638.429 597.812 629.862 590.735 621.526 590.469C614.094 590.221 606.698 595.293 599.337 605.527C593.484 612.001 588.713 622.785 583.676 634.207C575.606 652.458 567.27 671.348 553.471 674.611C546.057 676.367 537.933 673.476 528.622 665.761C517.04 656.183 509.111 638.978 500.704 620.763C487.561 592.26 473.975 562.8 445.171 562.161C445.011 562.161 444.834 562.161 444.674 562.161C432.064 562.161 415.267 572.573 400.439 581.778C393.292 586.212 386.534 590.398 380.982 592.952C376.123 595.187 370.447 598.539 364.452 602.086C347.23 612.303 327.702 623.885 311.579 619.273C288.398 612.657 272.701 589.955 257.536 568.014C245.723 550.934 233.503 533.269 218.037 523.957C207.998 517.909 198.686 516.224 190.314 518.92C171.531 525.003 160.269 551.466 151.241 572.732C150.194 575.216 149.165 577.61 148.172 579.88C144.465 588.358 141.113 597.049 137.867 605.456C124.866 639.156 112.593 670.993 78.84 689.439L78.8223 689.386Z" fill="currentColor" fill-opacity="0.4"/>
<path d="M76.3377 668.315L75.6992 667.126C108.601 649.549 120.927 619.184 133.982 587.028C137.635 578.035 141.395 568.759 145.67 559.643L146.202 558.49C156.684 536.159 168.55 510.832 187.723 505.635C197.674 502.939 208.511 505.759 220.82 514.255C234.335 523.567 245.172 536.514 255.654 549.036C266.527 562.037 277.79 575.481 291.997 584.775C315.161 599.905 338.165 591.657 362.517 582.895C366.934 581.317 371.51 579.667 376.015 578.195C385.202 575.215 395.223 568.316 405.848 561.008C424.914 547.901 444.62 534.35 463.438 540.186C484.74 546.801 497.191 576.014 508.152 601.767C514.236 616.027 519.965 629.507 526.509 637.542C536.673 650.046 545.292 655.668 552.813 654.746C564.217 653.345 572.057 636.584 579.63 620.39C584.224 610.564 588.978 600.419 594.6 593.36C600.968 582.328 608.08 576.421 615.671 575.872C623.883 575.269 632.787 580.944 642.134 592.739C659.055 620.603 680.676 644.636 706.447 664.2L705.631 665.282C679.718 645.612 657.991 621.455 641.034 593.502C632.024 582.15 623.511 576.652 615.778 577.22C608.665 577.734 601.908 583.427 595.718 594.123C590.148 601.146 585.43 611.221 580.854 620.976C572.766 638.269 565.122 654.604 552.972 656.094C544.938 657.087 535.945 651.305 525.445 638.411C518.776 630.216 512.994 616.666 506.893 602.299C496.038 576.812 483.729 547.919 463.013 541.48C444.833 535.822 425.393 549.196 406.593 562.126C395.897 569.486 385.788 576.439 376.423 579.49C371.918 580.962 367.359 582.594 362.961 584.172C339.371 592.65 314.965 601.412 291.234 585.911C276.85 576.51 265.534 562.995 254.59 549.905C244.179 537.454 233.395 524.577 220.022 515.354C208.049 507.107 197.585 504.358 188.043 506.93C169.472 511.967 157.749 536.975 147.39 559.057L146.841 560.21C142.584 569.291 138.824 578.55 135.17 587.525C122.027 619.912 109.612 650.489 76.2668 668.297L76.3377 668.315Z" fill="currentColor" fill-opacity="0.4"/>
<path d="M70.6478 646.535L70.0625 645.311C102.999 629.65 115.894 601.094 129.533 570.853C133.311 562.464 137.231 553.79 141.647 545.206C152.342 524.436 164.474 500.882 183.914 495.047C193.899 492.032 204.754 493.947 217.063 500.847C230.277 508.261 241.22 519.151 251.809 529.704C262.043 539.885 272.632 550.42 285.189 557.728C296.966 564.574 323.855 574.471 371.673 563.971C383.769 561.311 396.185 552.496 409.328 543.166C428.909 529.261 449.146 514.876 469.508 520.978C491.466 527.558 503.296 557.746 513.743 584.386C519.294 598.54 524.527 611.913 530.646 619.93C540.631 633.037 548.932 638.979 556.044 638.199C566.19 637.028 572.805 622.307 579.829 606.716C584.033 597.369 588.378 587.72 593.664 580.874C599.375 570.835 605.866 565.355 612.926 564.645C620.517 563.882 628.818 568.654 637.668 578.781C652.904 603.293 672.645 623.761 696.394 639.706L695.631 640.824C671.722 624.772 651.857 604.162 636.586 579.579C628.108 569.877 620.18 565.266 613.068 565.975C606.487 566.632 600.333 571.882 594.799 581.601C589.567 588.394 585.257 597.99 581.088 607.248C573.905 623.211 567.13 638.27 556.222 639.529C548.613 640.38 539.904 634.261 529.599 620.728C523.374 612.552 518.106 599.09 512.519 584.847C502.196 558.508 490.49 528.64 469.153 522.255C449.412 516.348 429.441 530.52 410.143 544.248C396.876 553.666 384.354 562.57 371.992 565.284C351.276 569.842 312.362 575.057 284.533 558.881C271.816 551.485 261.174 540.896 250.869 530.644C240.334 520.162 229.461 509.325 216.407 502.017C204.417 495.295 193.917 493.433 184.304 496.324C165.414 502 153.424 525.27 142.853 545.809C138.455 554.358 134.553 563.013 130.775 571.385C117.029 601.857 104.046 630.643 70.6478 646.517V646.535Z" fill="currentColor" fill-opacity="0.4"/>
<path d="M64.0983 624.861L63.584 623.619C96.8223 609.749 109.912 584.12 125.059 554.464C129.032 546.66 133.165 538.608 137.776 530.556C156.932 497.211 175.892 470.908 214.096 487.03C231.532 494.373 247.175 504.447 262.322 514.185C294.088 534.6 324.081 553.879 368.068 548.682C382.824 546.926 397.883 536.249 412.445 525.926C432.576 511.666 453.381 496.909 475.143 503.454C497.882 510.283 509.056 540.772 518.917 567.678C524.096 581.814 528.992 595.152 534.969 603.364C544.866 616.968 552.918 623.194 559.605 622.449C568.615 621.42 574.379 607.816 580.481 593.432C584.241 584.546 588.143 575.376 593.038 568.725C598.058 559.608 603.911 554.5 610.42 553.595C617.337 552.638 625.088 556.469 633.46 564.982C647.117 586.16 664.96 603.08 686.599 615.39L685.925 616.56C664.091 604.127 646.088 587.064 632.413 565.816C624.45 557.728 617.107 554.039 610.615 554.926C604.567 555.759 599.033 560.637 594.191 569.434C589.349 576.032 585.482 585.131 581.74 593.946C575.479 608.721 569.555 622.662 559.764 623.779C552.546 624.595 544.085 618.174 533.869 604.145C527.768 595.773 522.855 582.346 517.64 568.122C507.885 541.517 496.835 511.382 474.753 504.731C453.629 498.381 433.09 512.943 413.225 527.008C398.521 537.437 383.321 548.221 368.21 550.013C323.726 555.298 293.539 535.877 261.577 515.302C246.483 505.6 230.893 495.561 213.564 488.272C176.371 472.592 157.765 498.452 138.947 531.23C134.335 539.247 130.238 547.299 126.265 555.068C111.632 583.73 97.7978 610.796 64.1161 624.861H64.0983Z" fill="currentColor" fill-opacity="0.4"/>
<path d="M561.222 607.834C554.589 607.834 546.838 601.271 536.976 587.33C530.875 578.71 526.21 565.284 521.262 551.077C512.003 524.472 501.503 494.32 478.623 487.491C456.594 480.893 435.523 495.561 415.162 509.751C399.163 520.889 382.615 532.418 365.783 533.376C330.381 535.451 298.42 517.395 267.523 499.96C248.562 489.265 230.648 479.155 211.918 473.266C173.944 461.33 155.179 485.345 136.219 515.533C131.465 523.089 127.209 530.609 123.076 537.881C106.918 566.366 92.9592 590.984 59.1001 604.056L58.6035 602.797C92.0192 589.902 105.854 565.479 121.888 537.207C126.02 529.917 130.295 522.397 135.048 514.806C153.601 485.274 173.466 459.769 212.309 471.972C231.163 477.896 249.981 488.52 268.179 498.772C298.916 516.1 330.682 534.014 365.694 532.01C382.154 531.052 398.543 519.648 414.381 508.615C435.009 494.249 456.346 479.403 478.996 486.179C502.55 493.22 513.156 523.727 522.539 550.633C527.452 564.752 532.099 578.09 538.076 586.55C548.062 600.668 555.955 607.16 562.233 606.433C570.091 605.493 574.95 593.201 580.094 580.183C583.73 570.977 587.508 561.453 592.687 554.908C598.345 547.76 604.446 544.089 611.381 543.663C626.865 542.723 642.491 558.26 657.674 573.283C665.513 581.034 672.909 588.359 679.667 592.687L678.94 593.822C672.058 589.406 664.609 582.045 656.734 574.241C642.456 560.122 626.209 544.089 611.47 544.993C604.961 545.383 599.161 548.895 593.751 555.724C588.696 562.109 584.972 571.527 581.353 580.644C576.05 594.035 571.031 606.699 562.393 607.727C562.003 607.781 561.613 607.798 561.222 607.798V607.834Z" fill="currentColor" fill-opacity="0.4"/>
<path d="M561.861 589.493C555.227 589.493 547.548 582.878 537.792 568.83C531.797 560.193 527.328 546.943 522.592 532.896C513.635 506.344 503.472 476.263 480.042 469.541C457.765 463.156 436.304 477.735 415.534 491.853C399.11 503.01 382.119 514.539 364.896 515.514C332.19 517.376 300.867 499.729 270.591 482.701C250.478 471.385 231.464 460.708 212.06 455.227C173.909 444.461 154.949 467.927 135.775 497.316C130.969 504.677 126.641 511.984 122.438 519.061C105.765 547.156 91.3631 571.42 57.7701 584.598L57.2734 583.339C90.4408 570.338 104.719 546.252 121.267 518.37C125.471 511.275 129.816 503.95 134.623 496.571C154.08 466.721 173.359 442.901 212.415 453.915C231.979 459.431 251.932 470.658 271.247 481.513C301.364 498.451 332.527 515.957 364.825 514.148C381.675 513.208 398.507 501.768 414.772 490.718C435.807 476.44 457.534 461.666 480.415 468.228C504.519 475.146 514.806 505.582 523.869 532.435C528.569 546.376 533.021 559.554 538.91 568.032C548.736 582.204 556.522 588.748 562.783 588.074C570.57 587.223 575.518 575.162 580.75 562.41C584.369 553.595 588.111 544.496 593.113 538.093C598.381 531.371 604.393 527.699 610.991 527.202C626.067 526.032 642.332 541.463 656.716 555.031C664.414 562.303 671.704 569.167 678.302 573.229L677.592 574.382C670.87 570.249 663.545 563.332 655.794 556.007C641.622 542.633 625.553 527.522 611.098 528.55C604.819 529.029 599.285 532.417 594.195 538.926C589.299 545.17 585.592 554.198 582.01 562.924C576.618 576.067 571.51 588.5 562.925 589.422C562.57 589.458 562.216 589.476 561.861 589.476V589.493Z" fill="currentColor" fill-opacity="0.4"/>
<path d="M563.83 566.666C556.966 566.666 549.552 560.494 540.542 547.263C534.813 538.855 530.805 526.564 526.548 513.563C518.62 489.3 509.645 461.808 486.889 455.228C463.37 448.417 439.71 463.457 416.83 478.001C398.295 489.778 379.122 501.946 360.214 502.3C326.887 502.903 298.722 481.868 271.549 461.524C253.671 448.133 235.172 434.281 215.786 427.363C177.102 413.564 156.9 443.965 139.093 470.8C134.038 478.427 129.408 486.071 124.939 493.485C108.036 521.491 92.0553 547.937 58.1784 561.878L57.6641 560.618C91.133 546.837 106.989 520.569 123.768 492.776C128.256 485.362 132.885 477.682 137.957 470.038C155.144 444.142 176.535 411.915 216.229 426.069C235.81 433.057 254.38 446.962 272.347 460.407C299.343 480.626 327.224 501.52 360.179 500.917C378.714 500.58 397.727 488.501 416.102 476.831C439.231 462.127 463.157 446.945 487.261 453.897C510.709 460.673 519.79 488.537 527.825 513.12C532.046 526.032 536.019 538.217 541.642 546.482C550.368 559.288 557.676 565.425 564.043 565.283C571.936 565.106 578.073 555.12 584.564 544.567C589.052 537.277 593.681 529.757 599.445 524.134C619.133 504.996 642.634 524.737 663.386 542.172C671.544 549.019 679.26 555.492 686.159 559.164L685.521 560.352C678.497 556.628 670.728 550.1 662.516 543.201C642.208 526.156 619.204 506.823 600.403 525.11C594.763 530.608 590.169 538.057 585.717 545.276C579.03 556.149 572.698 566.436 564.078 566.631C563.99 566.631 563.901 566.631 563.812 566.631L563.83 566.666Z" fill="currentColor" fill-opacity="0.4"/>
<path d="M698.771 549.462C689.247 545.524 679.669 538.767 670.41 532.24C652.071 519.292 633.11 505.919 612.412 512.215C604.377 514.663 597.992 520.835 591.837 526.812C580.202 538.075 569.223 548.717 550.068 529.597C538.681 518.228 534.371 502.584 530.185 487.455C523.144 461.968 517.06 439.939 479.849 444.054C460.161 446.235 441.147 456.647 422.755 466.739C400.761 478.799 378.005 491.268 353.901 489.707C324.884 487.827 297.393 464.415 277.315 447.335C270.876 441.854 264.598 434.405 257.946 426.53C245.673 411.986 232.973 396.945 217.649 392.21C182.885 381.497 163.056 411.472 145.55 437.899C144.326 439.744 143.12 441.57 141.914 443.362C137.231 450.35 132.815 457.409 128.558 464.238C110.165 493.68 92.7836 521.474 58.0731 536.443L57.541 535.202C91.8613 520.409 109.137 492.776 127.423 463.528C131.698 456.7 136.114 449.623 140.796 442.617C141.985 440.826 143.209 438.999 144.415 437.154C162.169 410.319 182.3 379.9 218.039 390.915C233.754 395.757 246.577 410.957 258.975 425.661C265.591 433.5 271.834 440.896 278.184 446.306C298.102 463.262 325.399 486.497 353.972 488.36C377.668 489.903 400.247 477.522 422.081 465.55C440.58 455.405 459.718 444.905 479.671 442.706C518.036 438.484 524.545 462.092 531.462 487.082C535.595 502.034 539.869 517.501 550.99 528.622C569.188 546.801 579.227 537.082 590.862 525.819C597.141 519.735 603.632 513.457 611.986 510.903C633.305 504.393 652.55 517.98 671.155 531.105C680.361 537.596 689.867 544.318 699.25 548.185L698.736 549.444L698.771 549.462Z" fill="currentColor" fill-opacity="0.4"/>
<path d="M711.186 538.04C699.444 534.103 688.075 526.76 677.078 519.683C660.814 509.201 643.982 498.346 625.589 498.151C618.477 498.062 610.602 500.935 602.283 503.968C587.864 509.236 572.947 514.681 560.478 504.802C548.346 495.189 544.977 480.698 541.713 466.686C537.137 447.034 532.809 428.464 504.59 425.998C478.039 423.675 451.966 438.272 426.727 452.373C401.151 466.686 374.688 481.461 347.888 478.41C317.966 474.987 285.473 438.999 268.747 417.857C264.42 412.377 260.411 405.122 256.154 397.425C247.321 381.426 237.318 363.3 222.011 358.227C190.901 347.94 166.407 384.637 150.178 408.936C148.121 412.022 146.188 414.913 144.396 417.467C139.944 423.834 135.67 430.291 131.537 436.516C111.3 467.058 92.1797 495.916 56.1923 511.435L55.6602 510.194C91.2752 494.834 110.289 466.136 130.42 435.771C134.552 429.528 138.827 423.072 143.297 416.687C145.088 414.133 147.003 411.242 149.061 408.173C165.503 383.537 190.352 346.326 222.437 356.932C238.24 362.164 248.386 380.54 257.343 396.751C261.564 404.395 265.555 411.614 269.811 417.006C286.395 437.988 318.605 473.674 348.03 477.044C374.404 480.059 400.654 465.374 426.053 451.167C451.452 436.96 477.719 422.256 504.697 424.615C533.891 427.169 538.325 446.2 543.025 466.349C546.236 480.13 549.57 494.391 561.312 503.72C573.178 513.138 587.739 507.817 601.804 502.674C610.123 499.641 617.98 496.767 625.288 496.767C625.394 496.767 625.501 496.767 625.589 496.767C644.39 496.98 661.364 507.924 677.806 518.512C688.731 525.554 700.03 532.843 711.612 536.728L711.186 538.005V538.04Z" fill="currentColor" fill-opacity="0.4"/>
<path d="M716.687 522.539C702.444 517.395 689.976 508.722 677.897 500.333C664.293 490.879 650.246 481.106 633.964 476.796C626.869 474.916 617.451 475.59 607.465 476.299C592.62 477.364 577.242 478.463 568.285 470.961C557.129 461.614 553.989 448.843 550.974 436.499C546.54 418.372 542.691 402.71 514.933 401.203C487.211 399.695 459.773 414.754 433.257 429.315C405.907 444.32 377.617 459.858 349.114 457.02C335.528 455.672 320.594 447.655 304.702 433.182C289.413 419.241 277.175 402.799 271.233 394.25C267.225 388.468 263.89 381.143 260.361 373.374C252.964 357.074 245.302 340.225 230.279 334.584C199.613 323.056 170.649 362.963 153.32 386.801C151.121 389.834 149.046 392.689 147.201 395.101C142.271 401.575 137.499 408.156 132.906 414.523C110.398 445.597 89.1495 474.951 51.2642 490.045L50.7676 488.786C88.2981 473.834 109.44 444.64 131.824 413.725C136.435 407.357 141.206 400.777 146.137 394.268C147.964 391.873 150.039 389.018 152.238 385.985C169.78 361.828 199.152 321.406 230.758 333.29C246.313 339.125 254.082 356.241 261.602 372.789C265.114 380.504 268.413 387.776 272.35 393.452C310.041 447.832 340.743 454.82 349.256 455.654C377.351 458.456 405.446 443.026 432.6 428.109C459.294 413.459 486.892 398.312 515.004 399.837C543.773 401.398 547.923 418.283 552.287 436.162C555.266 448.293 558.335 460.833 569.154 469.914C577.703 477.062 592.779 475.998 607.359 474.934C617.451 474.207 626.975 473.533 634.301 475.466C650.796 479.829 664.967 489.673 678.66 499.197C690.65 507.534 703.065 516.154 717.13 521.244L716.669 522.521L716.687 522.539Z" fill="currentColor" fill-opacity="0.4"/>
<path d="M720.972 502.212C702.721 495.472 688.106 484.458 673.97 473.816C661.874 464.699 649.387 455.281 634.755 448.701C626.684 445.065 617.373 443.894 608.38 442.741C595.486 441.109 583.319 439.566 574.379 431.425C564.695 422.593 559.569 412.908 555.064 404.359C546.941 388.999 540.52 376.85 511.84 379.368C487.648 381.479 464.59 394.09 442.295 406.293C417.517 419.843 391.941 433.837 364.733 433.376C339.92 432.933 311.577 411.436 278.09 367.662C275.217 363.902 272.414 359.716 269.452 355.282C259.307 340.1 247.796 322.878 229.634 319.596C198.648 314.009 169.595 350.476 150.369 374.597C147.779 377.843 145.367 380.876 143.15 383.554C139 388.556 134.885 393.664 130.912 398.595C106.081 429.439 82.633 458.562 43.9319 472.432L43.4707 471.155C81.7994 457.409 105.141 428.428 129.848 397.744C133.821 392.813 137.936 387.705 142.086 382.685C144.303 380.007 146.715 376.992 149.287 373.746C168.709 349.358 198.08 312.537 229.847 318.248C248.576 321.618 260.247 339.089 270.552 354.502C273.496 358.9 276.281 363.069 279.136 366.811C312.357 410.23 340.345 431.549 364.733 431.993C391.551 432.454 417.003 418.549 441.621 405.069C464.04 392.813 487.222 380.131 511.698 377.985C541.283 375.395 547.881 387.882 556.235 403.685C560.704 412.146 565.759 421.723 575.266 430.379C583.886 438.236 595.858 439.744 608.522 441.358C617.621 442.511 627.022 443.699 635.287 447.424C650.044 454.057 662.619 463.528 674.768 472.681C688.816 483.269 703.36 494.23 721.416 500.899L720.954 502.176L720.972 502.212Z" fill="currentColor" fill-opacity="0.4"/>
<path d="M730.852 479.811C698.411 470.748 679.469 455.37 657.529 437.563C652.349 433.359 646.975 428.996 641.175 424.491C630.551 416.261 618.898 413.175 607.636 410.177C598.732 407.818 589.509 405.371 580.871 400.405C570.779 394.605 563.809 387.546 557.654 381.338C545.682 369.241 536.228 359.681 510.847 364.027C490.752 367.468 472.235 379.564 454.321 391.252C433.587 404.785 412.143 418.78 388.27 419.223C387.915 419.223 387.56 419.223 387.188 419.223C353.914 419.223 329.792 391.057 306.469 363.814C283.943 337.511 260.655 310.32 228.995 307.589C195.633 304.698 167.396 337.404 146.769 361.278C144.179 364.275 141.678 367.166 139.284 369.862C135.027 374.651 130.823 379.511 126.762 384.211C100.618 414.416 75.9465 442.937 36.6601 456.204L36.2344 454.927C75.1661 441.766 99.7313 413.388 125.751 383.324C129.83 378.624 134.034 373.746 138.291 368.958C140.685 366.262 143.168 363.388 145.758 360.391C166.58 336.305 195.101 303.315 229.137 306.241C261.347 309.026 284.812 336.429 307.515 362.927C331.708 391.164 354.57 417.857 387.17 417.857C387.543 417.857 387.897 417.857 388.252 417.857C411.735 417.432 433.001 403.544 453.594 390.117C471.614 378.358 490.255 366.191 510.617 362.697C536.689 358.227 546.852 368.496 558.629 380.398C564.731 386.552 571.63 393.54 581.563 399.252C590.041 404.129 599.175 406.541 607.99 408.883C619.377 411.898 631.172 415.019 642.009 423.427C647.827 427.932 653.201 432.295 658.398 436.516C681.118 454.962 699.068 469.524 731.224 478.516L730.869 479.829L730.852 479.811Z" fill="currentColor" fill-opacity="0.4"/>
<path d="M741.852 457.001C699.071 449.96 678.089 438.201 648.327 404.554C633.251 387.509 618.689 383.324 601.822 378.499C595.312 376.637 588.572 374.704 581.159 371.919C573.514 369.046 566.597 365.357 559.892 361.774C543.238 352.888 527.523 344.481 505.122 351.983C492.086 356.346 479.12 368.106 466.563 379.493C449.677 394.799 432.171 410.567 413.247 410.478C388.327 410.283 361.722 384.157 338.239 361.1C328.501 351.54 319.314 342.512 311.385 336.588C288.044 319.135 260.712 300.21 231.606 296.734C192.781 292.105 164.846 322.948 140.21 350.156C137.354 353.313 134.534 356.435 131.732 359.433C128.114 363.335 124.566 367.237 121.037 371.121C94.485 400.298 69.3877 427.842 30.5447 440.258L30.1367 438.963C68.6428 426.672 93.6159 399.251 120.043 370.199C123.573 366.314 127.138 362.412 130.756 358.51C133.541 355.495 136.361 352.391 139.217 349.234C164.066 321.778 192.249 290.668 231.784 295.368C261.226 298.88 288.736 317.911 312.219 335.47C320.218 341.465 329.441 350.511 339.214 360.107C362.502 382.969 388.894 408.9 413.282 409.095C413.371 409.095 413.459 409.095 413.53 409.095C431.888 409.095 449.057 393.522 465.676 378.464C478.322 366.988 491.412 355.123 504.714 350.688C527.665 343.008 543.646 351.54 560.549 360.568C567.2 364.115 574.082 367.786 581.655 370.642C589.016 373.409 595.738 375.342 602.212 377.187C619.274 382.082 634.014 386.303 649.356 403.65C678.869 437.012 699.674 448.683 742.082 455.653L741.87 456.984L741.852 457.001Z" fill="currentColor" fill-opacity="0.4"/>
<path d="M749.497 435.452L744.939 435.08C722.946 433.271 700.208 431.408 681.46 419.259C670.215 411.969 664.699 403.349 658.881 394.215C655.689 389.213 652.407 384.052 647.938 378.624C630.999 357.943 618.531 355.496 595.899 351.044C593.469 350.565 590.933 350.068 588.254 349.519C580.894 348.011 573.515 345.918 566.385 343.896C543.558 337.44 521.991 331.339 499.572 342.14C488.575 347.443 479.582 357.553 470.874 367.326C458.99 380.682 446.717 394.481 429.352 395.722C406.242 397.372 379.708 371.725 356.296 349.075C344.909 338.061 334.16 327.667 325.044 321.637C297.924 303.723 258.461 282.244 224.406 281.729C179.497 281.038 146.277 317.912 114.138 353.58C87.8526 382.739 60.6979 412.874 26.9275 423.462L26.5195 422.168C59.9352 411.685 86.9835 381.693 113.109 352.693C145.461 316.795 178.948 279.672 224.406 280.399C258.78 280.931 298.51 302.517 325.771 320.537C334.994 326.638 345.795 337.068 357.218 348.117C380.435 370.554 406.721 396.006 429.246 394.374C446.06 393.168 457.625 380.167 469.863 366.422C478.66 356.542 487.741 346.326 498.986 340.916C521.884 329.884 543.682 336.057 566.758 342.584C573.87 344.588 581.213 346.681 588.538 348.171C591.199 348.72 593.753 349.217 596.165 349.696C619.098 354.219 631.727 356.702 648.984 377.755C653.489 383.254 656.806 388.45 660.017 393.488C666.011 402.888 671.191 410.994 682.187 418.124C700.651 430.078 723.212 431.94 745.046 433.732L749.604 434.104L749.497 435.452Z" fill="currentColor" fill-opacity="0.4"/>
<path d="M749.813 416.314C747.808 416.172 745.769 416.012 743.729 415.87C722.285 414.363 700.097 412.802 681.775 401.255C669.75 393.682 664.021 384.76 657.387 374.42C654.408 369.773 651.339 364.984 647.437 359.947C630.233 337.67 616.132 335.08 590.538 330.38L587.594 329.83C581.333 328.677 574.859 327.152 568.598 325.662C544.884 320.075 520.372 314.275 498.237 325.662C487.702 331.09 479.49 340.916 471.544 350.44C460.565 363.601 449.213 377.187 431.778 378.464C431.051 378.517 430.306 378.553 429.561 378.553C406.841 378.553 381.282 353.846 358.65 331.959C347.104 320.802 336.196 310.249 326.884 304.148C308.899 292.388 262.891 265.003 224.101 264.506C179.582 263.903 145.847 300.707 113.212 336.251C86.9262 364.895 59.736 394.515 26.746 405.299L26.3203 404.005C58.9911 393.327 86.0393 363.849 112.219 335.329C145.049 299.554 178.961 262.573 224.118 263.141C263.263 263.637 309.538 291.182 327.629 302.995C337.065 309.167 348.008 319.756 359.608 330.965C382.772 353.367 409.022 378.801 431.707 377.116C448.557 375.892 459.234 363.104 470.515 349.571C478.55 339.958 486.85 330.008 497.616 324.456C520.195 312.839 544.955 318.692 568.917 324.332C575.161 325.804 581.617 327.329 587.842 328.482L590.787 329.032C616.717 333.803 630.995 336.428 648.519 359.113C652.439 364.204 655.543 369.028 658.522 373.693C665.067 383.891 670.708 392.706 682.485 400.12C700.523 411.472 722.516 413.032 743.8 414.522C745.84 414.664 747.862 414.806 749.884 414.966L749.777 416.314H749.813Z" fill="currentColor" fill-opacity="0.4"/>
<path d="M743.748 397.442C695.274 393.664 674.327 383.43 646.321 349.854C624.913 324.207 607.354 318.886 575.074 313.53C570.214 312.732 565.23 311.703 559.944 310.603C538.997 306.293 515.266 301.416 496.022 310.763C486.408 315.428 478.445 325.325 470.02 335.789C458.473 350.138 446.519 364.966 429.793 365.48C406.15 366.19 379.191 340.277 355.388 317.414C343.753 306.24 332.774 295.687 323.551 289.639C289 266.971 258.05 254.166 231.516 251.541C185.88 247.035 149.839 284.797 114.969 321.298C88.4886 349.038 61.0856 377.719 29.4081 388.29L28.9824 387.012C60.3407 376.548 87.6195 347.992 113.994 320.376C149.094 283.626 185.383 245.634 231.658 250.193C258.405 252.835 289.568 265.712 324.296 288.504C333.626 294.623 344.658 305.229 356.328 316.439C379.936 339.124 406.7 364.842 429.758 364.132C445.863 363.636 457.622 349.056 468.973 334.956C477.132 324.828 485.557 314.364 495.436 309.557C515.088 300.015 539.068 304.945 560.21 309.291C565.478 310.373 570.462 311.401 575.286 312.2C607.922 317.609 625.658 322.983 647.368 348.985C675.09 382.206 695.842 392.333 743.872 396.076L743.766 397.424L743.748 397.442Z" fill="currentColor" fill-opacity="0.4"/>
<path d="M733.14 378.446C690.786 375.591 670.3 366.226 637.824 334.85C613.348 311.207 593.146 304.946 562.16 301.133C558.382 300.671 554.569 300.104 550.507 299.519C530.092 296.539 506.946 293.151 488.429 302.552C479.579 307.039 472.147 315.818 464.272 325.112C452.92 338.504 441.197 352.338 424.666 352.728C401.13 353.278 374.862 328.234 351.751 306.152C341.34 296.202 331.514 286.801 323.177 281.055C301.344 266.014 268.442 245.564 235.045 241.822C190.331 236.82 154.042 273.251 118.959 308.476C92.4425 335.098 65.0218 362.625 33.9118 372.575L33.5039 371.281C64.2946 361.437 91.6089 334.016 118.001 307.518C153.314 272.062 189.834 235.383 235.204 240.474C268.904 244.251 302 264.79 323.958 279.937C332.383 285.755 342.262 295.173 352.709 305.159C375.394 326.833 401.059 351.38 423.921 351.38C424.17 351.38 424.4 351.38 424.648 351.38C440.576 351.026 452.105 337.404 463.243 324.243C471.207 314.843 478.727 305.957 487.826 301.345C506.715 291.768 530.092 295.173 550.702 298.188C554.746 298.774 558.559 299.341 562.32 299.802C593.589 303.651 614.004 309.983 638.746 333.892C670.938 364.984 691.247 374.278 733.211 377.098L733.123 378.446H733.14Z" fill="currentColor" fill-opacity="0.4"/>
<path d="M719.588 359.326C684.807 357.677 658.646 341.004 633.335 324.864C608.788 309.221 583.407 293.045 550.293 290.845C548.324 290.721 546.338 290.579 544.333 290.437C522.695 288.912 500.311 287.334 480.943 296.858C471.578 301.47 463.987 309.132 456.644 316.563C445.736 327.596 434.438 339 417.464 339.621C417.038 339.621 416.595 339.639 416.169 339.639C392.597 339.639 368.014 316.404 346.269 295.865C337.046 287.156 328.338 278.926 320.587 273.339C296.217 255.78 264.362 235.365 234.121 233.166C201.929 230.807 173.728 257.075 151.061 278.146C148.418 280.594 145.846 282.988 143.327 285.276C139.443 288.806 135.63 292.335 131.834 295.847C103.881 321.725 77.4715 346.184 39.7281 357.624L39.3379 356.329C76.7798 344.977 103.065 320.643 130.912 294.854C134.707 291.342 138.521 287.812 142.405 284.265C144.906 281.977 147.478 279.583 150.12 277.135C172.983 255.869 201.432 229.406 234.21 231.783C264.787 234 296.855 254.556 321.367 272.204C329.207 277.845 337.933 286.11 347.191 294.854C369.132 315.588 393.981 339.107 417.411 338.238C433.852 337.634 444.459 326.922 455.686 315.588C463.1 308.085 470.78 300.335 480.358 295.634C500.063 285.95 522.624 287.529 544.44 289.072C546.444 289.214 548.431 289.356 550.399 289.48C583.85 291.697 609.391 307.961 634.08 323.694C659.231 339.727 685.25 356.311 719.659 357.943L719.588 359.291V359.326Z" fill="currentColor" fill-opacity="0.4"/>
<path d="M46.1518 343.098L45.7793 341.803C83.3276 331.215 109.507 308.317 137.229 284.089C141.858 280.045 146.629 275.859 151.489 271.708C153.653 269.864 155.835 267.966 158.052 266.05C182.528 244.855 210.268 220.84 244.553 226.551C275.166 231.659 303.616 253.298 327.862 273.181C333.324 277.668 339.231 283.326 345.474 289.321C365.091 308.157 387.35 329.512 410.975 329.867C426.707 330.15 437.846 318.746 448.63 307.767C455.494 300.779 462.589 293.56 470.765 289.463C485.983 281.836 507.462 278.626 536.408 279.601C568.618 280.701 594.992 295.316 620.497 309.452C646.109 323.641 672.589 338.327 704.693 338.859V340.207C672.235 339.675 645.594 324.9 619.841 310.64C594.478 296.593 568.245 282.049 536.355 280.967C507.622 279.991 486.356 283.166 471.35 290.687C463.387 294.677 456.363 301.825 449.588 308.742C438.715 319.81 427.488 331.25 411.472 331.268C411.294 331.268 411.135 331.268 410.957 331.268C386.8 330.895 364.346 309.363 344.534 290.35C338.308 284.372 332.42 278.732 327.01 274.28C302.889 254.504 274.616 232.989 244.34 227.935C210.676 222.312 183.202 246.115 158.956 267.115C156.739 269.03 154.54 270.928 152.376 272.773C147.516 276.923 142.745 281.091 138.134 285.135C110.305 309.487 84.0016 332.474 46.1695 343.134L46.1518 343.098Z" fill="currentColor" fill-opacity="0.4"/>
<path d="M52.503 328.518L52.166 327.205C89.5192 317.468 115.982 295.758 143.97 272.79C149.362 268.355 154.949 263.779 160.661 259.239L164.775 255.958C190.423 235.454 219.511 212.237 254.789 221.708C279.673 228.395 301.578 249.431 322.755 269.774C347.693 293.719 373.482 318.497 403.403 318.231C419.313 318.089 428.554 309.877 438.327 301.168C443.151 296.858 448.153 292.406 454.236 288.593C471.086 278.004 491.714 271.424 513.849 269.579C546.449 266.848 575.04 281.41 602.691 295.475C631.495 310.143 658.721 323.995 689.849 319.685L690.044 321.033C658.491 325.396 631.105 311.455 602.088 296.681C574.597 282.687 546.183 268.231 513.973 270.927C492.051 272.754 471.654 279.263 454.963 289.746C448.986 293.506 444.038 297.922 439.231 302.179C429.263 311.065 419.845 319.455 403.421 319.579C403.261 319.579 403.102 319.579 402.942 319.579C372.666 319.579 346.824 294.747 321.815 270.732C300.762 250.512 278.999 229.601 254.434 223.003C219.812 213.691 191.008 236.696 165.609 257.004L161.494 260.285C155.783 264.826 150.214 269.402 144.822 273.818C116.709 296.894 90.14 318.692 52.503 328.5V328.518Z" fill="currentColor" fill-opacity="0.4"/>
<path d="M58.0712 313.442L57.752 312.13C94.8214 303.066 121.479 282.545 149.698 260.8C156.013 255.94 162.557 250.903 169.297 245.937L170.379 245.139C197.498 225.114 228.236 202.429 264.33 216.033C285.489 223.997 303.528 242.407 320.98 260.215C343.736 283.414 367.255 307.412 397.656 307.98C416.208 308.352 432.224 296.398 449.251 283.769C463.21 273.429 477.647 262.734 493.646 259.257C527.931 251.826 560.921 264.596 592.846 276.941L593.325 277.118C599.693 279.583 606.042 282.528 612.765 285.649C633.375 295.209 654.676 305.124 676.776 300.601L677.042 301.931C654.499 306.525 632.984 296.539 612.179 286.873C605.475 283.769 599.161 280.825 592.829 278.377L592.35 278.2C560.619 265.908 527.824 253.209 493.93 260.57C478.215 263.975 463.884 274.599 450.049 284.851C432.827 297.621 416.509 309.682 397.62 309.328C366.67 308.76 342.938 284.55 320.005 261.155C302.658 243.454 284.727 225.167 263.851 217.292C228.431 203.937 199.325 225.434 171.177 246.221L170.095 247.019C163.373 251.985 156.846 257.005 150.532 261.864C122.189 283.68 95.4244 304.29 58.0889 313.425L58.0712 313.442Z" fill="currentColor" fill-opacity="0.4"/>
<path d="M62.2392 297.443L61.9199 296.13C98.5814 287.386 125.399 267.876 153.778 247.231C161.174 241.839 168.836 236.27 176.782 230.807L179.141 229.175C199.715 214.986 225.327 197.338 252.056 201.027C280.665 204.982 300.778 226.851 320.218 247.993C341.661 271.317 361.916 293.346 392.707 294.02C413.352 294.428 428.499 282.473 444.515 269.792C457.126 259.806 470.162 249.466 486.179 245.723C515.267 238.93 546.394 249.093 573.868 258.05C576.174 258.795 578.462 259.558 580.714 260.285C587.472 262.466 594.655 265.464 602.247 268.639C622.91 277.294 646.34 287.085 667.021 281.64L667.358 282.952C646.233 288.522 622.59 278.625 601.714 269.898C594.141 266.723 587.011 263.744 580.289 261.58C578.018 260.852 575.73 260.108 573.425 259.345C546.128 250.441 515.196 240.331 486.462 247.036C470.748 250.707 457.836 260.941 445.331 270.838C429.829 283.13 413.813 295.811 392.654 295.368C361.278 294.676 339.887 271.406 319.189 248.916C299.909 227.933 279.956 206.242 251.843 202.375C225.628 198.757 200.265 216.245 179.886 230.292L177.527 231.924C169.581 237.387 161.936 242.956 154.54 248.33C126.038 269.064 99.1135 288.646 62.186 297.461L62.2392 297.443Z" fill="currentColor" fill-opacity="0.4"/>
<path d="M64.2958 280.079L63.9766 278.767C100.319 270.005 127.367 251.062 156.012 231.002C163.301 225.894 170.839 220.626 178.626 215.429L181.393 213.585C202.038 199.804 227.738 182.67 253.917 186.306C282.048 190.226 301.221 211.616 319.738 232.297C339.372 254.219 359.663 276.887 390.489 277.951C412.695 278.713 426.654 266.528 441.464 253.616C452.709 243.808 464.362 233.645 479.97 229.583C506.93 222.577 537.507 231.871 564.485 240.083C568.44 241.289 572.324 242.46 576.067 243.56C582.771 245.511 589.99 248.278 597.634 251.204C618.457 259.186 642.082 268.231 662.213 262.804L662.568 264.116C642.011 269.668 618.173 260.534 597.156 252.481C589.547 249.555 582.345 246.805 575.694 244.872C571.934 243.772 568.05 242.602 564.095 241.396C537.277 233.237 506.894 223.996 480.307 230.913C465 234.904 453.489 244.943 442.351 254.645C428.002 267.167 413.156 280.061 390.436 279.317C359.024 278.235 338.539 255.354 318.709 233.219C300.352 212.716 281.356 191.503 253.705 187.654C228.022 184.071 202.57 201.063 182.12 214.72L179.353 216.565C171.567 221.744 164.046 227.011 156.757 232.12C128.006 252.251 100.851 271.282 64.2603 280.097L64.2958 280.079Z" fill="currentColor" fill-opacity="0.4"/>
<path d="M64.419 261.474L64.082 260.162C99.9808 250.903 127.455 232.51 156.56 213.018C163.602 208.3 170.892 203.422 178.394 198.616L182.296 196.097C202.8 182.866 228.323 166.388 253.633 169.918C281.284 173.802 300.617 194.536 319.293 214.596C339.194 235.969 359.786 258.051 390.328 259.186C412.535 259.984 426.901 248.083 442.101 235.472C453.542 225.983 465.372 216.157 480.891 212.166C513.58 203.759 545.559 215.873 576.474 227.562C604.675 238.239 633.851 249.271 663.152 244.412L663.383 245.742C633.71 250.673 604.373 239.569 575.995 228.821C545.275 217.204 513.509 205.178 481.228 213.461C466.01 217.363 454.304 227.083 442.971 236.483C428.249 248.704 413.014 261.314 390.293 260.516C359.183 259.363 338.414 237.069 318.318 215.501C299.783 195.618 280.628 175.062 253.455 171.248C228.66 167.772 203.367 184.089 183.041 197.215L179.139 199.733C171.654 204.54 164.365 209.417 157.323 214.135C128.129 233.681 100.566 252.145 64.4368 261.456L64.419 261.474Z" fill="currentColor" fill-opacity="0.4"/>
<path d="M64.4013 242.815L64.082 241.503C99.2714 232.776 127.065 215.802 156.49 197.835C163.212 193.738 170.147 189.499 177.241 185.313L181.25 182.936C201.718 170.805 227.187 155.675 251.965 158.957C278.943 162.522 298.985 181.411 318.389 199.697C339.105 219.225 360.531 239.41 390.311 240.492C412.251 241.29 427.983 230.364 444.656 218.782C457.107 210.127 469.983 201.187 485.645 197.658C512.587 191.574 538.837 200.921 564.218 209.949C569.095 211.687 574.132 213.479 579.028 215.111C612.461 226.196 633.053 232.226 667.657 227.065L667.852 228.413C632.947 233.61 612.231 227.544 578.602 216.405C573.689 214.773 568.634 212.982 563.757 211.244C538.571 202.269 512.516 193.011 485.946 199.006C470.551 202.482 457.781 211.35 445.436 219.917C429.313 231.109 412.659 242.691 390.257 241.875C359.963 240.775 338.343 220.396 317.449 200.708C298.222 182.582 278.34 163.852 251.788 160.322C227.489 157.112 202.232 172.082 181.942 184.125L177.933 186.501C170.856 190.67 163.903 194.909 157.199 199.006C127.685 217.044 99.7857 234.071 64.4013 242.833V242.815Z" fill="currentColor" fill-opacity="0.4"/>
<path d="M392.581 224.244C391.907 224.244 391.233 224.244 390.559 224.209C361.063 223.34 337.899 205.657 315.48 188.576C299.499 176.391 282.987 163.798 264.31 157.395C224.651 143.809 180.913 167.913 138.611 191.237C112.45 205.657 87.7426 219.278 64.3658 224.156L64.082 222.826C87.246 217.983 111.882 204.415 137.937 190.031C180.487 166.583 224.492 142.319 264.736 156.101C283.607 162.574 300.227 175.238 316.278 187.477C338.52 204.433 361.506 221.974 390.577 222.826C412.233 223.5 430.112 213.407 447.422 203.67C460.228 196.469 473.477 189.02 488.287 185.756C517.571 179.318 542.473 189.658 568.847 200.619C574.789 203.085 580.926 205.639 587.045 207.945C605.349 216.352 624.717 221.229 644.671 222.471C653.841 216.565 663.933 212.521 674.663 210.445L674.929 211.776C664.287 213.833 654.302 217.842 645.221 223.73L645.025 223.854H644.795C624.593 222.613 604.976 217.7 586.513 209.204C580.411 206.898 574.257 204.344 568.315 201.879C542.136 191.006 517.429 180.737 488.554 187.086C473.939 190.297 460.778 197.693 448.061 204.858C431.123 214.383 413.617 224.227 392.528 224.227L392.581 224.244Z" fill="currentColor" fill-opacity="0.4"/>
<path d="M629.703 212.982C619.15 212.982 607.302 209.985 590.753 202.642C584.297 199.786 578.178 196.789 572.236 193.898C547.831 182.014 526.742 171.745 497.14 176.002C481.23 178.29 466.243 184.409 451.734 190.333C432.543 198.155 412.661 206.243 390.543 205.586C362.165 204.717 338.238 190.812 315.074 177.35C298.136 167.506 280.612 157.325 261.439 152.288C221.46 141.788 180.01 160.518 139.908 178.627C114.881 189.925 88.986 201.631 64.3144 205.551L64.1016 204.221C88.5958 200.319 114.402 188.666 139.34 177.385C179.655 159.17 221.336 140.351 261.776 150.975C281.126 156.048 298.721 166.282 315.748 176.179C338.752 189.552 362.537 203.369 390.561 204.221C412.465 204.895 432.153 196.842 451.202 189.074C465.782 183.132 480.858 176.977 496.927 174.654C526.937 170.344 548.186 180.684 572.804 192.674C578.728 195.565 584.847 198.545 591.268 201.383C628.302 217.807 641.445 212.184 670.231 199.893C674.222 198.19 678.496 196.363 683.179 194.448L683.693 195.707C679.028 197.623 674.754 199.449 670.763 201.134C654.445 208.105 643.076 212.965 629.65 212.965L629.703 212.982Z" fill="currentColor" fill-opacity="0.4"/>
<path d="M629.952 207.111C620.197 207.111 609.183 204.149 595.206 196.788C588.52 193.259 582.472 189.764 576.619 186.395C554.217 173.447 536.534 163.231 506.311 165.377C488.627 166.636 471.387 171.389 454.733 175.983C434.176 181.659 412.91 187.512 390.562 186.927C363.443 186.199 338.86 176.214 315.075 166.53C296.948 159.151 278.201 151.542 258.442 148.048C218.961 141.078 179.834 154.22 141.984 166.938C116.621 175.451 90.4061 184.266 64.3333 186.927L64.1914 185.579C90.1045 182.936 116.266 174.156 141.558 165.661C179.568 152.89 218.872 139.694 258.691 146.718C278.609 150.23 297.41 157.874 315.607 165.27C339.286 174.901 363.762 184.851 390.633 185.561C412.786 186.146 433.946 180.311 454.396 174.671C471.121 170.059 488.432 165.288 506.24 164.011C536.871 161.829 554.714 172.152 577.31 185.206C583.146 188.576 589.176 192.07 595.845 195.582C630.573 213.868 646.767 204.45 671.296 190.226C677.522 186.607 684.563 182.528 692.492 178.59L693.095 179.797C685.202 183.716 678.178 187.796 671.988 191.396C656.912 200.14 644.94 207.111 629.988 207.111H629.952Z" fill="currentColor" fill-opacity="0.4"/>
<path d="M631.052 201.365C622.503 201.365 613.191 198.81 602.549 192.567C594.054 187.583 586.853 182.315 579.9 177.207C562.323 164.331 547.123 153.228 520.305 154.239C500.458 154.983 480.593 158.141 461.366 161.191C438.344 164.845 414.542 168.641 390.58 168.304C364.613 167.949 339.516 161.546 315.235 155.374C294.164 149.999 272.401 144.448 250.159 142.887C214.42 140.386 179.266 148.031 145.283 155.427C118.944 161.156 91.7186 167.08 64.2446 168.321L64.1914 166.973C91.5412 165.75 118.714 159.826 144.999 154.114C179.089 146.7 214.314 139.021 250.248 141.539C272.596 143.1 294.448 148.669 315.572 154.061C339.764 160.233 364.773 166.601 390.597 166.956C414.453 167.293 438.185 163.497 461.153 159.861C480.415 156.793 500.316 153.635 520.252 152.891C547.566 151.862 562.908 163.107 580.698 176.125C587.633 181.198 594.799 186.448 603.241 191.414C634.369 209.701 654.039 195.441 676.812 178.928C684.528 173.341 692.492 167.559 701.413 162.646L702.069 163.834C693.236 168.694 685.29 174.458 677.611 180.027C662.18 191.219 648.15 201.382 631.07 201.382L631.052 201.365Z" fill="currentColor" fill-opacity="0.4"/>
<path d="M631.777 193.348C623.618 193.348 615.069 190.847 605.97 184.746C597.208 178.875 590.291 172.844 583.622 167.027C567.748 153.192 555.279 142.249 528.142 142.444C506.042 142.586 483.659 144.395 462.02 146.133C438.679 148.013 414.557 149.982 390.631 149.822C365.693 149.68 340.738 146.381 316.598 143.171C294.055 140.174 270.731 137.07 247.55 136.591C215.198 135.917 182.776 139.553 151.418 143.082C122.968 146.275 93.5432 149.592 64.2246 149.663V148.315C93.4545 148.244 122.844 144.945 151.258 141.734C182.669 138.205 215.127 134.551 247.567 135.225C270.838 135.704 294.197 138.808 316.776 141.823C340.88 145.033 365.799 148.332 390.648 148.474C414.504 148.581 438.608 146.665 461.914 144.785C483.588 143.047 505.989 141.238 528.142 141.096C555.652 140.918 569.061 152.554 584.509 166.016C591.16 171.816 598.024 177.793 606.715 183.628C636.3 203.475 659.18 184.852 683.426 165.129C691.709 158.389 700.258 151.436 709.02 146.257L709.711 147.428C701.038 152.554 692.525 159.489 684.277 166.193C667.765 179.62 650.862 193.365 631.759 193.365L631.777 193.348Z" fill="currentColor" fill-opacity="0.4"/>
<path d="M632.098 182.297C624.347 182.297 616.472 179.867 608.491 173.997C599.445 167.345 592.51 160.375 586.391 154.238C572.361 140.138 561.258 129.017 533.838 128.768C508.35 128.538 482.401 129.265 457.322 129.975C435.524 130.595 412.981 131.216 390.792 131.216H390.668C367.167 131.216 343.329 130.116 320.289 129.052C295.848 127.917 270.574 126.764 245.671 126.906C219.386 127.048 192.657 128.059 166.815 129.034C133.204 130.294 98.4402 131.606 64.2441 131.039V129.691C98.4225 130.241 133.168 128.946 166.762 127.687C192.621 126.711 219.35 125.718 245.654 125.558C270.574 125.416 295.884 126.587 320.342 127.704C343.382 128.768 367.202 129.868 390.668 129.868C412.927 129.868 435.453 129.23 457.286 128.627C482.384 127.917 508.332 127.19 533.855 127.42C561.844 127.687 573.106 138.985 587.366 153.298C593.45 159.399 600.35 166.334 609.307 172.932C637.277 193.525 663.208 171.177 688.288 149.573C697.369 141.752 705.953 134.355 714.431 129.212L715.141 130.365C706.769 135.455 698.22 142.816 689.174 150.602C671.597 165.731 652.336 182.333 632.116 182.333L632.098 182.297Z" fill="currentColor" fill-opacity="0.4"/>
<path d="M717.588 765.529L716.559 764.908C690.77 749.194 668.457 728.903 650.242 704.622C641.64 694.423 633.268 689.404 625.482 689.634C618.369 689.865 611.434 694.512 604.854 703.451C597.582 711.131 592.545 720.815 587.667 730.18C577.008 750.666 566.951 770.016 536.249 762.638C510.921 756.554 490.187 739.793 470.127 723.564C447.389 705.172 425.892 687.79 398.187 684.438C386.907 683.072 375.236 684.579 363.938 686.034C350.689 687.736 336.979 689.51 323.676 686.708C304.13 682.593 288.611 669.787 273.624 657.407C261.35 647.279 248.668 636.797 233.894 631.246C197.64 617.642 175.061 647.865 155.143 674.523L152.625 677.893C147.783 684.331 143.224 690.805 138.808 697.048C118.961 725.107 100.213 751.624 64.4917 764.979L63.463 765.369L63.5871 764.27C64.8287 752.688 67.3473 741.265 69.7949 730.233C74.6015 708.453 79.1421 687.861 74.9208 665.708C72.8102 654.622 70.1142 644.122 67.5247 633.977C62.0795 612.729 56.9537 592.669 57.1488 568.972C57.4325 533.765 55.2864 505.476 43.6867 473.337C41.7889 468.105 39.7492 463.103 37.745 458.261C31.9096 444.036 26.3936 430.61 26.0034 413.795C25.418 388.396 35.2796 365.516 44.8041 343.381C51.9697 326.744 59.3836 309.54 62.3633 291.342C68.7662 252.18 66.9393 209.293 65.2012 167.807C64.3853 148.297 63.6049 129.886 63.6049 111.706V111.032H64.2789C141.273 111.138 219.562 111.103 295.28 111.068C327.064 111.068 358.848 111.05 390.632 111.032C407.198 111.032 423.746 110.997 440.312 110.979C471.812 110.926 504.394 110.855 536.426 111.014C564.876 111.138 575.252 122.525 588.412 136.927C594.389 143.472 601.165 150.904 610.53 157.998C637.17 178.236 665.158 153.777 689.865 132.21C699.301 123.962 708.223 116.158 716.63 111.138L717.871 110.394L717.659 111.812C714.306 133.93 702.441 156.065 690.983 177.473C673.92 209.31 656.29 242.247 665.797 276.124C672.501 299.962 689.883 320.324 706.697 340.029C728.3 365.339 750.649 391.5 750.436 425.271C750.329 442.954 742.277 458.527 734.491 473.567C729.524 483.163 724.398 493.078 721.365 503.471C720.798 516.419 717.073 528.746 710.316 539.902L710.156 540.08C700.827 547.689 691.71 555.794 683.09 564.219C671.614 587.685 684.864 615.992 696.57 640.965C700.099 648.503 703.434 655.616 705.864 662.16C717.818 694.246 717.747 723.192 717.676 756.696V765.582L717.588 765.529ZM64.9174 112.345C64.9174 130.276 65.6978 148.474 66.5137 167.718C68.2696 209.257 70.0787 252.215 63.6581 291.519C60.6606 309.894 53.2112 327.17 46.0102 343.878C36.5389 365.871 26.7483 388.627 27.3336 413.724C27.7238 430.29 33.1867 443.61 38.9865 457.711C40.973 462.571 43.0482 467.59 44.946 472.84C56.6167 505.174 58.7805 533.588 58.479 568.937C58.2839 592.456 63.392 612.427 68.8194 633.587C71.4267 643.768 74.1227 654.285 76.2333 665.406C80.5256 687.843 75.7367 709.517 71.1074 730.482C68.7485 741.141 66.3186 752.156 65.0415 763.277C99.6988 749.956 117.311 725.036 137.691 696.215C142.107 689.954 146.683 683.497 151.543 677.041L154.061 673.671C174.263 646.623 197.143 615.974 234.373 629.933C249.342 635.556 262.13 646.109 274.475 656.307C289.338 668.581 304.716 681.298 323.942 685.324C337.014 688.074 350.618 686.318 363.761 684.633C375.13 683.16 386.907 681.653 398.347 683.036C426.442 686.442 449.091 704.746 470.978 722.465C490.914 738.587 511.524 755.277 536.55 761.272C566.224 768.385 575.606 750.382 586.461 729.506C591.374 720.053 596.465 710.28 603.808 702.529C610.601 693.306 617.89 688.481 625.428 688.233C633.694 687.932 642.385 693.182 651.288 703.735C669.184 727.591 691.018 747.544 716.222 763.081V756.608C716.311 723.227 716.381 694.405 704.516 662.551C702.104 656.059 698.769 648.964 695.257 641.462C683.409 616.169 669.983 587.489 681.848 563.421L681.99 563.244C690.628 554.801 699.762 546.66 709.145 539.015C715.725 528.072 719.379 516.011 719.964 503.152C723.05 492.492 728.23 482.507 733.213 472.858C740.929 457.959 748.893 442.546 749.017 425.182C749.23 391.908 727.059 365.942 705.615 340.827C688.695 321.015 671.206 300.547 664.431 276.408C654.765 242.017 672.537 208.831 689.723 176.764C700.88 155.923 712.408 134.391 716.027 113.001C708.081 117.985 699.638 125.363 690.699 133.167C672.288 149.254 652.069 166.902 631.743 166.902C624.364 166.902 616.986 164.579 609.661 159.009C600.207 151.826 593.396 144.359 587.366 137.761C574.436 123.59 564.219 112.416 536.373 112.291C504.341 112.149 471.776 112.203 440.276 112.256C423.71 112.291 407.162 112.309 390.596 112.309C358.812 112.309 327.028 112.309 295.244 112.345C219.758 112.38 141.699 112.416 64.9174 112.309V112.345Z" fill="currentColor" fill-opacity="0.4"/>
</g>
</g>
</svg>
