
<svg width="1024" height="634" viewBox="0 0 1024 634" fill="none" xmlns="http://www.w3.org/2000/svg">
  <g clip-path="url(#clip0_9618_12008)">
  <rect width="1024" height="634" fill="#F2F4F3"/>
  <path d="M144.405 432H75.3555V501.031H144.405V432Z" stroke="#18181B" stroke-width="1.3" stroke-miterlimit="10"/>
  <path d="M75.3555 501.031L101.419 527.088H171.094V457.772L144.41 432" stroke="#18181B" stroke-width="1.3" stroke-miterlimit="10"/>
  <path d="M144.409 501.031L170.783 527.398" stroke="#18181B" stroke-width="1.3" stroke-miterlimit="10"/>
  <path d="M669.615 552.668L680.626 560.085L691.631 552.668L702.642 560.085L713.654 552.668L724.659 560.085L735.67 552.668L746.681 560.085L757.692 552.668L768.703 560.085L779.714 552.668" stroke="#18181B" stroke-width="2" stroke-miterlimit="10"/>
  <path d="M669.615 570.035L680.626 577.452L691.631 570.035L702.642 577.452L713.654 570.035L724.659 577.452L735.67 570.035L746.681 577.452L757.692 570.035L768.703 577.452L779.714 570.035" stroke="#18181B" stroke-width="2" stroke-miterlimit="10"/>
  <path d="M852.02 113.701C852.02 78.8711 880.261 50.6367 915.1 50.6367C949.939 50.6367 978.181 78.8711 978.181 113.701C978.181 148.53 949.939 176.764 915.1 176.764" stroke="#18181B" stroke-width="1.5" stroke-miterlimit="10"/>
  <path d="M162.021 87.3805L153.795 95.3016L162.162 103.358L154.318 110.91L145.952 102.854L137.727 110.775L130.26 103.585L138.485 95.6638L130.068 87.5585L137.912 80.0059L146.329 88.1112L154.554 80.1901L162.021 87.3805Z" fill="#18181B" fill-opacity="0.32"/>
  <path d="M1054.43 276.208L1046.45 284.182L1054.56 292.291L1046.96 299.894L1038.85 291.784L1030.87 299.758L1023.63 292.52L1031.61 284.546L1023.45 276.388L1031.05 268.785L1039.21 276.944L1047.19 268.971L1054.43 276.208Z" fill="#18181B"/>
  <path d="M261.988 581.823L278.576 565.246" stroke="#18181B" stroke-width="1.5" stroke-miterlimit="10"/>
  <path d="M276.449 581.823L293.031 565.246" stroke="#18181B" stroke-width="1.5" stroke-miterlimit="10"/>
  <path d="M290.903 581.823L307.491 565.246" stroke="#18181B" stroke-width="1.5" stroke-miterlimit="10"/>
  <path d="M305.364 581.823L321.946 565.246" stroke="#18181B" stroke-width="1.5" stroke-miterlimit="10"/>
  <path d="M319.82 581.823L336.408 565.246" stroke="#18181B" stroke-width="1.5" stroke-miterlimit="10"/>
  <path d="M334.281 581.823L350.863 565.246" stroke="#18181B" stroke-width="1.5" stroke-miterlimit="10"/>
  <path d="M348.735 581.823L365.323 565.246" stroke="#18181B" stroke-width="1.5" stroke-miterlimit="10"/>
  <path d="M1015.4 711.098C1064.48 711.098 1104.27 671.318 1104.27 622.247C1104.27 573.176 1064.48 533.396 1015.4 533.396C966.312 533.396 926.521 573.176 926.521 622.247C926.521 671.318 966.312 711.098 1015.4 711.098Z" stroke="#A4A8A8" stroke-width="1.5" stroke-miterlimit="10"/>
  <path d="M1015.4 741.811C949.453 741.811 895.801 688.173 895.801 622.247C895.801 556.322 949.453 502.684 1015.4 502.684C1081.34 502.684 1134.99 556.322 1134.99 622.247C1134.99 688.173 1081.34 741.811 1015.4 741.811Z" stroke="#A4A8A8" stroke-width="1.5" stroke-miterlimit="10"/>
  <path d="M1015.4 726.457C957.917 726.457 911.158 679.711 911.158 622.247C911.158 564.783 957.917 518.037 1015.4 518.037C1072.88 518.037 1119.63 564.783 1119.63 622.247C1119.63 679.711 1072.87 726.457 1015.4 726.457Z" stroke="#A4A8A8" stroke-width="1.5" stroke-miterlimit="10"/>
  <path d="M1015.4 711.098C1064.48 711.098 1104.27 671.318 1104.27 622.247C1104.27 573.176 1064.48 533.396 1015.4 533.396C966.312 533.396 926.521 573.176 926.521 622.247C926.521 671.318 966.312 711.098 1015.4 711.098Z" stroke="#A4A8A8" stroke-width="1.5" stroke-miterlimit="10"/>
  <path d="M1015.4 694.62C1055.38 694.62 1087.79 662.217 1087.79 622.247C1087.79 582.277 1055.38 549.875 1015.4 549.875C975.416 549.875 943.005 582.277 943.005 622.247C943.005 662.217 975.416 694.62 1015.4 694.62Z" stroke="#A4A8A8" stroke-width="1.5" stroke-miterlimit="10"/>
  <path d="M1015.4 679.526C1047.04 679.526 1072.69 653.881 1072.69 622.247C1072.69 590.613 1047.04 564.969 1015.4 564.969C983.753 564.969 958.102 590.613 958.102 622.247C958.102 653.881 983.753 679.526 1015.4 679.526Z" stroke="#A4A8A8" stroke-width="1.5" stroke-miterlimit="10"/>
  <path d="M52.2043 260.535H-19.5938V271.074H52.2043V260.535Z" fill="#1D1D1D"/>
  <path d="M74.6337 260.535H63.1094V271.074H74.6337V260.535Z" fill="#1D1D1D"/>
  <g style="mix-blend-mode:multiply">
  <path d="M1071.66 411.676H988.648V422.801H1071.66V411.676Z" fill="#18181B"/>
  </g>
  <g style="mix-blend-mode:multiply">
  <path d="M972.017 411.676H948.609V422.801H972.017V411.676Z" fill="#18181B"/>
  </g>
  <g style="mix-blend-mode:multiply">
  <path d="M185.12 518.979H161.713V542.379H185.12V518.979Z" fill="#A4A8A8"/>
  </g>
  </g>
  <defs>
  <clipPath id="clip0_9618_12008">
  <rect width="1024" height="634" fill="white"/>
  </clipPath>
  </defs>
  </svg>
  