
<svg width="750" height="936" viewBox="0 0 750 936" fill="none" xmlns="http://www.w3.org/2000/svg">
<g clip-path="url(#clip0_8751_5770)">
<g clip-path="url(#clip1_8751_5770)">
<path d="M104.786 569.43H33.0488V641.148H104.786V569.43Z" stroke="white" stroke-width="1.3" stroke-miterlimit="10"/>
<path d="M33.0488 641.148L60.1273 668.219H132.515V596.204L104.792 569.43" stroke="white" stroke-width="1.3" stroke-miterlimit="10"/>
<path d="M104.791 641.148L132.192 668.542" stroke="white" stroke-width="1.3" stroke-miterlimit="10"/>
<path d="M710.515 262.891C712.241 262.891 713.641 261.492 713.641 259.766C713.641 258.04 712.241 256.641 710.515 256.641C708.788 256.641 707.389 258.04 707.389 259.766C707.389 261.492 708.788 262.891 710.515 262.891Z" fill="white"/>
<path d="M737.396 262.891C739.122 262.891 740.522 261.492 740.522 259.766C740.522 258.04 739.122 256.641 737.396 256.641C735.669 256.641 734.27 258.04 734.27 259.766C734.27 261.492 735.669 262.891 737.396 262.891Z" fill="white"/>
<path d="M710.515 288.375C712.241 288.375 713.641 286.976 713.641 285.25C713.641 283.524 712.241 282.125 710.515 282.125C708.788 282.125 707.389 283.524 707.389 285.25C707.389 286.976 708.788 288.375 710.515 288.375Z" fill="white"/>
<path d="M737.396 288.375C739.122 288.375 740.522 286.976 740.522 285.25C740.522 283.524 739.122 282.125 737.396 282.125C735.669 282.125 734.27 283.524 734.27 285.25C734.27 286.976 735.669 288.375 737.396 288.375Z" fill="white"/>
<path d="M526.682 689.801L535.945 696.041L545.204 689.801L554.467 696.041L563.731 689.801L572.99 696.041L582.253 689.801L591.517 696.041L600.781 689.801L610.044 696.041L619.308 689.801" stroke="white" stroke-width="2" stroke-miterlimit="10"/>
<path d="M526.682 704.412L535.945 710.652L545.204 704.412L554.467 710.652L563.731 704.412L572.99 710.652L582.253 704.412L591.517 710.652L600.781 704.412L610.044 710.652L619.308 704.412" stroke="white" stroke-width="2" stroke-miterlimit="10"/>
<path d="M608.629 84.9345C608.629 55.6325 632.389 31.8789 661.699 31.8789C691.009 31.8789 714.768 55.6325 714.768 84.9345C714.768 114.237 691.009 137.99 661.699 137.99" stroke="white" stroke-width="1.5" stroke-miterlimit="10"/>
<path d="M124.882 71.2042L117.962 77.8683L125 84.6459L118.402 91L111.363 84.2223L104.443 90.8863L98.1609 84.8371L105.081 78.1731L98 71.3541L104.598 65L111.68 71.819L118.6 65.155L124.882 71.2042Z" fill="white" fill-opacity="0.32"/>
<path d="M200.572 756.396L214.528 742.449" stroke="white" stroke-width="1.5" stroke-miterlimit="10"/>
<path d="M212.738 756.396L226.688 742.449" stroke="white" stroke-width="1.5" stroke-miterlimit="10"/>
<path d="M224.898 756.396L238.854 742.449" stroke="white" stroke-width="1.5" stroke-miterlimit="10"/>
<path d="M237.064 756.396L251.015 742.449" stroke="white" stroke-width="1.5" stroke-miterlimit="10"/>
<path d="M249.227 756.396L263.182 742.449" stroke="white" stroke-width="1.5" stroke-miterlimit="10"/>
<path d="M261.393 756.396L275.343 742.449" stroke="white" stroke-width="1.5" stroke-miterlimit="10"/>
<path d="M273.553 756.396L287.508 742.449" stroke="white" stroke-width="1.5" stroke-miterlimit="10"/>
<path d="M746.079 1008.17C787.373 1008.17 820.849 974.707 820.849 933.424C820.849 892.141 787.373 858.674 746.079 858.674C704.784 858.674 671.309 892.141 671.309 933.424C671.309 974.707 704.784 1008.17 746.079 1008.17Z" stroke="#A4A8A8" stroke-width="1.5" stroke-miterlimit="10"/>
<path d="M746.079 1034.01C690.601 1034.01 645.463 988.888 645.463 933.425C645.463 877.962 690.601 832.836 746.079 832.836C801.557 832.836 846.694 877.962 846.694 933.425C846.694 988.888 801.557 1034.01 746.079 1034.01Z" stroke="#A4A8A8" stroke-width="1.5" stroke-miterlimit="10"/>
<path d="M746.078 1021.1C697.721 1021.1 658.383 981.768 658.383 933.424C658.383 885.08 697.721 845.752 746.078 845.752C794.436 845.752 833.768 885.08 833.768 933.424C833.768 981.768 794.43 1021.1 746.078 1021.1Z" stroke="#A4A8A8" stroke-width="1.5" stroke-miterlimit="10"/>
<path d="M746.079 1008.17C787.373 1008.17 820.849 974.707 820.849 933.424C820.849 892.141 787.373 858.674 746.079 858.674C704.784 858.674 671.309 892.141 671.309 933.424C671.309 974.707 704.784 1008.17 746.079 1008.17Z" stroke="#A4A8A8" stroke-width="1.5" stroke-miterlimit="10"/>
<path d="M746.079 994.311C779.715 994.311 806.982 967.051 806.982 933.424C806.982 899.797 779.715 872.537 746.079 872.537C712.443 872.537 685.176 899.797 685.176 933.424C685.176 967.051 712.443 994.311 746.079 994.311Z" stroke="#A4A8A8" stroke-width="1.5" stroke-miterlimit="10"/>
<path d="M746.078 981.613C772.699 981.613 794.279 960.038 794.279 933.425C794.279 906.811 772.699 885.236 746.078 885.236C719.457 885.236 697.877 906.811 697.877 933.425C697.877 960.038 719.457 981.613 746.078 981.613Z" stroke="#A4A8A8" stroke-width="1.5" stroke-miterlimit="10"/>
<path d="M32.4936 183.227H-27.9102V192.093H32.4936V183.227Z" fill="white"/>
<path d="M51.3634 183.227H41.668V192.093H51.3634V183.227Z" fill="white"/>
<path d="M793.415 520.707H723.576V530.067H793.415V520.707Z" fill="white"/>
<path d="M709.583 520.707H689.891V530.067H709.583V520.707Z" fill="white"/>
<g style="mix-blend-mode:multiply">
<path d="M144.316 661.459H124.623V681.146H144.316V661.459Z" fill="#A4A8A8"/>
</g>
</g>
</g>
<defs>
<clipPath id="clip0_8751_5770">
<rect width="750" height="936" fill="white"/>
</clipPath>
<clipPath id="clip1_8751_5770">
<rect width="750" height="936" fill="white"/>
</clipPath>
</defs>
</svg>
