
<svg width="1440" height="800" viewBox="0 0 1440 800" fill="none" xmlns="http://www.w3.org/2000/svg">
<g clip-path="url(#clip0_8813_15354)">
<path d="M182.231 441.209H44.3105V579.129H182.231V441.209Z" stroke="white" stroke-width="1.3" stroke-miterlimit="10"/>
<path d="M44.3105 579.129L96.3705 631.189H235.541V492.699L182.241 441.209" stroke="white" stroke-width="1.3" stroke-miterlimit="10"/>
<path d="M182.24 579.129L234.92 631.809" stroke="white" stroke-width="1.3" stroke-miterlimit="10"/>
<g style="mix-blend-mode:multiply">
<path d="M1366.01 294.02C1369.33 294.02 1372.02 291.329 1372.02 288.01C1372.02 284.691 1369.33 282 1366.01 282C1362.69 282 1360 284.691 1360 288.01C1360 291.329 1362.69 294.02 1366.01 294.02Z" fill="white"/>
<path d="M1417.69 294.02C1421.01 294.02 1423.7 291.329 1423.7 288.01C1423.7 284.691 1421.01 282 1417.69 282C1414.37 282 1411.68 284.691 1411.68 288.01C1411.68 291.329 1414.37 294.02 1417.69 294.02Z" fill="white"/>
<path d="M1366.01 343.03C1369.33 343.03 1372.02 340.339 1372.02 337.02C1372.02 333.701 1369.33 331.01 1366.01 331.01C1362.69 331.01 1360 333.701 1360 337.02C1360 340.339 1362.69 343.03 1366.01 343.03Z" fill="white"/>
<path d="M1417.69 343.03C1421.01 343.03 1423.7 340.339 1423.7 337.02C1423.7 333.701 1421.01 331.01 1417.69 331.01C1414.37 331.01 1411.68 333.701 1411.68 337.02C1411.68 340.339 1414.37 343.03 1417.69 343.03Z" fill="white"/>
</g>
<path d="M878 690L895.81 702L913.61 690L931.42 702L949.23 690L967.03 702L984.84 690L1002.65 702L1020.46 690L1038.27 702L1056.08 690" stroke="white" stroke-width="2" stroke-miterlimit="10"/>
<path d="M878 718.1L895.81 730.1L913.61 718.1L931.42 730.1L949.23 718.1L967.03 730.1L984.84 718.1L1002.65 730.1L1020.46 718.1L1038.27 730.1L1056.08 718.1" stroke="white" stroke-width="2" stroke-miterlimit="10"/>
<path d="M1074 221.03C1074 164.68 1119.68 119 1176.03 119C1232.38 119 1278.06 164.68 1278.06 221.03C1278.06 277.38 1232.38 323.06 1176.03 323.06" stroke="white" stroke-width="1.5" stroke-miterlimit="10"/>
<path d="M143.11 153.01L130.21 165.91L143.33 179.03L131.03 191.33L117.91 178.21L105.01 191.11L93.3 179.4L106.2 166.5L93 153.3L105.3 141L118.5 154.2L131.4 141.3L143.11 153.01Z" fill="white" fill-opacity="0.32"/>
<path d="M347.16 762.3L373.99 735.48" stroke="white" stroke-width="1.5" stroke-miterlimit="10"/>
<path d="M370.551 762.3L397.371 735.48" stroke="white" stroke-width="1.5" stroke-miterlimit="10"/>
<path d="M393.93 762.3L420.76 735.48" stroke="white" stroke-width="1.5" stroke-miterlimit="10"/>
<path d="M417.32 762.3L444.14 735.48" stroke="white" stroke-width="1.5" stroke-miterlimit="10"/>
<path d="M440.699 762.3L467.529 735.48" stroke="white" stroke-width="1.5" stroke-miterlimit="10"/>
<path d="M464.09 762.3L490.91 735.48" stroke="white" stroke-width="1.5" stroke-miterlimit="10"/>
<path d="M487.471 762.3L514.301 735.48" stroke="white" stroke-width="1.5" stroke-miterlimit="10"/>
<path d="M1395.93 977.26C1475.32 977.26 1539.68 912.901 1539.68 833.51C1539.68 754.119 1475.32 689.76 1395.93 689.76C1316.54 689.76 1252.18 754.119 1252.18 833.51C1252.18 912.901 1316.54 977.26 1395.93 977.26Z" stroke="white" stroke-width="1.5" stroke-miterlimit="10"/>
<path d="M1395.93 1026.95C1289.27 1026.95 1202.49 940.17 1202.49 833.51C1202.49 726.85 1289.27 640.07 1395.93 640.07C1502.59 640.07 1589.37 726.85 1589.37 833.51C1589.37 940.17 1502.59 1026.95 1395.93 1026.95Z" stroke="white" stroke-width="1.5" stroke-miterlimit="10"/>
<path d="M1395.93 1002.11C1302.96 1002.11 1227.33 926.48 1227.33 833.51C1227.33 740.54 1302.96 664.91 1395.93 664.91C1488.9 664.91 1564.52 740.54 1564.52 833.51C1564.52 926.48 1488.89 1002.11 1395.93 1002.11Z" stroke="white" stroke-width="1.5" stroke-miterlimit="10"/>
<path d="M1395.93 977.26C1475.32 977.26 1539.68 912.901 1539.68 833.51C1539.68 754.119 1475.32 689.76 1395.93 689.76C1316.54 689.76 1252.18 754.119 1252.18 833.51C1252.18 912.901 1316.54 977.26 1395.93 977.26Z" stroke="white" stroke-width="1.5" stroke-miterlimit="10"/>
<path d="M1395.93 950.6C1460.6 950.6 1513.02 898.177 1513.02 833.51C1513.02 768.843 1460.6 716.42 1395.93 716.42C1331.26 716.42 1278.84 768.843 1278.84 833.51C1278.84 898.177 1331.26 950.6 1395.93 950.6Z" stroke="white" stroke-width="1.5" stroke-miterlimit="10"/>
<path d="M1395.93 926.18C1447.11 926.18 1488.6 884.69 1488.6 833.51C1488.6 782.33 1447.11 740.84 1395.93 740.84C1344.75 740.84 1303.26 782.33 1303.26 833.51C1303.26 884.69 1344.75 926.18 1395.93 926.18Z" stroke="white" stroke-width="1.5" stroke-miterlimit="10"/>
<path d="M62.4698 352.359H-53.6602V369.409H62.4698V352.359Z" fill="white"/>
<path d="M98.7494 352.359H80.1094V369.409H98.7494V352.359Z" fill="white"/>
<path d="M1525.39 520.59H1391.12V538.59H1525.39V520.59Z" fill="white"/>
<path d="M1364.22 520.59H1326.36V538.59H1364.22V520.59Z" fill="white"/>
<g style="mix-blend-mode:multiply">
<path d="M256.86 614H219V651.86H256.86V614Z" fill="#A4A8A8"/>
</g>
</g>
<defs>
<clipPath id="clip0_8813_15354">
<rect width="1440" height="800" fill="white"/>
</clipPath>
</defs>
</svg>
