<svg width="15" height="14" viewBox="0 0 15 14" fill="none" xmlns="http://www.w3.org/2000/svg">
<g clip-path="url(#clip0_10020_19784)">
<path d="M14.8543 3.31603C14.4584 1.78541 13.2936 0.579117 11.8161 0.169242C10.3687 -0.230522 8.8312 0.175464 7.50747 1.28687C6.54149 0.469454 5.47126 0.0269136 4.37853 0.000470086C3.1913 -0.0166404 2.08356 0.433678 1.24808 1.29776C-0.322394 2.92404 -0.665138 5.86083 1.71757 8.32786L6.97498 13.7721C7.12198 13.9238 7.31398 14 7.50597 14C7.69797 14 7.88997 13.9238 8.03696 13.7721L13.2944 8.32786C14.7261 6.84546 15.2946 5.01852 14.8543 3.31603ZM12.2324 7.22812L7.50597 12.1225L2.77955 7.22812C1.01633 5.40118 1.29983 3.44435 2.31006 2.3975C2.7983 1.89196 3.49129 1.5622 4.27728 1.5622C5.11726 1.5622 6.063 1.9394 6.97423 2.8836C7.26748 3.1877 7.74297 3.1877 8.03621 2.8836C9.78518 1.07299 11.6684 1.37631 12.6771 2.42161C13.2201 2.9847 13.5104 3.73134 13.4961 4.52387C13.4796 5.45484 13.0424 6.3897 12.2324 7.22812Z" fill="#18181B"/>
</g>
<defs>
<clipPath id="clip0_10020_19784">
<rect width="15" height="14" fill="white"/>
</clipPath>
</defs>
</svg>
