<svg xmlns="http://www.w3.org/2000/svg" width="15" height="14" viewBox="0 0 15 14" fill="none">
  <path d="M7.50611 1.94077L7.18443 1.66854C6.29112 0.912531 5.32818 0.524216 4.36882 0.500384C3.31832 0.485884 2.34487 0.882483 1.60767 1.64509L7.50611 1.94077ZM7.50611 1.94077L7.82888 1.66985M7.50611 1.94077L7.82888 1.66985M7.82888 1.66985C9.05119 0.643912 10.4225 0.303106 11.6829 0.651105M7.82888 1.66985L11.6829 0.651105M11.6829 0.651105C12.9816 1.0115 14.0176 2.07703 14.3703 3.44121C14.7588 4.94385 14.2699 6.59799 12.9348 7.98053L7.67727 13.4248C7.62674 13.4771 7.56506 13.5 7.50593 13.5C7.44681 13.5 7.38512 13.4771 7.33459 13.4248L2.07709 7.98053C-0.126364 5.69879 0.23241 3.06938 1.60752 1.64525L11.6829 0.651105Z" fill="#FE2842" stroke="#FE2842"/>
</svg>