<svg xmlns="http://www.w3.org/2000/svg" width="15" height="14" viewBox="0 0 15 14" fill="none">
  <path d="M14.8543 3.38181C14.4584 1.87853 13.2936 0.693776 11.8161 0.29122C10.3687 -0.101406 8.8312 0.297331 7.50747 1.38889C6.54149 0.586071 5.47126 0.151433 4.37853 0.125462C3.1913 0.108657 2.08356 0.550934 1.24808 1.39959C-0.322394 2.99682 -0.665138 5.88117 1.71757 8.30415L6.97498 13.6512C7.12198 13.8001 7.31398 13.875 7.50597 13.875C7.69797 13.875 7.88997 13.8001 8.03696 13.6512L13.2944 8.30415C14.7261 6.84822 15.2946 5.05391 14.8543 3.38181ZM12.2324 7.22404L7.50597 12.031L2.77955 7.22404C1.01633 5.42973 1.29983 3.50785 2.31006 2.47969C2.7983 1.98318 3.49129 1.6593 4.27728 1.6593C5.11726 1.6593 6.063 2.02977 6.97423 2.9571C7.26748 3.25577 7.74297 3.25577 8.03621 2.9571C9.78518 1.17883 11.6684 1.47674 12.6771 2.50337C13.2201 3.0564 13.5104 3.78971 13.4961 4.56809C13.4796 5.48243 13.0424 6.4006 12.2324 7.22404Z" fill="#18181B"/>
</svg>