<svg width="15" height="14" viewBox="0 0 15 14" fill="none" xmlns="http://www.w3.org/2000/svg">
<g clip-path="url(#clip0_10020_19766)">
<path d="M7.50611 1.94077L7.18443 1.66854C6.29112 0.912531 5.32818 0.524216 4.36882 0.500384C3.31832 0.485884 2.34487 0.882483 1.60768 1.64509L7.50611 1.94077ZM7.50611 1.94077L7.82888 1.66985M7.50611 1.94077L7.82888 1.66985M7.82888 1.66985C9.05121 0.6439 10.4226 0.303098 11.6829 0.651117M7.82888 1.66985L11.6829 0.651117M11.6829 0.651117C12.9816 1.01152 14.0176 2.07704 14.3703 3.44121C14.7588 4.94385 14.2699 6.59799 12.9348 7.98053L7.67727 13.4248C7.62675 13.4771 7.56506 13.5 7.50593 13.5C7.44681 13.5 7.38512 13.4771 7.3346 13.4248L2.0771 7.98053C-0.126364 5.69879 0.23241 3.06938 1.60752 1.64525L11.6829 0.651117Z" fill="#FE2842" stroke="#FE2842"/>
</g>
<defs>
<clipPath id="clip0_10020_19766">
<rect width="15" height="14" fill="white"/>
</clipPath>
</defs>
</svg>
