
<svg width="1920" height="1080" viewBox="0 0 1920 1080" fill="none" xmlns="http://www.w3.org/2000/svg">
<g clip-path="url(#clip0_8644_35026)">
<path d="M364.92 492H227V629.92H364.92V492Z" stroke="white" stroke-width="1.3" stroke-miterlimit="10"/>
<path d="M227 629.92L279.06 681.98H418.23V543.49L364.93 492" stroke="white" stroke-width="1.3" stroke-miterlimit="10"/>
<path d="M364.93 629.92L417.61 682.6" stroke="white" stroke-width="1.3" stroke-miterlimit="10"/>
<path d="M1806.01 514.02C1809.33 514.02 1812.02 511.329 1812.02 508.01C1812.02 504.691 1809.33 502 1806.01 502C1802.69 502 1800 504.691 1800 508.01C1800 511.329 1802.69 514.02 1806.01 514.02Z" fill="white"/>
<path d="M1857.69 514.02C1861.01 514.02 1863.7 511.329 1863.7 508.01C1863.7 504.691 1861.01 502 1857.69 502C1854.37 502 1851.68 504.691 1851.68 508.01C1851.68 511.329 1854.37 514.02 1857.69 514.02Z" fill="white"/>
<path d="M1915.4 508.01C1915.4 511.33 1912.71 514.02 1909.39 514.02C1906.07 514.02 1903.38 511.33 1903.38 508.01C1903.38 504.69 1906.07 502 1909.39 502C1912.71 502 1915.4 504.69 1915.4 508.01Z" fill="white"/>
<path d="M1806.01 563.03C1809.33 563.03 1812.02 560.339 1812.02 557.02C1812.02 553.701 1809.33 551.01 1806.01 551.01C1802.69 551.01 1800 553.701 1800 557.02C1800 560.339 1802.69 563.03 1806.01 563.03Z" fill="white"/>
<path d="M1857.69 563.03C1861.01 563.03 1863.7 560.339 1863.7 557.02C1863.7 553.701 1861.01 551.01 1857.69 551.01C1854.37 551.01 1851.68 553.701 1851.68 557.02C1851.68 560.339 1854.37 563.03 1857.69 563.03Z" fill="white"/>
<path d="M1915.4 557.02C1915.4 560.34 1912.71 563.03 1909.39 563.03C1906.07 563.03 1903.38 560.34 1903.38 557.02C1903.38 553.7 1906.07 551.01 1909.39 551.01C1912.71 551.01 1915.4 553.7 1915.4 557.02Z" fill="white"/>
<path d="M1461 235.03C1461 178.68 1506.68 133 1563.03 133C1619.38 133 1665.06 178.68 1665.06 235.03C1665.06 291.38 1619.38 337.06 1563.03 337.06" stroke="white" stroke-width="1.5" stroke-miterlimit="10"/>
<path d="M308.11 178.01L295.21 190.91L308.33 204.03L296.03 216.33L282.91 203.21L270.01 216.11L258.3 204.4L271.2 191.5L258 178.3L270.3 166L283.5 179.2L296.4 166.3L308.11 178.01Z" fill="white" fill-opacity="0.32"/>
<path d="M1837.11 326.01L1824.21 338.91L1837.33 352.03L1825.03 364.33L1811.91 351.21L1799.01 364.11L1787.3 352.4L1800.2 339.5L1787 326.3L1799.3 314L1812.5 327.2L1825.4 314.3L1837.11 326.01Z" fill="white"/>
<path d="M434 955.82L460.83 929" stroke="white" stroke-width="1.5" stroke-miterlimit="10"/>
<path d="M457.391 955.82L484.211 929" stroke="white" stroke-width="1.5" stroke-miterlimit="10"/>
<path d="M480.77 955.82L507.6 929" stroke="white" stroke-width="1.5" stroke-miterlimit="10"/>
<path d="M504.16 955.82L530.98 929" stroke="white" stroke-width="1.5" stroke-miterlimit="10"/>
<path d="M527.539 955.82L554.369 929" stroke="white" stroke-width="1.5" stroke-miterlimit="10"/>
<path d="M550.93 955.82L577.75 929" stroke="white" stroke-width="1.5" stroke-miterlimit="10"/>
<path d="M574.311 955.82L601.141 929" stroke="white" stroke-width="1.5" stroke-miterlimit="10"/>
<path d="M1835.93 1197.26C1915.32 1197.26 1979.68 1132.9 1979.68 1053.51C1979.68 974.119 1915.32 909.76 1835.93 909.76C1756.54 909.76 1692.18 974.119 1692.18 1053.51C1692.18 1132.9 1756.54 1197.26 1835.93 1197.26Z" stroke="#A4A8A8" stroke-width="1.5" stroke-miterlimit="10"/>
<path d="M1835.93 1246.95C1729.27 1246.95 1642.49 1160.17 1642.49 1053.51C1642.49 946.85 1729.27 860.07 1835.93 860.07C1942.59 860.07 2029.37 946.85 2029.37 1053.51C2029.37 1160.17 1942.59 1246.95 1835.93 1246.95Z" stroke="#A4A8A8" stroke-width="1.5" stroke-miterlimit="10"/>
<path d="M1835.93 1222.11C1742.96 1222.11 1667.33 1146.48 1667.33 1053.51C1667.33 960.54 1742.96 884.91 1835.93 884.91C1928.9 884.91 2004.52 960.54 2004.52 1053.51C2004.52 1146.48 1928.89 1222.11 1835.93 1222.11Z" stroke="#A4A8A8" stroke-width="1.5" stroke-miterlimit="10"/>
<path d="M1835.93 1197.26C1915.32 1197.26 1979.68 1132.9 1979.68 1053.51C1979.68 974.119 1915.32 909.76 1835.93 909.76C1756.54 909.76 1692.18 974.119 1692.18 1053.51C1692.18 1132.9 1756.54 1197.26 1835.93 1197.26Z" stroke="#A4A8A8" stroke-width="1.5" stroke-miterlimit="10"/>
<path d="M1835.93 1170.6C1900.6 1170.6 1953.02 1118.18 1953.02 1053.51C1953.02 988.843 1900.6 936.42 1835.93 936.42C1771.27 936.42 1718.84 988.843 1718.84 1053.51C1718.84 1118.18 1771.27 1170.6 1835.93 1170.6Z" stroke="#A4A8A8" stroke-width="1.5" stroke-miterlimit="10"/>
<path d="M1835.93 1146.18C1887.11 1146.18 1928.6 1104.69 1928.6 1053.51C1928.6 1002.33 1887.11 960.84 1835.93 960.84C1784.75 960.84 1743.26 1002.33 1743.26 1053.51C1743.26 1104.69 1784.75 1146.18 1835.93 1146.18Z" stroke="#A4A8A8" stroke-width="1.5" stroke-miterlimit="10"/>
<path d="M62.4698 352.36H-53.6602V369.41H62.4698V352.36Z" fill="white"/>
<path d="M98.7494 352.36H80.1094V369.41H98.7494V352.36Z" fill="white"/>
<path d="M1967.27 741H1833V759H1967.27V741Z" fill="white"/>
<path d="M1804.22 740.59H1766.36V758.59H1804.22V740.59Z" fill="white"/>
<g style="mix-blend-mode:multiply">
<path d="M440.919 668.98H403.059V706.84H440.919V668.98Z" fill="#A4A8A8"/>
</g>
<path d="M1276 967L1293.81 979L1311.61 967L1329.42 979L1347.23 967L1365.03 979L1382.84 967L1400.65 979L1418.46 967L1436.27 979L1454.08 967" stroke="white" stroke-width="2" stroke-miterlimit="10"/>
<path d="M1276 995.1L1293.81 1007.1L1311.61 995.1L1329.42 1007.1L1347.23 995.1L1365.03 1007.1L1382.84 995.1L1400.65 1007.1L1418.46 995.1L1436.27 1007.1L1454.08 995.1" stroke="white" stroke-width="2" stroke-miterlimit="10"/>
</g>
<defs>
<clipPath id="clip0_8644_35026">
<rect width="1920" height="1080" fill="white"/>
</clipPath>
</defs>
</svg>
