
<svg width="150" height="27" viewBox="0 0 150 27" fill="none" xmlns="http://www.w3.org/2000/svg">
<path d="M41.7852 5.5708H47.4277C48.3637 5.5708 49.2107 5.6777 49.9679 5.88986C50.7251 6.10285 51.3719 6.41369 51.9084 6.82238C52.4448 7.2319 52.8572 7.72612 53.1464 8.30668C53.4356 8.88724 53.5802 9.55415 53.5802 10.3066C53.5802 11.1898 53.4099 11.9504 53.0694 12.5885C52.7289 13.2267 52.2652 13.7538 51.6782 14.1715C51.0913 14.5884 50.406 14.8993 49.6231 15.104C48.8403 15.3088 48.0061 15.4108 47.1214 15.4108H45.2828V21.0305H41.7852V5.5708ZM45.2828 12.8344H46.7125C47.1548 12.8344 47.5757 12.7974 47.9761 12.7242C48.3757 12.6502 48.7248 12.5195 49.0225 12.332C49.3203 12.1445 49.5547 11.8986 49.725 11.596C49.8952 11.2934 49.9799 10.9135 49.9799 10.4546C49.9799 9.65283 49.6993 9.06404 49.1372 8.68742C48.5759 8.31161 47.8606 8.1233 46.9922 8.1233H45.2819V12.8352L45.2828 12.8344Z" fill="currentColor"/>
<path d="M63.6407 5.30087C64.7812 5.30087 65.8361 5.48096 66.8064 5.84032C67.7766 6.2005 68.6099 6.72021 69.3081 7.39863C70.0062 8.07787 70.5547 8.91664 70.9551 9.91412C71.3546 10.9124 71.5548 12.0489 71.5548 13.3251C71.5548 14.6014 71.3503 15.6811 70.9422 16.6621C70.5341 17.644 69.972 18.4778 69.2567 19.1653C68.5415 19.8528 67.6953 20.3799 66.7165 20.7483C65.7377 21.1167 64.6777 21.3 63.538 21.3C62.3984 21.3 61.3426 21.1241 60.3724 20.7721C59.4022 20.4202 58.568 19.9054 57.8698 19.2261C57.1717 18.5477 56.6224 17.7131 56.2228 16.723C55.8224 15.7337 55.623 14.6006 55.623 13.3243C55.623 12.0481 55.8275 10.9651 56.2356 9.97497C56.6438 8.98571 57.2059 8.14283 57.9211 7.44714C58.6364 6.75228 59.4826 6.22023 60.4614 5.85183C61.4401 5.48343 62.4994 5.30005 63.6398 5.30005L63.6407 5.30087ZM59.326 13.3251C59.326 14.2412 59.4407 15.0389 59.6708 15.7181C59.901 16.3973 60.2107 16.9615 60.6025 17.4113C60.9935 17.8611 61.4487 18.1966 61.968 18.417C62.4874 18.6382 63.0444 18.7484 63.6407 18.7484C64.237 18.7484 64.7684 18.6382 65.2877 18.417C65.807 18.1958 66.2536 17.8611 66.6284 17.4113C67.0023 16.9615 67.3009 16.3973 67.5216 15.7181C67.7424 15.0397 67.8536 14.242 67.8536 13.3251C67.8536 12.4082 67.7389 11.558 67.5088 10.8713C67.2786 10.1838 66.9681 9.61562 66.5771 9.1658C66.1852 8.71599 65.73 8.38459 65.2115 8.17161C64.6922 7.95945 64.1352 7.85255 63.5389 7.85255C62.9425 7.85255 62.3898 7.96685 61.8791 8.19628C61.3683 8.42571 60.9259 8.76451 60.5512 9.21432C60.1765 9.66413 59.8787 10.2324 59.658 10.9198C59.4364 11.6073 59.326 12.4082 59.326 13.3243V13.3251Z" fill="currentColor"/>
<path d="M74.6191 5.5708H78.1168V18.3802H84.6021V21.0305H74.6191V5.5708Z" fill="currentColor"/>
<path d="M86.8483 5.5708L90.2697 11.5828L93.7417 5.5708H97.5456L91.9287 14.6501V21.0305H88.4311V14.6501L82.916 5.5708H86.8483Z" fill="currentColor"/>
<path d="M99.4866 5.5708L103.112 14.9207C103.401 15.6895 103.69 16.4543 103.98 17.2149C104.269 17.9756 104.542 18.7404 104.797 19.5092H104.849C105.103 18.7404 105.376 17.9756 105.666 17.2149C105.955 16.4543 106.244 15.6895 106.534 14.9207L110.184 5.5708H111.614L105.435 21.0305H104.132L98.0312 5.5708H99.4866Z" fill="currentColor"/>
<path d="M115.035 5.5708V21.0305H113.707V5.5708H115.035Z" fill="currentColor"/>
<path d="M119.119 5.5708H128.311V6.60118H120.447V12.5639H127.647V13.5942H120.447V19.9993H128.388V21.0297H119.12V5.5708H119.119Z" fill="currentColor"/>
<path d="M131.094 5.5708L133.75 14.6748C133.988 15.4765 134.213 16.2783 134.427 17.0793C134.64 17.881 134.83 18.691 135.001 19.5084H135.052C135.239 18.6902 135.447 17.881 135.677 17.0793C135.908 16.2775 136.141 15.4765 136.38 14.6748L139.137 5.5708H140.388L143.197 14.6748C143.435 15.493 143.674 16.2989 143.912 17.0916C144.15 17.8851 144.372 18.691 144.576 19.5084H144.628C144.815 18.6902 145.006 17.8851 145.202 17.0916C145.398 16.298 145.614 15.493 145.853 14.6748L148.432 5.5708H149.785L145.266 21.0305H143.912L140.797 10.675C140.61 10.0862 140.431 9.4933 140.261 8.89629C140.09 8.29928 139.929 7.69816 139.776 7.09293H139.724C139.571 7.69816 139.414 8.29517 139.252 8.88395C139.09 9.47274 138.916 10.0706 138.728 10.675L135.69 21.0305H134.362L129.715 5.5708H131.093H131.094Z" fill="currentColor"/>
<path fill-rule="evenodd" clip-rule="evenodd" d="M12 0L24 6.75V20.25L12 27L0 20.25V6.75L12 0ZM1.25088 8.09826L11.3746 13.1471V25.241L1.25088 19.5464V8.09826ZM12.6254 25.241L22.7491 19.5464V8.09826L12.6254 13.1471V25.241ZM12 12.0899L22.0665 7.06963L12 1.40724L1.93353 7.06963L12 12.0899ZM12.0666 4.44802C12.412 4.44802 12.692 4.72084 12.692 5.05737V9.80654C12.692 10.1431 12.412 10.4159 12.0666 10.4159C11.7212 10.4159 11.4411 10.1431 11.4411 9.80654V5.05737C11.4411 4.72084 11.7212 4.44802 12.0666 4.44802ZM9.27168 14.6615C9.46616 14.9396 9.3924 15.3187 9.10694 15.5081L5.07842 18.1821C4.79295 18.3715 4.40388 18.2997 4.2094 18.0216C4.01491 17.7434 4.08867 17.3644 4.37414 17.1749L8.40266 14.501C8.68813 14.3115 9.0772 14.3834 9.27168 14.6615ZM14.6741 14.7046C14.8468 14.4132 15.2293 14.3133 15.5285 14.4816L19.75 16.8562C20.0491 17.0245 20.1516 17.3971 19.9789 17.6886C19.8062 17.98 19.4237 18.0799 19.1245 17.9116L14.903 15.537C14.6039 15.3688 14.5014 14.9961 14.6741 14.7046Z" fill="currentColor"/>
</svg>
