<svg width="109" height="17" viewBox="0 0 109 17" fill="none" xmlns="http://www.w3.org/2000/svg">
<path d="M0.785156 0.570801H6.42772C7.36372 0.570801 8.21075 0.677703 8.96794 0.889863C9.72513 1.10285 10.3719 1.41369 10.9084 1.82238C11.4448 2.2319 11.8572 2.72612 12.1464 3.30668C12.4356 3.88724 12.5802 4.55415 12.5802 5.30658C12.5802 6.18976 12.4099 6.95041 12.0694 7.58853C11.7289 8.22666 11.2652 8.75377 10.6782 9.17151C10.0913 9.58843 9.406 9.89927 8.62314 10.104C7.84028 10.3088 7.00609 10.4108 6.12142 10.4108H4.28277V16.0305H0.785156V0.570801ZM4.28277 7.83441H5.71245C6.15479 7.83441 6.57573 7.7974 6.97614 7.72422C7.3757 7.65021 7.72478 7.51946 8.02252 7.33197C8.32026 7.14448 8.55469 6.8986 8.72495 6.59599C8.89522 6.29337 8.97992 5.91346 8.97992 5.4546C8.97992 4.65283 8.69929 4.06404 8.13717 3.68742C7.57591 3.31161 6.86064 3.1233 5.99223 3.1233H4.28192V7.83523L4.28277 7.83441Z" fill="currentColor"/>
<path d="M22.6407 0.300871C23.7812 0.300871 24.8361 0.480961 25.8064 0.840317C26.7766 1.2005 27.6099 1.72021 28.3081 2.39863C29.0062 3.07787 29.5547 3.91664 29.9551 4.91412C30.3546 5.91242 30.5548 7.04888 30.5548 8.32513C30.5548 9.60138 30.3503 10.6811 29.9422 11.6621C29.5341 12.644 28.972 13.4778 28.2567 14.1653C27.5415 14.8528 26.6953 15.3799 25.7165 15.7483C24.7377 16.1167 23.6777 16.3 22.538 16.3C21.3984 16.3 20.3426 16.1241 19.3724 15.7721C18.4022 15.4202 17.568 14.9054 16.8698 14.2261C16.1717 13.5477 15.6224 12.7131 15.2228 11.723C14.8224 10.7337 14.623 9.60056 14.623 8.32431C14.623 7.04806 14.8275 5.96505 15.2356 4.97497C15.6438 3.98571 16.2059 3.14283 16.9211 2.44714C17.6364 1.75228 18.4826 1.22023 19.4614 0.85183C20.4401 0.483428 21.4994 0.300049 22.6398 0.300049L22.6407 0.300871ZM18.326 8.32513C18.326 9.2412 18.4407 10.0389 18.6708 10.7181C18.901 11.3973 19.2107 11.9615 19.6025 12.4113C19.9935 12.8611 20.4487 13.1966 20.968 13.417C21.4874 13.6382 22.0444 13.7484 22.6407 13.7484C23.237 13.7484 23.7684 13.6382 24.2877 13.417C24.807 13.1958 25.2536 12.8611 25.6284 12.4113C26.0023 11.9615 26.3009 11.3973 26.5216 10.7181C26.7424 10.0397 26.8536 9.24202 26.8536 8.32513C26.8536 7.40824 26.7389 6.55795 26.5088 5.87131C26.2786 5.18384 25.9681 4.61562 25.5771 4.1658C25.1852 3.71599 24.73 3.38459 24.2115 3.17161C23.6922 2.95945 23.1352 2.85255 22.5389 2.85255C21.9425 2.85255 21.3898 2.96685 20.8791 3.19628C20.3683 3.42571 19.9259 3.76451 19.5512 4.21432C19.1765 4.66413 18.8787 5.23236 18.658 5.91983C18.4364 6.60729 18.326 7.40824 18.326 8.32431V8.32513Z" fill="currentColor"/>
<path d="M33.6191 0.570801H37.1168V13.3802H43.6021V16.0305H33.6191V0.570801Z" fill="currentColor"/>
<path d="M45.8483 0.570801L49.2697 6.58283L52.7417 0.570801H56.5456L50.9287 9.65011V16.0305H47.4311V9.65011L41.916 0.570801H45.8483Z" fill="currentColor"/>
<path d="M58.4866 0.570801L62.1117 9.92065C62.4009 10.6895 62.6901 11.4543 62.9801 12.2149C63.2693 12.9756 63.5422 13.7404 63.7972 14.5092H63.8485C64.1035 13.7404 64.3764 12.9756 64.6656 12.2149C64.9548 11.4543 65.244 10.6895 65.534 9.92065L69.1839 0.570801H70.6136L64.4346 16.0305H63.1324L57.0312 0.570801H58.4866Z" fill="currentColor"/>
<path d="M74.0349 0.570801V16.0305H72.707V0.570801H74.0349Z" fill="currentColor"/>
<path d="M78.1191 0.570801H87.3106V1.60118H79.447V7.56386H86.6467V8.59424H79.447V14.9993H87.3877V16.0297H78.12V0.570801H78.1191Z" fill="currentColor"/>
<path d="M90.094 0.570801L92.7498 9.67478C92.9876 10.4765 93.2135 11.2783 93.4265 12.0793C93.6396 12.881 93.8304 13.691 94.0006 14.5084H94.052C94.2393 13.6902 94.4472 12.881 94.6774 12.0793C94.9075 11.2775 95.1411 10.4765 95.3798 9.67478L98.1374 0.570801H99.3882L102.197 9.67478C102.435 10.493 102.674 11.2989 102.912 12.0916C103.15 12.8851 103.372 13.691 103.576 14.5084H103.628C103.815 13.6902 104.006 12.8851 104.202 12.0916C104.398 11.298 104.614 10.493 104.853 9.67478L107.432 0.570801H108.785L104.266 16.0305H102.912L99.7972 5.67498C99.6098 5.08619 99.431 4.4933 99.2607 3.89629C99.0905 3.29928 98.9288 2.69816 98.7756 2.09293H98.7243C98.5711 2.69816 98.4137 3.29517 98.252 3.88395C98.0903 4.47274 97.9158 5.07057 97.7284 5.67498L94.6902 16.0305H93.3624L88.7148 0.570801H90.0932H90.094Z" fill="currentColor"/>
</svg>