<svg width="259" height="51" viewBox="0 0 259 51" fill="none" xmlns="http://www.w3.org/2000/svg">
<path d="M71.8457 12.0815H81.6238C83.2458 12.0815 84.7136 12.2668 86.0257 12.6345C87.3379 13.0035 88.4588 13.5422 89.3884 14.2504C90.318 14.9601 91.0326 15.8165 91.5338 16.8226C92.0349 17.8286 92.2855 18.9843 92.2855 20.2882C92.2855 21.8187 91.9904 23.1368 91.4003 24.2427C90.8102 25.3485 90.0067 26.2619 88.9896 26.9858C87.9725 27.7083 86.7849 28.247 85.4282 28.6018C84.0716 28.9566 82.626 29.1333 81.093 29.1333H77.9068V38.8719H71.8457V12.0815ZM77.9068 24.6687H80.3843C81.1508 24.6687 81.8803 24.6046 82.5741 24.4778C83.2665 24.3495 83.8715 24.123 84.3874 23.798C84.9034 23.4731 85.3096 23.0471 85.6047 22.5227C85.8997 21.9983 86.0465 21.3399 86.0465 20.5447C86.0465 19.1553 85.5602 18.135 84.5861 17.4824C83.6135 16.8311 82.374 16.5048 80.8691 16.5048H77.9053V24.6702L77.9068 24.6687Z" fill="white"/>
<path d="M109.718 11.6137C111.694 11.6137 113.523 11.9258 115.204 12.5485C116.885 13.1727 118.329 14.0733 119.539 15.249C120.749 16.426 121.699 17.8795 122.393 19.6081C123.086 21.3381 123.433 23.3074 123.433 25.5191C123.433 27.7307 123.078 29.6017 122.371 31.3018C121.664 33.0033 120.69 34.4482 119.45 35.6395C118.211 36.8309 116.744 37.7443 115.048 38.3827C113.352 39.0211 111.515 39.3389 109.54 39.3389C107.565 39.3389 105.736 39.0339 104.054 38.424C102.373 37.8141 100.927 36.9221 99.7177 35.745C98.5078 34.5694 97.556 33.123 96.8636 31.4072C96.1697 29.6929 95.8242 27.7293 95.8242 25.5176C95.8242 23.306 96.1786 21.4293 96.8858 19.7135C97.593 17.9992 98.5671 16.5386 99.8066 15.333C101.046 14.1289 102.512 13.2069 104.209 12.5685C105.905 11.9301 107.74 11.6123 109.717 11.6123L109.718 11.6137ZM102.241 25.5191C102.241 27.1065 102.44 28.4888 102.839 29.6659C103.237 30.8429 103.774 31.8205 104.453 32.6C105.131 33.3795 105.92 33.9609 106.82 34.3428C107.72 34.7261 108.685 34.9171 109.718 34.9171C110.752 34.9171 111.672 34.7261 112.572 34.3428C113.472 33.9594 114.246 33.3795 114.896 32.6C115.543 31.8205 116.061 30.8429 116.443 29.6659C116.826 28.4902 117.019 27.108 117.019 25.5191C117.019 23.9302 116.82 22.4567 116.421 21.2668C116.022 20.0755 115.484 19.0908 114.807 18.3113C114.128 17.5318 113.339 16.9576 112.44 16.5885C111.54 16.2208 110.575 16.0356 109.542 16.0356C108.508 16.0356 107.55 16.2336 106.665 16.6312C105.78 17.0288 105.014 17.6159 104.364 18.3954C103.715 19.1749 103.199 20.1596 102.816 21.3509C102.432 22.5422 102.241 23.9302 102.241 25.5176V25.5191Z" fill="white"/>
<path d="M128.744 12.0815H134.805V34.2791H146.044V38.8719H128.744V12.0815Z" fill="white"/>
<path d="M149.937 12.0815L155.866 22.4999L161.883 12.0815H168.475L158.741 27.8152V38.8719H152.68V27.8152L143.123 12.0815H149.937Z" fill="white"/>
<path d="M171.836 12.0815L178.118 28.284C178.62 29.6164 179.121 30.9417 179.623 32.2598C180.124 33.578 180.597 34.9032 181.039 36.2356H181.128C181.57 34.9032 182.043 33.578 182.544 32.2598C183.045 30.9417 183.546 29.6164 184.049 28.284L190.374 12.0815H192.851L182.144 38.8719H179.887L169.314 12.0815H171.836Z" fill="white"/>
<path d="M198.782 12.0815V38.8719H196.48V12.0815H198.782Z" fill="white"/>
<path d="M205.859 12.0815H221.787V13.8671H208.16V24.1999H220.637V25.9855H208.16V37.0849H221.921V38.8705H205.861V12.0815H205.859Z" fill="white"/>
<path d="M226.611 12.0815L231.213 27.8579C231.625 29.2473 232.016 30.6367 232.386 32.0247C232.755 33.4141 233.085 34.8177 233.381 36.2342H233.469C233.794 34.8163 234.154 33.4141 234.553 32.0247C234.952 30.6353 235.357 29.2473 235.771 27.8579L240.549 12.0815H242.717L247.584 27.8579C247.996 29.2758 248.41 30.6723 248.824 32.0461C249.236 33.4212 249.62 34.8177 249.974 36.2342H250.063C250.388 34.8163 250.719 33.4212 251.058 32.0461C251.398 30.6709 251.773 29.2758 252.186 27.8579L256.655 12.0815H259.001L251.169 38.8719H248.824L243.425 20.9266C243.101 19.9063 242.791 18.8789 242.496 17.8443C242.201 16.8098 241.921 15.7681 241.655 14.7193H241.566C241.301 15.7681 241.028 16.8026 240.748 17.8229C240.468 18.8433 240.165 19.8792 239.84 20.9266L234.576 38.8719H232.274L224.221 12.0815H226.609H226.611Z" fill="white"/>
<path d="M1 13.3711L21.6444 1.45206L42.2888 13.3711V37.2092L21.6444 49.1283L1 37.2092V13.3711Z" stroke="white" stroke-width="2"/>
<path d="M21.7715 8.80127L21.7715 18.077" stroke="white" stroke-width="2" stroke-linecap="round"/>
<path d="M15.4707 28.2295L7.80493 33.452" stroke="white" stroke-width="2" stroke-linecap="round"/>
<path d="M35.7969 32.876L27.7639 28.2381" stroke="white" stroke-width="2" stroke-linecap="round"/>
</svg>
