<svg width="24" height="24" viewBox="0 0 24 24" fill="none" xmlns="http://www.w3.org/2000/svg">
<g id="Frame 1171276582">
<g id="Group 1686555331">
<path id="Vector" d="M17.0866 16.555L14.0508 17.6178V14.9759L17.0866 13.9131V16.555Z" fill="white"/>
<path id="Vector_2" d="M14.0476 17.6161L12.707 16.6381V13.9961L14.0476 14.9742V17.6161Z" fill="white"/>
<path id="Vector_3" d="M12.707 16.6384L15.7233 15.5823V12.9404L12.707 13.9964V16.6384Z" fill="white"/>
<path id="Vector_4" d="M15.7227 15.5822L15.9779 15.4885V12.8467L15.7227 12.9403V15.5822Z" fill="white"/>
<path id="Vector_5" d="M15.9805 15.4903L16.2191 15.3938V12.752L15.9805 12.8484V15.4903Z" fill="white"/>
<path id="Vector_6" d="M16.2188 15.3924L16.4406 15.2933V12.6514L16.2188 12.7505V15.3924Z" fill="white"/>
<path id="Vector_7" d="M16.4375 15.2947L16.6428 15.1928V12.5508L16.4375 12.6527V15.2947Z" fill="white"/>
<path id="Vector_8" d="M16.6445 15.1909L16.8332 15.0862V12.4443L16.6445 12.549V15.1909Z" fill="white"/>
<path id="Vector_9" d="M16.832 15.0872L17.004 14.9799V12.3379L16.832 12.4453V15.0872Z" fill="white"/>
<path id="Vector_10" d="M17.0039 14.9796L17.1592 14.8694V12.2275L17.0039 12.3376V14.9796Z" fill="white"/>
<path id="Vector_11" d="M17.1602 14.87L17.2988 14.7571V12.1152L17.1602 12.2281V14.87Z" fill="white"/>
<path id="Vector_12" d="M17.3008 14.7576L17.4227 14.642V12L17.3008 12.1157V14.7576Z" fill="white"/>
<path id="Vector_13" d="M17.4219 14.6412L17.5272 14.5227V11.8809L17.4219 11.9992V14.6412Z" fill="white"/>
<path id="Vector_14" d="M17.5273 14.523L17.6183 14.4016V11.7598L17.5273 11.8812V14.523Z" fill="white"/>
<path id="Vector_15" d="M17.6172 14.4009L17.6922 14.2777V11.6357L17.6172 11.759V14.4009Z" fill="white"/>
<path id="Vector_16" d="M17.6953 14.2778L17.7543 14.1527V11.5107L17.6953 11.6358V14.2778Z" fill="white"/>
<path id="Vector_17" d="M17.7539 14.1536L17.7971 14.0266V11.3848L17.7539 11.5116V14.1536Z" fill="white"/>
<path id="Vector_18" d="M17.7969 14.0255L17.824 13.8968V11.2549L17.7969 11.3836V14.0255Z" fill="white"/>
<path id="Vector_19" d="M17.8203 13.8975L17.8315 13.767V11.125L17.8203 11.2556V13.8975Z" fill="white"/>
<path id="Vector_20" d="M17.8289 13.7675L17.8242 13.6351V10.9932L17.8289 11.1256V13.7675Z" fill="white"/>
<path id="Vector_21" d="M17.8294 13.6355L17.8086 13.5012V10.8594L17.8294 10.9936V13.6355Z" fill="white"/>
<path id="Vector_22" d="M17.81 13.4996L17.7734 13.3635V10.7217L17.81 10.8578V13.4996Z" fill="white"/>
<path id="Vector_23" d="M17.7714 13.3647L17.7188 13.2268V10.585L17.7714 10.7228V13.3647Z" fill="white"/>
<path id="Vector_24" d="M17.7184 13.2271L17.6523 13.0872V10.4453L17.7184 10.5853V13.2271Z" fill="white"/>
<path id="Vector_25" d="M17.6512 13.0865L17.5703 12.9457V10.3037L17.6512 10.4446V13.0865Z" fill="white"/>
<path id="Vector_26" d="M17.5686 12.9458L17.4727 12.8041V10.1621L17.5686 10.3038V12.9458Z" fill="white"/>
<path id="Vector_27" d="M17.478 12.8041L17.3672 12.6615V10.0195L17.478 10.1621V12.8041Z" fill="white"/>
<path id="Vector_28" d="M17.3602 12.6615L17.2344 12.518V9.87598L17.3602 10.0195V12.6615Z" fill="white"/>
<path id="Vector_29" d="M17.2383 12.5178L17.0977 12.3733V9.73145L17.2383 9.8758V12.5178Z" fill="white"/>
<path id="Vector_30" d="M17.1009 12.3731L16.9453 12.2279V9.58594L17.1009 9.73123V12.3731Z" fill="white"/>
<path id="Vector_31" d="M16.94 12.2276L16.7695 12.0814V9.43945L16.94 9.58559V12.2276Z" fill="white"/>
<path id="Vector_32" d="M16.7714 12.0809L16.5859 11.9339V9.29199L16.7714 9.43897V12.0809Z" fill="white"/>
<path id="Vector_33" d="M16.5831 11.9343L16.3828 11.7864V9.14453L16.5831 9.29245V11.9343Z" fill="white"/>
<path id="Vector_34" d="M16.3875 11.7873L15.8477 11.4017V8.75977L16.3875 9.14544V11.7873Z" fill="white"/>
<path id="Vector_35" d="M15.8419 11.4014L15.6797 11.2884V8.64648L15.8419 8.75939V11.4014Z" fill="white"/>
<path id="Vector_36" d="M15.6832 11.2875L15.5195 11.1791V8.53711L15.6832 8.64561V11.2875Z" fill="white"/>
<path id="Vector_37" d="M15.5168 11.1804L15.3516 11.0764V8.43457L15.5168 8.53846V11.1804Z" fill="white"/>
<path id="Vector_38" d="M15.3544 11.0764L15.1875 10.9769V8.33496L15.3544 8.43455V11.0764Z" fill="white"/>
<path id="Vector_39" d="M15.1879 10.9762L15.0195 10.8811V8.23926L15.1879 8.33424V10.9762Z" fill="white"/>
<path id="Vector_40" d="M15.0177 10.8809L14.8477 10.7904V8.14844L15.0177 8.23901V10.8809Z" fill="white"/>
<path id="Vector_41" d="M14.8513 10.7905L14.6797 10.7045V8.0625L14.8513 8.14857V10.7905Z" fill="white"/>
<path id="Vector_42" d="M14.6809 10.706L14.5078 10.6244V7.98242L14.6809 8.06398V10.706Z" fill="white"/>
<path id="Vector_43" d="M14.5029 10.6233L14.3281 10.5462V7.9043L14.5029 7.98135V10.6233Z" fill="white"/>
<path id="Vector_44" d="M14.3326 10.5465L14.1562 10.474V7.83203L14.3326 7.90468V10.5465Z" fill="white"/>
<path id="Vector_45" d="M14.1523 10.4734L13.9766 10.4047V7.7627L14.1523 7.83147V10.4734Z" fill="white"/>
<path id="Vector_46" d="M13.9776 10.4053L13.8008 10.3412V7.69922L13.9776 7.76338V10.4053Z" fill="white"/>
<path id="Vector_47" d="M13.8029 10.3412L13.625 10.2816V7.63965L13.8029 7.69919V10.3412Z" fill="white"/>
<path id="Vector_48" d="M13.6205 10.2808L13.4414 10.2259V7.58398L13.6205 7.63881V10.2808Z" fill="white"/>
<path id="Vector_49" d="M13.4419 10.2265L13.2617 10.1762V7.53418L13.4419 7.5846V10.2265Z" fill="white"/>
<path id="Vector_50" d="M13.2672 10.175L13.0859 10.1293V7.4873L13.2672 7.53301V10.175Z" fill="white"/>
<path id="Vector_51" d="M13.0808 10.1303L12.8984 10.0892V7.44727L13.0808 7.48836V10.1303Z" fill="white"/>
<path id="Vector_52" d="M12.8983 10.0886L12.7148 10.052V7.41016L12.8983 7.44664V10.0886Z" fill="white"/>
<path id="Vector_53" d="M12.7159 10.0526L12.5312 10.0208V7.37891L12.7159 7.41078V10.0526Z" fill="white"/>
<path id="Vector_54" d="M12.5295 10.0217L12.3438 9.99441V7.35254L12.5295 7.3798V10.0217Z" fill="white"/>
<path id="Vector_55" d="M12.3448 9.99337L12.1602 9.96999V7.32812L12.3448 7.3515V9.99337Z" fill="white"/>
<path id="Vector_56" d="M12.1617 9.96933L11.9766 9.95057V7.30859L12.1617 7.32746V9.96933Z" fill="white"/>
<path id="Vector_57" d="M11.9787 9.95213L11.793 9.93787V7.2959L11.9787 7.31016V9.95213Z" fill="white"/>
<path id="Vector_58" d="M11.7919 9.93677L11.6055 9.92713V7.28516L11.7919 7.2948V9.93677Z" fill="white"/>
<path id="Vector_59" d="M11.6049 9.92728L11.418 9.92214V7.28027L11.6049 7.28531V9.92728Z" fill="white"/>
<path id="Vector_60" d="M11.418 9.92179L11.2305 9.92127V7.2793L11.418 7.27993V9.92179Z" fill="white"/>
<path id="Vector_61" d="M11.2311 9.92127L11.043 9.92525V7.28339L11.2311 7.2793V9.92127Z" fill="white"/>
<path id="Vector_62" d="M11.0403 9.92507L10.8516 9.93367V7.2918L11.0403 7.2832V9.92507Z" fill="white"/>
<path id="Vector_63" d="M10.8534 9.93484L10.6641 9.94805V7.30618L10.8534 7.29297V9.93484Z" fill="white"/>
<path id="Vector_64" d="M10.6664 9.94753L10.4766 9.96525V7.32338L10.6664 7.30566V9.94753Z" fill="white"/>
<path id="Vector_65" d="M10.4734 9.96609L10.2852 9.98779V7.34592L10.4734 7.32422V9.96609Z" fill="white"/>
<path id="Vector_66" d="M10.2899 9.9866L10.1016 10.013V7.37104L10.2899 7.34473V9.9866Z" fill="white"/>
<path id="Vector_67" d="M10.0986 10.0131L9.91016 10.0441V7.40223L10.0986 7.37109V10.0131Z" fill="white"/>
<path id="Vector_68" d="M9.90734 10.0442L9.71875 10.0801V7.43809L9.90734 7.40234V10.0442Z" fill="white"/>
<path id="Vector_69" d="M9.72385 10.0805L9.53516 10.1209V7.47894L9.72385 7.43848V10.0805Z" fill="white"/>
<path id="Vector_70" d="M9.53266 10.1205L9.34375 10.1657V7.5237L9.53266 7.47852V10.1205Z" fill="white"/>
<path id="Vector_71" d="M9.34125 10.1654L9.15234 10.2152V7.57334L9.34125 7.52344V10.1654Z" fill="white"/>
<path id="Vector_72" d="M9.15005 10.2161L8.96094 10.2707V7.62873L9.15005 7.57422V10.2161Z" fill="white"/>
<path id="Vector_73" d="M8.96657 10.2699L8.77734 10.3291V7.68726L8.96657 7.62793V10.2699Z" fill="white"/>
<path id="Vector_74" d="M8.77526 10.3294L8.58594 10.3933V7.75145L8.77526 7.6875V10.3294Z" fill="white"/>
<path id="Vector_75" d="M8.58842 10.3928L5.40625 11.5069V8.86503L8.58842 7.75098V10.3928Z" fill="white"/>
<path id="Vector_76" d="M5.40216 11.5076L4.03516 10.5315V7.88965L5.40216 8.86574V11.5076Z" fill="white"/>
<path id="Vector_77" d="M4.03516 10.5314L7.21733 9.41726V6.77539L4.03516 7.88954V10.5314Z" fill="white"/>
<path id="Vector_78" d="M7.21875 9.4164L7.50274 9.32058V6.67871L7.21875 6.77453V9.4164Z" fill="white"/>
<path id="Vector_79" d="M7.50391 9.32113L7.78978 9.23182V6.58984L7.50391 6.67927V9.32113Z" fill="white"/>
<path id="Vector_80" d="M7.78906 9.2326L8.07662 9.14968V6.50781L7.78906 6.59063V9.2326Z" fill="white"/>
<path id="Vector_81" d="M8.07422 9.14896L8.36366 9.07253V6.43066L8.07422 6.50709V9.14896Z" fill="white"/>
<path id="Vector_82" d="M8.36719 9.07214L8.65852 9.00233V6.36035L8.36719 6.43027V9.07214Z" fill="white"/>
<path id="Vector_83" d="M8.66016 9.00325L8.95316 8.93983V6.29785L8.66016 6.36127V9.00325Z" fill="white"/>
<path id="Vector_84" d="M8.94922 8.94L9.24411 8.88308V6.24121L8.94922 6.29803V8.94Z" fill="white"/>
<path id="Vector_85" d="M9.25 8.88272L9.54678 8.8323V6.19043L9.25 6.24085V8.88272Z" fill="white"/>
<path id="Vector_86" d="M9.53906 8.8313L9.83752 8.78738V6.14551L9.53906 6.18943V8.8313Z" fill="white"/>
<path id="Vector_87" d="M9.83984 8.78769L10.1402 8.75027V6.1084L9.83984 6.14582V8.78769Z" fill="white"/>
<path id="Vector_88" d="M10.1406 8.75099L10.4402 8.71902V6.07715L10.1406 6.10912V8.75099Z" fill="white"/>
<path id="Vector_89" d="M10.4414 8.7191L10.7405 8.69363V6.05176L10.4414 6.07723V8.7191Z" fill="white"/>
<path id="Vector_90" d="M10.7383 8.69415L11.0367 8.67518V6.0332L10.7383 6.05228V8.69415Z" fill="white"/>
<path id="Vector_91" d="M11.043 8.67408L11.3409 8.66151V6.01953L11.043 6.03211V8.67408Z" fill="white"/>
<path id="Vector_92" d="M11.3398 8.66173L11.6373 8.65554V6.01367L11.3398 6.01975V8.66173Z" fill="white"/>
<path id="Vector_93" d="M11.6289 8.65554L11.9257 8.65586V6.01399L11.6289 6.01367V8.65554Z" fill="white"/>
<path id="Vector_94" d="M11.9297 8.65554L12.2258 8.66235V6.02038L11.9297 6.01367V8.65554Z" fill="white"/>
<path id="Vector_95" d="M12.2266 8.66248L12.5223 8.67569V6.03382L12.2266 6.02051V8.66248Z" fill="white"/>
<path id="Vector_96" d="M12.5234 8.67605L12.8184 8.69576V6.05378L12.5234 6.03418V8.67605Z" fill="white"/>
<path id="Vector_97" d="M12.8164 8.69569L13.111 8.72179V6.07992L12.8164 6.05371V8.69569Z" fill="white"/>
<path id="Vector_98" d="M13.1133 8.72195L13.408 8.75382V6.11195L13.1133 6.08008V8.72195Z" fill="white"/>
<path id="Vector_99" d="M13.4062 8.7532L13.6978 8.79136V6.14949L13.4062 6.11133V8.7532Z" fill="white"/>
<path id="Vector_100" d="M13.6992 8.79226L13.9877 8.83671V6.19484L13.6992 6.15039V8.79226Z" fill="white"/>
<path id="Vector_101" d="M13.9883 8.83718L14.2736 8.88803V6.24605L13.9883 6.19531V8.83718Z" fill="white"/>
<path id="Vector_102" d="M14.2695 8.88807L14.5519 8.9451V6.30323L14.2695 6.24609V8.88807Z" fill="white"/>
<path id="Vector_103" d="M14.5547 8.9446L14.8339 9.00803V6.36616L14.5547 6.30273V8.9446Z" fill="white"/>
<path id="Vector_104" d="M14.8359 9.00808L15.1122 9.07779V6.43592L14.8359 6.36621V9.00808Z" fill="white"/>
<path id="Vector_105" d="M15.1094 9.07644L15.3824 9.15255V6.51068L15.1094 6.43457V9.07644Z" fill="white"/>
<path id="Vector_106" d="M15.3828 9.15261L15.6529 9.23501V6.59304L15.3828 6.51074V9.15261Z" fill="white"/>
<path id="Vector_107" d="M15.6523 9.23572L15.9192 9.32441V6.68244L15.6523 6.59375V9.23572Z" fill="white"/>
<path id="Vector_108" d="M15.918 9.32361L16.1808 9.41849V6.77662L15.918 6.68164V9.32361Z" fill="white"/>
<path id="Vector_109" d="M16.1797 9.41921L16.4375 9.52027V6.8784L16.1797 6.77734V9.41921Z" fill="white"/>
<path id="Vector_110" d="M16.4375 9.52078L16.6901 9.62802V6.98604L16.4375 6.87891V9.52078Z" fill="white"/>
<path id="Vector_111" d="M16.6953 9.62733L16.9429 9.74065V7.09867L16.6953 6.98535V9.62733Z" fill="white"/>
<path id="Vector_112" d="M16.9375 9.74061L17.1801 9.86001V7.21814L16.9375 7.09863V9.74061Z" fill="white"/>
<path id="Vector_113" d="M17.1836 9.85964L17.421 9.98534V7.34336L17.1836 7.21777V9.85964Z" fill="white"/>
<path id="Vector_114" d="M17.4219 9.9867L17.6542 10.1185V7.4765L17.4219 7.34473V9.9867Z" fill="white"/>
<path id="Vector_115" d="M17.6523 10.1176L17.8797 10.2554V7.61354L17.6523 7.47559V10.1176Z" fill="white"/>
<path id="Vector_116" d="M17.8789 10.2561L18.1011 10.4002V7.7583L17.8789 7.61426V10.2561Z" fill="white"/>
<path id="Vector_117" d="M18.1055 10.4007L18.3226 10.5509V7.90891L18.1055 7.75879V10.4007Z" fill="white"/>
<path id="Vector_118" d="M18.3203 10.5492L18.8466 10.925V8.28305L18.3203 7.90723V10.5492Z" fill="white"/>
<path id="Vector_119" d="M18.8438 10.9262L19.0517 11.0795V8.43765L18.8438 8.28418V10.9262Z" fill="white"/>
<path id="Vector_120" d="M19.0508 11.0794L19.2456 11.2331V8.59118L19.0508 8.4375V11.0794Z" fill="white"/>
<path id="Vector_121" d="M19.25 11.2327L19.4314 11.3867V8.74471L19.25 8.59082V11.2327Z" fill="white"/>
<path id="Vector_122" d="M19.4258 11.3861L19.5939 11.5403V8.89845L19.4258 8.74414V11.3861Z" fill="white"/>
<path id="Vector_123" d="M19.6016 11.5413L19.7565 11.6958V9.05394L19.6016 8.89941V11.5413Z" fill="white"/>
<path id="Vector_124" d="M19.7539 11.6956L19.8954 11.8504V9.20844L19.7539 9.05371V11.6956Z" fill="white"/>
<path id="Vector_125" d="M19.8906 11.851L20.0189 12.006V9.36414L19.8906 9.20898V11.851Z" fill="white"/>
<path id="Vector_126" d="M20.0234 12.0061L20.1385 12.1616V9.51962L20.0234 9.36426V12.0061Z" fill="white"/>
<path id="Vector_127" d="M20.1367 12.1605L20.2385 12.3161V9.67423L20.1367 9.51855V12.1605Z" fill="white"/>
<path id="Vector_128" d="M20.2383 12.3167L20.3268 12.4727V9.83079L20.2383 9.6748V12.3167Z" fill="white"/>
<path id="Vector_129" d="M20.3281 12.4719L20.4035 12.6277V9.98575L20.3281 9.83008V12.4719Z" fill="white"/>
<path id="Vector_130" d="M20.4062 12.6283L20.4687 12.7833V10.1414L20.4062 9.98633V12.6283Z" fill="white"/>
<path id="Vector_131" d="M20.4648 12.7836L20.5143 12.9379V10.2959L20.4648 10.1416V12.7836Z" fill="white"/>
<path id="Vector_132" d="M20.5195 12.9379L20.5561 13.0915V10.4495L20.5195 10.2959V12.9379Z" fill="white"/>
<path id="Vector_133" d="M20.5547 13.0912L20.5784 13.244V10.6022L20.5547 10.4492V13.0912Z" fill="white"/>
<path id="Vector_134" d="M20.5781 13.2444L20.5889 13.3966V10.7548L20.5781 10.6025V13.2444Z" fill="white"/>
<path id="Vector_135" d="M20.5842 13.3968L20.582 13.5482V10.9063L20.5842 10.7549V13.3968Z" fill="white"/>
<path id="Vector_136" d="M20.5854 13.5472L20.5703 13.698V11.056L20.5854 10.9053V13.5472Z" fill="white"/>
<path id="Vector_137" d="M20.571 13.6986L20.543 13.8486V11.2068L20.571 11.0566V13.6986Z" fill="white"/>
<path id="Vector_138" d="M20.5409 13.8479L20.5 13.9973V11.3553L20.5409 11.2061V13.8479Z" fill="white"/>
<path id="Vector_139" d="M20.5002 13.9984L20.4453 14.1455V11.5036L20.5002 11.3564V13.9984Z" fill="white"/>
<path id="Vector_140" d="M20.446 14.1458L20.3789 14.2913V11.6494L20.446 11.5039V14.1458Z" fill="white"/>
<path id="Vector_141" d="M20.3763 14.2903L20.2969 14.4341V11.7923L20.3763 11.6484V14.2903Z" fill="white"/>
<path id="Vector_142" d="M20.2987 14.4348L20.207 14.577V11.935L20.2987 11.793V14.4348Z" fill="white"/>
<path id="Vector_143" d="M20.2053 14.5756L20.1016 14.7159V12.0741L20.2053 11.9336V14.5756Z" fill="white"/>
<path id="Vector_144" d="M20.1044 14.7171L19.9883 14.8559V12.214L20.1044 12.0752V14.7171Z" fill="white"/>
<path id="Vector_145" d="M19.9838 14.8557L19.8555 14.9929V12.351L19.9838 12.2139V14.8557Z" fill="white"/>
<path id="Vector_146" d="M19.8593 14.9925L19.7188 15.1279V12.4859L19.8593 12.3506V14.9925Z" fill="white"/>
<path id="Vector_147" d="M19.7193 15.1283L19.5664 15.262V12.6201L19.7193 12.4863V15.1283Z" fill="white"/>
<path id="Vector_148" d="M19.5635 15.262L19.3984 15.3941V12.7522L19.5635 12.6201V15.262Z" fill="white"/>
<path id="Vector_149" d="M19.4032 15.3938L19.2266 15.522V12.8802L19.4032 12.752V15.3938Z" fill="white"/>
<path id="Vector_150" d="M19.2242 15.5218L19.0352 15.6472V13.0054L19.2242 12.8799V15.5218Z" fill="white"/>
<path id="Vector_151" d="M19.0332 15.6477L18.832 15.7706V13.1286L19.0332 13.0059V15.6477Z" fill="white"/>
<path id="Vector_152" d="M18.8305 15.7699L18.6172 15.8899V13.2481L18.8305 13.1279V15.7699Z" fill="white"/>
<path id="Vector_153" d="M18.624 15.8909L18.3984 16.0083V13.3664L18.624 13.249V15.8909Z" fill="white"/>
<path id="Vector_154" d="M18.398 16.0081L18.1602 16.1228V13.4809L18.398 13.3662V16.0081Z" fill="white"/>
<path id="Vector_155" d="M18.1603 16.1233L17.9102 16.2353V13.5934L18.1603 13.4814V16.1233Z" fill="white"/>
<path id="Vector_156" d="M17.9106 16.2346L17.6484 16.344V13.702L17.9106 13.5928V16.2346Z" fill="white"/>
<path id="Vector_157" d="M17.6456 16.3431L17.3711 16.4497V13.8078L17.6456 13.7012V16.3431Z" fill="white"/>
<path id="Vector_158" d="M17.3687 16.4505L17.082 16.5544V13.9125L17.3687 13.8086V16.4505Z" fill="white"/>
<path id="Vector_159" d="M5.45312 10.0354L15.4048 17.1417V14.4998L5.45312 7.39355V10.0354Z" fill="white"/>
<path id="Vector_160" d="M15.4033 17.1419L12.9531 17.9997V15.3578L15.4033 14.5V17.1419Z" fill="white"/>
<path id="Vector_161" d="M12.9517 18.0002L3 10.8939V8.25195L12.9517 15.3583V18.0002Z" fill="white"/>
<path id="Vector_162" d="M3 10.8933L5.45013 10.0354V7.39355L3 8.25129V10.8933Z" fill="white"/>
<path id="Vector_163" d="M17.0808 16.5546L14.045 17.6175L12.7044 16.6394L15.7206 15.5833C16.5991 15.2758 17.2001 14.9224 17.5234 14.5231C17.8533 14.1214 17.9173 13.6893 17.7154 13.2266C17.5201 12.7616 17.076 12.2819 16.3834 11.7873L15.8435 11.4017C15.3058 11.0177 14.7417 10.7084 14.1514 10.4739C13.5675 10.237 12.9651 10.0769 12.3442 9.99369C11.7299 9.90815 11.1057 9.89871 10.4718 9.96549C9.84448 10.03 9.21517 10.1727 8.58387 10.3937L5.4017 11.5078L4.03469 10.5317L7.21686 9.41753C8.16046 9.08721 9.13434 8.86507 10.1385 8.75112C11.1382 8.63391 12.1284 8.62417 13.1093 8.72208C14.0966 8.81768 15.0325 9.01854 15.9171 9.32476C16.8016 9.63087 17.6016 10.0394 18.317 10.5502L18.8432 10.9261C19.5587 11.4369 20.0528 11.9525 20.3257 12.4728C20.5984 12.993 20.6559 13.5016 20.4979 13.9982C20.3353 14.4914 19.9687 14.9569 19.398 15.3942C18.8293 15.8261 18.0569 16.2128 17.0808 16.5546ZM5.45013 10.0361L15.4018 17.1424L12.9517 18.0002L3 10.894L5.45013 10.0361Z" fill="white"/>
<path id="Vector_164" d="M17.0808 13.913L14.045 14.9758L12.7044 13.9977L15.7206 12.9418C16.5991 12.6342 17.2001 12.2808 17.5234 11.8815C17.8533 11.4799 17.9173 11.0478 17.7154 10.585C17.5201 10.12 17.076 9.64019 16.3834 9.14569L15.8435 8.76002C15.3058 8.37612 14.7417 8.06687 14.1514 7.83225C13.5675 7.59544 12.9651 7.43536 12.3442 7.35212C11.7299 7.26658 11.1057 7.25715 10.4718 7.32392C9.84448 7.3884 9.21517 7.53107 8.58387 7.75216L5.4017 8.86621L4.03469 7.89012L7.21686 6.77597C8.16046 6.44564 9.13434 6.2235 10.1385 6.10955C11.1382 5.99224 12.1284 5.9826 13.1093 6.08051C14.0966 6.17612 15.0325 6.37698 15.9171 6.68309C16.8016 6.9893 17.6016 7.39773 18.317 7.90857L18.8432 8.28439C19.5587 8.79524 20.0528 9.3108 20.3257 9.83119C20.5984 10.3515 20.6559 10.8599 20.4979 11.3565C20.3353 11.8498 19.9687 12.3152 19.398 12.7526C18.8293 13.1844 18.0569 13.5713 17.0808 13.913ZM5.45013 7.39458L15.4018 14.5008L12.9517 15.3587L3 8.25232L5.45013 7.39458Z" fill="white"/>
<path id="Vector_165" d="M17.0808 13.8993L14.045 14.9622L12.7044 13.9841L15.7206 12.9281C16.5991 12.6205 17.2001 12.2671 17.5234 11.8678C17.8533 11.4662 17.9173 11.0341 17.7154 10.5713C17.5201 10.1063 17.076 9.62658 16.3834 9.13198L15.8435 8.74641C15.3058 8.36241 14.7417 8.05316 14.1514 7.81865C13.5675 7.58173 12.9651 7.42165 12.3442 7.33842C11.7299 7.25287 11.1057 7.24344 10.4718 7.31022C9.84448 7.37469 9.21517 7.51747 8.58387 7.73845L5.4017 8.8525L4.03469 7.87641L7.21686 6.76226C8.16046 6.43193 9.13434 6.2098 10.1385 6.09584C11.1382 5.97864 12.1284 5.96889 13.1093 6.0668C14.0966 6.16241 15.0325 6.36327 15.9171 6.66948C16.8016 6.97559 17.6016 7.38412 18.317 7.89497L18.8432 8.27079C19.5587 8.78164 20.0528 9.2972 20.3257 9.81748C20.5984 10.3378 20.6559 10.8463 20.4979 11.3429C20.3353 11.8361 19.9687 12.3016 19.398 12.7389C18.8293 13.1708 18.0569 13.5576 17.0808 13.8993ZM5.45013 7.38087L15.4018 14.4871L12.9517 15.345L3 8.23871L5.45013 7.38087Z" fill="#18181B"/>
</g>
</g>
</svg>
