<svg width="24" height="24" viewBox="0 0 24 24" fill="none" xmlns="http://www.w3.org/2000/svg">
<g id="Frame 1171276579">
<g id="Group 1686555328">
<path id="Vector" d="M17.3148 11.3487L21.3359 14.2201C21.32 14.4359 21.203 14.7078 20.9848 15.0356C20.7687 15.3576 20.3732 15.709 19.7984 16.0899C19.2234 16.4707 18.3816 16.8552 17.2729 17.2433C16.3296 17.5737 15.3546 17.7969 14.3478 17.9134C13.3362 18.0264 12.3277 18.0281 11.3222 17.9183C10.3236 17.8062 9.35847 17.5822 8.4266 17.2465C7.48995 16.9074 6.62152 16.4522 5.82109 15.8806L5.09065 15.359C4.2951 14.791 3.7275 14.2355 3.38784 13.6925C3.0503 13.1437 2.93305 12.6203 3.03621 12.1224C3.13937 11.6244 3.45873 11.1638 3.99438 10.7401C4.53214 10.3108 5.28299 9.92728 6.24704 9.58985C7.47952 9.15824 8.64334 8.90478 9.73828 8.82935C10.8352 8.74793 11.8572 8.81094 12.8041 9.01815C13.7511 9.22535 14.6085 9.54082 15.3765 9.96467L12.8356 10.8543C12.3866 10.6216 11.8969 10.4441 11.3665 10.3218C10.8432 10.1973 10.2791 10.1536 9.67461 10.1907C9.07196 10.2221 8.42305 10.3596 7.72755 10.603C7.12845 10.8128 6.6812 11.0541 6.38592 11.3267C6.09052 11.5995 5.94566 11.8991 5.95131 12.2254C5.96374 12.5494 6.11604 12.8964 6.4081 13.2661C6.70028 13.6359 7.13078 14.024 7.69971 14.4303L8.44457 14.9622C9.02315 15.3753 9.6227 15.7118 10.2433 15.9718C10.8707 16.2292 11.504 16.4104 12.143 16.515C12.789 16.6171 13.4326 16.6408 14.0737 16.5855C14.71 16.527 15.3311 16.3916 15.9371 16.1794C16.5292 15.9721 16.981 15.7781 17.2921 15.5973C17.5985 15.4131 17.8137 15.248 17.9376 15.1019C18.0636 14.9501 18.1428 14.8198 18.1751 14.711L16.0849 13.2185L12.9554 14.3141L11.6029 13.3484L17.3148 11.3487Z" fill="#18181B"/>
<path id="Vector_2" d="M17.3125 11.3481L21.3336 14.2195V11.4241L17.3125 8.55273V11.3481Z" fill="white"/>
<path id="Vector_3" d="M21.3359 14.2202L21.3281 14.2867V11.4912L21.3359 11.4248V14.2202Z" fill="white"/>
<path id="Vector_4" d="M21.3225 14.2866L21.3086 14.3564V11.561L21.3225 11.4912V14.2866Z" fill="white"/>
<path id="Vector_5" d="M21.309 14.356L21.2891 14.4292V11.6338L21.309 11.5605V14.356Z" fill="white"/>
<path id="Vector_6" d="M21.2916 14.4302L21.2656 14.5067V11.7112L21.2916 11.6348V14.4302Z" fill="white"/>
<path id="Vector_7" d="M21.2664 14.5055L21.2344 14.5853V11.7899L21.2664 11.71V14.5055Z" fill="white"/>
<path id="Vector_8" d="M21.2335 14.5855L21.1953 14.6686V11.8732L21.2335 11.79V14.5855Z" fill="white"/>
<path id="Vector_9" d="M21.1966 14.6694L21.1523 14.7561V11.9607L21.1966 11.874V14.6694Z" fill="white"/>
<path id="Vector_10" d="M21.1518 14.7563L21.1016 14.8463V12.0508L21.1518 11.9609V14.7563Z" fill="white"/>
<path id="Vector_11" d="M21.0993 14.8463L21.043 14.9396V12.1442L21.0993 12.0508V14.8463Z" fill="white"/>
<path id="Vector_12" d="M21.0429 14.939L20.9805 15.0356V12.2402L21.0429 12.1436V14.939Z" fill="white"/>
<path id="Vector_13" d="M20.9804 15.0347L20.9102 15.1322V12.3368L20.9804 12.2393V15.0347Z" fill="white"/>
<path id="Vector_14" d="M20.9091 15.1323L20.8281 15.2316V12.4361L20.9091 12.3369V15.1323Z" fill="white"/>
<path id="Vector_15" d="M20.8339 15.232L20.7422 15.333V12.5376L20.8339 12.4365V15.232Z" fill="white"/>
<path id="Vector_16" d="M20.7353 15.3325L20.6328 15.4353V12.6399L20.7353 12.5371V15.3325Z" fill="white"/>
<path id="Vector_17" d="M20.6328 15.437L20.5195 15.5415V12.7461L20.6328 12.6416V15.437Z" fill="white"/>
<path id="Vector_18" d="M20.5264 15.5405L20.4023 15.6469V12.8515L20.5264 12.7451V15.5405Z" fill="white"/>
<path id="Vector_19" d="M20.3966 15.646L20.2617 15.754V12.9586L20.3966 12.8506V15.646Z" fill="white"/>
<path id="Vector_20" d="M20.2627 15.7554L20.1172 15.8652V13.0698L20.2627 12.96V15.7554Z" fill="white"/>
<path id="Vector_21" d="M20.1172 15.8657L19.9609 15.9774V13.1819L20.1172 13.0703V15.8657Z" fill="white"/>
<path id="Vector_22" d="M19.9639 15.9772L19.7969 16.0905V13.295L19.9639 13.1816V15.9772Z" fill="white"/>
<path id="Vector_23" d="M19.7939 16.0904L19.6133 16.2048V13.4094L19.7939 13.2949V16.0904Z" fill="white"/>
<path id="Vector_24" d="M19.6144 16.2036L19.418 16.3182V13.5228L19.6144 13.4082V16.2036Z" fill="white"/>
<path id="Vector_25" d="M19.4157 16.3188L19.2031 16.4337V13.6381L19.4157 13.5234V16.3188Z" fill="white"/>
<path id="Vector_26" d="M19.2051 16.4342L18.9766 16.5492V13.7537L19.2051 13.6387V16.4342Z" fill="white"/>
<path id="Vector_27" d="M18.9749 16.5494L18.7305 16.6647V13.8692L18.9749 13.7539V16.5494Z" fill="white"/>
<path id="Vector_28" d="M18.7332 16.6647L18.4727 16.78V13.9846L18.7332 13.8691V16.6647Z" fill="white"/>
<path id="Vector_29" d="M18.4718 16.7788L18.1953 16.8945V14.0991L18.4718 13.9834V16.7788Z" fill="white"/>
<path id="Vector_30" d="M18.1989 16.896L17.9062 17.0119V14.2165L18.1989 14.1006V16.896Z" fill="white"/>
<path id="Vector_31" d="M17.9061 17.0112L17.5977 17.1274V14.3318L17.9061 14.2158V17.0112Z" fill="white"/>
<path id="Vector_32" d="M17.5942 17.1276L17.2695 17.2438V14.4484L17.5942 14.332V17.1276Z" fill="white"/>
<path id="Vector_33" d="M17.2683 17.2437L16.9844 17.3396V14.5441L17.2683 14.4482V17.2437Z" fill="white"/>
<path id="Vector_34" d="M16.989 17.3385L16.7031 17.4279V14.6325L16.989 14.543V17.3385Z" fill="white"/>
<path id="Vector_35" d="M16.6979 17.4282L16.4102 17.5113V14.7159L16.6979 14.6328V17.4282Z" fill="white"/>
<path id="Vector_36" d="M16.4107 17.5122L16.1211 17.5889V14.7933L16.4107 14.7168V17.5122Z" fill="white"/>
<path id="Vector_37" d="M16.1237 17.5895L15.832 17.6597V14.8642L16.1237 14.7939V17.5895Z" fill="white"/>
<path id="Vector_38" d="M15.8286 17.6588L15.5352 17.7226V14.9272L15.8286 14.8633V17.6588Z" fill="white"/>
<path id="Vector_39" d="M15.5337 17.7231L15.2383 17.7805V14.9851L15.5337 14.9277V17.7231Z" fill="white"/>
<path id="Vector_40" d="M15.2387 17.7798L14.9414 17.8308V15.0353L15.2387 14.9844V17.7798Z" fill="white"/>
<path id="Vector_41" d="M14.9476 17.8307L14.6484 17.8752V15.0797L14.9476 15.0352V17.8307Z" fill="white"/>
<path id="Vector_42" d="M14.6449 17.8755L14.3438 17.9136V15.1182L14.6449 15.0801V17.8755Z" fill="white"/>
<path id="Vector_43" d="M14.3463 17.9136L14.043 17.9442V15.1487L14.3463 15.1182V17.9136Z" fill="white"/>
<path id="Vector_44" d="M14.0414 17.944L13.7383 17.9678V15.1724L14.0414 15.1484V17.944Z" fill="white"/>
<path id="Vector_45" d="M13.7405 17.9673L13.4375 17.9845V15.1891L13.7405 15.1719V17.9673Z" fill="white"/>
<path id="Vector_46" d="M13.4356 17.9849L13.1328 17.9954V15.1999L13.4356 15.1895V17.9849Z" fill="white"/>
<path id="Vector_47" d="M13.1346 17.9957L12.832 17.9995V15.2041L13.1346 15.2002V17.9957Z" fill="white"/>
<path id="Vector_48" d="M12.8337 18.0004L12.5312 17.9977V15.2021L12.8337 15.205V18.0004Z" fill="white"/>
<path id="Vector_49" d="M12.5288 17.9974L12.2266 17.9879V15.1924L12.5288 15.2019V17.9974Z" fill="white"/>
<path id="Vector_50" d="M12.2279 17.9865L11.9258 17.9702V15.1748L12.2279 15.191V17.9865Z" fill="white"/>
<path id="Vector_51" d="M11.9229 17.9716L11.6211 17.9487V15.1533L11.9229 15.1762V17.9716Z" fill="white"/>
<path id="Vector_52" d="M11.6221 17.9481L11.3203 17.9185V15.123L11.6221 15.1527V17.9481Z" fill="white"/>
<path id="Vector_53" d="M11.3219 17.9174L11.0234 17.8804V15.085L11.3219 15.122V17.9174Z" fill="white"/>
<path id="Vector_54" d="M11.0232 17.8821L10.7266 17.8384V15.043L11.0232 15.0867V17.8821Z" fill="white"/>
<path id="Vector_55" d="M10.7242 17.838L10.4297 17.7876V14.9922L10.7242 15.0425V17.838Z" fill="white"/>
<path id="Vector_56" d="M10.4254 17.7881L10.1328 17.731V14.9355L10.4254 14.9927V17.7881Z" fill="white"/>
<path id="Vector_57" d="M10.1343 17.7304L9.84375 17.6666V14.8711L10.1343 14.935V17.7304Z" fill="white"/>
<path id="Vector_58" d="M9.84331 17.6658L9.55469 17.5952V14.7998L9.84331 14.8702V17.6658Z" fill="white"/>
<path id="Vector_59" d="M9.55605 17.5954L9.26953 17.5182V14.7227L9.55605 14.8V17.5954Z" fill="white"/>
<path id="Vector_60" d="M9.2728 17.519L8.98828 17.4351V14.6396L9.2728 14.7235V17.519Z" fill="white"/>
<path id="Vector_61" d="M8.98565 17.434L8.70312 17.3434V14.5479L8.98565 14.6386V17.434Z" fill="white"/>
<path id="Vector_62" d="M8.70642 17.345L8.42578 17.2476V14.4521L8.70642 14.5494V17.345Z" fill="white"/>
<path id="Vector_63" d="M8.4234 17.2464L8.14453 17.1412V14.3457L8.4234 14.451V17.2464Z" fill="white"/>
<path id="Vector_64" d="M8.14596 17.142L7.87109 17.0298V14.2344L8.14596 14.3465V17.142Z" fill="white"/>
<path id="Vector_65" d="M7.87233 17.0288L7.60156 16.9097V14.1143L7.87233 14.2334V17.0288Z" fill="white"/>
<path id="Vector_66" d="M7.5949 16.9098L7.32812 16.7837V13.9883L7.5949 14.1144V16.9098Z" fill="white"/>
<path id="Vector_67" d="M7.33287 16.783L7.07031 16.6499V13.8545L7.33287 13.9876V16.783Z" fill="white"/>
<path id="Vector_68" d="M7.07107 16.6513L6.8125 16.5112V13.7158L7.07107 13.8559V16.6513Z" fill="white"/>
<path id="Vector_69" d="M6.80904 16.5099L6.55469 16.3629V13.5674L6.80904 13.7145V16.5099Z" fill="white"/>
<path id="Vector_70" d="M6.55895 16.3645L6.30859 16.2105V13.415L6.55895 13.569V16.3645Z" fill="white"/>
<path id="Vector_71" d="M6.30875 16.2094L6.0625 16.0485V13.2529L6.30875 13.414V16.2094Z" fill="white"/>
<path id="Vector_72" d="M6.05855 16.0494L5.81641 15.8813V13.0859L6.05855 13.2539V16.0494Z" fill="white"/>
<path id="Vector_73" d="M5.81638 15.8814L5.08594 15.3599V12.5645L5.81638 13.086V15.8814Z" fill="white"/>
<path id="Vector_74" d="M5.08339 15.359L4.85156 15.189V12.3936L5.08339 12.5636V15.359Z" fill="white"/>
<path id="Vector_75" d="M4.85491 15.1884L4.63672 15.0192V12.2236L4.85491 12.393V15.1884Z" fill="white"/>
<path id="Vector_76" d="M4.63412 15.0187L4.42969 14.8501V12.0547L4.63412 12.2232V15.0187Z" fill="white"/>
<path id="Vector_77" d="M4.43298 14.8509L4.24219 14.6832V11.8877L4.43298 12.0555V14.8509Z" fill="white"/>
<path id="Vector_78" d="M4.24355 14.6832L4.06641 14.5161V11.7207L4.24355 11.8876V14.6832Z" fill="white"/>
<path id="Vector_79" d="M4.06574 14.5154L3.90234 14.3491V11.5537L4.06574 11.72V14.5154Z" fill="white"/>
<path id="Vector_80" d="M3.89975 14.3497L3.75 14.1842V11.3887L3.89975 11.5543V14.3497Z" fill="white"/>
<path id="Vector_81" d="M3.75329 14.1849L3.61719 14.02V11.2246L3.75329 11.3893V14.1849Z" fill="white"/>
<path id="Vector_82" d="M3.61465 14.02L3.49219 13.856V11.0605L3.61465 11.2246V14.02Z" fill="white"/>
<path id="Vector_83" d="M3.49152 13.8562L3.38281 13.693V10.8975L3.49152 11.0607V13.8562Z" fill="white"/>
<path id="Vector_84" d="M3.38368 13.6928L3.28906 13.5288V10.7334L3.38368 10.8972V13.6928Z" fill="white"/>
<path id="Vector_85" d="M3.28856 13.5291L3.20703 13.3667V10.5713L3.28856 10.7337V13.5291Z" fill="white"/>
<path id="Vector_86" d="M3.20494 13.3664L3.13672 13.2057V10.4102L3.20494 10.571V13.3664Z" fill="white"/>
<path id="Vector_87" d="M3.14475 13.2058L3.08984 13.0464V10.251L3.14475 10.4103V13.2058Z" fill="white"/>
<path id="Vector_88" d="M3.08479 13.0469L3.04297 12.8892V10.0938L3.08479 10.2515V13.0469Z" fill="white"/>
<path id="Vector_89" d="M3.04034 12.8873L3.01172 12.7311V9.93555L3.04034 10.0918V12.8873Z" fill="white"/>
<path id="Vector_90" d="M3.01531 12.7315L3 12.5768V9.78125L3.01531 9.93599V12.7315Z" fill="white"/>
<path id="Vector_91" d="M3.00211 12.5776L3 12.4244V9.62891L3.00211 9.78209V12.5776Z" fill="white"/>
<path id="Vector_92" d="M3 12.4247L3.01109 12.273V9.47754L3 9.62917V12.4247Z" fill="white"/>
<path id="Vector_93" d="M3.00781 12.2717L3.03222 12.1216V9.32617L3.00781 9.47625V12.2717Z" fill="white"/>
<path id="Vector_94" d="M3.03125 12.1215L3.06863 11.9731V9.17773L3.03125 9.32604V12.1215Z" fill="white"/>
<path id="Vector_95" d="M3.07031 11.9746L3.12078 11.8286V9.0332L3.07031 9.17918V11.9746Z" fill="white"/>
<path id="Vector_96" d="M3.12109 11.827L3.18443 11.6832V8.8877L3.12109 9.03156V11.827Z" fill="white"/>
<path id="Vector_97" d="M3.18359 11.6851L3.26002 11.5436V8.74805L3.18359 8.88959V11.6851Z" fill="white"/>
<path id="Vector_98" d="M3.25781 11.5423L3.34711 11.4028V8.60742L3.25781 8.74674V11.5423Z" fill="white"/>
<path id="Vector_99" d="M3.35156 11.4032L3.45383 11.2661V8.4707L3.35156 8.60781V11.4032Z" fill="white"/>
<path id="Vector_100" d="M3.45312 11.2672L3.56849 11.1323V8.33691L3.45312 8.4718V11.2672Z" fill="white"/>
<path id="Vector_101" d="M3.56641 11.1312L3.69463 10.9986V8.20312L3.56641 8.33579V11.1312Z" fill="white"/>
<path id="Vector_102" d="M3.69141 10.9991L3.83261 10.8687V8.07324L3.69141 8.20358V10.9991Z" fill="white"/>
<path id="Vector_103" d="M3.83984 10.868L3.99403 10.7397V7.94434L3.83984 8.07256V10.868Z" fill="white"/>
<path id="Vector_104" d="M3.98828 10.7393L4.156 10.6119V7.81641L3.98828 7.94386V10.7393Z" fill="white"/>
<path id="Vector_105" d="M4.16016 10.6126L4.34063 10.4878V7.69238L4.16016 7.81706V10.6126Z" fill="white"/>
<path id="Vector_106" d="M4.34375 10.4886L4.53709 10.3667V7.57129L4.34375 7.6932V10.4886Z" fill="white"/>
<path id="Vector_107" d="M4.53125 10.3657L4.73735 10.2466V7.45117L4.53125 7.57031V10.3657Z" fill="white"/>
<path id="Vector_108" d="M4.73828 10.2468L4.95714 10.1304V7.33496L4.73828 7.45143V10.2468Z" fill="white"/>
<path id="Vector_109" d="M4.96094 10.1298L5.19255 10.0162V7.2207L4.96094 7.3344V10.1298Z" fill="white"/>
<path id="Vector_110" d="M5.1875 10.0167L5.43198 9.90576V7.11035L5.1875 7.22117V10.0167Z" fill="white"/>
<path id="Vector_111" d="M5.43359 9.90552L5.69083 9.79736V7.00195L5.43359 7.1101V9.90552Z" fill="white"/>
<path id="Vector_112" d="M5.69141 9.79728L5.9614 9.6919V6.89648L5.69141 7.00186V9.79728Z" fill="white"/>
<path id="Vector_113" d="M5.96094 9.69207L6.2438 9.58947V6.79395L5.96094 6.89666V9.69207Z" fill="white"/>
<path id="Vector_114" d="M6.24609 9.58957L6.61381 9.46544V6.66992L6.24609 6.79405V9.58957Z" fill="white"/>
<path id="Vector_115" d="M6.61328 9.46553L6.97678 9.35205V6.55664L6.61328 6.67001V9.46553Z" fill="white"/>
<path id="Vector_116" d="M6.97656 9.35234L7.33607 9.24962V6.4541L6.97656 6.55693V9.35234Z" fill="white"/>
<path id="Vector_117" d="M7.33594 9.24989L7.69123 9.15783V6.3623L7.33594 6.45437V9.24989Z" fill="white"/>
<path id="Vector_118" d="M7.6875 9.1571L8.03869 9.07569V6.28027L7.6875 6.36158V9.1571Z" fill="white"/>
<path id="Vector_119" d="M8.04297 9.07614L8.39005 9.00548V6.20996L8.04297 6.28073V9.07614Z" fill="white"/>
<path id="Vector_120" d="M8.38672 9.00495L8.72959 8.94483V6.14941L8.38672 6.20942V9.00495Z" fill="white"/>
<path id="Vector_121" d="M8.73047 8.94536L9.06923 8.89611V6.10059L8.73047 6.14995V8.94536Z" fill="white"/>
<path id="Vector_122" d="M9.07031 8.89565L9.40508 8.85694V6.06152L9.07031 6.10013V8.89565Z" fill="white"/>
<path id="Vector_123" d="M9.40234 8.85668L9.7329 8.82873V6.0332L9.40234 6.06127V8.85668Z" fill="white"/>
<path id="Vector_124" d="M9.73828 8.83025L10.0651 8.81017V6.01465L9.73828 6.03473V8.83025Z" fill="white"/>
<path id="Vector_125" d="M10.0664 8.8089L10.3888 8.79748V6.00195L10.0664 6.01338V8.8089Z" fill="white"/>
<path id="Vector_126" d="M10.3867 8.79819L10.7045 8.79541V6L10.3867 6.00266V8.79819Z" fill="white"/>
<path id="Vector_127" d="M10.7031 8.79541L11.0165 8.80129V6.00588L10.7031 6V8.79541Z" fill="white"/>
<path id="Vector_128" d="M11.0156 8.80127L11.3246 8.8158V6.02039L11.0156 6.00586V8.80127Z" fill="white"/>
<path id="Vector_129" d="M11.3242 8.81592L11.6285 8.8391V6.04369L11.3242 6.02051V8.81592Z" fill="white"/>
<path id="Vector_130" d="M11.6289 8.83838L11.9287 8.87033V6.0748L11.6289 6.04297V8.83838Z" fill="white"/>
<path id="Vector_131" d="M11.9297 8.87072L12.2251 8.91121V6.11579L11.9297 6.0752V8.87072Z" fill="white"/>
<path id="Vector_132" d="M12.2266 8.91065L12.5174 8.95979V6.16437L12.2266 6.11523V8.91065Z" fill="white"/>
<path id="Vector_133" d="M12.5156 8.96045L12.8019 9.01835V6.22294L12.5156 6.16504V8.96045Z" fill="white"/>
<path id="Vector_134" d="M12.8008 9.01709L13.0822 9.08254V6.28701L12.8008 6.22168V9.01709Z" fill="white"/>
<path id="Vector_135" d="M13.0859 9.08361L13.3619 9.15549V6.36008L13.0859 6.28809V9.08361Z" fill="white"/>
<path id="Vector_136" d="M13.3633 9.15479L13.6339 9.23321V6.43769L13.3633 6.35938V9.15479Z" fill="white"/>
<path id="Vector_137" d="M13.625 9.234L13.8903 9.31886V6.52344L13.625 6.43848V9.234Z" fill="white"/>
<path id="Vector_138" d="M13.8984 9.31885L14.1583 9.41025V6.61484L13.8984 6.52344V9.31885Z" fill="white"/>
<path id="Vector_139" d="M14.1562 9.40967L14.4108 9.50762V6.7122L14.1562 6.61426V9.40967Z" fill="white"/>
<path id="Vector_140" d="M14.4062 9.50733L14.6555 9.61171V6.81629L14.4062 6.71191V9.50733Z" fill="white"/>
<path id="Vector_141" d="M14.6602 9.6128L14.904 9.72372V6.9282L14.6602 6.81738V9.6128Z" fill="white"/>
<path id="Vector_142" d="M14.8984 9.72326L15.1368 9.84062V7.0452L14.8984 6.92773V9.72326Z" fill="white"/>
<path id="Vector_143" d="M15.1406 9.84033L15.3737 9.96424V7.16882L15.1406 7.04492V9.84033Z" fill="white"/>
<path id="Vector_144" d="M15.3729 9.96436L12.832 10.854V8.05845L15.3729 7.16895V9.96436Z" fill="white"/>
<path id="Vector_145" d="M12.8351 10.8539L12.6992 10.7856V7.99023L12.8351 8.05834V10.8539Z" fill="white"/>
<path id="Vector_146" d="M12.7009 10.7861L12.5625 10.7213V7.92578L12.7009 7.99067V10.7861Z" fill="white"/>
<path id="Vector_147" d="M12.5548 10.7213L12.4141 10.6598V7.86426L12.5548 7.92582V10.7213Z" fill="white"/>
<path id="Vector_148" d="M12.4128 10.6593L12.2695 10.6011V7.80566L12.4128 7.86379V10.6593Z" fill="white"/>
<path id="Vector_149" d="M12.2706 10.6013L12.125 10.5464V7.75098L12.2706 7.80588V10.6013Z" fill="white"/>
<path id="Vector_150" d="M12.1286 10.5472L11.9805 10.4956V7.7002L12.1286 7.75178V10.5472Z" fill="white"/>
<path id="Vector_151" d="M11.9788 10.495L11.8281 10.4468V7.65137L11.9788 7.69962V10.495Z" fill="white"/>
<path id="Vector_152" d="M11.8327 10.4459L11.6797 10.401V7.60547L11.8327 7.6505V10.4459Z" fill="white"/>
<path id="Vector_153" d="M11.6749 10.4016L11.5195 10.3599V7.56445L11.6749 7.60605V10.4016Z" fill="white"/>
<path id="Vector_154" d="M11.5212 10.36L11.3633 10.3218V7.52637L11.5212 7.56464V10.36Z" fill="white"/>
<path id="Vector_155" d="M11.3652 10.3225L11.207 10.2876V7.49219L11.3652 7.52713V10.3225Z" fill="white"/>
<path id="Vector_156" d="M11.2037 10.2865L11.043 10.2565V7.46094L11.2037 7.49111V10.2865Z" fill="white"/>
<path id="Vector_157" d="M11.0459 10.2562L10.8828 10.231V7.43555L11.0459 7.46073V10.2562Z" fill="white"/>
<path id="Vector_158" d="M10.8805 10.2318L10.7148 10.2114V7.41602L10.8805 7.43643V10.2318Z" fill="white"/>
<path id="Vector_159" d="M10.7187 10.2113L10.5508 10.1958V7.40039L10.7187 7.41592V10.2113Z" fill="white"/>
<path id="Vector_160" d="M10.5493 10.1958L10.3789 10.1852V7.38965L10.5493 7.40041V10.1958Z" fill="white"/>
<path id="Vector_161" d="M10.3761 10.1851L10.2031 10.1792V7.38379L10.3761 7.38956V10.1851Z" fill="white"/>
<path id="Vector_162" d="M10.2026 10.1802L10.0273 10.1793V7.38379L10.2026 7.38479V10.1802Z" fill="white"/>
<path id="Vector_163" d="M10.0293 10.1793L9.85156 10.1832V7.38767L10.0293 7.38379V10.1793Z" fill="white"/>
<path id="Vector_164" d="M9.85592 10.1822L9.67578 10.1909V7.39548L9.85592 7.38672V10.1822Z" fill="white"/>
<path id="Vector_165" d="M9.67444 10.1919L9.49219 10.2045V7.40913L9.67444 7.39648V10.1919Z" fill="white"/>
<path id="Vector_166" d="M9.48569 10.2036L9.30078 10.2226V7.42706L9.48569 7.4082V10.2036Z" fill="white"/>
<path id="Vector_167" d="M9.30878 10.2233L9.12109 10.2485V7.45314L9.30878 7.42773V10.2233Z" fill="white"/>
<path id="Vector_168" d="M9.11635 10.2485L8.92578 10.2803V7.48474L9.11635 7.45312V10.2485Z" fill="white"/>
<path id="Vector_169" d="M8.92772 10.2799L8.73438 10.3179V7.52242L8.92772 7.48438V10.2799Z" fill="white"/>
<path id="Vector_170" d="M8.73518 10.318L8.53906 10.3624V7.56694L8.73518 7.52246V10.318Z" fill="white"/>
<path id="Vector_171" d="M8.53873 10.3618L8.33984 10.4126V7.6171L8.53873 7.56641V10.3618Z" fill="white"/>
<path id="Vector_172" d="M8.33838 10.4117L8.13672 10.4689V7.67345L8.33838 7.61621V10.4117Z" fill="white"/>
<path id="Vector_173" d="M8.13803 10.4702L7.93359 10.5337V7.73825L8.13803 7.6748V10.4702Z" fill="white"/>
<path id="Vector_174" d="M7.93377 10.5337L7.72656 10.6036V7.80816L7.93377 7.73828V10.5337Z" fill="white"/>
<path id="Vector_175" d="M7.72593 10.603L7.55078 10.6669V7.87151L7.72593 7.80762V10.603Z" fill="white"/>
<path id="Vector_176" d="M7.54496 10.6675L7.37891 10.7333V7.93774L7.54496 7.87207V10.6675Z" fill="white"/>
<path id="Vector_177" d="M7.38743 10.732L7.23047 10.7997V8.00419L7.38743 7.93652V10.732Z" fill="white"/>
<path id="Vector_178" d="M7.22599 10.7994L7.07812 10.8689V8.07346L7.22599 8.00391V10.7994Z" fill="white"/>
<path id="Vector_179" d="M7.07616 10.8706L6.9375 10.942V8.14663L7.07616 8.0752V10.8706Z" fill="white"/>
<path id="Vector_180" d="M6.94217 10.9419L6.8125 11.0152V8.21981L6.94217 8.14648V10.9419Z" fill="white"/>
<path id="Vector_181" d="M6.80796 11.0142L6.6875 11.0894V8.29396L6.80796 8.21875V11.0142Z" fill="white"/>
<path id="Vector_182" d="M6.68949 11.0894L6.57812 11.1665V8.37104L6.68949 8.29395V11.0894Z" fill="white"/>
<path id="Vector_183" d="M6.58274 11.1665L6.48047 11.2455V8.45007L6.58274 8.37109V11.1665Z" fill="white"/>
<path id="Vector_184" d="M6.47599 11.2456L6.38281 11.3265V8.53106L6.47599 8.4502V11.2456Z" fill="white"/>
<path id="Vector_185" d="M6.38096 11.3257L6.29688 11.4083V8.61291L6.38096 8.53027V11.3257Z" fill="white"/>
<path id="Vector_186" d="M6.30166 11.4097L6.22656 11.494V8.69845L6.30166 8.61426V11.4097Z" fill="white"/>
<path id="Vector_187" d="M6.22225 11.4928L6.15625 11.5786V8.78312L6.22225 8.69727V11.4928Z" fill="white"/>
<path id="Vector_188" d="M6.15858 11.5797L6.10156 11.6671V8.8717L6.15858 8.78418V11.5797Z" fill="white"/>
<path id="Vector_189" d="M6.09881 11.6665L6.05078 11.7556V8.96017L6.09881 8.87109V11.6665Z" fill="white"/>
<path id="Vector_190" d="M6.05065 11.7563L6.01172 11.847V9.05156L6.05065 8.96094V11.7563Z" fill="white"/>
<path id="Vector_191" d="M6.01042 11.8462L5.98047 11.9385V9.14307L6.01042 9.05078V11.8462Z" fill="white"/>
<path id="Vector_192" d="M5.98179 11.939L5.96094 12.0329V9.2374L5.98179 9.14355V11.939Z" fill="white"/>
<path id="Vector_193" d="M5.96109 12.0338L5.94922 12.1293V9.3339L5.96109 9.23828V12.0338Z" fill="white"/>
<path id="Vector_194" d="M5.95199 12.1274L5.94922 12.2245V9.42909L5.95199 9.33203V12.1274Z" fill="white"/>
<path id="Vector_195" d="M5.94922 12.2251L5.95709 12.323V9.52763L5.94922 9.42969V12.2251Z" fill="white"/>
<path id="Vector_196" d="M5.95703 12.3237L5.97334 12.423V9.62749L5.95703 9.52832V12.3237Z" fill="white"/>
<path id="Vector_197" d="M5.97656 12.4225L6.0013 12.5231V9.72767L5.97656 9.62695V12.4225Z" fill="white"/>
<path id="Vector_198" d="M6 12.523L6.03317 12.625V9.82948L6 9.72754V12.523Z" fill="white"/>
<path id="Vector_199" d="M6.03125 12.6256L6.07274 12.729V9.93346L6.03125 9.83008V12.6256Z" fill="white"/>
<path id="Vector_200" d="M6.07031 12.7281L6.12012 12.8329V10.0374L6.07031 9.93262V12.7281Z" fill="white"/>
<path id="Vector_201" d="M6.12109 12.8335L6.17944 12.9397V10.1441L6.12109 10.0381V12.8335Z" fill="white"/>
<path id="Vector_202" d="M6.18359 12.9391L6.25026 13.0466V10.2512L6.18359 10.1436V12.9391Z" fill="white"/>
<path id="Vector_203" d="M6.24609 13.0464L6.32108 13.1552V10.3598L6.24609 10.251V13.0464Z" fill="white"/>
<path id="Vector_204" d="M6.32031 13.1548L6.40373 13.265V10.4696L6.32031 10.3594V13.1548Z" fill="white"/>
<path id="Vector_205" d="M6.40234 13.2651L6.49419 13.3766V10.5812L6.40234 10.4697V13.2651Z" fill="white"/>
<path id="Vector_206" d="M6.49609 13.3774L6.59615 13.49V10.6946L6.49609 10.582V13.3774Z" fill="white"/>
<path id="Vector_207" d="M6.59766 13.4907L6.70603 13.6044V10.809L6.59766 10.6953V13.4907Z" fill="white"/>
<path id="Vector_208" d="M6.70703 13.604L6.82372 13.7188V10.9233L6.70703 10.8086V13.604Z" fill="white"/>
<path id="Vector_209" d="M6.82031 13.7194L6.94532 13.8352V11.0397L6.82031 10.9238V13.7194Z" fill="white"/>
<path id="Vector_210" d="M6.94531 13.8345L7.07864 13.9514V11.156L6.94531 11.0391V13.8345Z" fill="white"/>
<path id="Vector_211" d="M7.07812 13.9507L7.21978 14.0688V11.2733L7.07812 11.1553V13.9507Z" fill="white"/>
<path id="Vector_212" d="M7.22266 14.069L7.37252 14.1881V11.3926L7.22266 11.2734V14.069Z" fill="white"/>
<path id="Vector_213" d="M7.375 14.1891L7.53318 14.3093V11.5138L7.375 11.3936V14.1891Z" fill="white"/>
<path id="Vector_214" d="M7.53125 14.3082L7.69786 14.4296V11.634L7.53125 11.5127V14.3082Z" fill="white"/>
<path id="Vector_215" d="M7.69531 14.4303L8.44017 14.9622V12.1668L7.69531 11.6348V14.4303Z" fill="white"/>
<path id="Vector_216" d="M8.4375 14.9624L8.61176 15.0841V12.2886L8.4375 12.167V14.9624Z" fill="white"/>
<path id="Vector_217" d="M8.61719 15.0836L8.79267 15.2006V12.4051L8.61719 12.2881V15.0836Z" fill="white"/>
<path id="Vector_218" d="M8.79297 15.2008L8.96967 15.3133V12.5178L8.79297 12.4053V15.2008Z" fill="white"/>
<path id="Vector_219" d="M8.96875 15.3141L9.14667 15.4219V12.6265L8.96875 12.5186V15.3141Z" fill="white"/>
<path id="Vector_220" d="M9.14453 15.4214L9.32379 15.5247V12.7291L9.14453 12.626V15.4214Z" fill="white"/>
<path id="Vector_221" d="M9.32812 15.525L9.5086 15.6236V12.8282L9.32812 12.7295V15.525Z" fill="white"/>
<path id="Vector_222" d="M9.50391 15.6226L9.68571 15.7166V12.9212L9.50391 12.8271V15.6226Z" fill="white"/>
<path id="Vector_223" d="M9.6875 15.7173L9.87053 15.8068V13.0113L9.6875 12.9219V15.7173Z" fill="white"/>
<path id="Vector_224" d="M9.87109 15.8072L10.0553 15.8921V13.0967L9.87109 13.0117V15.8072Z" fill="white"/>
<path id="Vector_225" d="M10.0508 15.8921L10.2364 15.9724V13.1769L10.0508 13.0967V15.8921Z" fill="white"/>
<path id="Vector_226" d="M10.2422 15.9713L10.4305 16.0462V13.2508L10.2422 13.1758V15.9713Z" fill="white"/>
<path id="Vector_227" d="M10.4297 16.0464L10.6185 16.1168V13.3214L10.4297 13.251V16.0464Z" fill="white"/>
<path id="Vector_228" d="M10.6211 16.1177L10.8101 16.1835V13.388L10.6211 13.3223V16.1177Z" fill="white"/>
<path id="Vector_229" d="M10.8086 16.1831L10.9981 16.2443V13.4488L10.8086 13.3877V16.1831Z" fill="white"/>
<path id="Vector_230" d="M10.9961 16.2438L11.186 16.3003V13.5049L10.9961 13.4482V16.2438Z" fill="white"/>
<path id="Vector_231" d="M11.1875 16.3003L11.3776 16.3523V13.5569L11.1875 13.5049V16.3003Z" fill="white"/>
<path id="Vector_232" d="M11.375 16.3521L11.5655 16.3995V13.604L11.375 13.5566V16.3521Z" fill="white"/>
<path id="Vector_233" d="M11.5664 16.4L11.7573 16.4428V13.6474L11.5664 13.6045V16.4Z" fill="white"/>
<path id="Vector_234" d="M11.7539 16.4438L11.945 16.4821V13.6867L11.7539 13.6484V16.4438Z" fill="white"/>
<path id="Vector_235" d="M11.9492 16.481L12.1408 16.5147V13.7192L11.9492 13.6855V16.481Z" fill="white"/>
<path id="Vector_236" d="M12.1406 16.5143L12.3344 16.5426V13.7471L12.1406 13.7188V16.5143Z" fill="white"/>
<path id="Vector_237" d="M12.3359 16.5425L12.5295 16.5661V13.7706L12.3359 13.7471V16.5425Z" fill="white"/>
<path id="Vector_238" d="M12.5312 16.567L12.7247 16.5859V13.7903L12.5312 13.7715V16.567Z" fill="white"/>
<path id="Vector_239" d="M12.7188 16.5856L12.912 16.5996V13.8042L12.7188 13.79V16.5856Z" fill="white"/>
<path id="Vector_240" d="M12.9141 16.5991L13.1072 16.6086V13.8131L12.9141 13.8037V16.5991Z" fill="white"/>
<path id="Vector_241" d="M13.1094 16.6089L13.3024 16.6135V13.8181L13.1094 13.8135V16.6089Z" fill="white"/>
<path id="Vector_242" d="M13.2969 16.6138H13.4898V13.8184H13.2969V16.6138Z" fill="white"/>
<path id="Vector_243" d="M13.4922 16.6137L13.6849 16.609V13.8135L13.4922 13.8182V16.6137Z" fill="white"/>
<path id="Vector_244" d="M13.6836 16.6087L13.8762 16.5991V13.8037L13.6836 13.8131V16.6087Z" fill="white"/>
<path id="Vector_245" d="M13.8789 16.5996L14.0712 16.5855V13.79L13.8789 13.8042V16.5996Z" fill="white"/>
<path id="Vector_246" d="M14.0742 16.5868L14.2647 16.5669V13.7715L14.0742 13.7913V16.5868Z" fill="white"/>
<path id="Vector_247" d="M14.2617 16.566L14.4513 16.5416V13.7461L14.2617 13.7706V16.566Z" fill="white"/>
<path id="Vector_248" d="M14.4531 16.5404L14.6417 16.5112V13.7158L14.4531 13.7449V16.5404Z" fill="white"/>
<path id="Vector_249" d="M14.6406 16.5118L14.8283 16.478V13.6826L14.6406 13.7163V16.5118Z" fill="white"/>
<path id="Vector_250" d="M14.8281 16.4782L15.0149 16.4399V13.6445L14.8281 13.6828V16.4782Z" fill="white"/>
<path id="Vector_251" d="M15.0117 16.4409L15.1976 16.398V13.6025L15.0117 13.6455V16.4409Z" fill="white"/>
<path id="Vector_252" d="M15.2031 16.3966L15.388 16.3491V13.5537L15.2031 13.6012V16.3966Z" fill="white"/>
<path id="Vector_253" d="M15.3828 16.3495L15.5669 16.2974V13.502L15.3828 13.5541V16.3495Z" fill="white"/>
<path id="Vector_254" d="M15.5664 16.2975L15.7495 16.2407V13.4453L15.5664 13.5021V16.2975Z" fill="white"/>
<path id="Vector_255" d="M15.75 16.2405L15.9322 16.1792V13.3838L15.75 13.4451V16.2405Z" fill="white"/>
<path id="Vector_256" d="M15.9336 16.1795L16.107 16.1177V13.3223L15.9336 13.3841V16.1795Z" fill="white"/>
<path id="Vector_257" d="M16.1094 16.1172L16.2744 16.0562V13.2607L16.1094 13.3218V16.1172Z" fill="white"/>
<path id="Vector_258" d="M16.2734 16.0558L16.4301 15.9957V13.2002L16.2734 13.2604V16.0558Z" fill="white"/>
<path id="Vector_259" d="M16.4297 15.9974L16.5778 15.938V13.1426L16.4297 13.2019V15.9974Z" fill="white"/>
<path id="Vector_260" d="M16.5742 15.9361L16.714 15.8776V13.082L16.5742 13.1407V15.9361Z" fill="white"/>
<path id="Vector_261" d="M16.7148 15.8787L16.8462 15.8208V13.0254L16.7148 13.0832V15.8787Z" fill="white"/>
<path id="Vector_262" d="M16.8477 15.8202L16.9705 15.7632V12.9678L16.8477 13.0248V15.8202Z" fill="white"/>
<path id="Vector_263" d="M16.9727 15.7638L17.0871 15.7075V12.9121L16.9727 12.9683V15.7638Z" fill="white"/>
<path id="Vector_264" d="M17.0859 15.7083L17.1919 15.6529V12.8574L17.0859 12.9129V15.7083Z" fill="white"/>
<path id="Vector_265" d="M17.1914 15.6519L17.289 15.5972V12.8018L17.1914 12.8563V15.6519Z" fill="white"/>
<path id="Vector_266" d="M17.2891 15.5972L17.3782 15.5425V12.7471L17.2891 12.8018V15.5972Z" fill="white"/>
<path id="Vector_267" d="M17.375 15.5423L17.4587 15.4888V12.6934L17.375 12.7469V15.5423Z" fill="white"/>
<path id="Vector_268" d="M17.4648 15.4895L17.543 15.4371V12.6416L17.4648 12.6941V15.4895Z" fill="white"/>
<path id="Vector_269" d="M17.5391 15.4356L17.6118 15.3844V12.5889L17.5391 12.6401V15.4356Z" fill="white"/>
<path id="Vector_270" d="M17.6172 15.3856L17.6845 15.3355V12.54L17.6172 12.5901V15.3856Z" fill="white"/>
<path id="Vector_271" d="M17.6797 15.3357L17.7415 15.2867V12.4912L17.6797 12.5402V15.3357Z" fill="white"/>
<path id="Vector_272" d="M17.7422 15.2857L17.7985 15.2379V12.4424L17.7422 12.4902V15.2857Z" fill="white"/>
<path id="Vector_273" d="M17.7969 15.2396L17.8477 15.1929V12.3975L17.7969 12.444V15.2396Z" fill="white"/>
<path id="Vector_274" d="M17.8477 15.1926L17.893 15.1471V12.3516L17.8477 12.3972V15.1926Z" fill="white"/>
<path id="Vector_275" d="M17.8945 15.1475L17.9345 15.103V12.3076L17.8945 12.352V15.1475Z" fill="white"/>
<path id="Vector_276" d="M17.9375 15.1021L17.9739 15.0572V12.2617L17.9375 12.3066V15.1021Z" fill="white"/>
<path id="Vector_277" d="M17.9688 15.0569L18.0024 15.0132V12.2178L17.9688 12.2614V15.0569Z" fill="white"/>
<path id="Vector_278" d="M18.0078 15.0126L18.0385 14.9703V12.1748L18.0078 12.2172V15.0126Z" fill="white"/>
<path id="Vector_279" d="M18.0391 14.9704L18.067 14.9293V12.1338L18.0391 12.1748V14.9704Z" fill="white"/>
<path id="Vector_280" d="M18.0625 14.93L18.0877 14.8901V12.0947L18.0625 12.1344V14.93Z" fill="white"/>
<path id="Vector_281" d="M18.0898 14.8905L18.1123 14.8522V12.0566L18.0898 12.0951V14.8905Z" fill="white"/>
<path id="Vector_282" d="M18.1133 14.8512L18.1328 14.8141V12.0186L18.1133 12.0557V14.8512Z" fill="white"/>
<path id="Vector_283" d="M18.1328 14.8138L18.1495 14.7778V11.9824L18.1328 12.0183V14.8138Z" fill="white"/>
<path id="Vector_284" d="M18.1445 14.7783L18.1585 14.7438V11.9482L18.1445 11.9829V14.7783Z" fill="white"/>
<path id="Vector_285" d="M18.1641 14.7438L18.1752 14.7106V11.915L18.1641 11.9483V14.7438Z" fill="white"/>
<path id="Vector_286" d="M18.1761 14.7109L16.0859 13.2184V10.4229L18.1761 11.9153V14.7109Z" fill="white"/>
<path id="Vector_287" d="M16.0826 13.2184L12.9531 14.314V11.5186L16.0826 10.4229V13.2184Z" fill="white"/>
<path id="Vector_288" d="M12.9541 14.3148L11.6016 13.3491V10.5537L12.9541 11.5194V14.3148Z" fill="white"/>
<path id="Vector_289" d="M11.6016 13.3479L17.3134 11.3481V8.55273L11.6016 10.5525V13.3479Z" fill="white"/>
<path id="Vector_290" d="M17.3148 8.55381L21.3359 11.4252C21.32 11.6411 21.203 11.9129 20.9848 12.2407C20.7687 12.5627 20.3732 12.9141 19.7984 13.295C19.2234 13.6759 18.3816 14.0603 17.2729 14.4485C16.3296 14.7788 15.3546 15.0021 14.3478 15.1186C13.3362 15.2316 12.3277 15.2332 11.3222 15.1234C10.3236 15.0112 9.35847 14.7873 8.4266 14.4517C7.48995 14.1126 6.62152 13.6572 5.82109 13.0857L5.09065 12.5642C4.2951 11.996 3.7275 11.4405 3.38784 10.8975C3.0503 10.3487 2.93305 9.82534 3.03621 9.32751C3.13937 8.82957 3.45873 8.3689 3.99438 7.94528C4.53214 7.51589 5.28299 7.13242 6.24704 6.79488C7.47952 6.36338 8.64334 6.10992 9.73828 6.03438C10.8352 5.95307 11.8572 6.01597 12.8041 6.22328C13.7511 6.43049 14.6085 6.74596 15.3765 7.1698L12.8356 8.05931C12.3866 7.82659 11.8969 7.64911 11.3665 7.52698C10.8432 7.4023 10.2791 7.3586 9.67461 7.39587C9.07196 7.42726 8.42305 7.56469 7.72755 7.80817C7.12845 8.01793 6.6812 8.25908 6.38592 8.53185C6.09052 8.80461 5.94566 9.10411 5.95131 9.43056C5.96374 9.75457 6.11604 10.1014 6.4081 10.4713C6.70028 10.8411 7.13078 11.2291 7.69971 11.6353L8.44457 12.1673C9.02315 12.5804 9.6227 12.9169 10.2433 13.1768C10.8707 13.4344 11.504 13.6154 12.143 13.72C12.789 13.8223 13.4326 13.8458 14.0737 13.7907C14.71 13.7321 15.3311 13.5968 15.9371 13.3846C16.5292 13.1773 16.981 12.9833 17.2921 12.8024C17.5985 12.6182 17.8137 12.453 17.9376 12.3071C18.0636 12.1552 18.1428 12.0249 18.1751 11.916L16.0849 10.4236L12.9554 11.5193L11.6029 10.5536L17.3148 8.55381Z" fill="#18181B"/>
</g>
</g>
</svg>
