<svg width="36" height="18" viewBox="0 0 36 18" fill="none" xmlns="http://www.w3.org/2000/svg">
<rect width="36" height="18" rx="9" fill="#4F46E5"/>
<path d="M28.8429 8.92588V9.36948C28.8429 9.97943 28.7634 10.5265 28.6045 11.0108C28.4455 11.4951 28.2182 11.9073 27.9224 12.2473C27.6304 12.5874 27.2792 12.8481 26.8689 13.0292C26.4586 13.2066 26.0039 13.2954 25.5048 13.2954C25.0095 13.2954 24.5566 13.2066 24.1463 13.0292C23.7397 12.8481 23.3866 12.5874 23.0872 12.2473C22.7878 11.9073 22.5549 11.4951 22.3885 11.0108C22.2259 10.5265 22.1445 9.97943 22.1445 9.36948V8.92588C22.1445 8.31593 22.2259 7.77066 22.3885 7.2901C22.5512 6.80583 22.7804 6.39365 23.0761 6.05355C23.3755 5.70976 23.7286 5.44915 24.1352 5.27171C24.5455 5.09057 24.9984 5 25.4937 5C25.9928 5 26.4475 5.09057 26.8578 5.27171C27.2681 5.44915 27.6212 5.70976 27.9169 6.05355C28.2126 6.39365 28.44 6.80583 28.5989 7.2901C28.7616 7.77066 28.8429 8.31593 28.8429 8.92588ZM27.4511 9.36948V8.91479C27.4511 8.46379 27.4068 8.0664 27.318 7.72261C27.233 7.37512 27.1055 7.08493 26.9354 6.85204C26.7691 6.61545 26.5639 6.43801 26.3199 6.31972C26.076 6.19773 25.8006 6.13673 25.4937 6.13673C25.1869 6.13673 24.9133 6.19773 24.6731 6.31972C24.4328 6.43801 24.2276 6.61545 24.0576 6.85204C23.8912 7.08493 23.7637 7.37512 23.675 7.72261C23.5862 8.0664 23.5419 8.46379 23.5419 8.91479V9.36948C23.5419 9.82048 23.5862 10.2197 23.675 10.5672C23.7637 10.9147 23.8931 11.2086 24.0631 11.4489C24.2369 11.6855 24.4439 11.8647 24.6842 11.9867C24.9244 12.105 25.198 12.1642 25.5048 12.1642C25.8153 12.1642 26.0907 12.105 26.331 11.9867C26.5713 11.8647 26.7746 11.6855 26.941 11.4489C27.1073 11.2086 27.233 10.9147 27.318 10.5672C27.4068 10.2197 27.4511 9.82048 27.4511 9.36948Z" fill="white"/>
<path d="M15.2539 5.11133H18.1096C18.7232 5.11133 19.2463 5.20375 19.6788 5.38858C20.1113 5.57341 20.4422 5.84697 20.6714 6.20924C20.9043 6.56782 21.0207 7.01142 21.0207 7.54005C21.0207 7.94299 20.9468 8.29787 20.7989 8.60469C20.6511 8.91152 20.4422 9.17029 20.1723 9.381C19.9025 9.58801 19.5809 9.74882 19.2075 9.86341L18.7861 10.0686H16.2187L16.2077 8.96512H18.1318C18.4645 8.96512 18.7417 8.90597 18.9635 8.78768C19.1853 8.66939 19.3517 8.50858 19.4626 8.30526C19.5772 8.09825 19.6345 7.86536 19.6345 7.60659C19.6345 7.32564 19.579 7.08166 19.4681 6.87465C19.3609 6.66394 19.1946 6.50313 18.9691 6.39223C18.7436 6.27763 18.4571 6.22033 18.1096 6.22033H16.6457V13.1849H15.2539V5.11133ZM19.8618 13.1849L17.9654 9.55844L19.4238 9.55289L21.3479 13.1128V13.1849H19.8618Z" fill="white"/>
<path d="M11.0664 10.1739H8.96483V9.07048H11.0664C11.4324 9.07048 11.7281 9.01133 11.9536 8.89304C12.1791 8.77474 12.3436 8.61209 12.4471 8.40507C12.5543 8.19436 12.6079 7.95408 12.6079 7.68422C12.6079 7.42915 12.5543 7.19071 12.4471 6.96891C12.3436 6.74341 12.1791 6.56228 11.9536 6.4255C11.7281 6.28872 11.4324 6.22033 11.0664 6.22033H9.3918V13.1849H8V5.11133H11.0664C11.6911 5.11133 12.2216 5.22223 12.6578 5.44403C13.0977 5.66213 13.4323 5.96526 13.6615 6.35341C13.8907 6.73787 14.0053 7.17777 14.0053 7.67313C14.0053 8.19436 13.8907 8.64166 13.6615 9.01503C13.4323 9.38839 13.0977 9.67488 12.6578 9.8745C12.2216 10.0741 11.6911 10.1739 11.0664 10.1739Z" fill="white"/>
</svg>
