<svg xmlns="http://www.w3.org/2000/svg" width="35" height="36" viewBox="0 0 35 36" fill="none">
  <path d="M12.1667 17.1111C14.6212 17.1111 16.6111 15.1212 16.6111 12.6667C16.6111 10.2121 14.6212 8.22222 12.1667 8.22222C9.71209 8.22222 7.72222 10.2121 7.72222 12.6667C7.72222 15.1212 9.71209 17.1111 12.1667 17.1111Z" fill="#333333"/>
  <path d="M30.8333 2H4.16667C2.69391 2 1.5 3.19391 1.5 4.66667V31.3333C1.5 32.8061 2.69391 34 4.16667 34H30.8333C32.3061 34 33.5 32.8061 33.5 31.3333V4.66667C33.5 3.19391 32.3061 2 30.8333 2Z" stroke="#333333" stroke-width="3" stroke-linecap="round" stroke-linejoin="round"/>
  <path d="M12.1667 17.1111C14.6212 17.1111 16.6111 15.1212 16.6111 12.6667C16.6111 10.2121 14.6212 8.22222 12.1667 8.22222C9.71209 8.22222 7.72222 10.2121 7.72222 12.6667C7.72222 15.1212 9.71209 17.1111 12.1667 17.1111Z" stroke="#333333" stroke-width="3" stroke-linecap="round" stroke-linejoin="round"/>
  <path d="M20.795 19.6205C21.5155 18.625 22.9686 18.6495 23.6571 19.6689L31.4019 31.1352C32.2179 32.3433 31.3806 34 29.9539 34H10.3889L20.795 19.6205Z" stroke="#333333" stroke-width="3" stroke-linecap="round" stroke-linejoin="round"/>
</svg>