<svg xmlns="http://www.w3.org/2000/svg" width="20" height="23" viewBox="0 0 20 23" fill="none">
  <path d="M15.2966 4.23972H16.6667V1.65857C16.6667 1.02289 16.1619 0.505126 15.5478 0.505126H0.0248645L0 0.5V20.0906L10.5326 22.5V20.0906H15.5478C16.1644 20.0906 16.6667 19.5703 16.6667 18.9371V16.2868H15.2966C15.2196 16.2868 15.145 16.3073 15.0753 16.2868V18.4476H10.5326V2.90941L6.95708 2.14558H15.0753V4.24228C15.145 4.21921 15.2196 4.23972 15.2966 4.23972ZM8.89154 9.35588V13.252L7.30021 12.9956V9.09956L8.89154 9.35588Z" fill="#18181B"/>
  <path d="M16.406 14.1336L19.7666 10.3946C19.9172 10.227 20 10.0037 20 9.7635C20 9.52336 19.9172 9.29996 19.7666 9.13242L16.406 5.39337C16.0923 5.04432 15.5828 5.04432 15.2691 5.39337C15.1185 5.56091 15.0357 5.78431 15.0357 6.02446C15.0357 6.2646 15.1185 6.488 15.2691 6.65554L17.2568 8.86714H13.0253C12.5836 8.86714 12.2222 9.26925 12.2222 9.76071C12.2222 10.2522 12.5836 10.6543 13.0253 10.6543H17.2593L15.2716 12.8659C15.121 13.0334 15.0382 13.2568 15.0382 13.497C15.0382 13.7371 15.121 13.9605 15.2716 14.1281C15.5828 14.4827 16.0923 14.4827 16.406 14.1336Z" fill="#18181B"/>
</svg>