<svg width="18" height="18" viewBox="0 0 18 18" fill="none" xmlns="http://www.w3.org/2000/svg">
<path d="M0.728102 6.19531L5.49239 6.19531C5.88714 6.19531 6.20703 5.87531 6.20703 5.48041L6.20703 0.717802C6.20703 0.321201 5.88714 0.00119731 5.49239 0.00119728C5.09763 0.00119724 4.77434 0.321201 4.77434 0.717801C4.77434 0.799958 4.78795 0.881664 4.78795 0.96382L4.78795 4.64976C4.78795 4.71615 4.73521 4.76891 4.67055 4.76891L0.80467 4.76891C0.779147 4.76721 0.753625 4.7621 0.728102 4.7621C0.333347 4.7621 0.0117579 5.08211 0.0117579 5.47871C0.0117579 5.87531 0.333347 6.19531 0.728102 6.19531Z" fill="currentColor"/>
<path d="M17.2875 6.19434L12.5232 6.19434C12.1285 6.19434 11.8086 5.87433 11.8086 5.47943L11.8086 0.716825C11.8086 0.320224 12.1285 0.000220776 12.5232 0.000220776C12.918 0.000220776 13.2413 0.320224 13.2413 0.716825C13.2413 0.798982 13.2277 0.880687 13.2277 0.962844L13.2277 4.64879C13.2277 4.71517 13.2804 4.76794 13.3451 4.76794L17.211 4.76794C17.2365 4.76623 17.262 4.76113 17.2875 4.76113C17.6823 4.76113 18.0039 5.08113 18.0039 5.47773C18.0039 5.87433 17.6823 6.19434 17.2875 6.19434Z" fill="currentColor"/>
<path d="M0.728102 11.8057L5.49239 11.8057C5.88714 11.8057 6.20703 12.1257 6.20703 12.5206L6.20703 17.2832C6.20703 17.6798 5.88714 17.9998 5.49239 17.9998C5.09763 17.9998 4.77434 17.6798 4.77434 17.2832C4.77434 17.201 4.78795 17.1193 4.78795 17.0372L4.78795 13.3512C4.78795 13.2848 4.73521 13.2321 4.67055 13.2321L0.80467 13.2321C0.779147 13.2338 0.753625 13.2389 0.728102 13.2389C0.333347 13.2389 0.0117579 12.9189 0.0117579 12.5223C0.0117579 12.1257 0.333347 11.8057 0.728102 11.8057Z" fill="currentColor"/>
<path d="M17.2875 11.8057H12.5232C12.1285 11.8057 11.8086 12.1257 11.8086 12.5206L11.8086 17.2832C11.8086 17.6798 12.1285 17.9998 12.5232 17.9998C12.918 17.9998 13.2413 17.6798 13.2413 17.2832C13.2413 17.201 13.2277 17.1193 13.2277 17.0372L13.2277 13.3512C13.2277 13.2848 13.2804 13.2321 13.3451 13.2321H17.211C17.2365 13.2338 17.262 13.2389 17.2875 13.2389C17.6823 13.2389 18.0039 12.9189 18.0039 12.5223C18.0039 12.1257 17.6823 11.8057 17.2875 11.8057Z" fill="currentColor"/>
</svg>