<svg xmlns="http://www.w3.org/2000/svg" width="39" height="36" viewBox="0 0 39 36" fill="none">
  <path d="M11.4 7.33333L14.1 2H24.9L27.6 7.33333H11.4Z" stroke="#333333" stroke-width="3" stroke-linejoin="round"/>
  <path d="M34.8 7.33333H4.2C2.70883 7.33333 1.5 8.52724 1.5 10V31.3333C1.5 32.8061 2.70883 34 4.2 34H34.8C36.2912 34 37.5 32.8061 37.5 31.3333V10C37.5 8.52724 36.2912 7.33333 34.8 7.33333Z" stroke="#333333" stroke-width="3" stroke-linejoin="round"/>
  <path d="M19.5 27.7778C23.4765 27.7778 26.7 24.594 26.7 20.6667C26.7 16.7393 23.4765 13.5556 19.5 13.5556C15.5235 13.5556 12.3 16.7393 12.3 20.6667C12.3 24.594 15.5235 27.7778 19.5 27.7778Z" stroke="#333333" stroke-width="3" stroke-linejoin="round"/>
</svg>