<svg xmlns="http://www.w3.org/2000/svg" width="36" height="36" viewBox="0 0 36 36" fill="none">
  <path d="M13.6579 2L14.8211 1.05296C14.5363 0.703079 14.1091 0.5 13.6579 0.5V2ZM18 7.33333L16.8368 8.28037C17.1216 8.63025 17.5488 8.83333 18 8.83333V7.33333ZM3 10.8889C3 10.0605 2.32843 9.38889 1.5 9.38889C0.671573 9.38889 0 10.0605 0 10.8889H3ZM0 21.5556C0 22.384 0.671573 23.0556 1.5 23.0556C2.32843 23.0556 3 22.384 3 21.5556H0ZM36 10.8889C36 10.0605 35.3284 9.38889 34.5 9.38889C33.6716 9.38889 33 10.0605 33 10.8889H36ZM33 21.5556C33 22.384 33.6716 23.0556 34.5 23.0556C35.3284 23.0556 36 22.384 36 21.5556H33ZM3 3.77778C3 3.59123 3.13879 3.5 3.23684 3.5V0.5C1.41643 0.5 0 2.00064 0 3.77778H3ZM3.23684 3.5H13.6579V0.5H3.23684V3.5ZM12.4947 2.94704L16.8368 8.28037L19.1632 6.38629L14.8211 1.05296L12.4947 2.94704ZM18 8.83333H32.7632V5.83333H18V8.83333ZM32.7632 8.83333C32.8612 8.83333 33 8.92454 33 9.11111H36C36 7.33395 34.5836 5.83333 32.7632 5.83333V8.83333ZM33 9.11111V32.2222H36V9.11111H33ZM33 32.2222C33 32.4088 32.8612 32.5 32.7632 32.5V35.5C34.5836 35.5 36 33.9994 36 32.2222H33ZM32.7632 32.5H3.23684V35.5H32.7632V32.5ZM3.23684 32.5C3.13877 32.5 3 32.4088 3 32.2222H0C0 33.9994 1.41645 35.5 3.23684 35.5V32.5ZM3 32.2222V3.77778H0V32.2222H3ZM34.5 14.7222H1.5V17.7222H34.5V14.7222ZM0 10.8889V21.5556H3V10.8889H0ZM33 10.8889V21.5556H36V10.8889H33Z" fill="#333333"/>
</svg>