
<svg width="17" height="18" viewBox="0 0 17 18" fill="none" xmlns="http://www.w3.org/2000/svg">
  <path d="M10.9004 4.41016L5.20293 7.86206M5.20205 10.2531L11.2052 13.8005M13.15 5.5C14.3926 5.5 15.4 4.49263 15.4 3.25C15.4 2.00736 14.3926 1 13.15 1C11.9074 1 10.9 2.00736 10.9 3.25C10.9 4.49263 11.9074 5.5 13.15 5.5ZM3.25 11.35C4.49263 11.35 5.5 10.3426 5.5 9.1C5.5 7.85737 4.49263 6.85 3.25 6.85C2.00737 6.85 1 7.85737 1 9.1C1 10.3426 2.00737 11.35 3.25 11.35ZM13.15 12.7C14.3926 12.7 15.4 13.7074 15.4 14.95C15.4 16.1926 14.3926 17.2 13.15 17.2C11.9074 17.2 10.9 16.1926 10.9 14.95C10.9 13.7074 11.9074 12.7 13.15 12.7Z" stroke="white" stroke-width="1.5" stroke-linecap="round" stroke-linejoin="round"/>
  </svg>
  