<svg width="142" height="110" viewBox="0 0 142 110" fill="none" xmlns="http://www.w3.org/2000/svg">
<path d="M34.7531 11.8203H102.833C105.295 11.8203 107.148 13.6738 107.148 16.1359V59.2877C107.148 61.7498 105.295 63.6033 102.833 63.6033H34.7531C32.291 63.6033 30.4375 61.7498 30.4375 59.2877V16.1359C30.4375 13.6864 32.467 11.8203 34.7531 11.8203Z" fill="white" stroke="#959595"/>
<path d="M79.5458 0.5L94.0974 16.3293L94.6737 62.7187C94.6737 62.7197 94.6737 62.7207 94.6737 62.7217C94.6721 64.0192 93.6111 65.04 92.2801 65.04H46.8506C45.5271 65.04 44.457 63.9536 44.457 62.7187V2.82126C44.457 1.52231 45.5186 0.5 46.8506 0.5H79.5458Z" fill="#FDFEFF" stroke="#959595"/>
<path d="M73.3983 9.7656H51.624C51.1176 9.7656 50.6836 9.33156 50.6836 8.82518C50.6836 8.3188 51.1176 7.88477 51.624 7.88477H73.3983C73.9047 7.88477 74.3388 8.3188 74.3388 8.82518C74.3388 9.33156 73.9047 9.7656 73.3983 9.7656Z" fill="#71717A"/>
<path d="M60.0154 14.9746H51.624C51.1176 14.9746 50.6836 14.5405 50.6836 14.0342C50.6836 13.5278 51.1176 13.0938 51.624 13.0938H59.9431C60.4495 13.0938 60.8835 13.5278 60.8835 14.0342C60.8835 14.5405 60.4495 14.9746 60.0154 14.9746Z" fill="#71717A"/>
<mask id="path-5-inside-1_8505_8689" fill="white">
<path d="M79.7656 0V12.8765C79.7656 14.685 81.3571 16.1318 83.1656 16.1318H94.5953"/>
</mask>
<path d="M78.7656 0V12.8765H80.7656V0H78.7656ZM78.7656 12.8765C78.7656 15.2927 80.8619 17.1318 83.1656 17.1318V15.1318C81.8523 15.1318 80.7656 14.0773 80.7656 12.8765H78.7656ZM83.1656 17.1318H94.5953V15.1318H83.1656V17.1318Z" fill="#959595" mask="url(#path-5-inside-1_8505_8689)"/>
<path d="M88.5341 11.6807H80.64H78.6833H51.8974C51.56 11.6807 51.2227 12.0115 51.2227 12.4746C51.2227 12.8716 51.4925 13.2686 51.8974 13.2686H78.6833H80.64H88.4666C88.9389 13.2686 89.2088 12.9378 89.2088 12.4746C89.2088 12.0776 88.9389 11.6807 88.5341 11.6807Z" fill="#71717A"/>
<path d="M108.969 38.9855V60.2308C108.969 62.9691 106.798 65.2353 103.965 65.2353H33.9967C31.2584 65.2353 28.9922 62.9691 28.9922 60.2308V37.1914" stroke="#1676EE" stroke-width="3" stroke-linecap="round" stroke-linejoin="round"/>
<path d="M103.021 27.0889H80.9255C78.7537 27.0889 76.6764 27.8443 75.0712 29.1662L69.3113 33.8874C67.7061 35.2093 65.6288 35.9647 63.457 35.9647H38.5291C35.9797 35.9647 33.9023 38.042 33.9023 40.5915C33.9023 40.7803 33.9023 41.0636 33.9968 41.2525L38.6235 65.6138C39.0012 67.88 40.8897 69.5796 43.2503 69.5796H96.5998C98.866 69.5796 100.849 67.9744 101.227 65.7083L107.647 32.3766C108.12 29.8272 106.42 27.561 103.87 27.0889C103.493 27.0889 103.21 27.0889 103.021 27.0889Z" fill="white"/>
<g filter="url(#filter0_d_8505_8689)">
<path d="M112.935 20.5749H84.2304C81.3976 20.5749 78.7538 21.5191 76.582 23.3132L69.0281 29.4507C66.9508 31.1504 64.2125 32.189 61.3798 32.189H28.8979C25.5931 32.189 22.9492 34.9273 22.9492 38.1377C22.9492 38.421 22.9492 38.7043 23.0436 38.9876L28.9924 70.8084C29.4645 73.83 32.0139 76.0017 34.9411 76.0017H80.5H92.4685H104.437C107.459 76.0017 109.914 73.9244 110.386 70.9029L118.79 27.3734C119.356 24.0686 117.184 21.1414 113.879 20.4805C113.596 20.5749 113.218 20.5749 112.935 20.5749Z" fill="white"/>
</g>
<g filter="url(#filter1_d_8505_8689)">
<path d="M104.437 76.0017C107.459 76.0017 109.914 73.9244 110.386 70.9029L118.79 27.3734C119.356 24.0686 117.184 21.1414 113.879 20.4805C113.596 20.5749 113.218 20.5749 112.935 20.5749H84.2304C81.3976 20.5749 78.7538 21.5191 76.582 23.3132L69.0281 29.4507C66.9508 31.1504 64.2125 32.189 61.3798 32.189H28.8979C25.5931 32.189 22.9492 34.9273 22.9492 38.1377C22.9492 38.421 22.9492 38.7043 23.0436 38.9876L28.9924 70.8084C29.4645 73.83 32.0139 76.0017 34.9411 76.0017H80.5" stroke="#959595"/>
</g>
<path d="M97.4188 75.1V70.6C97.4188 70.1226 97.2302 69.6648 96.8944 69.3272C96.5586 68.9896 96.1031 68.8 95.6283 68.8C95.1534 68.8 94.6979 68.9896 94.3622 69.3272C94.0264 69.6648 93.8377 70.1226 93.8377 70.6" fill="white"/>
<path d="M93.8377 74.2V68.8C93.8377 68.3226 93.6491 67.8648 93.3133 67.5272C92.9775 67.1896 92.522 67 92.0472 67C91.5723 67 91.1168 67.1896 90.7811 67.5272C90.4453 67.8648 90.2566 68.3226 90.2566 68.8V70.6" fill="white"/>
<path d="M90.2566 74.65V70.6C90.2566 70.1226 90.068 69.6648 89.7322 69.3272C89.3964 68.9896 88.941 68.8 88.4661 68.8C87.9912 68.8 87.5358 68.9896 87.2 69.3272C86.8642 69.6648 86.6755 70.1226 86.6755 70.6V77.8" fill="white"/>
<path d="M97.4189 72.4C97.4189 71.9226 97.6075 71.4648 97.9433 71.1272C98.2791 70.7896 98.7346 70.6 99.2095 70.6C99.6843 70.6 100.14 70.7896 100.476 71.1272C100.811 71.4648 101 71.9226 101 72.4V77.8C101 79.7096 100.245 81.5409 98.9022 82.8912C97.5591 84.2414 95.7373 85 93.8378 85H92.0473C89.5405 85 88.0185 84.226 86.6846 82.894L83.4616 79.654C83.1535 79.311 82.9885 78.8621 83.0006 78.4002C83.0127 77.9383 83.2011 77.4988 83.5267 77.1727C83.8523 76.8465 84.2902 76.6587 84.7497 76.6482C85.2092 76.6376 85.6551 76.8051 85.9952 77.116L87.5709 78.7" fill="white"/>
<path d="M97.4188 75.1V70.6C97.4188 70.1226 97.2302 69.6648 96.8944 69.3272C96.5586 68.9896 96.1031 68.8 95.6283 68.8C95.1534 68.8 94.6979 68.9896 94.3622 69.3272C94.0264 69.6648 93.8377 70.1226 93.8377 70.6M93.8377 74.2V68.8C93.8377 68.3226 93.6491 67.8648 93.3133 67.5272C92.9775 67.1896 92.522 67 92.0472 67C91.5723 67 91.1169 67.1896 90.7811 67.5272C90.4453 67.8648 90.2566 68.3226 90.2566 68.8V70.6M90.2566 70.6V74.65M90.2566 70.6C90.2566 70.1226 90.068 69.6648 89.7322 69.3272C89.3964 68.9896 88.941 68.8 88.4661 68.8C87.9912 68.8 87.5358 68.9896 87.2 69.3272C86.8642 69.6648 86.6755 70.1226 86.6755 70.6V77.8M97.4189 72.4C97.4189 71.9226 97.6076 71.4648 97.9433 71.1272C98.2791 70.7896 98.7346 70.6 99.2095 70.6C99.6843 70.6 100.14 70.7896 100.476 71.1272C100.811 71.4648 101 71.9226 101 72.4V77.8C101 79.7096 100.245 81.5409 98.9022 82.8912C97.5591 84.2414 95.7373 85 93.8378 85H92.0473C89.5405 85 88.0185 84.226 86.6846 82.894L83.4616 79.654C83.1535 79.311 82.9885 78.8621 83.0006 78.4002C83.0127 77.9383 83.2011 77.4988 83.5267 77.1727C83.8523 76.8465 84.2902 76.6587 84.7497 76.6482C85.2092 76.6376 85.6551 76.8051 85.9952 77.116L87.5709 78.7" stroke="#959595" stroke-linecap="round" stroke-linejoin="round"/>
<defs>
<filter id="filter0_d_8505_8689" x="0.949219" y="9.48047" width="139.93" height="99.5215" filterUnits="userSpaceOnUse" color-interpolation-filters="sRGB">
<feFlood flood-opacity="0" result="BackgroundImageFix"/>
<feColorMatrix in="SourceAlpha" type="matrix" values="0 0 0 0 0 0 0 0 0 0 0 0 0 0 0 0 0 0 127 0" result="hardAlpha"/>
<feOffset dy="11"/>
<feGaussianBlur stdDeviation="11"/>
<feColorMatrix type="matrix" values="0 0 0 0 0.819608 0 0 0 0 0.835294 0 0 0 0 0.858824 0 0 0 0.27 0"/>
<feBlend mode="normal" in2="BackgroundImageFix" result="effect1_dropShadow_8505_8689"/>
<feBlend mode="normal" in="SourceGraphic" in2="effect1_dropShadow_8505_8689" result="shape"/>
</filter>
<filter id="filter1_d_8505_8689" x="0.449219" y="8.96387" width="140.93" height="100.538" filterUnits="userSpaceOnUse" color-interpolation-filters="sRGB">
<feFlood flood-opacity="0" result="BackgroundImageFix"/>
<feColorMatrix in="SourceAlpha" type="matrix" values="0 0 0 0 0 0 0 0 0 0 0 0 0 0 0 0 0 0 127 0" result="hardAlpha"/>
<feOffset dy="11"/>
<feGaussianBlur stdDeviation="11"/>
<feColorMatrix type="matrix" values="0 0 0 0 0.819608 0 0 0 0 0.835294 0 0 0 0 0.858824 0 0 0 0.27 0"/>
<feBlend mode="normal" in2="BackgroundImageFix" result="effect1_dropShadow_8505_8689"/>
<feBlend mode="normal" in="SourceGraphic" in2="effect1_dropShadow_8505_8689" result="shape"/>
</filter>
</defs>
</svg>