<svg width="32" height="32" viewBox="0 0 32 32" fill="none" xmlns="http://www.w3.org/2000/svg">
<path d="M12.4432 23.2001C12.6128 23.4873 12.9312 23.6801 13.2944 23.6801H18.7024C19.0656 23.6801 19.384 23.4881 19.5536 23.2001H29.4344C29.5248 23.2001 29.5984 23.2721 29.5984 23.3601V24.1601C29.5984 24.5137 29.3048 24.8001 28.9424 24.8001H3.05444C2.69124 24.8001 2.39844 24.5137 2.39844 24.1601V23.3601C2.39844 23.2721 2.47204 23.2001 2.56244 23.2001H12.4432ZM27.0184 5.6001C27.56 5.6001 27.9984 6.0257 27.9984 6.5505V20.6497C27.9984 21.1745 27.56 21.6001 27.0184 21.6001H4.97844C4.43604 21.6001 3.99844 21.1745 3.99844 20.6497V6.5505C3.99844 6.0257 4.43684 5.6001 4.97764 5.6001H27.0184ZM27.0184 6.4001H4.97844C4.87284 6.4001 4.79844 6.4729 4.79844 6.5505V20.6497C4.79844 20.7273 4.87364 20.8001 4.97764 20.8001H27.0184C27.1232 20.8001 27.1984 20.7273 27.1984 20.6497V6.5505C27.1984 6.4729 27.1232 6.4001 27.0184 6.4001Z" fill="currentColor"/>
</svg>