<svg width="28" height="28" viewBox="0 0 28 28" fill="none" xmlns="http://www.w3.org/2000/svg">
<rect width="28" height="28" rx="14" fill="#F1F1F1"/>
<path fill-rule="evenodd" clip-rule="evenodd" d="M6 9.6188V18.8564L14 23.4752L22 18.8564V9.6188L14 5L6 9.6188ZM7.2 10.9071V18.1636L13.4 21.7432V14.0807L7.2 10.9071ZM14.6 14.0807V21.7432L20.8 18.1636V10.9071L14.6 14.0807ZM20.109 9.9127L14 6.38564L7.89095 9.9127L14 13.0398L20.109 9.9127Z" fill="#3D3D3D"/>
<path fill-rule="evenodd" clip-rule="evenodd" d="M14.047 7.54315C14.3783 7.54315 14.647 7.81178 14.647 8.14315L14.647 11.5715C14.647 11.9029 14.3783 12.1715 14.047 12.1715C13.7156 12.1715 13.447 11.9029 13.447 11.5715L13.447 8.14315C13.447 7.81178 13.7156 7.54315 14.047 7.54315Z" fill="#3D3D3D"/>
<path fill-rule="evenodd" clip-rule="evenodd" d="M12.2139 14.9861C12.4005 15.26 12.3298 15.6332 12.0559 15.8198L9.22255 17.7501C8.94869 17.9367 8.57544 17.8659 8.38887 17.592C8.20229 17.3182 8.27305 16.9449 8.54691 16.7584L11.3803 14.8281C11.6541 14.6415 12.0274 14.7123 12.2139 14.9861Z" fill="#3D3D3D"/>
<path fill-rule="evenodd" clip-rule="evenodd" d="M19.7502 17.3414C19.5845 17.6284 19.2176 17.7267 18.9306 17.5611L15.9615 15.8469C15.6745 15.6812 15.5762 15.3142 15.7419 15.0272C15.9076 14.7403 16.2745 14.6419 16.5615 14.8076L19.5306 16.5218C19.8176 16.6875 19.9159 17.0545 19.7502 17.3414Z" fill="#3D3D3D"/>
</svg>
