<svg xmlns="http://www.w3.org/2000/svg" xmlns:xlink="http://www.w3.org/1999/xlink" fill="none" version="1.1" width="21.31658363342285" height="20.34375" viewBox="0 0 21.31658363342285 20.34375"><defs><clipPath id="master_svg0_86_1881"><rect x="0" y="0" width="21.31658363342285" height="20.34375" rx="0"/></clipPath></defs><g clip-path="url(#master_svg0_86_1881)"><g><path d="M10.6591371875,2.589202880859375C6.2710871875,2.589203074872375,2.71386922041,5.984082880859376,2.71386922041,10.171872880859375C2.71386922041,14.359702880859375,6.2710871875,17.754502880859377,10.6591371875,17.754502880859377C15.0471671875,17.754502880859377,18.6043671875,14.359702880859375,18.6043671875,10.171872880859375C18.599067187499998,5.986192880859376,15.0449671875,2.594297660859375,10.6591371875,2.589202880859375ZM10.6591371875,16.459902880859374C7.0202671875,16.459902880859374,4.0703771875,13.644702880859375,4.0703771875,10.171872880859375C4.0703771875,6.699072880859375,7.0202671875,3.883802880859375,10.6591471875,3.883802880859375C14.2979671875,3.883802880859375,17.2478671875,6.699072880859375,17.2478671875,10.171872880859375C17.2425671875,13.642602880859375,14.2957671875,16.454802880859376,10.6591371875,16.459902880859374Z" fill="#6366F1" fill-opacity="1" style="mix-blend-mode:passthrough"/></g><g><path d="M13.565563125,10.171885595703126Q13.565563125,10.308165595703125,13.551573125,10.443795595703126Q13.537573125,10.579425595703125,13.509713125000001,10.713095595703125Q13.481853125,10.846755595703126,13.440403125,10.977175595703125Q13.398943124999999,11.107595595703124,13.344303125,11.233505595703125Q13.289653125000001,11.359415595703124,13.222333124999999,11.479605595703125Q13.155013125,11.599795595703124,13.075683125000001,11.713115595703126Q12.996343125,11.826435595703124,12.905753125,11.931785595703126Q12.815163125,12.037135595703125,12.714183125,12.133505595703124Q12.613203125,12.229865595703124,12.502823124999999,12.316325595703125Q12.392433125,12.402785595703126,12.273693125000001,12.478505595703126Q12.154963125,12.554215595703125,12.029023125,12.618465595703125Q11.903073124999999,12.682705595703126,11.771143125,12.734855595703124Q11.639213125,12.787015595703124,11.502563125,12.826575595703126Q11.365903124999999,12.866135595703124,11.225853125,12.892725595703125Q11.085793125,12.919315595703125,10.943673125,12.932675595703124Q10.801563125,12.946035595703126,10.658763125,12.946035595703126Q10.515953125,12.946035595703126,10.373843125,12.932675595703124Q10.231723125,12.919315595703125,10.091673125,12.892725595703125Q9.951613125,12.866135595703124,9.814963125,12.826575595703126Q9.678303125,12.787015595703124,9.546373125,12.734855595703124Q9.414443125,12.682705595703126,9.288503125,12.618465595703125Q9.162563125,12.554215595703125,9.043823125,12.478505595703126Q8.925093125,12.402785595703126,8.814703125,12.316325595703125Q8.704313125,12.229865595703124,8.603337125,12.133505595703124Q8.502360125,12.037135595703125,8.411768125,11.931785595703126Q8.321175125,11.826435595703124,8.241838125,11.713115595703126Q8.162502125,11.599795595703124,8.095185125,11.479605595703125Q8.027869125,11.359415595703124,7.973220125,11.233505595703125Q7.918572125,11.107595595703124,7.877119125,10.977175595703125Q7.835665925,10.846755595703126,7.807806625,10.713095595703125Q7.779947225,10.579425595703125,7.765950225,10.443795595703126Q7.751953125,10.308165595703125,7.751953125,10.171885595703126Q7.751953125,10.035595595703125,7.765950225,9.899965595703126Q7.779947225,9.764335595703125,7.807806625,9.630675595703124Q7.835665925,9.497005595703126,7.877119125,9.366585595703125Q7.918572125,9.236175595703125,7.973220125,9.110265595703126Q8.027869125,8.984355595703125,8.095185125,8.864155595703124Q8.162502125,8.743965595703125,8.241838125,8.630645595703125Q8.321175125,8.517335595703125,8.411768125,8.411985595703126Q8.502360125,8.306632595703125,8.603337125,8.210264595703125Q8.704313125,8.113896595703125,8.814703125,8.027438595703124Q8.925093125,7.940979595703125,9.043823125,7.865263595703125Q9.162563125,7.789547595703125,9.288503125,7.725303595703125Q9.414443125,7.661058595703125,9.546373125,7.608904595703125Q9.678303125,7.556750595703125,9.814963125,7.517189595703125Q9.951613125,7.477627995703125,10.091673125,7.451040095703125Q10.231723125,7.424452195703125,10.373843125,7.411093895703125Q10.515953125,7.397735595703125,10.658763125,7.397735595703125Q10.801563125,7.397735595703125,10.943673125,7.411093895703125Q11.085793125,7.424452195703125,11.225853125,7.451040095703125Q11.365903124999999,7.477627995703125,11.502563125,7.517189595703125Q11.639213125,7.556750595703125,11.771143125,7.608904595703125Q11.903073124999999,7.661058595703125,12.029023125,7.725303595703125Q12.154963125,7.789547595703125,12.273693125000001,7.865263595703125Q12.392433125,7.940979595703125,12.502823124999999,8.027438595703124Q12.613203125,8.113896595703125,12.714183125,8.210264595703125Q12.815163125,8.306632595703125,12.905753125,8.411985595703126Q12.996343125,8.517335595703125,13.075683125000001,8.630645595703125Q13.155013125,8.743965595703125,13.222333124999999,8.864155595703124Q13.289653125000001,8.984355595703125,13.344303125,9.110265595703126Q13.398943124999999,9.236175595703125,13.440403125,9.366585595703125Q13.481853125,9.497005595703126,13.509713125000001,9.630675595703124Q13.537573125,9.764335595703125,13.551573125,9.899965595703126Q13.565563125,10.035595595703125,13.565563125,10.171885595703126Z" fill="#6366F1" fill-opacity="1" style="mix-blend-mode:passthrough"/></g></g></svg>