<svg width="20" height="20" viewBox="0 0 20 20" fill="none" xmlns="http://www.w3.org/2000/svg">
<g clip-path="url(#clip0_9712_38400)">
<path d="M10.0013 8.33333V13.3333M10.0013 8.33333L7.5013 10.8333M10.0013 8.33333L12.5013 10.8333M16.668 16.6667C17.11 16.6667 17.5339 16.4911 17.8465 16.1785C18.159 15.866 18.3346 15.442 18.3346 15V6.66667C18.3346 6.22464 18.159 5.80072 17.8465 5.48816C17.5339 5.17559 17.11 5 16.668 5H10.0846C9.8059 5.00273 9.53092 4.93551 9.28489 4.80448C9.03885 4.67346 8.8296 4.48281 8.6763 4.25L8.0013 3.25C7.84954 3.01956 7.64295 2.8304 7.40005 2.6995C7.15716 2.56859 6.88556 2.50005 6.60964 2.5H3.33464C2.89261 2.5 2.46868 2.67559 2.15612 2.98816C1.84356 3.30072 1.66797 3.72464 1.66797 4.16667V15C1.66797 15.442 1.84356 15.866 2.15612 16.1785C2.46868 16.4911 2.89261 16.6667 3.33464 16.6667H16.668Z" stroke="white" stroke-width="1.5" stroke-linecap="round" stroke-linejoin="round"/>
</g>
<defs>
<clipPath id="clip0_9712_38400">
<rect width="20" height="20" fill="white"/>
</clipPath>
</defs>
</svg>
