<svg width="39" height="39" viewBox="0 0 39 39" fill="none" xmlns="http://www.w3.org/2000/svg">
<g clip-path="url(#clip0_409_7)">
<path d="M22.5235 0.253823C15.5828 -0.829605 8.88326 1.91034 4.63008 6.95197L4.49243 3.85526C4.47955 3.56028 4.40868 3.27073 4.28385 3.00315C4.15903 2.73558 3.98271 2.49522 3.76495 2.29581C3.5472 2.09641 3.29229 1.94187 3.01478 1.84102C2.73728 1.74017 2.44262 1.695 2.14765 1.70807C1.55224 1.73455 0.991731 1.99646 0.589412 2.43618C0.187094 2.87591 -0.0240826 3.45743 0.00233275 4.05284L0.368001 12.2853C0.394484 12.8807 0.656391 13.4412 1.09611 13.8435C1.53584 14.2459 2.11736 14.457 2.71278 14.4306L10.9452 14.065C11.5403 14.0381 12.1004 13.7761 12.5024 13.3365C12.9044 12.897 13.1154 12.3158 13.0892 11.7206C13.063 11.1252 12.8015 10.5646 12.362 10.162C11.9226 9.75944 11.3412 9.5479 10.7458 9.57393L8.20436 9.68676C11.4097 5.99403 16.3446 3.96248 21.486 4.64419C30.1576 5.79457 36.0336 14.167 34.1636 22.7118C32.4452 30.5641 24.7943 35.6975 16.8282 34.2371C14.5784 33.8268 12.4527 32.9059 10.6145 31.5454C8.77626 30.1848 7.27454 28.4208 6.22479 26.3891C5.95332 25.8709 5.49012 25.4793 4.93399 25.2978C4.37786 25.1163 3.77282 25.1592 3.24794 25.4175C2.97823 25.5494 2.73769 25.734 2.54051 25.9604C2.34333 26.1868 2.19351 26.4504 2.0999 26.7357C2.00628 27.0209 1.97077 27.322 1.99546 27.6212C2.02015 27.9205 2.10453 28.2117 2.24363 28.4777C4.92271 33.628 9.86556 37.5305 16.0178 38.6584C26.4541 40.5691 36.4713 33.7802 38.6036 23.4426C40.8467 12.5662 33.4959 1.96652 22.5235 0.253823Z" fill="#404040"/>
</g>
<defs>
<clipPath id="clip0_409_7">
<rect width="39" height="39" fill="white"/>
</clipPath>
</defs>
</svg>