<svg width="20" height="20" viewBox="0 0 20 20" fill="none" xmlns="http://www.w3.org/2000/svg">
<path d="M16.5581 16.1423C16.4618 16.6064 16.0529 16.9392 15.5789 16.9392H3.42105C2.94706 16.9392 2.53819 16.6064 2.4419 16.1423L0.360604 6.11006C0.202313 5.34707 0.938867 4.70422 1.67344 4.96424L5.75284 6.40826C6.14318 6.54643 6.57831 6.42974 6.84713 6.1148L8.70409 3.93926C9.09953 3.47596 9.8138 3.47083 10.2159 3.92838L12.1522 6.13186C12.4221 6.43907 12.8519 6.55094 13.2374 6.41432L17.326 4.96519C18.0606 4.70481 18.7976 5.34771 18.6392 6.11088L16.5581 16.1423ZM3.62001 14.6949C3.71606 15.1593 4.12507 15.4923 4.59929 15.4923H14.4012C14.8752 15.4923 15.2841 15.1596 15.3804 14.6955L16.7002 8.33428C16.8586 7.57089 16.1212 6.92792 15.3865 7.18874L12.8006 8.10671C12.4151 8.24358 11.9851 8.13179 11.715 7.82449L10.2362 6.14194C9.83407 5.68444 9.11983 5.68962 8.72442 6.15291L7.30738 7.81318C7.03848 8.12824 6.60319 8.24491 6.21277 8.10657L3.61724 7.18691C2.88287 6.9267 2.14619 7.56907 2.30399 8.33203L3.62001 14.6949Z" fill="white"/>
<path d="M2.28602 12.7347C2.28602 12.3351 2.60991 12.0112 3.00944 12.0112H15.7677C16.1673 12.0112 16.4912 12.3351 16.4912 12.7347C16.4912 13.1342 16.1673 13.4581 15.7677 13.4581H3.00944C2.60991 13.4581 2.28602 13.1342 2.28602 12.7347Z" fill="white"/>
</svg>
