<svg width="28" height="28" viewBox="0 0 28 28" fill="none" xmlns="http://www.w3.org/2000/svg">
<path d="M27 14C27 16.8719 21.1797 19.2 14 19.2C6.8203 19.2 1 16.8719 1 14M27 14C27 11.1281 21.1797 8.8 14 8.8C6.8203 8.8 1 11.1281 1 14M27 14C27 21.1797 21.1797 27 14 27M27 14C27 6.8203 21.1797 1 14 1M1 14C1 21.1797 6.8203 27 14 27M1 14C1 6.8203 6.8203 1 14 1M14 27C16.8719 27 19.2 21.1797 19.2 14C19.2 6.8203 16.8719 1 14 1M14 27C11.1281 27 8.8 21.1797 8.8 14C8.8 6.8203 11.1281 1 14 1" stroke="#717171" stroke-width="1.5" stroke-linecap="round" stroke-linejoin="round"/>
</svg>
