<svg width="27" height="27" viewBox="0 0 27 27" fill="none" xmlns="http://www.w3.org/2000/svg">
<path d="M7.79784 9.63773C7.79784 10.2755 7.57463 10.8175 7.12822 11.264C6.68181 11.7104 6.14372 11.9336 5.51396 11.9336C4.8842 11.9336 4.34611 11.7104 3.8997 11.264C3.45329 10.8175 3.23008 10.2755 3.23008 9.63773C3.23008 9 3.45329 8.45793 3.8997 8.01151C4.34611 7.5651 4.8842 7.3419 5.51396 7.3419C6.14372 7.3419 6.68181 7.5651 7.12822 8.01151C7.57463 8.45793 7.79784 9 7.79784 9.63773ZM7.79784 17.0753C7.79784 17.713 7.57463 18.2551 7.12822 18.7015C6.68181 19.1479 6.14372 19.3711 5.51396 19.3711C4.8842 19.3711 4.34611 19.1479 3.8997 18.7015C3.45329 18.2551 3.23008 17.717 3.23008 17.0872C3.23008 16.4575 3.45329 15.9194 3.8997 15.473C4.34611 15.0266 4.8842 14.8034 5.51396 14.8034C6.14372 14.8034 6.68181 15.0266 7.12822 15.473C7.57463 15.9194 7.79784 16.4535 7.79784 17.0753ZM16.0246 17.0753C16.0246 17.713 15.8014 18.2551 15.355 18.7015C14.9086 19.1479 14.3665 19.3711 13.7288 19.3711C13.091 19.3711 12.5489 19.1479 12.1025 18.7015C11.6561 18.2551 11.4329 17.717 11.4329 17.0872C11.4329 16.4575 11.6561 15.9194 12.1025 15.473C12.5489 15.0266 13.091 14.8034 13.7288 14.8034C14.3665 14.8034 14.9086 15.0266 15.355 15.473C15.8014 15.9194 16.0246 16.4535 16.0246 17.0753ZM16.0246 9.63773C16.0246 10.2755 15.8014 10.8175 15.355 11.264C14.9086 11.7104 14.3665 11.9336 13.7288 11.9336C13.091 11.9336 12.5489 11.7104 12.1025 11.264C11.6561 10.8175 11.4329 10.2755 11.4329 9.63773C11.4329 9 11.6561 8.45793 12.1025 8.01151C12.5489 7.5651 13.091 7.3419 13.7288 7.3419C14.3665 7.3419 14.9086 7.5651 15.355 8.01151C15.8014 8.45793 16.0246 9 16.0246 9.63773ZM7.79784 2.29584C7.79784 2.91763 7.57463 3.45173 7.12822 3.89814C6.68181 4.34455 6.14372 4.56776 5.51396 4.56776C4.8842 4.56776 4.34611 4.34455 3.8997 3.89814C3.45329 3.45173 3.23008 2.91364 3.23008 2.28388C3.23008 1.65412 3.45329 1.11603 3.8997 0.669619C4.34611 0.223206 4.8842 1.75781e-08 5.51396 0C6.14372 0 6.68181 0.223206 7.12822 0.669619C7.57463 1.11603 7.79784 1.6581 7.79784 2.29584ZM24.5144 17.0753C24.5144 17.713 24.2912 18.2551 23.8448 18.7015C23.3984 19.1479 22.8603 19.3711 22.2305 19.3711C21.6008 19.3711 21.0627 19.1479 20.6163 18.7015C20.1699 18.2551 19.9466 17.717 19.9466 17.0872C19.9466 16.4575 20.1699 15.9194 20.6163 15.473C21.0627 15.0266 21.6008 14.8034 22.2305 14.8034C22.8603 14.8034 23.3984 15.0266 23.8448 15.473C24.2912 15.9194 24.5144 16.4535 24.5144 17.0753Z" fill="white"/>
</svg>
