<svg width="34" height="34" viewBox="0 0 34 34" fill="none" xmlns="http://www.w3.org/2000/svg">
<path d="M24.0833 26.9162C24.0833 28.481 25.3519 29.7495 26.9167 29.7495C28.4815 29.7495 29.75 28.481 29.75 26.9162C29.75 25.3514 28.4815 24.0828 26.9167 24.0828C25.3519 24.0828 24.0833 25.3514 24.0833 26.9162ZM24.0833 26.9162H7.08333M7.08333 9.91618C8.64814 9.91618 9.91667 8.64765 9.91667 7.08284C9.91667 5.51804 8.64814 4.24951 7.08333 4.24951C5.51853 4.24951 4.25 5.51804 4.25 7.08284C4.25 8.64765 5.51853 9.91618 7.08333 9.91618ZM7.08333 9.91618V26.9162M7.08333 26.9162L15.5833 18.4162" stroke="#717171" stroke-width="1.5" stroke-linecap="round" stroke-linejoin="round"/>
</svg>
