<svg width="18" height="18" viewBox="0 0 18 18" fill="none" xmlns="http://www.w3.org/2000/svg">
<g clip-path="url(#clip0_377_872)">
<path d="M9.03261 17.9651C4.08924 17.9651 0.067627 13.9435 0.067627 9.00014C0.067627 4.05717 4.08924 0.0351562 9.03261 0.0351562C13.976 0.0351562 17.9976 4.05717 17.9976 9.00014C17.9976 13.9435 13.976 17.9651 9.03261 17.9651ZM9.03261 0.814702C4.51915 0.814702 0.847173 4.48668 0.847173 9.00014C0.847173 13.5136 4.51915 17.186 9.03261 17.186C13.5461 17.186 17.218 13.5136 17.218 9.00014C17.218 4.48668 13.5461 0.814702 9.03261 0.814702Z" fill="black"/>
<path d="M13.1345 9.3422C13.064 9.41229 12.9671 9.4563 12.8591 9.4563H5.22579C5.01023 9.4563 4.83582 9.28189 4.83582 9.06633C4.83582 8.85117 5.01022 8.67676 5.22538 8.67676H12.8591C13.075 8.67635 13.2494 8.85076 13.249 9.06633C13.2494 9.17431 13.2054 9.27171 13.1345 9.3422Z" fill="black"/>
</g>
<defs>
<clipPath id="clip0_377_872">
<rect width="18" height="18" fill="white"/>
</clipPath>
</defs>
</svg>
