<svg width="52" height="52" viewBox="0 0 52 52" fill="none" xmlns="http://www.w3.org/2000/svg">
<path d="M47.7806 37.6408H3.59481C3.19484 37.642 2.80035 37.5477 2.44416 37.3658C2.08797 37.1838 1.78037 36.9195 1.54696 36.5947C1.30823 36.2684 1.14848 35.8912 1.08028 35.4927C1.01209 35.0943 1.03731 34.6854 1.15395 34.2983V34.2001L6.67526 19.3083C6.84093 18.7824 7.16458 18.3258 7.59997 17.9983C8.03728 17.6708 8.56321 17.4936 9.10648 17.4897H11.6051C11.9731 17.4897 12.3276 17.6381 12.5876 17.9039C12.85 18.1706 12.997 18.5297 12.997 18.9038C12.997 19.2779 12.85 19.637 12.5876 19.9036C12.4595 20.0344 12.3067 20.1384 12.138 20.2095C11.9693 20.2806 11.7882 20.3174 11.6051 20.3178H9.27216L3.96277 34.8127H47.4493L42.1129 20.3255H39.7703C39.5874 20.3254 39.4063 20.2889 39.2376 20.2181C39.069 20.1473 38.9161 20.0437 38.7878 19.9133C38.5254 19.6466 38.3784 19.2875 38.3784 18.9134C38.3784 18.5393 38.5254 18.1802 38.7878 17.9136C38.9159 17.7828 39.0687 17.6788 39.2374 17.6077C39.4061 17.5366 39.5873 17.4998 39.7703 17.4994H42.267C42.8084 17.5013 43.3343 17.6785 43.7716 18.0041C44.2089 18.3278 44.5326 18.7843 44.6983 19.3083L50.2292 34.2983C50.339 34.6843 50.3591 35.0904 50.288 35.4853C50.2168 35.8803 50.0564 36.2538 49.8189 36.5773C49.5848 36.8982 49.2781 37.1591 48.9238 37.3386C48.5695 37.518 48.1778 37.611 47.7806 37.6099V37.6408Z" fill="#404040"/>
<path d="M27.3346 23.6025L27.3546 15.9615L31.4948 17.7464L25.6021 5L19.6173 17.7063L23.7694 15.9491L23.7516 23.5901C23.7505 23.827 23.7962 24.0618 23.8859 24.2811C23.9757 24.5003 24.1078 24.6997 24.2747 24.8678C24.4416 25.0359 24.6401 25.1695 24.8587 25.2608C25.0773 25.3521 25.3117 25.3994 25.5487 25.4C26.0233 25.3972 26.4777 25.2068 26.8125 24.8702C27.1473 24.5336 27.3354 24.0783 27.3357 23.6036L27.3346 23.6025Z" fill="#404040"/>
</svg>
