<svg width="20" height="20" viewBox="0 0 20 20" fill="none" xmlns="http://www.w3.org/2000/svg">
<path d="M19.853 12.432C19.881 12.6 19.874 12.803 19.832 13.041C19.79 13.279 19.72 13.5205 19.622 13.7655C19.524 14.0105 19.405 14.231 19.265 14.427C19.125 14.623 18.971 14.763 18.803 14.847C18.635 14.931 18.488 14.973 18.362 14.973C18.236 14.973 18.096 14.945 17.942 14.889C17.802 14.847 17.627 14.8085 17.417 14.7735C17.207 14.7385 16.9935 14.7315 16.7765 14.7525C16.5595 14.7735 16.3425 14.819 16.1255 14.889C15.9085 14.959 15.723 15.078 15.569 15.246C15.233 15.596 15.037 15.995 14.981 16.443C14.925 16.891 14.988 17.318 15.17 17.724C15.31 18.004 15.289 18.284 15.107 18.564C15.023 18.676 14.89 18.7915 14.708 18.9105C14.526 19.0295 14.3265 19.138 14.1095 19.236C13.8925 19.334 13.665 19.411 13.427 19.467C13.189 19.523 12.979 19.551 12.797 19.551C12.671 19.551 12.552 19.502 12.44 19.404C12.328 19.306 12.251 19.201 12.209 19.089H12.188C12.034 18.655 11.7715 18.2805 11.4005 17.9655C11.0295 17.6505 10.599 17.493 10.109 17.493C9.633 17.493 9.2025 17.6505 8.8175 17.9655C8.4325 18.2805 8.163 18.648 8.009 19.068C7.939 19.236 7.834 19.3585 7.694 19.4355C7.554 19.5125 7.4 19.551 7.232 19.551C7.036 19.551 6.8155 19.516 6.5705 19.446C6.3255 19.376 6.0805 19.2885 5.8355 19.1835C5.5905 19.0785 5.37 18.956 5.174 18.816C4.978 18.676 4.831 18.536 4.733 18.396C4.663 18.298 4.6245 18.1825 4.6175 18.0495C4.6105 17.9165 4.663 17.731 4.775 17.493C4.929 17.171 4.9885 16.8035 4.9535 16.3905C4.9185 15.9775 4.74 15.596 4.418 15.246C4.222 15.036 3.984 14.8995 3.704 14.8365C3.424 14.7735 3.158 14.749 2.906 14.763C2.612 14.777 2.311 14.833 2.003 14.931C1.807 14.987 1.611 14.973 1.415 14.889C1.261 14.833 1.1175 14.7035 0.984498 14.5005C0.851498 14.2975 0.732498 14.0735 0.627498 13.8285C0.522498 13.5835 0.441998 13.3315 0.385998 13.0725C0.329998 12.8135 0.315998 12.6 0.343998 12.432C0.385998 12.124 0.525998 11.928 0.763998 11.844C1.184 11.676 1.562 11.3995 1.898 11.0145C2.234 10.6295 2.402 10.199 2.402 9.723C2.402 9.233 2.234 8.806 1.898 8.442C1.562 8.078 1.184 7.812 0.763998 7.644C0.637998 7.602 0.532998 7.5005 0.448998 7.3395C0.364998 7.1785 0.322998 7.014 0.322998 6.846C0.322998 6.664 0.350998 6.461 0.406998 6.237C0.462998 6.013 0.536498 5.796 0.627498 5.586C0.718498 5.376 0.823498 5.1835 0.942498 5.0085C1.0615 4.8335 1.191 4.704 1.331 4.62C1.443 4.55 1.5515 4.522 1.6565 4.536C1.7615 4.55 1.877 4.578 2.003 4.62C2.423 4.788 2.8605 4.8405 3.3155 4.7775C3.7705 4.7145 4.173 4.515 4.523 4.179C4.691 4.011 4.8135 3.8045 4.8905 3.5595C4.9675 3.3145 5.0165 3.073 5.0375 2.835C5.0585 2.597 5.0585 2.38 5.0375 2.184C5.0165 1.988 4.999 1.848 4.985 1.764C4.957 1.68 4.9325 1.582 4.9115 1.47C4.8905 1.358 4.901 1.26 4.943 1.176C5.027 0.98 5.1775 0.8085 5.3945 0.6615C5.6115 0.5145 5.846 0.392 6.098 0.294C6.35 0.196 6.595 0.1225 6.833 0.0735C7.071 0.0245 7.26 0 7.4 0C7.582 0 7.7255 0.0595 7.8305 0.1785C7.9355 0.2975 8.009 0.42 8.051 0.546C8.205 0.924 8.457 1.2565 8.807 1.5435C9.157 1.8305 9.57 1.974 10.046 1.974C10.536 1.974 10.97 1.8375 11.348 1.5645C11.726 1.2915 11.992 0.945 12.146 0.525C12.202 0.413 12.2895 0.2975 12.4085 0.1785C12.5275 0.0595 12.65 0 12.776 0C12.972 0 13.1855 0.028 13.4165 0.084C13.6475 0.14 13.875 0.217 14.099 0.315C14.323 0.413 14.5295 0.539 14.7185 0.693C14.9075 0.847 15.058 1.015 15.17 1.197C15.24 1.309 15.261 1.4315 15.233 1.5645C15.205 1.6975 15.177 1.792 15.149 1.848C14.967 2.254 14.911 2.681 14.981 3.129C15.051 3.577 15.254 3.969 15.59 4.305C15.926 4.641 16.339 4.8265 16.829 4.8615C17.319 4.8965 17.774 4.816 18.194 4.62C18.306 4.55 18.4425 4.522 18.6035 4.536C18.7645 4.55 18.901 4.613 19.013 4.725C19.223 4.921 19.4085 5.2185 19.5695 5.6175C19.7305 6.0165 19.839 6.419 19.895 6.825C19.923 7.063 19.8845 7.2485 19.7795 7.3815C19.6745 7.5145 19.566 7.602 19.454 7.644C19.02 7.798 18.649 8.0675 18.341 8.4525C18.033 8.8375 17.879 9.275 17.879 9.765C17.879 10.241 18.0085 10.6575 18.2675 11.0145C18.5265 11.3715 18.866 11.627 19.286 11.781C19.384 11.837 19.468 11.893 19.538 11.949C19.692 12.075 19.797 12.236 19.853 12.432ZM10.088 14.322C10.718 14.322 11.313 14.203 11.873 13.965C12.433 13.727 12.9195 13.398 13.3325 12.978C13.7455 12.558 14.071 12.0715 14.309 11.5185C14.547 10.9655 14.666 10.374 14.666 9.744C14.666 9.114 14.547 8.5225 14.309 7.9695C14.071 7.4165 13.7455 6.9335 13.3325 6.5205C12.9195 6.1075 12.433 5.782 11.873 5.544C11.313 5.306 10.718 5.187 10.088 5.187C9.458 5.187 8.8665 5.306 8.3135 5.544C7.7605 5.782 7.2775 6.1075 6.8645 6.5205C6.4515 6.9335 6.126 7.4165 5.888 7.9695C5.65 8.5225 5.531 9.114 5.531 9.744C5.531 10.374 5.65 10.9655 5.888 11.5185C6.126 12.0715 6.4515 12.558 6.8645 12.978C7.2775 13.398 7.7605 13.727 8.3135 13.965C8.8665 14.203 9.458 14.322 10.088 14.322Z" fill="black"/>
</svg>
