<svg xmlns="http://www.w3.org/2000/svg" xmlns:xlink="http://www.w3.org/1999/xlink" fill="none" version="1.1" width="18.271358489990234" height="17.4375" viewBox="0 0 18.271358489990234 17.4375"><defs><clipPath id="master_svg0_84_02474"><rect x="0" y="0" width="18.271358489990234" height="17.4375" rx="0"/></clipPath><clipPath id="master_svg1_84_02476"><rect x="5" y="5" width="8" height="8" rx="0"/></clipPath></defs><g clip-path="url(#master_svg0_84_02474)"><g><path d="M2.8548753125,2.4521528125C2.6972053125,2.4521528125,2.5693853124999997,2.5741328125000003,2.5693853124999997,2.7246128125L2.5693853124999997,4.2231428125C2.5693853124999997,4.6745728125,2.1859353125,5.0405328125,1.7129153124999998,5.0405328125C1.2399003125,5.0405328125,0.8564453125,4.6745728125,0.8564453125,4.2231428125L0.8564453125,2.7246128125C0.8564453125,1.6718198125,1.7517423125,0.8173828125,2.8548753125,0.8173828125L4.4250653125,0.8173828125C4.8980853125,0.8173828125,5.2815453125,1.1833378125,5.2815453125,1.6347658125C5.2815453125,2.0861928125,4.8980853125,2.4521528125,4.4250653125,2.4521528125L2.8548753125,2.4521528125ZM6.7089853125,1.6347658125C6.7089953125,1.1833378125,7.0924453125,0.8173828125,7.5654553125,0.8173828125L10.7058453125,0.8173828125C11.1788453125,0.8173828125,11.5623453125,1.1833378125,11.5623453125,1.6347658125C11.5623453125,2.0861928125,11.1788453125,2.4521528125,10.7058453125,2.4521528125L7.5654553125,2.4521528125C7.0924453125,2.4521528125,6.7089953125,2.0861928125,6.7089853125,1.6347658125ZM12.9897453125,1.6347658125C12.9897453125,1.1833378125,13.3732453125,0.8173828125,13.8462453125,0.8173828125L15.4164453125,0.8173828125C16.5195453125,0.8173828125,17.4148453125,1.6718198125,17.4148453125,2.7246128125L17.4148453125,4.2231428125C17.4148453125,4.6745728125,17.0314453125,5.0405328125,16.558345312500002,5.0405328125C16.0853453125,5.0405328125,15.7019453125,4.6745728125,15.7019453125,4.2231428125L15.7019453125,2.7246128125C15.7019453125,2.5741328125000003,15.5741453125,2.4521528125,15.4164453125,2.4521528125L13.8462453125,2.4521528125C13.3732453125,2.4521528125,12.9897453125,2.0861928125,12.9897453125,1.6347658125ZM1.7129153124999998,6.4028328125C2.1859353125,6.4028328125,2.5693853124999997,6.7687828125,2.5693853124999997,7.2202128125L2.5693853124999997,10.2172828125C2.5693853124999997,10.6687128125,2.1859353125,11.0346828125,1.7129153124999998,11.0346828125C1.2399003125,11.0346828125,0.8564453125,10.6687128125,0.8564453125,10.2172828125L0.8564453125,7.2202128125C0.8564452253754,6.7687828125,1.2399003125,6.4028328125,1.7129153124999998,6.4028328125ZM16.558345312500002,6.4028328125C17.0314453125,6.4028328125,17.4148453125,6.7687828125,17.4148453125,7.2202128125L17.4148453125,10.2172828125C17.4148453125,10.6687128125,17.0314453125,11.0346828125,16.558345312500002,11.0346828125C16.0853453125,11.0346828125,15.7019453125,10.6687128125,15.7019453125,10.2172828125L15.7019453125,7.2202128125C15.7019453125,6.7687828125,16.0853453125,6.4028328125,16.558345312500002,6.4028328125ZM1.7129153124999998,12.3969828125C2.1859353125,12.3969828125,2.5693853124999997,12.7628828125,2.5693853124999997,13.2143828125L2.5693853124999997,14.7128828125C2.5693853124999997,14.8632828125,2.6972853125,14.9853828125,2.8548753125,14.9853828125L4.4250653125,14.9853828125C4.8980853125,14.9853828125,5.2815453125,15.3512828125,5.2815453125,15.8027828125C5.2815453125,16.254182812499998,4.8980853125,16.6200828125,4.4250653125,16.6200828125L2.8548753125,16.6200828125C1.7511723125,16.6200828125,0.8564453996246,15.7661828125,0.8564453125,14.7128828125L0.8564453125,13.2143828125C0.8564452253754,12.7628828125,1.2398993125,12.3969828125,1.7129153124999998,12.3969828125ZM16.558345312500002,12.3969828125C17.0314453125,12.3969828125,17.4148453125,12.7628828125,17.4148453125,13.2143828125L17.4148453125,14.7128828125C17.4148453125,15.7661828125,16.5201453125,16.6200828125,15.4164453125,16.6200828125L13.8462453125,16.6200828125C13.3732453125,16.6200828125,12.9897453125,16.254182812499998,12.9897453125,15.8027828125C12.9897453125,15.3512828125,13.3732453125,14.9853828125,13.8462453125,14.9853828125L15.4164453125,14.9853828125C15.5741453125,14.9853828125,15.7019453125,14.8633828125,15.7019453125,14.7128828125L15.7019453125,13.2143828125C15.7019453125,12.7628828125,16.0853453125,12.3969828125,16.558345312500002,12.3969828125ZM6.7089853125,15.8027828125C6.7089953125,15.3512828125,7.0924453125,14.9853828125,7.5654553125,14.9853828125L10.7058453125,14.9853828125C11.1788453125,14.9853828125,11.5623453125,15.3512828125,11.5623453125,15.8027828125C11.5623453125,16.254182812499998,11.1788453125,16.6200828125,10.7058453125,16.6200828125L7.5654553125,16.6200828125C7.0924453125,16.6200828125,6.7089953125,16.254182812499998,6.7089853125,15.8027828125Z" fill="#6366F1" fill-opacity="1" style="mix-blend-mode:passthrough"/></g><g clip-path="url(#master_svg1_84_02476)"><g><path d="M11,9Q11,9.09825,10.99037,9.19603Q10.98074,9.29381,10.96157,9.39018Q10.9424,9.48655,10.913879999999999,9.58057Q10.88536,9.67459,10.847760000000001,9.76537Q10.81016,9.85614,10.76384,9.94279Q10.71753,10.02945,10.662939999999999,10.111139999999999Q10.60835,10.19284,10.54602,10.26879Q10.48369,10.34474,10.41421,10.41421Q10.34474,10.48369,10.26879,10.54602Q10.19284,10.60835,10.111139999999999,10.662939999999999Q10.02945,10.71753,9.94279,10.76384Q9.85614,10.81016,9.76537,10.847760000000001Q9.67459,10.88536,9.58057,10.913879999999999Q9.48655,10.9424,9.39018,10.96157Q9.29381,10.98074,9.19603,10.99037Q9.09825,11,9,11Q8.90175,11,8.80397,10.99037Q8.70619,10.98074,8.60982,10.96157Q8.51345,10.9424,8.41943,10.913879999999999Q8.32541,10.88536,8.23463,10.847760000000001Q8.14386,10.81016,8.05721,10.76384Q7.970554,10.71753,7.888859,10.662939999999999Q7.807164,10.60835,7.731213,10.54602Q7.6552620000000005,10.48369,7.585786,10.41421Q7.516311,10.34474,7.453979,10.26879Q7.391648,10.19284,7.337061,10.111139999999999Q7.282474,10.02945,7.236157,9.94279Q7.189841,9.85614,7.152241,9.76537Q7.114641,9.67459,7.0861193,9.58057Q7.0575978,9.48655,7.0384294,9.39018Q7.0192611,9.29381,7.00963055,9.19603Q7,9.09825,7,9Q7,8.90175,7.00963055,8.80397Q7.0192611,8.70619,7.0384294,8.60982Q7.0575978,8.51345,7.0861193,8.41943Q7.114641,8.32541,7.152241,8.23463Q7.189841,8.14386,7.236157,8.05721Q7.282474,7.970554,7.337061,7.888859Q7.391648,7.807164,7.453979,7.731213Q7.516311,7.6552620000000005,7.585786,7.585786Q7.6552620000000005,7.516311,7.731213,7.453979Q7.807164,7.391648,7.888859,7.337061Q7.970554,7.282474,8.05721,7.236157Q8.14386,7.189841,8.23463,7.152241Q8.32541,7.114641,8.41943,7.0861193Q8.51345,7.0575978,8.60982,7.0384294Q8.70619,7.0192611,8.80397,7.00963055Q8.90175,7,9,7Q9.09825,7,9.19603,7.00963055Q9.29381,7.0192611,9.39018,7.0384294Q9.48655,7.0575978,9.58057,7.0861193Q9.67459,7.114641,9.76537,7.152241Q9.85614,7.189841,9.94279,7.236157Q10.02945,7.282474,10.111139999999999,7.337061Q10.19284,7.391648,10.26879,7.453979Q10.34474,7.516311,10.41421,7.585786Q10.48369,7.6552620000000005,10.54602,7.731213Q10.60835,7.807164,10.662939999999999,7.888859Q10.71753,7.970554,10.76384,8.05721Q10.81016,8.14386,10.847760000000001,8.23463Q10.88536,8.32541,10.913879999999999,8.41943Q10.9424,8.51345,10.96157,8.60982Q10.98074,8.70619,10.99037,8.80397Q11,8.90175,11,9Z" fill="#6366F1" fill-opacity="1" style="mix-blend-mode:passthrough"/></g></g></g></svg>