<svg width="18" height="18" viewBox="0 0 18 18" fill="none" xmlns="http://www.w3.org/2000/svg">
<g clip-path="url(#clip0_377_855)">
<path d="M7.72027 11.9533C7.88902 12.108 8.17027 12.108 8.33902 11.9392L13.6125 6.49703C13.7812 6.32828 13.7812 6.04703 13.5984 5.87828C13.4296 5.70953 13.1484 5.70953 12.9796 5.89234L7.70621 11.3345L8.32496 11.3205L5.11871 8.3814C4.9359 8.21265 4.66871 8.22671 4.49996 8.40953C4.33121 8.59234 4.34527 8.85952 4.52809 9.02827L7.72027 11.9533Z" fill="black"/>
<path d="M9.05627 17.7046C4.20471 17.7046 0.267212 13.7671 0.267212 8.91553C0.267212 4.06396 4.20471 0.126465 9.05627 0.126465C13.9078 0.126465 17.8453 4.06396 17.8453 8.91553C17.8453 13.7671 13.9078 17.7046 9.05627 17.7046ZM9.05627 0.970215C4.66877 0.970215 1.11096 4.52803 1.11096 8.91553C1.11096 13.303 4.66877 16.8608 9.05627 16.8608C13.4438 16.8608 17.0016 13.303 17.0016 8.91553C17.0016 4.52803 13.4438 0.970215 9.05627 0.970215Z" fill="black"/>
</g>
<defs>
<clipPath id="clip0_377_855">
<rect width="18" height="18" fill="white"/>
</clipPath>
</defs>
</svg>
