<svg width="27" height="27" viewBox="0 0 27 27" fill="none" xmlns="http://www.w3.org/2000/svg">
<path d="M14.418 1.88778L14.6993 2.03741L23.0805 6.79953C23.7645 7.18766 24.1875 7.91328 24.1875 8.69628V18.3038C24.187 18.659 24.0999 19.0087 23.9337 19.3226C23.7674 19.6364 23.5271 19.905 23.2335 20.1049L14.589 25.0245C14.2853 25.1969 13.945 25.2947 13.5961 25.31C13.2472 25.3252 12.8996 25.2575 12.582 25.1123L12.3008 24.9627L3.9195 20.2005C3.58381 20.0104 3.3045 19.7347 3.11004 19.4015C2.91558 19.0684 2.81292 18.6896 2.8125 18.3038V8.69628C2.8125 7.97291 3.1725 7.30016 3.7665 6.89516L12.411 1.97553C12.7147 1.80318 13.055 1.70535 13.4039 1.6901C13.7528 1.67484 14.1004 1.74259 14.418 1.88778ZM13.4989 4.24016L5.3505 8.87066V18.1294L13.5 22.7588L21.6484 18.1294V8.87066L13.5 4.24016H13.4989ZM19.098 10.431C19.1855 10.5819 19.2423 10.7485 19.2651 10.9214C19.2879 11.0943 19.2762 11.2699 19.2308 11.4383C19.1855 11.6066 19.1072 11.7643 19.0006 11.9023C18.894 12.0403 18.7612 12.1559 18.6098 12.2423L14.8298 14.4135V18.3128C14.8298 19.044 14.2335 19.638 13.4978 19.638C13.1453 19.6389 12.8069 19.4998 12.5569 19.2513C12.3069 19.0028 12.1658 18.6653 12.1646 18.3128V14.4135L8.38238 12.2423C8.23103 12.1558 8.0983 12.0402 7.99182 11.9021C7.88533 11.7641 7.8072 11.6064 7.76193 11.438C7.71665 11.2697 7.70512 11.094 7.728 10.9212C7.75089 10.7484 7.80772 10.5818 7.89525 10.431C8.07299 10.1261 8.36415 9.90381 8.70518 9.81276C9.04621 9.72171 9.40941 9.76926 9.7155 9.94503L13.4978 12.1174C14.049 11.8002 15.309 11.0757 17.2778 9.94616C17.5836 9.77019 17.9466 9.7223 18.2876 9.81292C18.6286 9.90355 18.9199 10.1253 19.098 10.4299V10.431Z" fill="#2C2C2C"/>
</svg>
