<svg width="34" height="34" viewBox="0 0 34 34" fill="none" xmlns="http://www.w3.org/2000/svg">
<path d="M7.08333 4.25C6.33189 4.25 5.61122 4.54851 5.07986 5.07986C4.54851 5.61122 4.25 6.33189 4.25 7.08333M26.9167 4.25C27.6681 4.25 28.3888 4.54851 28.9201 5.07986C29.4515 5.61122 29.75 6.33189 29.75 7.08333M7.08333 29.75C6.33189 29.75 5.61122 29.4515 5.07986 28.9201C4.54851 28.3888 4.25 27.6681 4.25 26.9167M12.75 4.25H14.1667M12.75 29.75H15.5833M19.8333 4.25H21.25M4.25 12.75V14.1667M29.75 12.75V15.5833M4.25 19.8333V21.25M17 17L22.6667 31.1667L25.075 25.075L31.1667 22.6667L17 17Z" stroke="#18181B" stroke-width="1.5" stroke-linecap="round" stroke-linejoin="round"/>
</svg>
