<svg width="18" height="18" viewBox="0 0 18 18" fill="none" xmlns="http://www.w3.org/2000/svg">
<g clip-path="url(#clip0_377_867)">
<path d="M9 0C13.9706 0 18 4.02943 18 9C18 13.8268 14.2003 17.7662 9.42857 17.9899V18H8.57143V17.9899C3.79993 17.7664 0 13.827 0 9C0 4.02943 4.02943 0 9 0ZM0.857143 9C0.857143 13.3534 4.2735 16.9089 8.57143 17.1317V0.868286C4.2735 1.09114 0.857143 4.64657 0.857143 9ZM17.1373 9.30621L9.42857 15.8413V17.1317C13.6254 16.914 16.9815 13.5189 17.1373 9.306V9.30621ZM16.6442 6.18771L9.42857 12.2006V14.7174L17.1049 8.20929C17.0386 7.51847 16.8838 6.83904 16.6442 6.18771ZM15.3171 3.86143L9.42857 8.56307V11.0848L16.2896 5.36721C16.0218 4.83106 15.6957 4.32608 15.3171 3.86143ZM13.2673 2.06357L9.42857 5.13429V7.46636L14.7407 3.225C14.2958 2.78261 13.8014 2.39291 13.2673 2.06357ZM9.42879 0.868286L9.42857 4.03671L12.4481 1.62107C11.4998 1.17733 10.4744 0.921686 9.42879 0.868286Z" fill="black"/>
</g>
<defs>
<clipPath id="clip0_377_867">
<rect width="18" height="18" fill="white"/>
</clipPath>
</defs>
</svg>
