<svg width="18" height="18" viewBox="0 0 18 18" fill="none" xmlns="http://www.w3.org/2000/svg">
<g clip-path="url(#clip0_377_861)">
<path d="M9.03261 17.9651C4.08924 17.9651 0.067627 13.9435 0.067627 9.00014C0.067627 4.05717 4.08924 0.0351562 9.03261 0.0351562C13.976 0.0351562 17.9976 4.05717 17.9976 9.00014C17.9976 13.9435 13.976 17.9651 9.03261 17.9651ZM9.03261 0.814702C4.51915 0.814702 0.847173 4.48668 0.847173 9.00014C0.847173 13.5136 4.51915 17.186 9.03261 17.186C13.5461 17.186 17.218 13.5136 17.218 9.00014C17.218 4.48668 13.5461 0.814702 9.03261 0.814702Z" fill="black"/>
<path d="M12.8829 5.61603C12.8697 5.72839 12.8144 5.84591 12.7182 5.94212L5.91793 12.7424C5.72589 12.9344 5.44718 12.9665 5.29475 12.814C5.14261 12.6619 5.17466 12.3832 5.36634 12.1915L12.167 5.39089C12.3591 5.1982 12.6378 5.16615 12.7899 5.31894C12.8666 5.39494 12.8962 5.50301 12.8829 5.61603Z" fill="black"/>
</g>
<defs>
<clipPath id="clip0_377_861">
<rect width="18" height="18" fill="white"/>
</clipPath>
</defs>
</svg>
