<svg width="189" height="34" viewBox="0 0 189 34" fill="none" xmlns="http://www.w3.org/2000/svg">
<path d="M52.6172 7.01489H59.7226C60.9013 7.01489 61.9679 7.14951 62.9214 7.41668C63.8749 7.68488 64.6894 8.0763 65.365 8.59096C66.0405 9.10665 66.5598 9.729 66.924 10.4601C67.2881 11.1912 67.4702 12.031 67.4702 12.9785C67.4702 14.0906 67.2558 15.0485 66.827 15.852C66.3982 16.6556 65.8142 17.3194 65.0752 17.8454C64.3361 18.3704 63.4731 18.7619 62.4872 19.0197C61.5014 19.2775 60.451 19.406 59.3369 19.406H57.0216V26.4827H52.6172V7.01489ZM57.0216 16.1617H58.8219C59.3789 16.1617 59.909 16.1151 60.4132 16.0229C60.9164 15.9297 61.356 15.7651 61.7309 15.529C62.1058 15.2929 62.401 14.9832 62.6155 14.6022C62.8299 14.2211 62.9365 13.7427 62.9365 13.1649C62.9365 12.1552 62.5831 11.4138 61.8753 10.9395C61.1685 10.4663 60.2678 10.2292 59.1742 10.2292H57.0205V16.1627L57.0216 16.1617Z" fill="#18181B"/>
<path d="M80.1393 6.67486C81.5754 6.67486 82.9039 6.90164 84.1257 7.35417C85.3474 7.80772 86.3968 8.46217 87.276 9.31648C88.1551 10.1718 88.8457 11.2281 89.35 12.4841C89.8531 13.7413 90.1052 15.1724 90.1052 16.7795C90.1052 18.3866 89.8477 19.7463 89.3338 20.9816C88.8199 22.218 88.112 23.2681 87.2113 24.1338C86.3106 24.9995 85.2451 25.6632 84.0125 26.1271C82.78 26.5911 81.4451 26.822 80.01 26.822C78.5749 26.822 77.2454 26.6004 76.0236 26.1572C74.8018 25.714 73.7514 25.0657 72.8722 24.2104C71.9931 23.3561 71.3014 22.305 70.7982 21.0583C70.294 19.8125 70.043 18.3856 70.043 16.7785C70.043 15.1713 70.3005 13.8075 70.8144 12.5608C71.3283 11.315 72.0362 10.2536 72.9369 9.37758C73.8376 8.50256 74.9031 7.83258 76.1357 7.36866C77.3682 6.90475 78.702 6.67383 80.1382 6.67383L80.1393 6.67486ZM74.706 16.7795C74.706 17.9331 74.8503 18.9375 75.1401 19.7929C75.43 20.6482 75.82 21.3586 76.3134 21.925C76.8058 22.4914 77.379 22.9139 78.033 23.1914C78.6869 23.47 79.3883 23.6088 80.1393 23.6088C80.8902 23.6088 81.5593 23.47 82.2133 23.1914C82.8673 22.9129 83.4297 22.4914 83.9016 21.925C84.3724 21.3586 84.7484 20.6482 85.0264 19.7929C85.3043 18.9385 85.4444 17.9341 85.4444 16.7795C85.4444 15.6249 85.3 14.5541 85.0102 13.6895C84.7204 12.8238 84.3293 12.1082 83.8369 11.5418C83.3435 10.9754 82.7703 10.5581 82.1174 10.2899C81.4634 10.0227 80.762 9.88809 80.0111 9.88809C79.2601 9.88809 78.5641 10.032 77.9209 10.3209C77.2777 10.6098 76.7207 11.0365 76.2488 11.6029C75.7769 12.1693 75.402 12.8849 75.124 13.7506C74.8449 14.6163 74.706 15.6249 74.706 16.7785V16.7795Z" fill="#18181B"/>
<path d="M93.9648 7.01489H98.3693V23.1452H106.536V26.4827H93.9648V7.01489Z" fill="#18181B"/>
<path d="M109.366 7.01489L113.674 14.5856L118.046 7.01489H122.837L115.763 18.4481V26.4827H111.359V18.4481L104.414 7.01489H109.366Z" fill="#18181B"/>
<path d="M125.278 7.01489L129.843 18.7888C130.207 19.757 130.571 20.72 130.936 21.6779C131.301 22.6357 131.644 23.5988 131.965 24.567H132.03C132.351 23.5988 132.695 22.6357 133.059 21.6779C133.423 20.72 133.787 19.757 134.153 18.7888L138.749 7.01489H140.549L132.768 26.4827H131.128L123.445 7.01489H125.278Z" fill="#18181B"/>
<path d="M144.856 7.01489V26.4827H143.184V7.01489H144.856Z" fill="#18181B"/>
<path d="M150 7.01489H161.574V8.3124H151.672V15.821H160.738V17.1185H151.672V25.1842H161.671V26.4817H150.001V7.01489H150Z" fill="#18181B"/>
<path d="M165.081 7.01489L168.425 18.4792C168.724 19.4888 169.009 20.4984 169.277 21.507C169.545 22.5167 169.786 23.5366 170 24.566H170.065C170.301 23.5356 170.562 22.5167 170.852 21.507C171.142 20.4974 171.436 19.4888 171.737 18.4792L175.209 7.01489H176.784L180.321 18.4792C180.621 19.5095 180.922 20.5243 181.222 21.5226C181.522 22.5218 181.801 23.5366 182.058 24.566H182.123C182.359 23.5356 182.599 22.5218 182.846 21.5226C183.092 20.5233 183.365 19.5095 183.666 18.4792L186.913 7.01489H188.617L182.927 26.4827H181.222L177.299 13.4424C177.063 12.7009 176.838 11.9543 176.624 11.2025C176.409 10.4508 176.206 9.69379 176.013 8.93164H175.948C175.755 9.69379 175.557 10.4456 175.354 11.187C175.15 11.9284 174.93 12.6813 174.694 13.4424L170.868 26.4827H169.196L163.344 7.01489H165.079H165.081Z" fill="#18181B"/>
<path fill-rule="evenodd" clip-rule="evenodd" d="M15.1111 0L30.2222 8.5V25.5L15.1111 34L0 25.5V8.5L15.1111 0ZM1.57518 10.1978L14.3235 16.5556V31.7849L1.57518 24.614V10.1978ZM15.8987 31.7849L28.647 24.614V10.1978L15.8987 16.5556V31.7849ZM15.1111 15.2243L27.7874 8.90249L15.1111 1.77208L2.43482 8.90249L15.1111 15.2243ZM15.1949 5.60121C15.6299 5.60121 15.9825 5.94476 15.9825 6.36854V12.349C15.9825 12.7728 15.6299 13.1163 15.1949 13.1163C14.76 13.1163 14.4073 12.7728 14.4073 12.349V6.36854C14.4073 5.94476 14.76 5.60121 15.1949 5.60121ZM11.6755 18.4626C11.9204 18.8128 11.8275 19.2902 11.468 19.5288L6.39505 22.8959C6.03557 23.1345 5.54562 23.044 5.30072 22.6938C5.05582 22.3436 5.1487 21.8662 5.50818 21.6276L10.5811 18.2605C10.9406 18.0219 11.4305 18.1124 11.6755 18.4626ZM18.4785 18.517C18.696 18.15 19.1777 18.0242 19.5544 18.2361L24.8703 21.2263C25.247 21.4382 25.3761 21.9075 25.1586 22.2745C24.9411 22.6415 24.4594 22.7673 24.0827 22.5554L18.7668 19.5652C18.3901 19.3533 18.261 18.884 18.4785 18.517Z" fill="#18181B"/>
</svg>
