<svg width="66" height="40" viewBox="0 0 66 40" fill="none" xmlns="http://www.w3.org/2000/svg">
<path d="M8.60156 15.4453V17H2.5625V15.4453H8.60156ZM3.11719 5.625V17H1.15625V5.625H3.11719ZM7.8125 10.375V11.9062H2.5625V10.375H7.8125ZM8.5625 5.625V7.1875H2.5625V5.625H8.5625ZM15.0156 15.25V5H16.9062V17H15.1953L15.0156 15.25ZM9.51562 12.8672V12.7031C9.51562 12.0625 9.59115 11.4792 9.74219 10.9531C9.89323 10.4219 10.112 9.96615 10.3984 9.58594C10.6849 9.20052 11.0339 8.90625 11.4453 8.70312C11.8568 8.49479 12.3203 8.39062 12.8359 8.39062C13.3464 8.39062 13.7943 8.48958 14.1797 8.6875C14.5651 8.88542 14.8932 9.16927 15.1641 9.53906C15.4349 9.90365 15.651 10.3411 15.8125 10.8516C15.974 11.3568 16.0885 11.9193 16.1562 12.5391V13.0625C16.0885 13.6667 15.974 14.2188 15.8125 14.7188C15.651 15.2188 15.4349 15.651 15.1641 16.0156C14.8932 16.3802 14.5625 16.6615 14.1719 16.8594C13.7865 17.0573 13.3359 17.1562 12.8203 17.1562C12.3099 17.1562 11.849 17.0495 11.4375 16.8359C11.0312 16.6224 10.6849 16.3229 10.3984 15.9375C10.112 15.5521 9.89323 15.099 9.74219 14.5781C9.59115 14.0521 9.51562 13.4818 9.51562 12.8672ZM11.3984 12.7031V12.8672C11.3984 13.2526 11.4323 13.612 11.5 13.9453C11.5729 14.2786 11.6849 14.5729 11.8359 14.8281C11.987 15.0781 12.1823 15.276 12.4219 15.4219C12.6667 15.5625 12.9583 15.6328 13.2969 15.6328C13.724 15.6328 14.0755 15.5391 14.3516 15.3516C14.6276 15.1641 14.8438 14.9115 15 14.5938C15.1615 14.2708 15.2708 13.9115 15.3281 13.5156V12.1016C15.2969 11.7943 15.2318 11.5078 15.1328 11.2422C15.0391 10.9766 14.9115 10.7448 14.75 10.5469C14.5885 10.3438 14.388 10.1875 14.1484 10.0781C13.9141 9.96354 13.6354 9.90625 13.3125 9.90625C12.9688 9.90625 12.6771 9.97917 12.4375 10.125C12.1979 10.2708 12 10.4714 11.8438 10.7266C11.6927 10.9818 11.5807 11.2786 11.5078 11.6172C11.4349 11.9557 11.3984 12.3177 11.3984 12.7031ZM20.8906 8.54688V17H19V8.54688H20.8906ZM18.875 6.32812C18.875 6.04167 18.9688 5.80469 19.1562 5.61719C19.349 5.42448 19.6146 5.32812 19.9531 5.32812C20.2865 5.32812 20.5495 5.42448 20.7422 5.61719C20.9349 5.80469 21.0312 6.04167 21.0312 6.32812C21.0312 6.60938 20.9349 6.84375 20.7422 7.03125C20.5495 7.21875 20.2865 7.3125 19.9531 7.3125C19.6146 7.3125 19.349 7.21875 19.1562 7.03125C18.9688 6.84375 18.875 6.60938 18.875 6.32812ZM26.8281 8.54688V9.92188H22.0625V8.54688H26.8281ZM23.4375 6.47656H25.3203V14.6641C25.3203 14.9245 25.3568 15.125 25.4297 15.2656C25.5078 15.401 25.6146 15.4922 25.75 15.5391C25.8854 15.5859 26.0443 15.6094 26.2266 15.6094C26.3568 15.6094 26.4818 15.6016 26.6016 15.5859C26.7214 15.5703 26.8177 15.5547 26.8906 15.5391L26.8984 16.9766C26.7422 17.0234 26.5599 17.0651 26.3516 17.1016C26.1484 17.138 25.9141 17.1562 25.6484 17.1562C25.2161 17.1562 24.8333 17.0807 24.5 16.9297C24.1667 16.7734 23.9062 16.5208 23.7188 16.1719C23.5312 15.8229 23.4375 15.3594 23.4375 14.7812V6.47656ZM27.7344 12.8672V12.6875C27.7344 12.0781 27.8229 11.513 28 10.9922C28.1771 10.4661 28.4323 10.0104 28.7656 9.625C29.1042 9.23438 29.5156 8.93229 30 8.71875C30.4896 8.5 31.0417 8.39062 31.6562 8.39062C32.276 8.39062 32.8281 8.5 33.3125 8.71875C33.8021 8.93229 34.2161 9.23438 34.5547 9.625C34.8932 10.0104 35.151 10.4661 35.3281 10.9922C35.5052 11.513 35.5938 12.0781 35.5938 12.6875V12.8672C35.5938 13.4766 35.5052 14.0417 35.3281 14.5625C35.151 15.0833 34.8932 15.5391 34.5547 15.9297C34.2161 16.3151 33.8047 16.6172 33.3203 16.8359C32.8359 17.0495 32.2865 17.1562 31.6719 17.1562C31.0521 17.1562 30.4974 17.0495 30.0078 16.8359C29.5234 16.6172 29.112 16.3151 28.7734 15.9297C28.4349 15.5391 28.1771 15.0833 28 14.5625C27.8229 14.0417 27.7344 13.4766 27.7344 12.8672ZM29.6172 12.6875V12.8672C29.6172 13.2474 29.6562 13.6068 29.7344 13.9453C29.8125 14.2839 29.9349 14.5807 30.1016 14.8359C30.2682 15.0911 30.4818 15.2917 30.7422 15.4375C31.0026 15.5833 31.3125 15.6562 31.6719 15.6562C32.0208 15.6562 32.3229 15.5833 32.5781 15.4375C32.8385 15.2917 33.0521 15.0911 33.2188 14.8359C33.3854 14.5807 33.5078 14.2839 33.5859 13.9453C33.6693 13.6068 33.7109 13.2474 33.7109 12.8672V12.6875C33.7109 12.3125 33.6693 11.9583 33.5859 11.625C33.5078 11.2865 33.3828 10.987 33.2109 10.7266C33.0443 10.4661 32.8307 10.263 32.5703 10.1172C32.3151 9.96615 32.0104 9.89062 31.6562 9.89062C31.3021 9.89062 30.9948 9.96615 30.7344 10.1172C30.4792 10.263 30.2682 10.4661 30.1016 10.7266C29.9349 10.987 29.8125 11.2865 29.7344 11.625C29.6562 11.9583 29.6172 12.3125 29.6172 12.6875ZM39.0625 10.1562V17H37.1797V8.54688H38.9766L39.0625 10.1562ZM41.6484 8.49219L41.6328 10.2422C41.5182 10.2214 41.3932 10.2057 41.2578 10.1953C41.1276 10.1849 40.9974 10.1797 40.8672 10.1797C40.5443 10.1797 40.2604 10.2266 40.0156 10.3203C39.7708 10.4089 39.5651 10.5391 39.3984 10.7109C39.237 10.8776 39.112 11.0807 39.0234 11.3203C38.9349 11.5599 38.8828 11.8281 38.8672 12.125L38.4375 12.1562C38.4375 11.625 38.4896 11.1328 38.5938 10.6797C38.6979 10.2266 38.8542 9.82812 39.0625 9.48438C39.276 9.14062 39.5417 8.8724 39.8594 8.67969C40.1823 8.48698 40.5547 8.39062 40.9766 8.39062C41.0911 8.39062 41.2135 8.40104 41.3438 8.42188C41.4792 8.44271 41.5807 8.46615 41.6484 8.49219Z" fill="#18181B"/>
<path d="M7.55859 30.4648V31.0039C7.55859 31.6445 7.47852 32.2188 7.31836 32.7266C7.1582 33.2344 6.92773 33.666 6.62695 34.0215C6.32617 34.377 5.96484 34.6484 5.54297 34.8359C5.125 35.0234 4.65625 35.1172 4.13672 35.1172C3.63281 35.1172 3.16992 35.0234 2.74805 34.8359C2.33008 34.6484 1.9668 34.377 1.6582 34.0215C1.35352 33.666 1.11719 33.2344 0.949219 32.7266C0.78125 32.2188 0.697266 31.6445 0.697266 31.0039V30.4648C0.697266 29.8242 0.779297 29.252 0.943359 28.748C1.11133 28.2402 1.34766 27.8086 1.65234 27.4531C1.95703 27.0938 2.31836 26.8203 2.73633 26.6328C3.1582 26.4453 3.62109 26.3516 4.125 26.3516C4.64453 26.3516 5.11328 26.4453 5.53125 26.6328C5.95312 26.8203 6.31445 27.0938 6.61523 27.4531C6.91992 27.8086 7.15234 28.2402 7.3125 28.748C7.47656 29.252 7.55859 29.8242 7.55859 30.4648ZM6.43945 31.0039V30.4531C6.43945 29.9453 6.38672 29.4961 6.28125 29.1055C6.17969 28.7148 6.0293 28.3867 5.83008 28.1211C5.63086 27.8555 5.38672 27.6543 5.09766 27.5176C4.8125 27.3809 4.48828 27.3125 4.125 27.3125C3.77344 27.3125 3.45508 27.3809 3.16992 27.5176C2.88867 27.6543 2.64648 27.8555 2.44336 28.1211C2.24414 28.3867 2.08984 28.7148 1.98047 29.1055C1.87109 29.4961 1.81641 29.9453 1.81641 30.4531V31.0039C1.81641 31.5156 1.87109 31.9688 1.98047 32.3633C2.08984 32.7539 2.24609 33.084 2.44922 33.3535C2.65625 33.6191 2.90039 33.8203 3.18164 33.957C3.4668 34.0938 3.78516 34.1621 4.13672 34.1621C4.50391 34.1621 4.83008 34.0938 5.11523 33.957C5.40039 33.8203 5.64062 33.6191 5.83594 33.3535C6.03516 33.084 6.18555 32.7539 6.28711 32.3633C6.38867 31.9688 6.43945 31.5156 6.43945 31.0039ZM10.1719 30.0137V35H9.08789V28.6602H10.1133L10.1719 30.0137ZM9.91406 31.5898L9.46289 31.5723C9.4668 31.1387 9.53125 30.7383 9.65625 30.3711C9.78125 30 9.95703 29.6777 10.1836 29.4043C10.4102 29.1309 10.6797 28.9199 10.9922 28.7715C11.3086 28.6191 11.6582 28.543 12.041 28.543C12.3535 28.543 12.6348 28.5859 12.8848 28.6719C13.1348 28.7539 13.3477 28.8867 13.5234 29.0703C13.7031 29.2539 13.8398 29.4922 13.9336 29.7852C14.0273 30.0742 14.0742 30.4277 14.0742 30.8457V35H12.9844V30.834C12.9844 30.502 12.9355 30.2363 12.8379 30.0371C12.7402 29.834 12.5977 29.6875 12.4102 29.5977C12.2227 29.5039 11.9922 29.457 11.7188 29.457C11.4492 29.457 11.2031 29.5137 10.9805 29.627C10.7617 29.7402 10.5723 29.8965 10.4121 30.0957C10.2559 30.2949 10.1328 30.5234 10.043 30.7812C9.95703 31.0352 9.91406 31.3047 9.91406 31.5898ZM16.8984 26V35H15.8086V26H16.8984ZM19.8164 28.6602V35H18.7266V28.6602H19.8164ZM18.6445 26.9785C18.6445 26.8027 18.6973 26.6543 18.8027 26.5332C18.9121 26.4121 19.0723 26.3516 19.2832 26.3516C19.4902 26.3516 19.6484 26.4121 19.7578 26.5332C19.8711 26.6543 19.9277 26.8027 19.9277 26.9785C19.9277 27.1465 19.8711 27.291 19.7578 27.4121C19.6484 27.5293 19.4902 27.5879 19.2832 27.5879C19.0723 27.5879 18.9121 27.5293 18.8027 27.4121C18.6973 27.291 18.6445 27.1465 18.6445 26.9785ZM22.6406 30.0137V35H21.5566V28.6602H22.582L22.6406 30.0137ZM22.3828 31.5898L21.9316 31.5723C21.9355 31.1387 22 30.7383 22.125 30.3711C22.25 30 22.4258 29.6777 22.6523 29.4043C22.8789 29.1309 23.1484 28.9199 23.4609 28.7715C23.7773 28.6191 24.127 28.543 24.5098 28.543C24.8223 28.543 25.1035 28.5859 25.3535 28.6719C25.6035 28.7539 25.8164 28.8867 25.9922 29.0703C26.1719 29.2539 26.3086 29.4922 26.4023 29.7852C26.4961 30.0742 26.543 30.4277 26.543 30.8457V35H25.4531V30.834C25.4531 30.502 25.4043 30.2363 25.3066 30.0371C25.209 29.834 25.0664 29.6875 24.8789 29.5977C24.6914 29.5039 24.4609 29.457 24.1875 29.457C23.918 29.457 23.6719 29.5137 23.4492 29.627C23.2305 29.7402 23.041 29.8965 22.8809 30.0957C22.7246 30.2949 22.6016 30.5234 22.5117 30.7812C22.4258 31.0352 22.3828 31.3047 22.3828 31.5898ZM30.8203 35.1172C30.3789 35.1172 29.9785 35.043 29.6191 34.8945C29.2637 34.7422 28.957 34.5293 28.6992 34.2559C28.4453 33.9824 28.25 33.6582 28.1133 33.2832C27.9766 32.9082 27.9082 32.498 27.9082 32.0527V31.8066C27.9082 31.291 27.9844 30.832 28.1367 30.4297C28.2891 30.0234 28.4961 29.6797 28.7578 29.3984C29.0195 29.1172 29.3164 28.9043 29.6484 28.7598C29.9805 28.6152 30.3242 28.543 30.6797 28.543C31.1328 28.543 31.5234 28.6211 31.8516 28.7773C32.1836 28.9336 32.4551 29.1523 32.666 29.4336C32.877 29.7109 33.0332 30.0391 33.1348 30.418C33.2363 30.793 33.2871 31.2031 33.2871 31.6484V32.1348H28.5527V31.25H32.2031V31.168C32.1875 30.8867 32.1289 30.6133 32.0273 30.3477C31.9297 30.082 31.7734 29.8633 31.5586 29.6914C31.3438 29.5195 31.0508 29.4336 30.6797 29.4336C30.4336 29.4336 30.207 29.4863 30 29.5918C29.793 29.6934 29.6152 29.8457 29.4668 30.0488C29.3184 30.252 29.2031 30.5 29.1211 30.793C29.0391 31.0859 28.998 31.4238 28.998 31.8066V32.0527C28.998 32.3535 29.0391 32.6367 29.1211 32.9023C29.207 33.1641 29.3301 33.3945 29.4902 33.5938C29.6543 33.793 29.8516 33.9492 30.082 34.0625C30.3164 34.1758 30.582 34.2324 30.8789 34.2324C31.2617 34.2324 31.5859 34.1543 31.8516 33.998C32.1172 33.8418 32.3496 33.6328 32.5488 33.3711L33.2051 33.8926C33.0684 34.0996 32.8945 34.2969 32.6836 34.4844C32.4727 34.6719 32.2129 34.8242 31.9043 34.9414C31.5996 35.0586 31.2383 35.1172 30.8203 35.1172ZM40.6113 26.4688V35H39.498V26.4688H40.6113ZM43.3535 26.4688V27.3945H36.7617V26.4688H43.3535ZM43.582 31.9004V31.7656C43.582 31.3086 43.6484 30.8848 43.7812 30.4941C43.9141 30.0996 44.1055 29.7578 44.3555 29.4688C44.6055 29.1758 44.9082 28.9492 45.2637 28.7891C45.6191 28.625 46.0176 28.543 46.459 28.543C46.9043 28.543 47.3047 28.625 47.6602 28.7891C48.0195 28.9492 48.3242 29.1758 48.5742 29.4688C48.8281 29.7578 49.0215 30.0996 49.1543 30.4941C49.2871 30.8848 49.3535 31.3086 49.3535 31.7656V31.9004C49.3535 32.3574 49.2871 32.7812 49.1543 33.1719C49.0215 33.5625 48.8281 33.9043 48.5742 34.1973C48.3242 34.4863 48.0215 34.7129 47.666 34.877C47.3145 35.0371 46.916 35.1172 46.4707 35.1172C46.0254 35.1172 45.625 35.0371 45.2695 34.877C44.9141 34.7129 44.6094 34.4863 44.3555 34.1973C44.1055 33.9043 43.9141 33.5625 43.7812 33.1719C43.6484 32.7812 43.582 32.3574 43.582 31.9004ZM44.666 31.7656V31.9004C44.666 32.2168 44.7031 32.5156 44.7773 32.7969C44.8516 33.0742 44.9629 33.3203 45.1113 33.5352C45.2637 33.75 45.4531 33.9199 45.6797 34.0449C45.9062 34.166 46.1699 34.2266 46.4707 34.2266C46.7676 34.2266 47.0273 34.166 47.25 34.0449C47.4766 33.9199 47.6641 33.75 47.8125 33.5352C47.9609 33.3203 48.0723 33.0742 48.1465 32.7969C48.2246 32.5156 48.2637 32.2168 48.2637 31.9004V31.7656C48.2637 31.4531 48.2246 31.1582 48.1465 30.8809C48.0723 30.5996 47.959 30.3516 47.8066 30.1367C47.6582 29.918 47.4707 29.7461 47.2441 29.6211C47.0215 29.4961 46.7598 29.4336 46.459 29.4336C46.1621 29.4336 45.9004 29.4961 45.6738 29.6211C45.4512 29.7461 45.2637 29.918 45.1113 30.1367C44.9629 30.3516 44.8516 30.5996 44.7773 30.8809C44.7031 31.1582 44.666 31.4531 44.666 31.7656ZM50.4258 31.9004V31.7656C50.4258 31.3086 50.4922 30.8848 50.625 30.4941C50.7578 30.0996 50.9492 29.7578 51.1992 29.4688C51.4492 29.1758 51.752 28.9492 52.1074 28.7891C52.4629 28.625 52.8613 28.543 53.3027 28.543C53.748 28.543 54.1484 28.625 54.5039 28.7891C54.8633 28.9492 55.168 29.1758 55.418 29.4688C55.6719 29.7578 55.8652 30.0996 55.998 30.4941C56.1309 30.8848 56.1973 31.3086 56.1973 31.7656V31.9004C56.1973 32.3574 56.1309 32.7812 55.998 33.1719C55.8652 33.5625 55.6719 33.9043 55.418 34.1973C55.168 34.4863 54.8652 34.7129 54.5098 34.877C54.1582 35.0371 53.7598 35.1172 53.3145 35.1172C52.8691 35.1172 52.4688 35.0371 52.1133 34.877C51.7578 34.7129 51.4531 34.4863 51.1992 34.1973C50.9492 33.9043 50.7578 33.5625 50.625 33.1719C50.4922 32.7812 50.4258 32.3574 50.4258 31.9004ZM51.5098 31.7656V31.9004C51.5098 32.2168 51.5469 32.5156 51.6211 32.7969C51.6953 33.0742 51.8066 33.3203 51.9551 33.5352C52.1074 33.75 52.2969 33.9199 52.5234 34.0449C52.75 34.166 53.0137 34.2266 53.3145 34.2266C53.6113 34.2266 53.8711 34.166 54.0938 34.0449C54.3203 33.9199 54.5078 33.75 54.6562 33.5352C54.8047 33.3203 54.916 33.0742 54.9902 32.7969C55.0684 32.5156 55.1074 32.2168 55.1074 31.9004V31.7656C55.1074 31.4531 55.0684 31.1582 54.9902 30.8809C54.916 30.5996 54.8027 30.3516 54.6504 30.1367C54.502 29.918 54.3145 29.7461 54.0879 29.6211C53.8652 29.4961 53.6035 29.4336 53.3027 29.4336C53.0059 29.4336 52.7441 29.4961 52.5176 29.6211C52.2949 29.7461 52.1074 29.918 51.9551 30.1367C51.8066 30.3516 51.6953 30.5996 51.6211 30.8809C51.5469 31.1582 51.5098 31.4531 51.5098 31.7656ZM58.7344 26V35H57.6445V26H58.7344ZM64.166 33.3184C64.166 33.1621 64.1309 33.0176 64.0605 32.8848C63.9941 32.748 63.8555 32.625 63.6445 32.5156C63.4375 32.4023 63.125 32.3047 62.707 32.2227C62.3555 32.1484 62.0371 32.0605 61.752 31.959C61.4707 31.8574 61.2305 31.7344 61.0312 31.5898C60.8359 31.4453 60.6855 31.2754 60.5801 31.0801C60.4746 30.8848 60.4219 30.6562 60.4219 30.3945C60.4219 30.1445 60.4766 29.9082 60.5859 29.6855C60.6992 29.4629 60.8574 29.2656 61.0605 29.0938C61.2676 28.9219 61.5156 28.7871 61.8047 28.6895C62.0938 28.5918 62.416 28.543 62.7715 28.543C63.2793 28.543 63.7129 28.6328 64.0723 28.8125C64.4316 28.9922 64.707 29.2324 64.8984 29.5332C65.0898 29.8301 65.1855 30.1602 65.1855 30.5234H64.1016C64.1016 30.3477 64.0488 30.1777 63.9434 30.0137C63.8418 29.8457 63.6914 29.707 63.4922 29.5977C63.2969 29.4883 63.0566 29.4336 62.7715 29.4336C62.4707 29.4336 62.2266 29.4805 62.0391 29.5742C61.8555 29.6641 61.7207 29.7793 61.6348 29.9199C61.5527 30.0605 61.5117 30.209 61.5117 30.3652C61.5117 30.4824 61.5312 30.5879 61.5703 30.6816C61.6133 30.7715 61.6875 30.8555 61.793 30.9336C61.8984 31.0078 62.0469 31.0781 62.2383 31.1445C62.4297 31.2109 62.6738 31.2773 62.9707 31.3438C63.4902 31.4609 63.918 31.6016 64.2539 31.7656C64.5898 31.9297 64.8398 32.1309 65.0039 32.3691C65.168 32.6074 65.25 32.8965 65.25 33.2363C65.25 33.5137 65.1914 33.7676 65.0742 33.998C64.9609 34.2285 64.7949 34.4277 64.5762 34.5957C64.3613 34.7598 64.1035 34.8887 63.8027 34.9824C63.5059 35.0723 63.1719 35.1172 62.8008 35.1172C62.2422 35.1172 61.7695 35.0176 61.3828 34.8184C60.9961 34.6191 60.7031 34.3613 60.5039 34.0449C60.3047 33.7285 60.2051 33.3945 60.2051 33.043H61.2949C61.3105 33.3398 61.3965 33.5762 61.5527 33.752C61.709 33.9238 61.9004 34.0469 62.127 34.1211C62.3535 34.1914 62.5781 34.2266 62.8008 34.2266C63.0977 34.2266 63.3457 34.1875 63.5449 34.1094C63.748 34.0312 63.9023 33.9238 64.0078 33.7871C64.1133 33.6504 64.166 33.4941 64.166 33.3184Z" fill="#18181B"/>
</svg>
