<svg width="239" height="161" viewBox="0 0 239 161" fill="none" xmlns="http://www.w3.org/2000/svg">
<path d="M194.93 338.26C274.321 338.26 338.68 273.901 338.68 194.51C338.68 115.119 274.321 50.7598 194.93 50.7598C115.539 50.7598 51.1803 115.119 51.1803 194.51C51.1803 273.901 115.539 338.26 194.93 338.26Z" stroke="#A4A8A8" stroke-width="1.5" stroke-miterlimit="10"/>
<path d="M194.93 387.95C88.2703 387.95 1.49023 301.17 1.49023 194.51C1.49023 87.8498 88.2703 1.06982 194.93 1.06982C301.59 1.06982 388.37 87.8498 388.37 194.51C388.37 301.17 301.59 387.95 194.93 387.95Z" stroke="#A4A8A8" stroke-width="1.5" stroke-miterlimit="10"/>
<path d="M194.93 363.11C101.96 363.11 26.3302 287.48 26.3302 194.51C26.3302 101.54 101.96 25.9098 194.93 25.9098C287.9 25.9098 363.52 101.54 363.52 194.51C363.52 287.48 287.89 363.11 194.93 363.11Z" stroke="#A4A8A8" stroke-width="1.5" stroke-miterlimit="10"/>
<path d="M194.93 338.26C274.321 338.26 338.68 273.901 338.68 194.51C338.68 115.119 274.321 50.7598 194.93 50.7598C115.539 50.7598 51.1803 115.119 51.1803 194.51C51.1803 273.901 115.539 338.26 194.93 338.26Z" stroke="#A4A8A8" stroke-width="1.5" stroke-miterlimit="10"/>
<path d="M194.93 311.6C259.597 311.6 312.02 259.177 312.02 194.51C312.02 129.843 259.597 77.4198 194.93 77.4198C130.263 77.4198 77.8402 129.843 77.8402 194.51C77.8402 259.177 130.263 311.6 194.93 311.6Z" stroke="#A4A8A8" stroke-width="1.5" stroke-miterlimit="10"/>
<path d="M194.93 287.18C246.111 287.18 287.6 245.69 287.6 194.51C287.6 143.33 246.111 101.84 194.93 101.84C143.75 101.84 102.26 143.33 102.26 194.51C102.26 245.69 143.75 287.18 194.93 287.18Z" stroke="#A4A8A8" stroke-width="1.5" stroke-miterlimit="10"/>
</svg>
